<svg xmlns="http://www.w3.org/2000/svg" viewBox="0 0 152 64">
  <defs>
    <style>
      .cls-1 {
        fill: #e50000;
        fill-rule: evenodd;
      }

      .cls-2 {
        fill: #fff;
      }
    </style>
  </defs>
  <title>btn-login-sp</title>
  <g id="当選">
    <path class="cls-1" d="M7.6,0H144.4A7.808,7.808,0,0,1,152,8V56a7.808,7.808,0,0,1-7.6,8H7.6A7.808,7.808,0,0,1,0,56V8A7.808,7.808,0,0,1,7.6,0Z"/>
    <g>
      <path class="cls-2" d="M34.9,31.384,22.683,21.6a.8.8,0,0,0-1.3.625v4.059H8.8a.8.8,0,0,0-.8.8v9.836a.8.8,0,0,0,.8.8H21.382V41.78a.8.8,0,0,0,1.3.626L34.9,32.634A.8.8,0,0,0,34.9,31.384Z"/>
      <path class="cls-2" d="M27.1,45.262v3.886A3.05,3.05,0,0,0,30.3,52h18.51a3.209,3.209,0,0,0,3.2-3.2V15.2a3.209,3.209,0,0,0-3.2-3.2H30.3a3.053,3.053,0,0,0-3.2,2.861v3.88l4.443,3.56v-5.84H47.552V47.539H31.546V41.708Z"/>
    </g>
    <g>
      <path class="cls-2" d="M69,26.878v1.261H66.678a12.231,12.231,0,0,0,.072-1.549V16.273a12.146,12.146,0,0,0-.072-1.512c.431.036.809.054,1.53.054H78.435c.774,0,1.1-.018,1.512-.054-.036.468-.053.828-.053,1.494v10.3a12.153,12.153,0,0,0,.072,1.566H77.643V26.878ZM77.643,16.85H69v7.976h8.643Z"/>
      <path class="cls-2" d="M97.731,16.6a3.221,3.221,0,0,0-.45,1.08,18.666,18.666,0,0,1-3.691,6.95,17.937,17.937,0,0,1-6.409,4.556,5.559,5.559,0,0,0-1.532-1.892,15.624,15.624,0,0,0,3.944-2.106,14.33,14.33,0,0,0,5.258-7.6l-5.42.072a17.418,17.418,0,0,1-4.213,4.627,4.786,4.786,0,0,0-1.747-1.548,13.866,13.866,0,0,0,4.664-5.222,6.82,6.82,0,0,0,.918-2.394l2.467.5a2.492,2.492,0,0,0-.361.649c-.324.72-.45.99-.7,1.458.2-.018.486-.018.864-.036l3.944-.054a4.962,4.962,0,0,0,.9-.054,9.867,9.867,0,0,0-1.242-2.07l1.44-.5a8.454,8.454,0,0,1,1.386,2.322l-.954.342Zm.775-1.369a11.62,11.62,0,0,0-1.351-2.287l1.405-.54a9.426,9.426,0,0,1,1.386,2.233Z"/>
      <path class="cls-2" d="M116.128,14.743a7.3,7.3,0,0,0-.667.63,31.784,31.784,0,0,1-4.249,3.709v7.689a13.641,13.641,0,0,0,.09,2h-2.521a10.12,10.12,0,0,0,.109-1.945V20.487a29.2,29.2,0,0,1-6.429,2.916,6.77,6.77,0,0,0-1.206-2.052,26.305,26.305,0,0,0,9.453-4.682,14.389,14.389,0,0,0,3.349-3.366Z"/>
      <path class="cls-2" d="M120.461,25.762a17.163,17.163,0,0,0,5.33-1.332,12.033,12.033,0,0,0,5.348-4.411,15.084,15.084,0,0,0,1.837-3.6,7.747,7.747,0,0,0,1.908,1.765,15.8,15.8,0,0,1-5.708,7.058,19.435,19.435,0,0,1-6.86,2.7,6.436,6.436,0,0,0-1.188.307Zm1.531-11.181a25.515,25.515,0,0,1,4.646,3.475l-1.549,1.963a18.917,18.917,0,0,0-4.592-3.656Z"/>
      <path class="cls-2" d="M68.748,40.687a16.9,16.9,0,0,1-2.881,1.547A8.343,8.343,0,0,0,64.823,40.4a16.788,16.788,0,0,0,4.519-2.5,11.9,11.9,0,0,0,2.846-3.026H74.33a10.912,10.912,0,0,0,3.043,2.989A19.018,19.018,0,0,0,82,40.29a8,8,0,0,0-.99,2.017,19.249,19.249,0,0,1-3.079-1.639v1.4A13.931,13.931,0,0,0,76.311,42H70.3a14.675,14.675,0,0,0-1.549.071Zm-.99,4.644a16.891,16.891,0,0,0-2.125.108V43.351a17.7,17.7,0,0,0,2.125.108H78.976a16.97,16.97,0,0,0,2.106-.108v2.088a16.769,16.769,0,0,0-2.106-.108H72.781a19.542,19.542,0,0,1-1.872,3.493c3.187-.179,3.187-.179,5.707-.45-.576-.63-.882-.954-1.89-2l1.783-.792a36.93,36.93,0,0,1,4.159,4.807l-1.729,1.134c-.594-.881-.774-1.134-1.081-1.566-1.494.2-2.574.324-3.24.395-1.783.163-5.347.487-6.068.542a21.468,21.468,0,0,0-2.322.251l-.289-2.2c.487.036.792.055,1.044.055.126,0,.666-.019,1.585-.072a18.567,18.567,0,0,0,1.926-3.6Zm8.534-5.2c.288,0,.45,0,.793-.018a14.659,14.659,0,0,1-3.764-3.493,15.357,15.357,0,0,1-3.745,3.493c.307.018.414.018.738.018Z"/>
      <path class="cls-2" d="M86.479,48.3c-.9,0-1.423.017-2,.071.037-.45.073-.99.073-1.891V41.929A17.77,17.77,0,0,0,84.479,40c.541.054,1.153.072,2,.072h9.578c.882,0,1.386-.018,2.016-.072A16.473,16.473,0,0,0,98,41.929v4.554c0,.7.018,1.1.018,1.171a3.216,3.216,0,0,0,.053.72c-.557-.054-1.116-.071-2.016-.071H94.616a14.307,14.307,0,0,0,5.186,1.53A6.037,6.037,0,0,0,98.686,51.6a13.562,13.562,0,0,1-6.014-2.413l.973-.882h-4.9l1.134.954a15.645,15.645,0,0,1-3.277,1.6,21.377,21.377,0,0,1-2.754.72,5.828,5.828,0,0,0-1.1-1.782A13.572,13.572,0,0,0,87.864,48.3ZM97.335,37.985c0,.54.019.937.055,1.351-.54-.036-1.153-.055-1.946-.055h-8.3c-.811,0-1.441.019-1.981.055.035-.45.071-.864.071-1.351V36.6a8.962,8.962,0,0,0-.089-1.386,16.124,16.124,0,0,0,2.052.09h8.175a15.825,15.825,0,0,0,2.034-.09,11.112,11.112,0,0,0-.072,1.386ZM86.479,42.4h9.578v-.828H86.479Zm0,2.179h9.578v-.828H86.479Zm0,2.233h9.578v-.882H86.479Zm.737-9.975v.99h8.121v-.99Z"/>
      <path class="cls-2" d="M117.01,38.075a2.464,2.464,0,0,0-.324.378,19.366,19.366,0,0,1-1.584,1.675,18.7,18.7,0,0,0,2.736,1.278,5.88,5.88,0,0,0-.937,1.8,17.414,17.414,0,0,1-4.356-2.611v1.062a6.918,6.918,0,0,0-1.207-.072h-3.979a6.783,6.783,0,0,0-1.134.072v-1.17a19.612,19.612,0,0,1-4.484,2.791,5.609,5.609,0,0,0-.972-1.711,15.288,15.288,0,0,0,3.385-1.782,15.046,15.046,0,0,0-2.413-2.107l1.332-1.188a22.282,22.282,0,0,1,2.522,2.2,9.436,9.436,0,0,0,1.71-1.819h-2.377a8.013,8.013,0,0,0-1.1.072V35.122a8.084,8.084,0,0,0,1.494.091h3.385a10.2,10.2,0,0,0,1.549-.072,4.494,4.494,0,0,0,1.206,2.034,9.908,9.908,0,0,0,1.513-1.945l1.494.991a19.526,19.526,0,0,1-1.855,2.07,12.061,12.061,0,0,0,1.116.9,10.033,10.033,0,0,0,1.784-2.124ZM106.026,49.2a6.907,6.907,0,0,0-.738-1.458l1.585-.576h-1.927a11.888,11.888,0,0,0-1.3.054,10.157,10.157,0,0,0,.073-1.315V43.639a8.626,8.626,0,0,0-.073-1.224,11.222,11.222,0,0,0,1.423.071h8.5a10.236,10.236,0,0,0,1.406-.071,7.751,7.751,0,0,0-.073,1.206v2.286a8.671,8.671,0,0,0,.073,1.315,12.122,12.122,0,0,0-1.3-.054h-1.746l1.494.54c-.288.54-.7,1.314-.828,1.494h3.079a11.419,11.419,0,0,0,1.763-.09v1.946a13,13,0,0,0-1.872-.091h-12.46a13.162,13.162,0,0,0-1.872.091V49.112a11.185,11.185,0,0,0,1.746.09Zm-.45-3.654h7.418V44.089h-7.418Zm5.78-5.565h.451a15.536,15.536,0,0,1-2.486-2.826,14.363,14.363,0,0,1-2.484,2.826h4.519Zm-.7,9.219a10.714,10.714,0,0,0,.918-2.034h-4.5a14.513,14.513,0,0,1,.9,2.034Z"/>
      <path class="cls-2" d="M121.542,40.813a10.523,10.523,0,0,0-1.063.053v-.954c-.341.306-.45.4-.828.7a5.409,5.409,0,0,0-.828-1.711,8.317,8.317,0,0,0,3.115-3.888h1.98a7.19,7.19,0,0,0,2.629,3.024,6.519,6.519,0,0,0-1.1,1.6l-.144-.126v1.35a6.445,6.445,0,0,0-1.063-.053h-.521v1.206h.719a8.17,8.17,0,0,0,1.279-.073V40.452a11.637,11.637,0,0,0,1.728.108H132c.036-.54.054-.72.072-1.026H128.51a12.745,12.745,0,0,0-1.639.071V37.9a9.33,9.33,0,0,0,1.639.089h3.636c.037-.45.037-.5.055-.99h-4.033a14.193,14.193,0,0,0-1.711.072V35.339a12.386,12.386,0,0,0,1.8.09h4.231a13.359,13.359,0,0,0,1.657-.073,15.418,15.418,0,0,0-.109,1.747c-.054.936-.143,2.521-.216,3.457h.109a11.134,11.134,0,0,0,1.728-.108v1.782a15.629,15.629,0,0,0-1.711-.089h-2.412a8.5,8.5,0,0,0,.864,2.665,8.729,8.729,0,0,0,1.747-2.162l1.476,1.045a20.2,20.2,0,0,1-2.394,2.557A8.754,8.754,0,0,0,136,48.843a7.6,7.6,0,0,0-1.08,1.764,10.992,10.992,0,0,1-2.2-2.323,10.079,10.079,0,0,1-1.369-2.791q.055.541.109,2v2.3c0,1.206-.523,1.639-1.981,1.639-.4,0-.882-.019-1.585-.073a5.2,5.2,0,0,0-.414-1.818,7.07,7.07,0,0,0,1.405.18c.666,0,.792-.073.792-.468V47.546a15.2,15.2,0,0,1-1.279,1.009c-.305.216-.305.216-1.53,1.062-.288.2-.288.2-.594.414l-.576-1.278v.72a40.392,40.392,0,0,1-4.825,1.278,10.885,10.885,0,0,0-1.423.324l-.27-1.98a13.34,13.34,0,0,0,2.809-.378V43.675h-.936a14.743,14.743,0,0,0-1.765.09V41.929a15.518,15.518,0,0,0,1.782.09h.919V40.813Zm-1.4,7.454a18.218,18.218,0,0,0-.757-3.512l1.4-.432a19.318,19.318,0,0,1,.793,3.493Zm1.44-9.076h2.683c.324,0,.431,0,.666-.017a10.66,10.66,0,0,1-1.908-2.539,10.73,10.73,0,0,1-1.8,2.556Zm5.869,2.954a12.594,12.594,0,0,0-1.6.072v1.548a7.392,7.392,0,0,0-1.405-.09h-.719v4.681c.683-.162,1.008-.27,1.962-.558v.379a19.264,19.264,0,0,0,4-2.612v-3.42Zm-3.51,5.023a13.772,13.772,0,0,0,.719-2.935l1.369.451a16.358,16.358,0,0,1-.864,2.88Zm3.655-4.52a11.747,11.747,0,0,1,1.566,2.683l-1.387.919a12.166,12.166,0,0,0-1.583-2.863Z"/>
    </g>
  </g>
</svg>
