<svg xmlns="http://www.w3.org/2000/svg" width="377.785" height="16.419" viewBox="0 0 377.785 16.419">
  <g id="グループ_7171" data-name="グループ 7171" transform="translate(-235.517 -661.528)">
    <g id="グループ_7110" data-name="グループ 7110" transform="translate(-368.332 -2073)">
      <g id="グループ_6581" data-name="グループ 6581" transform="translate(-4 518)">
        <path id="パス_46594" data-name="パス 46594" d="M-179.732-5.642c.1-2.674-.91-5.264-3.948-5.264-2.282,0-3.738.952-4.256,3.514a11.9,11.9,0,0,0,0,4.508,4.088,4.088,0,0,0,.9,2.31,4.712,4.712,0,0,0,3.6.994,4.886,4.886,0,0,0,3.052-1.764C-180.068-1.862-179.858-2.534-179.732-5.642Zm-1.008,2.758A2.977,2.977,0,0,1-183.372-.49a4.008,4.008,0,0,1-2.856-.6c-.63-.434-.8-1.652-.91-2.394a11.033,11.033,0,0,1-.084-2.31c.238-2.2.742-4.2,3.4-4.2,2.24,0,3.444,2.212,3.206,4.326C-180.614-4.8-180.74-2.884-180.74-2.884Zm-1.2.266c.182-.35.308-.63.308-.63.07-.154-.378-.182-.7-.252-.028,0-.07.014-.07.042a3.458,3.458,0,0,1-.644.952,1.311,1.311,0,0,1-1.442-.028,2.95,2.95,0,0,1-.56-1.9,6.2,6.2,0,0,1,.49-2.856c.252-.546,1.162-.224,1.358.182a7.263,7.263,0,0,1,.2,1.75.066.066,0,0,0,.07.07h.98a.078.078,0,0,0,.07-.084c-.028-.5.224-2.786.224-2.8.014-.126-.7-.574-.756-.378a6.108,6.108,0,0,1-.322.84c-.28-.336-.742-.826-1.19-.84a2.57,2.57,0,0,0-1.82.616,4.67,4.67,0,0,0-.756,2.8,8.212,8.212,0,0,0,.462,3c.518,1.288,2.66,1.176,3.388.532A3.838,3.838,0,0,0-181.944-2.618Zm10.08-2.2-1.6.154c-.364.042-.952.084-1.176.084a.929.929,0,0,1-.182-.014l.042,1.344c.476-.084.742-.126,1.344-.182l1.568-.168v.924l-1.9.2c-.322.028-.994.07-1.176.07h-.182l.042,1.386c.42-.084.938-.168,1.344-.21l1.876-.182V-.28c0,1.148.462,1.33,3.374,1.33,1.876,0,2.576-.1,2.94-.392.406-.322.56-.8.7-2.016a4.405,4.405,0,0,1-1.442-.406c-.028.77-.126,1.2-.294,1.316a4.816,4.816,0,0,1-1.932.168c-1.68,0-1.876-.056-1.876-.5v-.784l3.836-.392c.462-.042.9-.07,1.218-.07h.154l-.056-1.386a6.942,6.942,0,0,1-1.344.21l-3.808.392v-.924l3.22-.336c.364-.028.98-.07,1.19-.07h.168l-.042-1.372a8.266,8.266,0,0,1-1.358.224l-3.178.322v-.868c1.106-.154,2.044-.322,2.744-.49.574-.126.574-.126,1.12-.224l-.91-1.134h.364c.616,0,1.148.014,1.526.042a11.943,11.943,0,0,1-.042-1.26v-1.2c0-.532.014-.882.042-1.246-.434.042-.91.056-1.61.056h-7.63a16.614,16.614,0,0,1-1.848-.07,16.565,16.565,0,0,1,.084,2.31,31.316,31.316,0,0,1-.518,6.72,6.555,6.555,0,0,1-.938,2.212,5.563,5.563,0,0,1,1.274,1.288,8.5,8.5,0,0,0,1.12-2.786,27.27,27.27,0,0,0,.532-6.062h7.588a25.613,25.613,0,0,1-7.406,1.12,4.675,4.675,0,0,1,.532,1.176c1.61-.154,1.708-.168,2.506-.252Zm-3.206-4.116v-1.12h8.022v1.12ZM-150.794.98a15.316,15.316,0,0,1-.084-1.764V-9.59a11.994,11.994,0,0,1,.07-1.484,14.362,14.362,0,0,1-1.61.07h-8.414a14.467,14.467,0,0,1-1.624-.07,12.658,12.658,0,0,1,.07,1.5V-.784A15.147,15.147,0,0,1-162.47.98h1.6V.21h8.484V.98Zm-10.08-10.57h3.388V-6.2h-3.388Zm4.9,0h3.57V-6.2h-3.57Zm-4.9,4.774h3.388v3.64h-3.388Zm4.9,0h3.57v3.64h-3.57Zm14.728-.9v-.84a6.6,6.6,0,0,1,.056-1.036h-1.652a6.668,6.668,0,0,1,.07,1.036v.84h-3.668a10.3,10.3,0,0,1-1.624-.084v1.568a14.168,14.168,0,0,1,1.638-.084h2.8A11.517,11.517,0,0,1-148.5-.84,4.341,4.341,0,0,1-147.392.448a13.387,13.387,0,0,0,2.52-1.6A10.06,10.06,0,0,0-142.744-3.4c-.028.434-.028.77-.028,1.288v1.96a6.976,6.976,0,0,1-.1,1.33h1.708a7.663,7.663,0,0,1-.084-1.344V-2.114c0-.238-.028-.952-.042-1.3A9.163,9.163,0,0,0-139.174-1.2,12.7,12.7,0,0,0-136.514.49a5.441,5.441,0,0,1,1.148-1.358,11.1,11.1,0,0,1-5.068-3.444h3.024a13.253,13.253,0,0,1,1.624.084V-5.8a9.288,9.288,0,0,1-1.624.084Zm-5.208-3.57c-.63,0-1.022-.014-1.484-.056.028.35.056.672.056,1.162v.756a9.332,9.332,0,0,1-.07,1.092h1.54V-7.98h8.988v1.652h1.526a8.92,8.92,0,0,1-.056-1.12v-.7a8.847,8.847,0,0,1,.056-1.19,14.02,14.02,0,0,1-1.5.056h-.854a20.589,20.589,0,0,0,1.19-1.988l-1.5-.42a10.209,10.209,0,0,1-1.288,2.408H-142.1l1.218-.406a16.106,16.106,0,0,0-1.162-2.114l-1.442.462a9.51,9.51,0,0,1,1.106,2.058h-2.842l1.148-.378a10.553,10.553,0,0,0-1.246-2.016l-1.456.56A8.272,8.272,0,0,1-145.6-9.282Zm25.522,2.8a16.893,16.893,0,0,1-2.128.1h-8.288a18.054,18.054,0,0,1-2.142-.1v1.848c.63-.056,1.358-.1,2.142-.1h8.288a19.088,19.088,0,0,1,2.128.1ZM-111.916-.1a25.3,25.3,0,0,0-1.946-3.64l-1.3.518a14.184,14.184,0,0,1,.742,1.316c-1.106.364-1.386.448-2.254.672v-2.73h3.052c.49,0,.756.014,1.148.042-.028-.35-.042-.63-.042-1.26V-8.806a11.389,11.389,0,0,1,.056-1.428,10.767,10.767,0,0,1-1.316.056h-.8v-.546a4.67,4.67,0,0,1,.084-.966h-1.68a4.765,4.765,0,0,1,.084.966v.546h-.8a10.767,10.767,0,0,1-1.316-.056,10.447,10.447,0,0,1,.056,1.33V-.91a6.076,6.076,0,0,1-.938.112l.28,1.582c.308-.1.336-.112.644-.2a40.182,40.182,0,0,0,4.312-1.33A13.417,13.417,0,0,1-113.3.6Zm-4.76-7.6V-8.876h2.7V-7.7Zm0,1.246h2.7v1.19h-2.7Zm9.842-4.844a7.672,7.672,0,0,1-1.148.056h-2.492c-.462,0-.8-.014-1.148-.042a10.262,10.262,0,0,1,.056,1.162V-.238a10.165,10.165,0,0,1-.084,1.428h1.694a12.2,12.2,0,0,1-.1-1.792V-9.856h2.17A19.9,19.9,0,0,1-109.438-6.2a5.447,5.447,0,0,1,1.176,1.47,4.026,4.026,0,0,1,.476,1.778,1.1,1.1,0,0,1-.182.672c-.112.126-.364.182-.882.182a4.339,4.339,0,0,1-.812-.07,3.339,3.339,0,0,1,.322,1.526c.364.028.518.028.714.028A2.955,2.955,0,0,0-107.3-.84a2.034,2.034,0,0,0,1.036-2.044,4.539,4.539,0,0,0-.42-1.9,7.738,7.738,0,0,0-1.036-1.568,35.47,35.47,0,0,0,1.47-3.4c.056-.14.14-.35.224-.546Zm13.286-.6-10.6,13.16h2.058L-91.476-11.9Zm11.536,5.908h2.688a9.9,9.9,0,0,1,1.33.056V-7.084a8.287,8.287,0,0,1-1.33.07h-2.688v-.672h2.688a8.145,8.145,0,0,1,1.33.056V-8.778a8.287,8.287,0,0,1-1.33.07h-2.688V-9.38h3.4a8.786,8.786,0,0,1,1.162.056v-1.3a8.993,8.993,0,0,1-1.372.07h-3.01a13.785,13.785,0,0,0,.728-1.218l-1.582-.2a5.665,5.665,0,0,1-.728,1.414h-2.506a12.982,12.982,0,0,0,.77-1.176L-86.772-12a4.541,4.541,0,0,1-.448.91,8.906,8.906,0,0,1-2.562,2.7,5.509,5.509,0,0,1,.728,1.372,7.726,7.726,0,0,0,1.288-1.218c-.028.392-.042.77-.042,1.218v1.736a8.5,8.5,0,0,1-.056,1.12c.336-.028.644-.042,1.19-.042H-83.9v.742h-3.934a10.328,10.328,0,0,1-1.582-.07v1.414A9.925,9.925,0,0,1-87.836-2.2h2.7a6.243,6.243,0,0,1-1.512.9,11.052,11.052,0,0,1-3.024.9,6.457,6.457,0,0,1,.784,1.4A12.937,12.937,0,0,0-86.394.126,8.042,8.042,0,0,0-83.86-1.582c-.028.336-.042.6-.042.924V.168a3.977,3.977,0,0,1-.084.994h1.666A3.715,3.715,0,0,1-82.4.154V-.658c0-.154-.014-.518-.042-.924A8.343,8.343,0,0,0-80.178-.014a13.909,13.909,0,0,0,2.8,1.022c.056-.112.1-.21.126-.266.084-.2.14-.322.154-.35a4.4,4.4,0,0,1,.518-.826A11.879,11.879,0,0,1-81.214-2.2h2.786a10.117,10.117,0,0,1,1.6.084V-3.528a10.546,10.546,0,0,1-1.6.07H-82.4V-4.2h3.7a8.483,8.483,0,0,1,1.344.07V-5.348a11.249,11.249,0,0,1-1.358.056h-3.29Zm-1.456,0v.7h-2.884v-.7Zm0-1.022h-2.884v-.672h2.884Zm0-1.694h-2.884V-9.38h2.884Zm19.754,5.684a14.769,14.769,0,0,1,1.68.084V-4.494a7.811,7.811,0,0,1-1.47.084h-.168V-6.244a7.116,7.116,0,0,1,.056-1.26c-.378.028-.63.042-1.358.042h-2.8a5.59,5.59,0,0,1,.056-1.162h-1.624a6.394,6.394,0,0,1,.07,1.162H-71.89c-.742,0-.994-.014-1.358-.042a9.2,9.2,0,0,1,.056,1.274v1.82H-73.3a7.822,7.822,0,0,1-1.456-.084V-2.94a14.082,14.082,0,0,1,1.652-.084h3.262c-.77,1.61-2.24,2.366-5.026,2.6a5.3,5.3,0,0,1,.728,1.554A10.377,10.377,0,0,0-70.91.126a5.213,5.213,0,0,0,2.3-2.268,7,7,0,0,0,2.086,1.9,11.03,11.03,0,0,0,3.85,1.428,5.133,5.133,0,0,1,.714-1.582c-2.73-.364-4.578-1.26-5.488-2.632ZM-71.722-4.41V-6.146H-69.3a14.279,14.279,0,0,1-.154,1.736Zm3.766,0a12.545,12.545,0,0,0,.14-1.736h2.674V-4.41ZM-71.5-10.584h-1.6a12.631,12.631,0,0,1-1.624-.084V-9.2a12.1,12.1,0,0,1,1.624-.07h1.6v.49a4.364,4.364,0,0,1-.056.756h1.568a4.013,4.013,0,0,1-.042-.77v-.476h3v.5a5.6,5.6,0,0,1-.042.742h1.554a4.319,4.319,0,0,1-.042-.756v-.49h1.736a13.489,13.489,0,0,1,1.666.07v-1.47a13.678,13.678,0,0,1-1.666.084h-1.736v-.238a5.108,5.108,0,0,1,.056-.826h-1.6a5.481,5.481,0,0,1,.07.826v.238h-3v-.238a5.222,5.222,0,0,1,.056-.826h-1.6a5.331,5.331,0,0,1,.07.826Zm14.98,6.258a7.684,7.684,0,0,0,1.806,1.582,5.971,5.971,0,0,1,.77-1.372,8.255,8.255,0,0,1-2.226-1.778,11.5,11.5,0,0,0,1.4-2.394,3.892,3.892,0,0,1,.308-.588l-.672-.728a5.1,5.1,0,0,1-.812.042h-.574V-10.71a5.967,5.967,0,0,1,.084-1.092h-1.694a6.428,6.428,0,0,1,.084,1.064v1.176h-.7a8.548,8.548,0,0,1-1.106-.056v1.554a9.586,9.586,0,0,1,1.176-.056h2.282a8.318,8.318,0,0,1-1.526,2.156,9.656,9.656,0,0,1-2.408,1.89,5.424,5.424,0,0,1,.714,1.456,9.435,9.435,0,0,0,1.554-1.19V-.294a8.375,8.375,0,0,1-.084,1.456h1.694a9.941,9.941,0,0,1-.07-1.428ZM-50.582-6.4H-49.1c.49,0,.924.028,1.372.07V-7.91a9.105,9.105,0,0,1-1.372.07h-1.484V-10.3a8.207,8.207,0,0,1,.1-1.456h-1.75a9.909,9.909,0,0,1,.1,1.456V-7.84h-1.05a9.451,9.451,0,0,1-1.372-.07v1.582c.448-.042.9-.07,1.372-.07h1.05V-.924h-1.526a12.7,12.7,0,0,1-1.61-.084V.686a11.29,11.29,0,0,1,1.582-.1H-48.9a11.5,11.5,0,0,1,1.6.1V-1.008a12.008,12.008,0,0,1-1.6.084h-1.68Zm11.564-.588A1.661,1.661,0,0,0-40.684-5.32a1.661,1.661,0,0,0,1.666,1.666A1.661,1.661,0,0,0-37.352-5.32,1.661,1.661,0,0,0-39.018-6.986Zm19.152-3.36a5.117,5.117,0,0,1-1.5.14H-27.79a9.861,9.861,0,0,1-1.792-.1v1.82a11.114,11.114,0,0,1,1.764-.084h6.664a9.7,9.7,0,0,1-4.242,6.1,11.391,11.391,0,0,1-3.066,1.428A5.152,5.152,0,0,1-27.23.63a13.631,13.631,0,0,0,5.208-3.57,13.16,13.16,0,0,0,2.87-5.866,2.105,2.105,0,0,1,.238-.63Zm5.67.77a16.949,16.949,0,0,1,3.738,1.918l.9-1.54A23.055,23.055,0,0,0-13.286-11Zm-1.106,3.4A16.25,16.25,0,0,1-11.508-4.13l.868-1.582a22.1,22.1,0,0,0-3.724-1.9Zm8.316-4.62a9.449,9.449,0,0,1,1.47,2.086l.98-.518a9.073,9.073,0,0,0-1.47-2.058ZM-14.5.574a8.267,8.267,0,0,1,.98-.238c5.012-.98,7.966-3.276,9.7-7.518A6.807,6.807,0,0,1-5.278-8.428a9.629,9.629,0,0,1-5.67,6.174,12.437,12.437,0,0,1-4.046.91ZM-2.87-10.136A8.1,8.1,0,0,0-4.326-12.11l-.938.49A10.315,10.315,0,0,1-3.836-9.59ZM9.2-5.712a13.853,13.853,0,0,1,1.778.07V-7.308a9.944,9.944,0,0,1-1.806.1H.98a9.854,9.854,0,0,1-1.806-.1v1.666a13.853,13.853,0,0,1,1.778-.07H4.368a5.945,5.945,0,0,1-.616,2.646A5.205,5.205,0,0,1,.434-.728,4.442,4.442,0,0,1,1.568.812,6.655,6.655,0,0,0,5.222-1.946,7.6,7.6,0,0,0,6.2-5.712ZM.588-9.128A13.189,13.189,0,0,1,2.366-9.2H7.8a13.189,13.189,0,0,1,1.778.07v-1.708a9.5,9.5,0,0,1-1.806.1H2.394a9.5,9.5,0,0,1-1.806-.1Zm14.994-1.89a6.81,6.81,0,0,1,.07,1.442L15.6-2.016A4.937,4.937,0,0,1,15.47-.574L16.366.5a4.011,4.011,0,0,1,.84-.238,12.762,12.762,0,0,0,5.1-1.918,10.437,10.437,0,0,0,3.122-3.262,6.576,6.576,0,0,1-1.33-1.428,8.273,8.273,0,0,1-2.856,3.206A10.069,10.069,0,0,1,17.416-1.6l.07-7.994A10.834,10.834,0,0,1,17.57-11ZM31.668-9.534a7.107,7.107,0,0,1,.07-1.3H29.862a7.4,7.4,0,0,1,.056,1.288l.014,6.5a10.549,10.549,0,0,0,.042,1.288A1.935,1.935,0,0,0,30.66-.336c.546.42,1.512.6,3.276.6C34.79.266,36.554.182,37.38.1c1.484-.14,1.554-.154,1.848-.154l-.084-1.862a8.272,8.272,0,0,1-1.6.336,26.4,26.4,0,0,1-3.248.224c-1.358,0-2.156-.112-2.394-.364-.2-.2-.252-.518-.252-1.33a.929.929,0,0,1,.014-.182V-5.082a23.7,23.7,0,0,0,5.978-1.932c.742-.364,1.162-.56,1.26-.6L37.786-9.2c-.91.854-4,2.1-6.118,2.492Zm5.656-1.512A8.954,8.954,0,0,1,38.71-8.9l1.008-.462a8.9,8.9,0,0,0-1.4-2.128Zm4.088.826a8.236,8.236,0,0,0-1.372-2.03l-.966.448a10.419,10.419,0,0,1,1.344,2.086Zm7.77,3.234A1.661,1.661,0,0,0,47.516-5.32a1.661,1.661,0,0,0,1.666,1.666A1.661,1.661,0,0,0,50.848-5.32,1.661,1.661,0,0,0,49.182-6.986Zm13.874-2.17v.784H60.3a9.814,9.814,0,0,1-1.526-.07A13.363,13.363,0,0,1,58.828-7v2.576c-.014.966-.014.966-.014,1.022A1.824,1.824,0,0,0,58.772-3a10.677,10.677,0,0,1,1.582-.07h1.512a8.31,8.31,0,0,1-2,1.442A11.722,11.722,0,0,1,57.232-.588,5.983,5.983,0,0,1,58.016.826,14.527,14.527,0,0,0,60.41-.252a9.116,9.116,0,0,0,2.674-2.212c-.014.266-.028.784-.028.952V-.5a11.225,11.225,0,0,1-.1,1.6H64.68a8.575,8.575,0,0,1-.1-1.6V-1.512c0-.238-.014-.5-.028-.966A9.077,9.077,0,0,0,67-.462,14.659,14.659,0,0,0,69.874.812a9.255,9.255,0,0,1,.8-1.484,9.872,9.872,0,0,1-4.858-2.394h1.68A11.053,11.053,0,0,1,69.062-3a11.034,11.034,0,0,1-.056-1.428v-2.59c0-.532.014-.994.056-1.414a13.554,13.554,0,0,1-1.554.056H64.582v-.784H68.5a14.958,14.958,0,0,1,1.736.084v-1.54a11.729,11.729,0,0,1-1.834.1H64.582a6.954,6.954,0,0,1,.084-1.26H62.958a8.086,8.086,0,0,1,.1,1.26h-3.7a12.325,12.325,0,0,1-1.792-.1v1.54a11.971,11.971,0,0,1,1.694-.084Zm0,1.988v.854H60.312v-.854Zm1.526,0h2.94v.854h-2.94ZM63.056-5.152v.882H60.312v-.882Zm1.526,0h2.94v.882h-2.94ZM79.632-4a5.7,5.7,0,0,1-1.372,2.38,6.133,6.133,0,0,1-2.338,1.5A4,4,0,0,1,76.86,1.19a7.317,7.317,0,0,0,3.92-3.962A7.993,7.993,0,0,0,82.362-.5,8.945,8.945,0,0,0,84.6,1.148a4.854,4.854,0,0,1,.8-1.5A6.793,6.793,0,0,1,81.732-4H83.65c.6,0,1.106.028,1.526.07v-1.5a8.21,8.21,0,0,1-.854.056V-8.61a11.531,11.531,0,0,1,.042-1.19,10.945,10.945,0,0,1-1.106.042H81.494a10.92,10.92,0,0,1,.084-1.974H79.94a9.951,9.951,0,0,1,.084,1.414v.56h-1.61c-.574,0-.854-.014-1.2-.042.028.322.042.644.042,1.148v3.276c-.252,0-.49-.014-.742-.028V-9.688c0-.6.014-.952.042-1.26-.308.028-.6.042-1.218.042H73.682c-.56,0-.826-.014-1.162-.042.028.462.042.854.042,1.372V-1.33a13.241,13.241,0,0,1-.07,1.652h1.456v-1.33h1.218v.574h1.386a9.863,9.863,0,0,1-.042-1.134V-3.99C77-4,77.07-4,77.238-4Zm-.98-1.372V-8.414H80.01v.434c0,.826-.056,1.792-.126,2.6Zm2.7,0c.056-.714.1-1.386.112-2.058l.014-.98h1.428v3.038ZM73.962-9.562h1.2v2.856h-1.2Zm0,4.172h1.2v3.024h-1.2Zm24.486-5.32a3.854,3.854,0,0,1-1.358.126H89.782A11.161,11.161,0,0,1,87.85-10.7v1.75a13.457,13.457,0,0,1,1.9-.084H97.1a5.806,5.806,0,0,1-1.33,1.778A6.492,6.492,0,0,1,93.73-5.964,4.732,4.732,0,0,1,94.99-4.69a8.757,8.757,0,0,0,1.68-1.162,8.885,8.885,0,0,0,2.156-2.814,3.89,3.89,0,0,1,.56-.98ZM91.8-7.882a3.545,3.545,0,0,1,.07.84c0,2.646-.448,3.85-1.876,4.984a6.455,6.455,0,0,1-2.45,1.19,4.942,4.942,0,0,1,1.106,1.6,8.09,8.09,0,0,0,3.612-2.52c.952-1.218,1.33-2.562,1.386-4.956A6.427,6.427,0,0,1,93.7-7.882Zm11.774.056a12.077,12.077,0,0,1,1.638-.07h5.53a12.077,12.077,0,0,1,1.638.07V-9.674a8.708,8.708,0,0,1-1.652.1h-5.5a8.708,8.708,0,0,1-1.652-.1ZM102.158-.98a13.872,13.872,0,0,1,1.764-.07h8.092a13.872,13.872,0,0,1,1.764.07V-2.856a9.771,9.771,0,0,1-1.792.1H103.95a9.771,9.771,0,0,1-1.792-.1ZM125.1-11.214a17.111,17.111,0,0,1-1.974,4.508c-.112-.07-.112-.07-1.162-.826-.686-.49-1.288-.882-2.31-1.484l-1.232,1.232a25.1,25.1,0,0,1,3.71,2.52,14.26,14.26,0,0,1-1.778,1.9,14.247,14.247,0,0,1-3.626,2.422A4.339,4.339,0,0,1,117.964.518a17.776,17.776,0,0,0,3.332-2.31A16.054,16.054,0,0,0,123.48-4.13a20.824,20.824,0,0,1,2.842,2.954l1.344-1.442a33.57,33.57,0,0,0-3.122-2.968,23.314,23.314,0,0,0,1.974-3.962,8.548,8.548,0,0,1,.49-1.008ZM131.376-4.4a15.369,15.369,0,0,1,2.282-.07h7.434a15.369,15.369,0,0,1,2.282.07V-6.342a13.749,13.749,0,0,1-2.268.1h-7.462a13.749,13.749,0,0,1-2.268-.1ZM147.756-9.7a16.437,16.437,0,0,1,3.738,1.932l.9-1.54a22.45,22.45,0,0,0-3.724-1.806ZM146.65-6.3a16.374,16.374,0,0,1,3.794,2.058l.868-1.582a19.792,19.792,0,0,0-3.724-1.9Zm.8,6.748a9.042,9.042,0,0,1,.98-.224c3.444-.686,5.824-1.932,7.6-3.976a12.221,12.221,0,0,0,2.1-3.542,7.229,7.229,0,0,1-1.456-1.246,10.357,10.357,0,0,1-1.624,3.094A8.558,8.558,0,0,1,151-2.366a12.813,12.813,0,0,1-4.046.91Zm21.7-.224V.882h1.61A7,7,0,0,1,170.7-.182V-6.594c0-.616.014-.966.042-1.47a12.233,12.233,0,0,1-1.3.056h-5.516a6.385,6.385,0,0,1-1.26-.1v1.554a9.1,9.1,0,0,1,1.26-.056h5.236v1.946H164.29a6.292,6.292,0,0,1-1.26-.1v1.526a8.839,8.839,0,0,1,1.26-.056h4.872v2.114h-5.376a6.385,6.385,0,0,1-1.26-.1V.28a8.839,8.839,0,0,1,1.26-.056Zm7.042-9.212a14.7,14.7,0,0,1,3.57,2.842l1.2-1.526a19.828,19.828,0,0,0-3.612-2.7Zm.49,9.24A4.956,4.956,0,0,1,177.6.014a15.122,15.122,0,0,0,5.334-2.1,12.287,12.287,0,0,0,4.438-5.488,6.037,6.037,0,0,1-1.484-1.372,11.69,11.69,0,0,1-1.428,2.8,9.354,9.354,0,0,1-4.158,3.43,13.34,13.34,0,0,1-4.144,1.036Z" transform="translate(797 2230)" fill="#231815" stroke="#000" stroke-width="2"/>
        <path id="パス_46593" data-name="パス 46593" d="M-179.732-5.642c.1-2.674-.91-5.264-3.948-5.264-2.282,0-3.738.952-4.256,3.514a11.9,11.9,0,0,0,0,4.508,4.088,4.088,0,0,0,.9,2.31,4.712,4.712,0,0,0,3.6.994,4.886,4.886,0,0,0,3.052-1.764C-180.068-1.862-179.858-2.534-179.732-5.642Zm-1.008,2.758A2.977,2.977,0,0,1-183.372-.49a4.008,4.008,0,0,1-2.856-.6c-.63-.434-.8-1.652-.91-2.394a11.033,11.033,0,0,1-.084-2.31c.238-2.2.742-4.2,3.4-4.2,2.24,0,3.444,2.212,3.206,4.326C-180.614-4.8-180.74-2.884-180.74-2.884Zm-1.2.266c.182-.35.308-.63.308-.63.07-.154-.378-.182-.7-.252-.028,0-.07.014-.07.042a3.458,3.458,0,0,1-.644.952,1.311,1.311,0,0,1-1.442-.028,2.95,2.95,0,0,1-.56-1.9,6.2,6.2,0,0,1,.49-2.856c.252-.546,1.162-.224,1.358.182a7.263,7.263,0,0,1,.2,1.75.066.066,0,0,0,.07.07h.98a.078.078,0,0,0,.07-.084c-.028-.5.224-2.786.224-2.8.014-.126-.7-.574-.756-.378a6.108,6.108,0,0,1-.322.84c-.28-.336-.742-.826-1.19-.84a2.57,2.57,0,0,0-1.82.616,4.67,4.67,0,0,0-.756,2.8,8.212,8.212,0,0,0,.462,3c.518,1.288,2.66,1.176,3.388.532A3.838,3.838,0,0,0-181.944-2.618Zm10.08-2.2-1.6.154c-.364.042-.952.084-1.176.084a.929.929,0,0,1-.182-.014l.042,1.344c.476-.084.742-.126,1.344-.182l1.568-.168v.924l-1.9.2c-.322.028-.994.07-1.176.07h-.182l.042,1.386c.42-.084.938-.168,1.344-.21l1.876-.182V-.28c0,1.148.462,1.33,3.374,1.33,1.876,0,2.576-.1,2.94-.392.406-.322.56-.8.7-2.016a4.405,4.405,0,0,1-1.442-.406c-.028.77-.126,1.2-.294,1.316a4.816,4.816,0,0,1-1.932.168c-1.68,0-1.876-.056-1.876-.5v-.784l3.836-.392c.462-.042.9-.07,1.218-.07h.154l-.056-1.386a6.942,6.942,0,0,1-1.344.21l-3.808.392v-.924l3.22-.336c.364-.028.98-.07,1.19-.07h.168l-.042-1.372a8.266,8.266,0,0,1-1.358.224l-3.178.322v-.868c1.106-.154,2.044-.322,2.744-.49.574-.126.574-.126,1.12-.224l-.91-1.134h.364c.616,0,1.148.014,1.526.042a11.943,11.943,0,0,1-.042-1.26v-1.2c0-.532.014-.882.042-1.246-.434.042-.91.056-1.61.056h-7.63a16.614,16.614,0,0,1-1.848-.07,16.565,16.565,0,0,1,.084,2.31,31.316,31.316,0,0,1-.518,6.72,6.555,6.555,0,0,1-.938,2.212,5.563,5.563,0,0,1,1.274,1.288,8.5,8.5,0,0,0,1.12-2.786,27.27,27.27,0,0,0,.532-6.062h7.588a25.613,25.613,0,0,1-7.406,1.12,4.675,4.675,0,0,1,.532,1.176c1.61-.154,1.708-.168,2.506-.252Zm-3.206-4.116v-1.12h8.022v1.12ZM-150.794.98a15.316,15.316,0,0,1-.084-1.764V-9.59a11.994,11.994,0,0,1,.07-1.484,14.362,14.362,0,0,1-1.61.07h-8.414a14.467,14.467,0,0,1-1.624-.07,12.658,12.658,0,0,1,.07,1.5V-.784A15.147,15.147,0,0,1-162.47.98h1.6V.21h8.484V.98Zm-10.08-10.57h3.388V-6.2h-3.388Zm4.9,0h3.57V-6.2h-3.57Zm-4.9,4.774h3.388v3.64h-3.388Zm4.9,0h3.57v3.64h-3.57Zm14.728-.9v-.84a6.6,6.6,0,0,1,.056-1.036h-1.652a6.668,6.668,0,0,1,.07,1.036v.84h-3.668a10.3,10.3,0,0,1-1.624-.084v1.568a14.168,14.168,0,0,1,1.638-.084h2.8A11.517,11.517,0,0,1-148.5-.84,4.341,4.341,0,0,1-147.392.448a13.387,13.387,0,0,0,2.52-1.6A10.06,10.06,0,0,0-142.744-3.4c-.028.434-.028.77-.028,1.288v1.96a6.976,6.976,0,0,1-.1,1.33h1.708a7.663,7.663,0,0,1-.084-1.344V-2.114c0-.238-.028-.952-.042-1.3A9.163,9.163,0,0,0-139.174-1.2,12.7,12.7,0,0,0-136.514.49a5.441,5.441,0,0,1,1.148-1.358,11.1,11.1,0,0,1-5.068-3.444h3.024a13.253,13.253,0,0,1,1.624.084V-5.8a9.288,9.288,0,0,1-1.624.084Zm-5.208-3.57c-.63,0-1.022-.014-1.484-.056.028.35.056.672.056,1.162v.756a9.332,9.332,0,0,1-.07,1.092h1.54V-7.98h8.988v1.652h1.526a8.92,8.92,0,0,1-.056-1.12v-.7a8.847,8.847,0,0,1,.056-1.19,14.02,14.02,0,0,1-1.5.056h-.854a20.589,20.589,0,0,0,1.19-1.988l-1.5-.42a10.209,10.209,0,0,1-1.288,2.408H-142.1l1.218-.406a16.106,16.106,0,0,0-1.162-2.114l-1.442.462a9.51,9.51,0,0,1,1.106,2.058h-2.842l1.148-.378a10.553,10.553,0,0,0-1.246-2.016l-1.456.56A8.272,8.272,0,0,1-145.6-9.282Zm25.522,2.8a16.893,16.893,0,0,1-2.128.1h-8.288a18.054,18.054,0,0,1-2.142-.1v1.848c.63-.056,1.358-.1,2.142-.1h8.288a19.088,19.088,0,0,1,2.128.1ZM-111.916-.1a25.3,25.3,0,0,0-1.946-3.64l-1.3.518a14.184,14.184,0,0,1,.742,1.316c-1.106.364-1.386.448-2.254.672v-2.73h3.052c.49,0,.756.014,1.148.042-.028-.35-.042-.63-.042-1.26V-8.806a11.389,11.389,0,0,1,.056-1.428,10.767,10.767,0,0,1-1.316.056h-.8v-.546a4.67,4.67,0,0,1,.084-.966h-1.68a4.765,4.765,0,0,1,.084.966v.546h-.8a10.767,10.767,0,0,1-1.316-.056,10.447,10.447,0,0,1,.056,1.33V-.91a6.076,6.076,0,0,1-.938.112l.28,1.582c.308-.1.336-.112.644-.2a40.182,40.182,0,0,0,4.312-1.33A13.417,13.417,0,0,1-113.3.6Zm-4.76-7.6V-8.876h2.7V-7.7Zm0,1.246h2.7v1.19h-2.7Zm9.842-4.844a7.672,7.672,0,0,1-1.148.056h-2.492c-.462,0-.8-.014-1.148-.042a10.262,10.262,0,0,1,.056,1.162V-.238a10.165,10.165,0,0,1-.084,1.428h1.694a12.2,12.2,0,0,1-.1-1.792V-9.856h2.17A19.9,19.9,0,0,1-109.438-6.2a5.447,5.447,0,0,1,1.176,1.47,4.026,4.026,0,0,1,.476,1.778,1.1,1.1,0,0,1-.182.672c-.112.126-.364.182-.882.182a4.339,4.339,0,0,1-.812-.07,3.339,3.339,0,0,1,.322,1.526c.364.028.518.028.714.028A2.955,2.955,0,0,0-107.3-.84a2.034,2.034,0,0,0,1.036-2.044,4.539,4.539,0,0,0-.42-1.9,7.738,7.738,0,0,0-1.036-1.568,35.47,35.47,0,0,0,1.47-3.4c.056-.14.14-.35.224-.546Zm13.286-.6-10.6,13.16h2.058L-91.476-11.9Zm11.536,5.908h2.688a9.9,9.9,0,0,1,1.33.056V-7.084a8.287,8.287,0,0,1-1.33.07h-2.688v-.672h2.688a8.145,8.145,0,0,1,1.33.056V-8.778a8.287,8.287,0,0,1-1.33.07h-2.688V-9.38h3.4a8.786,8.786,0,0,1,1.162.056v-1.3a8.993,8.993,0,0,1-1.372.07h-3.01a13.785,13.785,0,0,0,.728-1.218l-1.582-.2a5.665,5.665,0,0,1-.728,1.414h-2.506a12.982,12.982,0,0,0,.77-1.176L-86.772-12a4.541,4.541,0,0,1-.448.91,8.906,8.906,0,0,1-2.562,2.7,5.509,5.509,0,0,1,.728,1.372,7.726,7.726,0,0,0,1.288-1.218c-.028.392-.042.77-.042,1.218v1.736a8.5,8.5,0,0,1-.056,1.12c.336-.028.644-.042,1.19-.042H-83.9v.742h-3.934a10.328,10.328,0,0,1-1.582-.07v1.414A9.925,9.925,0,0,1-87.836-2.2h2.7a6.243,6.243,0,0,1-1.512.9,11.052,11.052,0,0,1-3.024.9,6.457,6.457,0,0,1,.784,1.4A12.937,12.937,0,0,0-86.394.126,8.042,8.042,0,0,0-83.86-1.582c-.028.336-.042.6-.042.924V.168a3.977,3.977,0,0,1-.084.994h1.666A3.715,3.715,0,0,1-82.4.154V-.658c0-.154-.014-.518-.042-.924A8.343,8.343,0,0,0-80.178-.014a13.909,13.909,0,0,0,2.8,1.022c.056-.112.1-.21.126-.266.084-.2.14-.322.154-.35a4.4,4.4,0,0,1,.518-.826A11.879,11.879,0,0,1-81.214-2.2h2.786a10.117,10.117,0,0,1,1.6.084V-3.528a10.546,10.546,0,0,1-1.6.07H-82.4V-4.2h3.7a8.483,8.483,0,0,1,1.344.07V-5.348a11.249,11.249,0,0,1-1.358.056h-3.29Zm-1.456,0v.7h-2.884v-.7Zm0-1.022h-2.884v-.672h2.884Zm0-1.694h-2.884V-9.38h2.884Zm19.754,5.684a14.769,14.769,0,0,1,1.68.084V-4.494a7.811,7.811,0,0,1-1.47.084h-.168V-6.244a7.116,7.116,0,0,1,.056-1.26c-.378.028-.63.042-1.358.042h-2.8a5.59,5.59,0,0,1,.056-1.162h-1.624a6.394,6.394,0,0,1,.07,1.162H-71.89c-.742,0-.994-.014-1.358-.042a9.2,9.2,0,0,1,.056,1.274v1.82H-73.3a7.822,7.822,0,0,1-1.456-.084V-2.94a14.082,14.082,0,0,1,1.652-.084h3.262c-.77,1.61-2.24,2.366-5.026,2.6a5.3,5.3,0,0,1,.728,1.554A10.377,10.377,0,0,0-70.91.126a5.213,5.213,0,0,0,2.3-2.268,7,7,0,0,0,2.086,1.9,11.03,11.03,0,0,0,3.85,1.428,5.133,5.133,0,0,1,.714-1.582c-2.73-.364-4.578-1.26-5.488-2.632ZM-71.722-4.41V-6.146H-69.3a14.279,14.279,0,0,1-.154,1.736Zm3.766,0a12.545,12.545,0,0,0,.14-1.736h2.674V-4.41ZM-71.5-10.584h-1.6a12.631,12.631,0,0,1-1.624-.084V-9.2a12.1,12.1,0,0,1,1.624-.07h1.6v.49a4.364,4.364,0,0,1-.056.756h1.568a4.013,4.013,0,0,1-.042-.77v-.476h3v.5a5.6,5.6,0,0,1-.042.742h1.554a4.319,4.319,0,0,1-.042-.756v-.49h1.736a13.489,13.489,0,0,1,1.666.07v-1.47a13.678,13.678,0,0,1-1.666.084h-1.736v-.238a5.108,5.108,0,0,1,.056-.826h-1.6a5.481,5.481,0,0,1,.07.826v.238h-3v-.238a5.222,5.222,0,0,1,.056-.826h-1.6a5.331,5.331,0,0,1,.07.826Zm14.98,6.258a7.684,7.684,0,0,0,1.806,1.582,5.971,5.971,0,0,1,.77-1.372,8.255,8.255,0,0,1-2.226-1.778,11.5,11.5,0,0,0,1.4-2.394,3.892,3.892,0,0,1,.308-.588l-.672-.728a5.1,5.1,0,0,1-.812.042h-.574V-10.71a5.967,5.967,0,0,1,.084-1.092h-1.694a6.428,6.428,0,0,1,.084,1.064v1.176h-.7a8.548,8.548,0,0,1-1.106-.056v1.554a9.586,9.586,0,0,1,1.176-.056h2.282a8.318,8.318,0,0,1-1.526,2.156,9.656,9.656,0,0,1-2.408,1.89,5.424,5.424,0,0,1,.714,1.456,9.435,9.435,0,0,0,1.554-1.19V-.294a8.375,8.375,0,0,1-.084,1.456h1.694a9.941,9.941,0,0,1-.07-1.428ZM-50.582-6.4H-49.1c.49,0,.924.028,1.372.07V-7.91a9.105,9.105,0,0,1-1.372.07h-1.484V-10.3a8.207,8.207,0,0,1,.1-1.456h-1.75a9.909,9.909,0,0,1,.1,1.456V-7.84h-1.05a9.451,9.451,0,0,1-1.372-.07v1.582c.448-.042.9-.07,1.372-.07h1.05V-.924h-1.526a12.7,12.7,0,0,1-1.61-.084V.686a11.29,11.29,0,0,1,1.582-.1H-48.9a11.5,11.5,0,0,1,1.6.1V-1.008a12.008,12.008,0,0,1-1.6.084h-1.68Zm11.564-.588A1.661,1.661,0,0,0-40.684-5.32a1.661,1.661,0,0,0,1.666,1.666A1.661,1.661,0,0,0-37.352-5.32,1.661,1.661,0,0,0-39.018-6.986Zm19.152-3.36a5.117,5.117,0,0,1-1.5.14H-27.79a9.861,9.861,0,0,1-1.792-.1v1.82a11.114,11.114,0,0,1,1.764-.084h6.664a9.7,9.7,0,0,1-4.242,6.1,11.391,11.391,0,0,1-3.066,1.428A5.152,5.152,0,0,1-27.23.63a13.631,13.631,0,0,0,5.208-3.57,13.16,13.16,0,0,0,2.87-5.866,2.105,2.105,0,0,1,.238-.63Zm5.67.77a16.949,16.949,0,0,1,3.738,1.918l.9-1.54A23.055,23.055,0,0,0-13.286-11Zm-1.106,3.4A16.25,16.25,0,0,1-11.508-4.13l.868-1.582a22.1,22.1,0,0,0-3.724-1.9Zm8.316-4.62a9.449,9.449,0,0,1,1.47,2.086l.98-.518a9.073,9.073,0,0,0-1.47-2.058ZM-14.5.574a8.267,8.267,0,0,1,.98-.238c5.012-.98,7.966-3.276,9.7-7.518A6.807,6.807,0,0,1-5.278-8.428a9.629,9.629,0,0,1-5.67,6.174,12.437,12.437,0,0,1-4.046.91ZM-2.87-10.136A8.1,8.1,0,0,0-4.326-12.11l-.938.49A10.315,10.315,0,0,1-3.836-9.59ZM9.2-5.712a13.853,13.853,0,0,1,1.778.07V-7.308a9.944,9.944,0,0,1-1.806.1H.98a9.854,9.854,0,0,1-1.806-.1v1.666a13.853,13.853,0,0,1,1.778-.07H4.368a5.945,5.945,0,0,1-.616,2.646A5.205,5.205,0,0,1,.434-.728,4.442,4.442,0,0,1,1.568.812,6.655,6.655,0,0,0,5.222-1.946,7.6,7.6,0,0,0,6.2-5.712ZM.588-9.128A13.189,13.189,0,0,1,2.366-9.2H7.8a13.189,13.189,0,0,1,1.778.07v-1.708a9.5,9.5,0,0,1-1.806.1H2.394a9.5,9.5,0,0,1-1.806-.1Zm14.994-1.89a6.81,6.81,0,0,1,.07,1.442L15.6-2.016A4.937,4.937,0,0,1,15.47-.574L16.366.5a4.011,4.011,0,0,1,.84-.238,12.762,12.762,0,0,0,5.1-1.918,10.437,10.437,0,0,0,3.122-3.262,6.576,6.576,0,0,1-1.33-1.428,8.273,8.273,0,0,1-2.856,3.206A10.069,10.069,0,0,1,17.416-1.6l.07-7.994A10.834,10.834,0,0,1,17.57-11ZM31.668-9.534a7.107,7.107,0,0,1,.07-1.3H29.862a7.4,7.4,0,0,1,.056,1.288l.014,6.5a10.549,10.549,0,0,0,.042,1.288A1.935,1.935,0,0,0,30.66-.336c.546.42,1.512.6,3.276.6C34.79.266,36.554.182,37.38.1c1.484-.14,1.554-.154,1.848-.154l-.084-1.862a8.272,8.272,0,0,1-1.6.336,26.4,26.4,0,0,1-3.248.224c-1.358,0-2.156-.112-2.394-.364-.2-.2-.252-.518-.252-1.33a.929.929,0,0,1,.014-.182V-5.082a23.7,23.7,0,0,0,5.978-1.932c.742-.364,1.162-.56,1.26-.6L37.786-9.2c-.91.854-4,2.1-6.118,2.492Zm5.656-1.512A8.954,8.954,0,0,1,38.71-8.9l1.008-.462a8.9,8.9,0,0,0-1.4-2.128Zm4.088.826a8.236,8.236,0,0,0-1.372-2.03l-.966.448a10.419,10.419,0,0,1,1.344,2.086Zm7.77,3.234A1.661,1.661,0,0,0,47.516-5.32a1.661,1.661,0,0,0,1.666,1.666A1.661,1.661,0,0,0,50.848-5.32,1.661,1.661,0,0,0,49.182-6.986Zm13.874-2.17v.784H60.3a9.814,9.814,0,0,1-1.526-.07A13.363,13.363,0,0,1,58.828-7v2.576c-.014.966-.014.966-.014,1.022A1.824,1.824,0,0,0,58.772-3a10.677,10.677,0,0,1,1.582-.07h1.512a8.31,8.31,0,0,1-2,1.442A11.722,11.722,0,0,1,57.232-.588,5.983,5.983,0,0,1,58.016.826,14.527,14.527,0,0,0,60.41-.252a9.116,9.116,0,0,0,2.674-2.212c-.014.266-.028.784-.028.952V-.5a11.225,11.225,0,0,1-.1,1.6H64.68a8.575,8.575,0,0,1-.1-1.6V-1.512c0-.238-.014-.5-.028-.966A9.077,9.077,0,0,0,67-.462,14.659,14.659,0,0,0,69.874.812a9.255,9.255,0,0,1,.8-1.484,9.872,9.872,0,0,1-4.858-2.394h1.68A11.053,11.053,0,0,1,69.062-3a11.034,11.034,0,0,1-.056-1.428v-2.59c0-.532.014-.994.056-1.414a13.554,13.554,0,0,1-1.554.056H64.582v-.784H68.5a14.958,14.958,0,0,1,1.736.084v-1.54a11.729,11.729,0,0,1-1.834.1H64.582a6.954,6.954,0,0,1,.084-1.26H62.958a8.086,8.086,0,0,1,.1,1.26h-3.7a12.325,12.325,0,0,1-1.792-.1v1.54a11.971,11.971,0,0,1,1.694-.084Zm0,1.988v.854H60.312v-.854Zm1.526,0h2.94v.854h-2.94ZM63.056-5.152v.882H60.312v-.882Zm1.526,0h2.94v.882h-2.94ZM79.632-4a5.7,5.7,0,0,1-1.372,2.38,6.133,6.133,0,0,1-2.338,1.5A4,4,0,0,1,76.86,1.19a7.317,7.317,0,0,0,3.92-3.962A7.993,7.993,0,0,0,82.362-.5,8.945,8.945,0,0,0,84.6,1.148a4.854,4.854,0,0,1,.8-1.5A6.793,6.793,0,0,1,81.732-4H83.65c.6,0,1.106.028,1.526.07v-1.5a8.21,8.21,0,0,1-.854.056V-8.61a11.531,11.531,0,0,1,.042-1.19,10.945,10.945,0,0,1-1.106.042H81.494a10.92,10.92,0,0,1,.084-1.974H79.94a9.951,9.951,0,0,1,.084,1.414v.56h-1.61c-.574,0-.854-.014-1.2-.042.028.322.042.644.042,1.148v3.276c-.252,0-.49-.014-.742-.028V-9.688c0-.6.014-.952.042-1.26-.308.028-.6.042-1.218.042H73.682c-.56,0-.826-.014-1.162-.042.028.462.042.854.042,1.372V-1.33a13.241,13.241,0,0,1-.07,1.652h1.456v-1.33h1.218v.574h1.386a9.863,9.863,0,0,1-.042-1.134V-3.99C77-4,77.07-4,77.238-4Zm-.98-1.372V-8.414H80.01v.434c0,.826-.056,1.792-.126,2.6Zm2.7,0c.056-.714.1-1.386.112-2.058l.014-.98h1.428v3.038ZM73.962-9.562h1.2v2.856h-1.2Zm0,4.172h1.2v3.024h-1.2Zm24.486-5.32a3.854,3.854,0,0,1-1.358.126H89.782A11.161,11.161,0,0,1,87.85-10.7v1.75a13.457,13.457,0,0,1,1.9-.084H97.1a5.806,5.806,0,0,1-1.33,1.778A6.492,6.492,0,0,1,93.73-5.964,4.732,4.732,0,0,1,94.99-4.69a8.757,8.757,0,0,0,1.68-1.162,8.885,8.885,0,0,0,2.156-2.814,3.89,3.89,0,0,1,.56-.98ZM91.8-7.882a3.545,3.545,0,0,1,.07.84c0,2.646-.448,3.85-1.876,4.984a6.455,6.455,0,0,1-2.45,1.19,4.942,4.942,0,0,1,1.106,1.6,8.09,8.09,0,0,0,3.612-2.52c.952-1.218,1.33-2.562,1.386-4.956A6.427,6.427,0,0,1,93.7-7.882Zm11.774.056a12.077,12.077,0,0,1,1.638-.07h5.53a12.077,12.077,0,0,1,1.638.07V-9.674a8.708,8.708,0,0,1-1.652.1h-5.5a8.708,8.708,0,0,1-1.652-.1ZM102.158-.98a13.872,13.872,0,0,1,1.764-.07h8.092a13.872,13.872,0,0,1,1.764.07V-2.856a9.771,9.771,0,0,1-1.792.1H103.95a9.771,9.771,0,0,1-1.792-.1ZM125.1-11.214a17.111,17.111,0,0,1-1.974,4.508c-.112-.07-.112-.07-1.162-.826-.686-.49-1.288-.882-2.31-1.484l-1.232,1.232a25.1,25.1,0,0,1,3.71,2.52,14.26,14.26,0,0,1-1.778,1.9,14.247,14.247,0,0,1-3.626,2.422A4.339,4.339,0,0,1,117.964.518a17.776,17.776,0,0,0,3.332-2.31A16.054,16.054,0,0,0,123.48-4.13a20.824,20.824,0,0,1,2.842,2.954l1.344-1.442a33.57,33.57,0,0,0-3.122-2.968,23.314,23.314,0,0,0,1.974-3.962,8.548,8.548,0,0,1,.49-1.008ZM131.376-4.4a15.369,15.369,0,0,1,2.282-.07h7.434a15.369,15.369,0,0,1,2.282.07V-6.342a13.749,13.749,0,0,1-2.268.1h-7.462a13.749,13.749,0,0,1-2.268-.1ZM147.756-9.7a16.437,16.437,0,0,1,3.738,1.932l.9-1.54a22.45,22.45,0,0,0-3.724-1.806ZM146.65-6.3a16.374,16.374,0,0,1,3.794,2.058l.868-1.582a19.792,19.792,0,0,0-3.724-1.9Zm.8,6.748a9.042,9.042,0,0,1,.98-.224c3.444-.686,5.824-1.932,7.6-3.976a12.221,12.221,0,0,0,2.1-3.542,7.229,7.229,0,0,1-1.456-1.246,10.357,10.357,0,0,1-1.624,3.094A8.558,8.558,0,0,1,151-2.366a12.813,12.813,0,0,1-4.046.91Zm21.7-.224V.882h1.61A7,7,0,0,1,170.7-.182V-6.594c0-.616.014-.966.042-1.47a12.233,12.233,0,0,1-1.3.056h-5.516a6.385,6.385,0,0,1-1.26-.1v1.554a9.1,9.1,0,0,1,1.26-.056h5.236v1.946H164.29a6.292,6.292,0,0,1-1.26-.1v1.526a8.839,8.839,0,0,1,1.26-.056h4.872v2.114h-5.376a6.385,6.385,0,0,1-1.26-.1V.28a8.839,8.839,0,0,1,1.26-.056Zm7.042-9.212a14.7,14.7,0,0,1,3.57,2.842l1.2-1.526a19.828,19.828,0,0,0-3.612-2.7Zm.49,9.24A4.956,4.956,0,0,1,177.6.014a15.122,15.122,0,0,0,5.334-2.1,12.287,12.287,0,0,0,4.438-5.488,6.037,6.037,0,0,1-1.484-1.372,11.69,11.69,0,0,1-1.428,2.8,9.354,9.354,0,0,1-4.158,3.43,13.34,13.34,0,0,1-4.144,1.036Z" transform="translate(797 2230)" fill="#fff"/>
      </g>
    </g>
  </g>
</svg>
