<svg xmlns="http://www.w3.org/2000/svg" viewBox="0 0 64 64"><defs><style>.cls-1{fill:#e50000;}</style></defs><title>整理したもの</title><g id="ドリーム館"><path class="cls-1" d="M52,11.61H45.74V8a2,2,0,0,0-2-2H20.24a2,2,0,0,0-2,2v3.61H12a2,2,0,0,0-2,2V56a2,2,0,0,0,2,2H26.5V54.39a2,2,0,0,1,2-2h7a2,2,0,0,1,2,2V58H52a2,2,0,0,0,2-2V13.61A2,2,0,0,0,52,11.61ZM30,43.42a.58.58,0,0,1-.58.58H24.58a.58.58,0,0,1-.58-.58V38.58a.58.58,0,0,1,.58-.58h4.84a.58.58,0,0,1,.58.58Zm0-10a.58.58,0,0,1-.58.58H24.58a.58.58,0,0,1-.58-.58V28.58a.58.58,0,0,1,.58-.58h4.84a.58.58,0,0,1,.58.58Zm0-10a.58.58,0,0,1-.58.58H24.58a.58.58,0,0,1-.58-.58V18.58a.58.58,0,0,1,.58-.58h4.84a.58.58,0,0,1,.58.58Zm11,20a.58.58,0,0,1-.58.58H35.58a.58.58,0,0,1-.58-.58V38.58a.58.58,0,0,1,.58-.58h4.84a.58.58,0,0,1,.58.58Zm0-10a.58.58,0,0,1-.58.58H35.58a.58.58,0,0,1-.58-.58V28.58a.58.58,0,0,1,.58-.58h4.84a.58.58,0,0,1,.58.58Zm0-10a.58.58,0,0,1-.58.58H35.58a.58.58,0,0,1-.58-.58V18.58a.58.58,0,0,1,.58-.58h4.84a.58.58,0,0,1,.58.58Z"/></g></svg>