<svg id="attraction_02_音符あり_" data-name="attraction_02（音符あり）" xmlns="http://www.w3.org/2000/svg" viewBox="0 0 64 64">
  <defs>
    <style>
      .cls-1 {
        fill: #e50000;
      }

      .cls-2 {
        fill: #e30000;
      }
    </style>
  </defs>
  <title>attraction_02</title>
  <path class="cls-1" d="M47.383,53.012a11.737,11.737,0,0,1-3.2.452,11.958,11.958,0,0,1-2.11-.18c-4.572-.806-7.771-4.106-7.78-8.023a6.889,6.889,0,0,1,.048-.8,17.835,17.835,0,0,1-9.9-.345L28.616,31.26a4.111,4.111,0,0,0,2.768,0l3.58,11.017a8.257,8.257,0,0,1,2.56-3.146,11.005,11.005,0,0,1,6.275-2.1L33.631,29.638A4.469,4.469,0,0,0,34.5,27h12l.577-3.271A5.4,5.4,0,0,1,52.727,19.3,24,24,0,1,0,18,47.771V53H12.727a3.014,3.014,0,0,0,0,6H47.273a3.014,3.014,0,0,0,.11-5.988ZM35.476,9.854a18.021,18.021,0,0,1,9.072,6.576L33.631,24.362A4.488,4.488,0,0,0,31.3,22.713Zm-10.948,0,4.178,12.859a4.49,4.49,0,0,0-2.337,1.65L15.452,16.43A18.017,18.017,0,0,1,24.528,9.853ZM15.452,37.57A17.894,17.894,0,0,1,12,27H25.5a4.469,4.469,0,0,0,.869,2.638Z"/>
  <path class="cls-2" d="M60.494,35.068c-.83-4.395-4.607-6.913-6.219-11.058a2.127,2.127,0,0,0-1.7-1.431A2.093,2.093,0,0,0,50.32,24.3L47.387,40.933a8.282,8.282,0,0,0-3.232-.631c-3.635.008-6.576,2.225-6.57,4.951s2.958,4.929,6.593,4.921c3.449-.008,6.269-2.005,6.556-4.536L53.228,31.5c2.628.858,3.379,2.8,3.91,4.354a11.038,11.038,0,0,1-.267,6.92.41.41,0,0,0,.655.445A8.375,8.375,0,0,0,60.494,35.068Z"/>
</svg>
