<svg xmlns="http://www.w3.org/2000/svg" viewBox="0 0 64 64">
  <defs>
    <style>
      .cls-1 {
        fill: #e50000;
      }
    </style>
  </defs>
  <title>ic-tel-001</title>
  <g id="当選">
    <g>
      <path class="cls-1" d="M48,42.321,42.277,28.563a5.831,5.831,0,0,0-5.169-3.134H26.632a5.83,5.83,0,0,0-5.169,3.134L15.744,42.321a5.83,5.83,0,0,0,5.346,8.157H42.65A5.83,5.83,0,0,0,48,42.321ZM31.87,43.433a5.48,5.48,0,1,1,5.479-5.479A5.48,5.48,0,0,1,31.87,43.433Z"/>
      <path class="cls-1" d="M10.784,23.815c.018,1.123.027,1.684.044,2.807a2.352,2.352,0,0,0,3.029,2.214c2.5-.75,3.745-1.122,6.247-1.859a2.353,2.353,0,0,0,1.689-2.272l-.016-2.143a18.69,18.69,0,0,1,10.092-2.778,20.2,20.2,0,0,1,10.355,2.778c-.006.857-.009,1.286-.016,2.143A2.351,2.351,0,0,0,43.9,26.977c2.5.737,3.751,1.109,6.246,1.859a2.352,2.352,0,0,0,3.029-2.214c.018-1.1.026-1.656.044-2.76a6.251,6.251,0,0,0-3.46-5.683,38.048,38.048,0,0,0-17.888-4.657A37.029,37.029,0,0,0,14.2,18.157,6.242,6.242,0,0,0,10.784,23.815Z"/>
    </g>
  </g>
</svg>
