<svg id="レイヤー_1" data-name="レイヤー 1" xmlns="http://www.w3.org/2000/svg" xmlns:xlink="http://www.w3.org/1999/xlink" viewBox="0 0 400 184">
  <defs>
    <style>
      .cls-1 {
        fill: #f29600;
      }

      .cls-2 {
        fill: #fff;
      }

      .cls-3 {
        fill: #1d2088;
      }

      .cls-4 {
        fill: #e60012;
      }

      .cls-5 {
        fill: #3b0000;
      }

      .cls-6 {
        fill: #530000;
      }

      .cls-7 {
        fill: url(#linear-gradient);
      }

      .cls-8 {
        fill: url(#linear-gradient-2);
      }
    </style>
    <linearGradient id="linear-gradient" x1="282.512" y1="62.488" x2="319.739" y2="142.323" gradientUnits="userSpaceOnUse">
      <stop offset="0" stop-color="#530000"/>
      <stop offset="0.25" stop-color="#7d0000"/>
      <stop offset="0.451" stop-color="#a30000"/>
      <stop offset="0.7" stop-color="#7d0000"/>
      <stop offset="1" stop-color="#530000"/>
    </linearGradient>
    <linearGradient id="linear-gradient-2" x1="275.702" y1="61.248" x2="312.748" y2="140.693" gradientUnits="userSpaceOnUse">
      <stop offset="0.005" stop-color="#530000"/>
      <stop offset="0.2" stop-color="#7d0000"/>
      <stop offset="0.4" stop-color="#a30000"/>
      <stop offset="0.65" stop-color="#7d0000"/>
      <stop offset="1" stop-color="#530000"/>
    </linearGradient>
  </defs>
  <title>LOTO7</title>
  <g>
    <polygon class="cls-1" points="330.5 158.581 330.5 47.411 175.398 68.607 175.341 138.805 330.5 158.581"/>
    <polygon class="cls-2" points="201.609 139.56 201.737 124.241 190.45 123.05 196.982 109.531 186.476 103.638 197.096 97.856 191.465 85.243 201.912 87.971 201.779 68.028 210.366 83.129 219.551 65.454 219.78 85.959 237.297 77.328 226.248 96.532 245.183 103.403 226.271 110.54 237.142 129.759 219.817 121.381 219.474 141.815 210.317 124.26 201.609 139.56"/>
    <g>
      <g>
        <path class="cls-3" d="M153.336,183.113l-21.674.008-.009-21.107L153.324,162Zm-4.9-16.41-11.888,0,.006,11.717,11.888,0Z"/>
        <path class="cls-3" d="M157.519,183.38l-.008-22.018H162.5v6.825l15.434.675,0,4.843-15.411-.677,0,10.352Z"/>
      </g>
      <path class="cls-3" d="M193.959,176.787v-4.695a6.946,6.946,0,0,0,4.09-3.2H189.4v7.714c0,1.347.622,1.956,2.225,1.956h12.4v4.822H190.879c-5.1,0-6.783-1.777-6.783-5.789v-8.7H180.94v-4.8H184.1v-3.351H189.4V164.1H204.5C204.42,171.459,200.017,175.976,193.959,176.787Z"/>
      <path class="cls-3" d="M228.761,165.3c0,11.193-4.631,18.263-19.116,18.263v-4.746c10.9,0,12.295-5.2,13.2-12.34H206.9v-4.872h17.356l0,3.695Z"/>
      <path class="cls-3" d="M233.568,166.558v-5.025l11.753.943v5.155Zm.44,16.884v-5.08c9.785-.633,15.352-3.147,15.918-13.1H255.6C254.976,178.185,247.625,183.262,234.008,183.442Z"/>
    </g>
    <rect class="cls-3" x="228.602" y="159.042" width="3.079" height="5.577"/>
    <rect class="cls-3" x="224.911" y="159.042" width="3.075" height="5.577"/>
    <g>
      <polygon class="cls-4" points="234.048 40.161 228.703 38.797 225.61 43.024 225.397 37.956 220.055 36.594 225.27 34.822 225.059 29.754 228.493 33.729 233.707 31.96 230.616 36.187 234.048 40.161"/>
      <polygon class="cls-1" points="220.993 19.785 218.891 25.392 224.077 28.924 217.595 28.858 215.497 34.467 213.59 28.816 207.11 28.75 212.411 25.325 210.505 19.677 215.689 23.21 220.993 19.785"/>
      <polygon class="cls-3" points="202.93 9.564 202.288 16.306 209.111 18.918 201.893 20.472 201.253 27.215 197.43 21.435 190.214 22.987 195.069 17.862 191.251 12.076 198.071 14.693 202.93 9.564"/>
      <polygon class="cls-4" points="179.97 2.684 181.122 10.216 189.325 11.512 181.832 14.873 182.983 22.405 177.199 16.949 169.708 20.307 173.627 13.573 167.845 8.117 176.052 9.413 179.97 2.684"/>
      <polygon class="cls-1" points="152.678 0.433 155.926 8.336 165.175 7.925 157.933 13.223 161.183 21.132 153.457 16.501 146.215 21.796 148.683 13.635 140.959 9.004 150.208 8.592 152.678 0.433"/>
      <polygon class="cls-3" points="120.677 4.797 127.59 12.782 138.105 9.169 131.861 17.724 138.774 25.711 128.003 23.01 121.756 31.561 121.343 21.34 110.573 18.637 121.089 15.019 120.677 4.797"/>
      <polygon class="cls-4" points="102.707 55.429 95.402 43.761 80.921 46.628 90.886 36.549 83.578 24.881 97.045 30.318 107.011 20.241 105.367 33.681 118.832 39.122 104.352 41.989 102.707 55.429"/>
    </g>
    <g>
      <path class="cls-3" d="M112.113,140.48,69.615,145v-.4c5.373-4.651,4.608-11.983,4.6-18.855l-.064-49.42c-.01-6.873.739-14.295-4.646-19.22v-.4L97.066,61.02v.374C92.4,64.535,93.08,71.731,93.088,78.337l.066,50.079c3.058,1.665,6.52,1.676,9.817,1.448a16.8,16.8,0,0,0,12.322-5.928Z"/>
      <path class="cls-3" d="M147.319,106.577c0,4.426-.368,9.046-2.007,12.742-1.777,4.033-4.561,6.72-7.652,6.953-3.423.256-6.514-3.2-8.289-7.8a59.791,59.791,0,0,1-3.048-18.213c-.011-10.207,3.318-21.07,10.561-20.141C144.818,81.14,147.305,96.277,147.319,106.577Zm12.467-2.836c-.028-21.142-9.142-34.3-22.792-36.526-14.628-2.389-28.423,10.451-28.39,35.3.029,24.5,12.791,38.52,27.663,36.86C149.566,137.893,159.814,124.594,159.786,103.741Z"/>
      <path class="cls-3" d="M186.491,89.282c-.776-2.99-2.392-4.016-4.292-4.208a5.743,5.743,0,0,0-2.744.25l.044,35.412c.009,5.034.065,9,2.388,12.318v.264l-15.371,1.458v-.28c2.917-3.123,2.5-8.336,2.489-13.118l-.048-37.1a8.64,8.64,0,0,0-2.991-.669c-2.813-.283-4.617.576-7.016,2.828l-.446.439,2.453-14.4,1.186.45,26.119,3.645Z"/>
      <path class="cls-3" d="M210.362,107.354a28.831,28.831,0,0,1-1.287,9.741c-1.129,3.068-2.893,5.084-4.843,5.214-2.146.148-4.07-2.5-5.166-5.971a53.686,53.686,0,0,1-1.881-13.665c-.01-7.648,2.036-15.874,6.552-15.342C208.755,87.916,210.35,99.46,210.362,107.354Zm8.3-2.2c-.021-16.381-6.111-26.3-15.034-27.6-9.318-1.354-17.879,8.553-17.853,26.917.022,18.1,7.938,28.73,17.4,27.788C211.842,131.4,218.679,121.3,218.659,105.154Z"/>
    </g>
    <g>
      <path class="cls-5" d="M281.923,52.988l-41.774.062L239,61.182l1.792.662,7.623,2.825s.172-5.764,15.037-6.31L295.4,57.111Z"/>
      <path class="cls-6" d="M280.037,48.584l4.243,4.4L262.2,54.12c-18.7.945-18.311,8.824-18.311,8.873L239,61.182l1.146-8.132Z"/>
      <path class="cls-7" d="M297.915,136.834c-.058-18.868,2.381-38.013,8.815-55.818a117.923,117.923,0,0,1,13.729-26.962l-8.078-5.494c-10.845,13.5-17.432,31.017-21.825,48.05-4.537,17.584-6.276,35.892-6.276,54.02a54.561,54.561,0,0,0,1.06,7.733l12.638-15.053c-.057-2.158-.063-4.318-.063-6.476"/>
      <path class="cls-8" d="M285.22,152.98a220.357,220.357,0,0,1,6.292-56.474A157.36,157.36,0,0,1,312.381,48.56L307.1,45.81c-4.719,7.46-10.115,15.185-13.589,23.3a185.1,185.1,0,0,0-8.288,24.053A219.2,219.2,0,0,0,278,144.508c-.153,5.221,1.252,15.7,1.252,15.7l6.088-1.844c-.059-1.793-.12-3.588-.12-5.383"/>
      <polygon class="cls-5" points="320.459 28.652 311.08 14.146 307.102 13.945 307.102 45.81 312.381 48.56 320.459 54.054 320.459 28.652"/>
      <path class="cls-4" d="M307.1,13.945,239.043,32.634,239,61.182s3.993-6.824,15.05-9.193h0l25.4-3.024a3.051,3.051,0,0,1,1.231,2.689,16.618,16.618,0,0,1-1.246,4.951c-.794,2.166-1.938,4.913-3.383,8.464-1.427,3.507-3.127,7.776-5.054,13a195.715,195.715,0,0,0-8.563,29.536c-1.927,9.151-3.158,17.721-4.018,24.981-.842,7.157-1.331,13.1-1.756,17.085-.429,3.947-.506,7.46-.506,7.46l23.089,3.079a244.457,244.457,0,0,1,.4-24.555,230.738,230.738,0,0,1,3.578-28.371A190.856,190.856,0,0,1,291.6,77.039,161.742,161.742,0,0,1,307.1,45.81Z"/>
    </g>
  </g>
</svg>
