<svg id="レイヤー_1" data-name="レイヤー 1" xmlns="http://www.w3.org/2000/svg" viewBox="0 0 464 260">
  <defs>
    <style>
      .cls-1 {
        fill: #e50038;
      }
    </style>
  </defs>
  <title>logo-takarakuji-001</title>
  <g>
    <path class="cls-1" d="M166.681,128.282a12.981,12.981,0,0,1,9.3,3.89,12.491,12.491,0,0,1,4,9.326,13.351,13.351,0,0,1-4,9.525,12.518,12.518,0,0,1-9.3,3.837,13.335,13.335,0,0,1-9.485-3.837,13.906,13.906,0,0,1-3.8-9.525A13.262,13.262,0,0,1,166.681,128.282Z"/>
    <path class="cls-1" d="M185.012,160.389h.187v16.053H86.188a8.423,8.423,0,0,1-5.862-2.265,8.133,8.133,0,0,1,5.6-13.788h35.464V149.225H106.6a7.9,7.9,0,0,1-8.087-8.02,8,8,0,0,1,7.82-7.993v-.04h15.054V121.888H102.375a8.558,8.558,0,0,1-5.729-2.3,8.293,8.293,0,0,1-2.2-5.662,8.157,8.157,0,0,1,8.06-8.26h64.173v16.227h-27.5v11.284H152.6v.733l-.067.067c-1.465,1.665-2,4.037-2,7.527,0,2.331.2,5.236,1.839,7.394l.16.333H139.184v11.164Z"/>
    <path class="cls-1" d="M392,128.016c-.067,18.278-8.46,29.442-15.547,35.664a47.5,47.5,0,0,1-31.387,12.03,49.907,49.907,0,0,1-19.81-4.236,47.082,47.082,0,0,1-14.348-10.924c-7.967-8.793-12.523-20.41-11.67-29.535,0-.44,1.2-37.209,1.2-37.875.133-3.157.933-5.489,2.5-7.021,1.465-1.465,3.8-2.132,6.555-2.1,3.037.04,5.236.866,6.528,2.5,1.545,1.465,2.1,3.863,1.905,7.021,0,.506-.666,32.813-.666,33.172-.306,9.126,2.172,16.586,7.5,22.421a30.642,30.642,0,0,0,20.516,8.953,27.181,27.181,0,0,0,20.21-8.686c5.462-5.769,8.859-14.228,8.433-21.555a7.956,7.956,0,0,1,2.185-5.955,10.5,10.5,0,0,1,6.741-3.131,8.454,8.454,0,0,1,6.315,2.531A9.132,9.132,0,0,1,392,128.016Z"/>
    <path class="cls-1" d="M222.674,129.614l57.552,27.111a19.225,19.225,0,0,1,2.065.733l.133.067.2.067h0a9.449,9.449,0,0,1,4.8,8.153,8.945,8.945,0,0,1-2.731,6.435,9.108,9.108,0,0,1-6.461,2.664,6.878,6.878,0,0,1-2.571-.4v.067l-.16-.173h0a6.011,6.011,0,0,1-2.025-.8c-2.878-1.359-69.515-32.6-71.94-33.838a5.374,5.374,0,0,1-1.639-1.266,9.223,9.223,0,0,1-4.223-7.887,10.034,10.034,0,0,1,4.556-8.659l-.027-.067.187-.2.573-.24.2-.093h.107L276.19,82.653h0l.133-.067a11.36,11.36,0,0,1,3.837-.573,9.956,9.956,0,0,1,6.461,2.638,9.738,9.738,0,0,1,2.664,6.595c0,3.73-2.065,6.355-6.595,8.726Z"/>
    <path class="cls-1" d="M338.711,103.6a12.765,12.765,0,0,1,8.966-21.848,13.284,13.284,0,0,1,9.086,3.73,12.834,12.834,0,0,1,3.664,9.1,12.538,12.538,0,0,1-3.664,9.019,12.845,12.845,0,0,1-9.086,3.637A12.542,12.542,0,0,1,338.711,103.6Z"/>
    <path class="cls-1" d="M366.954,103.6a12.4,12.4,0,0,1-3.69-9.019,12.717,12.717,0,0,1,12.709-12.829,12.626,12.626,0,0,1,12.763,12.829,13.231,13.231,0,0,1-3.664,9.019,13.086,13.086,0,0,1-9.1,3.637A12.757,12.757,0,0,1,366.954,103.6Z"/>
    <path class="cls-1" d="M191.167,99.972v20.609H173.249V100.239h-83.3v20.41H72v-20.41l.04-.266c0-4.929,1.759-8.7,4.756-11.124,2.8-2.265,7.061-3.53,12.43-3.6h29.842a16.056,16.056,0,0,1,25.445,0h29.669C185.465,85.278,191.167,90.38,191.167,99.972Z"/>
  </g>
</svg>
