<svg xmlns="http://www.w3.org/2000/svg" viewBox="0 0 160 160"><defs><style>.cls-1{fill:#d73282;}.cls-2,.cls-9{fill:#fff;}.cls-3{fill:#bebebe;}.cls-4{fill:#1e286e;}.cls-5{fill:#facf00;}.cls-6,.cls-8{fill:#231914;}.cls-6,.cls-9{fill-rule:evenodd;}.cls-7{fill:#fabe00;}.cls-10{fill:#e6e6e6;}</style></defs><title>logo-kisekae-qoochan-1x1-001</title><g id="レイヤー_2" data-name="レイヤー 2"><g id="レイヤー_4" data-name="レイヤー 4"><path class="cls-1" d="M54.89,81.21,50.78,65.84l3.69-.25,2-8L43,55.76c-1.1,1.39-3,2.47-5.72,3.18s-4.75.82-6.54.11L19.9,67.38l5.79,5.93L29,71.7l4.11,15.38Z"/><path class="cls-2" d="M42.45,70v-.75h5.79V67.88H42.45v-.72h5.79V65.59H45.35l1-1.5H44l-1,1.5H39.59l-1-1.5H36.2l1,1.5H34.3v1.57h5.58v.72H34.3v1.39h5.58V70H33.55V71.6H35v2.53a1.88,1.88,0,0,1-2.11,2.11v2.4a4.28,4.28,0,0,0,4.51-4.51V71.6H48.89V70Z"/><path class="cls-3" d="M124.21,100.77l-.68.39c-.42.29-1,.57-1.57.93s-1.18.64-1.71.89a2.74,2.74,0,0,1-1.33.33c-.39-.08-.57-.4-.53-1s.39-2.11.53-2.9a14.88,14.88,0,0,0,.25-2.47,2,2,0,0,0-1.25-1.86,4,4,0,0,0-2.57-.35,5.23,5.23,0,0,0-1.4.39s4.69-8,5.47-9.44l-5.11-.75-10.94,20.59L108,106c.28-.61.64-1.25,1-1.93.61-1.15,2.32-4,2.57-4.44a3.52,3.52,0,0,1,1-1,2.66,2.66,0,0,1,1.32-.5c.75-.07,1.15.14,1.15.64a13.26,13.26,0,0,1-.29,1.86,10,10,0,0,0,0,4.5c.39.93,1.32,1.47,2.79,1.68a5.34,5.34,0,0,0,2-.14,8.16,8.16,0,0,0,1.75-.64c.54-.25,3.82-2.11,4.43-2.54Z"/><path class="cls-3" d="M80,90l.89-2.36-3.86-1L76.2,89l-3.36-.89L72,91.44l3.07.82L73.2,97.44c1.79.25,4.32.65,5.75,1,1.61.33,2.94.93,2.83,2.51s-2.18,2.28-5.19,1.39a37.44,37.44,0,0,1-4.68-1.79L71,104c6,2.82,12.3,3.61,14.19-1.18,1.5-3.87-1-6.83-7.15-7.62l.72-1.93.53.14,7.87,2.08.89-3.36-6.61-1.76Z"/><polygon class="cls-3" points="21.18 80.71 11.89 92.26 17.11 94.15 23.4 86.4 28.73 88.29 16.39 104.95 22.11 106.74 37.48 86.18 21.18 80.71"/><polygon class="cls-3" points="66.44 98.98 71.27 98.41 66.94 96.23 71.27 94.05 66.44 93.51 69.77 89.97 65.05 91.11 66.98 86.65 62.94 89.33 63.22 84.47 60.33 88.36 58.93 83.72 57.54 88.36 54.64 84.47 54.93 89.33 50.89 86.65 52.82 91.11 48.1 89.97 51.43 93.51 51.57 93.65 35.02 93.65 31.44 98.41 51.96 98.41 51.43 98.98 48.1 102.48 52.82 101.38 50.89 105.84 54.93 103.16 54.64 107.99 57.54 104.09 58.93 108.74 60.33 104.09 63.22 107.99 62.94 103.16 66.98 105.84 65.05 101.38 69.77 102.48 66.44 98.98"/><path class="cls-3" d="M98.29,98.66l1,3c1.53-.36,3.71-1.11,4.86-2.83a4.9,4.9,0,0,0,.61-4.36,4.41,4.41,0,0,0-5-3l-.82-2L95.18,90l1,2.54c-.39.14-.79.32-1.21.5l-1.15-2.83-3.75.65,1.46,3.57-2.82,1.14,1.18,2.86c.93-.39,1.89-.78,2.82-1.14L96.29,106h4L96.22,95.91c1.79-.72,3.11-1.22,3.4-1.33,0,0,1.57-.68,2.18.72a1.77,1.77,0,0,1-.11,1.75A6.22,6.22,0,0,1,98.29,98.66Z"/><path class="cls-4" d="M105.09,61.87H56.75l-1,4.08-.25.93-1,.07-2.07.14,3.72,13.84.28,1.1h48.62c6.19,0,11.23-4.54,11.23-10.08s-5-10.08-11.19-10.08"/><rect class="cls-2" x="99.33" y="65.13" width="5.36" height="2"/><path class="cls-2" d="M107.38,76.71c-.54,0-.79-.47-.79-1V74.31a1.42,1.42,0,0,0-1.54-1.39l1.72-1.18a1.13,1.13,0,0,0,.5-.93V68.52a.61.61,0,0,0-.68-.68H96.33v2.29h8.72l-.07.07-9,6.29v2.83l6.68-4.69a4,4,0,0,1,.4-.17,1,1,0,0,1,1.25,1v1A2.7,2.7,0,0,0,107,79h2.75V76.74h-2.35Z"/><path class="cls-2" d="M66.44,72.24H64.73v2.29h1.89A3.25,3.25,0,0,0,69.91,71v-1h2.86V67.77H69.91V65H67.62v2.75H62.29V65H60v2.75h-2.4v2.29H60v5.11c0,2.18,1.39,3.5,3.68,3.5h7.36V76.39H64a1.6,1.6,0,0,1-1.68-1.61V70.06h5.33v1a1.13,1.13,0,0,1-1.18,1.22"/><path class="cls-2" d="M84.25,68h-.76c.36-1.29.65-2.43.86-3.32H82c-.21.93-.53,2.07-.89,3.32H77.45v2.29h3A59.48,59.48,0,0,1,76.74,79h2.61a54.09,54.09,0,0,0,3.47-8.69h1.43c.82,0,1,.64,1,1.21v4c0,.54-.18,1.22-1,1.22H82.14V79h2.11a3.22,3.22,0,0,0,3.25-3.51v-4A3.2,3.2,0,0,0,84.25,68"/><path class="cls-2" d="M89.68,66.63h-2.5a41.47,41.47,0,0,1,2.43,7.86h2.32a41.25,41.25,0,0,0-2.25-7.86"/><path class="cls-4" d="M123.5,99.34l-.68.39c-.43.29-1,.57-1.57.93a19.05,19.05,0,0,1-1.72.89,2.7,2.7,0,0,1-1.32.33c-.4-.08-.57-.4-.54-1s.39-2.11.54-2.9a16,16,0,0,0,.25-2.47,2,2,0,0,0-1.25-1.86,4,4,0,0,0-2.58-.35,5.12,5.12,0,0,0-1.39.39s4.68-8,5.47-9.44l-5.11-.75-10.91,20.59,4.65.47c.29-.61.64-1.25,1-1.93.61-1.15,2.32-4,2.57-4.44a3.52,3.52,0,0,1,1-1,2.66,2.66,0,0,1,1.32-.5c.75-.07,1.15.14,1.15.64a11.92,11.92,0,0,1-.29,1.86,10,10,0,0,0,0,4.5c.4.93,1.32,1.47,2.79,1.68a5.32,5.32,0,0,0,2-.14,8.16,8.16,0,0,0,1.75-.64c.54-.25,3.83-2.11,4.43-2.54Z"/><path class="cls-4" d="M79.31,88.61l.9-2.36-3.87-1-.85,2.36-3.36-.9L71.23,90l3.08.83-1.83,5.18c1.79.25,4.33.64,5.76,1,1.61.32,2.93.93,2.82,2.5s-2.18,2.29-5.18,1.4a39.09,39.09,0,0,1-4.68-1.79l-.9,3.43c6,2.83,12.3,3.61,14.2-1.18,1.5-3.86-1-6.83-7.15-7.61l.71-1.93.54.14,7.86,2.07.9-3.36L80.74,89Z"/><polygon class="cls-4" points="20.47 79.28 11.17 90.86 16.39 92.72 22.68 85 28.01 86.86 15.68 103.56 21.4 105.31 36.77 84.75 20.47 79.28"/><polygon class="cls-4" points="65.73 97.55 70.55 96.98 66.23 94.8 70.55 92.65 65.73 92.08 69.05 88.54 64.33 89.69 66.26 85.22 62.22 87.9 62.51 83.04 59.61 86.93 58.22 82.28 56.83 86.93 53.93 83.04 54.22 87.9 50.17 85.22 52.11 89.69 47.39 88.54 50.71 92.08 50.85 92.22 34.3 92.22 30.73 96.98 51.25 96.98 50.71 97.55 47.39 101.05 52.11 99.95 50.17 104.41 54.22 101.73 53.93 106.56 56.83 102.66 58.22 107.35 59.61 102.66 62.51 106.56 62.22 101.73 66.26 104.41 64.33 99.95 69.05 101.05 65.73 97.55"/><polygon class="cls-5" points="57.54 98.62 56.15 100.55 56.29 98.19 54.32 99.48 55.25 97.3 52.96 97.87 54.57 96.16 52.21 95.87 54.32 94.8 52.21 93.76 54.57 93.47 52.96 91.76 55.25 92.3 54.32 90.15 56.29 91.44 56.15 89.08 57.54 90.97 58.22 88.72 58.9 90.97 60.29 89.08 60.19 91.44 62.15 90.15 61.19 92.3 63.51 91.76 61.87 93.47 64.22 93.76 62.12 94.8 64.22 95.87 61.87 96.16 63.51 97.87 61.19 97.3 62.15 99.48 60.19 98.19 60.29 100.55 58.9 98.62 58.22 100.91 57.54 98.62"/><path class="cls-4" d="M98.8,93.15s1.57-.68,2.18.72a1.82,1.82,0,0,1-.11,1.75c-.61.89-2.18,1.39-3.29,1.61l1,3c1.54-.36,3.72-1.11,4.86-2.83a4.9,4.9,0,0,0,.61-4.36,4.4,4.4,0,0,0-5-3l-.83-2-3.75.65,1,2.54c-.4.14-.79.32-1.22.5l-1.14-2.83-3.76.65L90.86,93c-1.07.43-2.11.86-2.83,1.14L89.21,97c.93-.39,1.9-.78,2.83-1.14l3.54,8.69h4L95.51,94.48c1.68-.72,3-1.26,3.29-1.33"/><path class="cls-6" d="M128.68,58.8a.6.6,0,0,1,.57.68.59.59,0,0,1-.67.57.67.67,0,0,1-.58-.64A.62.62,0,0,1,128.68,58.8Z"/><path class="cls-6" d="M128.72,56.69a.75.75,0,0,1,.68.78.72.72,0,1,1-1.43-.1A.67.67,0,0,1,128.72,56.69Z"/><path class="cls-6" d="M130.11,55.12a.61.61,0,1,1-.1,1.21.61.61,0,1,1,.1-1.21Z"/><path class="cls-6" d="M131.76,54.11a.65.65,0,0,1,.6.72.64.64,0,0,1-.71.61.74.74,0,0,1-.64-.72A.7.7,0,0,1,131.76,54.11Z"/><path class="cls-6" d="M133.79,53.9a.65.65,0,0,1,.58.68.63.63,0,0,1-.68.57.64.64,0,0,1-.61-.68A.62.62,0,0,1,133.79,53.9Z"/><path class="cls-6" d="M135.73,54.22a.62.62,0,0,1,.57.68.63.63,0,0,1-.68.57.61.61,0,0,1-.61-.68A.66.66,0,0,1,135.73,54.22Z"/><path class="cls-6" d="M137.16,55.47a.57.57,0,0,1,.53.65.63.63,0,0,1-.64.57.6.6,0,0,1-.57-.65A.66.66,0,0,1,137.16,55.47Z"/><path class="cls-6" d="M138,57.22a.38.38,0,0,1,.36.43.42.42,0,0,1-.43.36.38.38,0,0,1-.36-.43A.41.41,0,0,1,138,57.22Z"/><path class="cls-6" d="M138.48,58.76a.31.31,0,0,1,.28.32.32.32,0,0,1-.32.33.33.33,0,0,1-.28-.36A.3.3,0,0,1,138.48,58.76Z"/><path class="cls-6" d="M130.22,47.25a.85.85,0,0,1,.79.93.92.92,0,0,1-.93.79.87.87,0,0,1-.79-.93A.83.83,0,0,1,130.22,47.25Z"/><path class="cls-6" d="M122,49.61a.51.51,0,0,1,.43.5.44.44,0,0,1-.5.43.48.48,0,0,1-.43-.5A.45.45,0,0,1,122,49.61Z"/><path class="cls-6" d="M127.68,55a.58.58,0,0,1,.54.68.62.62,0,0,1-.65.57.68.68,0,0,1-.6-.68A.66.66,0,0,1,127.68,55Z"/><path class="cls-6" d="M126.22,53.86a.65.65,0,0,1-.11,1.29.65.65,0,0,1-.61-.68A.69.69,0,0,1,126.22,53.86Z"/><path class="cls-6" d="M124.21,54.61a.61.61,0,0,0,.68-.57.6.6,0,0,0-.57-.68.62.62,0,0,0-.68.58A.66.66,0,0,0,124.21,54.61Z"/><path class="cls-6" d="M122.46,53.83a.61.61,0,0,1,.57.68.62.62,0,0,1-.68.61.72.72,0,0,1-.6-.72A.6.6,0,0,1,122.46,53.83Z"/><path class="cls-6" d="M120.92,54.86a.51.51,0,0,1,.47.58.5.5,0,0,1-.54.43.51.51,0,0,1,.07-1Z"/><path class="cls-6" d="M120,56.15c.21,0,.36.25.36.43a.39.39,0,0,1-.43.36.42.42,0,0,1-.36-.39C119.57,56.29,119.71,56.12,120,56.15Z"/><path class="cls-6" d="M118.49,49.65a.66.66,0,0,1,.61.75.67.67,0,0,1-.71.6.65.65,0,0,1-.65-.71A.69.69,0,0,1,118.49,49.65Z"/><path class="cls-6" d="M138.8,51a.67.67,0,0,1,.61.75.68.68,0,0,1-.72.61.64.64,0,0,1-.64-.71A.67.67,0,0,1,138.8,51Z"/><path class="cls-6" d="M142.7,60.08a.66.66,0,0,1,.6.76.67.67,0,0,1-.71.6.64.64,0,0,1-.64-.71A.72.72,0,0,1,142.7,60.08Z"/><path class="cls-6" d="M134.08,57.8a.35.35,0,0,1,.32.39.39.39,0,0,1-.36.36.35.35,0,0,1-.32-.4A.33.33,0,0,1,134.08,57.8Z"/><path class="cls-6" d="M121.14,59.3a.43.43,0,0,1,.39.46.44.44,0,0,1-.46.4.44.44,0,0,1-.4-.47A.4.4,0,0,1,121.14,59.3Z"/><path class="cls-6" d="M132.44,49.82a.44.44,0,0,0-.86.15.44.44,0,0,0,.86-.15Z"/><path class="cls-6" d="M115.38,58a.46.46,0,0,0-.53-.39.48.48,0,0,0-.4.53.5.5,0,0,0,.54.4A.43.43,0,0,0,115.38,58Z"/><path class="cls-6" d="M128.61,60.76a11.14,11.14,0,0,1,11.26,8.37A20.56,20.56,0,0,1,143.16,68c1.22-.29,3.18-.75,3.65.47.28,1.14,0,1.43-1,1.93a6,6,0,0,0-2.29,2A5,5,0,0,1,142.3,74a11.47,11.47,0,0,1-2.46,1.53,26.9,26.9,0,0,1-1.68,6.72c-.58,1.33-1.68,2.65-1.79,4a1.65,1.65,0,0,0,.89,1.64,5.71,5.71,0,0,1,3.26-4,2.32,2.32,0,0,1,3.18,2,5.91,5.91,0,0,1-2.25,4A6.15,6.15,0,0,1,143.23,92a2.85,2.85,0,0,1-.82,3.75c-2.43,1.29-4.9-1.18-5.4-3.46A20.9,20.9,0,0,1,127.47,91a15.66,15.66,0,0,1-9.94-14.19,9.21,9.21,0,0,1-2.4-1.46,6.76,6.76,0,0,1-1.21-1.61A6.77,6.77,0,0,0,111.7,72c-.39-.22-1.71-.47-1.46-1.9.25-.89,1-1,1.85-1a16.67,16.67,0,0,1,5.26,1.15C117.81,66.81,120.17,60.91,128.61,60.76Z"/><path class="cls-2" d="M138.66,76.85a24.93,24.93,0,0,1-1.22,4.61c-.39,1-1.43,2.47-1.75,3.4a3.38,3.38,0,0,0-.25,2,3.07,3.07,0,0,0,1.61,2,9.71,9.71,0,0,0-.15,2.51,21.9,21.9,0,0,1-6-.29,17.73,17.73,0,0,1-5.65-2.29,14.53,14.53,0,0,1-4.43-4.5,16.29,16.29,0,0,1-2.15-6,14.3,14.3,0,0,1,7.8-4.9C131.44,72.45,136.51,75.42,138.66,76.85Z"/><path class="cls-7" d="M111.2,70.24c.07-.22.36-.25.47-.25a14.9,14.9,0,0,1,5.54,1.18l1,.39s0-.21,0-.89a10.39,10.39,0,0,1,2.22-5.54,9.48,9.48,0,0,1,6.07-3.26,11.08,11.08,0,0,1,9.91,2.93,8.63,8.63,0,0,1,2.57,5.79,23.9,23.9,0,0,1,4.18-1.68c.93-.21,2.51-.5,2.68-.07.08.18.08.32-.17.47a7.58,7.58,0,0,0-3.51,3.25A8.32,8.32,0,0,1,139,74.74a5.25,5.25,0,0,1-.14,1,21.76,21.76,0,0,0-9.62-3.61,11.44,11.44,0,0,0-7.51,2,20.29,20.29,0,0,0-3.18,2.65,1.68,1.68,0,0,1,0-.65,9.57,9.57,0,0,1-2.79-1.57c-.86-.93-.93-1.46-1.5-2a8.61,8.61,0,0,0-2.72-1.82C111.13,70.59,111.16,70.38,111.2,70.24Z"/><path class="cls-8" d="M136.9,91c-.25,0-.53,0-.78,0a17.19,17.19,0,0,1-7.62-1.75,11.71,11.71,0,0,1-2.78-2c-3.08-2.86-4.19-7.9-4.51-11.51-.21.1-.89.71-.93.71h0C121,81,122.53,84.75,124.75,87c3.22,3.32,7.79,4,11.08,4a8.88,8.88,0,0,0,1.07,0Z"/><path class="cls-8" d="M136.9,90.61c-4.32-.1-7.79-1.78-10-4.82s-3.21-8.76-3.32-11.55v-.11c.07,0,.72-.28,1-.35.25,4.86.92,7.93,2.32,10.86,2,4.12,6.68,5.76,10.08,5.87Z"/><path class="cls-8" d="M136.87,90.11a9.47,9.47,0,0,1-5.11-1.89c-2.58-1.9-3.22-5.26-3.65-7.47l-.07-.43a49.66,49.66,0,0,1-.5-7.29h.64a2.19,2.19,0,0,1,.5,0,39,39,0,0,0,.4,8.69c.67,3.47,1.43,4.68,3,6.26a8.79,8.79,0,0,0,4.47,2l.43.07v0Z"/><path class="cls-8" d="M137,89.65a5.71,5.71,0,0,1-2.86-1.11,6.14,6.14,0,0,1-2.43-4.43,31.62,31.62,0,0,1-.11-4.94l0-1.71c0-2,0-3.86,0-3.93.25.1.86.18,1,.28,0,.07-.15,3.43-.18,4s-.4,3.93-.32,5.22a8.12,8.12,0,0,0,1.14,4.25A5.33,5.33,0,0,0,137,89.61Z"/><path class="cls-8" d="M137,89.22a3.24,3.24,0,0,1-1.86-1.11,4.16,4.16,0,0,1-1-2.29,10.24,10.24,0,0,1,.25-3.5A43.82,43.82,0,0,0,135.47,75c.22.18.79.4.83.47-.07.32-.15.89-.22,1.5-.1.86-.21,1.79-.32,2.29a26.75,26.75,0,0,1-.89,3.68,7.92,7.92,0,0,0-.4,2.93,4.44,4.44,0,0,0,1.11,2.47,4.39,4.39,0,0,0,1.4.82v.07Z"/><path class="cls-6" d="M123.39,65.3a.75.75,0,1,0-.82.68A.78.78,0,0,0,123.39,65.3Z"/><path class="cls-6" d="M134.44,64.91a.75.75,0,1,0-.82.68A.77.77,0,0,0,134.44,64.91Z"/><path class="cls-9" d="M123.07,65a.27.27,0,1,0-.29.25A.27.27,0,0,0,123.07,65Z"/><path class="cls-9" d="M134.15,64.62a.27.27,0,0,0-.53,0,.27.27,0,0,0,.25.28A.29.29,0,0,0,134.15,64.62Z"/><path class="cls-6" d="M129.22,69.77a6.09,6.09,0,0,1-5-1.53.51.51,0,0,0-.79.21.65.65,0,0,0,.32.71,7.12,7.12,0,0,0,9.37-.25.49.49,0,0,0,.07-.75c-.25-.32-.57-.17-.86.08A6.1,6.1,0,0,1,129.22,69.77Z"/><path class="cls-7" d="M139.3,94.3a2.71,2.71,0,0,0,2,.82,1.47,1.47,0,0,0,1.25-1.18c.21-.89-.07-2.07-2-3.43-.21-.11-.43-.25-.68-.36.11-.14.75-.71.75-.71,2-1.83,2.26-3,2.08-3.76a1.28,1.28,0,0,0-1-.93,2.09,2.09,0,0,0-1.71.54,5.46,5.46,0,0,0-1.51,2.07,11,11,0,0,0-.64,3A4.53,4.53,0,0,0,139.3,94.3Z"/><path class="cls-2" d="M46.67,72.06H38.56a.63.63,0,0,0-.61.61V78.6a.63.63,0,0,0,.61.61h8.11a.63.63,0,0,0,.61-.61V72.67A.61.61,0,0,0,46.67,72.06Zm-1.43,6H40v-.79h5.29Zm0-2H40v-.78h5.29Zm0-2H40v-.79h5.29Z"/><g id="レイヤー_3" data-name="レイヤー 3"><path class="cls-10" d="M158,2V158H2V2H158m2-2H0V160H160Z"/></g></g></g></svg>