<svg id="レイヤー_1" data-name="レイヤー 1" xmlns="http://www.w3.org/2000/svg" viewBox="0 0 464 260">
  <defs>
    <style>
      .cls-1 {
        fill: #f7b400;
      }

      .cls-2 {
        fill: #fff;
      }

      .cls-3 {
        fill: #211513;
      }

      .cls-4 {
        fill: #e3007f;
      }

      .cls-5 {
        fill: #231815;
      }
    </style>
  </defs>
  <title>logo-bingo5-001</title>
  <g>
    <g>
      <path class="cls-1" d="M347.553,97.433C315.179,87.9,278.471,80.245,238.827,80.245a346.4,346.4,0,0,0-93.433,12.428l3.547-30.862L128.428,81.758l-8.082-27.55L109.009,80.6,91.02,58.341l-.406,28.611L65.4,73.2,76.058,99.86,47.609,96.844l19.942,20.509L40,125.438l26.392,11.337-22.25,17.988,28.608.41L58.993,180.392l26.66-10.654-3.02,28.455,20.514-19.945,8.087,27.544,11.335-26.38,17.988,22.249.408-28.612,21.367,9.308-5.17-16.87c24.1-8.043,52.412-12.452,81.666-12.452,43.177,0,84.312,9.593,112.859,26.32l31.1-6.336,7.966-26.576C374.833,135.363,350.128,98.192,347.553,97.433Z"/>
      <polygon class="cls-2" points="165.223 117.586 148.921 128.952 167.688 135.478 148.271 139.716 163.102 152.942 143.539 149.448 152.199 167.335 135.472 156.605 136.604 176.448 125.244 160.142 118.709 178.913 114.475 159.492 101.248 174.327 104.744 154.762 86.856 163.421 97.586 146.694 77.747 147.823 94.049 136.463 75.282 129.931 94.698 125.697 79.866 112.468 99.433 115.963 90.767 98.076 107.497 108.803 106.364 88.964 117.727 105.268 124.26 86.499 128.494 105.918 141.724 91.087 138.225 110.651 156.112 101.99 145.383 118.72 165.223 117.586"/>
    </g>
    <path class="cls-3" d="M423.328,92.657a6.307,6.307,0,0,0-3.7-3.146L355.554,68.5a6.268,6.268,0,0,0-1.207-.256l-5.606-1.841a6.561,6.561,0,0,0-2.007-.318,6.286,6.286,0,0,0-5.965,4.368s-15.951,48.659-16.81,51.279c-2.292,6.989.94,9.673,4.059,10.7l19.836,6.5.151-.086c2.67.875,4.678,1.531,4.678,1.531l1.98.65,1.782-1.08a14.137,14.137,0,0,1,7.317-1.946c.486,0,.965.025,1.442.068,6.286,3.332,8.776,9.231,6.676,16.31-2.494,8.228-8.82,9.457-12.371,9.457a16.036,16.036,0,0,1-1.829-.118c-3.8-2.011-7.22-5.507-7.632-10.537l-.247-3-25.222-8.269-.016.13-6.785-2.224-.693,5.46a39.213,39.213,0,0,0,5.544,25.825A43.518,43.518,0,0,0,344.562,188.7a37.047,37.047,0,0,0,3.532,1.352l5.615,1.553a45.958,45.958,0,0,0,13.779,2.159h0a39.681,39.681,0,0,0,38.6-28.946l.034-.124c6.763-22.79-4.64-44.034-27.8-51.684l-.208-.065c-1.268-.4-2.549-.736-3.842-1.024-.9-.352-1.81-.692-2.747-1l-.22-.072a45.325,45.325,0,0,0-5.018-1.268l2.9-8.841c5.228,1.7,11.752,3.83,18.311,5.971l0,.009,4.867,1.6c5.472,1.791,7.326,4.019,8.643,5.981a6.318,6.318,0,0,0,1.45,1.5c2.153,2.441,8.483,3.846,10.253,3.846a5.119,5.119,0,0,0,5.128-3.45c.028-.08.18-.612.4-1.376.449-1.593,1.383-4.913,1.764-6.07L423.671,97.5A6.293,6.293,0,0,0,423.328,92.657Z"/>
    <path class="cls-4" d="M394.959,161.307c6.027-20.306-4.18-39.248-24.813-46.067l-.211-.068a39.451,39.451,0,0,0-17.268-1.494L359.5,92.821c.01-.022,20.48,6.657,34.277,11.161l-.006.013c6.438,2.112,9.129,4.986,10.985,7.746.446.658,1.59,1.2,1.964.044.087-.26,1.584-4.829,2.147-6.547l-.006,0,3.684-11.249a1.727,1.727,0,0,0-1.138-2.255L347.337,70.726a1.734,1.734,0,0,0-2.256,1.142s-15.947,48.665-16.807,51.286-1.058,4.238,1.154,4.965,17.859,5.857,17.859,5.857a19.69,19.69,0,0,1,16.04-1.615c10.435,3.446,16.2,12.2,12.9,23.338-3.348,11.053-13.5,14.772-23.579,11.585-7.292-2.308-13.29-8-13.934-15.823l-17.119-5.612a34.71,34.71,0,0,0,4.894,22.864,39.246,39.246,0,0,0,21.278,16.3l.426.136c10.212,3.226,20.634,2.478,29.352-2.116a35.772,35.772,0,0,0,17.392-21.628Z"/>
    <path class="cls-5" d="M202.27,109.937a.312.312,0,0,1,.124.08c.019.028-.02.013-.089-.031S202.219,109.922,202.27,109.937Z"/>
    <path class="cls-3" d="M186.771,96.168c-3.1.476-6.036.978-8.17,1.38-1.2.228-2.487.482-3.485.609,0,0,2.528,2.676,3.639,11.447s4.732,37.479,4.732,37.479,5.011-.94,11.261-1.977l-3.675-28.94,18.16,25.751a2.9,2.9,0,0,0,2.454,1.1s9.441-.7,9.857-.752L215.5,94.488a1.582,1.582,0,0,0-1.737-1.392s-8.029.7-11.341,1.116c0,0,2.242,3.2,3.354,11.973.481,3.818,1.444,11.406,2.376,18.765l-3.949-5.676-14.689-21.94A2.535,2.535,0,0,0,186.771,96.168Z"/>
    <path class="cls-3" d="M297.967,96.3c-13.525-2.877-26.892,6.091-29.856,20.034s5.6,27.57,19.124,30.446,26.9-6.094,29.859-20.037S311.492,99.172,297.967,96.3Z"/>
    <path class="cls-3" d="M263.145,114.7,261.79,141.04a1.569,1.569,0,0,1-1.612,1.51s-12.28-.622-14.364-.73c-13.18-.678-23.3-12.325-22.591-26.017s11.692-23.938,24.876-23.26l16.658.822-2.716,10.725-12.7-.618c-7.409-.384-13.488,5.271-13.883,12.962a13.734,13.734,0,0,0,12.715,14.645l3.279.154.492-9.575L242.8,121.2l.468-9.107,18.425.938A1.567,1.567,0,0,1,263.145,114.7Z"/>
    <polygon class="cls-2" points="308.361 131.107 298.759 128.929 299.919 138.701 293.437 131.299 288.63 139.889 287.736 130.086 278.799 134.213 283.838 125.754 274.183 123.84 283.228 119.96 276.544 112.737 286.143 114.911 284.98 105.139 291.467 112.542 296.271 103.951 297.165 113.755 306.102 109.631 301.066 118.086 310.722 120.001 301.673 123.884 308.361 131.107"/>
    <path class="cls-3" d="M144.284,125.224a19.026,19.026,0,0,0,1.127-14.934c-3.324-9.847-14.032-15.128-24.981-11.431-6.224,2.1-21.478,7.247-28.8,9.717,0,0,3.958,3.09,7.734,14.275s16.13,47.79,16.13,47.79,22.251-7.508,29.153-9.838c9.565-3.231,14.623-13.831,11.3-23.679A18.977,18.977,0,0,0,144.284,125.224Zm-31.05-9.928,9.082-3.067a6.854,6.854,0,0,1,4.384,12.989l-9.08,3.065Zm22.223,34.363-9.538,3.217-4.361-12.928,10.36-3.5a6.851,6.851,0,0,1,3.539,13.208Z"/>
    <path class="cls-3" d="M177.582,148.2,166.17,101.5a1.608,1.608,0,0,0-1.934-1.178l-12.667,3.152s2.781,2.382,4.863,10.977,8.892,36.714,8.892,36.714,5.689-1.6,12.257-2.97"/>
    <g>
      <path class="cls-3" d="M174.289,187.837a2.359,2.359,0,0,1-.466-1.738v-3.2l11.345-.842v-3.894l-11.345.956v-3.607h-4.229V187.7c0,3.456,1.671,4.6,4.69,4.6h10.9v-3.956h-8.971A2.616,2.616,0,0,1,174.289,187.837Z"/>
      <rect class="cls-3" x="184.238" y="173.554" width="2.119" height="3.554"/>
      <rect class="cls-3" x="181.385" y="173.554" width="2.161" height="3.554"/>
      <path class="cls-3" d="M222.405,176.115h-11.92v4h11.787V188.2H210.59v4.018h14.1c1.191,0,2.152-.429,2.152-2.02V177.885h-4.432Z"/>
      <path class="cls-3" d="M281.932,177.693l-10.784,3.718v4.04l7.121-2.378v9.837h4.33V181.591l.245-.084c5.252-1.914,5.784-2.338,5.98-6.481h-4.74C283.91,177.012,283.866,177.043,281.932,177.693Z"/>
      <polygon class="cls-3" points="197.939 177.384 189.862 176.264 189.862 180.233 197.939 181.359 197.939 177.384"/>
      <rect class="cls-3" x="225.955" y="173.674" width="2.12" height="3.555"/>
      <rect class="cls-3" x="223.104" y="173.674" width="2.161" height="3.555"/>
      <rect class="cls-3" x="307.658" y="173.946" width="2.123" height="3.555"/>
      <rect class="cls-3" x="304.81" y="173.946" width="2.162" height="3.555"/>
      <path class="cls-3" d="M231.481,179.481H243.83V181.2c0,4.494-3.112,7.128-7.4,7.128h-4.2v3.9h4.5c6.447,0,11.6-3.988,11.6-10.635v-6.014H231.481Z"/>
      <path class="cls-3" d="M201.857,181.2c0,4.494-3.114,7.128-7.4,7.128H190.26v3.9h4.5c6.445,0,11.6-3.988,11.6-10.635v-5.476h-4.506Z"/>
      <path class="cls-3" d="M304.11,175.577H292.03v3.9h12.347V181.2c0,4.494-3.112,7.128-7.4,7.128h-4.194v3.9h4.5c6.444,0,11.6-3.988,11.6-10.635V178.11h-4.77Z"/>
      <path class="cls-3" d="M252.619,180.8h11v.91c0,1.1-1.274,1.628-2.032,1.628H258.17l-1.639,4a2.474,2.474,0,0,1-2.4,1.723H252.5V192.3h2.567c1.73,0,3.988-.752,4.839-2.79l1.2-3H262.7a4.828,4.828,0,0,0,5.042-4.591v-4.439h-15.12Z"/>
    </g>
  </g>
</svg>
