<svg id="レイヤー_1" data-name="レイヤー 1" xmlns="http://www.w3.org/2000/svg" viewBox="0 0 400 184">
  <defs>
    <style>
      .cls-1 {
        fill: #f7b400;
      }

      .cls-2 {
        fill: #fff;
      }

      .cls-3 {
        fill: #211513;
      }

      .cls-4 {
        fill: #e3007f;
      }

      .cls-5 {
        fill: #231815;
      }
    </style>
  </defs>
  <title>BINGO5</title>
  <g>
    <g>
      <path class="cls-1" d="M308.331,61.468c-30.35-8.941-64.765-16.113-101.931-16.113a324.74,324.74,0,0,0-87.593,11.652l3.326-28.933L102.9,46.773,95.324,20.945,84.7,45.683,67.831,24.819,67.45,51.643,43.814,38.75,53.8,63.743,27.133,60.917l18.7,19.227L20,87.723,44.743,98.352l-20.86,16.864,26.82.384-12.9,23.642L62.8,129.254l-2.832,26.677,19.232-18.7,7.581,25.823,10.627-24.732,16.864,20.858.382-26.824,20.032,8.727-4.847-15.816c22.593-7.54,49.135-11.674,76.561-11.674,40.479,0,79.043,8.994,105.806,24.675l29.159-5.939,7.468-24.916C333.906,97.028,310.745,62.18,308.331,61.468Z"/>
      <polygon class="cls-2" points="137.396 80.362 122.113 91.018 139.708 97.135 121.504 101.109 135.409 113.508 117.068 110.233 125.187 127.002 109.505 116.943 110.567 135.545 99.916 120.258 93.79 137.855 89.821 119.649 77.42 133.556 80.698 115.214 63.927 123.332 73.987 107.651 55.388 108.709 70.671 98.059 53.077 91.935 71.28 87.966 57.374 75.564 75.718 78.84 67.594 62.071 83.278 72.128 82.216 53.529 92.869 68.814 98.994 51.217 102.963 69.423 115.366 55.519 112.086 73.861 128.855 65.741 118.797 81.425 137.396 80.362"/>
    </g>
    <path class="cls-3" d="M379.37,56.991a5.912,5.912,0,0,0-3.469-2.95L315.832,34.348a5.9,5.9,0,0,0-1.132-.24l-5.255-1.726a6.155,6.155,0,0,0-1.882-.3,5.894,5.894,0,0,0-5.592,4.095S287.018,81.8,286.211,84.253c-2.148,6.552.882,9.069,3.806,10.032l18.6,6.093.142-.081,4.385,1.435,1.856.609,1.671-1.012a13.254,13.254,0,0,1,6.859-1.824c.455,0,.9.024,1.352.064,5.893,3.123,8.227,8.654,6.258,15.29-2.338,7.714-8.268,8.866-11.6,8.866a15.09,15.09,0,0,1-1.715-.11c-3.566-1.886-6.768-5.163-7.154-9.878l-.231-2.817-23.646-7.752-.015.122-6.36-2.085-.65,5.118a36.761,36.761,0,0,0,5.2,24.212,40.8,40.8,0,0,0,20.563,16.493,34.833,34.833,0,0,0,3.312,1.268l5.264,1.456a43.078,43.078,0,0,0,12.918,2.024h0A37.2,37.2,0,0,0,363.2,124.639l.032-.117c6.34-21.365-4.35-41.282-26.061-48.453l-.195-.062c-1.189-.373-2.39-.69-3.6-.96-.844-.33-1.7-.649-2.576-.939l-.206-.067a42.336,42.336,0,0,0-4.7-1.189l2.718-8.289c4.9,1.595,11.018,3.59,17.167,5.6l0,.008,4.563,1.5c5.13,1.68,6.868,3.768,8.1,5.607a5.917,5.917,0,0,0,1.36,1.409c2.019,2.289,7.953,3.605,9.612,3.605a4.8,4.8,0,0,0,4.808-3.234c.026-.075.168-.574.371-1.29.421-1.494,1.3-4.606,1.653-5.69l3.448-10.54A5.9,5.9,0,0,0,379.37,56.991Z"/>
    <path class="cls-4" d="M352.774,121.35c5.65-19.037-3.918-36.8-23.262-43.188l-.2-.064a36.993,36.993,0,0,0-16.189-1.4l6.41-19.553c.009-.02,19.2,6.242,32.135,10.464l-.006.012c6.035,1.981,8.558,4.675,10.3,7.262.417.618,1.49,1.125,1.841.041.082-.244,1.485-4.527,2.013-6.137l-.006,0,3.454-10.545a1.619,1.619,0,0,0-1.067-2.114l-60.07-19.693a1.625,1.625,0,0,0-2.114,1.07s-14.951,45.623-15.757,48.08-.992,3.974,1.082,4.655,16.743,5.49,16.743,5.49a18.461,18.461,0,0,1,15.038-1.514c9.782,3.231,15.186,11.436,12.091,21.879-3.139,10.363-12.654,13.849-22.105,10.862-6.836-2.164-12.46-7.5-13.064-14.835l-16.049-5.261a32.543,32.543,0,0,0,4.588,21.436,36.786,36.786,0,0,0,19.948,15.281l.4.128c9.573,3.025,19.344,2.323,27.517-1.984a33.532,33.532,0,0,0,16.3-20.276Z"/>
    <path class="cls-5" d="M172.128,73.191a.307.307,0,0,1,.116.075c.018.027-.019.013-.083-.028S172.081,73.177,172.128,73.191Z"/>
    <path class="cls-3" d="M157.6,60.283c-2.905.446-5.659.916-7.659,1.293-1.127.214-2.332.452-3.268.571,0,0,2.37,2.508,3.412,10.731s4.436,35.136,4.436,35.136,4.7-.881,10.557-1.853l-3.445-27.132,17.024,24.142a2.716,2.716,0,0,0,2.3,1.032s8.851-.655,9.241-.7l-5.67-44.79a1.483,1.483,0,0,0-1.629-1.3s-7.527.652-10.632,1.046c0,0,2.1,3,3.144,11.225.451,3.579,1.354,10.692,2.227,17.592l-3.7-5.322L160.164,61.376A2.374,2.374,0,0,0,157.6,60.283Z"/>
    <path class="cls-3" d="M261.844,60.4c-12.68-2.7-25.212,5.711-27.99,18.782s5.249,25.847,17.929,28.544S277,102.017,279.776,88.945,274.523,63.1,261.844,60.4Z"/>
    <path class="cls-3" d="M229.2,77.655l-1.271,24.695a1.471,1.471,0,0,1-1.511,1.416s-11.513-.583-13.466-.685c-12.357-.635-21.842-11.554-21.179-24.391s10.961-22.442,23.321-21.807l15.617.772L228.164,67.71l-11.91-.58c-6.946-.36-12.645,4.942-13.015,12.152a12.877,12.877,0,0,0,11.92,13.73l3.075.144.461-8.976-8.566-.429.439-8.539,17.273.879A1.47,1.47,0,0,1,229.2,77.655Z"/>
    <polygon class="cls-2" points="271.589 93.038 262.586 90.996 263.674 100.157 257.598 93.218 253.091 101.271 252.252 92.08 243.874 95.95 248.598 88.02 239.547 86.225 248.027 82.588 241.76 75.816 250.759 77.854 249.669 68.693 255.75 75.634 260.254 67.579 261.092 76.77 269.471 72.904 264.75 80.831 273.802 82.626 265.318 86.266 271.589 93.038"/>
    <path class="cls-3" d="M117.766,87.522a17.836,17.836,0,0,0,1.057-14c-3.116-9.232-13.155-14.182-23.42-10.716-5.835,1.968-20.136,6.793-27,9.11,0,0,3.711,2.9,7.251,13.382s15.121,44.8,15.121,44.8l27.332-9.224a17.4,17.4,0,0,0,10.593-22.2A17.793,17.793,0,0,0,117.766,87.522ZM88.657,78.215l8.514-2.876a6.426,6.426,0,0,1,4.11,12.177L92.768,90.39Zm20.834,32.216-8.942,3.015L96.46,101.327l9.712-3.279a6.423,6.423,0,0,1,3.319,12.383Z"/>
    <path class="cls-3" d="M148.983,109.061l-10.7-43.776a1.509,1.509,0,0,0-1.813-1.1L124.6,67.135s2.608,2.234,4.56,10.291,8.336,34.419,8.336,34.419,5.334-1.5,11.491-2.784"/>
    <g>
      <path class="cls-3" d="M145.9,146.222a2.215,2.215,0,0,1-.437-1.63v-3L156.1,140.8v-3.651l-10.637.9v-3.382H141.5v11.424c0,3.24,1.566,4.316,4.4,4.316H156.11V146.7H147.7A2.454,2.454,0,0,1,145.9,146.222Z"/>
      <rect class="cls-3" x="155.223" y="132.832" width="1.986" height="3.332"/>
      <rect class="cls-3" x="152.549" y="132.832" width="2.026" height="3.332"/>
      <path class="cls-3" d="M191.005,135.233H179.83v3.747h11.05v7.581H179.929v3.767h13.214c1.117,0,2.017-.4,2.017-1.893V136.892h-4.155Z"/>
      <path class="cls-3" d="M246.812,136.712,236.7,140.2v3.788l6.676-2.23v9.222h4.06V140.367l.23-.079c4.924-1.8,5.423-2.192,5.606-6.076H248.83C248.665,136.074,248.624,136.1,246.812,136.712Z"/>
      <polygon class="cls-3" points="168.068 136.422 160.496 135.372 160.496 139.094 168.068 140.149 168.068 136.422"/>
      <rect class="cls-3" x="194.333" y="132.945" width="1.988" height="3.333"/>
      <rect class="cls-3" x="191.66" y="132.945" width="2.026" height="3.333"/>
      <rect class="cls-3" x="270.93" y="133.2" width="1.99" height="3.333"/>
      <rect class="cls-3" x="268.259" y="133.2" width="2.027" height="3.333"/>
      <path class="cls-3" d="M199.513,138.389h11.578V140c0,4.214-2.918,6.682-6.939,6.682h-3.935v3.66h4.222c6.044,0,10.876-3.738,10.876-9.97v-5.638h-15.8Z"/>
      <path class="cls-3" d="M171.741,140c0,4.214-2.919,6.682-6.942,6.682h-3.931v3.66h4.221c6.043,0,10.876-3.738,10.876-9.97v-5.134h-4.224Z"/>
      <path class="cls-3" d="M267.6,134.729H256.278v3.66h11.575V140c0,4.214-2.918,6.682-6.941,6.682H256.98v3.66H261.2c6.041,0,10.872-3.738,10.872-9.97V137.1H267.6Z"/>
      <path class="cls-3" d="M219.33,139.621h10.315v.853c0,1.035-1.194,1.526-1.905,1.526h-3.205L223,145.746a2.318,2.318,0,0,1-2.253,1.616h-1.523v3.045h2.407a4.806,4.806,0,0,0,4.536-2.616l1.122-2.81h1.492a4.527,4.527,0,0,0,4.727-4.3v-4.162H219.33Z"/>
    </g>
  </g>
</svg>
