<?xml version="1.0" encoding="utf-8"?>
<!-- Generator: Adobe Illustrator 23.1.0, SVG Export Plug-In . SVG Version: 6.00 Build 0)  -->
<svg version="1.1" xmlns="http://www.w3.org/2000/svg" xmlns:xlink="http://www.w3.org/1999/xlink" x="0px" y="0px"
	 viewBox="0 0 320 160" style="enable-background:new 0 0 320 160;" xml:space="preserve">
<style type="text/css">
	.st0{display:none;}
	.st1{display:inline;}
	.st2{fill:#CCCCCC;}
	.st3{fill:#004097;}
	.st4{fill:#F29600;}
	.st5{fill:#E62E8B;}
	.st6{fill:none;}
	.st7{fill:#004098;}
	.st8{fill:#F39800;}
</style>
<g id="レイヤー_1" class="st0">
	<title>logo-numbers3-001</title>
	<g class="st1">
		<g>
			<path class="st2" d="M250.756,71.945h10.054c2.468-4.893,3.631-9.1,2.632-13.126c-1.315-5.3-12.216-8.967-21.423-2.849
				c-10.558,7.007-5.951,20.473-3.466,24.123c2.722,3.992,7.266,8.5,4.285,14.855c-0.545,1.427-1.421,2.704-2.556,3.727
				c-2.324,1.657-7.457,1.588-5.025-4.239c2.249-5.387,2.306-6.031,2.306-6.031H227.51c-2.15,4.815-7.008,15.164,0.9,18.424
				s18.02,1.574,21.513-3.1c3.052-4.075,7.337-12.553,2.146-21.027s-9.066-12.39-4.122-19.235
				C250.009,61.266,256.936,61.1,250.756,71.945z"/>
			<path class="st2" d="M45.109,76.351l-0.173,0.143l-10.573,29.9h-9.454L45.52,52.742h10.246l-3.812,29.97h0.17l10.552-29.97h9.408
				l-20.606,53.651H41.33L45.109,76.351z"/>
			<path class="st2" d="M77.093,52.645h9.892l-15.539,40.44c-1.2,3.475-1.336,5.12,1.521,5.185c3.545,0.079,4.667-3.26,5.543-5.55
				L93.9,52.645h9.887l-14.9,38.793c-3.49,9.079-6.271,16.293-19.561,16.086c-8.148-0.125-11.371-5.082-7.148-16.086L77.093,52.645z
				"/>
			<path class="st2" d="M88.082,106.778l20.608-53.644h13.982l-7.056,31.681h0.114l17.458-31.681h13.9l-20.608,53.644h-9.5
				l17.169-42.049h-0.113L110.9,106.778h-7.375l9.34-42.049h-0.113l-15.245,42.049H88.082z"/>
			<path class="st2" d="M146.243,106.746c14.314,0.011,16.225-8.749,18.291-14.591c2.231-6.274,3.385-10.595-0.643-13.712
				l0.056-0.149c6.446-3.417,7.6-6.031,9.408-10.751c4.156-10.808-0.873-14.42-8.385-14.42h-12.853L131.5,106.785L146.243,106.746z
				 M159.1,61.35c3.531,0,6.72-0.771,3.879,6.764c-2.8,7.415-4.571,5.8-9.083,6.161L159.1,61.35z M150.476,84.042
				c3.523,0,7.107-0.557,4.263,6.975c-2.808,7.415-2.887,7.332-9.972,7.332L150.476,84.042z"/>
			<path class="st2" d="M162.658,106.945l20.857-53.962h22.692l-3.134,8.567h-12.8l-5.252,13.384h12.408l-3.3,8.437h-12.41
				L176.1,98.546h13.482l-3.549,8.4L162.658,106.945z"/>
			<path class="st2" d="M208.624,85.805h3.281c2.245,0.21,2.212,2.354,1.233,5.639s-2.9,7.71-4.546,12.425
				c-0.319,0.999-0.525,2.031-0.617,3.076h11.408l-0.3-0.721c-0.25-0.584-0.337-1.224-0.252-1.853
				c0.76-3.424,4.239-12.641,5.607-16.923c1.255-3.719,0.216-6.15-2.247-6.939l0.057-0.144c5.107-2.427,7.749-6.515,9.954-12.257
				c4.1-10.678,1.633-14.822-6.5-14.822h-14.483l-20.611,53.659h9.892L208.624,85.805z"/>
		</g>
		<g>
			<path class="st3" d="M41.668,73.467l-0.165,0.145l-10.578,29.894h-9.46l20.611-53.643h10.248L48.507,79.83h0.173l10.552-29.967
				h9.41l-20.608,53.643H37.886L41.668,73.467z"/>
			<path class="st3" d="M73.644,49.763h9.891L68,90.2c-1.2,3.47-1.338,5.117,1.528,5.188c3.541,0.075,4.658-3.261,5.531-5.551
				l15.399-40.074h9.887L85.452,88.556c-3.49,9.076-6.28,16.292-19.565,16.083c-8.145-0.126-11.373-5.077-7.145-16.083
				L73.644,49.763z"/>
			<path class="st3" d="M84.638,103.9l20.608-53.65h13.979l-7.053,31.686h0.116l17.464-31.686h13.9l-20.615,53.65h-9.505
				L130.7,61.847h-0.11L107.449,103.9h-7.366l9.334-42.051h-0.108L94.062,103.9H84.638z"/>
			<path class="st3" d="M155.656,58.468c3.531,0,6.718-0.768,3.874,6.761c-2.8,7.415-4.571,5.8-9.086,6.156L155.656,58.468z
				 M147.022,81.155c3.524,0,7.106-0.554,4.266,6.98c-2.8,7.413-2.885,7.329-9.971,7.329L147.022,81.155z M142.796,103.855
				c14.182,0.735,16.229-8.74,18.3-14.59c2.225-6.27,3.38-10.589-0.648-13.712l0.062-0.14c6.436-3.423,7.594-6.035,9.405-10.754
				c4.149-10.806-0.87-14.426-8.386-14.426h-12.853l-20.616,53.676L142.796,103.855z"/>
			<path class="st3" d="M159.216,104.06l20.854-53.953h22.692l-3.136,8.561h-12.8l-5.242,13.384h12.406l-3.3,8.435h-12.417
				l-5.624,15.174h13.483l-3.55,8.4L159.216,104.06z"/>
			<path class="st3" d="M205.179,82.923h3.283c2.24,0.213,2.211,2.355,1.238,5.642s-2.911,7.71-4.553,12.425
				c-0.319,0.997-0.525,2.027-0.613,3.07h11.407l-0.3-0.71c-0.251-0.586-0.337-1.229-0.248-1.86c0.748-3.428,4.23-12.641,5.6-16.926
				c1.263-3.72,0.221-6.15-2.241-6.932l0.053-0.148c5.11-2.433,7.746-6.518,9.957-12.255c4.1-10.681,1.63-14.828-6.5-14.828h-14.484
				l-20.614,53.659h9.9L205.179,82.923z"/>
			<path class="st3" d="M247.309,69.063h10.057c2.468-4.888,3.634-9.105,2.634-13.125c-1.316-5.3-12.217-8.973-21.424-2.856
				c-10.552,7.014-5.954,20.477-3.469,24.126c2.722,4,7.275,8.5,4.282,14.855c-0.539,1.428-1.412,2.707-2.547,3.728
				c-2.329,1.652-7.461,1.592-5.03-4.236c2.248-5.388,2.311-6.032,2.311-6.032h-10.058c-2.141,4.81-7,15.162,0.9,18.419
				s18.018,1.581,21.517-3.095c3.046-4.072,7.334-12.553,2.141-21.025s-9.062-12.392-4.12-19.237
				C246.563,58.382,253.492,58.219,247.309,69.063z"/>
		</g>
		<polygon class="st4" points="20.322,101.355 207.713,66.838 191.379,86.383 211.559,68.765 211.884,78.051 215.406,69.081 
			225.017,80.936 219.248,67.8 228.215,71.966 221.17,64.597 260.89,55.31 260.65,53.948 221.17,59.79 228.859,50.18 
			217.645,58.511 217.645,46.973 213.484,58.511 204.833,47.298 210.281,60.117 187.859,48.263 208.039,62.993 20,99.833 		"/>
		<path class="st2" d="M258,73.377L258,73.377c3.684-11.527,9.137-22.176,27.877-21.833c8.648,0.16,16.491,5.764,13.452,15.7
			s-8.166,16.651-15.383,17.94c5.445,1.119,8.652,7.839,3.367,19.218s-12.331,19.535-28.829,18.094S243.92,106.8,247.6,99.111
			h14.417c-2.247,5.128-4.009,15.621,5.6,10.73c3.044-1.92,5.6-8.008,6.407-11.849s-0.479-6.724-4.323-6.724h-6.41l4.648-11.376
			c12.889,2.087,18.58-9.851,17.139-14.73c-0.245-2.728-7.369-4.731-12.5,8.215H258z"/>
		<path class="st5" d="M254.33,70.1L254.33,70.1c3.674-11.53,9.126-22.181,27.863-21.832c8.649,0.154,16.494,5.763,13.455,15.7
			s-8.167,16.652-15.379,17.934c5.444,1.119,8.65,7.85,3.366,19.221s-12.334,19.54-28.834,18.1s-14.572-15.7-10.881-23.384h14.411
			c-2.241,5.129-4,15.614,5.6,10.729c3.047-1.919,5.61-8.006,6.407-11.849s-0.481-6.725-4.325-6.725h-6.407l4.65-11.373
			c12.892,2.081,18.572-9.852,17.134-14.739c-0.238-2.717-7.367-4.721-12.49,8.223L254.33,70.1z"/>
	</g>
</g>
<g id="レイヤー_2">
</g>
<g id="レイヤー_3">
	<rect x="0.06" y="-0.02" class="st6" width="320" height="160"/>
	<g>
		<g>
			<path class="st2" d="M250.862,72.001h10.057c2.472-4.893,3.632-9.109,2.633-13.131c-1.321-5.3-12.225-8.974-21.444-2.853
				c-10.565,7.01-5.952,20.487-3.471,24.136c2.726,3.996,7.272,8.508,4.292,14.866c-0.804,1.71-1.617,3.065-2.557,3.733
				c-2.328,1.659-7.467,1.592-5.029-4.241c2.252-5.393,2.311-6.036,2.311-6.036h-10.058c-2.15,4.817-7.01,15.171,0.906,18.439
				c7.924,3.259,18.032,1.575,21.529-3.107c3.056-4.081,7.34-12.563,2.15-21.046c-5.207-8.483-9.075-12.403-4.123-19.251
				C250.117,61.317,257.042,61.156,250.862,72.001z"/>
			<path class="st2" d="M45.064,76.412l-0.169,0.144l-10.582,29.918h-9.465l20.623-53.691h10.252l-3.818,29.995h0.169l10.557-29.995
				h9.414l-20.623,53.691H41.263L45.064,76.412z"/>
			<path class="st2" d="M77.074,52.69h9.897L71.419,93.157c-1.194,3.479-1.338,5.122,1.524,5.19
				c3.547,0.076,4.673-3.259,5.545-5.554L93.896,52.69h9.897L88.884,91.515c-3.496,9.084-6.273,16.305-19.573,16.094
				c-8.153-0.127-11.378-5.088-7.154-16.094L77.074,52.69z"/>
			<path class="st2" d="M88.071,106.864l20.623-53.682h13.994l-7.061,31.705h0.11l17.474-31.705h13.909l-20.623,53.682h-9.516
				l17.186-42.076h-0.11l-23.146,42.076h-7.382l9.346-42.076h-0.11l-15.256,42.076H88.071z"/>
			<path class="st2" d="M146.274,106.83c14.324,0.008,16.238-8.754,18.303-14.604c2.235-6.282,3.386-10.599-0.643-13.723
				l0.059-0.152c6.451-3.42,7.602-6.036,9.414-10.76c4.157-10.819-0.872-14.434-8.39-14.434h-12.86l-20.631,53.699L146.274,106.83z
				 M159.134,61.402c3.53,0,6.722-0.77,3.886,6.773c-2.802,7.425-4.572,5.799-9.092,6.163L159.134,61.402z M150.499,84.116
				c3.522,0,7.111-0.559,4.267,6.976c-2.811,7.425-2.887,7.34-9.981,7.34L150.499,84.116z"/>
			<path class="st2" d="M162.698,107.033l20.868-54.004h22.706l-3.132,8.576h-12.809l-5.257,13.393h12.419l-3.302,8.441h-12.419
				l-5.63,15.188h13.495l-3.556,8.407L162.698,107.033L162.698,107.033z"/>
			<path class="st2" d="M208.702,85.877h3.285c2.243,0.212,2.21,2.354,1.236,5.647c-0.974,3.293-2.904,7.712-4.555,12.436
				c-0.356,1.075-0.508,2.074-0.618,3.082h11.42l-0.305-0.72c-0.262-0.491-0.296-1.143-0.254-1.854
				c0.762-3.429,4.241-12.648,5.613-16.932c1.253-3.725,0.22-6.155-2.252-6.942l0.059-0.144c5.113-2.43,7.755-6.519,9.964-12.267
				c4.097-10.684,1.634-14.832-6.502-14.832h-14.494l-20.623,53.699h9.897L208.702,85.877z"/>
		</g>
		<g>
			<path class="st7" d="M41.619,73.525l-0.161,0.144l-10.582,29.918h-9.473l20.623-53.682h10.252l-3.818,29.986h0.169l10.557-29.986
				H68.6l-20.623,53.682H37.818L41.619,73.525z"/>
			<path class="st7" d="M73.62,49.803h9.897L67.973,90.27c-1.202,3.471-1.338,5.122,1.532,5.19c3.547,0.076,4.665-3.259,5.537-5.554
				L90.45,49.803h9.897l-14.9,38.825c-3.496,9.084-6.282,16.305-19.582,16.094c-8.153-0.127-11.378-5.08-7.154-16.094L73.62,49.803z
				"/>
			<path class="st7" d="M84.617,103.985l20.623-53.691h13.994l-7.061,31.713h0.119l17.474-31.713h13.909l-20.623,53.691h-9.516
				l17.177-42.084h-0.11l-23.154,42.084h-7.374l9.338-42.084h-0.11l-15.256,42.084H84.617z"/>
			<path class="st7" d="M155.688,58.515c3.53,0,6.722-0.77,3.877,6.764c-2.802,7.425-4.572,5.799-9.092,6.163L155.688,58.515z
				 M147.053,81.22c3.53,0,7.111-0.559,4.267,6.984c-2.802,7.416-2.887,7.331-9.981,7.331L147.053,81.22z M142.82,103.943
				c14.189,0.737,16.238-8.745,18.312-14.604c2.227-6.273,3.378-10.599-0.652-13.723l0.059-0.144
				c6.443-3.429,7.602-6.036,9.414-10.76c4.157-10.811-0.872-14.434-8.39-14.434h-12.86l-20.631,53.716L142.82,103.943z"/>
			<path class="st7" d="M159.253,104.146l20.868-53.995h22.706l-3.141,8.567h-12.809l-5.249,13.393h12.411l-3.31,8.44h-12.403
				l-5.63,15.188h13.495l-3.556,8.407H159.253z"/>
			<path class="st7" d="M205.248,82.99h3.285c2.243,0.212,2.21,2.354,1.236,5.647c-0.982,3.285-2.912,7.712-4.555,12.436
				c-0.356,1.075-0.516,2.074-0.618,3.073h11.42l-0.305-0.711c-0.262-0.499-0.296-1.151-0.246-1.862
				c0.753-3.429,4.233-12.648,5.604-16.94c1.261-3.725,0.22-6.155-2.243-6.934l0.051-0.152c5.113-2.438,7.755-6.519,9.964-12.267
				c4.098-10.692,1.634-14.841-6.51-14.841h-14.494l-20.631,53.699h9.914L205.248,82.99z"/>
			<path class="st7" d="M247.408,69.123h10.066c2.472-4.893,3.64-9.109,2.633-13.131c-1.321-5.3-12.225-8.982-21.444-2.853
				c-10.557,7.018-5.96,20.487-3.471,24.145c2.726,3.996,7.281,8.508,4.284,14.866c-0.796,1.71-1.609,3.065-2.548,3.733
				c-2.328,1.651-7.467,1.592-5.037-4.241c2.252-5.393,2.311-6.036,2.311-6.036h-10.066c-2.142,4.817-7.01,15.171,0.906,18.43
				c7.924,3.268,18.032,1.583,21.529-3.099c3.048-4.072,7.34-12.563,2.142-21.038c-5.198-8.483-9.067-12.403-4.123-19.251
				C246.663,58.43,253.596,58.269,247.408,69.123z"/>
		</g>
		<polygon class="st8" points="20.259,101.437 207.787,66.896 191.44,86.452 211.639,68.826 211.961,78.113 215.483,69.14 225.1,81 
			219.327,67.861 228.3,72.026 221.257,64.653 261.004,55.357 260.759,53.994 221.257,59.844 228.944,50.227 217.726,58.566 
			217.726,47.018 213.561,58.566 204.901,47.34 210.353,60.166 187.918,48.305 208.109,63.044 19.938,99.913 		"/>
		<g>
			<path class="st7" d="M93.726,121.772l0.652-2.1c2.912,0.051,4.775-0.711,6.112-3.014c0.364-0.626,0.923-2.108,0.923-2.108h-5.952
				l0.72-2.04h5.977l0.88-2.345h2.379l-0.796,2.345h2.904l-0.703,1.973h-3.031C103.098,117.048,101.38,122.085,93.726,121.772z"/>
			<polygon class="st7" points="108.466,112.934 109.168,111.063 113.435,111.063 112.817,112.934 			"/>
			<path class="st7" d="M105.469,121.73l0.855-2.1c3.158,0.229,7.602-0.601,9.482-6.392h2.243
				C117.025,117.615,113.765,122.288,105.469,121.73z"/>
			<path class="st7" d="M122.197,110.732h2.176c-0.466,3.192-3.099,10.311-8.44,11.167l0.889-2.574
				C119.404,118.369,121.249,114.711,122.197,110.732z"/>
			<path class="st7" d="M126.583,110.732h2.142c-0.703,1.871-1.939,6.493,0.229,8.821l-0.982,2.37
				C125.821,120.519,124.635,116.015,126.583,110.732z"/>
			<polygon class="st7" points="129.986,113.23 130.824,110.783 129.58,110.783 128.733,113.23 			"/>
			<polygon class="st7" points="132.009,113.23 132.847,110.783 131.594,110.783 130.748,113.23 			"/>
			<polygon class="st7" points="149.339,113.23 150.194,110.783 148.941,110.783 148.086,113.23 			"/>
			<polygon class="st7" points="151.354,113.23 152.209,110.783 150.956,110.783 150.109,113.23 			"/>
			<polygon class="st7" points="138.249,117.023 138.968,114.974 130.79,114.974 130.079,117.023 			"/>
			<polygon class="st7" points="187.859,117.183 188.578,115.135 180.409,115.135 179.689,117.183 			"/>
			<path class="st7" d="M139.4,112.756l0.686-1.964h7.941c-0.728,2.963-2.997,6.451-3.327,6.654
				c0.068,0.982,2.574,2.633,2.574,2.633l-0.821,2.21c-1.253-0.457-3.192-2.929-3.259-3.192c-2.074,1.871-4.716,2.76-7.712,2.861
				l0.821-2.303c4.224-0.491,6.849-2.557,8.635-6.9H139.4z"/>
			<path class="st7" d="M160.023,112.756l0.686-1.964h7.941c-0.72,2.963-2.997,6.451-3.319,6.654
				c0.068,0.982,2.565,2.633,2.565,2.633l-0.821,2.21c-1.253-0.457-3.192-2.929-3.259-3.192c-2.074,1.871-4.715,2.76-7.712,2.861
				l0.821-2.303c4.224-0.491,6.857-2.557,8.635-6.9H160.023z"/>
		</g>
		<path class="st2" d="M258.117,73.44L258.117,73.44c3.691-11.539,9.143-22.189,27.895-21.85c8.652,0.161,16.5,5.765,13.461,15.713
			c-3.048,9.939-8.17,16.661-15.391,17.956c5.452,1.118,8.661,7.848,3.369,19.235c-5.291,11.378-12.343,19.548-28.852,18.109
			c-16.508-1.439-14.578-15.704-10.904-23.4h14.426c-2.252,5.13-4.013,15.628,5.604,10.735c3.048-1.922,5.604-8.017,6.409-11.861
			c0.796-3.844-0.483-6.73-4.326-6.73c-3.844,0-6.417,0-6.417,0l4.648-11.387c12.902,2.091,18.591-9.854,17.152-14.739
			c-0.246-2.726-7.374-4.732-12.504,8.22L258.117,73.44L258.117,73.44z"/>
		<path class="st5" d="M254.435,70.155L254.435,70.155c3.674-11.539,9.135-22.198,27.887-21.85
			c8.652,0.152,16.509,5.765,13.461,15.704c-3.048,9.93-8.17,16.661-15.391,17.948c5.452,1.118,8.661,7.856,3.369,19.235
			c-5.291,11.378-12.343,19.556-28.852,18.109c-16.5-1.439-14.578-15.704-10.887-23.4h14.426c-2.243,5.13-4.004,15.628,5.604,10.735
			c3.048-1.922,5.613-8.017,6.409-11.861c0.804-3.852-0.483-6.73-4.326-6.73s-6.409,0-6.409,0l4.656-11.378
			c12.902,2.083,18.583-9.854,17.143-14.748c-0.237-2.718-7.374-4.724-12.496,8.229L254.435,70.155L254.435,70.155z"/>
		<polygon class="st7" points="171.892,110.893 174.127,110.893 172.044,115.863 169.801,115.863 		"/>
		<path class="st7" d="M177.971,110.97h2.413c-1.609,6.172-3.776,11.624-11.463,11.302l0.635-2.328
			C173.975,119.867,176.371,118.343,177.971,110.97z"/>
	</g>
</g>
</svg>
