<svg id="レイヤー_1" data-name="レイヤー 1" xmlns="http://www.w3.org/2000/svg" viewBox="0 0 400 184">
  <defs>
    <style>
      .cls-1 {
        fill: #2c4197;
      }

      .cls-2 {
        fill: #f29600;
      }

      .cls-3 {
        fill: #fff;
      }

      .cls-4 {
        fill: #e50012;
      }
    </style>
  </defs>
  <title>MINI LOTO</title>
  <g>
    <path class="cls-1" d="M170.213,149.637,144.269,148.5v-5.68l25.944,1.118v5.7Zm-1.233,9.217-23.9-1.125v-5.492l23.9,1.113v5.5Zm-25.157,2.62,27.015,2.111V169.3l-27.015-2.151v-5.676Z"/>
    <path class="cls-1" d="M200.821,150.09h-25.37v-6h25.37v6Zm1,18.3H174.468V162.32h27.351v6.072Z"/>
    <path class="cls-1" d="M232.456,169.057H205.7V142.992h26.76v26.065ZM226.407,148.8h-14.67v14.461h14.67V148.8Z"/>
    <polygon class="cls-1" points="237.616 169.382 237.616 142.214 243.776 142.214 243.776 150.635 262.837 151.469 262.837 157.451 243.808 156.619 243.808 169.382 237.616 169.382 237.616 169.382"/>
    <polygon class="cls-2" points="40 143.353 40.04 18.665 205.392 46.249 205.465 117.295 40 143.353 40 143.353"/>
    <polygon class="cls-3" points="190.471 118.529 190.331 102.909 201.828 101.688 195.172 87.91 205.88 81.905 195.058 75.997 201.895 61.944 190.147 65.923 190.283 45.589 181.538 60.986 172.16 42.96 171.932 63.87 154.066 55.074 165.33 74.651 146.018 81.661 165.306 88.944 154.216 108.528 171.886 99.986 172.239 120.833 181.582 102.928 190.471 118.529 190.471 118.529"/>
    <polygon class="cls-1" points="63.98 107.613 63.98 66.655 64.083 66.661 70.956 107.074 78.135 106.513 84.798 67.602 84.89 67.608 84.89 105.973 91.646 105.438 91.646 56.791 80.704 55.883 74.832 90.338 74.735 90.338 69.001 54.925 56.014 53.87 56.014 108.235 63.98 107.613 63.98 107.613"/>
    <polygon class="cls-1" points="106.095 104.484 106.095 57.794 99.654 57.257 99.654 104.995 106.095 104.484 106.095 104.484"/>
    <polygon class="cls-1" points="118.239 103.601 118.239 70.762 118.317 70.775 125.812 102.98 132.995 102.394 132.995 59.91 127.96 59.496 127.96 89.487 127.883 89.497 120.683 58.899 112.657 58.241 112.657 104.058 118.239 103.601 118.239 103.601"/>
    <polygon class="cls-1" points="143.482 101.608 143.482 60.702 138.421 60.286 138.421 102.023 143.482 101.608 143.482 101.608"/>
    <path class="cls-4" d="M243.724,64.869A34.815,34.815,0,0,0,238.8,53.422a18.4,18.4,0,0,0-7.419-6.44A15.844,15.844,0,0,0,222.4,45.82a17.917,17.917,0,0,0-8.4,3.693,26.135,26.135,0,0,0-6.484,7.612,39.6,39.6,0,0,0-4.191,10.75,58.436,58.436,0,0,0-1.5,13.513A61.273,61.273,0,0,0,203.217,94.8a39.95,39.95,0,0,0,3.946,10.684,24.734,24.734,0,0,0,6.252,7.564,16.968,16.968,0,0,0,8.341,3.605,15.532,15.532,0,0,0,8.889-1.4,20.34,20.34,0,0,0,7.616-6.638,35.557,35.557,0,0,0,5.267-11.6,61.673,61.673,0,0,0,1.963-16.077,67.117,67.117,0,0,0-1.767-16.063Zm-12.9,23.51c-.067,1.293-.176,2.516-.32,3.628a33.685,33.685,0,0,1-.636,3.382,19.645,19.645,0,0,1-1.007,2.983,15.883,15.883,0,0,1-1.426,2.634,9.3,9.3,0,0,1-1.586,1.834,5.5,5.5,0,0,1-1.61.99,3.659,3.659,0,0,1-1.586.216,3.53,3.53,0,0,1-1.623-.628,7.359,7.359,0,0,1-1.678-1.663,13.869,13.869,0,0,1-1.543-2.532,21.041,21.041,0,0,1-1.226-3.135c-.348-1.139-.672-2.465-.969-3.928-.3-1.418-.544-2.936-.761-4.5s-.368-3.095-.485-4.61c-.116-1.538-.172-2.986-.172-4.325a51.652,51.652,0,0,1,.5-7.178,35.361,35.361,0,0,1,1.537-6.481,14.374,14.374,0,0,1,2.525-4.634,4.974,4.974,0,0,1,3.264-1.854,4.069,4.069,0,0,1,3.669,1.767,17.481,17.481,0,0,1,2.97,6.187,53.989,53.989,0,0,1,1.715,8.877,80.347,80.347,0,0,1,.536,9.24c0,1.348-.033,2.573-.085,3.727Z"/>
    <path class="cls-4" d="M356.758,56.492a43.612,43.612,0,0,0-8.86-16.2,29.111,29.111,0,0,0-12.872-8.452,32.165,32.165,0,0,0-15.106-.9,35.326,35.326,0,0,0-13.945,5.587,41.032,41.032,0,0,0-10.823,10.751,50.04,50.04,0,0,0-7,14.872,66.413,66.413,0,0,0-2.516,18.54,69.707,69.707,0,0,0,2.331,18.379,50.237,50.237,0,0,0,6.594,14.751,38.322,38.322,0,0,0,10.435,10.6,33.069,33.069,0,0,0,13.8,5.357,31.275,31.275,0,0,0,14.915-1.317,32.451,32.451,0,0,0,13.231-8.813,45.7,45.7,0,0,0,9.478-16.46A72.348,72.348,0,0,0,360,79.827a77.92,77.92,0,0,0-3.242-23.335ZM335.671,90.558a51.219,51.219,0,0,1-.58,5.184,32.864,32.864,0,0,1-1.142,4.834,23.122,23.122,0,0,1-1.77,4.259,21.738,21.738,0,0,1-2.58,3.761,14.929,14.929,0,0,1-2.944,2.656,10.8,10.8,0,0,1-3.161,1.479,9.032,9.032,0,0,1-3.313.282,8.388,8.388,0,0,1-3.414-1.152,12.988,12.988,0,0,1-3.148-2.576,21.648,21.648,0,0,1-2.736-3.693,30.061,30.061,0,0,1-2.135-4.455,54.681,54.681,0,0,1-1.663-5.508c-.5-1.976-.929-4.089-1.285-6.265-.364-2.159-.648-4.31-.841-6.415-.185-2.128-.3-4.14-.3-5.987a56.693,56.693,0,0,1,.866-9.993,40.258,40.258,0,0,1,2.635-9.1,20.214,20.214,0,0,1,4.467-6.75,11.108,11.108,0,0,1,6.425-3.11,8.978,8.978,0,0,1,7.431,2.559,23.1,23.1,0,0,1,5.332,8.794,61.786,61.786,0,0,1,3.06,12.654,91.7,91.7,0,0,1,.95,13.2c0,1.934-.057,3.673-.157,5.339Z"/>
    <path class="cls-4" d="M177.34,53.676l17.153-2.561c-2.211,1.832-3.645,4.648-3.645,10.345v38.677c2.992.824,7.086,1.566,11.3-3.223l-.2,15.62-24.5-2.616c1.653-1.513,2.878-4.045,2.878-8.6V61.607c0-4.217-1.33-6.637-2.992-7.931Z"/>
    <path class="cls-4" d="M288.122,37.422l-40.243,6.6-2.356,21.791c3.237-5.1,6.454-8.389,11.729-8.469v50.179c0,4.493-1.181,8.489-4.1,10.739l24.32,3.148c-2.5-4.141-4.55-8.735-4.55-13.739V55.7c7.034-1.691,9.265,3.395,11.653,8.252l3.549-26.533Z"/>
  </g>
</svg>
