<svg xmlns="http://www.w3.org/2000/svg" viewBox="0 0 464 260"><defs><style>.cls-1{fill:none;}.cls-2{fill:#d73282;}.cls-10,.cls-3{fill:#fff;}.cls-4{fill:#bebebe;}.cls-5{fill:#1e286e;}.cls-6{fill:#facf00;}.cls-7,.cls-9{fill:#231914;}.cls-10,.cls-7{fill-rule:evenodd;}.cls-8{fill:#fabe00;}</style></defs><title>logo-kisekae-qoochan-001</title><g id="レイヤー_2" data-name="レイヤー 2"><g id="レイヤー_2-2" data-name="レイヤー 2"><rect class="cls-1" width="464" height="260"/><path class="cls-2" d="M160.68,138.6,148.52,93.17l10.89-.74,6-23.67-40-5.39c-3.28,4.12-9,7.29-16.91,9.41s-14,2.43-19.33.31L57.24,97.71l17.11,17.54,9.72-4.75,12.16,45.43Z"/><path class="cls-3" d="M123.91,105.53v-2.22H141V99.19H123.91V97.08H141V92.43h-8.56l3-4.44h-7.08l-3,4.44h-9.94l-3-4.44h-7.08l3,4.44H99.82v4.65H116.3v2.11H99.82v4.12H116.3v2.22H97.6v4.65h4.22v7.5c0,5.18-3.38,6.23-6.23,6.23V131c7.93,0,13.31-5.39,13.31-13.31v-7.5h34v-4.65Z"/><path class="cls-4" d="M365.54,196.39l-2,1.17c-1.26.84-2.85,1.69-4.64,2.74a55.67,55.67,0,0,1-5.08,2.64,7.81,7.81,0,0,1-3.91,1c-1.16-.22-1.69-1.17-1.58-3s1.16-6.24,1.58-8.56a45.27,45.27,0,0,0,.74-7.29,5.88,5.88,0,0,0-3.69-5.5,11.87,11.87,0,0,0-7.61-1.05,15.54,15.54,0,0,0-4.12,1.16s13.84-23.67,16.16-27.89l-15.11-2.22-32.33,60.86,13.74,1.37c.84-1.8,1.9-3.7,3-5.71,1.79-3.38,6.87-11.83,7.6-13.1a10.53,10.53,0,0,1,3.07-3.06,8.1,8.1,0,0,1,3.91-1.48c2.22-.21,3.38.42,3.38,1.9a36.27,36.27,0,0,1-.85,5.5c-.84,5-1.16,10.56,0,13.31s3.91,4.33,8.25,5a16.05,16.05,0,0,0,6-.42,22.59,22.59,0,0,0,5.17-1.9c1.59-.74,11.31-6.23,13.11-7.5Z"/><path class="cls-4" d="M235,164.59l2.64-7-11.41-3.07-2.53,7-9.94-2.64-2.64,9.93,9.09,2.43-5.39,15.32c5.28.74,12.79,1.9,17,3,4.76.95,8.67,2.74,8.35,7.39-.32,5-6.45,6.76-15.32,4.12A111.07,111.07,0,0,1,211,195.76l-2.64,10.14c17.64,8.35,36.34,10.67,41.94-3.48,4.44-11.41-3-20.18-21.13-22.51l2.11-5.7,1.59.42,23.24,6.13,2.64-9.93-19.54-5.18Z"/><polygon class="cls-4" points="61.04 137.12 33.57 171.25 49 176.85 67.59 153.92 83.33 159.52 46.88 208.76 63.79 214.04 109.22 153.29 61.04 137.12"/><polygon class="cls-4" points="194.8 191.11 209.06 189.42 196.28 182.98 209.06 176.53 194.8 174.95 204.63 164.49 190.68 167.87 196.39 154.66 184.45 162.58 185.29 148.22 176.74 159.73 172.61 146 168.49 159.73 159.94 148.22 160.78 162.58 148.84 154.66 154.55 167.87 140.6 164.49 150.43 174.95 150.85 175.37 101.93 175.37 91.36 189.42 152.01 189.42 150.43 191.11 140.6 201.47 154.55 198.19 148.84 211.4 160.78 203.47 159.94 217.74 168.49 206.22 172.61 219.96 176.74 206.22 185.29 217.74 184.45 203.47 196.39 211.4 190.68 198.19 204.63 201.47 194.8 191.11"/><path class="cls-4" d="M288.94,190.16l3,8.77c4.54-1.06,11-3.28,14.37-8.35a14.42,14.42,0,0,0,1.79-12.89c-2.21-6.65-7.81-9.72-14.79-9l-2.43-6-11.09,1.9,3.06,7.5c-1.16.43-2.32.95-3.59,1.48l-3.38-8.34-11.09,1.9,4.33,10.56c-3.17,1.27-6.24,2.54-8.35,3.38l3.49,8.46c2.74-1.17,5.6-2.33,8.34-3.38L283,211.82h11.84L282.81,182c5.29-2.12,9.2-3.6,10-3.91,0,0,4.65-2,6.45,2.11a5.32,5.32,0,0,1-.32,5.18C296.87,188.05,292.22,189.53,288.94,190.16Z"/><path class="cls-5" d="M309,81.44H166.17l-3.06,12-.74,2.74-2.86.21-6.13.43,11,40.89.85,3.27H308.91c18.28,0,33.18-13.42,33.18-29.79s-14.9-29.8-33.07-29.8"/><rect class="cls-3" x="292.01" y="91.06" width="15.85" height="5.92"/><path class="cls-3" d="M315.78,125.29c-1.59,0-2.33-1.38-2.33-2.85v-4.23c0-3.38-3-4-4.54-4.12L314,110.6a3.32,3.32,0,0,0,1.48-2.75v-6.76a1.79,1.79,0,0,0-2-2H283.13v6.76h25.78l-.21.21-26.52,18.59V133l19.76-13.84a11.83,11.83,0,0,1,1.16-.53,3,3,0,0,1,3.7,2.85v3.07a8,8,0,0,0,7.82,7.61h8.13v-6.77h-7Z"/><path class="cls-3" d="M194.8,112.08h-5.07v6.76h5.6c5.71,0,9.72-4.22,9.72-10.35v-2.85h8.45V98.87h-8.45V90.74h-6.76v8.13H182.55V90.74h-6.77v8.13H168.7v6.77h7.08v15.1c0,6.45,4.12,10.36,10.89,10.36h21.76v-6.76H187.51a4.71,4.71,0,0,1-5-4.76V105.64h15.74v2.85a3.35,3.35,0,0,1-3.49,3.59"/><path class="cls-3" d="M247.42,99.61H245.2c1.06-3.8,1.9-7.18,2.54-9.82h-7c-.63,2.74-1.58,6.13-2.64,9.82H227.34v6.77h8.77a172.65,172.65,0,0,1-10.88,25.67h7.71a157.87,157.87,0,0,0,10.25-25.67h4.23c2.43,0,2.85,1.9,2.85,3.59V121.7c0,1.58-.53,3.59-2.85,3.59h-6.24v6.76h6.24c5.7,0,9.61-4.23,9.61-10.35V110c.11-6.13-3.91-10.36-9.61-10.36"/><path class="cls-3" d="M263.48,95.49h-7.4a120.61,120.61,0,0,1,7.19,23.25h6.86a123.61,123.61,0,0,0-6.65-23.25"/><path class="cls-5" d="M363.43,192.17l-2,1.16c-1.27.85-2.85,1.69-4.65,2.75s-3.48,1.9-5.07,2.64a7.68,7.68,0,0,1-3.91.95c-1.16-.21-1.69-1.16-1.58-3s1.16-6.23,1.58-8.56a46.31,46.31,0,0,0,.74-7.29,5.87,5.87,0,0,0-3.7-5.49,11.85,11.85,0,0,0-7.6-1.06,15.82,15.82,0,0,0-4.12,1.16s13.84-23.66,16.16-27.89l-15.11-2.22-32.22,60.86,13.73,1.37c.85-1.79,1.9-3.69,3-5.7,1.8-3.38,6.87-11.84,7.61-13.1a10.52,10.52,0,0,1,3.06-3.07,8.24,8.24,0,0,1,3.91-1.48c2.22-.21,3.38.43,3.38,1.91a37.23,37.23,0,0,1-.84,5.49c-.85,5-1.17,10.57,0,13.31s3.91,4.33,8.24,5a16.47,16.47,0,0,0,6-.42,22.85,22.85,0,0,0,5.18-1.91c1.58-.74,11.3-6.23,13.1-7.5Z"/><path class="cls-5" d="M232.84,160.47l2.64-7-11.41-3.07-2.54,7-9.93-2.64L209,164.7l9.09,2.43-5.39,15.32c5.28.74,12.78,1.9,17,3,4.75,1,8.66,2.74,8.34,7.39-.31,5-6.44,6.76-15.32,4.12a112.28,112.28,0,0,1-13.84-5.28l-2.64,10.14c17.65,8.35,36.35,10.67,41.95-3.48,4.44-11.41-3-20.18-21.13-22.51l2.11-5.7,1.58.42L254,176.64l2.64-9.94-19.55-5.17Z"/><polygon class="cls-5" points="58.93 132.9 31.46 167.13 46.88 172.62 65.48 149.8 81.22 155.29 44.77 204.63 61.68 209.81 107.11 149.06 58.93 132.9"/><polygon class="cls-5" points="192.69 186.88 206.95 185.19 194.17 178.75 206.95 172.41 192.69 170.72 202.51 160.26 188.57 163.64 194.27 150.43 182.33 158.36 183.18 143.99 174.62 155.5 170.5 141.77 166.38 155.5 157.82 143.99 158.67 158.36 146.73 150.43 152.43 163.64 138.49 160.26 148.31 170.72 148.74 171.14 99.82 171.14 89.25 185.19 149.9 185.19 148.31 186.88 138.49 197.24 152.43 193.96 146.73 207.17 158.67 199.25 157.82 213.51 166.38 201.99 170.5 215.84 174.62 201.99 183.18 213.51 182.33 199.25 194.27 207.17 188.57 193.96 202.51 197.24 192.69 186.88"/><polygon class="cls-6" points="168.49 190.06 164.37 195.76 164.8 188.79 158.99 192.59 161.73 186.15 154.97 187.84 159.72 182.76 152.75 181.92 158.99 178.75 152.75 175.69 159.72 174.84 154.97 169.77 161.73 171.35 158.99 165.01 164.8 168.82 164.37 161.84 168.49 167.44 170.5 160.79 172.51 167.44 176.63 161.84 176.31 168.82 182.12 165.01 179.27 171.35 186.14 169.77 181.28 174.84 188.25 175.69 182.02 178.75 188.25 181.92 181.28 182.76 186.14 187.84 179.27 186.15 182.12 192.59 176.31 188.79 176.63 195.76 172.51 190.06 170.5 196.82 168.49 190.06"/><path class="cls-5" d="M290.42,173.89s4.65-2,6.45,2.11a5.32,5.32,0,0,1-.32,5.18c-1.8,2.64-6.45,4.12-9.72,4.75l3,8.77c4.54-1,11-3.27,14.37-8.34A14.46,14.46,0,0,0,306,173.47c-2.22-6.66-7.82-9.72-14.79-9l-2.43-6-11.09,1.91,3.06,7.5c-1.16.42-2.32.95-3.59,1.48L273.73,161l-11.1,1.9L267,173.47c-3.17,1.26-6.23,2.53-8.34,3.38l3.48,8.45c2.75-1.16,5.6-2.32,8.35-3.38l10.46,25.67h11.83l-12-29.79c5-2.11,8.87-3.7,9.72-3.91"/><path class="cls-7" d="M378.75,72.35a1.83,1.83,0,0,1,1.69,2,1.76,1.76,0,0,1-2,1.69,2,2,0,0,1-1.69-1.9A1.85,1.85,0,0,1,378.75,72.35Z"/><path class="cls-7" d="M378.85,66.12a2.24,2.24,0,0,1,2,2.33,2.12,2.12,0,1,1-4.22-.32A2,2,0,0,1,378.85,66.12Z"/><path class="cls-7" d="M383,61.47a1.85,1.85,0,0,1,1.7,1.9,1.82,1.82,0,0,1-2,1.69,1.8,1.8,0,1,1,.31-3.59Z"/><path class="cls-7" d="M387.83,58.51a1.94,1.94,0,0,1,1.8,2.12,1.88,1.88,0,0,1-2.11,1.79,2.16,2.16,0,0,1-1.9-2.11A2.06,2.06,0,0,1,387.83,58.51Z"/><path class="cls-7" d="M393.86,57.88a1.86,1.86,0,0,1-.32,3.7,1.91,1.91,0,0,1-1.8-2A1.84,1.84,0,0,1,393.86,57.88Z"/><path class="cls-7" d="M399.56,58.83a1.8,1.8,0,0,1,1.69,2,1.9,1.9,0,0,1-2,1.69,1.82,1.82,0,0,1-1.8-2A1.93,1.93,0,0,1,399.56,58.83Z"/><path class="cls-7" d="M403.79,62.53a1.68,1.68,0,0,1,1.58,1.9,1.84,1.84,0,0,1-1.9,1.69,1.78,1.78,0,0,1-1.69-1.9A2,2,0,0,1,403.79,62.53Z"/><path class="cls-7" d="M406.32,67.71A1.11,1.11,0,0,1,407.38,69,1.25,1.25,0,0,1,406.11,70a1.11,1.11,0,0,1-1.05-1.27A1.16,1.16,0,0,1,406.32,67.71Z"/><path class="cls-7" d="M407.7,72.25a.93.93,0,0,1,.84,1,1,1,0,0,1-1,1,1,1,0,0,1-.84-1.06C406.75,72.35,407.49,72.25,407.7,72.25Z"/><path class="cls-7" d="M383.29,38.23A2.49,2.49,0,0,1,385.62,41a2.68,2.68,0,0,1-2.75,2.33,2.57,2.57,0,0,1-2.33-2.75A2.46,2.46,0,0,1,383.29,38.23Z"/><path class="cls-7" d="M359,45.2a1.47,1.47,0,0,1,1.27,1.48A1.29,1.29,0,0,1,358.78,48a1.45,1.45,0,0,1-1.27-1.48A1.35,1.35,0,0,1,359,45.2Z"/><path class="cls-7" d="M375.79,61.15a1.7,1.7,0,0,1,1.58,2,1.77,1.77,0,0,1-1.9,1.69,1.86,1.86,0,1,1,.32-3.7Z"/><path class="cls-7" d="M371.46,57.77a1.81,1.81,0,0,1,1.69,2.12,1.84,1.84,0,0,1-2,1.69,1.94,1.94,0,0,1-1.8-2A2,2,0,0,1,371.46,57.77Z"/><path class="cls-7" d="M365.54,60a1.83,1.83,0,0,0,2-1.69,1.77,1.77,0,0,0-1.69-2,1.81,1.81,0,0,0-2,1.7A2,2,0,0,0,365.54,60Z"/><path class="cls-7" d="M360.36,57.67a1.91,1.91,0,0,1-.31,3.8,2.13,2.13,0,0,1-1.8-2.11A1.8,1.8,0,0,1,360.36,57.67Z"/><path class="cls-7" d="M355.82,60.73a1.5,1.5,0,0,1,1.37,1.69,1.48,1.48,0,1,1-1.37-1.69Z"/><path class="cls-7" d="M353,64.54c.63,0,1,.74,1,1.26a1.11,1.11,0,0,1-1.26,1.06,1.23,1.23,0,0,1-1.06-1.16C351.81,65,352.23,64.43,353,64.54Z"/><path class="cls-7" d="M348.64,45.31a1.94,1.94,0,0,1,1.79,2.22,2,2,0,0,1-2.11,1.79,1.91,1.91,0,0,1-1.9-2.11A2,2,0,0,1,348.64,45.31Z"/><path class="cls-7" d="M408.65,49.32a2,2,0,0,1,1.8,2.22,2,2,0,0,1-2.12,1.8,1.93,1.93,0,0,1-1.9-2.12A2,2,0,0,1,408.65,49.32Z"/><path class="cls-7" d="M420.17,76.16A2,2,0,0,1,422,78.38a2,2,0,0,1-2.11,1.79,1.91,1.91,0,0,1-1.9-2.11A2.11,2.11,0,0,1,420.17,76.16Z"/><path class="cls-7" d="M394.7,69.4a1.06,1.06,0,0,1,.95,1.16,1.12,1.12,0,0,1-1,1,1,1,0,0,1-1-1.16C393.65,69.82,394.17,69.29,394.7,69.4Z"/><path class="cls-7" d="M356.45,73.83a1.27,1.27,0,1,1-.21,2.54A1.23,1.23,0,0,1,355.08,75,1.18,1.18,0,0,1,356.45,73.83Z"/><path class="cls-7" d="M389.84,45.83a1.28,1.28,0,1,0-1,1.48A1.23,1.23,0,0,0,389.84,45.83Z"/><path class="cls-7" d="M339.44,70a1.39,1.39,0,1,0-1.16,1.58A1.26,1.26,0,0,0,339.44,70Z"/><path class="cls-7" d="M378.54,78.17c24.93.1,32.22,19.86,33.28,24.72a58.86,58.86,0,0,1,9.72-3.28c3.59-.84,9.4-2.22,10.78,1.38.84,3.38-.11,4.22-3.07,5.7-4.33,2.54-6.34,5.07-6.76,6-.63.74-.95,2.33-3.49,4.44a34.57,34.57,0,0,1-7.29,4.55c-.21,2.11-2,13.94-5,19.86-1.69,3.91-5,7.82-5.29,11.83a4.92,4.92,0,0,0,2.65,4.86s1.69-8.66,9.61-11.73c6.55-2.11,9.51,3.6,9.4,6-.21,5.07-3.59,9.19-6.65,11.83.84,1,3.38,2.22,5.28,6.13s1.27,8.87-2.43,11.09c-7.18,3.81-14.47-3.48-15.95-10.25-12.15,1-21.35-.95-28.21-3.69-7.4-2.86-27.79-13.74-29.38-41.95a27.3,27.3,0,0,1-7.08-4.33,19,19,0,0,1-3.59-4.76,20.39,20.39,0,0,0-6.55-5.28c-1.16-.63-5.07-1.37-4.33-5.6.74-2.64,3.06-3.06,5.49-3,8.35.32,12.37,2.54,15.54,3.38C346.63,96,353.6,78.59,378.54,78.17Z"/><path class="cls-3" d="M408.23,125.71a72.11,72.11,0,0,1-3.6,13.63c-1.16,2.85-4.22,7.29-5.17,10s-1.06,3.91-.74,5.81a9.12,9.12,0,0,0,4.75,6,29.49,29.49,0,0,0-.42,7.4,64.09,64.09,0,0,1-17.75-.85A52.75,52.75,0,0,1,368.61,161a42.63,42.63,0,0,1-13.11-13.31,48.11,48.11,0,0,1-6.34-17.86c5.82-6.34,12-11.94,23-14.47C386.88,112.71,401.89,121.48,408.23,125.71Z"/><path class="cls-8" d="M327.08,106.16c.21-.63,1.06-.74,1.38-.74,5.81-.1,11.83,1.7,16.37,3.49l3.07,1.16s0-.63.1-2.64c1.06-9.3,5.39-15.11,6.55-16.37,2.54-2.65,6.34-7.4,18-9.62,15.11-2.53,25.26,4.44,29.27,8.66s7.5,9.94,7.61,17.12a68.58,68.58,0,0,1,12.36-5c2.75-.64,7.4-1.48,7.92-.22.22.53.22.95-.52,1.38-5.71,3-8.67,6.34-10.36,9.61-2.53,3.17-6.76,5.28-9.61,6.45a13.25,13.25,0,0,1-.43,2.85c-9.61-6.34-20.6-10.14-28.42-10.67a33.77,33.77,0,0,0-22.18,5.81,58.14,58.14,0,0,0-9.41,7.82,4.78,4.78,0,0,1,0-1.9,29,29,0,0,1-8.24-4.65c-2.53-2.75-2.75-4.33-4.44-5.92a25.79,25.79,0,0,0-8-5.39C326.87,107.22,327,106.59,327.08,106.16Z"/><path class="cls-9" d="M403.05,167.44c-.74,0-1.59.11-2.33.11a50.36,50.36,0,0,1-22.5-5.18,34.93,34.93,0,0,1-8.24-6c-9.09-8.45-12.36-23.35-13.31-34-.64.32-2.65,2.11-2.75,2.11h0c2.11,13.53,6.66,24.62,13.21,31.38,9.51,9.83,23,11.94,32.75,11.94a31.41,31.41,0,0,0,3.17-.1Z"/><path class="cls-9" d="M403.05,166.39c-12.79-.32-23-5.28-29.58-14.27-6.66-9.29-9.51-25.88-9.83-34.12v-.32c.21,0,2.11-.84,2.85-1.06.74,14.37,2.75,23.46,6.87,32.12,5.92,12.15,19.76,17,29.79,17.33Z"/><path class="cls-9" d="M402.94,164.91a28.07,28.07,0,0,1-15.11-5.6c-7.6-5.6-9.5-15.53-10.77-22.08l-.21-1.27c-1.38-6.76-1.48-20.08-1.48-21.55h1.9a6,6,0,0,1,1.48.1c-.21.21-.85,15.22,1.16,25.68,2,10.24,4.23,13.84,8.77,18.49,4.86,4.22,9.93,5.17,13.21,5.81l1.26.21v.1Z"/><path class="cls-9" d="M403.26,163.54a17.06,17.06,0,0,1-8.45-3.28c-2.64-2-6.13-5.49-7.19-13.1-.63-3.17-.42-11.73-.31-14.58l.1-5.07c.11-5.92.11-11.41.11-11.63.74.32,2.53.53,3.06.85-.1.21-.42,10.14-.53,11.73-.1,1.37-1.16,11.62-.95,15.42a24.38,24.38,0,0,0,3.38,12.58,18.56,18.56,0,0,0,4.23,4.33,18,18,0,0,0,6.66,2.64Z"/><path class="cls-9" d="M403.26,162.27a9.6,9.6,0,0,1-5.49-3.28,12.23,12.23,0,0,1-3.07-6.76,30.53,30.53,0,0,1,.74-10.35,130.46,130.46,0,0,0,3.38-21.66c.64.52,2.33,1.16,2.43,1.37-.21,1-.42,2.64-.63,4.44-.32,2.53-.63,5.28-.95,6.76A83,83,0,0,1,397,143.67c-.95,3.49-1.48,6.24-1.17,8.67a13,13,0,0,0,3.28,7.29,13.35,13.35,0,0,0,4.12,2.43v.21Z"/><path class="cls-7" d="M363.11,91.58a2.23,2.23,0,1,0-2.43,2A2.32,2.32,0,0,0,363.11,91.58Z"/><path class="cls-7" d="M395.76,90.42a2.23,2.23,0,1,0-2.43,2A2.24,2.24,0,0,0,395.76,90.42Z"/><path class="cls-10" d="M362.16,90.63a.79.79,0,1,0-.84.74A.82.82,0,0,0,362.16,90.63Z"/><path class="cls-10" d="M394.91,89.58a.79.79,0,1,0-1.58-.11.83.83,0,0,0,.74.85A.89.89,0,0,0,394.91,89.58Z"/><path class="cls-7" d="M380.33,104.79a18,18,0,0,1-14.89-4.54,1.51,1.51,0,0,0-2.33.63,1.92,1.92,0,0,0,.95,2.11,21,21,0,0,0,27.68-.73A1.46,1.46,0,0,0,392,100c-.74-1-1.7-.53-2.54.21C388.26,101.3,385.93,103.52,380.33,104.79Z"/><path class="cls-8" d="M410.13,177.27a7.94,7.94,0,0,0,6,2.43,4.36,4.36,0,0,0,3.7-3.49c.63-2.64-.21-6.12-6-10.14-.64-.32-1.27-.74-2-1.06.32-.42,2.22-2.11,2.22-2.11,5.81-5.39,6.65-8.87,6.13-11.09a3.78,3.78,0,0,0-2.86-2.75c-1.58-.42-3.38.32-5.07,1.59a16.28,16.28,0,0,0-4.44,6.12,31.74,31.74,0,0,0-1.9,8.88C405.8,171.14,407,174.52,410.13,177.27Z"/><path class="cls-3" d="M136.37,111.55h-24a1.86,1.86,0,0,0-1.8,1.8v17.54a1.85,1.85,0,0,0,1.8,1.79h24a1.84,1.84,0,0,0,1.8-1.79V113.35A1.78,1.78,0,0,0,136.37,111.55Zm-4.22,17.65H116.51v-2.33h15.64Zm0-5.81H116.51v-2.33h15.64Zm0-5.81H116.51v-2.33h15.64Z"/></g></g></svg>