<?xml version="1.0" encoding="utf-8"?>
<!-- Generator: Adobe Illustrator 23.1.0, SVG Export Plug-In . SVG Version: 6.00 Build 0)  -->
<svg version="1.1" id="レイヤー_1" xmlns="http://www.w3.org/2000/svg" xmlns:xlink="http://www.w3.org/1999/xlink" x="0px"
	 y="0px" viewBox="0 0 160 160" style="enable-background:new 0 0 160 160;" xml:space="preserve">
<style type="text/css">
	.st0{display:none;}
	.st1{display:inline;}
	.st2{fill:#F29600;}
	.st3{fill:#FFFFFF;}
	.st4{fill:#E60012;}
	.st5{fill:#1D2088;}
	.st6{fill:#3B0000;}
	.st7{fill:#530000;}
	.st8{fill:url(#SVGID_1_);}
	.st9{fill:url(#SVGID_2_);}
	.st10{fill:#E6E6E6;}
	.st11{fill:#F39800;}
	.st12{fill:url(#SVGID_3_);}
	.st13{fill:url(#SVGID_4_);}
</style>
<g class="st0">
	<title>logo-loto7-notext-1x1-001</title>
	<g id="必要" class="st1">
		<g>
			<polygon class="st2" points="144,116.381 144,61.861 67.935,72.256 67.906,106.682 			"/>
			<polygon class="st3" points="80.789,107.053 80.852,99.54 75.317,98.956 78.52,92.326 73.368,89.436 78.576,86.6 75.814,80.414 
				80.938,81.752 80.872,71.972 85.084,79.378 89.588,70.709 89.7,80.766 98.291,76.533 92.873,85.951 102.159,89.32 92.884,92.82 
				98.215,102.246 89.719,98.137 89.551,108.158 85.06,99.549 			"/>
			<g>
				<polygon class="st4" points="96.698,58.305 94.077,57.636 92.56,59.709 92.455,57.224 89.835,56.556 92.393,55.687 
					92.289,53.201 93.974,55.151 96.531,54.283 95.015,56.356 				"/>
				<polygon class="st2" points="90.295,48.312 89.265,51.062 91.808,52.794 88.629,52.762 87.6,55.513 86.665,52.741 
					83.487,52.709 86.087,51.029 85.152,48.259 87.694,49.992 				"/>
				<polygon class="st5" points="81.437,43.3 81.122,46.606 84.468,47.887 80.928,48.649 80.614,51.956 78.74,49.122 75.201,49.883 
					77.582,47.369 75.709,44.532 79.054,45.815 				"/>
				<polygon class="st4" points="70.177,39.926 70.742,43.62 74.765,44.255 71.09,45.903 71.655,49.597 68.818,46.922 
					65.144,48.568 67.066,45.266 64.231,42.59 68.255,43.226 				"/>
				<polygon class="st2" points="56.792,38.822 58.385,42.698 62.921,42.496 59.37,45.094 60.963,48.973 57.174,46.702 
					53.623,49.299 54.833,45.296 51.045,43.025 55.581,42.823 				"/>
				<polygon class="st5" points="41.098,40.962 44.488,44.878 49.646,43.106 46.583,47.302 49.973,51.218 44.691,49.894 
					41.627,54.088 41.425,49.075 36.143,47.749 41.3,45.975 				"/>
				<polygon class="st4" points="32.285,65.793 28.703,60.071 21.601,61.477 26.488,56.534 22.904,50.812 29.509,53.478 
					34.396,48.536 33.59,55.127 40.193,57.796 33.092,59.201 				"/>
			</g>
			<g>
				<path class="st5" d="M36.9,107.5l-20.842,2.217v-0.2c2.635-2.281,2.26-5.876,2.254-9.247l-0.033-24.23
					c0-3.371,0.363-7.011-2.279-9.426v-0.2l13.519,2.119v0.183c-2.291,1.541-1.955,5.07-1.951,8.309l0.032,24.56
					c1.503,0.695,3.175,0.941,4.815,0.71c2.335-0.069,4.532-1.125,6.043-2.907L36.9,107.5z"/>
				<path class="st5" d="M54.164,90.877c0.096,2.128-0.238,4.254-0.984,6.249c-0.872,1.978-2.237,3.3-3.753,3.41
					c-1.679,0.126-3.195-1.57-4.065-3.823c-0.96-2.882-1.466-5.895-1.5-8.932c0-5.006,1.627-10.333,5.18-9.878
					C52.937,78.4,54.157,85.825,54.164,90.877z M60.278,89.486C60.264,79.118,55.8,72.665,49.1,71.573
					C41.927,70.4,35.161,76.7,35.178,88.885c0.013,12.016,6.273,18.891,13.566,18.077C55.266,106.235,60.292,99.713,60.278,89.486z"
					/>
				<path class="st5" d="M73.375,82.4c-0.381-1.466-1.173-1.969-2.105-2.063c-0.452-0.069-0.914-0.027-1.346,0.122l0.022,17.367
					c0,2.469,0.032,4.415,1.171,6.041v0.129l-7.538,0.715v-0.137c1.43-1.531,1.224-4.088,1.22-6.433l-0.023-18.193
					c-0.466-0.196-0.962-0.307-1.467-0.329c-1.305-0.139-2.594,0.379-3.441,1.381l-0.218,0.216l1.2-7.061l0.581,0.221l12.809,1.788
					L73.375,82.4z"/>
				<path class="st5" d="M85.082,91.258c0.064,1.617-0.149,3.232-0.631,4.777c-0.554,1.505-1.419,2.493-2.375,2.557
					c-1.053,0.073-2-1.226-2.534-2.928c-0.594-2.184-0.904-4.436-0.923-6.7c0-3.75,1-7.785,3.214-7.524
					C84.294,81.725,85.076,87.386,85.082,91.258z M89.151,90.179c-0.011-8.033-3-12.9-7.373-13.534
					c-4.57-0.664-8.768,4.194-8.756,13.2c0.011,8.877,3.893,14.089,8.531,13.627C85.808,103.049,89.161,98.1,89.151,90.179z"/>
			</g>
			<g>
				<path class="st6" d="M120.177,64.6L99.69,64.63l-0.562,3.988l0.879,0.325l3.738,1.386c0,0,0.085-2.827,7.375-3.095l15.668-0.612
					L120.177,64.6z"/>
				<path class="st7" d="M119.252,62.436l2.081,2.16l-10.827,0.555c-9.169,0.463-8.98,4.328-8.98,4.351l-2.4-0.888l0.562-3.988
					L119.252,62.436z"/>
				
					<linearGradient id="SVGID_1_" gradientUnits="userSpaceOnUse" x1="120.4667" y1="675.2542" x2="138.7246" y2="714.408" gradientTransform="matrix(1 0 0 1 0 -606)">
					<stop  offset="0" style="stop-color:#530000"/>
					<stop  offset="0.25" style="stop-color:#7D0000"/>
					<stop  offset="0.451" style="stop-color:#A30000"/>
					<stop  offset="0.7" style="stop-color:#7D0000"/>
					<stop  offset="1" style="stop-color:#530000"/>
				</linearGradient>
				<path class="st8" d="M128.02,105.715c-0.164-9.307,1.299-18.57,4.322-27.374c1.668-4.678,3.931-9.122,6.733-13.222l-3.961-2.695
					c-5.318,6.623-8.549,15.212-10.7,23.565c-2.135,8.667-3.169,17.568-3.078,26.493c0.083,1.275,0.256,2.542,0.52,3.792l6.2-7.383
					c-0.028-1.058-0.031-2.117-0.031-3.176"/>
				
					<linearGradient id="SVGID_2_" gradientUnits="userSpaceOnUse" x1="117.1281" y1="674.646" x2="135.2961" y2="713.607" gradientTransform="matrix(1 0 0 1 0 -606)">
					<stop  offset="0.005" style="stop-color:#530000"/>
					<stop  offset="0.2" style="stop-color:#7D0000"/>
					<stop  offset="0.4" style="stop-color:#A30000"/>
					<stop  offset="0.65" style="stop-color:#7D0000"/>
					<stop  offset="1" style="stop-color:#530000"/>
				</linearGradient>
				<path class="st9" d="M121.793,113.634c-0.171-9.328,0.866-18.639,3.086-27.7c2.077-8.354,5.536-16.301,10.235-23.514
					l-2.589-1.348c-2.314,3.658-4.96,7.447-6.664,11.428c-1.622,3.836-2.979,7.778-4.061,11.8
					c-2.173,8.224-3.362,16.676-3.543,25.18c0.057,2.576,0.262,5.147,0.614,7.7l2.986-0.9c-0.029-0.879-0.06-1.76-0.06-2.64"/>
				<polygon class="st6" points="139.075,52.661 134.476,45.547 132.525,45.448 132.525,61.076 135.114,62.424 139.075,65.119 				
					"/>
				<path class="st4" d="M132.525,45.448l-33.378,9.166l-0.019,14c0,0,1.958-3.346,7.381-4.508l0,0l12.457-1.483
					c0.413,0.307,0.639,0.805,0.6,1.318c-0.078,0.836-0.284,1.656-0.612,2.429c-0.389,1.062-0.95,2.409-1.658,4.15
					c-0.7,1.721-1.534,3.814-2.479,6.375c-1.778,4.711-3.182,9.554-4.2,14.485c-0.945,4.488-1.548,8.691-1.97,12.251
					c-0.413,3.51-0.653,6.425-0.861,8.379c-0.211,1.935-0.248,3.658-0.248,3.658l11.323,1.51c-0.137-4.015-0.072-8.034,0.195-12.042
					c0.297-4.67,0.882-9.317,1.754-13.914c0.957-5.048,2.328-10.008,4.1-14.831c1.976-5.364,4.526-10.499,7.605-15.315
					L132.525,45.448z"/>
			</g>
		</g>
	</g>
	<g id="レイヤー_3" class="st1">
		<path class="st10" d="M158,2v156H2V2H158 M160,0H0v160h160V0z"/>
	</g>
</g>
<g>
	<g>
		<g>
			<g>
				<polygon class="st11" points="143.877,110.398 143.877,56.002 67.983,66.372 67.953,100.723 				"/>
			</g>
			<g>
				<g>
					<polygon class="st3" points="80.808,101.091 80.869,93.596 75.346,93.015 78.544,86.399 73.401,83.516 78.601,80.685 
						75.845,74.512 80.955,75.849 80.891,66.091 85.092,73.48 89.587,64.829 89.699,74.865 98.271,70.641 92.864,80.039 
						102.13,83.399 92.875,86.891 98.196,96.296 89.718,92.196 89.549,102.194 85.07,93.604 					"/>
				</g>
			</g>
			<g>
				<g>
					<path class="st5" d="M57.185,122.405l-10.607,0.004l-0.004-10.329l10.603-0.004L57.185,122.405z M54.79,114.374h-5.816
						l0.004,5.733l5.816-0.004L54.79,114.374z"/>
					<path class="st5" d="M59.235,122.533l-0.004-10.775h2.444v3.342l7.55,0.33v2.369l-7.539-0.33l0.004,5.065L59.235,122.533
						L59.235,122.533z"/>
				</g>
				<path class="st5" d="M77.065,119.307v-2.298c0.623-0.184,1.584-0.71,2.001-1.562h-4.231v3.773c0,0.657,0.304,0.957,1.089,0.957
					h6.067v2.358h-6.435c-2.497,0-3.319-0.871-3.319-2.831v-4.258h-1.543v-2.35h1.543v-1.641h2.598v1.641h7.385
					C82.183,116.702,80.028,118.909,77.065,119.307z"/>
				<path class="st5" d="M94.092,113.691c0,5.478-2.268,8.936-9.353,8.936v-2.324c5.331,0,6.015-2.546,6.462-6.037h-7.802v-2.384
					h8.493v1.81L94.092,113.691L94.092,113.691z"/>
				<path class="st5" d="M96.446,114.303v-2.459l5.752,0.462v2.523L96.446,114.303z M96.66,122.563v-2.485
					c4.787-0.308,7.513-1.539,7.791-6.409h2.775C106.921,119.991,103.324,122.476,96.66,122.563z"/>
			</g>
			<rect x="94.017" y="110.623" class="st5" width="1.506" height="2.73"/>
			<rect x="92.211" y="110.623" class="st5" width="1.506" height="2.73"/>
			<g>
				<polygon class="st4" points="96.679,52.454 94.066,51.786 92.553,53.855 92.447,51.373 89.834,50.709 92.384,49.841 
					92.282,47.363 93.961,49.308 96.514,48.441 95.001,50.51 				"/>
				<polygon class="st11" points="90.292,42.482 89.264,45.227 91.802,46.954 88.629,46.924 87.604,49.669 86.669,46.902 
					83.5,46.871 86.095,45.193 85.16,42.43 87.698,44.161 				"/>
				<polygon class="st5" points="81.454,37.481 81.139,40.782 84.477,42.058 80.947,42.82 80.632,46.121 78.762,43.29 
					75.233,44.052 77.606,41.544 75.74,38.713 79.078,39.993 				"/>
				<polygon class="st4" points="70.221,34.117 70.784,37.801 74.797,38.435 71.129,40.08 71.692,43.766 68.862,41.097 
					65.197,42.738 67.116,39.445 64.285,36.776 68.302,37.41 				"/>
				<polygon class="st11" points="56.866,33.014 58.454,36.881 62.978,36.682 59.438,39.272 61.026,43.143 57.245,40.875 
					53.701,43.466 54.91,39.475 51.129,37.207 55.657,37.008 				"/>
				<polygon class="st5" points="41.206,35.15 44.589,39.058 49.732,37.29 46.68,41.476 50.059,45.385 44.791,44.063 41.735,48.246 
					41.532,43.245 36.261,41.923 41.408,40.151 				"/>
				<polygon class="st4" points="32.413,59.926 28.838,54.215 21.754,55.62 26.627,50.686 23.053,44.975 29.642,47.637 
					34.519,42.708 33.715,49.282 40.301,51.944 33.216,53.348 				"/>
			</g>
			<g>
				<path class="st5" d="M37.016,101.541l-20.796,2.211v-0.199c2.628-2.275,2.256-5.865,2.249-9.225l-0.03-24.183
					c-0.004-3.364,0.36-6.995-2.275-9.405v-0.199l13.49,2.114v0.184c-2.287,1.536-1.949,5.057-1.945,8.29l0.034,24.506
					c1.498,0.815,3.191,0.818,4.802,0.71c2.395-0.161,4.216-0.916,6.03-2.902L37.016,101.541z"/>
				<path class="st5" d="M54.241,84.954c0,2.166-0.18,4.427-0.984,6.236c-0.871,1.975-2.23,3.289-3.743,3.402
					c-1.675,0.124-3.188-1.566-4.055-3.815c-0.882-2.377-1.487-6.101-1.491-8.913c-0.008-4.994,1.622-10.31,5.166-9.856
					C53.017,72.507,54.234,79.911,54.241,84.954z M60.343,83.564c-0.015-10.344-4.472-16.783-11.151-17.872
					c-7.156-1.168-13.907,5.114-13.892,17.275c0.015,11.988,6.259,18.848,13.535,18.037C55.342,100.276,60.358,93.769,60.343,83.564
					z"/>
				<path class="st5" d="M73.408,76.491c-0.379-1.464-1.171-1.964-2.099-2.057c-0.473-0.049-0.894-0.049-1.344,0.124l0.023,17.327
					c0.004,2.463,0.03,4.404,1.168,6.026v0.128l-7.52,0.713v-0.135c1.427-1.528,1.22-4.081,1.216-6.42l-0.023-18.153
					c-0.496-0.229-0.935-0.274-1.464-0.327c-1.378-0.139-2.26,0.282-3.432,1.385l-0.218,0.214l1.201-7.043l0.582,0.222l12.78,1.783
					L73.408,76.491z"/>
				<path class="st5" d="M85.089,85.333c0.004,1.659-0.113,3.39-0.631,4.768c-0.552,1.502-1.415,2.489-2.369,2.553
					c-1.051,0.071-1.99-1.224-2.527-2.921c-0.544-1.791-0.92-4.581-0.92-6.687c-0.004-3.743,0.995-7.768,3.206-7.505
					C84.304,75.823,85.085,81.469,85.089,85.333z M89.151,84.255c-0.011-8.016-2.989-12.87-7.355-13.505
					c-4.558-0.661-8.748,4.186-8.737,13.171c0.011,8.857,3.886,14.057,8.512,13.599C85.813,97.096,89.159,92.159,89.151,84.255z"/>
			</g>
			<g>
				<path class="st6" d="M120.107,58.732l-20.44,0.03l-0.559,3.98l0.879,0.323l3.728,1.382c0,0,0.083-2.82,7.359-3.086l15.634-0.612
					L120.107,58.732z"/>
				<g>
					<path class="st7" d="M119.183,56.577l2.076,2.155l-10.802,0.556c-9.15,0.462-8.962,4.318-8.962,4.34l-2.392-0.886l0.559-3.98
						L119.183,56.577z"/>
				</g>
				
					<linearGradient id="SVGID_3_" gradientUnits="userSpaceOnUse" x1="120.3937" y1="669.3777" x2="138.6095" y2="708.4418" gradientTransform="matrix(1 0 0 1 0 -606)">
					<stop  offset="0" style="stop-color:#530000"/>
					<stop  offset="0.25" style="stop-color:#7D0000"/>
					<stop  offset="0.4505" style="stop-color:#A40000"/>
					<stop  offset="0.7" style="stop-color:#7D0000"/>
					<stop  offset="1" style="stop-color:#530000"/>
				</linearGradient>
				<path class="st12" d="M127.931,99.758c-0.03-9.232,1.164-18.6,4.314-27.314c1.682-4.652,3.905-9.12,6.717-13.193l-3.954-2.688
					c-5.305,6.608-8.53,15.176-10.678,23.511c-2.219,8.605-3.071,17.564-3.071,26.432c0,1.262,0.518,3.785,0.518,3.785l6.184-7.366
					C127.935,101.871,127.931,100.813,127.931,99.758"/>
				
					<linearGradient id="SVGID_4_" gradientUnits="userSpaceOnUse" x1="117.0634" y1="668.7719" x2="135.1909" y2="707.6464" gradientTransform="matrix(1 0 0 1 0 -606)">
					<stop  offset="0.0055" style="stop-color:#530000"/>
					<stop  offset="0.2" style="stop-color:#7D0000"/>
					<stop  offset="0.4" style="stop-color:#A40000"/>
					<stop  offset="0.65" style="stop-color:#7D0000"/>
					<stop  offset="1" style="stop-color:#530000"/>
				</linearGradient>
				<path class="st13" d="M121.721,107.657c-0.09-9.277,0.785-18.63,3.079-27.633c2.114-8.309,5.482-16.295,10.212-23.462
					l-2.583-1.344c-2.309,3.649-4.948,7.43-6.649,11.402c-1.637,3.822-2.959,7.761-4.055,11.77
					c-2.234,8.162-3.289,16.674-3.537,25.125c-0.075,2.553,0.612,7.682,0.612,7.682l2.977-0.901
					C121.752,109.414,121.721,108.536,121.721,107.657"/>
				<polygon class="st6" points="138.962,46.823 134.374,39.723 132.426,39.625 132.426,55.218 135.009,56.566 138.962,59.254 				
					"/>
				<path class="st4" d="M132.426,39.625l-33.303,9.146l-0.019,13.971c0,0,1.952-3.338,7.363-4.498c0,0,0,0,0.004,0l12.431-1.479
					c0.421,0.33,0.612,0.728,0.601,1.314c-0.007,0.586-0.222,1.355-0.608,2.422c-0.387,1.059-0.95,2.403-1.656,4.141
					c-0.698,1.716-1.532,3.807-2.474,6.36c-1.889,4.933-3.225,9.867-4.19,14.451c-0.942,4.479-1.547,8.673-1.967,12.225
					c-0.413,3.503-0.65,6.413-0.86,8.361c-0.21,1.93-0.248,3.649-0.248,3.649l11.297,1.506c-0.124-3.807-0.094-7.633,0.195-12.014
					c0.289-4.442,0.841-9.123,1.75-13.884c0.935-4.862,2.26-9.848,4.096-14.797c1.896-5.121,4.37-10.269,7.588-15.281
					L132.426,39.625L132.426,39.625z"/>
			</g>
		</g>
		<g id="レイヤー_3_1_">
			<path class="st10" d="M158.02,2v156h-156V2H158.02 M160.02,0h-160v160h160V0z"/>
		</g>
	</g>
</g>
</svg>
