<svg id="レイヤー_1" data-name="レイヤー 1" xmlns="http://www.w3.org/2000/svg" xmlns:xlink="http://www.w3.org/1999/xlink" viewBox="0 0 400 184">
  <defs>
    <style>
      .cls-1 {
        fill: #f7b400;
      }

      .cls-2 {
        fill: #fff;
      }

      .cls-3 {
        fill: #1e3c94;
      }

      .cls-4 {
        fill: url(#linear-gradient);
      }

      .cls-5 {
        fill: #c5006f;
      }

      .cls-6 {
        fill: url(#linear-gradient-2);
      }

      .cls-7 {
        fill: url(#linear-gradient-3);
      }

      .cls-8 {
        fill: #7e0043;
      }

      .cls-9 {
        fill: #e3007f;
      }

      .cls-10 {
        fill: url(#linear-gradient-4);
      }
    </style>
    <linearGradient id="linear-gradient" x1="6020.169" y1="3889.553" x2="6020.169" y2="3789.444" gradientTransform="translate(-2457.823 -1656.251) scale(0.455)" gradientUnits="userSpaceOnUse">
      <stop offset="0.056" stop-color="#90004f"/>
      <stop offset="0.23" stop-color="#e3007f"/>
      <stop offset="0.444" stop-color="#90004f"/>
      <stop offset="1" stop-color="#690035"/>
    </linearGradient>
    <linearGradient id="linear-gradient-2" x1="5379.677" y1="3627.89" x2="5522.937" y2="3988.627" gradientTransform="translate(-1411.403 -1096.884) scale(0.317)" xlink:href="#linear-gradient"/>
    <linearGradient id="linear-gradient-3" x1="4915.478" y1="4110.977" x2="4837.833" y2="3889.808" gradientTransform="translate(-1941.364 -1741.873) scale(0.455)" xlink:href="#linear-gradient"/>
    <linearGradient id="linear-gradient-4" x1="5331.08" y1="3614.754" x2="5495.052" y2="4023.821" gradientTransform="translate(-1411.403 -1096.884) scale(0.317)" xlink:href="#linear-gradient"/>
  </defs>
  <title>LOTO6</title>
  <g>
    <polygon class="cls-1" points="342 142.671 341.964 21.599 173.154 44.67 173.088 121.074 342 142.671"/>
    <polygon class="cls-2" points="201.677 121.895 201.816 105.222 189.535 103.926 196.645 89.21 185.212 82.796 196.769 76.502 190.641 62.776 202.007 65.746 201.862 44.039 211.208 60.476 221.205 41.237 221.454 63.556 240.521 54.162 228.494 75.062 249.103 82.542 228.518 90.307 240.353 111.229 221.495 102.108 221.122 124.349 211.154 105.243 201.677 121.895"/>
    <g>
      <g>
        <path class="cls-3" d="M139.855,170.4l-23.577.012-.012-22.967,23.578-.011Zm-5.33-17.853-12.934,0L121.6,165.3l12.935,0Z"/>
        <path class="cls-3" d="M144.409,170.691l-.011-23.949,5.432,0v7.427l16.79.731,0,5.268-16.766-.731.006,11.259Z"/>
      </g>
      <path class="cls-3" d="M185.119,152.812l-12.536-.541,0-5.08,12.541.514Zm-7.531,12.241c10.188,0,13.545-2.464,13.541-12.161v-2.785l5.462,0v3.168c.007,12.237-5.454,17.376-18.785,17.382h-4.7l0-5.6Zm7.535-4.344-12.54-.515v-5.108l12.538.541Z"/>
      <path class="cls-3" d="M202.1,165.616h1.311c8.414,0,9.587-1.259,10.212-6.013.409-3.169.818-7.623.818-7.623H219.9s-.845,6.748-1.116,8.631c-.954,6.72-3.874,9.727-13.082,9.949l-3.6,0Zm1.935-13.575.9,9.561h-5.028l-.9-9.562Zm7.154,0,.934,9.562h-5.054l-.876-9.56Z"/>
      <path class="cls-3" d="M247.133,146.915c.309,17.675-4.77,23.766-19.386,23.773h-2.923v-5.243h2.811c10.109-.007,13.66-3.642,13.82-13.394l-11.2.006-2.428,7h-5.848l4.367-12.13Z"/>
      <path class="cls-3" d="M274.436,170.669a15.06,15.06,0,0,1-10-7.044c-2.867,3.744-7.457,6.394-14.858,7.11l0-5.354c8.936-.689,13.631-6.127,14.227-12.93l-13.572.006,0-5.243,19.94-.009a34.989,34.989,0,0,1-2.264,11.8c.93,2.814,3.938,4.944,6.534,5.815Z"/>
    </g>
    <g>
      <path class="cls-3" d="M104.256,122.936,58,127.8v-.437c5.854-5.056,5.032-13.035,5.032-20.512V53.061c0-7.477.822-15.556-5.032-20.923V31.7l29.994,4.743v.405c-5.089,3.413-4.353,11.245-4.353,18.432v54.5c3.325,1.813,7.092,1.831,10.679,1.591a18.309,18.309,0,0,0,13.42-6.436Z"/>
      <path class="cls-3" d="M142.616,86.088c0,4.819-.414,9.846-2.2,13.866-1.94,4.386-4.971,7.31-8.338,7.554-3.724.275-7.083-3.492-9.008-8.495a65.027,65.027,0,0,1-3.29-19.824c0-11.1,3.639-22.925,11.523-21.9C139.93,58.4,142.616,74.878,142.616,86.088Zm13.569-3.067c0-23.009-9.9-37.342-24.748-39.785C115.52,40.618,100.49,54.572,100.49,81.614c0,26.664,13.866,41.939,30.052,40.154C145.016,120.174,156.185,105.717,156.185,83.021Z"/>
      <path class="cls-3" d="M185.27,67.326c-.841-3.257-2.6-4.377-4.666-4.588a6.233,6.233,0,0,0-2.987.269v38.538c0,5.477.056,9.8,2.58,13.408v.286l-16.732,1.566v-.3c3.18-3.395,2.73-9.07,2.73-14.276V61.857a9.347,9.347,0,0,0-3.256-.733c-3.061-.313-5.023.621-7.639,3.07l-.485.477L157.505,49l1.292.491,28.416,4Z"/>
      <path class="cls-3" d="M211.215,87.023c0,3.69-.265,7.539-1.412,10.6-1.233,3.335-3.157,5.526-5.278,5.666-2.336.158-4.426-2.727-5.612-6.5a58.53,58.53,0,0,1-2.027-14.878c0-8.321,2.238-17.268,7.149-16.684C209.5,65.871,211.215,78.434,211.215,87.023Zm9.033-2.384c0-17.822-6.612-28.628-16.321-30.052-10.133-1.485-19.464,9.284-19.464,29.268,0,19.7,8.6,31.277,18.888,30.266C212.792,113.192,220.248,102.22,220.248,84.639Z"/>
    </g>
    <g>
      <path class="cls-4" d="M285.232,90.692c0-7.428,3.956-13.714,9.408-15.832a13.629,13.629,0,0,0-7.314-2.161c-8.634,0-15.635,8.329-15.635,18.6s7,18.6,15.635,18.6a13.824,13.824,0,0,0,8.507-3C289.772,105.3,285.232,98.652,285.232,90.692Z"/>
      <polygon class="cls-5" points="301.047 23.627 287.468 14.668 289.678 13.265 300.184 19.165 315.379 29.108 301.047 23.627"/>
      <path class="cls-6" d="M299.512,54.576s8.385,1.44,12.577,3.145,19,9.564,19,33.407c0,16.64-8.311,25.608-12.054,28.562-4.977,3.931-15.293,7.489-23.676,9.585,0,0,25.119-8.536,25.119-36.444S303.313,56.542,299.512,54.576Z"/>
      <path class="cls-7" d="M286.365,108.771c-6.83,0-12.368-7.82-12.368-17.468s5.538-17.467,12.368-17.467c3.3,0,6.3,1.826,8.513,4.8-2.5-4.717-6.569-7.191-10.958-7.191-7.958,0-14.658,8.577-14.658,20.121,0,11,6.7,19.916,14.658,19.916,5.355,0,10.378-4.066,12.509-10.029C294.188,105.881,290.516,108.771,286.365,108.771Z"/>
      <polygon class="cls-8" points="281.195 56.837 281.793 57.31 300.184 55.052 314.896 31.046 315.46 29.108 306.086 24.015 301.047 23.627 281.195 56.837"/>
      <path class="cls-9" d="M288.922,55.151a23.438,23.438,0,0,1,11.858,2.23,27.3,27.3,0,0,1,9.549,7.734,37.571,37.571,0,0,1,6.091,11.911,47.057,47.057,0,0,1,2.366,14.4,46.232,46.232,0,0,1-3.049,16.323,34.766,34.766,0,0,1-7.732,12.235,28.939,28.939,0,0,1-11.268,7.082,27.38,27.38,0,0,1-13.447,1.315,31.593,31.593,0,0,1-21.451-12.161A36,36,0,0,1,256,104.989a43.588,43.588,0,0,1-1.969-13.7,51.459,51.459,0,0,1,.868-8.747,66.317,66.317,0,0,1,2.187-8.561,87.05,87.05,0,0,1,3.18-8.268c1.2-2.7,2.5-5.317,3.843-7.823l23.355-43.226,13.579,8.959-19.532,33.14.236.262a13.053,13.053,0,0,1,1.613-.734,16.234,16.234,0,0,1,1.763-.555c.606-.154,1.233-.28,1.865-.376S288.275,55.194,288.922,55.151Zm-5.634,56.154a10.842,10.842,0,0,0,6.138-1.331,14.523,14.523,0,0,0,4.76-4.39,22.166,22.166,0,0,0,3.07-6.416,26.063,26.063,0,0,0,1.1-7.313,26.862,26.862,0,0,0-1.028-7.434,23.156,23.156,0,0,0-2.991-6.575,15.168,15.168,0,0,0-4.686-4.6,11.082,11.082,0,0,0-6.089-1.619,11.281,11.281,0,0,0-5.946,1.883,15.411,15.411,0,0,0-4.405,4.55,22.919,22.919,0,0,0-2.771,6.191,26.252,26.252,0,0,0-1,6.894,25.986,25.986,0,0,0,.881,6.871,23.551,23.551,0,0,0,2.67,6.314,16.276,16.276,0,0,0,4.347,4.784,11.635,11.635,0,0,0,5.944,2.188"/>
      <path class="cls-10" d="M282.29,56.709c3.027-2.353,7.877-3.049,11.064-3.049a24.227,24.227,0,0,1,9.608,1.832c9.217,3.952,19.769,14.25,19.769,35.463,0,34.067-24.7,38.868-32.672,38.868a32.131,32.131,0,0,1-15.037-3.557c6.061,2.016,8.241,2.288,13.821,2.288,7.066,0,29.754-6.7,29.754-37.949,0-11.169-4.454-21.312-9.351-26.636-5.94-6.461-12.4-8.912-18.948-8.854A18.771,18.771,0,0,0,282.29,56.709Z"/>
    </g>
  </g>
</svg>
