<?xml version="1.0" encoding="utf-8"?>
<!-- Generator: Adobe Illustrator 23.1.0, SVG Export Plug-In . SVG Version: 6.00 Build 0)  -->
<svg version="1.1" xmlns="http://www.w3.org/2000/svg" xmlns:xlink="http://www.w3.org/1999/xlink" x="0px" y="0px"
	 viewBox="0 0 400 184" style="enable-background:new 0 0 400 184;" xml:space="preserve">
<style type="text/css">
	.st0{display:none;}
	.st1{display:inline;}
	.st2{fill:#CCCCCC;}
	.st3{fill:#004097;}
	.st4{fill:#F29600;}
	.st5{fill:#00A73C;}
	.st6{fill:#004098;}
	.st7{fill:#F39800;}
	.st8{fill:none;}
</style>
<g id="レイヤー_1" class="st0">
	<title>logo-numbers4-400x184-001</title>
	<g class="st1">
		<g>
			<path class="st2" d="M394,56.125h-23.065l-56.172,60.588l-5.879,17.351l36.76-0.288l-7.935,19.413h17.938l7.727-18.233h10.21
				l7.06-17.353h-10.592L394,56.125z M351.819,118.189h-17.937l32.088-33.235L351.819,118.189z"/>
			<g>
				<path class="st2" d="M39.859,90.414l-0.226,0.193L25.37,130.922H12.62L40.4,58.585h13.828L49.088,99h0.223l14.226-40.41h12.692
					l-27.79,72.337H34.763L39.859,90.414z"/>
				<path class="st2" d="M82.973,58.447h13.338l-20.942,54.53c-1.615,4.684-1.8,6.9,2.049,6.991c4.786,0.106,6.28-4.4,7.465-7.479
					l20.766-54.042h13.337l-20.1,52.31c-4.7,12.236-8.457,21.973-26.365,21.7c-10.99-0.175-15.339-6.853-9.637-21.7L82.973,58.447z"
					/>
				<path class="st2" d="M97.8,131.439l27.786-72.332h18.845l-9.5,42.723h0.153l23.547-42.723h18.733l-27.787,72.332H136.76
					l23.14-56.691h-0.146l-31.195,56.691h-9.94l12.586-56.691h-0.157l-20.543,56.691H97.8z"/>
				<path class="st2" d="M193.557,70.191c4.753,0,9.062-1.035,5.216,9.12c-3.78,10-6.156,7.815-12.25,8.3L193.557,70.191z
					 M181.911,100.784c4.76,0,9.587-0.743,5.756,9.4c-3.78,10-3.89,9.885-13.451,9.885L181.911,100.784z M176.218,131.4
					c19.089,0.018,21.878-11.8,24.673-19.676c3-8.468,4.553-14.285-0.875-18.488l0.077-0.2c8.686-4.608,10.242-8.136,12.685-14.5
					c5.6-14.573-1.178-19.447-11.311-19.447h-17.321l-27.8,72.359L176.218,131.4z"/>
				<path class="st2" d="M198.354,131.669l28.118-72.756h30.6l-4.236,11.548h-17.258L228.5,88.5h16.73l-4.454,11.387h-16.724
					l-7.578,20.456h18.171l-4.782,11.329L198.354,131.669z"/>
				<path class="st2" d="M260.328,103.164h4.425c3.022,0.289,2.985,3.172,1.666,7.608s-3.918,10.393-6.135,16.753
					c-0.427,1.347-0.706,2.737-0.832,4.144h15.387l-0.412-0.973c-0.335-0.788-0.45-1.652-0.335-2.5
					c1.02-4.623,5.719-17.041,7.556-22.819c1.695-5.019,0.3-8.289-3.029-9.353l0.077-0.193c6.888-3.285,10.446-8.792,13.424-16.524
					c5.526-14.4,2.2-19.992-8.763-19.992h-19.526l-27.794,72.354h13.341L260.328,103.164z"/>
				<path class="st2" d="M317.129,84.465h13.556c3.332-6.586,4.906-12.261,3.558-17.689c-1.772-7.137-16.468-12.095-28.895-3.846
					c-14.223,9.459-8.019,27.612-4.662,32.532c3.671,5.388,9.8,11.461,5.777,20.03c-1.085,2.3-2.175,4.13-3.444,5.026
					c-3.138,2.228-10.061,2.148-6.78-5.718c3.029-7.261,3.113-8.136,3.113-8.136h-13.56c-2.894,6.484-9.444,20.448,1.222,24.841
					s24.29,2.125,29-4.173c4.114-5.49,9.889-16.925,2.894-28.352s-12.223-16.706-5.559-25.934
					C316.131,70.074,325.461,69.86,317.129,84.465z"/>
			</g>
			<g>
				<path class="st3" d="M35.215,86.532l-0.218,0.19l-14.271,40.314H7.98L35.766,54.7H49.58l-5.139,40.405h0.233L58.9,54.7h12.686
					L43.8,127.036H30.112L35.215,86.532z"/>
				<path class="st3" d="M78.333,54.561H91.67l-20.944,54.527c-1.611,4.68-1.808,6.9,2.052,7c4.786,0.1,6.284-4.4,7.469-7.48
					l20.758-54.046h13.33l-20.088,52.31c-4.7,12.234-8.46,21.97-26.375,21.689c-10.979-0.171-15.332-6.85-9.635-21.689
					L78.333,54.561z"/>
				<path class="st3" d="M93.157,127.561l27.78-72.344h18.855l-9.509,42.731h0.156l23.536-42.731h18.74l-27.783,72.344h-12.823
					l23.153-56.7h-0.153l-31.191,56.7h-9.936l12.586-56.7h-0.153l-20.551,56.7L93.157,127.561z"/>
				<path class="st3" d="M188.914,66.3c4.745,0,9.057-1.032,5.223,9.123c-3.78,10-6.164,7.815-12.255,8.3L188.914,66.3z
					 M177.271,96.9c4.753,0,9.583-0.748,5.752,9.4c-3.783,10-3.893,9.885-13.447,9.885L177.271,96.9z M171.571,127.511
					c19.115,0.995,21.874-11.8,24.67-19.676c3.007-8.453,4.56-14.281-0.872-18.488l0.081-0.189c8.682-4.608,10.236-8.14,12.684-14.5
					c5.6-14.573-1.176-19.447-11.314-19.447H179.5l-27.8,72.373L171.571,127.511z"/>
				<path class="st3" d="M193.714,127.78l28.118-72.749h30.6L248.2,66.572h-17.267l-7.071,18.043h16.731l-4.457,11.376h-16.727
					l-7.578,20.463H230l-4.786,11.326H193.714z"/>
				<path class="st3" d="M255.681,99.276h4.431c3.019,0.284,2.979,3.178,1.659,7.6s-3.915,10.406-6.127,16.759
					c-0.431,1.344-0.711,2.732-0.835,4.138H270.2l-0.415-0.955c-0.328-0.795-0.441-1.662-0.328-2.515
					c1.013-4.619,5.715-17.041,7.552-22.815c1.692-5.011,0.295-8.292-3.022-9.353l0.073-0.2c6.885-3.273,10.44-8.781,13.418-16.524
					c5.526-14.39,2.2-19.986-8.756-19.986h-19.531l-27.8,72.348h13.333L255.681,99.276z"/>
				<path class="st3" d="M312.492,80.587h13.553c3.332-6.6,4.91-12.273,3.557-17.7c-1.779-7.138-16.475-12.091-28.89-3.839
					c-14.235,9.448-8.023,27.6-4.674,32.518c3.667,5.391,9.809,11.471,5.781,20.037c-1.078,2.308-2.176,4.126-3.447,5.022
					c-3.135,2.231-10.057,2.148-6.777-5.7c3.03-7.276,3.113-8.137,3.113-8.137h-13.56c-2.89,6.485-9.444,20.434,1.225,24.838
					s24.291,2.129,29-4.178c4.115-5.5,9.892-16.926,2.894-28.354s-12.226-16.7-5.562-25.935
					C311.487,66.189,320.822,65.963,312.492,80.587z"/>
			</g>
			<polygon class="st4" points="6.434,124.127 259.1,77.591 237.08,103.937 264.286,80.182 264.72,92.711 269.474,80.613 
				282.424,96.596 274.66,78.885 286.748,84.502 277.245,74.572 330.805,62.037 330.478,60.207 277.245,68.088 287.612,55.13 
				272.502,66.357 272.502,50.811 266.878,66.357 255.217,51.237 262.566,68.518 232.326,52.534 259.54,72.404 6,122.079 			"/>
			<path class="st5" d="M388.7,51.488h-23.059l-56.171,60.593l-5.886,17.353l36.764-0.294l-7.939,19.405h17.941l7.731-18.232h10.206
				l7.058-17.346h-10.582L388.7,51.488z M346.519,113.553h-17.933l32.083-33.236L346.519,113.553z"/>
		</g>
	</g>
</g>
<g id="レイヤー_3">
	<g>
		<g>
			<g>
				<path class="st2" d="M394.126,56.103h-23.069l-56.178,60.605l-5.876,17.353l36.772-0.285l-7.941,19.418h17.947l7.724-18.232
					h10.211l7.062-17.353h-10.599L394.126,56.103z M351.935,118.18h-17.947l32.094-33.246L351.935,118.18z"/>
			</g>
			<g>
				<path class="st2" d="M39.908,90.398l-0.228,0.194l-14.261,40.32H12.651l27.793-72.357h13.828l-5.146,40.422h0.217L63.57,58.556
					h12.698l-27.793,72.357H34.808L39.908,90.398z"/>
				<path class="st2" d="M83.023,58.419H96.36l-20.947,54.547c-1.62,4.689-1.803,6.903,2.054,6.994
					c4.792,0.103,6.286-4.393,7.462-7.484l20.776-54.056h13.337l-20.103,52.322c-4.701,12.242-8.454,21.974-26.366,21.7
					c-10.987-0.171-15.345-6.857-9.641-21.7L83.023,58.419z"/>
				<path class="st2" d="M97.854,131.437l27.793-72.357h18.848l-9.504,42.739h0.148l23.56-42.739h18.734l-27.793,72.345h-12.812
					l23.149-56.703h-0.148l-31.204,56.703h-9.937l12.584-56.703h-0.16l-20.548,56.703h-12.71V131.437z"/>
				<path class="st2" d="M193.634,70.17c4.758,0,9.059-1.038,5.214,9.127c-3.776,10.006-6.161,7.815-12.253,8.306L193.634,70.17z
					 M181.985,100.769c4.758,0,9.584-0.742,5.762,9.401c-3.776,10.006-3.891,9.892-13.451,9.892L181.985,100.769z M176.292,131.391
					c19.099,0.023,21.883-11.808,24.678-19.681c3.001-8.466,4.552-14.284-0.879-18.494l0.08-0.205
					c8.694-4.609,10.245-8.135,12.687-14.501c5.602-14.581-1.175-19.453-11.318-19.453h-17.319l-27.804,72.379L176.292,131.391z"/>
				<path class="st2" d="M198.437,131.665l28.123-72.767h30.611l-4.233,11.546h-17.262l-7.074,18.038h16.737l-4.461,11.386h-16.726
					l-7.576,20.457h18.175l-4.78,11.329h-31.535V131.665z"/>
				<path class="st2" d="M260.423,103.154h4.427c3.023,0.285,2.989,3.172,1.666,7.61c-1.312,4.427-3.925,10.394-6.138,16.76
					c-0.479,1.449-0.685,2.784-0.833,4.142h15.391l-0.411-0.97c-0.354-0.673-0.399-1.54-0.331-2.499
					c1.015-4.621,5.716-17.045,7.553-22.818c1.7-5.02,0.297-8.294-3.035-9.355l0.08-0.194c6.891-3.286,10.451-8.796,13.429-16.532
					c5.522-14.41,2.202-20-8.762-20h-19.532l-27.804,72.368h13.349L260.423,103.154z"/>
				<path class="st2" d="M317.24,84.443h13.554c3.331-6.583,4.906-12.265,3.56-17.696c-1.768-7.142-16.475-12.094-28.899-3.845
					c-14.227,9.458-8.021,27.621-4.666,32.539c3.674,5.385,9.8,11.466,5.784,20.034c-1.084,2.305-2.179,4.13-3.446,5.031
					c-3.138,2.225-10.063,2.145-6.777-5.716c3.035-7.268,3.115-8.135,3.115-8.135h-13.565c-2.898,6.48-9.447,20.457,1.221,24.849
					c10.668,4.404,24.301,2.122,29.013-4.176c4.119-5.488,9.892-16.931,2.898-28.363c-7.005-11.432-12.219-16.714-5.556-25.944
					C316.236,70.056,325.569,69.839,317.24,84.443z"/>
			</g>
			<g>
				<path class="st6" d="M105.624,150.296l0.867-2.829c3.925,0.068,6.446-0.947,8.249-4.062c0.479-0.844,1.244-2.852,1.244-2.852
					h-8.032l0.97-2.75h8.066l1.175-3.149h3.195l-1.061,3.149h3.902l-0.924,2.67h-4.084
					C118.242,143.941,115.938,150.718,105.624,150.296z"/>
				<polygon class="st6" points="125.487,138.385 126.411,135.864 132.184,135.864 131.34,138.385 				"/>
				<path class="st6" d="M121.448,150.251l1.141-2.852c4.267,0.308,10.257-0.799,12.79-8.614h3.023
					C137.022,144.694,132.629,151.004,121.448,150.251z"/>
				<path class="st6" d="M143.993,135.419h2.932c-0.628,4.313-4.176,13.896-11.363,15.049l1.198-3.468
					C140.216,145.721,142.715,140.804,143.993,135.419z"/>
				<path class="st6" d="M149.891,135.419h2.887c-0.947,2.533-2.601,8.762,0.308,11.9l-1.335,3.206
					C148.876,148.596,147.279,142.538,149.891,135.419z"/>
				<polygon class="st6" points="154.478,138.784 155.619,135.499 153.93,135.499 152.801,138.784 				"/>
				<polygon class="st6" points="157.193,138.784 158.334,135.499 156.657,135.499 155.505,138.784 				"/>
				<polygon class="st6" points="180.57,138.784 181.711,135.499 180.023,135.499 178.882,138.784 				"/>
				<polygon class="st6" points="183.286,138.784 184.438,135.499 182.75,135.499 181.609,138.784 				"/>
				<polygon class="st6" points="165.624,143.896 166.594,141.157 155.573,141.157 154.615,143.896 				"/>
				<polygon class="st6" points="229.664,143.896 230.634,141.157 219.624,141.157 218.654,143.896 				"/>
				<path class="st6" d="M167.165,138.145l0.924-2.635h10.702c-0.981,3.993-4.039,8.694-4.484,8.968
					c0.091,1.335,3.468,3.548,3.468,3.548l-1.107,2.978c-1.689-0.628-4.313-3.959-4.404-4.313
					c-2.795,2.533-6.343,3.731-10.382,3.856l1.118-3.103c5.682-0.662,9.23-3.446,11.626-9.31h-7.462V138.145z"/>
			</g>
			<g>
				<path class="st6" d="M35.253,86.519l-0.217,0.194l-14.273,40.32H8.019l27.793-72.357h13.816l-5.146,40.422h0.228l14.227-40.422
					h12.687l-27.793,72.357H30.141L35.253,86.519z"/>
				<path class="st6" d="M78.39,54.54h13.337l-20.947,54.536c-1.609,4.678-1.803,6.903,2.054,7.005
					c4.792,0.103,6.286-4.393,7.473-7.484l20.765-54.056h13.337l-20.091,52.322c-4.701,12.231-8.466,21.974-26.378,21.689
					c-10.987-0.171-15.334-6.845-9.641-21.689L78.39,54.54z"/>
				<path class="st6" d="M93.211,127.558l27.781-72.357h18.859l-9.515,42.739h0.16l23.537-42.739h18.745l-27.793,72.357h-12.824
					l23.16-56.715h-0.148l-31.192,56.715h-9.937l12.584-56.715h-0.148l-20.559,56.715L93.211,127.558L93.211,127.558z"/>
				<path class="st6" d="M188.99,66.28c4.746,0,9.059-1.027,5.225,9.127c-3.776,10.006-6.161,7.815-12.253,8.306L188.99,66.28z
					 M177.342,96.879c4.758,0,9.584-0.753,5.75,9.401c-3.788,10.006-3.891,9.892-13.451,9.892L177.342,96.879z M171.648,127.501
					c19.122,0.993,21.883-11.797,24.678-19.681c3.012-8.454,4.564-14.284-0.867-18.494l0.08-0.194
					c8.682-4.609,10.234-8.146,12.687-14.512c5.602-14.581-1.175-19.453-11.318-19.453h-17.33l-27.804,72.391L171.648,127.501z"/>
				<path class="st6" d="M193.794,127.775l28.123-72.767h30.611l-4.233,11.546h-17.273l-7.074,18.049h16.737l-4.461,11.375h-16.726
					l-7.576,20.468h18.175l-4.792,11.329L193.794,127.775L193.794,127.775z"/>
				<path class="st6" d="M255.768,99.263h4.438c3.023,0.285,2.978,3.183,1.654,7.61c-1.312,4.427-3.913,10.405-6.127,16.76
					c-0.479,1.449-0.696,2.795-0.833,4.142h15.391l-0.411-0.958c-0.342-0.673-0.399-1.54-0.331-2.521
					c1.015-4.621,5.716-17.045,7.553-22.818c1.689-5.009,0.297-8.294-3.023-9.355l0.068-0.205
					c6.891-3.274,10.439-8.785,13.417-16.532c5.522-14.398,2.202-19.989-8.762-19.989h-19.532l-27.804,72.368h13.337L255.768,99.263
					z"/>
				<path class="st6" d="M312.597,80.564h13.554c3.331-6.606,4.906-12.276,3.56-17.707c-1.78-7.142-16.475-12.094-28.899-3.845
					c-14.239,9.447-8.021,27.61-4.678,32.527c3.662,5.396,9.812,11.478,5.784,20.046c-1.084,2.305-2.179,4.13-3.446,5.02
					c-3.138,2.236-10.063,2.145-6.777-5.705c3.035-7.279,3.115-8.135,3.115-8.135h-13.565c-2.887,6.48-9.447,20.434,1.221,24.838
					c10.668,4.393,24.301,2.134,29.002-4.176c4.119-5.499,9.892-16.931,2.898-28.363c-7.005-11.432-12.231-16.703-5.568-25.944
					C311.593,66.165,320.925,65.937,312.597,80.564z"/>
			</g>
			<polygon class="st7" points="6.467,124.124 259.191,77.575 237.171,103.918 264.382,80.164 264.815,92.692 269.573,80.598 
				282.522,96.582 274.753,78.864 286.846,84.488 277.342,74.551 330.92,62.013 330.589,60.187 277.342,68.071 287.713,55.11 
				272.596,66.337 272.596,50.786 266.972,66.337 255.312,51.208 262.659,68.493 232.413,52.509 259.636,72.383 6.034,122.07 			"/>
			<g>
				<path class="st5" d="M388.832,51.459h-23.069l-56.178,60.605l-5.887,17.353l36.772-0.297l-7.941,19.407h17.947l7.735-18.232
					h10.211l7.062-17.353h-10.588L388.832,51.459z M346.641,113.536h-17.947l32.094-33.246L346.641,113.536z"/>
			</g>
			<path class="st6" d="M192.653,138.237l1.004-2.807h12.676c-1.552,7.541-5.111,15.106-16.418,15.265l0.719-2.875
				c6.047-0.719,10.086-3.24,11.672-9.572h-9.652V138.237z"/>
			<path class="st6" d="M217.947,140.678h-2.841l0.89-2.635h-3.138l-0.89,2.635h-5.408l-0.844,2.578h4.107
				c-2.419,3.206-5.499,4.13-6.275,4.518l-0.696,2.544c2.578-0.536,6.035-2.384,7.37-4.187l-1.757,3.856h3.08l2.647-6.731h2.898
				L217.947,140.678z"/>
		</g>
		<rect x="0.1" y="0.01" class="st8" width="400" height="184"/>
	</g>
</g>
</svg>
