<svg id="レイヤー_1" data-name="レイヤー 1" xmlns="http://www.w3.org/2000/svg" viewBox="0 0 464 260">
  <defs>
    <style>
      .cls-1 {
        fill: #ffb819;
      }

      .cls-2 {
        fill: #fff;
      }

      .cls-3 {
        fill: #1f3c95;
      }
    </style>
  </defs>
  <title>logo-loto-001</title>
  <g>
    <polygon class="cls-1" points="402 202.472 401.96 57.528 199.859 85.147 199.783 176.619 402 202.472"/>
    <polygon class="cls-2" points="234.004 177.605 234.173 157.639 219.472 156.09 227.983 138.471 214.294 130.796 228.133 123.258 220.831 106.946 234.407 110.382 234.227 84.39 245.422 104.071 257.387 81.04 257.685 107.759 280.512 96.514 266.111 121.534 290.783 130.487 266.141 139.784 280.311 164.831 257.733 153.91 257.285 180.539 245.354 157.666 234.004 177.605"/>
    <g>
      <path class="cls-3" d="M332.754,151.07l-30.988-1.981-.021-35.544,30.991-2.744Zm-7.707-30.889L308.1,121.1l.006,20.266,16.958.51Z"/>
      <path class="cls-3" d="M343.648,152.045l-.027-43.1,8.795-.821.005,13.8,31.19.473.013,10.878-31.157-1.557.013,20.919Z"/>
    </g>
    <g>
      <path class="cls-3" d="M117.378,178.847,62,184.668v-.527c7.012-6.053,6.024-15.6,6.024-24.555V95.2c0-8.953.988-18.623-6.024-25.05V69.62L97.909,75.3v.483C91.818,79.87,92.7,89.244,92.7,97.851V163.1c3.984,2.172,8.494,2.191,12.79,1.9a21.9,21.9,0,0,0,16.062-7.7Z"/>
      <path class="cls-3" d="M163.3,134.732c0,5.769-.494,11.788-2.636,16.6-2.319,5.254-5.952,8.755-9.979,9.047-4.462.33-8.483-4.18-10.784-10.169a77.823,77.823,0,0,1-3.941-23.732c0-13.3,4.354-27.45,13.8-26.226C160.084,101.588,163.3,121.311,163.3,134.732Zm16.25-3.67c0-27.547-11.852-44.7-29.632-47.63C130.862,80.3,112.868,97,112.868,129.376c0,31.922,16.6,50.207,35.982,48.073C166.173,175.54,179.547,158.235,179.547,131.062Z"/>
      <path class="cls-3" d="M214.364,112.272c-1-3.9-3.109-5.24-5.584-5.5a7.5,7.5,0,0,0-3.578.325v46.137c0,6.559.072,11.729,3.09,16.049v.344l-20.03,1.876v-.365c3.809-4.065,3.267-10.857,3.267-17.09V105.724a11.171,11.171,0,0,0-3.9-.878c-3.667-.373-6.016.744-9.146,3.675l-.583.572,3.222-18.757,1.546.588,34.019,4.795Z"/>
      <path class="cls-3" d="M245.427,135.854c0,4.416-.316,9.028-1.686,12.7-1.48,3.987-3.788,6.61-6.322,6.782-2.8.182-5.3-3.267-6.72-7.791a70.206,70.206,0,0,1-2.43-17.809c0-9.963,2.684-20.674,8.561-19.973C243.371,110.53,245.427,125.569,245.427,135.854ZM256.241,133c0-21.337-7.915-34.274-19.538-35.979-12.132-1.78-23.3,11.114-23.3,35.039,0,23.587,10.3,37.442,22.612,36.234C247.314,167.183,256.241,154.044,256.241,133Z"/>
    </g>
  </g>
</svg>
