<?xml version="1.0" encoding="utf-8"?>
<!-- Generator: Adobe Illustrator 23.1.0, SVG Export Plug-In . SVG Version: 6.00 Build 0)  -->
<svg version="1.1" xmlns="http://www.w3.org/2000/svg" xmlns:xlink="http://www.w3.org/1999/xlink" x="0px" y="0px"
	 viewBox="0 0 320 160" style="enable-background:new 0 0 320 160;" xml:space="preserve">
<style type="text/css">
	.st0{display:none;}
	.st1{display:inline;}
	.st2{fill:#F29600;}
	.st3{fill:#FFFFFF;}
	.st4{fill:#E60012;}
	.st5{fill:#1D2088;}
	.st6{fill:#3B0000;}
	.st7{fill:#530000;}
	.st8{fill:url(#SVGID_1_);}
	.st9{fill:url(#SVGID_2_);}
	.st10{fill:#F39800;}
	.st11{fill:url(#SVGID_3_);}
	.st12{fill:url(#SVGID_4_);}
	.st13{fill:none;}
</style>
<g id="レイヤー_1" class="st0">
	<title>logo-loto7notxt-001</title>
	<g class="st1">
		<polygon class="st2" points="256.6,137.931 256.6,55.64 141.789,71.33 141.746,123.293 		"/>
		<polygon class="st3" points="161.191,123.852 161.286,112.512 152.931,111.63 157.766,101.623 149.989,97.261 157.85,92.98 
			153.682,83.644 161.415,85.664 161.317,70.901 167.673,82.08 174.472,68.996 174.641,84.175 187.609,77.786 179.43,92.001 
			193.446,97.087 179.447,102.37 187.494,116.596 174.669,110.395 174.415,125.52 167.637,112.525 		"/>
		<g>
			<polygon class="st4" points="185.203,50.273 181.247,49.264 178.958,52.392 178.8,48.641 174.845,47.633 178.705,46.321 
				178.549,42.57 181.092,45.512 184.951,44.202 182.663,47.331 			"/>
			<polygon class="st2" points="175.54,35.19 173.984,39.34 177.823,41.955 173.024,41.906 171.472,46.058 170.06,41.875 
				165.263,41.826 169.187,39.291 167.776,35.11 171.613,37.725 			"/>
			<polygon class="st5" points="162.169,27.624 161.694,32.615 166.744,34.548 161.401,35.699 160.927,40.69 158.098,36.412 
				152.756,37.561 156.35,33.767 153.523,29.484 158.572,31.421 			"/>
			<polygon class="st4" points="145.173,22.532 146.026,28.107 152.098,29.067 146.551,31.554 147.404,37.13 143.122,33.091 
				137.577,35.577 140.478,30.592 136.198,26.553 142.273,27.512 			"/>
			<polygon class="st2" points="124.971,20.865 127.375,26.715 134.221,26.411 128.861,30.333 131.266,36.187 125.547,32.76 
				120.187,36.679 122.014,30.638 116.296,27.209 123.143,26.905 			"/>
			<polygon class="st5" points="101.283,24.096 106.4,30.007 114.184,27.332 109.562,33.665 114.679,39.576 106.706,37.578 
				102.081,43.907 101.776,36.341 93.803,34.341 101.588,31.663 			"/>
			<polygon class="st4" points="87.981,61.575 82.573,52.938 71.854,55.06 79.231,47.599 73.821,38.962 83.79,42.987 91.167,35.528 
				89.95,45.476 99.917,49.504 89.199,51.626 			"/>
		</g>
		<g>
			<path class="st5" d="M94.944,124.532l-31.459,3.347v-0.3c3.977-3.442,3.411-8.87,3.4-13.957l-0.045-36.58
				c-0.007-5.088,0.547-10.583-3.44-14.228v-0.3l20.405,3.2v0.278c-3.458,2.324-2.95,7.651-2.944,12.541l0.048,37.07
				c2.264,1.233,4.827,1.24,7.267,1.072c3.525-0.104,6.84-1.698,9.121-4.388L94.944,124.532z"/>
			<path class="st5" d="M121,99.436c0,3.277-0.273,6.7-1.486,9.432c-1.315,2.985-3.376,4.975-5.664,5.147
				c-2.534,0.19-4.822-2.37-6.135-5.77c-1.446-4.35-2.208-8.898-2.257-13.482c-0.008-7.555,2.456-15.6,7.818-14.909
				C119.152,80.607,120.993,91.812,121,99.436z M130.228,97.336c-0.02-15.65-6.766-25.39-16.871-27.037
				c-10.828-1.769-21.04,7.735-21.015,26.13c0.021,18.135,9.468,28.514,20.477,27.285c9.848-1.097,17.434-10.941,17.413-26.377
				L130.228,97.336z"/>
			<path class="st5" d="M150,86.634c-0.574-2.213-1.77-2.973-3.177-3.115c-0.682-0.103-1.379-0.04-2.031,0.185l0.033,26.213
				c0.006,3.726,0.048,6.664,1.767,9.119v0.195l-11.378,1.079v-0.21c2.159-2.312,1.848-6.171,1.842-9.711l-0.035-27.46
				c-0.702-0.297-1.452-0.467-2.214-0.5c-2.082-0.209-3.418,0.426-5.194,2.093l-0.329,0.326L131.1,74.2l0.877,0.333l19.334,2.7
				L150,86.634z"/>
			<path class="st5" d="M167.67,100.011c0.097,2.44-0.225,4.879-0.952,7.211c-0.836,2.271-2.142,3.763-3.585,3.859
				c-1.589,0.11-3.013-1.851-3.824-4.419c-0.897-3.298-1.365-6.698-1.393-10.116c-0.007-5.661,1.507-11.75,4.85-11.356
				C166.481,85.623,167.661,94.168,167.67,100.011z M173.812,98.383c-0.016-12.126-4.523-19.469-11.129-20.428
				c-6.9-1-13.234,6.331-13.215,19.925c0.016,13.4,5.876,21.266,12.877,20.569C168.766,117.808,173.827,110.338,173.812,98.383z"/>
		</g>
		<g>
			<path class="st6" d="M220.642,59.768l-30.923,0.046l-0.848,6.019l1.327,0.49l5.642,2.092c0,0,0.128-4.267,11.131-4.671
				l23.65-0.924L220.642,59.768z"/>
			<path class="st7" d="M219.246,56.508l3.141,3.26l-16.342,0.838c-13.839,0.7-13.554,6.532-13.554,6.568l-3.62-1.341l0.848-6.019
				L219.246,56.508z"/>
			
				<linearGradient id="SVGID_1_" gradientUnits="userSpaceOnUse" x1="221.0777" y1="95.1998" x2="248.6346" y2="36.1039" gradientTransform="matrix(1 0 0 -1 0 162)">
				<stop  offset="0" style="stop-color:#530000"/>
				<stop  offset="0.25" style="stop-color:#7D0000"/>
				<stop  offset="0.451" style="stop-color:#A30000"/>
				<stop  offset="0.7" style="stop-color:#7D0000"/>
				<stop  offset="1" style="stop-color:#530000"/>
			</linearGradient>
			<path class="st8" d="M232.48,121.833c-0.043-13.966,1.762-28.138,6.524-41.318c2.517-7.061,5.933-13.769,10.163-19.958
				l-5.979-4.067c-8.028,10-12.9,22.96-16.156,35.568c-3.222,13.081-4.783,26.516-4.645,39.988c0.125,1.924,0.387,3.837,0.784,5.724
				l9.356-11.143C232.484,125.027,232.48,123.427,232.48,121.833"/>
			
				<linearGradient id="SVGID_2_" gradientUnits="userSpaceOnUse" x1="216.0376" y1="96.1183" x2="243.4606" y2="37.3103" gradientTransform="matrix(1 0 0 -1 0 162)">
				<stop  offset="0.005" style="stop-color:#530000"/>
				<stop  offset="0.2" style="stop-color:#7D0000"/>
				<stop  offset="0.4" style="stop-color:#A30000"/>
				<stop  offset="0.65" style="stop-color:#7D0000"/>
				<stop  offset="1" style="stop-color:#530000"/>
			</linearGradient>
			<path class="st9" d="M223.082,133.785c-0.258-14.076,1.308-28.126,4.658-41.8c3.133-12.61,8.355-24.608,15.448-35.495
				l-3.908-2.035c-3.493,5.522-7.487,11.24-10.059,17.249c-2.451,5.786-4.5,11.733-6.135,17.8
				c-3.28,12.412-5.075,25.17-5.348,38.006c0.086,3.888,0.395,7.768,0.927,11.621l4.506-1.365c-0.044-1.327-0.089-2.656-0.089-3.985
				"/>
			<polygon class="st6" points="249.167,41.754 242.225,31.016 239.28,30.868 239.28,54.455 243.188,56.49 249.167,60.557 			"/>
			<path class="st4" d="M239.28,30.868L188.9,44.7l-0.029,21.131c0,0,2.956-5.051,11.14-6.8l0,0l18.8-2.238
				c0.626,0.462,0.971,1.214,0.912,1.99c-0.118,1.262-0.429,2.499-0.923,3.666c-0.588,1.6-1.434,3.637-2.5,6.264
				c-1.057,2.6-2.315,5.757-3.741,9.622c-2.684,7.11-4.803,14.42-6.339,21.863c-1.426,6.774-2.337,13.118-2.974,18.491
				c-0.624,5.3-0.985,9.7-1.3,12.648c-0.317,2.921-0.374,5.522-0.374,5.522l17.091,2.279c-0.207-6.06-0.109-12.126,0.294-18.176
				c0.448-7.048,1.332-14.061,2.648-21c1.447-7.621,3.519-15.11,6.195-22.391c2.983-8.096,6.832-15.847,11.48-23.116V30.868z"/>
		</g>
	</g>
</g>
<g id="レイヤー_2" class="st0">
</g>
<g id="レイヤー_3">
	<g>
		<g>
			<g>
				<polygon class="st10" points="256.716,129.249 256.716,47.085 142.078,62.748 142.033,114.634 				"/>
			</g>
			<g>
				<g>
					<polygon class="st3" points="161.451,115.19 161.542,103.87 153.199,102.991 158.031,92.999 150.262,88.643 158.116,84.367 
						153.954,75.044 161.672,77.063 161.576,62.323 167.922,73.484 174.71,60.418 174.88,75.577 187.828,69.197 179.661,83.392 
						193.658,88.467 179.678,93.742 187.714,107.948 174.909,101.755 174.654,116.858 167.888,103.882 					"/>
				</g>
			</g>
			<g>
				<g>
					<path class="st5" d="M125.768,147.386l-16.021,0.006l-0.006-15.602l16.016-0.006L125.768,147.386z M122.149,135.255h-8.785
						l0.006,8.66l8.785-0.006L122.149,135.255z"/>
					<path class="st5" d="M128.864,147.579l-0.006-16.276h3.692v5.047l11.405,0.499v3.579l-11.388-0.499l0.006,7.65L128.864,147.579
						L128.864,147.579z"/>
				</g>
				<path class="st5" d="M155.797,142.707v-3.471c0.941-0.278,2.393-1.072,3.023-2.359h-6.391v5.7c0,0.992,0.459,1.446,1.645,1.446
					h9.165v3.562h-9.72c-3.771,0-5.013-1.316-5.013-4.276v-6.431h-2.331v-3.55h2.331v-2.478h3.924v2.478h11.155
					C163.527,138.771,160.271,142.106,155.797,142.707z"/>
				<path class="st5" d="M181.516,134.223c0,8.274-3.425,13.497-14.127,13.497v-3.51c8.053,0,9.085-3.845,9.76-9.119h-11.785v-3.601
					h12.828v2.734H181.516z"/>
				<path class="st5" d="M185.072,135.147v-3.715l8.688,0.698v3.811L185.072,135.147z M185.395,147.624v-3.754
					c7.231-0.465,11.348-2.325,11.768-9.681h4.191C200.894,143.739,195.461,147.493,185.395,147.624z"/>
			</g>
			<rect x="181.402" y="129.589" class="st5" width="2.274" height="4.123"/>
			<rect x="178.674" y="129.589" class="st5" width="2.274" height="4.123"/>
			<g>
				<polygon class="st4" points="185.423,41.725 181.476,40.716 179.191,43.841 179.032,40.092 175.085,39.088 178.935,37.778 
					178.782,34.035 181.317,36.973 185.174,35.663 182.888,38.788 				"/>
				<polygon class="st10" points="175.776,26.663 174.223,30.808 178.056,33.417 173.264,33.372 171.716,37.517 170.304,33.338 
					165.517,33.292 169.436,30.757 168.024,26.583 171.858,29.198 				"/>
				<polygon class="st5" points="162.426,19.108 161.95,24.093 166.992,26.022 161.661,27.173 161.184,32.158 158.36,27.882 
					153.029,29.033 156.613,25.245 153.795,20.969 158.837,22.903 				"/>
				<polygon class="st4" points="145.458,14.027 146.309,19.591 152.371,20.549 146.831,23.033 147.681,28.602 143.405,24.57 
					137.87,27.048 140.768,22.075 136.492,18.042 142.56,19.001 				"/>
				<polygon class="st10" points="125.286,12.36 127.685,18.201 134.518,17.9 129.17,21.814 131.569,27.661 125.858,24.235 
					120.505,28.148 122.331,22.12 116.62,18.694 123.459,18.394 				"/>
				<polygon class="st5" points="101.631,15.587 106.741,21.49 114.51,18.819 109.9,25.143 115.004,31.046 107.047,29.05 
					102.431,35.368 102.124,27.814 94.162,25.818 101.937,23.141 				"/>
				<polygon class="st4" points="88.349,53.011 82.95,44.385 72.248,46.506 79.61,39.054 74.211,30.428 84.164,34.449 
					91.531,27.003 90.317,36.933 100.264,40.954 89.563,43.075 				"/>
			</g>
			<g>
				<path class="st5" d="M95.302,115.871l-31.413,3.34v-0.301c3.97-3.437,3.408-8.858,3.397-13.934l-0.045-36.528
					c-0.006-5.081,0.544-10.565-3.437-14.206v-0.301l20.377,3.193v0.278c-3.454,2.32-2.943,7.639-2.938,12.522l0.051,37.016
					c2.263,1.231,4.821,1.236,7.253,1.072c3.618-0.244,6.369-1.384,9.108-4.384L95.302,115.871z"/>
				<path class="st5" d="M121.321,90.815c0,3.272-0.272,6.686-1.486,9.42c-1.316,2.983-3.369,4.968-5.654,5.138
					c-2.529,0.187-4.815-2.365-6.125-5.762c-1.333-3.59-2.246-9.216-2.251-13.463c-0.011-7.543,2.45-15.573,7.804-14.887
					C119.473,72.015,121.31,83.199,121.321,90.815z M130.537,88.717c-0.023-15.624-6.754-25.35-16.844-26.995
					c-10.809-1.764-21.006,7.724-20.983,26.093c0.023,18.108,9.454,28.469,20.445,27.245
					C122.983,113.96,130.56,104.131,130.537,88.717z"/>
				<path class="st5" d="M150.273,78.032c-0.573-2.212-1.769-2.966-3.17-3.108c-0.715-0.074-1.35-0.074-2.03,0.187l0.034,26.173
					c0.006,3.72,0.045,6.652,1.764,9.102v0.193l-11.359,1.078v-0.204c2.155-2.308,1.843-6.165,1.837-9.698l-0.034-27.42
					c-0.749-0.346-1.412-0.414-2.212-0.493c-2.081-0.21-3.414,0.425-5.183,2.093l-0.329,0.323l1.815-10.639l0.879,0.335
					l19.305,2.694L150.273,78.032z"/>
				<path class="st5" d="M167.916,91.388c0.006,2.507-0.17,5.121-0.953,7.202c-0.834,2.268-2.138,3.76-3.579,3.856
					c-1.588,0.108-3.006-1.849-3.817-4.412c-0.822-2.705-1.389-6.919-1.389-10.1c-0.006-5.654,1.503-11.734,4.843-11.337
					C166.731,77.023,167.91,85.552,167.916,91.388z M174.052,89.76c-0.017-12.108-4.514-19.441-11.11-20.399
					c-6.885-0.998-13.214,6.323-13.197,19.895c0.017,13.378,5.87,21.233,12.857,20.541
					C169.011,109.156,174.064,101.698,174.052,89.76z"/>
			</g>
			<g>
				<path class="st6" d="M220.812,51.208l-30.874,0.045l-0.845,6.011l1.327,0.488l5.632,2.087c0,0,0.125-4.259,11.116-4.662
					l23.615-0.924L220.812,51.208z"/>
				<g>
					<path class="st7" d="M219.416,47.952l3.136,3.255l-16.316,0.839c-13.821,0.698-13.537,6.522-13.537,6.556l-3.613-1.338
						l0.845-6.011L219.416,47.952z"/>
				</g>
				
					<linearGradient id="SVGID_3_" gradientUnits="userSpaceOnUse" x1="221.2455" y1="103.7767" x2="248.7602" y2="44.7712" gradientTransform="matrix(1 0 0 -1 0 162)">
					<stop  offset="0" style="stop-color:#530000"/>
					<stop  offset="0.25" style="stop-color:#7D0000"/>
					<stop  offset="0.4505" style="stop-color:#A40000"/>
					<stop  offset="0.7" style="stop-color:#7D0000"/>
					<stop  offset="1" style="stop-color:#530000"/>
				</linearGradient>
				<path class="st11" d="M232.63,113.177c-0.045-13.946,1.758-28.095,6.516-41.258c2.541-7.027,5.898-13.775,10.146-19.929
					l-5.972-4.061c-8.013,9.981-12.885,22.923-16.129,35.513c-3.352,12.998-4.639,26.53-4.639,39.925
					c0,1.906,0.783,5.717,0.783,5.717l9.34-11.127C232.636,116.37,232.63,114.771,232.63,113.177"/>
				
					<linearGradient id="SVGID_4_" gradientUnits="userSpaceOnUse" x1="216.2145" y1="104.6904" x2="243.5962" y2="45.9704" gradientTransform="matrix(1 0 0 -1 0 162)">
					<stop  offset="0.0055" style="stop-color:#530000"/>
					<stop  offset="0.2" style="stop-color:#7D0000"/>
					<stop  offset="0.4" style="stop-color:#A40000"/>
					<stop  offset="0.65" style="stop-color:#7D0000"/>
					<stop  offset="1" style="stop-color:#530000"/>
				</linearGradient>
				<path class="st12" d="M223.25,125.109c-0.136-14.014,1.185-28.141,4.65-41.74c3.193-12.55,8.28-24.613,15.426-35.439
					l-3.902-2.03c-3.488,5.512-7.475,11.223-10.044,17.223c-2.473,5.773-4.469,11.722-6.125,17.779
					c-3.374,12.329-4.968,25.186-5.342,37.952c-0.113,3.856,0.924,11.603,0.924,11.603l4.497-1.361
					C223.296,127.763,223.25,126.436,223.25,125.109"/>
				<polygon class="st6" points="249.292,33.218 242.362,22.494 239.419,22.347 239.419,45.899 243.321,47.935 249.292,51.996 				
					"/>
				<path class="st4" d="M239.419,22.347l-50.304,13.815l-0.028,21.103c0,0,2.949-5.042,11.121-6.794c0,0,0,0,0.006,0l18.777-2.234
					c0.635,0.499,0.924,1.1,0.907,1.985c-0.011,0.885-0.335,2.047-0.919,3.658c-0.584,1.599-1.435,3.63-2.501,6.255
					c-1.055,2.592-2.314,5.751-3.737,9.607c-2.853,7.452-4.872,14.904-6.329,21.829c-1.423,6.766-2.337,13.101-2.972,18.465
					c-0.624,5.291-0.981,9.686-1.299,12.63c-0.318,2.915-0.374,5.512-0.374,5.512l17.065,2.274
					c-0.187-5.751-0.142-11.53,0.295-18.148c0.437-6.709,1.27-13.781,2.643-20.972c1.412-7.344,3.414-14.876,6.187-22.35
					c2.864-7.736,6.601-15.511,11.462-23.082L239.419,22.347L239.419,22.347z"/>
			</g>
		</g>
		<rect x="0.12" y="0.04" class="st13" width="320" height="160"/>
	</g>
</g>
</svg>
