<?xml version="1.0" encoding="utf-8"?>
<!-- Generator: Adobe Illustrator 23.1.0, SVG Export Plug-In . SVG Version: 6.00 Build 0)  -->
<svg version="1.1" xmlns="http://www.w3.org/2000/svg" xmlns:xlink="http://www.w3.org/1999/xlink" x="0px" y="0px"
	 viewBox="0 0 400 184" style="enable-background:new 0 0 400 184;" xml:space="preserve">
<style type="text/css">
	.st0{display:none;}
	.st1{display:inline;}
	.st2{fill:#CCCCCC;}
	.st3{fill:#004097;}
	.st4{fill:#F29600;}
	.st5{fill:#E62E8B;}
	.st6{fill:none;}
	.st7{fill:#004098;}
	.st8{fill:#F39800;}
</style>
<g id="レイヤー_1" class="st0">
	<title>logo-numbers3-400x184-001</title>
	<g class="st1">
		<g>
			<g>
				<path class="st2" d="M322.309,84.653h13.549c3.326-6.594,4.893-12.267,3.547-17.688c-1.773-7.141-16.463-12.085-28.871-3.84
					c-14.228,9.443-8.02,27.59-4.671,32.509c3.668,5.381,9.792,11.453,5.774,20.019c-1.082,2.307-2.175,4.125-3.443,5.024
					c-3.133,2.233-10.051,2.14-6.773-5.713c3.031-7.26,3.108-8.127,3.108-8.127H290.98c-2.9,6.488-9.444,20.435,1.218,24.828
					c10.662,4.393,24.284,2.121,28.992-4.178c4.113-5.491,9.888-16.916,2.892-28.337s-12.218-16.7-5.555-25.922
					C321.3,70.262,330.637,70.043,322.309,84.653z"/>
				<path class="st2" d="M45.166,90.592l-0.234,0.192l-14.248,40.3H17.943l27.777-72.3h13.808l-5.138,40.38h0.23l14.22-40.389
					h12.679l-27.769,72.3H40.072L45.166,90.592z"/>
				<path class="st2" d="M88.269,58.643H101.6l-20.941,54.5c-1.611,4.682-1.8,6.9,2.05,6.987c4.777,0.106,6.289-4.393,7.47-7.479
					l20.744-54.009h13.323l-20.074,52.281c-4.7,12.235-8.452,21.958-26.362,21.678c-10.981-0.168-15.324-6.849-9.633-21.678
					L88.269,58.643z"/>
				<path class="st2" d="M103.079,131.6l27.773-72.3h18.842l-9.508,42.7h0.153l23.528-42.7H182.6l-27.772,72.3h-12.81l23.139-56.668
					H165L133.828,131.6h-9.939l12.588-56.668h-0.153L115.78,131.6H103.079z"/>
				<path class="st2" d="M181.46,131.553c19.291,0.015,21.866-11.79,24.651-19.664c3.006-8.455,4.561-14.277-0.867-18.478l0.075-0.2
					c8.687-4.605,10.238-8.128,12.679-14.489c5.6-14.566-1.176-19.434-11.3-19.434h-17.32L161.6,131.607L181.46,131.553z
					 M198.78,70.375c4.759,0,9.057-1.039,5.228,9.116c-3.778,9.993-6.16,7.811-12.241,8.3L198.78,70.375z M187.158,100.956
					c4.747,0,9.578-0.75,5.746,9.4c-3.786,9.993-3.891,9.881-13.44,9.881L187.158,100.956z"/>
				<path class="st2" d="M203.582,131.822L231.69,59.1h30.581l-4.223,11.546h-17.254l-7.079,18.037h16.723l-4.445,11.371H229.27
					l-7.577,20.446h18.168l-4.783,11.32L203.582,131.822z"/>
				<path class="st2" d="M265.528,103.332h4.423c3.024,0.284,2.981,3.173,1.661,7.6s-3.912,10.39-6.127,16.744
					c-0.429,1.347-0.707,2.738-0.831,4.146h15.374l-0.407-0.972c-0.337-0.787-0.454-1.651-0.339-2.5
					c1.024-4.615,5.712-17.035,7.556-22.806c1.691-5.013,0.291-8.289-3.028-9.352l0.077-0.193
					c6.883-3.272,10.442-8.78,13.414-16.519c5.52-14.391,2.2-19.976-8.758-19.976h-19.517l-27.777,72.315h13.332L265.528,103.332z"
					/>
			</g>
			<g>
				<path class="st3" d="M40.528,86.7l-0.222,0.2L26.05,127.188H13.3L41.078,54.9h13.811l-5.144,40.381h0.234L64.2,54.9h12.681
					l-27.773,72.288H35.431L40.528,86.7z"/>
				<path class="st3" d="M83.621,54.76h13.33l-20.93,54.5c-1.618,4.678-1.8,6.9,2.058,6.992c4.773,0.1,6.278-4.394,7.454-7.48
					l20.748-54.012h13.324l-20.071,52.28c-4.7,12.231-8.463,21.955-26.366,21.674c-10.978-0.17-15.327-6.842-9.629-21.674
					L83.621,54.76z"/>
				<path class="st3" d="M98.438,127.716l27.772-72.3h18.839l-9.5,42.7h0.157l23.535-42.7h18.727l-27.777,72.3h-12.814l23.134-56.67
					h-0.149l-31.183,56.67h-9.927l12.58-56.67h-0.146l-20.548,56.67H98.438z"/>
				<path class="st3" d="M194.146,66.492c4.758,0,9.054-1.035,5.221,9.111c-3.778,9.993-6.161,7.815-12.246,8.3L194.146,66.492z
					 M182.51,97.065c4.75,0,9.577-0.746,5.749,9.407c-3.779,9.991-3.888,9.878-13.437,9.878L182.51,97.065z M176.815,127.665
					c19.113,0.991,21.871-11.778,24.661-19.661c3-8.45,4.555-14.271-0.874-18.48l0.083-0.189
					c8.675-4.612,10.235-8.132,12.676-14.493c5.591-14.562-1.173-19.44-11.3-19.44h-17.32l-27.784,72.333L176.815,127.665z"/>
				<path class="st3" d="M198.944,127.934l28.1-72.711h30.581L253.4,66.761h-17.252L229.084,84.8H245.8l-4.451,11.368h-16.724
					l-7.578,20.449h18.169l-4.783,11.319L198.944,127.934z"/>
				<path class="st3" d="M260.886,99.448h4.424c3.02,0.288,2.98,3.174,1.668,7.6s-3.923,10.391-6.135,16.745
					c-0.43,1.344-0.708,2.731-0.827,4.137h15.374l-0.407-0.957c-0.339-0.789-0.455-1.656-0.335-2.507
					c1.009-4.619,5.7-17.035,7.544-22.81c1.7-5.014,0.3-8.289-3.02-9.342l0.072-0.2c6.887-3.279,10.44-8.784,13.419-16.515
					c5.524-14.394,2.2-19.983-8.763-19.983h-19.511l-27.781,72.314h13.335L260.886,99.448z"/>
				<path class="st3" d="M317.663,80.77h13.554c3.326-6.588,4.9-12.271,3.548-17.689c-1.774-7.137-16.464-12.091-28.873-3.848
					c-14.22,9.452-8.023,27.6-4.674,32.513c3.668,5.385,9.8,11.458,5.77,20.02c-1.071,2.306-2.167,4.131-3.432,5.024
					c-3.14,2.226-10.055,2.146-6.779-5.709c3.03-7.261,3.115-8.128,3.115-8.128h-13.554c-2.885,6.482-9.44,20.432,1.216,24.822
					s24.283,2.13,29-4.172c4.1-5.487,9.883-16.916,2.884-28.334s-12.212-16.7-5.552-25.925C316.658,66.375,326,66.156,317.663,80.77
					z"/>
			</g>
			<polygon class="st4" points="11.761,124.288 264.301,77.771 242.288,104.112 269.485,80.368 269.922,92.883 274.669,80.795 
				287.621,96.771 279.846,79.068 291.93,84.682 282.437,74.751 335.966,62.236 335.643,60.4 282.437,68.273 292.798,55.321 
				277.686,66.549 277.686,51 272.079,66.549 260.42,51.437 267.761,68.714 237.544,52.738 264.741,72.59 11.327,122.237 			"/>
			<path class="st2" d="M332.076,86.584L332.076,86.584c4.965-15.536,12.315-29.886,37.57-29.424
				c11.654,0.215,22.223,7.768,18.128,21.157s-11,22.439-20.731,24.177c7.338,1.508,11.66,10.565,4.537,25.9
				c-7.122,15.32-16.618,26.326-38.852,24.384s-19.628-21.148-14.679-31.514h19.43c-3.028,6.912-5.4,21.052,7.553,14.46
				c4.1-2.586,7.552-10.791,8.634-15.968s-0.645-9.062-5.826-9.062h-8.64l6.263-15.33c17.371,2.813,25.04-13.276,23.1-19.852
				c-0.331-3.676-9.932-6.376-16.843,11.072H332.076z"/>
			<path class="st5" d="M327.124,82.161L327.124,82.161c4.952-15.538,12.3-29.893,37.551-29.423
				c11.656,0.207,22.229,7.767,18.133,21.153S371.8,96.333,362.082,98.06c7.337,1.508,11.658,10.58,4.536,25.9
				S350,150.3,327.759,148.355S308.122,127.2,313.1,116.841h19.422c-3.02,6.912-5.393,21.043,7.548,14.46
				c4.107-2.587,7.56-10.791,8.635-15.969s-0.648-9.063-5.829-9.063h-8.635l6.259-15.327c17.374,2.805,25.029-13.277,23.091-19.864
				c-0.321-3.661-9.928-6.361-16.832,11.083H327.124z"/>
		</g>
	</g>
</g>
<g id="レイヤー_2" class="st0">
</g>
<g id="レイヤー_3">
	<rect x="0.04" y="0.1" class="st6" width="400" height="184"/>
	<g>
		<g>
			<path class="st2" d="M322.388,84.966h13.549c3.33-6.592,4.893-12.271,3.547-17.688c-1.779-7.139-16.468-12.089-28.888-3.843
				c-14.233,9.443-8.017,27.599-4.676,32.514c3.672,5.383,9.796,11.462,5.782,20.026c-1.083,2.304-2.178,4.128-3.444,5.029
				c-3.136,2.235-10.059,2.144-6.774-5.714c3.034-7.265,3.113-8.131,3.113-8.131h-13.549c-2.897,6.489-9.443,20.437,1.22,24.839
				c10.675,4.391,24.292,2.121,29.002-4.185c4.117-5.497,9.888-16.924,2.897-28.352c-7.014-11.427-12.226-16.708-5.554-25.934
				C321.384,70.574,330.713,70.357,322.388,84.966z"/>
			<path class="st2" d="M45.155,90.908l-0.228,0.194l-14.256,40.304h-12.75l27.781-72.327h13.811L54.37,99.484h0.228L68.82,59.078
				h12.682L53.72,131.406H40.035L45.155,90.908z"/>
			<path class="st2" d="M88.276,58.953h13.332l-20.95,54.514c-1.608,4.687-1.802,6.9,2.053,6.991
				c4.778,0.103,6.295-4.391,7.47-7.481l20.756-54.023h13.332l-20.083,52.301c-4.71,12.237-8.451,21.965-26.367,21.68
				c-10.983-0.171-15.328-6.854-9.637-21.68L88.276,58.953z"/>
			<path class="st2" d="M103.09,131.93l27.781-72.316h18.852l-9.511,42.71h0.148l23.539-42.71h18.738l-27.781,72.316h-12.819
				l23.151-56.68h-0.148l-31.18,56.68h-9.945l12.591-56.68h-0.148l-20.551,56.68H103.09z"/>
			<path class="st2" d="M181.496,131.885c19.296,0.011,21.874-11.792,24.657-19.673c3.011-8.462,4.562-14.278-0.867-18.487
				l0.08-0.205c8.69-4.607,10.241-8.131,12.682-14.495c5.6-14.575-1.175-19.445-11.302-19.445h-17.323l-27.793,72.339
				L181.496,131.885z M198.82,70.688c4.756,0,9.055-1.038,5.235,9.124c-3.775,10.002-6.158,7.812-12.248,8.302L198.82,70.688z
				 M187.187,101.286c4.744,0,9.58-0.753,5.748,9.397c-3.786,10.002-3.889,9.888-13.446,9.888L187.187,101.286z"/>
			<path class="st2" d="M203.621,132.158l28.112-72.749h30.587l-4.22,11.553h-17.255l-7.082,18.042h16.73l-4.448,11.37h-16.73
				l-7.584,20.46h18.179l-4.79,11.325L203.621,132.158L203.621,132.158z"/>
			<path class="st2" d="M265.593,103.658h4.425c3.022,0.285,2.977,3.17,1.665,7.607c-1.312,4.436-3.912,10.39-6.136,16.753
				c-0.479,1.448-0.684,2.794-0.833,4.151H280.1l-0.411-0.969c-0.354-0.661-0.399-1.54-0.342-2.498
				c1.026-4.619,5.714-17.038,7.561-22.809c1.688-5.018,0.297-8.291-3.034-9.352l0.08-0.194c6.888-3.273,10.447-8.781,13.423-16.525
				c5.52-14.393,2.201-19.981-8.759-19.981h-19.525l-27.781,72.339h13.332L265.593,103.658z"/>
		</g>
		<g>
			<path class="st7" d="M40.514,87.019l-0.217,0.194l-14.256,40.304H13.28L41.061,55.2h13.811l-5.143,40.395h0.228L64.178,55.2
				H76.86l-27.781,72.316H35.393L40.514,87.019z"/>
			<path class="st7" d="M83.623,55.064h13.332l-20.939,54.514c-1.619,4.676-1.802,6.9,2.064,6.991
				c4.778,0.103,6.284-4.391,7.459-7.481l20.756-54.023h13.332l-20.072,52.301c-4.71,12.237-8.462,21.965-26.379,21.68
				c-10.983-0.171-15.328-6.843-9.637-21.68L83.623,55.064z"/>
			<path class="st7" d="M98.437,128.053l27.781-72.327h18.852l-9.511,42.721h0.16l23.539-42.721h18.738l-27.781,72.327h-12.819
				l23.14-56.692h-0.148l-31.191,56.692h-9.933l12.579-56.692h-0.148l-20.551,56.692H98.437z"/>
			<path class="st7" d="M194.178,66.799c4.756,0,9.055-1.038,5.223,9.112c-3.775,10.002-6.158,7.812-12.248,8.302L194.178,66.799z
				 M182.546,97.386c4.756,0,9.58-0.753,5.748,9.409c-3.775,9.99-3.889,9.876-13.446,9.876L182.546,97.386z M176.843,127.996
				c19.114,0.992,21.874-11.781,24.668-19.673c2.999-8.451,4.55-14.278-0.878-18.487l0.08-0.194
				c8.679-4.619,10.241-8.131,12.682-14.495c5.6-14.564-1.175-19.445-11.302-19.445H184.77l-27.793,72.362L176.843,127.996z"/>
			<path class="st7" d="M198.98,128.269l28.112-72.738h30.587l-4.231,11.541h-17.255l-7.071,18.042h16.719l-4.459,11.37h-16.708
				l-7.584,20.46h18.179l-4.79,11.325H198.98z"/>
			<path class="st7" d="M260.94,99.769h4.425c3.022,0.285,2.977,3.17,1.665,7.607c-1.323,4.425-3.923,10.39-6.136,16.753
				c-0.479,1.448-0.696,2.794-0.833,4.14h15.385l-0.411-0.958c-0.354-0.673-0.399-1.551-0.331-2.509
				c1.015-4.619,5.702-17.038,7.55-22.82c1.699-5.018,0.297-8.291-3.022-9.34l0.068-0.205c6.888-3.285,10.447-8.781,13.423-16.525
				c5.52-14.404,2.201-19.992-8.77-19.992H264.43l-27.793,72.339h13.355L260.94,99.769z"/>
			<path class="st7" d="M317.735,81.089h13.56c3.33-6.592,4.904-12.271,3.547-17.688c-1.779-7.139-16.468-12.1-28.888-3.843
				c-14.221,9.454-8.029,27.599-4.676,32.526c3.672,5.383,9.808,11.462,5.771,20.026c-1.072,2.304-2.167,4.128-3.433,5.029
				c-3.136,2.224-10.059,2.144-6.786-5.714c3.034-7.265,3.113-8.131,3.113-8.131h-13.56c-2.885,6.489-9.443,20.437,1.22,24.828
				c10.675,4.402,24.292,2.133,29.002-4.174c4.106-5.486,9.888-16.924,2.885-28.34c-7.002-11.427-12.214-16.708-5.554-25.934
				C316.731,66.685,326.072,66.468,317.735,81.089z"/>
		</g>
		<polygon class="st8" points="11.74,124.62 264.362,78.089 242.34,104.434 269.551,80.69 269.984,93.2 274.728,81.112 
			287.684,97.089 279.906,79.39 291.995,85.001 282.506,75.067 336.051,62.545 335.72,60.709 282.506,68.589 292.862,55.634 
			277.751,66.867 277.751,51.312 272.14,66.867 260.473,51.745 267.817,69.023 237.595,53.045 264.795,72.9 11.307,122.567 		"/>
		<g>
			<path class="st7" d="M110.709,152.014l0.878-2.828c3.923,0.068,6.432-0.958,8.234-4.06c0.49-0.844,1.243-2.84,1.243-2.84h-8.017
				l0.969-2.749h8.052l1.186-3.159h3.205l-1.072,3.159h3.912l-0.947,2.657h-4.083C123.333,145.65,121.018,152.435,110.709,152.014z"
				/>
			<polygon class="st7" points="130.564,140.107 131.51,137.587 137.258,137.587 136.426,140.107 			"/>
			<path class="st7" d="M126.527,151.956l1.152-2.828c4.254,0.308,10.241-0.81,12.773-8.61h3.022
				C142.094,146.414,137.703,152.709,126.527,151.956z"/>
			<path class="st7" d="M149.062,137.142h2.931c-0.627,4.299-4.174,13.891-11.37,15.043l1.197-3.467
				C145.298,147.429,147.785,142.502,149.062,137.142z"/>
			<path class="st7" d="M154.969,137.142h2.885c-0.947,2.52-2.612,8.747,0.308,11.884l-1.323,3.193
				C153.943,150.326,152.346,144.258,154.969,137.142z"/>
			<polygon class="st7" points="159.554,140.506 160.683,137.21 159.007,137.21 157.866,140.506 			"/>
			<polygon class="st7" points="162.28,140.506 163.409,137.21 161.721,137.21 160.581,140.506 			"/>
			<polygon class="st7" points="185.625,140.506 186.777,137.21 185.089,137.21 183.937,140.506 			"/>
			<polygon class="st7" points="188.339,140.506 189.491,137.21 187.803,137.21 186.663,140.506 			"/>
			<polygon class="st7" points="170.685,145.616 171.654,142.856 160.638,142.856 159.68,145.616 			"/>
			<polygon class="st7" points="237.515,145.832 238.485,143.072 227.479,143.072 226.51,145.832 			"/>
			<path class="st7" d="M172.236,139.868l0.924-2.646h10.697c-0.981,3.992-4.037,8.69-4.482,8.964
				c0.091,1.323,3.467,3.547,3.467,3.547l-1.106,2.977c-1.688-0.616-4.299-3.946-4.391-4.3c-2.794,2.52-6.352,3.718-10.39,3.855
				l1.106-3.102c5.691-0.661,9.226-3.444,11.633-9.295H172.236z"/>
			<path class="st7" d="M200.017,139.868l0.924-2.646h10.697c-0.969,3.992-4.037,8.69-4.471,8.964
				c0.091,1.323,3.456,3.547,3.456,3.547l-1.106,2.977c-1.688-0.616-4.299-3.946-4.391-4.3c-2.794,2.52-6.352,3.718-10.39,3.855
				l1.106-3.102c5.691-0.661,9.238-3.444,11.633-9.295H200.017z"/>
		</g>
		<path class="st2" d="M332.162,86.905L332.162,86.905c4.972-15.544,12.317-29.891,37.578-29.435
			c11.655,0.217,22.227,7.766,18.133,21.167c-4.106,13.389-11.005,22.444-20.733,24.189c7.345,1.505,11.667,10.572,4.539,25.911
			c-7.128,15.328-16.628,26.333-38.867,24.394c-22.239-1.939-19.639-21.155-14.689-31.522h19.433
			c-3.034,6.911-5.406,21.053,7.55,14.461c4.106-2.589,7.55-10.8,8.633-15.978c1.072-5.178-0.65-9.067-5.828-9.067
			c-5.178,0-8.645,0-8.645,0l6.261-15.339c17.38,2.817,25.044-13.275,23.106-19.855c-0.331-3.672-9.933-6.375-16.844,11.074
			L332.162,86.905L332.162,86.905z"/>
		<path class="st5" d="M327.201,82.48L327.201,82.48c4.95-15.544,12.305-29.903,37.566-29.435
			c11.655,0.205,22.239,7.766,18.133,21.155c-4.106,13.378-11.005,22.444-20.733,24.178c7.345,1.505,11.667,10.583,4.539,25.911
			c-7.128,15.328-16.628,26.344-38.867,24.394c-22.227-1.939-19.639-21.155-14.666-31.522h19.433
			c-3.022,6.911-5.394,21.053,7.55,14.461c4.106-2.589,7.561-10.8,8.633-15.978c1.083-5.189-0.65-9.067-5.828-9.067
			c-5.178,0-8.633,0-8.633,0l6.272-15.328c17.38,2.806,25.033-13.275,23.094-19.867c-0.319-3.661-9.933-6.364-16.833,11.085
			L327.201,82.48L327.201,82.48z"/>
		<polygon class="st7" points="216.007,137.359 219.017,137.359 216.212,144.053 213.19,144.053 		"/>
		<path class="st7" d="M224.195,137.461h3.25c-2.167,8.314-5.086,15.658-15.442,15.225l0.855-3.136
			C218.812,149.447,222.04,147.395,224.195,137.461z"/>
	</g>
</g>
</svg>
