<?xml version="1.0" encoding="utf-8"?>
<!-- Generator: Adobe Illustrator 23.1.0, SVG Export Plug-In . SVG Version: 6.00 Build 0)  -->
<svg version="1.1" xmlns="http://www.w3.org/2000/svg" xmlns:xlink="http://www.w3.org/1999/xlink" x="0px" y="0px"
	 viewBox="0 0 160 160" style="enable-background:new 0 0 160 160;" xml:space="preserve">
<style type="text/css">
	.st0{display:none;}
	.st1{display:inline;}
	.st2{fill:#F7B400;}
	.st3{fill:#FFFFFF;}
	.st4{fill:#1E3C94;}
	.st5{fill:url(#SVGID_1_);}
	.st6{fill:#C5006F;}
	.st7{fill:url(#SVGID_2_);}
	.st8{fill:url(#SVGID_3_);}
	.st9{fill:#7E0043;}
	.st10{fill:#E3007F;}
	.st11{fill:url(#SVGID_4_);}
	.st12{fill:#E6E6E6;}
	.st13{fill:#F8B500;}
	.st14{fill:#1F3C95;}
	.st15{fill:url(#SVGID_5_);}
	.st16{fill:#C6006F;}
	.st17{fill:url(#SVGID_6_);}
	.st18{fill:url(#SVGID_7_);}
	.st19{fill:#E4007F;}
	.st20{fill:url(#SVGID_8_);}
</style>
<g id="レイヤー_1" class="st0">
	<title>logo-loto6-notext-1x1-001</title>
	<g id="必要" class="st1">
		<g>
			<polygon class="st2" points="148,110.984 147.983,53.007 67.144,64.054 67.113,100.642 			"/>
			<polygon class="st3" points="80.803,101.036 80.87,93.051 74.989,92.431 78.393,85.383 72.918,82.312 78.453,79.298 
				75.518,72.725 80.961,74.147 80.892,63.752 85.367,71.624 90.154,62.411 90.274,73.098 99.405,68.6 93.645,78.608 103.514,82.19 
				93.656,85.909 99.324,95.928 90.293,91.56 90.115,102.211 85.341,93.061 			"/>
			<g>
				<path class="st4" d="M34.151,101.534L12,103.861v-0.209c2.8-2.421,2.41-6.242,2.41-9.823V68.073c0-3.581,0.393-7.45-2.41-10.02
					v-0.21l14.363,2.271v0.194c-2.436,1.634-2.084,5.385-2.084,8.827v26.1c1.596,0.74,3.371,1.005,5.114,0.765
					c2.482-0.071,4.817-1.191,6.426-3.082L34.151,101.534z"/>
				<path class="st4" d="M52.52,83.889c0.1,2.261-0.259,4.52-1.054,6.639c-0.93,2.1-2.381,3.5-3.994,3.618
					c-1.783,0.132-3.392-1.672-4.313-4.068c-1.014-3.064-1.546-6.266-1.576-9.493c0-5.318,1.743-10.979,5.518-10.49
					C51.234,70.63,52.52,78.52,52.52,83.889z M59.02,82.42c0-11.019-4.74-17.882-11.851-19.052
					c-7.622-1.254-14.82,5.428-14.82,18.378c0,12.769,6.64,20.083,14.391,19.229c6.93-0.764,12.278-7.687,12.278-18.555H59.02z"/>
				<path class="st4" d="M72.946,74.9c-0.4-1.56-1.244-2.1-2.234-2.2c-0.48-0.075-0.972-0.031-1.431,0.128V91.29
					c0,2.623,0.027,4.692,1.236,6.421v0.137L62.5,98.6v-0.145c1.523-1.626,1.308-4.344,1.308-6.836V72.285
					c-0.494-0.21-1.022-0.328-1.559-0.351c-1.384-0.146-2.751,0.403-3.649,1.466l-0.233,0.228l1.288-7.5l0.619,0.235l13.608,1.917
					L72.946,74.9z"/>
				<path class="st4" d="M85.37,84.336c0.066,1.718-0.162,3.436-0.675,5.077c-0.591,1.6-1.512,2.646-2.528,2.713
					c-1.119,0.076-2.119-1.306-2.688-3.114c-0.627-2.324-0.953-4.718-0.97-7.125c0-3.984,1.071-8.269,3.423-7.989
					C84.547,74.207,85.37,80.223,85.37,84.336z M89.7,83.2c0-8.535-3.166-13.71-7.816-14.392c-4.852-0.711-9.32,4.446-9.32,14.016
					c0,9.434,4.117,14.978,9.045,14.494C86.126,96.868,89.7,91.614,89.7,83.2z"/>
			</g>
			<g>
				
					<linearGradient id="SVGID_1_" gradientUnits="userSpaceOnUse" x1="5783.625" y1="-4315.605" x2="5783.625" y2="-4267.666" gradientTransform="matrix(0.455 0 0 -0.455 -2511.4351 -1867.488)">
					<stop  offset="0.056" style="stop-color:#90004F"/>
					<stop  offset="0.23" style="stop-color:#E3007F"/>
					<stop  offset="0.444" style="stop-color:#90004F"/>
					<stop  offset="1" style="stop-color:#690035"/>
				</linearGradient>
				<path class="st5" d="M120.815,86.093c0-3.557,1.895-6.567,4.506-7.581c-1.044-0.671-2.259-1.03-3.5-1.035
					c-4.135,0-7.487,3.989-7.487,8.909s3.352,8.909,7.487,8.909c1.48-0.01,2.915-0.515,4.074-1.436
					C122.989,93.087,120.815,89.905,120.815,86.093z"/>
				<polygon class="st6" points="128.389,53.978 121.886,49.687 122.944,49.016 127.976,51.841 135.252,56.602 				"/>
				
					<linearGradient id="SVGID_2_" gradientUnits="userSpaceOnUse" x1="5056.3799" y1="-4644.1685" x2="5124.9829" y2="-4816.9155" gradientTransform="matrix(0.317 0 0 -0.317 -1478.135 -1402.827)">
					<stop  offset="0.056" style="stop-color:#90004F"/>
					<stop  offset="0.23" style="stop-color:#E3007F"/>
					<stop  offset="0.444" style="stop-color:#90004F"/>
					<stop  offset="1" style="stop-color:#690035"/>
				</linearGradient>
				<path class="st7" d="M127.654,68.8c2.044,0.343,4.057,0.846,6.022,1.506c2.009,0.815,9.1,4.58,9.1,16
					c0,7.968-3.98,12.263-5.772,13.677c-2.384,1.883-7.324,3.587-11.338,4.59c0,0,12.029-4.087,12.029-17.451
					S129.474,69.74,127.654,68.8z"/>
				
					<linearGradient id="SVGID_3_" gradientUnits="userSpaceOnUse" x1="4661.0591" y1="-4518.9541" x2="4623.8774" y2="-4413.042" gradientTransform="matrix(0.455 0 0 -0.455 -1994.975 -1953.1101)">
					<stop  offset="0.056" style="stop-color:#90004F"/>
					<stop  offset="0.23" style="stop-color:#E3007F"/>
					<stop  offset="0.444" style="stop-color:#90004F"/>
					<stop  offset="1" style="stop-color:#690035"/>
				</linearGradient>
				<path class="st8" d="M121.358,94.751c-3.271,0-5.923-3.745-5.923-8.365s2.652-8.365,5.923-8.365
					c1.648,0.071,3.164,0.926,4.077,2.3c-0.95-2.054-2.985-3.389-5.248-3.443c-3.811,0-7.019,4.107-7.019,9.635
					c0,5.267,3.208,9.538,7.019,9.538c2.564,0,4.97-1.948,5.99-4.8C125.1,93.367,123.346,94.751,121.358,94.751z"/>
				<polygon class="st9" points="118.882,69.881 119.169,70.107 127.976,69.026 135.02,57.53 135.291,56.602 130.802,54.163 
					128.389,53.978 				"/>
				<path class="st10" d="M122.583,69.073c1.954-0.145,3.911,0.223,5.678,1.069c1.786,0.87,3.349,2.135,4.573,3.7
					c1.305,1.71,2.293,3.641,2.916,5.7c0.734,2.227,1.117,4.555,1.134,6.9c-0.011,2.672-0.506,5.321-1.461,7.817
					c-0.809,2.191-2.069,4.187-3.7,5.859c-1.512,1.534-3.361,2.696-5.4,3.391c-2.06,0.744-4.274,0.961-6.44,0.63
					c-4.071-0.47-7.778-2.572-10.272-5.824c-1.242-1.613-2.188-3.434-2.794-5.378c-0.662-2.122-0.98-4.336-0.943-6.559
					c0.019-1.406,0.158-2.807,0.415-4.189c0.258-1.388,0.608-2.758,1.048-4.1c0.44-1.345,0.948-2.667,1.522-3.96
					c0.573-1.292,1.195-2.546,1.841-3.746l11.184-20.7l6.5,4.291l-9.354,15.869l0.113,0.126c0.25-0.134,0.508-0.252,0.773-0.352
					c0.276-0.104,0.558-0.193,0.844-0.266c0.29-0.073,0.591-0.133,0.893-0.18S122.273,69.094,122.583,69.073z M119.883,95.964
					c1.021,0.083,2.044-0.139,2.94-0.637c0.908-0.52,1.687-1.237,2.279-2.1c0.652-0.939,1.149-1.976,1.47-3.073
					c0.342-1.136,0.52-2.314,0.529-3.5c0.003-1.204-0.163-2.402-0.492-3.56c-0.31-1.118-0.794-2.18-1.433-3.148
					c-0.578-0.889-1.344-1.64-2.244-2.2c-0.876-0.535-1.889-0.804-2.915-0.775c-1.015,0.026-2.002,0.338-2.848,0.9
					c-0.846,0.572-1.565,1.314-2.109,2.179c-0.587,0.916-1.035,1.915-1.327,2.964c-0.305,1.074-0.466,2.184-0.478,3.3
					c-0.007,1.111,0.135,2.217,0.422,3.29c0.276,1.065,0.707,2.083,1.278,3.023c0.534,0.895,1.242,1.674,2.082,2.291
					c0.833,0.606,1.819,0.969,2.846,1.048"/>
				
					<linearGradient id="SVGID_4_" gradientUnits="userSpaceOnUse" x1="5033.1514" y1="-4637.8696" x2="5111.6733" y2="-4833.7607" gradientTransform="matrix(0.317 0 0 -0.317 -1478.135 -1402.827)">
					<stop  offset="0.056" style="stop-color:#90004F"/>
					<stop  offset="0.23" style="stop-color:#E3007F"/>
					<stop  offset="0.444" style="stop-color:#90004F"/>
					<stop  offset="1" style="stop-color:#690035"/>
				</linearGradient>
				<path class="st11" d="M119.406,69.82c1.579-1.01,3.427-1.519,5.3-1.46c1.577-0.024,3.142,0.275,4.6,0.877
					c4.413,1.892,9.467,6.824,9.467,16.982c0,16.314-11.829,18.613-15.646,18.613c-2.503,0.028-4.974-0.556-7.2-1.7
					c2.108,0.815,4.361,1.19,6.619,1.1c3.383,0,14.248-3.209,14.248-18.172c0.051-4.647-1.535-9.164-4.479-12.76
					c-2.246-2.689-5.57-4.242-9.074-4.24C121.922,69.029,120.613,69.289,119.406,69.82z"/>
			</g>
		</g>
	</g>
	<g id="レイヤー_3" class="st1">
		<path class="st12" d="M158,2v156H2V2H158 M160,0H0v160h160V0z"/>
	</g>
</g>
<g id="レイヤー_2">
	<g>
		<g>
			<g>
				<polygon class="st13" points="147.816,104.091 147.801,46.151 67.014,57.191 66.982,93.755 				"/>
			</g>
			<g>
				<g>
					<polygon class="st3" points="80.663,94.15 80.731,86.171 74.854,85.548 78.254,78.507 72.784,75.439 78.314,72.426 
						75.381,65.858 80.819,67.276 80.751,56.888 85.222,64.755 90.009,55.549 90.129,66.229 99.25,61.734 93.497,71.735 
						103.358,75.315 93.509,79.031 99.171,89.044 90.149,84.681 89.969,95.325 85.198,86.179 					"/>
				</g>
			</g>
			<g>
				<g>
					<path class="st14" d="M51.076,117.36l-11.283,0.004l-0.004-10.992l11.283-0.004L51.076,117.36z M48.527,108.818h-6.189
						l0.004,6.101l6.189-0.004L48.527,108.818z"/>
					<path class="st14" d="M53.258,117.5l-0.008-11.459l2.601-0.004v3.556l8.035,0.352l0.004,2.521l-8.023-0.352l0.004,5.386H53.258
						z"/>
				</g>
				<path class="st14" d="M72.74,108.946l-6.001-0.26v-2.429l6.001,0.244V108.946z M69.136,114.803
					c4.875-0.004,6.481-1.179,6.481-5.822v-1.335h2.613v1.514c0.004,5.857-2.609,8.315-8.99,8.319h-2.25l-0.004-2.681
					L69.136,114.803z M72.74,112.725l-6.001-0.248v-2.445l6.001,0.26V112.725z"/>
				<path class="st14" d="M80.863,115.071h0.627c4.028,0,4.587-0.603,4.887-2.877c0.196-1.518,0.392-3.648,0.392-3.648h2.613
					c0,0-0.404,3.228-0.535,4.131c-0.455,3.216-1.854,4.655-6.261,4.763h-1.726L80.863,115.071z M81.79,108.574l0.432,4.575h-2.405
					l-0.432-4.575H81.79z M85.214,108.574l0.448,4.575h-2.417l-0.42-4.575H85.214z"/>
				<path class="st14" d="M102.415,106.121c0.148,8.459-2.281,11.375-9.278,11.375h-1.398v-2.509h1.346
					c4.839-0.004,6.537-1.742,6.613-6.409l-5.362,0.004l-1.163,3.348h-2.797l2.09-5.806L102.415,106.121z"/>
				<path class="st14" d="M115.48,117.488c-2.377-0.495-4.028-2.014-4.787-3.372c-1.37,1.79-3.568,3.061-7.112,3.4l-0.004-2.561
					c4.275-0.332,6.525-2.933,6.808-6.189l-6.497,0.004v-2.509l9.541-0.004c-0.076,2.341-0.547,4.379-1.083,5.65
					c0.444,1.346,1.886,2.365,3.129,2.785v2.797H115.48z"/>
			</g>
			<g>
				<path class="st14" d="M34.039,94.646l-22.135,2.325v-0.208c2.801-2.421,2.409-6.237,2.409-9.817V61.207
					c0-3.58,0.396-7.444-2.409-10.013v-0.212l14.352,2.269v0.192c-2.433,1.634-2.082,5.382-2.082,8.822v26.083
					c1.59,0.867,3.392,0.875,5.11,0.763c2.553-0.172,4.487-0.971,6.421-3.081L34.039,94.646z"/>
				<path class="st14" d="M52.399,77.013c0,2.305-0.2,4.711-1.055,6.637c-0.927,2.098-2.377,3.496-3.992,3.616
					c-1.782,0.132-3.388-1.67-4.311-4.063c-0.935-2.533-1.574-6.493-1.574-9.485c0-5.314,1.742-10.972,5.514-10.484
					C51.112,63.764,52.399,71.647,52.399,77.013z M58.891,75.547c0-11.012-4.735-17.872-11.843-19.039
					c-7.616-1.255-14.812,5.426-14.812,18.368c0,12.762,6.637,20.07,14.384,19.215C53.545,93.323,58.891,86.407,58.891,75.547z"/>
				<path class="st14" d="M72.812,68.035c-0.404-1.558-1.243-2.094-2.234-2.194c-0.503-0.052-0.951-0.052-1.43,0.128v18.444
					c0,2.621,0.028,4.687,1.235,6.417v0.136l-8.007,0.751v-0.144c1.522-1.626,1.307-4.339,1.307-6.832V65.418
					c-0.527-0.244-0.995-0.292-1.558-0.352c-1.466-0.148-2.405,0.296-3.656,1.47l-0.232,0.228l1.287-7.496l0.619,0.236l13.601,1.918
					L72.812,68.035z"/>
				<path class="st14" d="M85.226,77.461c0,1.766-0.128,3.608-0.675,5.074c-0.591,1.594-1.51,2.645-2.525,2.713
					c-1.119,0.076-2.118-1.307-2.685-3.113c-0.575-1.906-0.971-4.879-0.971-7.12c0-3.984,1.071-8.263,3.42-7.983
					C84.403,67.336,85.226,73.349,85.226,77.461z M89.549,76.318c0-8.531-3.164-13.701-7.811-14.384
					c-4.851-0.711-9.314,4.443-9.314,14.008c0,9.43,4.115,14.967,9.038,14.484C85.981,89.983,89.549,84.733,89.549,76.318z"/>
			</g>
			<g>
				
					<linearGradient id="SVGID_5_" gradientUnits="userSpaceOnUse" x1="4533.9429" y1="-3437.679" x2="4533.9429" y2="-3389.7708" gradientTransform="matrix(0.4554 0 0 -0.4554 -1944.8101 -1474.6456)">
					<stop  offset="0.0562" style="stop-color:#91004F"/>
					<stop  offset="0.2303" style="stop-color:#E4007F"/>
					<stop  offset="0.4438" style="stop-color:#91004F"/>
					<stop  offset="1" style="stop-color:#6A0035"/>
				</linearGradient>
				<path class="st15" d="M120.651,79.215c0-3.556,1.894-6.565,4.503-7.576c-1.043-0.659-2.234-1.035-3.5-1.035
					c-4.131,0-7.484,3.988-7.484,8.902c0,4.919,3.352,8.902,7.484,8.902c1.502,0,2.901-0.527,4.071-1.434
					C122.82,86.207,120.651,83.026,120.651,79.215z"/>
				<polygon class="st16" points="128.218,47.122 121.717,42.835 122.776,42.164 127.803,44.985 135.075,49.743 				"/>
				
					<linearGradient id="SVGID_6_" gradientUnits="userSpaceOnUse" x1="2815.6321" y1="-3066.4629" x2="2884.1907" y2="-3239.0984" gradientTransform="matrix(0.3166 0 0 -0.3166 -767.6398 -910.2816)">
					<stop  offset="0.0562" style="stop-color:#91004F"/>
					<stop  offset="0.2303" style="stop-color:#E4007F"/>
					<stop  offset="0.4438" style="stop-color:#91004F"/>
					<stop  offset="1" style="stop-color:#6A0035"/>
				</linearGradient>
				<path class="st17" d="M127.483,61.934c0,0,4.012,0.691,6.017,1.506c2.006,0.815,9.09,4.579,9.09,15.986
					c0,7.963-3.976,12.254-5.77,13.669c-2.381,1.882-7.32,3.584-11.331,4.587c0,0,12.023-4.083,12.023-17.441
					C137.516,66.884,129.301,62.873,127.483,61.934z"/>
				
					<linearGradient id="SVGID_7_" gradientUnits="userSpaceOnUse" x1="3413.9177" y1="-3641.6838" x2="3376.76" y2="-3535.8403" gradientTransform="matrix(0.4554 0 0 -0.4554 -1428.3506 -1560.2672)">
					<stop  offset="0.0562" style="stop-color:#91004F"/>
					<stop  offset="0.2303" style="stop-color:#E4007F"/>
					<stop  offset="0.4438" style="stop-color:#91004F"/>
					<stop  offset="1" style="stop-color:#6A0035"/>
				</linearGradient>
				<path class="st18" d="M121.19,87.869c-3.268,0-5.917-3.744-5.917-8.359c0-4.619,2.649-8.359,5.917-8.359
					c1.578,0,3.013,0.875,4.075,2.297c-1.195-2.257-3.145-3.44-5.246-3.44c-3.808,0-7.016,4.103-7.016,9.629
					c0,5.262,3.204,9.529,7.016,9.529c2.561,0,4.966-1.946,5.985-4.799C124.934,86.487,123.176,87.869,121.19,87.869z"/>
				<polygon class="st9" points="118.717,63.013 119.005,63.24 127.803,62.162 134.843,50.67 135.115,49.743 130.628,47.306 
					128.218,47.122 				"/>
				<g>
					<path class="st19" d="M122.417,62.206c2.066-0.14,3.972,0.252,5.674,1.067c1.738,0.831,3.312,2.106,4.571,3.7
						c1.279,1.618,2.23,3.56,2.917,5.702c0.691,2.158,1.139,4.499,1.131,6.892c-0.008,2.857-0.579,5.49-1.458,7.811
						c-0.875,2.301-2.138,4.279-3.7,5.853c-1.542,1.55-3.368,2.701-5.394,3.388c-1.986,0.675-3.652,0.955-6.437,0.627
						c-2.138-0.256-4.107-0.927-5.846-1.938c-1.706-0.991-3.196-2.305-4.419-3.884c-1.207-1.554-2.154-3.364-2.793-5.374
						c-0.635-1.994-0.967-4.195-0.943-6.553c0.012-1.406,0.164-2.805,0.416-4.187c0.252-1.386,0.611-2.753,1.047-4.095
						c0.44-1.347,0.955-2.673,1.522-3.956c0.571-1.291,1.195-2.545,1.838-3.744l11.176-20.685l6.497,4.287l-9.35,15.858l0.112,0.124
						c0.244-0.132,0.503-0.252,0.771-0.352c0.272-0.104,0.551-0.192,0.843-0.268c0.292-0.072,0.591-0.132,0.891-0.18
						C121.797,62.262,122.105,62.23,122.417,62.206z M119.72,89.08c1.079,0.084,2.066-0.156,2.937-0.635
						c0.883-0.483,1.646-1.215,2.277-2.102c0.635-0.895,1.131-1.946,1.47-3.073c0.34-1.127,0.523-2.325,0.527-3.5
						c0.004-1.191-0.164-2.409-0.491-3.556c-0.328-1.147-0.807-2.226-1.43-3.145c-0.615-0.915-1.37-1.678-2.242-2.202
						c-0.863-0.519-1.842-0.803-2.913-0.775c-1.063,0.028-2.014,0.356-2.845,0.903c-0.823,0.539-1.534,1.291-2.11,2.178
						c-0.575,0.879-1.019,1.894-1.327,2.965c-0.304,1.067-0.467,2.19-0.479,3.3c-0.008,1.091,0.136,2.214,0.42,3.288
						c0.288,1.079,0.715,2.114,1.279,3.021c0.563,0.915,1.263,1.706,2.082,2.289C117.698,88.62,118.653,89,119.72,89.08"/>
				</g>
				
					<linearGradient id="SVGID_8_" gradientUnits="userSpaceOnUse" x1="2792.3918" y1="-3060.1699" x2="2870.8628" y2="-3255.9341" gradientTransform="matrix(0.3166 0 0 -0.3166 -767.6398 -910.2816)">
					<stop  offset="0.0562" style="stop-color:#91004F"/>
					<stop  offset="0.2303" style="stop-color:#E4007F"/>
					<stop  offset="0.4438" style="stop-color:#91004F"/>
					<stop  offset="1" style="stop-color:#6A0035"/>
				</linearGradient>
				<path class="st20" d="M119.24,62.953c1.45-1.127,3.772-1.458,5.294-1.458c1.167,0,2.841,0.124,4.599,0.875
					c4.411,1.89,9.461,6.82,9.461,16.973c0,16.302-11.823,18.599-15.635,18.599c-3.816,0-6.529-1.323-7.196-1.702
					c2.901,0.963,3.944,1.095,6.613,1.095c3.38,0,14.24-3.208,14.24-18.16c0-5.346-2.134-10.201-4.475-12.746
					c-2.841-3.093-5.933-4.263-9.066-4.235C121.402,62.206,120.231,62.497,119.24,62.953z"/>
			</g>
		</g>
		<g id="レイヤー_3_1_">
			<path class="st12" d="M158,2v156H2V2H158 M160,0H0v160h160V0z"/>
		</g>
	</g>
</g>
</svg>
