<svg xmlns="http://www.w3.org/2000/svg" viewBox="0 0 400 184"><defs><style>.cls-1{fill:none;}.cls-2{fill:#d73282;}.cls-10,.cls-3{fill:#fff;}.cls-4{fill:#bebebe;}.cls-5{fill:#1e286e;}.cls-6{fill:#facf00;}.cls-7,.cls-9{fill:#231914;}.cls-10,.cls-7{fill-rule:evenodd;}.cls-8{fill:#fabe00;}</style></defs><title>logo-kisekae-qoochan-400x184-001</title><g id="レイヤー_2" data-name="レイヤー 2"><g id="レイヤー_4" data-name="レイヤー 4"><rect class="cls-1" width="400" height="184"/><path class="cls-2" d="M141.51,100.61l-9.83-36.75,8.8-.6,4.87-19.15L113,39.75c-2.65,3.34-7.26,5.9-13.67,7.61s-11.37,2-15.64.26L57.83,67.53,71.68,81.72l7.86-3.85,9.83,36.76Z"/><path class="cls-3" d="M111.77,73.86v-1.8h13.84V68.73H111.77V67h13.84V63.26h-6.92l2.39-3.59h-5.73L113,63.26h-8l-2.4-3.59H96.81l2.39,3.59H92.28V67h13.33v1.71H92.28v3.33h13.33v1.8H90.48v3.76H93.9v6.07c0,4.18-2.73,5-5,5v5.72c6.41,0,10.77-4.35,10.77-10.76V77.62h27.52V73.86Z"/><path class="cls-4" d="M307.23,147.36l-1.62.94c-1,.68-2.31,1.37-3.76,2.22s-2.82,1.54-4.1,2.14a6.31,6.31,0,0,1-3.16.77c-.94-.17-1.37-.94-1.29-2.39s.94-5,1.29-6.93a37.4,37.4,0,0,0,.59-5.89,4.75,4.75,0,0,0-3-4.45,9.56,9.56,0,0,0-6.15-.85,12.32,12.32,0,0,0-3.33.94s11.19-19.15,13.07-22.57l-12.22-1.79-26.15,49.23,11.11,1.11c.68-1.45,1.54-3,2.39-4.62,1.45-2.73,5.56-9.57,6.15-10.59a8.61,8.61,0,0,1,2.48-2.48,6.56,6.56,0,0,1,3.17-1.2c1.79-.17,2.73.34,2.73,1.54a30.12,30.12,0,0,1-.68,4.44c-.69,4-.94,8.55,0,10.77s3.16,3.51,6.66,4a13.11,13.11,0,0,0,4.87-.34,18.73,18.73,0,0,0,4.19-1.54c1.28-.6,9.15-5,10.6-6.07Z"/><path class="cls-4" d="M201.59,121.63l2.14-5.64-9.23-2.48-2.05,5.65-8-2.14-2.13,8,7.35,2-4.36,12.39c4.27.6,10.34,1.54,13.76,2.4,3.85.76,7,2.22,6.75,6-.25,4-5.21,5.47-12.39,3.33a91.6,91.6,0,0,1-11.2-4.27l-2.13,8.2c14.27,6.76,29.4,8.64,33.93-2.82,3.59-9.23-2.4-16.32-17.1-18.2l1.71-4.62,1.28.34,18.81,5,2.13-8L205,122.49Z"/><polygon class="cls-4" points="60.91 99.41 38.69 127.02 51.17 131.55 66.21 113 78.94 117.53 49.46 157.36 63.13 161.63 99.89 112.49 60.91 99.41"/><polygon class="cls-4" points="169.12 143.09 180.65 141.72 170.31 136.51 180.65 131.29 169.12 130.01 177.06 121.55 165.78 124.28 170.4 113.6 160.74 120.01 161.42 108.39 154.5 117.7 151.17 106.59 147.83 117.7 140.91 108.39 141.59 120.01 131.94 113.6 136.55 124.28 125.27 121.55 133.22 130.01 133.56 130.35 93.99 130.35 85.44 141.72 134.5 141.72 133.22 143.09 125.27 151.46 136.55 148.81 131.94 159.5 141.59 153.09 140.91 164.63 147.83 155.31 151.17 166.42 154.5 155.31 161.42 164.63 160.74 153.09 170.4 159.5 165.78 148.81 177.06 151.46 169.12 143.09"/><path class="cls-4" d="M245.27,142.32l2.39,7.09c3.68-.85,8.89-2.65,11.63-6.75a11.71,11.71,0,0,0,1.45-10.43c-1.8-5.38-6.33-7.86-12-7.26l-2-4.87-9,1.53,2.48,6.07c-.94.34-1.88.77-2.9,1.2l-2.74-6.75-9,1.54,3.5,8.54L222.45,135l2.82,6.84c2.22-.94,4.53-1.89,6.75-2.74l8.46,20.77h9.58l-9.75-24.1c4.28-1.71,7.44-2.91,8.12-3.17,0,0,3.76-1.62,5.22,1.71a4.3,4.3,0,0,1-.26,4.19C251.68,140.61,247.92,141.81,245.27,142.32Z"/><path class="cls-5" d="M261.51,54.37H146l-2.48,9.74-.59,2.23-2.31.17-5,.34,8.89,33.07.68,2.65H261.42c14.79,0,26.84-10.85,26.84-24.1s-12.05-24.1-26.75-24.1"/><rect class="cls-3" x="247.75" y="62.15" width="12.82" height="4.79"/><path class="cls-3" d="M267,89.84c-1.28,0-1.88-1.11-1.88-2.31V84.11c0-2.73-2.39-3.24-3.68-3.33L265.53,78a2.7,2.7,0,0,0,1.19-2.22V70.27a1.45,1.45,0,0,0-1.62-1.63H240.57v5.47h20.85l-.17.17-21.45,15v6.75l16-11.2c.17-.08.69-.34.94-.43a2.42,2.42,0,0,1,3,2.31v2.48A6.45,6.45,0,0,0,266,95.39h6.58V89.92H267Z"/><path class="cls-3" d="M169.12,79.16H165v5.47h4.53c4.62,0,7.87-3.42,7.87-8.38V73.94h6.83V68.47h-6.83V61.89h-5.47v6.58H159.2V61.89h-5.47v6.58H148v5.47h5.73V86.16c0,5.22,3.33,8.38,8.8,8.38h17.61V89.07H163.22a3.81,3.81,0,0,1-4-3.85V73.94h12.74v2.31a2.71,2.71,0,0,1-2.82,2.91"/><path class="cls-3" d="M211.68,69.07h-1.8c.86-3.08,1.54-5.81,2.06-7.95h-5.65c-.51,2.22-1.28,5-2.13,7.95h-8.72v5.47h7.09a139.34,139.34,0,0,1-8.8,20.77H200a127.89,127.89,0,0,0,8.29-20.77h3.42c2,0,2.31,1.54,2.31,2.91v9.48c0,1.29-.43,2.91-2.31,2.91h-5v5.47h5c4.61,0,7.78-3.42,7.78-8.38V77.45c.08-5-3.17-8.38-7.78-8.38"/><path class="cls-3" d="M224.67,65.74h-6a97.56,97.56,0,0,1,5.81,18.8h5.56a99.64,99.64,0,0,0-5.39-18.8"/><path class="cls-5" d="M305.53,143.94l-1.63.94c-1,.69-2.31,1.37-3.76,2.22s-2.82,1.54-4.1,2.14a6.2,6.2,0,0,1-3.16.77c-.94-.17-1.37-.94-1.29-2.39s.94-5.05,1.29-6.93a37.4,37.4,0,0,0,.59-5.89,4.75,4.75,0,0,0-3-4.45,9.56,9.56,0,0,0-6.15-.85,12.32,12.32,0,0,0-3.33.94s11.19-19.15,13.07-22.57l-12.22-1.79-26.07,49.23,11.11,1.11c.69-1.45,1.54-3,2.4-4.61,1.45-2.74,5.55-9.58,6.15-10.6a8.49,8.49,0,0,1,2.48-2.48,6.53,6.53,0,0,1,3.16-1.2c1.8-.17,2.74.34,2.74,1.54a30.38,30.38,0,0,1-.69,4.44c-.68,4-.94,8.55,0,10.77s3.16,3.51,6.67,4a13.12,13.12,0,0,0,4.87-.34,18.91,18.91,0,0,0,4.19-1.54c1.28-.6,9.14-5,10.6-6.07Z"/><path class="cls-5" d="M199.88,118.3l2.14-5.64-9.23-2.48-2,5.64-8-2.13-2.14,8,7.35,2-4.36,12.39c4.27.6,10.34,1.54,13.76,2.39,3.85.77,7,2.22,6.75,6-.25,4-5.21,5.47-12.39,3.34a90.26,90.26,0,0,1-11.2-4.28l-2.13,8.21c14.27,6.75,29.4,8.63,33.93-2.82,3.59-9.23-2.4-16.33-17.1-18.21l1.71-4.61,1.29.34,18.8,5,2.14-8-15.82-4.18Z"/><polygon class="cls-5" points="59.2 95.99 36.98 123.69 49.46 128.13 64.5 109.67 77.23 114.11 47.75 154.03 61.42 158.22 98.17 109.07 59.2 95.99"/><polygon class="cls-5" points="167.41 139.67 178.94 138.3 168.6 133.09 178.94 127.96 167.41 126.59 175.35 118.13 164.07 120.86 168.69 110.18 159.03 116.59 159.71 104.97 152.79 114.28 149.46 103.17 146.12 114.28 139.2 104.97 139.88 116.59 130.23 110.18 134.84 120.86 123.56 118.13 131.51 126.59 131.85 126.93 92.28 126.93 83.73 138.3 132.79 138.3 131.51 139.67 123.56 148.04 134.84 145.4 130.23 156.08 139.88 149.67 139.2 161.21 146.12 151.89 149.46 163.09 152.79 151.89 159.71 161.21 159.03 149.67 168.69 156.08 164.07 145.4 175.35 148.04 167.41 139.67"/><polygon class="cls-6" points="147.83 142.23 144.5 146.85 144.84 141.21 140.14 144.28 142.36 139.07 136.89 140.44 140.74 136.34 135.1 135.65 140.14 133.09 135.1 130.61 140.74 129.93 136.89 125.82 142.36 127.1 140.14 121.98 144.84 125.05 144.5 119.41 147.83 123.94 149.46 118.56 151.08 123.94 154.41 119.41 154.16 125.05 158.86 121.98 156.55 127.1 162.11 125.82 158.18 129.93 163.82 130.61 158.77 133.09 163.82 135.65 158.18 136.34 162.11 140.44 156.55 139.07 158.86 144.28 154.16 141.21 154.41 146.85 151.08 142.23 149.46 147.7 147.83 142.23"/><path class="cls-5" d="M246.47,129.16s3.76-1.63,5.21,1.71a4.25,4.25,0,0,1-.26,4.18c-1.45,2.14-5.21,3.34-7.86,3.85L246,146c3.68-.85,8.89-2.65,11.63-6.75A11.71,11.71,0,0,0,259,128.81c-1.8-5.38-6.32-7.86-12-7.26l-2-4.87-9,1.54,2.48,6.06c-.94.35-1.88.77-2.9,1.2L233,118.73l-9,1.54,3.5,8.54c-2.56,1-5,2.06-6.75,2.74l2.82,6.84c2.22-.94,4.53-1.88,6.75-2.74l8.46,20.77h9.58l-9.75-24.1c4-1.71,7.18-3,7.87-3.16"/><path class="cls-7" d="M317.92,47a1.47,1.47,0,0,1,1.37,1.62A1.43,1.43,0,0,1,317.66,50a1.61,1.61,0,0,1-1.37-1.54A1.49,1.49,0,0,1,317.92,47Z"/><path class="cls-7" d="M318,42a1.8,1.8,0,0,1,1.63,1.88,1.72,1.72,0,1,1-3.42-.26A1.59,1.59,0,0,1,318,42Z"/><path class="cls-7" d="M321.34,38.22a1.46,1.46,0,1,1-.26,2.9,1.46,1.46,0,1,1,.26-2.9Z"/><path class="cls-7" d="M325.27,35.82a1.57,1.57,0,0,1,1.45,1.71A1.52,1.52,0,0,1,325,39a1.75,1.75,0,0,1-1.54-1.7A1.69,1.69,0,0,1,325.27,35.82Z"/><path class="cls-7" d="M330.14,35.31a1.5,1.5,0,1,1-.26,3,1.53,1.53,0,0,1-1.45-1.62A1.49,1.49,0,0,1,330.14,35.31Z"/><path class="cls-7" d="M334.76,36.08a1.45,1.45,0,0,1,1.36,1.62,1.52,1.52,0,0,1-1.62,1.37,1.46,1.46,0,0,1-1.45-1.62A1.56,1.56,0,0,1,334.76,36.08Z"/><path class="cls-7" d="M338.18,39.07a1.38,1.38,0,0,1,1.28,1.54A1.52,1.52,0,0,1,337.92,42a1.44,1.44,0,0,1-1.37-1.54A1.58,1.58,0,0,1,338.18,39.07Z"/><path class="cls-7" d="M340.23,43.26a.89.89,0,0,1,.85,1,1,1,0,0,1-1,.86.9.9,0,0,1-.86-1A.94.94,0,0,1,340.23,43.26Z"/><path class="cls-7" d="M341.34,46.93a.77.77,0,0,1-.09,1.54.78.78,0,0,1-.68-.85A.72.72,0,0,1,341.34,46.93Z"/><path class="cls-7" d="M321.59,19.41a2,2,0,0,1,1.88,2.22,2.14,2.14,0,0,1-2.22,1.88,2.08,2.08,0,0,1-1.88-2.22A2,2,0,0,1,321.59,19.41Z"/><path class="cls-7" d="M301.94,25.05a1.19,1.19,0,0,1,1,1.2,1,1,0,0,1-1.2,1,1.17,1.17,0,0,1-1-1.2A1.1,1.1,0,0,1,301.94,25.05Z"/><path class="cls-7" d="M315.53,38a1.38,1.38,0,0,1,1.28,1.62A1.45,1.45,0,0,1,315.27,41a1.63,1.63,0,0,1-1.45-1.62A1.61,1.61,0,0,1,315.53,38Z"/><path class="cls-7" d="M312,35.22a1.55,1.55,0,0,1-.26,3.08,1.55,1.55,0,0,1-1.45-1.62A1.64,1.64,0,0,1,312,35.22Z"/><path class="cls-7" d="M307.23,37a1.49,1.49,0,0,0,1.63-1.37,1.5,1.5,0,0,0-3-.25A1.59,1.59,0,0,0,307.23,37Z"/><path class="cls-7" d="M303.05,35.14a1.46,1.46,0,0,1,1.36,1.62,1.48,1.48,0,0,1-1.62,1.46,1.73,1.73,0,0,1-1.45-1.71A1.46,1.46,0,0,1,303.05,35.14Z"/><path class="cls-7" d="M299.37,37.62A1.2,1.2,0,0,1,300.48,39a1.2,1.2,0,0,1-2.39-.25A1.18,1.18,0,0,1,299.37,37.62Z"/><path class="cls-7" d="M297.06,40.69c.52,0,.86.6.86,1a.9.9,0,0,1-1,.85,1,1,0,0,1-.85-.94C296.12,41,296.47,40.61,297.06,40.69Z"/><path class="cls-7" d="M293.56,25.14A1.57,1.57,0,0,1,295,26.93a1.63,1.63,0,0,1-1.71,1.46,1.56,1.56,0,0,1-1.54-1.71A1.66,1.66,0,0,1,293.56,25.14Z"/><path class="cls-7" d="M342.11,28.39a1.57,1.57,0,0,1,1.45,1.79,1.62,1.62,0,0,1-1.71,1.45,1.56,1.56,0,0,1-1.54-1.71A1.61,1.61,0,0,1,342.11,28.39Z"/><path class="cls-7" d="M351.42,50.1a1.58,1.58,0,0,1,1.46,1.79,1.62,1.62,0,0,1-1.71,1.45,1.55,1.55,0,0,1-1.54-1.71A1.7,1.7,0,0,1,351.42,50.1Z"/><path class="cls-7" d="M330.82,44.63a.86.86,0,0,1,.77.94.91.91,0,0,1-.85.85.83.83,0,0,1-.77-.94C330,45,330.4,44.54,330.82,44.63Z"/><path class="cls-7" d="M299.88,48.22a1,1,0,0,1,.94,1.11,1.06,1.06,0,0,1-1.11.94,1,1,0,0,1-.94-1.11A.94.94,0,0,1,299.88,48.22Z"/><path class="cls-7" d="M326.89,25.57a1,1,0,0,0-1.19-.86,1.06,1.06,0,0,0-.86,1.2,1,1,0,0,0,1.2.85A1,1,0,0,0,326.89,25.57Z"/><path class="cls-7" d="M286.12,45.14a1.12,1.12,0,1,0-.94,1.28A1,1,0,0,0,286.12,45.14Z"/><path class="cls-7" d="M317.75,51.72c20.17.09,26.07,16.07,26.92,20a46.93,46.93,0,0,1,7.86-2.65c2.91-.68,7.61-1.79,8.72,1.11.69,2.74-.08,3.42-2.48,4.62-3.5,2-5.12,4.1-5.47,4.87a12.15,12.15,0,0,1-2.82,3.59,28,28,0,0,1-5.89,3.67c-.18,1.71-1.63,11.29-4,16.07-1.37,3.16-4,6.33-4.28,9.57a4,4,0,0,0,2.14,3.94s1.37-7,7.78-9.49a5.54,5.54,0,0,1,7.61,4.87c-.17,4.1-2.91,7.44-5.39,9.57.69.77,2.74,1.8,4.28,5s1,7.18-2,9c-5.81,3.08-11.71-2.82-12.91-8.29-9.83.77-17.26-.76-22.82-3-6-2.3-22.48-11.11-23.76-33.93a21.87,21.87,0,0,1-5.72-3.5,15.46,15.46,0,0,1-2.91-3.85,16.45,16.45,0,0,0-5.3-4.27c-.94-.52-4.1-1.11-3.5-4.53.59-2.14,2.47-2.48,4.44-2.4,6.75.26,10,2.06,12.56,2.74C291.94,66.16,297.58,52.06,317.75,51.72Z"/><path class="cls-3" d="M341.76,90.18a58.66,58.66,0,0,1-2.9,11c-.94,2.3-3.42,5.89-4.19,8.12a8.13,8.13,0,0,0-.6,4.7,7.38,7.38,0,0,0,3.85,4.87,23.79,23.79,0,0,0-.34,6,51.71,51.71,0,0,1-14.36-.68,43,43,0,0,1-13.51-5.47A34.48,34.48,0,0,1,299.12,108,38.87,38.87,0,0,1,294,93.51c4.7-5.12,9.74-9.65,18.63-11.7C324.5,79.67,336.64,86.76,341.76,90.18Z"/><path class="cls-8" d="M276.12,74.37c.17-.51.86-.6,1.11-.6a36,36,0,0,1,13.25,2.82l2.48.94s0-.51.09-2.14a25,25,0,0,1,5.3-13.24c2-2.14,5.12-6,14.53-7.78,12.22-2,20.42,3.59,23.67,7s6.07,8,6.15,13.84a56.32,56.32,0,0,1,10-4c2.23-.52,6-1.2,6.42-.17.17.42.17.77-.43,1.11-4.62,2.39-7,5.13-8.38,7.77-2.05,2.57-5.47,4.28-7.78,5.22a10.88,10.88,0,0,1-.34,2.31c-7.78-5.13-16.66-8.21-23-8.64a27.42,27.42,0,0,0-17.95,4.7,47.6,47.6,0,0,0-7.6,6.33,3.67,3.67,0,0,1,0-1.54A23.24,23.24,0,0,1,287,84.54c-2.05-2.22-2.22-3.5-3.59-4.79a21,21,0,0,0-6.5-4.36C276,75.22,276,74.71,276.12,74.37Z"/><path class="cls-9" d="M337.58,123.94c-.6,0-1.29.09-1.88.09a40.78,40.78,0,0,1-18.21-4.19,28.68,28.68,0,0,1-6.67-4.87c-7.35-6.84-10-18.89-10.76-27.52-.52.25-2.14,1.71-2.23,1.71h0c1.71,10.94,5.39,19.91,10.69,25.38,7.69,7.95,18.63,9.66,26.49,9.66a23,23,0,0,0,2.57-.09Z"/><path class="cls-9" d="M337.58,123.09c-10.35-.26-18.64-4.28-23.93-11.54-5.39-7.52-7.7-20.94-7.95-27.61v-.25c.17,0,1.71-.69,2.3-.86.6,11.62,2.23,19,5.56,26,4.79,9.83,16,13.76,24.1,14Z"/><path class="cls-9" d="M337.49,121.89a22.7,22.7,0,0,1-12.22-4.53c-6.15-4.53-7.69-12.56-8.72-17.86l-.17-1c-1.11-5.47-1.2-16.24-1.2-17.43h1.54a4.9,4.9,0,0,1,1.2.08,92.34,92.34,0,0,0,.94,20.77c1.62,8.29,3.42,11.2,7.09,15a21.1,21.1,0,0,0,10.69,4.7l1,.17v.09Z"/><path class="cls-9" d="M337.75,120.78a13.79,13.79,0,0,1-6.84-2.65c-2.14-1.62-5-4.44-5.81-10.6-.51-2.56-.34-9.49-.26-11.79l.09-4.11c.08-4.78.08-9.23.08-9.4.6.26,2.05.43,2.48.69-.08.17-.34,8.2-.43,9.48-.08,1.11-.94,9.41-.77,12.48A19.69,19.69,0,0,0,329,115.05a14.86,14.86,0,0,0,3.42,3.51,14.64,14.64,0,0,0,5.38,2.13Z"/><path class="cls-9" d="M337.75,119.75a7.73,7.73,0,0,1-4.45-2.65,9.91,9.91,0,0,1-2.48-5.47,24.68,24.68,0,0,1,.6-8.37,106.42,106.42,0,0,0,2.74-17.52c.51.42,1.88.94,2,1.11-.17.77-.34,2.13-.51,3.59-.26,2-.51,4.27-.77,5.47a64.68,64.68,0,0,1-2.14,8.8,18.74,18.74,0,0,0-.94,7,8.53,8.53,0,0,0,6,7.86v.17Z"/><path class="cls-7" d="M305.27,62.57a1.8,1.8,0,1,0-2,1.63A1.89,1.89,0,0,0,305.27,62.57Z"/><path class="cls-7" d="M331.68,61.63a1.8,1.8,0,1,0-2,1.63A1.83,1.83,0,0,0,331.68,61.63Z"/><path class="cls-10" d="M304.5,61.81a.64.64,0,1,0-1.28-.09.64.64,0,0,0,1.28.09Z"/><path class="cls-10" d="M331,61a.65.65,0,1,0-.69.6A.74.74,0,0,0,331,61Z"/><path class="cls-7" d="M319.2,73.26a14.56,14.56,0,0,1-12.05-3.68,1.21,1.21,0,0,0-1.88.52,1.55,1.55,0,0,0,.77,1.71,17,17,0,0,0,22.39-.6,1.18,1.18,0,0,0,.17-1.8c-.6-.77-1.37-.43-2.05.17A14.41,14.41,0,0,1,319.2,73.26Z"/><path class="cls-8" d="M343.3,131.89a6.45,6.45,0,0,0,4.88,2,3.54,3.54,0,0,0,3-2.82c.51-2.14-.17-5-4.88-8.21-.51-.26-1-.6-1.62-.85.26-.35,1.8-1.71,1.8-1.71,4.7-4.36,5.38-7.18,4.95-9a3,3,0,0,0-2.3-2.22c-1.29-.34-2.74.26-4.11,1.28a13.1,13.1,0,0,0-3.59,5,25.65,25.65,0,0,0-1.54,7.18C339.8,126.93,340.74,129.67,343.3,131.89Z"/><path class="cls-3" d="M121.85,78.73h-19.4A1.49,1.49,0,0,0,101,80.18V94.37a1.49,1.49,0,0,0,1.45,1.45h19.4a1.49,1.49,0,0,0,1.45-1.45V80.18A1.44,1.44,0,0,0,121.85,78.73ZM118.43,93H105.78V91.12h12.65Zm0-4.7H105.78V86.42h12.65Zm0-4.7H105.78V81.72h12.65Z"/></g></g></svg>