<?xml version="1.0" encoding="utf-8"?>
<!-- Generator: Adobe Illustrator 23.1.0, SVG Export Plug-In . SVG Version: 6.00 Build 0)  -->
<svg version="1.1" xmlns="http://www.w3.org/2000/svg" xmlns:xlink="http://www.w3.org/1999/xlink" x="0px" y="0px"
	 viewBox="0 0 320 160" style="enable-background:new 0 0 320 160;" xml:space="preserve">
<style type="text/css">
	.st0{display:none;}
	.st1{display:inline;}
	.st2{fill:#F7B400;}
	.st3{fill:#FFFFFF;}
	.st4{fill:#1E3C94;}
	.st5{fill:url(#SVGID_1_);}
	.st6{fill:#C5006F;}
	.st7{fill:url(#SVGID_2_);}
	.st8{fill:url(#SVGID_3_);}
	.st9{fill:#7E0043;}
	.st10{fill:#E3007F;}
	.st11{fill:url(#SVGID_4_);}
	.st12{fill:#F8B500;}
	.st13{fill:#1F3C95;}
	.st14{fill:url(#SVGID_5_);}
	.st15{fill:#C6006F;}
	.st16{fill:url(#SVGID_6_);}
	.st17{fill:url(#SVGID_7_);}
	.st18{fill:#E4007F;}
	.st19{fill:url(#SVGID_8_);}
	.st20{fill:none;}
</style>
<g id="レイヤー_1" class="st0">
	<title>logo-loto6notxt-001</title>
	<g class="st1">
		<polygon class="st2" points="270.4,130.304 270.372,36.175 139.128,54.112 139.077,113.513 		"/>
		<polygon class="st3" points="161.304,114.152 161.412,101.189 151.864,100.182 157.391,88.74 148.503,83.754 157.488,78.861 
			152.724,68.189 161.561,70.498 161.447,53.621 168.714,66.401 176.486,51.443 176.68,68.795 191.504,61.492 182.153,77.741 
			198.176,83.556 182.172,89.593 191.373,105.859 176.712,98.768 176.421,116.06 168.672,101.205 		"/>
		<g>
			<path class="st4" d="M85.563,114.961L49.6,118.74v-0.34c4.551-3.93,3.912-10.134,3.912-15.947V60.635
				c0-5.813,0.639-12.093-3.912-16.266v-0.341l23.319,3.687v0.315c-3.956,2.653-3.384,8.742-3.384,14.33v42.374
				c2.585,1.41,5.514,1.424,8.3,1.237c4.029-0.115,7.82-1.932,10.433-5L85.563,114.961z"/>
			<path class="st4" d="M115.386,86.313c0,3.747-0.322,7.655-1.713,10.78c-1.508,3.41-3.865,5.683-6.482,5.873
				c-2.9,0.214-5.507-2.715-7-6.6c-1.646-4.974-2.509-10.174-2.558-15.413c0-8.633,2.829-17.823,8.959-17.029
				C113.3,64.788,115.386,77.6,115.386,86.313z M125.936,83.929c0-17.889-7.7-29.032-19.241-30.932
				c-12.375-2.035-24.061,8.814-24.061,29.838c0,20.73,10.781,32.606,23.365,31.218C117.252,112.813,125.936,101.574,125.936,83.929
				z"/>
			<path class="st4" d="M148.548,71.726c-0.654-2.532-2.02-3.4-3.628-3.567c-0.779-0.12-1.576-0.048-2.322,0.209V98.33
				c0,4.258,0.044,7.617,2.006,10.425v0.222l-13.004,1.217v-0.235c2.473-2.64,2.123-7.052,2.123-11.1V67.475
				c-0.803-0.34-1.66-0.534-2.531-0.571c-2.381-0.243-3.906,0.483-5.939,2.387l-0.378,0.371l2.092-12.18l1,0.382l22.093,3.112
				L148.548,71.726z"/>
			<path class="st4" d="M168.719,87.04c0.106,2.79-0.266,5.578-1.1,8.243c-0.959,2.593-2.455,4.3-4.1,4.4
				c-1.816,0.123-3.441-2.12-4.363-5.056c-1.02-3.772-1.55-7.66-1.576-11.567c0-6.469,1.74-13.425,5.558-12.971
				C167.383,70.6,168.719,80.362,168.719,87.04z M175.742,85.187c0-13.856-5.141-22.258-12.689-23.365
				c-7.878-1.155-15.132,7.218-15.132,22.755c0,15.317,6.685,24.317,14.684,23.531C169.946,107.385,175.742,98.855,175.742,85.187
				L175.742,85.187z"/>
		</g>
		<g>
			
				<linearGradient id="SVGID_1_" gradientUnits="userSpaceOnUse" x1="5822.833" y1="-4270.5591" x2="5822.833" y2="-4192.728" gradientTransform="matrix(0.455 0 0 -0.455 -2424.2671 -1835.901)">
				<stop  offset="0.056" style="stop-color:#90004F"/>
				<stop  offset="0.23" style="stop-color:#E3007F"/>
				<stop  offset="0.444" style="stop-color:#90004F"/>
				<stop  offset="1" style="stop-color:#690035"/>
			</linearGradient>
			<path class="st5" d="M226.265,89.892c0-5.775,3.075-10.662,7.314-12.308c-1.697-1.09-3.669-1.673-5.686-1.68
				c-6.713,0-12.156,6.475-12.156,14.463s5.443,14.464,12.156,14.464c2.403-0.015,4.732-0.836,6.614-2.33
				C229.794,101.247,226.265,96.081,226.265,89.892z"/>
			<polygon class="st6" points="238.561,37.752 228.003,30.787 229.721,29.696 237.89,34.283 249.703,42.013 			"/>
			
				<linearGradient id="SVGID_2_" gradientUnits="userSpaceOnUse" x1="5050.3467" y1="-4494.3022" x2="5161.7266" y2="-4774.7632" gradientTransform="matrix(0.317 0 0 -0.317 -1368.823 -1363.1899)">
				<stop  offset="0.056" style="stop-color:#90004F"/>
				<stop  offset="0.23" style="stop-color:#E3007F"/>
				<stop  offset="0.444" style="stop-color:#90004F"/>
				<stop  offset="1" style="stop-color:#690035"/>
			</linearGradient>
			<path class="st7" d="M237.367,61.813c3.319,0.556,6.588,1.374,9.778,2.445c3.261,1.324,14.77,7.436,14.77,25.974
				c0,12.936-6.461,19.908-9.371,22.205c-3.87,3.057-11.89,5.823-18.407,7.452c0,0,19.529-6.636,19.529-28.333
				S240.322,63.342,237.367,61.813z"/>
			
				<linearGradient id="SVGID_3_" gradientUnits="userSpaceOnUse" x1="4709.0488" y1="-4483.8408" x2="4648.6831" y2="-4311.8901" gradientTransform="matrix(0.455 0 0 -0.455 -1907.807 -1921.5231)">
				<stop  offset="0.056" style="stop-color:#90004F"/>
				<stop  offset="0.23" style="stop-color:#E3007F"/>
				<stop  offset="0.444" style="stop-color:#90004F"/>
				<stop  offset="1" style="stop-color:#690035"/>
			</linearGradient>
			<path class="st8" d="M227.146,103.949c-5.31,0-9.616-6.08-9.616-13.582s4.306-13.579,9.616-13.579
				c2.676,0.113,5.135,1.5,6.618,3.73c-1.939-3.666-5.107-5.59-8.519-5.59c-6.188,0-11.4,6.668-11.4,15.643
				c0,8.551,5.209,15.484,11.4,15.484c4.163,0,8.069-3.161,9.725-7.8C233.228,101.7,230.373,103.949,227.146,103.949z"/>
			<polygon class="st9" points="223.127,63.571 223.591,63.939 237.89,62.183 249.327,43.52 249.766,42.013 242.478,38.054 
				238.561,37.752 			"/>
			<path class="st10" d="M229.134,62.26c3.172-0.234,6.351,0.365,9.219,1.74c2.9,1.414,5.439,3.47,7.424,6.012
				c2.12,2.779,3.724,5.916,4.736,9.261c1.191,3.615,1.812,7.394,1.839,11.2c-0.018,4.339-0.821,8.638-2.371,12.691
				c-1.314,3.557-3.362,6.798-6.011,9.512c-2.453,2.49-5.452,4.376-8.76,5.506c-3.345,1.208-6.939,1.56-10.455,1.022
				c-6.61-0.762-12.628-4.174-16.677-9.455c-2.016-2.62-3.552-5.576-4.537-8.732c-1.074-3.445-1.591-7.04-1.53-10.648
				c0.03-2.282,0.255-4.557,0.674-6.8c0.418-2.254,0.986-4.478,1.7-6.656c0.715-2.183,1.539-4.328,2.471-6.428
				c0.93-2.1,1.94-4.133,2.988-6.081L228,30.787l10.558,6.965l-15.183,25.765l0.183,0.2c0.405-0.218,0.824-0.408,1.255-0.57
				c0.448-0.17,0.906-0.314,1.37-0.432c0.471-0.119,0.959-0.217,1.45-0.292S228.631,62.294,229.134,62.26z M224.753,105.919
				c1.658,0.133,3.318-0.227,4.772-1.035c1.474-0.845,2.739-2.011,3.7-3.413c1.059-1.524,1.865-3.208,2.387-4.989
				c0.555-1.844,0.844-3.759,0.858-5.685c0.005-1.955-0.264-3.9-0.8-5.78c-0.503-1.815-1.287-3.54-2.325-5.112
				c-0.939-1.443-2.182-2.663-3.643-3.574c-1.423-0.869-3.067-1.306-4.734-1.259c-1.648,0.045-3.25,0.552-4.623,1.465
				c-1.375,0.929-2.541,2.133-3.425,3.537c-0.953,1.489-1.679,3.111-2.154,4.813c-1.003,3.492-1.035,7.191-0.091,10.7
				c0.449,1.729,1.148,3.382,2.075,4.909c0.867,1.453,2.016,2.717,3.38,3.719c1.354,0.983,2.953,1.571,4.621,1.7"/>
			
				<linearGradient id="SVGID_4_" gradientUnits="userSpaceOnUse" x1="5012.6177" y1="-4484.0786" x2="5140.0996" y2="-4802.1123" gradientTransform="matrix(0.317 0 0 -0.317 -1368.823 -1363.1899)">
				<stop  offset="0.056" style="stop-color:#90004F"/>
				<stop  offset="0.23" style="stop-color:#E3007F"/>
				<stop  offset="0.444" style="stop-color:#90004F"/>
				<stop  offset="1" style="stop-color:#690035"/>
			</linearGradient>
			<path class="st11" d="M223.977,63.472c2.354-1.829,6.125-2.371,8.6-2.371c2.561-0.038,5.102,0.447,7.469,1.424
				c7.166,3.073,15.37,11.079,15.37,27.572c0,26.485-19.205,30.218-25.4,30.218c-4.064,0.043-8.077-0.906-11.691-2.765
				c3.423,1.321,7.08,1.926,10.746,1.779c5.493,0,23.132-5.21,23.132-29.5c0-8.684-3.463-16.569-7.27-20.709
				c-4.618-5.023-9.64-6.929-14.731-6.883C228.062,62.187,225.936,62.609,223.977,63.472z"/>
		</g>
	</g>
</g>
<g id="レイヤー_2">
</g>
<g id="レイヤー_3">
	<g>
		<g>
			<g>
				<polygon class="st12" points="269.915,119.497 269.89,25.801 139.247,43.654 139.195,102.782 				"/>
			</g>
			<g>
				<g>
					<polygon class="st3" points="161.319,103.422 161.429,90.518 151.924,89.51 157.423,78.125 148.577,73.163 157.519,68.291 
						152.777,57.668 161.571,59.962 161.461,43.162 168.691,55.885 176.432,40.998 176.626,58.269 191.377,51 182.073,67.173 
						198.02,72.962 182.092,78.972 191.248,95.164 176.658,88.108 176.367,105.321 168.652,90.531 					"/>
				</g>
			</g>
			<g>
				<g>
					<path class="st13" d="M113.472,140.956l-18.247,0.006l-0.006-17.775l18.247-0.006L113.472,140.956z M109.35,127.141H99.341
						l0.006,9.867l10.009-0.006L109.35,127.141z"/>
					<path class="st13" d="M117,141.182l-0.013-18.531l4.206-0.006v5.751l12.994,0.569l0.006,4.077l-12.974-0.569l0.006,8.71H117z"
						/>
				</g>
				<path class="st13" d="M148.506,127.348l-9.705-0.42V123l9.705,0.394V127.348z M142.678,136.82
					c7.883-0.006,10.48-1.906,10.48-9.414v-2.158h4.226v2.449c0.006,9.472-4.219,13.446-14.538,13.453h-3.638l-0.006-4.336
					L142.678,136.82z M148.506,133.461l-9.705-0.401v-3.954l9.705,0.42V133.461z"/>
				<path class="st13" d="M161.642,137.253h1.014c6.513,0,7.418-0.976,7.902-4.652c0.317-2.455,0.633-5.899,0.633-5.899h4.226
					c0,0-0.653,5.221-0.866,6.681c-0.737,5.201-2.998,7.528-10.125,7.702h-2.791L161.642,137.253z M163.141,126.747l0.698,7.398
					h-3.89l-0.698-7.398H163.141z M168.678,126.747l0.724,7.398h-3.909l-0.678-7.398H168.678z"/>
				<path class="st13" d="M196.495,122.78c0.239,13.679-3.689,18.396-15.003,18.396h-2.261v-4.058h2.177
					c7.825-0.006,10.571-2.817,10.694-10.364l-8.671,0.006l-1.88,5.415h-4.523l3.379-9.388L196.495,122.78z"/>
				<path class="st13" d="M217.623,141.163c-3.845-0.801-6.513-3.257-7.741-5.453c-2.216,2.895-5.77,4.949-11.501,5.499
					l-0.006-4.142c6.914-0.536,10.551-4.743,11.01-10.009l-10.506,0.006v-4.058l15.43-0.006c-0.123,3.786-0.885,7.082-1.751,9.136
					c0.717,2.177,3.05,3.825,5.059,4.504v4.523H217.623z"/>
			</g>
			<g>
				<path class="st13" d="M85.921,104.223l-35.796,3.761v-0.336c4.529-3.916,3.896-10.086,3.896-15.876V50.147
					c0-5.789,0.64-12.038-3.896-16.192v-0.342l23.209,3.67v0.31c-3.935,2.643-3.366,8.704-3.366,14.267v42.18
					c2.572,1.402,5.486,1.415,8.264,1.234c4.129-0.278,7.256-1.57,10.383-4.982L85.921,104.223z"/>
				<path class="st13" d="M115.611,75.709c0,3.728-0.323,7.618-1.706,10.732c-1.499,3.392-3.845,5.654-6.455,5.848
					c-2.882,0.213-5.479-2.701-6.972-6.571c-1.512-4.097-2.546-10.5-2.546-15.339c0-8.594,2.817-17.743,8.917-16.955
					C113.53,54.283,115.611,67.031,115.611,75.709z M126.111,73.337c0-17.808-7.657-28.902-19.152-30.789
					c-12.315-2.029-23.952,8.775-23.952,29.703c0,20.638,10.732,32.456,23.261,31.073
					C117.465,102.084,126.111,90.899,126.111,73.337z"/>
				<path class="st13" d="M148.622,61.19c-0.653-2.52-2.009-3.386-3.612-3.547c-0.814-0.084-1.538-0.084-2.313,0.207v29.826
					c0,4.239,0.045,7.579,1.997,10.377v0.22l-12.949,1.215v-0.233c2.462-2.63,2.113-7.017,2.113-11.049V56.958
					c-0.853-0.394-1.609-0.472-2.52-0.569c-2.371-0.239-3.89,0.478-5.912,2.378l-0.375,0.368l2.081-12.122l1.002,0.381l21.995,3.101
					L148.622,61.19z"/>
				<path class="st13" d="M168.698,76.432c0,2.856-0.207,5.835-1.092,8.206c-0.956,2.578-2.442,4.277-4.084,4.387
					c-1.809,0.123-3.425-2.113-4.342-5.033c-0.93-3.082-1.57-7.889-1.57-11.514c0-6.442,1.732-13.362,5.531-12.91
					C167.367,60.059,168.698,69.783,168.698,76.432z M175.689,74.584c0-13.795-5.117-22.156-12.632-23.261
					c-7.844-1.15-15.062,7.185-15.062,22.654c0,15.249,6.655,24.204,14.616,23.423C169.919,96.682,175.689,88.192,175.689,74.584z"
					/>
			</g>
			<g>
				
					<linearGradient id="SVGID_5_" gradientUnits="userSpaceOnUse" x1="4668.6196" y1="-3453.5974" x2="4668.6196" y2="-3376.1226" gradientTransform="matrix(0.4554 0 0 -0.4554 -1901.2421 -1474.6456)">
					<stop  offset="0.0562" style="stop-color:#91004F"/>
					<stop  offset="0.2303" style="stop-color:#E4007F"/>
					<stop  offset="0.4438" style="stop-color:#91004F"/>
					<stop  offset="1" style="stop-color:#6A0035"/>
				</linearGradient>
				<path class="st14" d="M225.984,79.269c0-5.751,3.063-10.616,7.282-12.251c-1.686-1.066-3.612-1.674-5.66-1.674
					c-6.681,0-12.102,6.448-12.102,14.396c0,7.954,5.421,14.396,12.102,14.396c2.429,0,4.691-0.853,6.584-2.32
					C229.493,90.576,225.984,85.433,225.984,79.269z"/>
				<polygon class="st15" points="238.222,27.371 227.71,20.438 229.422,19.352 237.55,23.914 249.31,31.61 				"/>
				
					<linearGradient id="SVGID_6_" gradientUnits="userSpaceOnUse" x1="2981.7683" y1="-3030.2715" x2="3092.6377" y2="-3309.448" gradientTransform="matrix(0.3166 0 0 -0.3166 -712.9678 -910.2816)">
					<stop  offset="0.0562" style="stop-color:#91004F"/>
					<stop  offset="0.2303" style="stop-color:#E4007F"/>
					<stop  offset="0.4438" style="stop-color:#91004F"/>
					<stop  offset="1" style="stop-color:#6A0035"/>
				</linearGradient>
				<path class="st16" d="M237.033,51.323c0,0,6.487,1.118,9.731,2.436c3.244,1.318,14.7,7.405,14.7,25.852
					c0,12.878-6.429,19.817-9.33,22.104c-3.851,3.043-11.837,5.796-18.325,7.418c0,0,19.442-6.604,19.442-28.204
					C253.258,59.329,239.973,52.842,237.033,51.323z"/>
				
					<linearGradient id="SVGID_7_" gradientUnits="userSpaceOnUse" x1="3557.2676" y1="-3667.4707" x2="3497.1782" y2="-3496.3064" gradientTransform="matrix(0.4554 0 0 -0.4554 -1384.7826 -1560.2672)">
					<stop  offset="0.0562" style="stop-color:#91004F"/>
					<stop  offset="0.2303" style="stop-color:#E4007F"/>
					<stop  offset="0.4438" style="stop-color:#91004F"/>
					<stop  offset="1" style="stop-color:#6A0035"/>
				</linearGradient>
				<path class="st17" d="M226.857,93.264c-5.285,0-9.569-6.054-9.569-13.517c0-7.469,4.284-13.517,9.569-13.517
					c2.552,0,4.872,1.415,6.591,3.715c-1.932-3.651-5.085-5.563-8.484-5.563c-6.158,0-11.346,6.636-11.346,15.572
					c0,8.51,5.182,15.41,11.346,15.41c4.142,0,8.032-3.147,9.679-7.76C232.911,91.029,230.068,93.264,226.857,93.264z"/>
				<polygon class="st9" points="222.857,53.068 223.322,53.436 237.55,51.692 248.935,33.109 249.375,31.61 242.119,27.668 
					238.222,27.371 				"/>
				<g>
					<path class="st18" d="M228.84,51.763c3.341-0.226,6.423,0.407,9.175,1.725c2.811,1.344,5.357,3.405,7.392,5.983
						c2.068,2.617,3.605,5.757,4.717,9.22c1.118,3.489,1.842,7.276,1.829,11.146c-0.013,4.62-0.937,8.878-2.358,12.632
						c-1.415,3.722-3.457,6.92-5.983,9.466c-2.494,2.507-5.447,4.368-8.723,5.479c-3.211,1.092-5.906,1.544-10.409,1.014
						c-3.457-0.414-6.642-1.499-9.453-3.134c-2.759-1.602-5.169-3.728-7.146-6.28c-1.951-2.513-3.483-5.44-4.517-8.691
						c-1.027-3.224-1.564-6.784-1.525-10.597c0.019-2.274,0.265-4.536,0.672-6.772c0.407-2.242,0.989-4.452,1.693-6.623
						c0.711-2.177,1.544-4.323,2.462-6.397c0.924-2.087,1.932-4.116,2.972-6.054l18.073-33.451l10.506,6.933l-15.12,25.645
						l0.181,0.2c0.394-0.213,0.814-0.407,1.247-0.569c0.439-0.168,0.892-0.31,1.363-0.433c0.472-0.116,0.956-0.213,1.441-0.291
						C227.839,51.853,228.336,51.801,228.84,51.763z M224.479,95.222c1.745,0.136,3.341-0.252,4.749-1.027
						c1.428-0.782,2.662-1.964,3.683-3.399c1.027-1.447,1.829-3.147,2.378-4.969s0.846-3.761,0.853-5.66
						c0.006-1.925-0.265-3.896-0.795-5.751c-0.53-1.854-1.305-3.599-2.313-5.085c-0.995-1.48-2.216-2.714-3.625-3.56
						c-1.396-0.84-2.979-1.299-4.71-1.254c-1.719,0.045-3.257,0.575-4.601,1.46c-1.331,0.872-2.481,2.087-3.412,3.521
						c-0.93,1.422-1.648,3.063-2.145,4.794c-0.491,1.725-0.756,3.541-0.775,5.337c-0.013,1.764,0.22,3.58,0.678,5.318
						c0.465,1.745,1.157,3.418,2.068,4.885c0.911,1.48,2.042,2.759,3.366,3.702C221.209,94.479,222.754,95.093,224.479,95.222"/>
				</g>
				
					<linearGradient id="SVGID_8_" gradientUnits="userSpaceOnUse" x1="2944.1855" y1="-3020.0947" x2="3071.0842" y2="-3336.6738" gradientTransform="matrix(0.3166 0 0 -0.3166 -712.9678 -910.2816)">
					<stop  offset="0.0562" style="stop-color:#91004F"/>
					<stop  offset="0.2303" style="stop-color:#E4007F"/>
					<stop  offset="0.4438" style="stop-color:#91004F"/>
					<stop  offset="1" style="stop-color:#6A0035"/>
				</linearGradient>
				<path class="st19" d="M223.704,52.971c2.345-1.822,6.1-2.358,8.561-2.358c1.887,0,4.594,0.2,7.437,1.415
					c7.133,3.056,15.301,11.03,15.301,27.448c0,26.363-19.119,30.078-25.283,30.078c-6.171,0-10.558-2.139-11.637-2.753
					c4.691,1.557,6.377,1.77,10.694,1.77c5.466,0,23.028-5.188,23.028-29.367c0-8.645-3.45-16.496-7.237-20.612
					c-4.594-5.001-9.595-6.894-14.661-6.849C227.199,51.763,225.306,52.234,223.704,52.971z"/>
			</g>
		</g>
		<rect x="0.52" y="0.28" class="st20" width="320" height="160"/>
	</g>
</g>
</svg>
