<?xml version="1.0" encoding="utf-8"?>
<!-- Generator: Adobe Illustrator 23.1.0, SVG Export Plug-In . SVG Version: 6.00 Build 0)  -->
<svg version="1.1" xmlns="http://www.w3.org/2000/svg" xmlns:xlink="http://www.w3.org/1999/xlink" x="0px" y="0px"
	 viewBox="0 0 320 160" style="enable-background:new 0 0 320 160;" xml:space="preserve">
<style type="text/css">
	.st0{display:none;}
	.st1{display:inline;}
	.st2{fill:#F29600;}
	.st3{fill:#FFFFFF;}
	.st4{fill:#2C4197;}
	.st5{fill:#E50012;}
	.st6{fill:#2C4198;}
	.st7{fill:#F39800;}
	.st8{fill:#E60012;}
	.st9{fill:none;}
</style>
<g id="レイヤー_1" class="st0">
	<title>logo-minilotonotxt-001</title>
	<g class="st1">
		<polygon class="st2" points="46.15,124.362 46.179,35.638 163.837,55.266 163.888,105.82 46.15,124.362 		"/>
		<polygon class="st3" points="153.22,106.698 153.12,95.583 161.301,94.715 156.564,84.911 164.184,80.638 156.484,76.434 
			161.349,66.434 152.989,69.266 153.085,54.797 146.863,65.753 140.19,52.926 140.028,67.805 127.315,61.546 135.33,75.476 
			121.588,80.464 135.313,85.646 127.422,99.582 139.995,93.504 140.246,108.338 146.895,95.597 153.22,106.698 		"/>
		<polygon class="st4" points="63.213,98.931 63.213,69.786 63.287,69.791 68.177,98.547 73.285,98.148 78.026,70.461 
			78.092,70.465 78.092,97.764 82.899,97.383 82.899,62.767 75.113,62.122 70.935,86.638 70.866,86.638 66.786,61.44 57.545,60.689 
			57.545,99.373 63.213,98.931 		"/>
		<polygon class="st4" points="93.181,96.704 93.181,63.481 88.597,63.099 88.597,97.068 93.181,96.704 		"/>
		<polygon class="st4" points="101.822,96.076 101.822,72.709 101.877,72.718 107.211,95.634 112.322,95.217 112.322,64.987 
			108.739,64.692 108.739,86.033 108.684,86.04 103.561,64.268 97.85,63.799 97.85,96.401 101.822,96.076 		"/>
		<polygon class="st4" points="119.784,94.658 119.784,65.551 116.182,65.254 116.182,94.953 119.784,94.658 		"/>
		<path class="st5" d="M191.112,68.515c-0.667-2.904-1.853-5.663-3.5-8.145c-1.312-1.977-3.137-3.561-5.279-4.582
			c-2.005-0.892-4.227-1.18-6.393-0.827c-2.186,0.343-4.245,1.249-5.975,2.628c-1.872,1.492-3.439,3.331-4.614,5.416
			c-1.362,2.391-2.367,4.968-2.982,7.65c-0.729,3.152-1.088,6.379-1.069,9.615c-0.023,3.207,0.309,6.407,0.988,9.541
			c0.568,2.654,1.514,5.214,2.808,7.6c1.109,2.073,2.621,3.903,4.449,5.382c1.708,1.379,3.76,2.266,5.935,2.565
			c2.161,0.298,4.362-0.05,6.325-1c2.175-1.093,4.039-2.718,5.419-4.724c1.737-2.504,3.006-5.301,3.748-8.256
			c0.967-3.735,1.438-7.582,1.4-11.44c0.043-3.847-0.38-7.685-1.258-11.43L191.112,68.515z M181.931,85.244
			c-0.048,0.921-0.125,1.791-0.228,2.582c-0.11,0.809-0.26,1.613-0.452,2.407c-0.182,0.725-0.422,1.435-0.717,2.122
			c-0.278,0.655-0.618,1.283-1.014,1.874c-0.318,0.482-0.698,0.921-1.129,1.306c-0.339,0.297-0.726,0.534-1.145,0.7
			c-0.36,0.134-0.746,0.186-1.129,0.153c-0.416-0.05-0.813-0.203-1.155-0.446c-0.459-0.328-0.862-0.728-1.194-1.184
			c-0.43-0.559-0.799-1.162-1.1-1.8c-0.35-0.719-0.642-1.464-0.872-2.23c-0.248-0.811-0.478-1.754-0.69-2.8
			c-0.21-1.009-0.387-2.089-0.541-3.2s-0.262-2.2-0.346-3.28c-0.082-1.095-0.122-2.125-0.122-3.078
			c-0.001-1.709,0.117-3.415,0.354-5.107c0.219-1.568,0.585-3.113,1.094-4.612c0.391-1.202,1.001-2.321,1.8-3.3
			c0.572-0.726,1.406-1.2,2.323-1.32c1.033-0.077,2.028,0.403,2.611,1.258c0.988,1.313,1.706,2.808,2.112,4.4
			c0.583,2.067,0.992,4.18,1.221,6.316c0.254,2.182,0.381,4.378,0.382,6.575c0,0.959-0.024,1.831-0.061,2.652L181.931,85.244z"/>
		<path class="st5" d="M271.543,62.555c-1.252-4.249-3.401-8.181-6.3-11.53c-2.458-2.791-5.622-4.869-9.16-6.014
			c-3.481-1.065-7.166-1.284-10.748-0.639c-3.555,0.598-6.939,1.953-9.923,3.975c-3.022,2.047-5.634,4.641-7.7,7.65
			c-2.232,3.229-3.916,6.805-4.982,10.583c-1.216,4.291-1.819,8.732-1.79,13.192c-0.031,4.414,0.527,8.812,1.658,13.078
			c0.987,3.73,2.572,7.276,4.692,10.5c1.959,2.976,4.482,5.539,7.426,7.545c2.942,1.996,6.299,3.3,9.817,3.812
			c3.561,0.552,7.203,0.23,10.613-0.937c3.609-1.278,6.844-3.433,9.414-6.271c3.043-3.391,5.339-7.382,6.74-11.717
			c1.756-5.364,2.619-10.98,2.552-16.623c0.077-5.618-0.701-11.216-2.307-16.6L271.543,62.555z M256.543,86.795
			c-0.075,1.236-0.213,2.466-0.413,3.688c-0.184,1.166-0.456,2.316-0.813,3.441c-0.318,1.049-0.74,2.064-1.259,3.03
			c-0.516,0.954-1.132,1.851-1.836,2.676c-0.611,0.72-1.316,1.356-2.095,1.89c-0.688,0.471-1.448,0.826-2.25,1.052
			c-0.766,0.212-1.566,0.28-2.357,0.2c-0.86-0.094-1.688-0.374-2.429-0.82c-0.839-0.489-1.594-1.108-2.24-1.833
			c-0.74-0.804-1.393-1.685-1.947-2.627c-0.592-1.013-1.1-2.074-1.519-3.17c-0.464-1.286-0.859-2.595-1.185-3.922
			c-0.354-1.406-0.661-2.909-0.915-4.457s-0.461-3.067-0.6-4.565c-0.132-1.514-0.212-2.947-0.212-4.26
			c-0.005-2.384,0.201-4.764,0.617-7.111c0.368-2.224,0.997-4.397,1.875-6.473c0.725-1.798,1.806-3.431,3.178-4.8
			c1.239-1.221,2.846-1.999,4.572-2.213c1.948-0.237,3.897,0.435,5.285,1.821c1.721,1.774,3.02,3.913,3.8,6.258
			c1.04,2.915,1.77,5.932,2.177,9c0.45,3.113,0.675,6.255,0.673,9.4c0,1.376-0.04,2.613-0.111,3.8L256.543,86.795z"/>
		<path class="st5" d="M143.876,60.551l12.206-1.822c-1.574,1.3-2.595,3.307-2.595,7.361v27.521c2.13,0.586,5.043,1.115,8.044-2.294
			l-0.14,11.115l-17.434-1.861c1.176-1.077,2.048-2.879,2.048-6.12V66.195C146.005,63.195,145.059,61.472,143.876,60.551z"/>
		<path class="st5" d="M222.7,48.985l-28.635,4.7l-1.676,15.5c2.3-3.632,4.592-5.969,8.346-6.026v35.71
			c0,3.2-0.841,6.041-2.919,7.642l17.305,2.24c-1.776-2.947-3.238-6.216-3.238-9.776V61.993c5-1.2,6.593,2.416,8.292,5.872
			L222.7,48.985L222.7,48.985z"/>
	</g>
</g>
<g id="レイヤー_2" class="st0">
</g>
<g id="レイヤー_3">
	<g>
		<path class="st6" d="M138.555,119.941l-18.455-0.81v-4.042l18.455,0.796V119.941L138.555,119.941z M137.679,126.492l-17.003-0.803
			v-3.908l17.003,0.79V126.492L137.679,126.492z M119.779,128.359l19.218,1.499v4.068l-19.218-1.532V128.359L119.779,128.359z"/>
		<path class="st6" d="M160.323,120.262h-18.047v-4.269h18.047V120.262L160.323,120.262z M161.032,133.277H141.58v-4.316h19.452
			V133.277L161.032,133.277z"/>
		<path class="st6" d="M182.827,133.752h-19.038V115.21h19.038V133.752L182.827,133.752z M178.524,119.345h-10.432v10.285h10.432
			V119.345L178.524,119.345z"/>
		<polygon class="st6" points="186.501,133.986 186.501,114.661 190.877,114.661 190.877,120.65 204.441,121.239 204.441,125.495 
			190.904,124.906 190.904,133.986 		"/>
		<polygon class="st7" points="45.93,115.471 45.957,26.774 163.575,46.4 163.629,96.935 		"/>
		<polygon class="st3" points="152.962,97.812 152.862,86.704 161.039,85.834 156.308,76.03 163.923,71.761 156.228,67.559 
			161.086,57.562 152.735,60.392 152.828,45.932 146.612,56.879 139.94,44.058 139.773,58.933 127.066,52.677 135.082,66.602 
			121.344,71.587 135.062,76.767 127.173,90.698 139.74,84.622 139.994,99.451 146.639,86.717 		"/>
		<polygon class="st6" points="62.987,90.049 62.987,60.914 63.06,60.914 67.952,89.661 73.058,89.266 77.795,61.583 77.862,61.59 
			77.862,88.878 82.667,88.497 82.667,53.895 74.885,53.252 70.709,77.757 70.635,77.757 66.56,52.57 57.319,51.82 57.319,90.491 		
			"/>
		<polygon class="st6" points="92.945,87.821 92.945,54.611 88.361,54.229 88.361,88.182 		"/>
		<polygon class="st6" points="101.584,87.192 101.584,63.832 101.638,63.845 106.971,86.75 112.077,86.336 112.077,56.116 
			108.497,55.822 108.497,77.155 108.443,77.161 103.324,55.394 97.616,54.925 97.616,87.52 		"/>
		<polygon class="st6" points="119.538,85.773 119.538,56.678 115.938,56.384 115.938,86.068 		"/>
		<path class="st8" d="M190.843,59.643c-0.81-3.232-1.987-5.969-3.5-8.144c-1.486-2.128-3.252-3.66-5.28-4.584
			c-1.974-0.89-4.129-1.164-6.39-0.83c-2.128,0.315-4.135,1.204-5.976,2.63c-1.767,1.372-3.319,3.192-4.611,5.414
			c-1.291,2.222-2.295,4.791-2.978,7.649c-0.703,2.944-1.064,6.183-1.064,9.609c0,3.419,0.335,6.625,0.99,9.536
			c0.642,2.851,1.586,5.414,2.804,7.602c1.238,2.228,2.737,4.042,4.45,5.38c1.8,1.425,3.808,2.282,5.935,2.563
			c2.188,0.294,4.316-0.04,6.324-0.997c2.041-0.977,3.868-2.57,5.42-4.724c1.613-2.242,2.877-5.019,3.747-8.251
			c0.93-3.426,1.399-7.274,1.399-11.436C192.101,66.85,191.68,63.002,190.843,59.643L190.843,59.643z M181.663,76.365
			c-0.047,0.923-0.127,1.787-0.228,2.583c-0.12,0.877-0.274,1.68-0.455,2.409c-0.194,0.776-0.442,1.492-0.716,2.121
			c-0.301,0.696-0.649,1.332-1.017,1.874c-0.355,0.522-0.736,0.964-1.131,1.305c-0.375,0.328-0.763,0.555-1.144,0.703
			c-0.375,0.141-0.749,0.187-1.131,0.154c-0.368-0.033-0.763-0.181-1.151-0.448c-0.408-0.274-0.803-0.676-1.191-1.184
			c-0.395-0.502-0.763-1.111-1.097-1.8c-0.335-0.676-0.629-1.439-0.87-2.228c-0.248-0.81-0.475-1.753-0.689-2.797
			c-0.207-1.01-0.388-2.088-0.542-3.199c-0.147-1.104-0.261-2.202-0.348-3.279c-0.08-1.097-0.12-2.121-0.12-3.078
			c0-1.747,0.12-3.466,0.355-5.106c0.261-1.726,0.622-3.279,1.091-4.611c0.502-1.405,1.111-2.516,1.793-3.299
			c0.709-0.796,1.459-1.238,2.322-1.318c0.957-0.107,1.82,0.301,2.61,1.258c0.816,0.964,1.526,2.449,2.115,4.403
			c0.529,1.8,0.937,3.921,1.218,6.317c0.248,2.115,0.381,4.39,0.381,6.571C181.723,74.672,181.703,75.542,181.663,76.365
			L181.663,76.365z"/>
		<path class="st8" d="M271.243,53.68c-1.465-4.631-3.58-8.505-6.303-11.523c-2.59-2.877-5.674-4.898-9.154-6.009
			c-3.332-1.057-6.953-1.271-10.747-0.636c-3.54,0.589-6.866,1.927-9.917,3.975c-2.951,1.981-5.541,4.544-7.702,7.649
			c-2.168,3.092-3.841,6.645-4.979,10.579c-1.178,4.055-1.787,8.492-1.787,13.189c0,4.671,0.562,9.067,1.66,13.075
			c1.071,3.915,2.65,7.448,4.691,10.492c2.068,3.085,4.557,5.621,7.421,7.541c2.971,2.007,6.277,3.299,9.817,3.814
			c3.66,0.542,7.227,0.228,10.606-0.937c3.526-1.225,6.692-3.332,9.408-6.27c2.891-3.132,5.159-7.066,6.738-11.71
			c1.693-4.958,2.549-10.553,2.549-16.615C273.552,64.133,272.775,58.545,271.243,53.68L271.243,53.68z M256.247,77.917
			c-0.08,1.312-0.228,2.556-0.415,3.687c-0.201,1.238-0.475,2.396-0.81,3.439c-0.341,1.111-0.77,2.128-1.258,3.031
			c-0.555,0.997-1.164,1.907-1.833,2.677c-0.656,0.756-1.358,1.392-2.094,1.887c-0.723,0.488-1.479,0.843-2.248,1.051
			c-0.783,0.214-1.566,0.274-2.355,0.201c-0.816-0.08-1.639-0.355-2.429-0.816c-0.776-0.442-1.532-1.057-2.242-1.834
			c-0.696-0.749-1.352-1.626-1.947-2.63c-0.575-0.977-1.084-2.041-1.519-3.172c-0.415-1.138-0.823-2.463-1.184-3.921
			c-0.355-1.405-0.662-2.911-0.917-4.457c-0.261-1.539-0.462-3.065-0.596-4.564c-0.134-1.512-0.214-2.944-0.214-4.256
			c0-2.436,0.207-4.818,0.616-7.106c0.422-2.422,1.057-4.597,1.874-6.471c0.87-2.014,1.941-3.64,3.179-4.805
			c1.332-1.265,2.871-2.007,4.57-2.215c1.961-0.234,3.741,0.381,5.286,1.82c1.465,1.365,2.744,3.48,3.794,6.257
			c0.95,2.549,1.686,5.581,2.175,9c0.448,3.025,0.676,6.277,0.676,9.388C256.354,75.495,256.314,76.733,256.247,77.917
			L256.247,77.917z"/>
		<path class="st8" d="M143.621,51.68l12.199-1.82c-1.573,1.305-2.596,3.306-2.596,7.361c0,4.062,0,27.509,0,27.509
			c2.128,0.589,5.039,1.117,8.043-2.295l-0.141,11.108l-17.425-1.86c1.178-1.077,2.048-2.877,2.048-6.116c0-3.232,0-25.254,0-28.245
			C145.749,54.323,144.805,52.603,143.621,51.68L143.621,51.68z"/>
		<path class="st8" d="M222.421,40.117l-28.627,4.698l-1.673,15.498c2.302-3.634,4.59-5.969,8.344-6.022c0,0,0,32.494,0,35.693
			c0,3.199-0.843,6.036-2.918,7.642l17.298,2.242c-1.773-2.944-3.239-6.216-3.239-9.77c0-3.567,0-36.971,0-36.971
			c5.005-1.204,6.591,2.416,8.291,5.869L222.421,40.117L222.421,40.117z"/>
	</g>
	<rect x="0.238" y="0.38" class="st9" width="320" height="160"/>
</g>
</svg>
