<?xml version="1.0" encoding="utf-8"?>
<!-- Generator: Adobe Illustrator 23.1.0, SVG Export Plug-In . SVG Version: 6.00 Build 0)  -->
<svg version="1.1" id="レイヤー_1" xmlns="http://www.w3.org/2000/svg" xmlns:xlink="http://www.w3.org/1999/xlink" x="0px"
	 y="0px" viewBox="0 0 320 160" style="enable-background:new 0 0 320 160;" xml:space="preserve">
<style type="text/css">
	.st0{fill:#CCCCCC;}
	.st1{fill:#004098;}
	.st2{fill:#F39800;}
	.st3{fill:#00A73C;}
	.st4{fill:none;}
</style>
<title>logo-numbers4-001</title>
<g>
	<path class="st0" d="M300.26,50.9H283.6l-40.58,43.81l-4.24,12.53l26.56-0.21l-5.74,14h13l5.54-13.13h7.38l5.1-12.53h-7.66
		L300.26,50.9z M269.79,95.77h-13l23.19-24L269.79,95.77z"/>
	<path class="st0" d="M44.4,75.7l-0.16,0.14l-10.3,29.13h-9.22L44.79,52.7h10l-3.73,29.2h0.16L61.5,52.7h9.17l-20.08,52.27h-9.87
		L44.4,75.7z"/>
	<path class="st0" d="M75.55,52.6h9.63L70.05,92c-1.17,3.39-1.3,5,1.48,5.05c3.47,0.08,4.55-3.17,5.39-5.4l15-39h9.63L87.04,90.4
		c-3.39,8.84-6.1,15.87-19,15.67c-7.94-0.12-11.09-5-7-15.67L75.55,52.6z"/>
	<path class="st0" d="M86.26,105.34l20.08-52.26h13.61l-6.86,30.87h0.1l17-30.87h13.53l-20.07,52.26h-9.25l16.72-41h-0.1l-22.54,41
		h-7.18l9.09-41h-0.12l-14.87,41H86.26z"/>
	<path class="st0" d="M155.4,61.09c3.44,0,6.55-0.75,3.77,6.59s-4.45,5.65-8.85,6L155.4,61.09z M146.99,83.19
		c3.44,0,6.92-0.53,4.16,6.79s-2.81,7.15-9.71,7.15L146.99,83.19z M142.88,105.31c13.79,0,15.8-8.53,17.82-14.21
		c2.17-6.12,3.29-10.32-0.63-13.36l0.06-0.15c6.28-3.33,7.4-5.88,9.16-10.47c4-10.54-0.85-14.06-8.18-14.06h-12.5l-20.09,52.28
		L142.88,105.31z"/>
	<path class="st0" d="M158.91,105.51l20.32-52.56h22.11l-3.06,8.34h-12.47l-5.11,13h12.09l-3.22,8.22h-12.08l-5.47,14.78h13.12
		l-3.45,8.18h-22.78V105.51z"/>
	<path class="st0" d="M203.69,84.9h3.19c2.19,0.2,2.16,2.29,1.21,5.49s-2.84,7.51-4.44,12.11c-0.305,0.976-0.506,1.982-0.6,3h11.12
		l-0.3-0.7c-0.241-0.571-0.324-1.196-0.24-1.81c0.74-3.33,4.13-12.31,5.46-16.48c1.23-3.62,0.21-6-2.19-6.76l0.05-0.14
		c5-2.37,7.55-6.35,9.7-11.94c4-10.4,1.59-14.44-6.32-14.44h-14.11l-20.09,52.27h9.65L203.69,84.9z"/>
	<path class="st0" d="M244.73,71.4h9.79c2.4-4.75,3.54-8.86,2.57-12.78c-1.28-5.16-11.9-8.74-20.88-2.78
		c-10.27,6.83-5.79,20-3.37,23.5c2.66,3.89,7.08,8.29,4.18,14.48c-0.53,1.39-1.384,2.635-2.49,3.63c-2.26,1.61-7.27,1.55-4.89-4.13
		c2.19-5.25,2.25-5.87,2.25-5.87h-9.8c-2.09,4.68-6.82,14.77,0.88,17.94s17.55,1.54,21-3c3-4,7.14-12.23,2.09-20.49
		s-8.83-12.07-4-18.74C244,61.01,250.74,60.9,244.73,71.4z"/>
	<path class="st1" d="M91.87,118.97l0.63-2c2.83,0,4.66-0.68,6-2.93c0.34-0.61,0.9-2.06,0.9-2.06h-5.85l0.7-2h5.83l0.85-2.27h2.31
		l-0.77,2.27h2.82l-0.67,1.93h-3C100.99,114.38,99.32,119.27,91.87,118.97z"/>
	<polygon class="st1" points="106.22,110.36 106.89,108.54 111.06,108.54 110.45,110.36 	"/>
	<path class="st1" d="M103.3,118.9l0.83-2.06c3.08,0.23,7.41-0.57,9.24-6.22h2.18C114.55,114.9,111.4,119.48,103.3,118.9z"/>
	<path class="st1" d="M119.59,108.22h2.12c-0.46,3.12-3,10-8.21,10.87l0.86-2.5C116.86,115.66,118.66,112.11,119.59,108.22z"/>
	<path class="st1" d="M123.85,108.22h2.08c-0.68,1.83-1.88,6.33,0.23,8.6l-1,2.31C123.11,117.74,121.96,113.36,123.85,108.22z"/>
	<polygon class="st1" points="127.16,110.65 127.98,108.28 126.76,108.28 125.95,110.65 	"/>
	<polygon class="st1" points="129.12,110.65 129.95,108.28 128.74,108.28 127.9,110.65 	"/>
	<polygon class="st1" points="146.01,110.65 146.83,108.28 145.61,108.28 144.79,110.65 	"/>
	<polygon class="st1" points="147.97,110.65 148.8,108.28 147.58,108.28 146.76,110.65 	"/>
	<polygon class="st1" points="135.21,114.34 135.91,112.37 127.95,112.37 127.26,114.34 	"/>
	<polygon class="st1" points="181.47,114.34 182.17,112.37 174.22,112.37 173.52,114.34 	"/>
	<path class="st1" d="M136.32,110.19l0.67-1.9h7.73c-0.654,2.345-1.754,4.542-3.24,6.47c0.07,1,2.51,2.57,2.51,2.57l-0.8,2.15
		c-1.287-0.781-2.375-1.849-3.18-3.12c-2.078,1.81-4.744,2.802-7.5,2.79l0.81-2.24c4.1-0.48,6.66-2.49,8.39-6.73h-5.39
		L136.32,110.19z"/>
	<path class="st1" d="M41.04,72.9l-0.15,0.14l-10.31,29.12H21.4L41.45,49.9h9.95l-3.69,29.2h0.16l10.28-29.2h9.16l-20.07,52.26H37.4
		L41.04,72.9z"/>
	<path class="st1" d="M72.2,49.8h9.64L66.71,89.19c-1.17,3.38-1.31,5,1.48,5.06c3.46,0.08,4.54-3.17,5.4-5.4l15-39.05h9.64
		L83.71,87.59c-3.4,8.84-6.12,15.88-19.06,15.67c-7.93-0.12-11.07-4.94-7-15.67L72.2,49.8z"/>
	<path class="st1" d="M82.91,102.54l20.06-52.26h13.63l-6.88,30.87h0.12l17-30.87h13.56l-20.1,52.26h-9.26l16.73-41h-0.11l-22.53,41
		h-7.18l9.09-41h-0.1l-14.85,41H82.91z"/>
	<path class="st1" d="M152.09,58.28c3.43,0,6.54-0.74,3.77,6.59s-4.45,5.65-8.85,6L152.09,58.28z M143.68,80.38
		c3.43,0,6.92-0.54,4.15,6.79s-2.81,7.15-9.72,7.15L143.68,80.38z M139.56,102.5c13.84,0.72,15.84-8.52,17.84-14.21
		c2.17-6.11,3.3-10.32-0.63-13.36l0.06-0.14c6.27-3.33,7.39-5.89,9.16-10.49c4-10.53-0.84-14.05-8.17-14.05h-12.53l-20.08,52.29
		L139.56,102.5z"/>
	<path class="st1" d="M155.56,102.7l20.31-52.56h22.11l-3.05,8.34h-12.48l-5.11,13h12.06l-3.22,8.21h-12.05l-5.48,14.79h13.13
		l-3.46,8.18L155.56,102.7z"/>
	<path class="st1" d="M200.32,82.11h3.21c2.18,0.2,2.15,2.29,1.19,5.49s-2.82,7.52-4.42,12.11c-0.314,0.974-0.515,1.98-0.6,3h11.11
		l-0.29-0.69c-0.241-0.575-0.323-1.203-0.24-1.82c0.73-3.3,4.12-12.3,5.45-16.5c1.22-3.61,0.22-6-2.18-6.75V76.8
		c5-2.37,7.54-6.35,9.69-11.94c4-10.4,1.59-14.44-6.33-14.44h-14.06l-20.08,52.27h9.63L200.32,82.11z"/>
	<path class="st1" d="M241.4,68.6h9.79c2.41-4.77,3.55-8.87,2.57-12.79c-1.28-5.16-11.9-8.74-20.87-2.78
		c-10.29,6.82-5.79,19.94-3.38,23.5c2.65,3.89,7.09,8.29,4.18,14.48c-0.531,1.387-1.385,2.628-2.49,3.62
		c-2.27,1.62-7.27,1.55-4.89-4.12c2.19-5.26,2.24-5.87,2.24-5.87h-9.79c-2.09,4.68-6.83,14.75,0.88,17.94s17.55,1.54,20.95-3
		c3-4,7.14-12.23,2.09-20.49s-8.83-12.06-4-18.74C240.65,58.2,247.4,58.03,241.4,68.6z"/>
	<polygon class="st2" points="20.25,100.06 202.8,66.44 186.89,85.47 206.55,68.31 206.86,77.36 210.3,68.62 219.65,80.17 
		214.04,67.37 222.77,71.43 215.91,64.26 254.61,55.2 254.37,53.88 215.91,59.57 223.4,50.21 212.48,58.32 212.48,47.09 
		208.42,58.32 199.99,47.39 205.3,59.88 183.46,48.33 203.12,62.69 19.94,98.58 	"/>
	<path class="st3" d="M296.4,47.58h-16.62L239.2,91.35l-4.26,12.55l26.57-0.22l-5.74,14h13l5.59-13.17h7.38l5.1-12.53h-7.65
		L296.4,47.58z M265.96,92.41h-13l23.18-24L265.96,92.41z"/>
	<path class="st1" d="M154.74,110.26l0.72-2h9.16c-1.12,5.45-3.7,10.91-11.86,11l0.52-2.08c4.36-0.52,7.28-2.34,8.43-6.92H154.74z"
		/>
	<path class="st1" d="M173.01,112.02h-2.06l0.65-1.9h-2.27l-0.64,1.9h-3.91l-0.61,1.86h3c-1.175,1.492-2.744,2.625-4.53,3.27
		l-0.51,1.83c2.04-0.435,3.899-1.482,5.33-3l-1.27,2.78h2.21l1.91-4.86h2.09L173.01,112.02z"/>
</g>
<rect class="st4" width="320" height="160"/>
</svg>
