<?xml version="1.0" encoding="utf-8"?>
<!-- Generator: Adobe Illustrator 24.1.0, SVG Export Plug-In . SVG Version: 6.00 Build 0)  -->
<svg version="1.1" id="&#x30EC;&#x30A4;&#x30E4;&#x30FC;_1" xmlns="http://www.w3.org/2000/svg" xmlns:xlink="http://www.w3.org/1999/xlink" x="0px" y="0px" viewbox="0 0 440.01 55.29" style="enable-background:new 0 0 440.01 55.29;" xml:space="preserve" width="440.01" height="55.29">
<style type="text/css">
	.st0{fill-rule:evenodd;clip-rule:evenodd;fill:#E50000;}
</style>
<path class="st0" d="M412.01,28.37v26.55H401V1.33h11.01v16.15c9.48,2.09,18.83,4.74,28,7.92v11.19
	C430.85,33.3,421.5,30.55,412.01,28.37z M375.71,21.77v32.97h-11.14V27.46l-21.61,10.83l0-11.92l33.23-15.67
	c4.39-2.12,5.3-3.39,5.3-7.38V1.69h11.01v2.35c0.49,5.53-2.55,10.77-7.59,13.07L375.71,21.77z M327.37,29.46
	c0.3,15.84-8.49,24.8-23.9,24.38h-12.76v-9.74h13.61c8.73,0.12,12.46-4.29,12.34-14.58v-7.14h-14.93v12.88h-10.29V22.38h-9.99v-9.8
	h9.99V2.3h10.29v10.28h14.93V2.3h10.72v10.28h10.42v9.8h-10.42V29.46z M263.01,52.2c-5.24-4.17-7.46-10.71-11.68-33.93h-29.62V9.31
	h28.11c-0.66-4.41-0.78-5.08-1.33-9.31h10.84l0.6,5.75l0.42,3.57h15.23v8.95h-13.79c1.51,10.04,3.37,16.94,5.78,21.96
	c1.75,3.5,2.77,4.17,6.56,4.17c0.36,0,1.08,0,1.93-0.06v10.64h-1.93C268.55,54.98,265.48,54.19,263.01,52.2z M262.06,0h9.99
	c1.08,2.54,1.62,3.81,3.01,7.86h-10.05C263.38,3.33,263.14,2.66,262.06,0z M200.49,1.15c3.67,8.41,7.65,12.7,14.81,15.97v11.38
	c-12.82-4.66-20.89-13.61-24.62-27.34L200.49,1.15z M197.96,40.46c-2.47-5.87-2.59-6.11-3.85-8.77h11.02
	c3.63,7.47,6.83,15.14,9.57,22.99h-10.9c-1.02-2.96-1.2-3.45-2.53-6.59c-11.92,4.47-22.39,6.23-39.44,6.65V45.6l3.85-0.3l3.37-0.24
	c3.57-8.44,6.37-17.18,8.37-26.13l11.39,0c-2.24,8.63-5.26,17.03-9.03,25.1C185.94,43.41,192.03,42.21,197.96,40.46z M160.7,17.66
	c6.49-3.26,11.21-9.24,12.88-16.33H184c-4.22,13.79-10.96,21.84-23.3,27.89V17.66z M138.29,52.81c-3.76,1.59-7.79,2.41-11.86,2.42
	c-4.69,0.05-9.3-1.23-13.29-3.69c-3.97-2.6-6.26-7.74-6.2-13.61l0.54-35.02h11.25l-0.6,32.67v0.42c-0.48,6.23,2.41,9.31,8.79,9.31
	c5.89,0.12,11.2-3.56,13.18-9.13c1.14-2.72,1.63-5.44,1.99-12.34h11.2c-0.66,10.35-2.35,16.46-5.96,21.84
	C145.12,48.94,141.97,51.43,138.29,52.81z M139.08,4.9h5.6v9.19h-5.6V4.9z M131.61,4.9h5.6v9.19h-5.6V4.9z M94.52,54.44H80.19
	L65.63,35.93L63.1,32.9c-1.17-1.37-1.76-3.16-1.62-4.96c-0.04-1.74,0.51-3.45,1.57-4.84L80.56,2.12h12.88L75.56,23.71
	c-1.03,1.14-1.64,2.59-1.75,4.11c0,1.27,0.3,1.75,2.29,4.18L94.52,54.44z M0,45.67h21.92v-8.29H5.66v-8.11h16.26v-5.57H4.16v-6.89
	H0.6V4.54h21.73V0.91h10.17v3.63h20.83V17h-3.79v6.71H32.63v5.57h15.65v8.11H32.63v8.29h7.1l-2.71-6.53h10.35l2.77,6.53h4.15v8.71H0
	V45.67z M43.1,15.91v-3.45H11.2v3.45H43.1z M230.81,44.7V33.45h-8.49v-9.38h27.81v9.38h-9.09v10.23c4.45-0.6,5.12-0.72,9.33-1.39
	v9.2c-10.36,1.69-19.87,2.96-28.66,3.81V45.06l4.58-0.18L230.81,44.7z"/>
</svg>
