<?xml version="1.0" encoding="utf-8"?>
<!-- Generator: Adobe Illustrator 23.1.0, SVG Export Plug-In . SVG Version: 6.00 Build 0)  -->
<svg version="1.1" xmlns="http://www.w3.org/2000/svg" xmlns:xlink="http://www.w3.org/1999/xlink" x="0px" y="0px"
	 viewBox="0 0 464 260" style="enable-background:new 0 0 464 260;" xml:space="preserve">
<style type="text/css">
	.st0{display:none;}
	.st1{display:inline;}
	.st2{fill:#004097;}
	.st3{fill:#F29600;}
	.st4{fill:#004098;}
	.st5{fill:#F39800;}
	.st6{fill:none;}
</style>
<g id="レイヤー_1" class="st0">
	<title>logo-numbers-001</title>
	<g class="st1">
		<g>
			<path class="st2" d="M72.9,125.429l-0.271,0.23l-17.042,48.155H40.359l33.192-86.408h16.506l-6.138,48.27h0.272l17-48.27h15.158
				l-33.196,86.408H66.81L72.9,125.429z"/>
			<path class="st2" d="M124.4,87.242h15.929l-25.018,65.132c-1.925,5.6-2.152,8.25,2.454,8.356c5.708,0.131,7.5-5.25,8.916-8.931
				l24.8-64.557h15.931l-24,62.487c-5.613,14.616-10.1,26.242-31.5,25.909c-13.122-0.2-18.319-8.181-11.509-25.909L124.4,87.242z"/>
			<path class="st2" d="M142.108,174.438L175.3,88.03h22.522l-11.356,51.034h0.181l28.121-51.034h22.384l-33.192,86.408h-15.317
				l27.655-67.73h-0.182l-37.257,67.73h-11.871l15.035-67.73h-0.18l-24.55,67.73H142.108z"/>
			<path class="st2" d="M256.5,101.262c5.681,0,10.822-1.231,6.238,10.9c-4.513,11.947-7.359,9.341-14.636,9.92L256.5,101.262z
				 M242.6,137.815c5.68,0,11.45-0.9,6.87,11.231c-4.516,11.948-4.648,11.815-16.063,11.815L242.6,137.815z M235.8,174.382
				c23.322,0.012,26.134-14.088,29.47-23.5c3.586-10.108,5.444-17.065-1.039-22.089l0.088-0.23
				c10.378-5.511,12.234-9.718,15.157-17.325c6.686-17.4-1.409-23.228-13.514-23.228h-20.7l-33.2,86.446L235.8,174.382z"/>
			<path class="st2" d="M262.228,174.706L295.823,87.8h36.551l-5.054,13.791H306.7l-8.451,21.555h19.984l-5.318,13.593h-19.986
				l-9.052,24.443h21.709l-5.716,13.529L262.228,174.706z"/>
			<path class="st2" d="M336.259,140.653h5.294c3.609,0.345,3.561,3.8,1.986,9.087s-4.681,12.424-7.323,20.014
				c-0.516,1.608-0.849,3.268-0.994,4.95H353.6l-0.5-1.153c-0.395-0.943-0.532-1.975-0.395-2.989
				c1.213-5.521,6.822-20.362,9.018-27.263c2.028-5.988,0.355-9.905-3.61-11.173l0.09-0.231c8.224-3.917,12.479-10.5,16.03-19.743
				c6.6-17.2,2.633-23.878-10.463-23.878h-23.319l-33.2,86.43h15.929L336.259,140.653z"/>
			<path class="st2" d="M404.121,118.328h16.2c3.982-7.877,5.859-14.66,4.246-21.136c-2.124-8.533-19.68-14.45-34.516-4.594
				c-16.992,11.289-9.582,32.974-5.575,38.858c4.382,6.432,11.709,13.691,6.9,23.924c-1.294,2.757-2.6,4.932-4.115,6.006
				c-3.751,2.659-12.015,2.561-8.1-6.826c3.619-8.678,3.716-9.714,3.716-9.714h-16.2c-3.452,7.744-11.284,24.418,1.459,29.669
				s29.016,2.539,34.65-4.989c4.913-6.565,11.816-20.216,3.452-33.87s-14.6-19.954-6.637-30.981
				C402.924,101.13,414.077,100.868,404.121,118.328z"/>
		</g>
		<polygon class="st3" points="38.516,170.345 340.35,114.751 314.037,146.225 346.541,117.847 347.058,132.811 352.733,118.364 
			368.211,137.454 358.924,116.299 373.372,123.007 362.02,111.14 426,96.177 425.612,93.984 362.02,103.401 374.403,87.922 
			356.346,101.337 356.346,82.763 349.637,101.337 335.708,83.279 344.48,103.916 308.362,84.826 340.867,108.56 38,167.895 		"/>
	</g>
</g>
<g id="レイヤー_2" class="st0">
</g>
<g id="レイヤー_3">
	<g>
		<g>
			<g>
				<path class="st4" d="M160.125,194.265l1.322-4.332c6.02,0.103,9.873-1.459,12.643-6.225c0.752-1.288,1.904-4.355,1.904-4.355
					h-12.313l1.493-4.218h12.347l1.813-4.834h4.902l-1.63,4.834h5.985l-1.425,4.081h-6.259
					C179.471,184.518,175.926,194.904,160.125,194.265z"/>
				<polygon class="st4" points="190.553,176.013 191.989,172.137 200.836,172.137 199.536,176.013 				"/>
				<path class="st4" d="M184.362,194.186l1.767-4.355c6.533,0.479,15.721-1.22,19.598-13.202h4.629
					C208.247,185.669,201.509,195.337,184.362,194.186z"/>
				<path class="st4" d="M218.94,171.453h4.492c-0.958,6.601-6.396,21.296-17.42,23.075l1.835-5.313
					C213.149,187.243,216.957,179.684,218.94,171.453z"/>
				<path class="st4" d="M227.981,171.453h4.423c-1.448,3.876-4.002,13.418,0.479,18.241l-2.041,4.902
					C226.419,191.666,223.968,182.375,227.981,171.453z"/>
				<polygon class="st4" points="235.015,176.629 236.759,171.567 234.171,171.567 232.427,176.629 				"/>
				<polygon class="st4" points="239.176,176.629 240.932,171.567 238.344,171.567 236.588,176.629 				"/>
				<polygon class="st4" points="275.008,176.629 276.764,171.567 274.176,171.567 272.421,176.629 				"/>
				<polygon class="st4" points="279.17,176.629 280.925,171.567 278.337,171.567 276.593,176.629 				"/>
				<polygon class="st4" points="252.093,184.449 253.575,180.231 236.691,180.231 235.22,184.449 				"/>
				<path class="st4" d="M254.453,175.637l1.425-4.047h16.394c-1.493,6.122-6.191,13.339-6.875,13.749
					c0.137,2.041,5.313,5.438,5.313,5.438l-1.699,4.56c-2.588-0.958-6.601-6.054-6.738-6.601c-4.287,3.876-9.736,5.712-15.927,5.917
					l1.699-4.765c8.71-1.026,14.16-5.278,17.831-14.251H254.453z"/>
			</g>
			<g>
				<path class="st4" d="M72.864,106.321l-0.274,0.228l-17.032,48.133h-15.22l33.176-86.36h16.497l-6.134,48.247h0.274
					l16.987-48.247h15.151l-33.176,86.36H66.777L72.864,106.321z"/>
				<path class="st4" d="M124.338,68.163h15.927l-25.001,65.097c-1.927,5.598-2.155,8.243,2.451,8.357
					c5.7,0.137,7.502-5.244,8.915-8.927l24.785-64.527h15.927l-23.987,62.452c-5.609,14.604-10.101,26.233-31.488,25.891
					c-13.111-0.205-18.309-8.174-11.503-25.891L124.338,68.163z"/>
				<path class="st4" d="M142.032,155.31l33.176-86.359h22.516l-11.355,51.006h0.182l28.102-51.006h22.368l-33.176,86.359h-15.311
					l27.635-67.697h-0.182l-37.234,67.697h-11.868l15.026-67.697h-0.182l-24.534,67.697H142.032z"/>
				<path class="st4" d="M256.368,82.175c5.677,0,10.819-1.231,6.236,10.888c-4.515,11.936-7.353,9.337-14.627,9.919L256.368,82.175
					z M242.471,118.702c5.677,0,11.446-0.901,6.863,11.23c-4.515,11.936-4.64,11.811-16.052,11.811L242.471,118.702z
					 M235.665,155.253c23.314,0.011,26.119-14.08,29.459-23.485c3.58-10.101,5.438-17.055-1.037-22.083l0.091-0.228
					c10.375-5.506,12.233-9.713,15.151-17.318c6.681-17.397-1.414-23.212-13.51-23.212h-20.681l-33.187,86.405L235.665,155.253z"/>
				<path class="st4" d="M262.092,155.572l33.575-86.861h36.527l-5.05,13.783h-20.612l-8.448,21.547h19.974l-5.313,13.59h-19.974
					l-9.041,24.42h21.695l-5.712,13.521H262.092z"/>
				<path class="st4" d="M336.093,121.541h5.29c3.603,0.342,3.557,3.796,1.984,9.086c-1.573,5.29-4.674,12.415-7.319,20.008
					c-0.57,1.721-0.832,3.329-0.992,4.948h18.378l-0.502-1.151c-0.41-0.809-0.467-1.836-0.399-2.987
					c1.208-5.518,6.818-20.35,9.018-27.247c2.029-5.985,0.353-9.896-3.614-11.173l0.091-0.228
					c8.22-3.91,12.472-10.489,16.018-19.734c6.601-17.181,2.634-23.861-10.454-23.861h-23.314l-33.187,86.382h15.927
					L336.093,121.541z"/>
				<path class="st4" d="M403.915,99.23h16.189c3.979-7.878,5.86-14.65,4.241-21.125c-2.12-8.528-19.666-14.445-34.498-4.594
					c-16.987,11.287-9.577,32.959-5.575,38.842c4.378,6.43,11.708,13.681,6.897,23.907c-1.288,2.759-2.599,4.925-4.116,6.008
					c-3.751,2.656-12.005,2.554-8.094-6.818c3.614-8.676,3.717-9.713,3.717-9.713h-16.189c-3.454,7.741-11.275,24.409,1.459,29.653
					c12.734,5.244,29.003,2.542,34.635-4.982c4.914-6.555,11.811-20.202,3.454-33.848s-14.593-19.94-6.635-30.964
					C402.718,82.038,413.868,81.776,403.915,99.23z"/>
			</g>
			<polygon class="st5" points="38.503,151.217 340.174,95.65 313.873,127.116 346.365,98.751 346.878,113.709 352.555,99.264 
				368.026,118.349 358.746,97.201 373.179,103.904 361.835,92.048 425.781,77.09 425.394,74.901 361.835,84.307 374.216,68.836 
				356.169,82.243 356.169,63.683 349.454,82.243 335.534,64.196 344.301,84.82 308.207,65.746 340.699,89.471 37.979,148.766 			
				"/>
		</g>
		<rect x="0.12" y="0.12" class="st6" width="464" height="260"/>
	</g>
</g>
</svg>
