<?xml version="1.0" encoding="utf-8"?>
<!-- Generator: Adobe Illustrator 24.1.0, SVG Export Plug-In . SVG Version: 6.00 Build 0)  -->
<svg version="1.1" id="&#x30EC;&#x30A4;&#x30E4;&#x30FC;_1" xmlns="http://www.w3.org/2000/svg" xmlns:xlink="http://www.w3.org/1999/xlink" x="0px" y="0px" viewbox="0 0 313.67 36.47" style="enable-background:new 0 0 313.67 36.47;" xml:space="preserve" width="313.67" height="36.47">
<style type="text/css">
	.st0{fill-rule:evenodd;clip-rule:evenodd;fill:#FFFFFF;}
</style>
<path class="st0" d="M303.24,12.84c5.88,0,10.44,4.4,10.44,10.16c0,3.76-1.48,7.24-4,9.52c-2.8,2.48-6.84,3.68-12.4,3.68
	c-8.48,0-12.96-2.56-12.96-7.48c0-4.08,3.6-7.24,8.28-7.24c4.52,0,8.08,2.84,8.08,6.44c0,0.4-0.04,1.08-0.12,1.72
	c2.56-0.28,3.8-0.8,4.72-2.04c0.84-1.12,1.32-2.56,1.32-4.12c0-3.48-2.44-5.36-6.96-5.36c-4.08,0-7.6,0.76-11.88,2.64
	c-3.28,1.4-4.76,2.24-7.24,4.12v-6.96c0.32-0.24,1.24-0.8,1.32-0.84c1.32-0.72,2.64-1.52,3.96-2.28c0.92-0.52,2.36-1.36,3.92-2.28
	c4.24-2.52,4.72-2.8,8.96-5.04l-14.2,0.24V1.6h24.64v5.88l-9.36,5.64C301.64,12.88,302.36,12.84,303.24,12.84z M292.16,27.32
	c-0.88,0-1.36,0.36-1.36,1.08c0,1.12,1.32,1.96,3.08,1.96h0.36h0.16l0.32-0.04C294.4,28.2,293.68,27.32,292.16,27.32z M264.16,25.64
	c0.04,3.2-0.6,5.2-2.4,7.28c-2.4,2.48-4.56,3.16-9.72,3.12H245V29.6h6.44c4.68,0,5.6-0.64,5.92-4.08c-2.12,1-3.28,1.28-5.12,1.28
	c-4.44,0-7.76-3.04-7.76-7.12c0-2.08,0.88-3.92,2.68-5.48c1.72-1.48,3.48-2.08,6.24-2.08c1.2,0,2,0.12,3.64,0.48v-2.12l-17.56,0.2
	V4.52l17.56-0.12V0.24h7.12v4.04l9.32-0.12v6.24l-9.32,0.08V25.64z M254.04,17.48c-1.56,0-2.96,0.96-2.96,2
	c0,1.08,1.12,1.84,2.76,1.84c1.8,0,3-0.84,3-2.08C256.84,18.2,255.68,17.48,254.04,17.48z M198.32,35.83v-7.16
	c7.24-1.76,11.84-7.88,12.28-16.36h3.48V7.04H207V0.8h13.6v5.92c0.04,5.16,1.88,11.16,4.48,14.68c2.24,3.08,4.6,4.72,10,7v7.44
	c-9.48-2.84-16.24-8.96-18.6-16.96C214.48,27.48,206.92,34.51,198.32,35.83z M193.79,32.08c0,3.04-1.2,4.28-4.12,4.28h-4.88v-4.68
	h3.16v-1.12h-9.44v5.92h-5.56v-5.92h-0.92v-4.32h0.92V17.2h7.32v-1.16h-8.44v9.68c0,3.24-0.16,3.72-1.32,4.44
	c0.12,0.56,0.2,0.92,0.24,1.04l0.68,2.16l0.6,2.04c0.08,0.16,0.2,0.48,0.36,0.96H167c-0.28-1.12-0.44-1.64-0.6-2.44
	c-0.32-1.32-0.56-2.4-0.76-3.32h-0.72c-0.48,2.8-0.64,3.36-1.48,5.76h-5.68c0.96-1.64,1.4-2.84,2.16-5.76h-1.48V0.56h13.4V11.8h4.08
	v-0.96h-3.08V7h3.08V5.84h-3.6V1.76h3.6V0h5.68v1.76h3.56V0h5.72v1.76h4v4.08h-4V7h3.04v3.84h-3.04v0.96h4.44v4.24h-9.16v1.16h7.64
	v9.04h1.68v4.32h-1.68V32.08z M166.2,6.08h-1.88v3.04h1.88V6.08z M166.2,13.76h-1.88v3.4h1.88V13.76z M166.2,21.72h-1.88v3.36h1.88
	V21.72z M180.28,20.96h-1.76v1.2h1.76V20.96z M180.28,25.12h-1.76v1.12h1.76V25.12z M185.16,5.84h-3.56V7h3.56V5.84z M185.16,10.84
	h-3.56v0.96h3.56V10.84z M188.07,20.96h-1.92v1.2h1.92V20.96z M188.07,25.12h-1.92v1.12h1.92V25.12z M149.6,13.2h3.72v6.12h-3.72
	V13.2z M144.64,13.2h3.8v6.12h-3.8V13.2z M138.04,16.24c-1.88,2.08-2.84,4.32-2.84,6.64c0,1.8,0.88,3.64,2.12,4.36
	c1.48,0.88,4.12,1.36,7.72,1.36c1.2,0,3.32-0.12,5.68-0.28v7.04c-2.4,0.08-4.52,0.12-5.8,0.12c-5.64,0-9.4-0.72-12.32-2.4
	c-3.24-1.8-5.04-5.24-5.04-9.48c0-2.84,0.8-5.52,2.4-8c1.56-2.4,3-3.8,6.36-6.12l-15.76,0.28V2.8l31.91-0.2V9
	c-1.2,0.36-2.28,0.72-3.36,1.08C143.16,12,140.6,13.44,138.04,16.24z M91.8,35.87h-7.32V0.44h7.32v10.68
	c9.32,2.24,12.72,3.2,18.6,5.24v7.4c-5.36-1.96-10.4-3.44-18.6-5.44V35.87z M56.36,34.99H41.48v-6.08h14.88
	c6.48-0.24,8.84-3.2,8.6-10.72V5.92h6.56v11.6C71.88,29.6,67.04,35.15,56.36,34.99z M50.24,6.12h6.48c1.44,5,2.68,10.08,3.4,13.88
	h-6.84C52.2,14.04,51.64,11.52,50.24,6.12z M39.84,6.12h6.32c1.52,5.56,2.28,8.68,3.4,13.88h-6.88
	C41.92,15.04,41.08,10.76,39.84,6.12z M20.2,36.35h-7.08v-9.2c-4.2,1.88-9.04,3.2-13.12,3.6v-6.72c9.6-1.28,17.08-5.36,21.28-11.6
	H0.72V5.8h12.4V0.68h7.08V5.8h12.08c-1.6,5.88-3.64,9.56-7.28,13.32c4.44,1.68,6.92,2.68,8.52,3.4v7.88
	c-3.92-2.04-9.64-4.4-13.32-5.48V36.35z"/>
</svg>
