<?xml version="1.0" encoding="utf-8"?>
<!-- Generator: Adobe Illustrator 24.1.0, SVG Export Plug-In . SVG Version: 6.00 Build 0)  -->
<svg version="1.1" id="&#x30EC;&#x30A4;&#x30E4;&#x30FC;_1" xmlns="http://www.w3.org/2000/svg" xmlns:xlink="http://www.w3.org/1999/xlink" x="0px" y="0px" viewbox="0 0 315.55 36.71" style="enable-background:new 0 0 315.55 36.71;" xml:space="preserve" width="315.55" height="36.71">
<style type="text/css">
	.st0{fill-rule:evenodd;clip-rule:evenodd;fill:#FFFFFF;}
</style>
<path class="st0" d="M305.12,13.32c5.88,0,10.44,4.4,10.44,10.16c0,3.76-1.48,7.24-4,9.52c-2.8,2.48-6.84,3.68-12.4,3.68
	c-8.48,0-12.96-2.56-12.96-7.48c0-4.08,3.6-7.24,8.28-7.24c4.52,0,8.08,2.84,8.08,6.44c0,0.4-0.04,1.08-0.12,1.72
	c2.56-0.28,3.8-0.8,4.72-2.04c0.84-1.12,1.32-2.56,1.32-4.12c0-3.48-2.44-5.36-6.96-5.36c-4.08,0-7.6,0.76-11.88,2.64
	c-3.28,1.4-4.76,2.24-7.24,4.12V18.4c0.32-0.24,1.24-0.8,1.32-0.84c1.32-0.72,2.64-1.52,3.96-2.28c0.92-0.52,2.36-1.36,3.92-2.28
	c4.24-2.52,4.72-2.8,8.96-5.04l-14.2,0.24V2.08h24.64v5.88l-9.36,5.64C303.52,13.36,304.24,13.32,305.12,13.32z M294.04,27.8
	c-0.88,0-1.36,0.36-1.36,1.08c0,1.12,1.32,1.96,3.08,1.96h0.36h0.16l0.32-0.04C296.28,28.68,295.56,27.8,294.04,27.8z M267.8,36.19
	h-7.96c3.24-4.56,4.28-6.84,5.44-12.16c-2.76-0.8-3.8-1.04-6.6-1.32c-2.24,8.68-5.2,12.08-10.4,12.08c-2.4,0-4.12-0.68-5.44-2.08
	c-1.4-1.56-2.2-3.68-2.2-5.96c0-2.6,1.24-5.2,3.44-7.16c2.32-2.08,5.4-3.2,9.52-3.4c0.72-3.16,0.92-4.48,1.04-7.4h-9.84V2.36h17.36
	c-0.32,5.16-1,9.92-2.04,14.16c2.92,0.48,3.36,0.56,6.2,1.16c0.28-2.16,0.36-3.12,0.36-5.36c0-0.64-0.04-1.92-0.08-3.4h6.8
	c-0.24,5.52-0.32,7-0.72,10.8l4.28,1.4v7.52l-5.28-2.36C270.6,30.35,269.39,33.43,267.8,36.19z M248.36,23.88
	c-0.92,0.92-1.4,1.92-1.4,2.92c0,1.04,0.64,1.96,1.4,1.96c1,0,1.88-1,2.6-2.96c0.36-0.96,0.76-2.2,0.96-2.92
	c0.04-0.16,0.08-0.36,0.16-0.64C250.28,22.36,249.52,22.72,248.36,23.88z M226.2,28.43h-6.8v-3.92c-4.48,1.16-5.88,2.12-5.88,4
	c0,1.8,1.04,2.28,5.04,2.28c4.04,0,9.4-0.2,14.56-0.56v6.36c-2.84,0.08-3.92,0.12-5.84,0.12c-10.8,0-13.68-0.16-16-0.96
	c-2.08-0.68-3.64-2.24-4.52-4.52c-0.36-0.88-0.52-1.72-0.52-2.6c0-2.6,1.8-5.2,4.96-7.04c2.12-1.28,3.84-1.92,8.2-3.04
	c0-1.32-0.08-1.88-0.32-2.32c-0.32-0.56-0.92-0.88-1.64-0.88c-2.36,0-4.92,1.6-7.44,4.76h-7.72c3.2-4.04,4.84-6.4,7.48-10.8h-7.2
	V3.68h10.72l1.48-3h7.16l-1.2,3h12.56v5.64h-16.04l-1.64,2.92c2.52-1.36,3.88-1.8,5.56-1.8c2,0,3.56,0.92,4.48,2.6
	c0.44,0.88,0.56,1.68,0.56,4.2l9.04-0.96v6.4l-9.04,0.68V28.43z M182.16,36.71h-6.76v-7.84c-4.92,4.52-8.72,6.36-14.76,7.08v-6.44
	c3.72-0.48,7.16-1.96,9.88-4.24h-9.12v-5.32h14V18.4h-11.96V0.76h31.04v12.12c0,4.4-1.04,5.44-5.48,5.52h-6.84v1.56h13.8v5.32h-9.12
	c3.36,2.68,5.56,3.68,10.08,4.6v6.32c-6.04-0.96-10.4-3.12-14.76-7.36V36.71z M175.4,5.8h-5.2v1.52h5.2V5.8z M175.4,11.68h-5.2v1.84
	h5.2V11.68z M187.84,5.8h-5.68v1.52h5.68V5.8z M187.84,13.52v-1.84h-5.68v1.84H187.84z M149.68,12h7.08v5h-19.68v-5h6.56V9.32h-7.28
	V4.16h7.28V0.2h6.04v3.96h7.68v5.16h-7.68V12z M133,21.4h-1.4v15.2h-5.56V21.4h-5.44v-5.16h1.96l1.36-2.44l-3.24-4.4
	c-0.44-0.56-0.64-1.08-0.64-1.48c0-0.4,0.2-1.08,0.52-1.64l3.08-5.52h5.92l-3.52,6.6l0.92,1.12l2.96-5.12h6.04l-5.56,9.4h4.56
	l1.24,3.56v1.76C136.24,20.56,135.44,21.4,133,21.4z M130.12,13.24l-1.88,3h3L130.12,13.24z M120.64,23h3.92
	c0.08,1.24,0.08,1.8,0.08,2.56c0,2.4-0.16,4.88-0.52,7.64H120c0.52-2.36,0.68-4.28,0.68-8C120.68,24.72,120.68,23.96,120.64,23z
	 M114.24,31.59c-1.76,2.96-5.16,4.6-9.64,4.6c-5.24,0-7.96-2.2-7.96-6.4c0-1.2,0.2-4.28,0.44-6.16c0.08-0.68,0.12-1.4,0.12-1.8
	c0-1.16-0.68-2.08-1.52-2.08c-1.12,0-3.12,1.24-4.2,2.64c-1.52,1.92-2.4,4.72-4.2,13.56H80.2c1.88-8.48,2.88-12.16,5.68-21.2
	c1.92-6.24,2.16-7,4.08-13.64h7.44c-1.96,5.2-2.32,6.24-4.68,14.12c2.84-2.52,4.8-3.56,6.76-3.56c3.08,0,4.88,2.2,4.88,5.92
	c0,0.56-0.08,2-0.2,3.2c-0.2,2.44-0.32,4.28-0.32,5.52c0,2.08,0.44,2.72,1.84,2.72c1.76,0,2.96-1.16,3.44-3.36
	c0.52-2.52,0.72-5,0.88-10.76h7.08c-0.12,1.72-0.2,3.2-0.24,3.76C116.43,26.44,115.99,28.64,114.24,31.59z M70.19,16.92
	c-0.28,7.24-2.76,8.84-13.52,8.68v-6.72c0.88,0.08,1.32,0.08,1.8,0.08c3.72,0,4.64-0.6,4.64-2.92l-0.04-1.28l-8.72,0.04l-0.04,10.84
	c0,3.36,0.12,3.4,7.44,3.4c5.36,0,7.32-0.12,11.84-0.76v7.12c-7.12,0.2-7.68,0.2-10.04,0.2c-8.24,0-11.04-0.28-13.12-1.32
	c-1.16-0.56-2.2-1.72-2.72-3.04c-0.32-0.84-0.48-2.12-0.48-3.96V14.8H41V8.76h6.24V1.68h7.08v7.08h8.88v-7h7v7h6.16v6h-6.16V16.92z
	 M31.4,35.51H14.52V7.2h7.76V0h6.4v7.2h8.04v22.76C36.75,33.87,35.07,35.63,31.4,35.51z M22.24,12.76h-1.88v5.44h1.88V12.76z
	 M22.24,23.56h-1.88v5.68h1.88V23.56z M30.56,12.76h-1.88v5.44h1.88V12.76z M30.56,23.56h-1.88v5.68h1.88V23.56z M10.36,31.52
	c0.04,3.76-1.16,4.88-5.28,4.96H0.72V30.6h3.32v-5.76l-4,0.52v-6.12l4-0.4v-6H0V6.92h4.04V0.2h6.32v6.72h3.24v5.92h-3.24v5.04
	L13.72,17v6.12l-3.36,0.84V31.52z M136.72,32.95h-3.88V23h3.88V32.95z M155.55,31.64c-0.04,2.96-1.36,4.12-4.68,4.12h-12.8V19.52
	h17.48V31.64z M149.51,25.08h-5.72V30h5.72V25.08z"/>
</svg>
