<?xml version="1.0" encoding="utf-8"?>
<!-- Generator: Adobe Illustrator 24.1.0, SVG Export Plug-In . SVG Version: 6.00 Build 0)  -->
<svg version="1.1" id="&#x30EC;&#x30A4;&#x30E4;&#x30FC;_1" xmlns="http://www.w3.org/2000/svg" xmlns:xlink="http://www.w3.org/1999/xlink" x="0px" y="0px" width="164.7" height="36" viewbox="0 0 164.7 36" style="enable-background:new 0 0 164.7 36;" xml:space="preserve">
<style type="text/css">
	.st0{fill-rule:evenodd;clip-rule:evenodd;}
</style>
<path class="st0" d="M164.7,19.3v10.9l-6.6,5.5h-8V2.3h8.4v0l2,0l-2,3.7v18.8L164.7,19.3z M133.5,23.4l4.4-2.2V2.3h8.4v25.2
	L133.5,36V23.4z M128.7,30.6l-9.1,0l0-4.6l-1.5-2.8l1.5,0h1.7l0-2.9h-5.5l1.1,15.7h-7.4l-1.1-15.7h-2.8l0-7.4h2.3l-1.1-2.1h1.5h6.8
	l0.1,2.1h6l0,0h7.4l1.5,0l-1.5,2.8L128.7,30.6z M100.1,25.6l-7.6,9l0.8,1.5h-3.4h0l-16.7,0l0-9.4l14.1,0l4.4-5.3v-17h8.4l2,0l-2,3.7
	V25.6z M86.2,23.3l-12.9,0l0-8.1l12.9,0h2l-2,3.7L86.2,23.3z M86.2,12.5l-12.9,0l0-8.1l12.9,0h2l-2,3.7L86.2,12.5z M48,18.2l-4.8,11
	H32.1L41,9.8l-1.8-2.1H42v0h11.8L67.9,36H56.5L48,18.2z M56.8,0h11.1v11.1H56.8V0z M61,6.7h2.8V3.9H61V6.7z M32.8,35.6h-9.5
	l-6.2-10.6L10.3,36H0l15.7-25.1H0.9V2.3h29.8l-8.3,14.8L32.8,35.6z"/>
</svg>
