<?xml version="1.0" encoding="utf-8"?>
<!-- Generator: Adobe Illustrator 24.1.0, SVG Export Plug-In . SVG Version: 6.00 Build 0)  -->
<svg version="1.1" id="&#x30EC;&#x30A4;&#x30E4;&#x30FC;_1" xmlns="http://www.w3.org/2000/svg" xmlns:xlink="http://www.w3.org/1999/xlink" x="0px" y="0px" viewbox="0 0 234.05 40" style="enable-background:new 0 0 234.05 40;" xml:space="preserve" width="234.05" height="40">
<style type="text/css">
	.st0{fill-rule:evenodd;clip-rule:evenodd;}
</style>
<path class="st0" d="M229.92,9.11h-6.2l4.13-8.81h6.2L229.92,9.11z M215.68,9.11l4.13-8.81h6.2l-4.13,8.81H215.68z M231.07,19.72
	l0.01,9.83l-7.46,0l-10.18-5.48v11.47l2.33,4.33l-2.33,0h-9.74V4.62l-2.33-4.32h2.33h9.74v13.13l11.58,6.29L231.07,19.72z
	 M186.54,35.69l2.33,4.31h-2.33v-0.05h-10.49l0.12-17.53l-12.73,7.19V17.69l23.23-12.38V3.58l-2.8-3.4h2.8h0.32h9.1v11.47l-9.54,6
	V35.69z M151.08,7.44l3.38-7.22h5.07l-3.38,7.22H151.08z M144.5,7.44l3.38-7.22h5.07l-3.38,7.22H144.5z M155.99,37.55l1.98,2.4
	h-2.08v-0.01h-15.22v-9.2h5.63V17.73h-9.65v14.99l-13.93,7.1V29.57l4.44-2.69l0.09-9.14h-4.71V9.18h4.71V3.56l-2.79-3.39h2.79h0.32
	h9.38v9h19.02V37.55z M115.51,37.69l1.87,2.27h-1.87h-0.21H85.88V27.42l-4.15,2.02v-7.67l11.21-5.13H81.73v-5.65h11.13V8.57h-9.44
	v-5.7h9.44V0.02h9.23l-2.4,2.85h6.86V0.06h9.12l-2.2,2.81h3.25v5.7h-3.25l-1.69,2.41h4.95v5.65h-8.92L101.83,19h13.68V37.69z
	 M103.3,10.98l2.1-2.41h-5.71v2.41H103.3z M107.54,24H93.7v2.19h13.84V24z M107.54,31.06H93.7v2.37h13.84V31.06z M75.89,40h-7.59
	h-8.25l-7.66-0.05V12.38h9.56H65l-3.04,3.68v14.92h5.83h8.1v6.66l1.91,2.32h-1.91V40z M65.7,17.62H76v8.77H65.7V17.62z M48.91,0.08
	L69.89,0v9.06L48.91,9.15V0.08z M47.24,39.95h-8.67l2.62-21.01l-2.48-3.01h2.85v0h8.93L47.24,39.95z M35.95,32.81l-3.73,7.14
	c0,0-3.98,0.01-8.78,0.01v-6.41l3.57-0.07l2.1-2.97V9.69h-3.29v17.42L15.19,39.03v-7.76c-1.82-1.88-2.66-2.72-4.24-4.08v10.61
	l1.77,2.15h-1.77h-0.31H4.21V27.42L0,32.42V21.88l7.49-9.5H0.2V5.67h4.01V2.51L2.34,0.23h1.88h0.2h6.54v5.44h4.09v6.05l-4.28,6.85
	l1.64,1.74l3.3-4.84l0.1,7.91l0.79,0.73l0.01,2.41l2.88-3.63V9.69H16.5V2.34h19.25h0.13h1.94l-1.94,2.5L35.95,32.81z"/>
</svg>
