<?xml version="1.0" encoding="utf-8"?>
<!-- Generator: Adobe Illustrator 24.1.0, SVG Export Plug-In . SVG Version: 6.00 Build 0)  -->
<svg version="1.1" id="&#x30EC;&#x30A4;&#x30E4;&#x30FC;_1" xmlns="http://www.w3.org/2000/svg" xmlns:xlink="http://www.w3.org/1999/xlink" x="0px" y="0px" viewbox="0 0 339.106 55.602" style="enable-background:new 0 0 339.106 55.602;" xml:space="preserve" width="339.106" height="55.602">
<style type="text/css">
	.st0{fill:#E60012;}
</style>
<g>
	<g>
		<path class="st0" d="M112.173,18.709l-0.007-7.274l3.295-6.073l-3.301,0.002H90.876l0.018,13.347L112.173,18.709z M132.098,5.363
			h-13.773v27.991l-7.262,8.62L90.198,41.98l0.018,13.517l27.44-0.01h0.024h3.3l-1.293-2.381l12.41-14.734V11.444l3.3-6.082
			L132.098,5.363z M73.49,15.669v0.001H63.131l-0.258-3.549H51.05l-2.64-0.002l1.927,3.552h-3.953l0.005,12.788l4.897-0.002
			l1.939,27.057h12.772l-1.94-27.058h9.427l-0.003,4.936l-2.959,0.002l-2.64-0.002l2.64,4.865l0,7.911l15.739-0.003l0.011-25.629
			l2.642-4.869h-2.64H73.49z M39.759,0.281h-6.956l-4.634,9.836h6.957L39.759,0.281z M44.157,10.117l4.634-9.836h-6.957L37.2,10.117
			H44.157z M28.177,12.162v21.299l-7.262,8.621L0.05,42.085l0.018,13.517l27.464-0.006h3.3l-1.293-2.383l12.41-14.733V18.241
			l3.3-6.08l-3.3,0.001H28.177z M22.168,27.52l3.295-6.074l-3.299,0.002L0.022,21.45l0.018,13.395l22.136-0.005L22.168,27.52z
			 M22.155,11.764l3.294-6.072h-3.3L0,5.694l0.018,13.349l22.143-0.003L22.155,11.764z M173.941,10.037l4.634-9.837h-6.957
			l-4.634,9.837H173.941z M176.016,10.037h6.958l4.634-9.837h-6.956L176.016,10.037z M137.004,41.824h-3.033v13.691l16.755,0.01
			V21.678h-13.722V41.824z M184.446,21.678h-13.721v33.847l16.755-0.01V41.824h-3.033V21.678z M184.5,11.764h-20.314l3.444-6.882
			l-0.018-3.4h-13.773h-3.3l2.106,3.881h-15.64l-0.021,13.395l16.855-0.002v36.769h13.773V18.755H184.5V11.764z M334.473,9.841
			l4.634-9.839h-6.957l-4.634,9.839H334.473z M330.075,0.001h-6.957l-4.634,9.839h6.957L330.075,0.001z M318.255,27.498v14.032
			h-13.962V9.964l3.3-6.082l-3.3,0.002h-13.987v46.221c2.111,2.108,3.294,3.289,5.404,5.399h8.583h22.545
			c2.11-2.11,3.294-3.291,5.404-5.399V41.97v-0.44v-7.951l3.3-6.081h-3.3H318.255z M274.302,17.853h7.471h3.765h0.118l0.001-16.075
			l-3.885,2.104h-12.267l-0.003-0.006l-0.006,0.006l-24.172,18.823h-0.001V36.68h0.001l21.852,17.018l-0.981,1.808l3.3-0.002
			l0.006,0.004l0.003-0.004h16.152V41.529h-11.354l-14.993-11.674V29.53L274.302,17.853z M223.996,3.882l0.005-0.005V0.001
			L206.928,0l2.106,3.882l0.004,0.002h-17.634V24.03h12.599v-7.873l25.012-0.004v7.874h12.598V9.962l3.3-6.08h-3.3H223.996z
			 M239.145,43.234l-0.642,1.361l-0.456,0.968h-1.069h-6.957h-2.656l1.098-2.329h-5.039v-3.748h6.804l2.903-6.16l0.226-0.48v-5.069
			h-9.932V24.03h3.904v-0.003v-6.191l-21.641,0.002v6.192h3.965v3.747h-9.932v11.709h9.932v3.748h-18.249v12.27h50.209v-6.19
			l3.3-6.081l-3.3,0.001H239.145z M236.979,43.88l4.634-9.839h-6.957l-4.634,9.839H236.979z"/>
	</g>
</g>
</svg>
