<?xml version="1.0" encoding="utf-8"?>
<!-- Generator: Adobe Illustrator 24.1.0, SVG Export Plug-In . SVG Version: 6.00 Build 0)  -->
<svg version="1.1" id="&#x30EC;&#x30A4;&#x30E4;&#x30FC;_1" xmlns="http://www.w3.org/2000/svg" xmlns:xlink="http://www.w3.org/1999/xlink" x="0px" y="0px" width="142.3" height="38" viewbox="0 0 142.3 38" style="enable-background:new 0 0 142.3 38;" xml:space="preserve">
<style type="text/css">
	.st0{fill-rule:evenodd;clip-rule:evenodd;}
</style>
<path class="st0" d="M135.5,14.5v3.8h-22.2v-2.7l-6.3,3.9v-8.4L125,0l17.3,10.9v7.8L135.5,14.5z M124.5,8.4l-7.1,4.1H132L124.5,8.4z
	 M87.5,24.2H83l-3.8,13.8H71L80.7,5l-2.1-2.5h2.8v0.1l0.1-0.2h7.7L85,16.6h9.2v14.4h3.9v-5.4h6V38H87.4L87.5,24.2z M63.5,27.8
	l-10.9,0.1v-6.1c0.8,0.1,3.9,0,3.9,0v-4.1l-7,0l0,12.9h17.1V38H42.3V17.8h-4.7v-7.1h4.7V2.5h6.6h0.5h2.2l-2.2,2.7v5.4h7.2V2.5h6.7
	h0.2h2.6l-2.6,3.1v5.1H69v7.1h-5.5V27.8z M13.8,9.1H21V2.5h5.6h0.1h2.7l-2.7,3.3v3.3h7.6V38H13.8V9.1z M26.7,30.7H29v-5.1h-2.3V30.7
	z M26.7,19.9H29V15h-2.3V19.9z M18.7,30.7H21v-5.1h-2.3V30.7z M18.7,19.9H21V15h-2.3V19.9z M9.2,38H0.8v-6h2.8v-5.6L0,26.9v-6
	l3.6-0.6v-5.7H0V8.8h3.6v-3L0.8,2.5h2.8h0h5.6v6.4h2.2v5.8H9.2v4.8l2.4-0.4v6l-2.4,0.5V38z M115.1,26.8h-5.7v-6.2h29.1h2.8l-1.7,2.1
	v4.1h-17l-2.5,5h6.2l3.5-1.7l-1.5-2h6.3l5.9,9.9h-6.7l-1.8-2.4l-4.7,2.4h-18.3v-6.2h3.8L115.1,26.8z"/>
</svg>
