<?xml version="1.0" encoding="utf-8"?>
<!-- Generator: Adobe Illustrator 24.1.0, SVG Export Plug-In . SVG Version: 6.00 Build 0)  -->
<svg version="1.1" id="&#x30EC;&#x30A4;&#x30E4;&#x30FC;_1" xmlns="http://www.w3.org/2000/svg" xmlns:xlink="http://www.w3.org/1999/xlink" x="0px" y="0px" viewbox="0 0 235.27 37.03" style="enable-background:new 0 0 235.27 37.03;" xml:space="preserve" width="235.27" height="37.03">
<style type="text/css">
	.st0{fill-rule:evenodd;clip-rule:evenodd;fill:#FFFFFF;}
</style>
<path class="st0" d="M225.96,10.64V25.8c0.04,3.2-0.6,5.2-2.4,7.28c-2.4,2.48-4.56,3.16-9.72,3.12h-7.04v-6.44h6.44
	c4.68,0,5.6-0.64,5.92-4.08c-2.12,1-3.28,1.28-5.12,1.28c-4.44,0-7.76-3.04-7.76-7.12c0-2.08,0.88-3.92,2.68-5.48
	c1.72-1.48,3.48-2.08,6.24-2.08c1.2,0,2,0.12,3.64,0.48v-2.12l-17.56,0.2V4.68l17.56-0.12V0.4h7.12v4.04l9.32-0.12v6.24
	L225.96,10.64z M215.84,17.64c-1.56,0-2.96,0.96-2.96,2c0,1.08,1.12,1.84,2.76,1.84c1.8,0,3-0.84,3-2.08
	C218.64,18.36,217.48,17.64,215.84,17.64z M187.88,36.27h-6.32V29.4c-1.8,3.08-4.44,5.04-8.48,6.28v-6.4
	c2.4-0.52,4.44-2.36,6.36-5.64h-5.4v-5.32h7.6v-3.04h4.64c-0.48-0.56-0.56-0.88-0.6-1.64V7.6h4.24V5.72H179.8v2.16h3.96
	c-0.68,4.8-4.72,8.8-10,9.8v-5.6c1.64-0.16,2.96-1.08,3.84-2.6h-3.68V0.6h22.52v8.36h-4.96v2.36h1.6c2.16-0.04,3.12-0.52,3.68-1.84
	v5.68c-1,0.92-1.44,1.08-3.6,1.12h-3.92c-0.44,0-0.68-0.04-1.16-0.12v2.28h8.4v5.2h-5.16c1.24,2.6,3.28,4.48,5.76,5.36v6.68
	c-3.8-0.92-7.28-3.92-9.2-7.92V36.27z M169.76,30.88c0.04,3.64-1.96,5.36-6.12,5.32h-3.08v-5.96h3.08v-6.08l-3.88,0.52v-6.12
	l3.88-0.4V12.2h-3.72V6.6h3.72V0.08h6.12V6.6H173v5.6h-3.24v5.04l3.32-0.68v5.52l-3.32,0.84V30.88z M146.12,28.12h-6.8V24.2
	c-4.48,1.16-5.88,2.12-5.88,4c0,1.8,1.04,2.28,5.04,2.28c4.04,0,9.4-0.2,14.56-0.56v6.36c-2.84,0.08-3.92,0.12-5.84,0.12
	c-10.8,0-13.68-0.16-16-0.96c-2.08-0.68-3.64-2.24-4.52-4.52c-0.36-0.88-0.52-1.72-0.52-2.6c0-2.6,1.8-5.2,4.96-7.04
	c2.12-1.28,3.84-1.92,8.2-3.04c0-1.32-0.08-1.88-0.32-2.32c-0.32-0.56-0.92-0.88-1.64-0.88c-2.36,0-4.92,1.6-7.44,4.76h-7.72
	c3.2-4.04,4.84-6.4,7.48-10.8h-7.2V3.36h10.72l1.48-3h7.16l-1.2,3h12.56V9h-16.04l-1.64,2.92c2.52-1.36,3.88-1.8,5.56-1.8
	c2,0,3.56,0.92,4.48,2.6c0.44,0.88,0.56,1.68,0.56,4.2l9.04-0.96v6.4l-9.04,0.68V28.12z M103.28,21.56h13.08v1.16
	c0,3.28-0.16,8.04-0.28,9.08c-0.44,3.28-2.16,4.48-6.36,4.48h-1.6v-4.6c-1.28,2.24-1.72,2.88-2.76,4.24h-5.68
	c2.44-3.4,4.56-6.8,6.16-9.96h-1.12c-1.76,3.6-4.12,7.12-6.68,9.96h-6.4c2.88-2.44,6.52-6.96,8.04-9.96h-0.44
	c-2.88,3.28-4.16,4.4-6.36,5.36V28.4c-3.96,1.36-8.8,2.76-12.8,3.72v-6.68c1.76-0.28,2.04-0.32,3.76-0.76v-9.6h-3.76V9.24h3.76V0.8
	h6.24v8.44h3.64v5.84h-3.64v8c1.64-0.56,1.92-0.64,3.64-1.32v2.56c1.76-1.36,2.4-2.04,3.52-3.72h-3.48v-4.72h23.6v4.72H103.8
	L103.28,21.56z M109.35,31.2c1.24-0.12,1.28-0.2,1.44-5.24h-0.12c-1.04,2.76-1.4,3.6-2.32,5.24H109.35z M109.43,14.92H95.8V0.56
	h19.64v8.88C115.43,14.08,114.39,15,109.43,14.92z M109.32,4.8h-7.52v1.36h7.52V4.8z M109.32,9.32h-7.52v1.4h7.52V9.32z
	 M61.64,35.55c-1.96,0.48-3.8,0.64-7.24,0.64h-9.24v-6.88h8.8c6.16,0,8.36-0.64,10.6-3.16c1.48-1.64,2.32-4.4,2.32-7.52
	c0-2.12-0.28-5.28-0.6-6.44c-0.36-1.36-1.32-2.28-2.48-2.28c-0.6,0-1.28,0.4-2.04,1.32c-0.72,0.84-1.36,1.8-4.96,7.48
	c-4.04,6.4-4.52,6.72-9.24,6.84h-2.2V1.28h7.04v13.16C59.32,3.8,60.56,2.56,64.64,2.56c3.52,0,6,1.52,7.4,4.48
	C73.15,9.48,74,14.32,74,18.24c0,6.4-1.6,10.72-5.12,13.84C67.04,33.67,64.68,34.83,61.64,35.55z M31.56,36.43H24.6
	c-3.48-0.08-4.52-1.04-4.48-4V21.92h6.72v8.4h4.36c2.04,0,3.2-0.44,5.24-1.84v6.52C35.11,35.95,33.72,36.39,31.56,36.43z
	 M29.24,20.96H7.68v2.52H0.96V16h35.03v7.48h-6.76V20.96z M22.28,9.48h12.2v4.96H2.44V9.48h13V7.84H1.12V2.4h14.32V0h6.84v2.4h13.68
	v5.44H22.28V9.48z M9.84,21.92h6.72C16.36,31.28,11.4,35.79,0,37.03V30.6C6.6,30.2,9.56,27.56,9.84,21.92z"/>
</svg>
