<?xml version="1.0" encoding="utf-8"?>
<!-- Generator: Adobe Illustrator 24.1.0, SVG Export Plug-In . SVG Version: 6.00 Build 0)  -->
<svg version="1.1" id="&#x30EC;&#x30A4;&#x30E4;&#x30FC;_1" xmlns="http://www.w3.org/2000/svg" xmlns:xlink="http://www.w3.org/1999/xlink" x="0px" y="0px" viewbox="0 0 169.13 40" style="enable-background:new 0 0 169.13 40;" xml:space="preserve" width="169.13" height="40">
<style type="text/css">
	.st0{fill-rule:evenodd;clip-rule:evenodd;}
</style>
<path class="st0" d="M167.02,2.57v11.84h-10.21V9.28h4.79v-3.4h-7.39v10.64H167v14.21l0.02,1.38v7.68l-4.41-3.33L156.35,40v-6.98
	l2.32-1.73l-4.46-4.22v12.71h-6.19V0.02h19v0h2.11L167.02,2.57z M161.98,26.47v-4.58h-4.31L161.98,26.47z M144.44,19.89h1.81v5.99
	h-5.55v2.04h5.18v5.77h-5.18v3.56l2.08,2.52h-2.08v0.01h-6.03V33.7h-5.79v-5.77h5.79v-2.04h-6.67v-5.99h2.66v-3.42h-3.07v-5.68h7.08
	v-2.4h-5.79V2.93h5.83V0.02h5.99h1.45l-1.45,1.76v1.16h5.18v5.46h-5.18v2.4h5.91v5.68h-2.17V19.89z M139.4,16.47h-3.92v3.42h3.92
	V16.47z M122.31,12.72h2.08l-2.08,2.52v2.06h-21.89v3.19l-2.69-3.64v22.93h-6.07V2.54l-2.08-2.52h2.08h6.07v9.02l2.69,2.75v0.93
	h8.44v-1.11h-6.71V7.66h6.71V6.28h-7.8V1.93h7.8V0h7.23l-1.08,1.93h7.3l0,0h2.08l-2.08,2.52v1.83h-7.3v1.38h6.39h2.08l-2.08,2.52
	v1.43h-6.39v1.11H122.31z M90.99,8.68l-1.68,13.85h-4.33l1.51-12l-1.53-1.85h1.76v0H90.99z M79.7,34.13v5.64H63.38V20.9H79.7h2.08
	l-2.08,2.52V34.13z M73.51,27.31h-3.94v5.9h3.94V27.31z M77.06,18.36H47.95V1h29.11h2.08l-2.08,2.52V18.36z M69.78,7.13H54.51v4.97
	h15.28V7.13z M63.1,20.9l-2.08,2.52v10.71v5.64H44.7V20.9h16.32H63.1z M54.83,27.31h-3.94v5.9h3.94V27.31z M37.09,11.67v25.59
	l2.08,2.52h-2.08v0l-7.12-0.01v-6.45h0v-8.17h-2.89v7.12v5.93h-0.72h-3.38H11.16V25.02H8.3v12.6l1.79,2.17H8.01l0,0h-7.1V11.65h6.47
	V9.57H2.09V3.04h13.6V0.02h7.28h1.26l-1.26,2.16v0.86h14.11h2.08l-2.08,2.52v4.01h-5.55v2.09L37.09,11.67z M17.26,31.98H21v-3.6
	h-3.74V31.98z M22.73,22.97l-2.1-4.88h-2.36l-1.89,4.88H22.73z M8.3,18.09v6.21l3.02-6.21H8.3z M23.69,9.57h-8.92v2.09h8.92V9.57z
	 M29.97,18.09H27.5l2.46,5.9V18.09z M2.08,3.04v2.52L0,3.04H2.08z M121.4,34.34v5.44h-7.96v-4.42h2.17v-1.73h-7.88v6.16h-6.07V18.62
	h19.74V34.34z M115.61,22.75h-7.88v1.47h7.88V22.75z M115.61,28.51h-7.88v1.03h7.88V28.51z"/>
</svg>
