<?xml version="1.0" encoding="utf-8"?>
<!-- Generator: Adobe Illustrator 24.1.0, SVG Export Plug-In . SVG Version: 6.00 Build 0)  -->
<svg version="1.1" id="&#x30EC;&#x30A4;&#x30E4;&#x30FC;_1" xmlns="http://www.w3.org/2000/svg" xmlns:xlink="http://www.w3.org/1999/xlink" x="0px" y="0px" viewbox="0 0 156.11 40" style="enable-background:new 0 0 156.11 40;" xml:space="preserve" width="156.11" height="40">
<style type="text/css">
	.st0{fill-rule:evenodd;clip-rule:evenodd;}
</style>
<path class="st0" d="M153.81,19.34L153.81,19.34l-0.01,5.55l-29.26,0l0.01-9.8l28.55,0.01l3.02,0L153.81,19.34z M107.54,8.97
	l4.17-8.85h6.25l-4.17,8.85H107.54z M98.71,8.97l4.17-8.85h6.25l-4.17,8.85H98.71z M113.18,11.81h3.08l-2.9,3.49v6.33H91.76v8.44
	h23.04h2.52l-2.52,3.03v6.84H82.45V3.42L79.62,0h2.83h0.31h8.99v11.81H113.18L113.18,11.81z M72.73,19.34l-0.01,5.55l-29.26,0
	l0.01-9.8l28.55,0.01l3.02,0L72.73,19.34L72.73,19.34z M28.99,40l-0.84-3.65l-6.24,3.62H0L11.17,2.9L9.66,0.1l2.35,0h10.27
	l-9.02,29.96l6.07,0l6.49-3.77l-1.61-6.98l-2.28-4.23l1.47,0l9.92-0.02l4.77,20.63L40.41,40l-2.35,0H28.99z"/>
</svg>
