<?xml version="1.0" encoding="utf-8"?>
<!-- Generator: Adobe Illustrator 24.1.0, SVG Export Plug-In . SVG Version: 6.00 Build 0)  -->
<svg version="1.1" id="&#x30EC;&#x30A4;&#x30E4;&#x30FC;_1" xmlns="http://www.w3.org/2000/svg" xmlns:xlink="http://www.w3.org/1999/xlink" x="0px" y="0px" viewbox="0 0 110.93 42" style="enable-background:new 0 0 110.93 42;" xml:space="preserve" width="110.93" height="42">
<style type="text/css">
	.st0{fill-rule:evenodd;clip-rule:evenodd;}
</style>
<path class="st0" d="M101,9.95V0h9.93v9.95H101z M107.17,3.77h-2.4v2.4h2.4V3.77z M105.55,16.64V29.7L97.4,39.4l1.4,2.6l-2.39,0V42
	h-2.84h-0.02L73.9,42l-0.01-11.04l16.6,0l5.2-6.19v-10.1H73.9V3.66h25.67v7.88h5.98V16.64z M64.87,32.16l-6.03,7.18L60.28,42
	l-2.39,0v0h-2.61h-0.01l-15.72,0l-0.01-8.83l13.28,0l4.16-4.96V12.2h7.89l1.89,0l-1.89,3.5V32.16z M57.9,40.46l-0.14,0.16l0.14,0.25
	V40.46z M46.71,12.2h6.94v11.3h-6.94V12.2z M37.57,12.2h6.98v11.3h-6.98V12.2z M12.34,25.89v11.7L14.73,42l-2.39,0H2.39V6.05L0,1.64
	h2.39h9.96v13.4l11.84,6.42l6.2,0l0,10.03l-7.63,0L12.34,25.89z"/>
</svg>
