<?xml version="1.0" encoding="utf-8"?>
<!-- Generator: Adobe Illustrator 24.1.0, SVG Export Plug-In . SVG Version: 6.00 Build 0)  -->
<svg version="1.1" id="&#x30EC;&#x30A4;&#x30E4;&#x30FC;_1" xmlns="http://www.w3.org/2000/svg" xmlns:xlink="http://www.w3.org/1999/xlink" x="0px" y="0px" viewbox="0 0 80 21.57" style="enable-background:new 0 0 80 21.57;" xml:space="preserve" width="80" height="21.57">
<style type="text/css">
	.st0{fill-rule:evenodd;clip-rule:evenodd;fill:#E60012;}
</style>
<path class="st0" d="M76.48,6c-1.33-0.87-2.81-1.33-4.4-1.37c-0.72,0-1.3,0.17-1.76,0.52c-0.27,0.2-0.63,0.57-0.65,1.47
	c0,0.33,0.14,0.63,0.42,0.94c0.32,0.34,0.87,0.58,1.66,0.72c0.51,0.09,1.24,0.19,2.15,0.3c2.05,0.28,3.59,1.04,4.6,2.27
	c0.99,1.19,1.49,2.6,1.49,4.18l0,0.02c-0.08,2.93-1.47,6.43-7.69,6.5c-3.1,0-5.79-0.97-8.02-2.89l-0.64-0.55l3.03-3.47l0.63,0.52
	c1.41,1.16,3.06,1.74,5.02,1.76c2.99-0.05,3.02-1.35,3.03-1.91c0.01-0.72-0.2-1.5-1.84-1.79c-0.79-0.11-1.64-0.23-2.58-0.36
	c-1.88-0.31-3.33-1.03-4.33-2.13c-1.04-1.15-1.57-2.55-1.57-4.19c0-1.94,0.66-3.54,1.97-4.75c1.25-1.17,3.01-1.78,5.24-1.8l0.03,0
	c2.59,0.06,4.88,0.79,6.81,2.18l0.66,0.47l-2.56,3.8L76.48,6z M53.41,21.41L50.29,9.62l-3.12,11.79h-3.76l-5.3-21.24h4.86
	l2.51,11.37l3.1-11.37h3.42l3.09,11.37l2.52-11.37h4.86l-5.3,21.24H53.41z M20.43,0.16h14.15v4.47h-9.52v3.91h8.13v4.3h-8.13v4.08
	h9.52v4.48H20.43V0.16z M4.63,9.45v11.96H0V0.16h4.08l7.61,11.96V0.16h4.63v21.24h-4.09L4.63,9.45z"/>
</svg>
