<svg xmlns="http://www.w3.org/2000/svg" width="297.032" height="20.274" viewBox="0 0 297.032 20.274">
  <g id="グループ_7179" data-name="グループ 7179" transform="translate(-291.42 -506.135)">
    <g id="グループ_7178" data-name="グループ 7178">
      <g id="グループ_7176" data-name="グループ 7176">
        <g id="グループ_7169" data-name="グループ 7169" transform="translate(-361.332 -1070.69)">
          <path id="パス_46590" data-name="パス 46590" d="M-143.7-11.792h-1.616a9.665,9.665,0,0,0-1.072-1.536l-1.568.528a5.5,5.5,0,0,1,.864,1.008h-.976a15.135,15.135,0,0,1-1.632-.064,12.309,12.309,0,0,1,.064,1.36v.88a8.6,8.6,0,0,1-.064,1.088h1.648V-10.48h10.608v1.952h1.648a7.12,7.12,0,0,1-.064-1.04V-10.4a13.361,13.361,0,0,1,.064-1.456,12.856,12.856,0,0,1-1.552.064h-1.1a11.253,11.253,0,0,0,.784-1.04l-1.584-.592a8.041,8.041,0,0,1-1.024,1.632h-1.7v-.576a6.116,6.116,0,0,1,.08-1.136h-1.888a6.222,6.222,0,0,1,.08,1.136ZM-145.936-.88a14.319,14.319,0,0,1-4.3.752,5.542,5.542,0,0,1,.944,1.52A15.784,15.784,0,0,0-144.128-.08l-.928-.8h4.352l-.832.8A12.463,12.463,0,0,0-138.992.976a14.027,14.027,0,0,0,2.768.576A7.128,7.128,0,0,1-135.408.1a12.683,12.683,0,0,1-4.3-.976h.88c.608,0,1.072.016,1.568.048a12.034,12.034,0,0,1-.064-1.648V-5.008a14.548,14.548,0,0,1,.064-1.584c-.464.032-.864.048-1.776.048h-7.44c-.992,0-1.3-.016-1.776-.048a14.929,14.929,0,0,1,.064,1.584V-2.48a14.356,14.356,0,0,1-.064,1.648c.56-.032,1.008-.048,1.712-.048Zm-.592-4.608h7.536v.512h-7.536Zm0,1.472h7.536v.528h-7.536Zm0,1.488h7.536v.56h-7.536Zm8.16-6.464a10.006,10.006,0,0,1,.048-1.024c-.464.032-.928.048-1.552.048h-5.744c-.64,0-1.056-.016-1.552-.048a7.928,7.928,0,0,1,.048,1.008v.992a9.569,9.569,0,0,1-.048,1.024c.528-.048.928-.064,1.456-.064h5.92a12.2,12.2,0,0,1,1.456.048c-.016-.4-.032-.656-.032-1.04Zm-1.6.112v.736h-5.568V-8.88Zm12.256,1.328V-6h-3.776a11.809,11.809,0,0,1-1.744-.1V-4.32a13.145,13.145,0,0,1,1.728-.1h3.792V-.832h-4.016a17.289,17.289,0,0,1-1.984-.1V.912A15.775,15.775,0,0,1-131.728.8h10.112a14.758,14.758,0,0,1,1.92.112V-.928a14.989,14.989,0,0,1-1.888.1h-4.352V-4.416h4.032a12.677,12.677,0,0,1,1.76.1V-6.1a11.371,11.371,0,0,1-1.744.1h-4.048V-7.552h1.632a10.936,10.936,0,0,1,1.568.08v-.816a16.313,16.313,0,0,0,2.8,1.408,8.167,8.167,0,0,1,.864-1.76,13.253,13.253,0,0,1-4.24-2.16,9.464,9.464,0,0,1-2.464-2.464h-1.984a12.345,12.345,0,0,1-6.528,4.688,7.109,7.109,0,0,1,.928,1.648,17.267,17.267,0,0,0,2.608-1.312v.768a11.211,11.211,0,0,1,1.568-.08Zm-1.856-1.5a11.288,11.288,0,0,0,2.8-2.688,12.622,12.622,0,0,0,2.88,2.688c-.24.016-.24.016-.384.016l-4.96-.016ZM-131.9-3.632A11.652,11.652,0,0,1-130.64-.976l1.6-.64a18.541,18.541,0,0,0-1.28-2.656Zm8.624-.624A13.37,13.37,0,0,1-124.544-1.5l1.5.56c.544-.928.608-1.04.656-1.136.592-1.168.592-1.168.8-1.536Zm13.248-.96v-.656a5.157,5.157,0,0,1,.08-1.056h-1.84a5.281,5.281,0,0,1,.08,1.04v.672h-4.5a7.638,7.638,0,0,1-1.552-.1v1.7a16.4,16.4,0,0,1,1.936-.1h3.008a12.4,12.4,0,0,1-5.328,2.976,5.278,5.278,0,0,1,.96,1.68,17.7,17.7,0,0,0,3.152-1.7,11.143,11.143,0,0,0,2.352-2.08c-.032.48-.032.816-.032,1.168v1.44a7.312,7.312,0,0,1-.128,1.552h1.92a6.753,6.753,0,0,1-.112-1.536V-1.68c0-.288-.016-.528-.048-1.184a10.682,10.682,0,0,0,2.3,2,16.875,16.875,0,0,0,3.552,1.9,7.024,7.024,0,0,1,.976-1.76A13.165,13.165,0,0,1-108.9-3.712h3.216a16.5,16.5,0,0,1,1.952.1v-1.7a13.234,13.234,0,0,1-1.824.1Zm2.96-7.312a6.472,6.472,0,0,1-1.392.1h-3.248c.416-.464.7-.768.848-.928l-1.936-.352a7.058,7.058,0,0,1-1.936,2.016,11.029,11.029,0,0,1-3.024,1.68,3.788,3.788,0,0,1,.976,1.36,11.163,11.163,0,0,0,2.816-1.664,12.935,12.935,0,0,0,1.7,1.52,19.626,19.626,0,0,1-5.76,1.488,3.862,3.862,0,0,1,.64,1.52,22.413,22.413,0,0,0,4.128-1.056,16.568,16.568,0,0,0,2.48-1.04,21.113,21.113,0,0,0,6.736,2.032,6.1,6.1,0,0,1,.768-1.664,26.036,26.036,0,0,1-5.872-1.328,15.712,15.712,0,0,0,2.672-2.336,3.092,3.092,0,0,1,.4-.4Zm-1.712,1.424a8.885,8.885,0,0,1-1.968,1.52,6.642,6.642,0,0,1-1.936-1.52Zm15.424.96h-1.584c.128-.4.192-.608.352-1.1.144-.5.176-.592.288-.96l-1.76-.448a8.677,8.677,0,0,1-.5,2.032,12.635,12.635,0,0,1-1.728,3.3,5.983,5.983,0,0,1,1.424,1.152,11.63,11.63,0,0,0,1.3-2.336h2.208V-5.52H-96.1a13.2,13.2,0,0,1-1.792-.1v1.84a13.694,13.694,0,0,1,1.792-.1h2.736V-.544a11.9,11.9,0,0,1-.112,1.84h1.984A9.886,9.886,0,0,1-91.6-.544V-3.872h2.528a14.775,14.775,0,0,1,1.76.1v-1.84a13.694,13.694,0,0,1-1.792.1h-2.5V-8.512h2.016c.512,0,.992.032,1.712.1V-10.24a11.564,11.564,0,0,1-1.728.1h-2v-1.472a8.466,8.466,0,0,1,.112-1.7h-1.984a10.025,10.025,0,0,1,.112,1.68Zm-7.04,9.6a13.668,13.668,0,0,1-.1,1.872h1.92c-.048-.608-.08-1.136-.08-1.856V-9.6a19.274,19.274,0,0,0,1.12-2.8c.144-.4.176-.48.256-.72l-1.808-.512a9.886,9.886,0,0,1-.576,2.08,13.778,13.778,0,0,1-2.752,4.544,6.66,6.66,0,0,1,.72,1.968A8.683,8.683,0,0,0-100.352-6.9c-.032.7-.048,1.216-.048,1.76Zm19.408-7.5a.282.282,0,0,1,.1-.016.735.735,0,0,1,.16.016,2.382,2.382,0,0,1,.272.016c.08,0,.256.016.48.016.752.064,1.392.08,1.984.08.416,0,.8-.016,1.44-.032.064,2.224.08,3.008.128,3.408a3.8,3.8,0,0,0-1.424-.224c-1.936,0-3.3,1.088-3.3,2.64,0,1.632,1.28,2.624,3.376,2.624,1.552,0,2.672-.56,3.04-1.5a2.8,2.8,0,0,0,.128-.9v-.224c.1.064.464.3,1.008.656A5.994,5.994,0,0,1-72.4-.464l.768-1.936a3.044,3.044,0,0,1-.448-.272,12.757,12.757,0,0,0-2.512-1.456c-.16-2.688-.16-2.72-.16-3.616V-8.1c.848-.1,1.68-.24,2.224-.352a2.765,2.765,0,0,1,.464-.08l-.064-1.808-.128.032c-.256.1-.256.1-.352.128a16.085,16.085,0,0,1-2.16.384v-.736a15.654,15.654,0,0,1,.112-2.352l-2,.048a4.476,4.476,0,0,1,.048.768c0,.656.016,1.456.016,2.4-.56.032-.912.032-1.472.032a11.531,11.531,0,0,1-2.9-.256Zm4.592,5.12V-2.5a1.343,1.343,0,0,1-.208.864,1.573,1.573,0,0,1-1.3.5c-.9,0-1.472-.4-1.472-.992,0-.656.64-1.056,1.664-1.056A3.349,3.349,0,0,1-76.4-2.928ZM-82.656.48a3.134,3.134,0,0,1-.032-.432,13.35,13.35,0,0,1,1.584-4.9l-1.328-.592a3.05,3.05,0,0,1-.192.5c-.16.384-.16.384-.3.72-.08.256-.16.432-.192.544-.112.288-.112.288-.192.464h-.016a2.724,2.724,0,0,0,.016-.336v-.256c0-.256,0-.256.016-.832a25.715,25.715,0,0,1,1.28-8.032l-2.16-.224v.064a8.588,8.588,0,0,1-.176,1.184C-84.7-9.84-84.7-9.84-84.784-9.36a28.6,28.6,0,0,0-.3,4.24,30.342,30.342,0,0,0,.432,5.088,5.84,5.84,0,0,1,.08.624Zm17.184-5.888c0,.176,0,.288-.016.5h-2.288a9.664,9.664,0,0,1-1.68-.1V-3.3a10.222,10.222,0,0,1,1.68-.1h2.048a3.637,3.637,0,0,1-1.136,1.776,6.616,6.616,0,0,1-2.96,1.424,5.84,5.84,0,0,1,1.136,1.568A7.558,7.558,0,0,0-64.96-1.088a5.627,5.627,0,0,0,.992-2.3H-61.9v3.1c0,1.12.512,1.392,2.688,1.392,3.072,0,3.36-.24,3.712-2.944a5.459,5.459,0,0,1-1.728-.56A3.743,3.743,0,0,1-57.52-.8c-.176.224-.56.3-1.44.3a3.7,3.7,0,0,1-1.024-.08c-.24-.064-.256-.1-.256-.432V-3.392H-57.7a12.206,12.206,0,0,1,1.68.1V-5.008a9.556,9.556,0,0,1-1.68.1H-60.24V-6.64a12.9,12.9,0,0,1,1.536.064v-.688a16.037,16.037,0,0,0,2.64,1.44,6.527,6.527,0,0,1,.9-1.584,14.2,14.2,0,0,1-2.56-1.216,12.393,12.393,0,0,0,1.44-1.472c.32-.352.352-.4.448-.5l-1.472-.832a9.434,9.434,0,0,1-1.664,1.936c-.336-.256-.512-.4-.944-.768a16.523,16.523,0,0,0,1.184-1.2c.368-.432.576-.672.624-.736l-1.472-.816c-.048.08-.048.08-.128.208a2.806,2.806,0,0,1-.336.464,8.412,8.412,0,0,1-.944,1.024,3.939,3.939,0,0,1-.992-1.744,9.213,9.213,0,0,1-1.376.064h-2.96a9.143,9.143,0,0,1-1.328-.08v1.664l-.512-.416-1.312.976a10.961,10.961,0,0,1,2.24,2.1A13.724,13.724,0,0,1-70.288-7.2a6.054,6.054,0,0,1,.944,1.472A15.773,15.773,0,0,0-66.528-7.28v.7c.4-.032.576-.048,1.072-.064ZM-63.76-6.64H-61.9v1.728h-1.872V-5.28Zm-.576-4.832A10.348,10.348,0,0,1-65.9-9.76a13.766,13.766,0,0,0-1.744-1.648,7.123,7.123,0,0,1,.976-.064Zm-.608,3.328h-.432a13.359,13.359,0,0,0,2.7-2.9,13.4,13.4,0,0,0,2.72,2.9h-4.992Zm17.216-3.92h-4.064a13.815,13.815,0,0,1-1.936-.1v1.7a15.29,15.29,0,0,1,1.888-.08h4.112v1.056h-3.408a10.214,10.214,0,0,1-1.616-.08V-7.92a14.441,14.441,0,0,1,1.616-.064h8.752a14.039,14.039,0,0,1,1.632.064V-9.568a10.321,10.321,0,0,1-1.632.08h-3.568v-1.056h4.368a18.461,18.461,0,0,1,1.872.08v-1.7a13.706,13.706,0,0,1-1.92.1h-4.32v-.192a4.935,4.935,0,0,1,.1-1.232h-1.952a6.587,6.587,0,0,1,.08,1.232Zm-4.208,8.416V-5.5H-41.6v1.856h1.872a6.268,6.268,0,0,1-.08-1.168V-5.984a7.246,7.246,0,0,1,.064-1.136c-.56.048-.96.064-1.728.064H-52.048A16.41,16.41,0,0,1-53.76-7.12,8.5,8.5,0,0,1-53.7-5.936V-4.8a6.513,6.513,0,0,1-.08,1.152Zm2.32-1.36a3.05,3.05,0,0,1,.048.512,5.391,5.391,0,0,1-.256,1.5,3.507,3.507,0,0,1-2.064,1.984,6.9,6.9,0,0,1-2.192.592A6.283,6.283,0,0,1-52.928,1.36,9.955,9.955,0,0,0-51.2.752,7.354,7.354,0,0,0-49.312-.56,5.936,5.936,0,0,0-47.76-4.224a3.648,3.648,0,0,1,.1-.688Zm5.216,1.3a6.566,6.566,0,0,1,.08-1.248h-1.92a9.016,9.016,0,0,1,.064,1.328v3.28c0,1.168.432,1.376,2.864,1.376,1.84,0,2.592-.112,2.96-.464.432-.4.672-1.264.8-2.88a5.515,5.515,0,0,1-1.712-.544A4.945,4.945,0,0,1-41.552-.88c-.144.208-.5.272-1.616.272-1.088,0-1.232-.064-1.232-.48Zm13.84-3.072,1.552-.5v3.392a12.169,12.169,0,0,1-.08,1.648h1.856a11.609,11.609,0,0,1-.1-1.6V-7.824l1.84-.576c-.048,1.552-.112,2.544-.192,3.072-.064.336-.16.4-.56.4a4.423,4.423,0,0,1-.9-.128A4.774,4.774,0,0,1-26.7-3.408c.4.032.544.032.752.032,1.168,0,1.6-.272,1.808-1.184a29.54,29.54,0,0,0,.352-4.4c.032-.864.048-.976.08-1.68a9.782,9.782,0,0,1-1.312.48l-2.3.72v-2.24a13.172,13.172,0,0,1,.1-1.632h-1.856a11.421,11.421,0,0,1,.08,1.6v2.784l-1.552.5v-1.744a12.277,12.277,0,0,1,.1-1.632h-1.888a10.2,10.2,0,0,1,.1,1.7V-7.92l-.144.048a9.581,9.581,0,0,1-1.552.352l.4,1.744a8.643,8.643,0,0,1,.976-.368c.064-.016.176-.048.32-.1v5.5c0,1.408.7,1.712,3.936,1.712,4.56,0,4.9-.224,5.088-3.424a8.423,8.423,0,0,1-1.744-.528,3.669,3.669,0,0,1-.288,1.9c-.24.336-.752.416-2.656.416A12.492,12.492,0,0,1-30.1-.768c-.352-.064-.464-.176-.464-.5ZM-36.3-9.392h-.368a6.266,6.266,0,0,1-1.248-.08V-7.76a6.566,6.566,0,0,1,1.248-.08h.368v5.024a8.34,8.34,0,0,1-1.9.576l.336,1.84c.24-.112.384-.176.832-.352a26.931,26.931,0,0,0,3.952-1.776l-.048-1.7c-.72.368-.9.448-1.52.736V-7.84h.3a7.283,7.283,0,0,1,1.12.064v-1.68a5.367,5.367,0,0,1-1.072.064h-.352V-11.44a11.294,11.294,0,0,1,.1-1.856H-36.4a13.66,13.66,0,0,1,.1,1.84ZM-9.3-8.256a9.739,9.739,0,0,1-.88,2.88,31.654,31.654,0,0,1-.464-4.192h1.184c.672,0,1.312.032,1.76.08v-1.76c-.384.048-.7.064-1.168.08l1.04-.88a7.38,7.38,0,0,0-1.68-1.36l-1.04.8a6.646,6.646,0,0,1,1.616,1.44h-1.76c0-.192.016-.5.016-.512a10.772,10.772,0,0,1,.08-1.68h-1.84a10.188,10.188,0,0,1,.1,1.408c0,.176,0,.336.016.784h-3.616a13.6,13.6,0,0,1-1.856-.1v1.776c.432-.048,1.12-.08,1.808-.08h3.728a28.3,28.3,0,0,0,.88,6.3,10.734,10.734,0,0,1-1.04,1.312V-3.36a35.569,35.569,0,0,1-5.728,1.088c.224-.112.3-.16.576-.32V-4.32c-.592.336-.8.448-1.312.7V-7.5h.128a10.677,10.677,0,0,1,1.12.048V-9.12a7.246,7.246,0,0,1-1.136.064h-.112v-2.368a11.009,11.009,0,0,1,.1-1.792h-1.84a13.2,13.2,0,0,1,.1,1.792v2.368h-.336a6.666,6.666,0,0,1-1.184-.08v1.7A8.709,8.709,0,0,1-20.88-7.5h.352v4.64a10.36,10.36,0,0,1-1.744.592l.384,1.856c.16-.1.224-.128.368-.208,1.616-.752,2.032-.944,3.184-1.552l.272,1.664c.256-.08.9-.224,1.664-.384a35.741,35.741,0,0,0,3.888-.96A13.739,13.739,0,0,1-15.28.064,4.287,4.287,0,0,1-14,1.36a12.446,12.446,0,0,0,3.216-2.8C-10.1.288-9.3,1.232-8.512,1.232A.979.979,0,0,0-7.7.7a6.461,6.461,0,0,0,.64-2.64A4.075,4.075,0,0,1-8.3-2.976,5.022,5.022,0,0,1-8.672-.96,8.045,8.045,0,0,1-9.6-3.136,23.729,23.729,0,0,0-7.792-7.184c.048-.144.08-.24.08-.256a3.2,3.2,0,0,1,.144-.336ZM-17.12-4.72a9.493,9.493,0,0,1-.048.976,7.644,7.644,0,0,1,.992-.048h2.4a9.254,9.254,0,0,1,1.008.048c-.016-.144-.032-.624-.032-.976V-7.84a4.3,4.3,0,0,1,.032-.688,7.858,7.858,0,0,1-.912.048h-2.448a8.332,8.332,0,0,1-1.04-.048c.016.24.048.688.048,1.008Zm1.44-2.32h1.424v1.792H-15.68ZM-2.5.384c-.016-.208-.016-.336-.016-.432A13.135,13.135,0,0,1-1.088-4.9l-1.28-.576A16.318,16.318,0,0,0-3.2-3.36c.016-.4.032-.528.032-.88a26.714,26.714,0,0,1,.24-3.536A22.059,22.059,0,0,1-1.92-12.56l-2.112-.224a10.469,10.469,0,0,1-.24,1.488A30.717,30.717,0,0,0-4.928-5.04,27.908,27.908,0,0,0-4.512-.256c.048.368.064.464.08.752ZM-.288-9.2a18.994,18.994,0,0,0,2.88.176,28.659,28.659,0,0,0,3.424-.192c.768-.1,1.008-.128,1.136-.144l-.1-1.936a17.644,17.644,0,0,1-4.352.432,11.536,11.536,0,0,1-2.96-.256Zm1.1,2.64a5.227,5.227,0,0,0-1.472,3.3A2.68,2.68,0,0,0-.176-1.7C.528-.752,1.808-.3,3.792-.3A19.731,19.731,0,0,0,7.1-.608,5.347,5.347,0,0,1,7.76-.7L7.6-2.736a11.244,11.244,0,0,1-3.808.608c-1.664,0-2.544-.48-2.544-1.392a3.619,3.619,0,0,1,1.136-2.3Zm15.3-6.608a9.443,9.443,0,0,1,.08,1.408c.016,2,.16,6.368.224,6.944a.359.359,0,0,0,.016.16,5.917,5.917,0,0,0-1.488-.16c-2.3,0-3.952,1.2-3.952,2.864a2.885,2.885,0,0,0,.4,1.424C11.984.384,13.12.848,14.752.848,17.136.848,18.4-.1,18.4-1.888a3.726,3.726,0,0,0-.032-.512c.176.112.3.176.512.288A10.074,10.074,0,0,1,20.992-.8,6.308,6.308,0,0,1,22.128.256l1.248-1.808c-.192-.112-.272-.176-.48-.32a21.526,21.526,0,0,0-2.064-1.36,11.814,11.814,0,0,0-2.5-1.088c-.112-1.568-.144-2.288-.176-3.536a34.5,34.5,0,0,0,3.76-.288c.72-.08.72-.08,1.04-.1l-.16-1.936a17.3,17.3,0,0,1-4.688.544c-.016-.768-.016-.816-.016-1.04a18.208,18.208,0,0,1,.112-2.48Zm.352,10.24c0,.016.016.464.016.752a1.124,1.124,0,0,1-.336.9,2.287,2.287,0,0,1-1.456.432,2.862,2.862,0,0,1-1.168-.24.874.874,0,0,1-.544-.832c0-.7.8-1.184,2-1.184A5.193,5.193,0,0,1,16.464-2.928ZM27.984-5.36A10.106,10.106,0,0,1,29.84-5.9a17.93,17.93,0,0,1,4.208-.624c1.7,0,2.624.672,2.624,1.92a2.57,2.57,0,0,1-1.136,2.16A5.643,5.643,0,0,1,32.864-1.36a14.1,14.1,0,0,1-2.272.24h-.24A5.058,5.058,0,0,1,31.04.7,15.73,15.73,0,0,0,34.512.1C37.056-.7,38.56-2.432,38.56-4.56a3.629,3.629,0,0,0-.592-2.064c-.72-1.1-1.952-1.632-3.776-1.632a22.606,22.606,0,0,0-4.944.672,8.53,8.53,0,0,1-1.664.3ZM41.536-9.04a23.225,23.225,0,0,1,2.656-.32c3.472-.256,4.1-.3,5.392-.5a7.052,7.052,0,0,0-2.224,1.6A5.641,5.641,0,0,0,45.84-4.48,4.281,4.281,0,0,0,48.128-.624,9.626,9.626,0,0,0,51.872.432a3.4,3.4,0,0,1,.544.1L52.7-1.648c-.16.016-.3.016-.32.016A9.71,9.71,0,0,1,50-2.048a2.687,2.687,0,0,1-2.128-2.608c0-1.616,1.2-3.216,3.232-4.272a7.156,7.156,0,0,1,3.168-.864,2.477,2.477,0,0,1,.336.016L54.5-11.824a9.034,9.034,0,0,1-1.84.16c-4.432.208-7.088.352-7.984.4-2.352.16-2.352.16-2.64.16-.08,0-.256,0-.608-.016ZM60.944-6.992v.976H59.312a11.446,11.446,0,0,1-1.6-.1V-4.56a15.948,15.948,0,0,1,1.6-.08h1.632v1.168H58.736a12.912,12.912,0,0,1-1.792-.08v1.568a13.458,13.458,0,0,1,1.808-.1H69.68a13.458,13.458,0,0,1,1.808.1V-3.552a13.15,13.15,0,0,1-1.824.08H67.392V-4.64h1.632c.608,0,1.088.032,1.6.08V-6.112a11.287,11.287,0,0,1-1.6.1H67.392v-.976h1.2a13.328,13.328,0,0,1,1.5.08A14.209,14.209,0,0,1,70.032-8.5V-11.52a12.181,12.181,0,0,1,.064-1.488,14.4,14.4,0,0,1-1.632.064h-8.5a14.4,14.4,0,0,1-1.632-.064A12.868,12.868,0,0,1,58.4-11.52V-8.5c0,.384-.016.912-.032,1.136-.016.272-.016.272-.032.448a13.025,13.025,0,0,1,1.488-.08Zm1.648,0h3.136v.976H62.592Zm0,2.352h3.136v1.168H62.592Zm-2.528-6.976h3.264v1.072H60.064Zm4.9,0h3.392v1.072H64.96Zm-4.9,2.32h3.264v1.072H60.064Zm4.9,0h3.392v1.072H64.96ZM61.488-1.968a10.455,10.455,0,0,1-4.56,1.92A7.819,7.819,0,0,1,58.08,1.44a13.136,13.136,0,0,0,4.912-2.528Zm3.664.96A14.236,14.236,0,0,0,70.4,1.472a6.637,6.637,0,0,1,1.024-1.6,11.294,11.294,0,0,1-4.8-1.84ZM77.04-13.264a16.346,16.346,0,0,1-.48,2.784c-.352.016-.624.016-.816.016a11.109,11.109,0,0,1-2.16-.144v1.824l.848.016c.336.016.432.016.64.016.192,0,.288,0,1.008-.016a24.615,24.615,0,0,1-1.5,3.776,14.564,14.564,0,0,1-1.552,2.56l1.84,1.024c.1-.192.1-.192.3-.576.608-1.12.752-1.408,1.12-2.192a30.712,30.712,0,0,0,1.76-4.64c.992-.08,1.968-.192,2.544-.288a3.12,3.12,0,0,1,.512-.08l-.048-1.84a13.723,13.723,0,0,1-2.56.448c.176-.7.256-1.024.336-1.408a8.01,8.01,0,0,1,.256-1.072ZM87.28-9.1a25.257,25.257,0,0,0-4.512-2.144L81.808-9.7a19.582,19.582,0,0,1,4.608,2.24Zm-.064,7.216a2.865,2.865,0,0,1-.24-.224,5.9,5.9,0,0,0-.56-.432,10,10,0,0,0-2.528-1.472,16.988,16.988,0,0,1-.144-2.192,5.333,5.333,0,0,1,.192-1.616l-1.856-.1A8.487,8.487,0,0,0,81.952-6.3c0,.48.032,1.1.08,1.84a7.947,7.947,0,0,0-1.488-.144c-2.032,0-3.456,1.136-3.456,2.752,0,1.632,1.376,2.688,3.488,2.688a3.694,3.694,0,0,0,2.656-.9,2.557,2.557,0,0,0,.688-1.7c0-.064-.016-.176-.032-.32A9.677,9.677,0,0,1,86.336-.1Zm-5.12-.88s.032.384.032.544c0,.9-.528,1.344-1.616,1.344-.992,0-1.568-.384-1.568-1.04,0-.672.672-1.1,1.712-1.1A4.033,4.033,0,0,1,82.1-2.768Zm9.712-10.416a3.76,3.76,0,0,1-.048.544l-.24,1.984c-.128,1.1-.224,2.88-.224,4.176,0,.32.032,1.5.048,1.968v.3A1.244,1.244,0,0,1,91.328-4l1.92-.032v-.336a7.671,7.671,0,0,1,2.016-5.168,2.381,2.381,0,0,1,1.728-.848c1.376,0,2.144,1.28,2.144,3.584,0,2.432-.848,3.952-2.7,4.9a9.34,9.34,0,0,1-3.5.912A6.12,6.12,0,0,1,93.872.9,13.645,13.645,0,0,0,97.008,0a6.725,6.725,0,0,0,4.128-6.576,6.7,6.7,0,0,0-1.152-4.256,3.351,3.351,0,0,0-2.736-1.44,3.82,3.82,0,0,0-3.04,1.632,6.468,6.468,0,0,0-1.008,1.9,3.514,3.514,0,0,1-.1.352h-.048c.032-.384.1-.928.208-1.6a15.694,15.694,0,0,1,.576-3.088ZM118.544-1.7c-.224-.128-.3-.192-.576-.368a14.311,14.311,0,0,0-4.384-2.256c-.016-.384-.016-.384-.064-1.936.624-.032.864-.048,1.088-.064,1.2-.112,1.92-.192,2.16-.224.368-.048.768-.1,1.04-.112l-.048-1.76a11.841,11.841,0,0,1-1.984.352c-1.472.16-1.472.16-2.272.208-.016-.992-.016-1.184-.032-1.584,1.408-.08,2.032-.128,3.44-.32a10.008,10.008,0,0,1,1.264-.144l-.08-1.776a21.647,21.647,0,0,1-4.608.608,9.919,9.919,0,0,1,.112-1.952h-2.032a11.415,11.415,0,0,1,.08,2.016c-.4.016-.944.032-1.2.032a21.039,21.039,0,0,1-4.3-.336l-.016,1.776h.256c.048,0,.176,0,.352.016,1.072.08,3.136.16,3.92.16.24,0,.5,0,1.008-.016.016.912.016,1.456.016,1.6-.448.016-.992.032-1.312.032a20.632,20.632,0,0,1-3.728-.272l-.032,1.728c.24,0,.4,0,.608.016,1.328.1,1.92.112,2.9.112.336,0,.832-.016,1.6-.032.016.64.016.64.032.864v.352a3.083,3.083,0,0,1,.016.384,8.359,8.359,0,0,0-1.072-.064c-2.688,0-4.272,1.024-4.272,2.768,0,1.584,1.344,2.5,3.68,2.5a4.26,4.26,0,0,0,2.64-.688,2.5,2.5,0,0,0,.9-2.16v-.176a7.119,7.119,0,0,1,.864.4,10.8,10.8,0,0,1,2.96,2.192Zm-6.752-1.232v.384A2.028,2.028,0,0,1,111.6-1.52a1.661,1.661,0,0,1-1.392.512c-1.136,0-1.824-.368-1.824-.96,0-.688.784-1.1,2.08-1.1A5.616,5.616,0,0,1,111.792-2.928ZM130.48-8.512v-1.04c1.264-.032,1.552-.032,1.936-.032,1.328,0,2.1.032,2.688.08l-.016-1.84c-.592.064-1.84.1-4.624.112a12.581,12.581,0,0,1,.08-1.9l-2.016.016a8.681,8.681,0,0,1,.1,1.936c-.832.032-.832.032-1.36.048-1.312.032-1.472.032-2.512.064-2.064.08-2.32.08-2.72.08a6.968,6.968,0,0,1-.784-.032l.064,1.9c.432-.064.432-.064,2.848-.24.7-.048,2.208-.1,4.5-.16,0,.432,0,1.328.016,1.36a.659.659,0,0,0,.016.192,2.674,2.674,0,0,0-1.664-.48,2.945,2.945,0,0,0-3.184,2.912,2.5,2.5,0,0,0,1.1,2.16A2.949,2.949,0,0,0,126.8-2.8a2.636,2.636,0,0,0,2.352-1.136A3.368,3.368,0,0,1,127.3-1.6a7.551,7.551,0,0,1-2.72.928,5.251,5.251,0,0,1,1.136,1.808,11.185,11.185,0,0,0,2.9-1.312,5.134,5.134,0,0,0,2.384-4.32,4.869,4.869,0,0,0-.512-2.256c0-.192-.016-.32-.016-.384Zm-1.84,2.64a1.458,1.458,0,0,1-1.568,1.44,1.263,1.263,0,0,1-1.36-1.264,1.4,1.4,0,0,1,1.488-1.28C128.08-6.976,128.64-6.544,128.64-5.872Zm9.44,1.712a2.711,2.711,0,0,0-2.7,2.7,2.714,2.714,0,0,0,2.7,2.72,2.714,2.714,0,0,0,2.7-2.72A2.7,2.7,0,0,0,138.08-4.16Zm0,1.248a1.461,1.461,0,0,1,1.456,1.456A1.465,1.465,0,0,1,138.08.016a1.465,1.465,0,0,1-1.456-1.472A1.461,1.461,0,0,1,138.08-2.912Z" transform="translate(807 1593)" fill="#1a1a1a" stroke="#fff" stroke-width="4"/>
        </g>
      </g>
      <path id="パス_46589" data-name="パス 46589" d="M-143.7-11.792h-1.616a9.665,9.665,0,0,0-1.072-1.536l-1.568.528a5.5,5.5,0,0,1,.864,1.008h-.976a15.135,15.135,0,0,1-1.632-.064,12.309,12.309,0,0,1,.064,1.36v.88a8.6,8.6,0,0,1-.064,1.088h1.648V-10.48h10.608v1.952h1.648a7.12,7.12,0,0,1-.064-1.04V-10.4a13.361,13.361,0,0,1,.064-1.456,12.856,12.856,0,0,1-1.552.064h-1.1a11.253,11.253,0,0,0,.784-1.04l-1.584-.592a8.041,8.041,0,0,1-1.024,1.632h-1.7v-.576a6.116,6.116,0,0,1,.08-1.136h-1.888a6.222,6.222,0,0,1,.08,1.136ZM-145.936-.88a14.319,14.319,0,0,1-4.3.752,5.542,5.542,0,0,1,.944,1.52A15.784,15.784,0,0,0-144.128-.08l-.928-.8h4.352l-.832.8A12.463,12.463,0,0,0-138.992.976a14.027,14.027,0,0,0,2.768.576A7.128,7.128,0,0,1-135.408.1a12.683,12.683,0,0,1-4.3-.976h.88c.608,0,1.072.016,1.568.048a12.034,12.034,0,0,1-.064-1.648V-5.008a14.548,14.548,0,0,1,.064-1.584c-.464.032-.864.048-1.776.048h-7.44c-.992,0-1.3-.016-1.776-.048a14.929,14.929,0,0,1,.064,1.584V-2.48a14.356,14.356,0,0,1-.064,1.648c.56-.032,1.008-.048,1.712-.048Zm-.592-4.608h7.536v.512h-7.536Zm0,1.472h7.536v.528h-7.536Zm0,1.488h7.536v.56h-7.536Zm8.16-6.464a10.006,10.006,0,0,1,.048-1.024c-.464.032-.928.048-1.552.048h-5.744c-.64,0-1.056-.016-1.552-.048a7.928,7.928,0,0,1,.048,1.008v.992a9.569,9.569,0,0,1-.048,1.024c.528-.048.928-.064,1.456-.064h5.92a12.2,12.2,0,0,1,1.456.048c-.016-.4-.032-.656-.032-1.04Zm-1.6.112v.736h-5.568V-8.88Zm12.256,1.328V-6h-3.776a11.809,11.809,0,0,1-1.744-.1V-4.32a13.145,13.145,0,0,1,1.728-.1h3.792V-.832h-4.016a17.289,17.289,0,0,1-1.984-.1V.912A15.775,15.775,0,0,1-131.728.8h10.112a14.758,14.758,0,0,1,1.92.112V-.928a14.989,14.989,0,0,1-1.888.1h-4.352V-4.416h4.032a12.677,12.677,0,0,1,1.76.1V-6.1a11.371,11.371,0,0,1-1.744.1h-4.048V-7.552h1.632a10.936,10.936,0,0,1,1.568.08v-.816a16.313,16.313,0,0,0,2.8,1.408,8.167,8.167,0,0,1,.864-1.76,13.253,13.253,0,0,1-4.24-2.16,9.464,9.464,0,0,1-2.464-2.464h-1.984a12.345,12.345,0,0,1-6.528,4.688,7.109,7.109,0,0,1,.928,1.648,17.267,17.267,0,0,0,2.608-1.312v.768a11.211,11.211,0,0,1,1.568-.08Zm-1.856-1.5a11.288,11.288,0,0,0,2.8-2.688,12.622,12.622,0,0,0,2.88,2.688c-.24.016-.24.016-.384.016l-4.96-.016ZM-131.9-3.632A11.652,11.652,0,0,1-130.64-.976l1.6-.64a18.541,18.541,0,0,0-1.28-2.656Zm8.624-.624A13.37,13.37,0,0,1-124.544-1.5l1.5.56c.544-.928.608-1.04.656-1.136.592-1.168.592-1.168.8-1.536Zm13.248-.96v-.656a5.157,5.157,0,0,1,.08-1.056h-1.84a5.281,5.281,0,0,1,.08,1.04v.672h-4.5a7.638,7.638,0,0,1-1.552-.1v1.7a16.4,16.4,0,0,1,1.936-.1h3.008a12.4,12.4,0,0,1-5.328,2.976,5.278,5.278,0,0,1,.96,1.68,17.7,17.7,0,0,0,3.152-1.7,11.143,11.143,0,0,0,2.352-2.08c-.032.48-.032.816-.032,1.168v1.44a7.312,7.312,0,0,1-.128,1.552h1.92a6.753,6.753,0,0,1-.112-1.536V-1.68c0-.288-.016-.528-.048-1.184a10.682,10.682,0,0,0,2.3,2,16.875,16.875,0,0,0,3.552,1.9,7.024,7.024,0,0,1,.976-1.76A13.165,13.165,0,0,1-108.9-3.712h3.216a16.5,16.5,0,0,1,1.952.1v-1.7a13.234,13.234,0,0,1-1.824.1Zm2.96-7.312a6.472,6.472,0,0,1-1.392.1h-3.248c.416-.464.7-.768.848-.928l-1.936-.352a7.058,7.058,0,0,1-1.936,2.016,11.029,11.029,0,0,1-3.024,1.68,3.788,3.788,0,0,1,.976,1.36,11.163,11.163,0,0,0,2.816-1.664,12.935,12.935,0,0,0,1.7,1.52,19.626,19.626,0,0,1-5.76,1.488,3.862,3.862,0,0,1,.64,1.52,22.413,22.413,0,0,0,4.128-1.056,16.568,16.568,0,0,0,2.48-1.04,21.113,21.113,0,0,0,6.736,2.032,6.1,6.1,0,0,1,.768-1.664,26.036,26.036,0,0,1-5.872-1.328,15.712,15.712,0,0,0,2.672-2.336,3.092,3.092,0,0,1,.4-.4Zm-1.712,1.424a8.885,8.885,0,0,1-1.968,1.52,6.642,6.642,0,0,1-1.936-1.52Zm15.424.96h-1.584c.128-.4.192-.608.352-1.1.144-.5.176-.592.288-.96l-1.76-.448a8.677,8.677,0,0,1-.5,2.032,12.635,12.635,0,0,1-1.728,3.3,5.983,5.983,0,0,1,1.424,1.152,11.63,11.63,0,0,0,1.3-2.336h2.208V-5.52H-96.1a13.2,13.2,0,0,1-1.792-.1v1.84a13.694,13.694,0,0,1,1.792-.1h2.736V-.544a11.9,11.9,0,0,1-.112,1.84h1.984A9.886,9.886,0,0,1-91.6-.544V-3.872h2.528a14.775,14.775,0,0,1,1.76.1v-1.84a13.694,13.694,0,0,1-1.792.1h-2.5V-8.512h2.016c.512,0,.992.032,1.712.1V-10.24a11.564,11.564,0,0,1-1.728.1h-2v-1.472a8.466,8.466,0,0,1,.112-1.7h-1.984a10.025,10.025,0,0,1,.112,1.68Zm-7.04,9.6a13.668,13.668,0,0,1-.1,1.872h1.92c-.048-.608-.08-1.136-.08-1.856V-9.6a19.274,19.274,0,0,0,1.12-2.8c.144-.4.176-.48.256-.72l-1.808-.512a9.886,9.886,0,0,1-.576,2.08,13.778,13.778,0,0,1-2.752,4.544,6.66,6.66,0,0,1,.72,1.968A8.683,8.683,0,0,0-100.352-6.9c-.032.7-.048,1.216-.048,1.76Zm19.408-7.5a.282.282,0,0,1,.1-.016.735.735,0,0,1,.16.016,2.382,2.382,0,0,1,.272.016c.08,0,.256.016.48.016.752.064,1.392.08,1.984.08.416,0,.8-.016,1.44-.032.064,2.224.08,3.008.128,3.408a3.8,3.8,0,0,0-1.424-.224c-1.936,0-3.3,1.088-3.3,2.64,0,1.632,1.28,2.624,3.376,2.624,1.552,0,2.672-.56,3.04-1.5a2.8,2.8,0,0,0,.128-.9v-.224c.1.064.464.3,1.008.656A5.994,5.994,0,0,1-72.4-.464l.768-1.936a3.044,3.044,0,0,1-.448-.272,12.757,12.757,0,0,0-2.512-1.456c-.16-2.688-.16-2.72-.16-3.616V-8.1c.848-.1,1.68-.24,2.224-.352a2.765,2.765,0,0,1,.464-.08l-.064-1.808-.128.032c-.256.1-.256.1-.352.128a16.085,16.085,0,0,1-2.16.384v-.736a15.654,15.654,0,0,1,.112-2.352l-2,.048a4.476,4.476,0,0,1,.048.768c0,.656.016,1.456.016,2.4-.56.032-.912.032-1.472.032a11.531,11.531,0,0,1-2.9-.256Zm4.592,5.12V-2.5a1.343,1.343,0,0,1-.208.864,1.573,1.573,0,0,1-1.3.5c-.9,0-1.472-.4-1.472-.992,0-.656.64-1.056,1.664-1.056A3.349,3.349,0,0,1-76.4-2.928ZM-82.656.48a3.134,3.134,0,0,1-.032-.432,13.35,13.35,0,0,1,1.584-4.9l-1.328-.592a3.05,3.05,0,0,1-.192.5c-.16.384-.16.384-.3.72-.08.256-.16.432-.192.544-.112.288-.112.288-.192.464h-.016a2.724,2.724,0,0,0,.016-.336v-.256c0-.256,0-.256.016-.832a25.715,25.715,0,0,1,1.28-8.032l-2.16-.224v.064a8.588,8.588,0,0,1-.176,1.184C-84.7-9.84-84.7-9.84-84.784-9.36a28.6,28.6,0,0,0-.3,4.24,30.342,30.342,0,0,0,.432,5.088,5.84,5.84,0,0,1,.08.624Zm17.184-5.888c0,.176,0,.288-.016.5h-2.288a9.664,9.664,0,0,1-1.68-.1V-3.3a10.222,10.222,0,0,1,1.68-.1h2.048a3.637,3.637,0,0,1-1.136,1.776,6.616,6.616,0,0,1-2.96,1.424,5.84,5.84,0,0,1,1.136,1.568A7.558,7.558,0,0,0-64.96-1.088a5.627,5.627,0,0,0,.992-2.3H-61.9v3.1c0,1.12.512,1.392,2.688,1.392,3.072,0,3.36-.24,3.712-2.944a5.459,5.459,0,0,1-1.728-.56A3.743,3.743,0,0,1-57.52-.8c-.176.224-.56.3-1.44.3a3.7,3.7,0,0,1-1.024-.08c-.24-.064-.256-.1-.256-.432V-3.392H-57.7a12.206,12.206,0,0,1,1.68.1V-5.008a9.556,9.556,0,0,1-1.68.1H-60.24V-6.64a12.9,12.9,0,0,1,1.536.064v-.688a16.037,16.037,0,0,0,2.64,1.44,6.527,6.527,0,0,1,.9-1.584,14.2,14.2,0,0,1-2.56-1.216,12.393,12.393,0,0,0,1.44-1.472c.32-.352.352-.4.448-.5l-1.472-.832a9.434,9.434,0,0,1-1.664,1.936c-.336-.256-.512-.4-.944-.768a16.523,16.523,0,0,0,1.184-1.2c.368-.432.576-.672.624-.736l-1.472-.816c-.048.08-.048.08-.128.208a2.806,2.806,0,0,1-.336.464,8.412,8.412,0,0,1-.944,1.024,3.939,3.939,0,0,1-.992-1.744,9.213,9.213,0,0,1-1.376.064h-2.96a9.143,9.143,0,0,1-1.328-.08v1.664l-.512-.416-1.312.976a10.961,10.961,0,0,1,2.24,2.1A13.724,13.724,0,0,1-70.288-7.2a6.054,6.054,0,0,1,.944,1.472A15.773,15.773,0,0,0-66.528-7.28v.7c.4-.032.576-.048,1.072-.064ZM-63.76-6.64H-61.9v1.728h-1.872V-5.28Zm-.576-4.832A10.348,10.348,0,0,1-65.9-9.76a13.766,13.766,0,0,0-1.744-1.648,7.123,7.123,0,0,1,.976-.064Zm-.608,3.328h-.432a13.359,13.359,0,0,0,2.7-2.9,13.4,13.4,0,0,0,2.72,2.9h-4.992Zm17.216-3.92h-4.064a13.815,13.815,0,0,1-1.936-.1v1.7a15.29,15.29,0,0,1,1.888-.08h4.112v1.056h-3.408a10.214,10.214,0,0,1-1.616-.08V-7.92a14.441,14.441,0,0,1,1.616-.064h8.752a14.039,14.039,0,0,1,1.632.064V-9.568a10.321,10.321,0,0,1-1.632.08h-3.568v-1.056h4.368a18.461,18.461,0,0,1,1.872.08v-1.7a13.706,13.706,0,0,1-1.92.1h-4.32v-.192a4.935,4.935,0,0,1,.1-1.232h-1.952a6.587,6.587,0,0,1,.08,1.232Zm-4.208,8.416V-5.5H-41.6v1.856h1.872a6.268,6.268,0,0,1-.08-1.168V-5.984a7.246,7.246,0,0,1,.064-1.136c-.56.048-.96.064-1.728.064H-52.048A16.41,16.41,0,0,1-53.76-7.12,8.5,8.5,0,0,1-53.7-5.936V-4.8a6.513,6.513,0,0,1-.08,1.152Zm2.32-1.36a3.05,3.05,0,0,1,.048.512,5.391,5.391,0,0,1-.256,1.5,3.507,3.507,0,0,1-2.064,1.984,6.9,6.9,0,0,1-2.192.592A6.283,6.283,0,0,1-52.928,1.36,9.955,9.955,0,0,0-51.2.752,7.354,7.354,0,0,0-49.312-.56,5.936,5.936,0,0,0-47.76-4.224a3.648,3.648,0,0,1,.1-.688Zm5.216,1.3a6.566,6.566,0,0,1,.08-1.248h-1.92a9.016,9.016,0,0,1,.064,1.328v3.28c0,1.168.432,1.376,2.864,1.376,1.84,0,2.592-.112,2.96-.464.432-.4.672-1.264.8-2.88a5.515,5.515,0,0,1-1.712-.544A4.945,4.945,0,0,1-41.552-.88c-.144.208-.5.272-1.616.272-1.088,0-1.232-.064-1.232-.48Zm13.84-3.072,1.552-.5v3.392a12.169,12.169,0,0,1-.08,1.648h1.856a11.609,11.609,0,0,1-.1-1.6V-7.824l1.84-.576c-.048,1.552-.112,2.544-.192,3.072-.064.336-.16.4-.56.4a4.423,4.423,0,0,1-.9-.128A4.774,4.774,0,0,1-26.7-3.408c.4.032.544.032.752.032,1.168,0,1.6-.272,1.808-1.184a29.54,29.54,0,0,0,.352-4.4c.032-.864.048-.976.08-1.68a9.782,9.782,0,0,1-1.312.48l-2.3.72v-2.24a13.172,13.172,0,0,1,.1-1.632h-1.856a11.421,11.421,0,0,1,.08,1.6v2.784l-1.552.5v-1.744a12.277,12.277,0,0,1,.1-1.632h-1.888a10.2,10.2,0,0,1,.1,1.7V-7.92l-.144.048a9.581,9.581,0,0,1-1.552.352l.4,1.744a8.643,8.643,0,0,1,.976-.368c.064-.016.176-.048.32-.1v5.5c0,1.408.7,1.712,3.936,1.712,4.56,0,4.9-.224,5.088-3.424a8.423,8.423,0,0,1-1.744-.528,3.669,3.669,0,0,1-.288,1.9c-.24.336-.752.416-2.656.416A12.492,12.492,0,0,1-30.1-.768c-.352-.064-.464-.176-.464-.5ZM-36.3-9.392h-.368a6.266,6.266,0,0,1-1.248-.08V-7.76a6.566,6.566,0,0,1,1.248-.08h.368v5.024a8.34,8.34,0,0,1-1.9.576l.336,1.84c.24-.112.384-.176.832-.352a26.931,26.931,0,0,0,3.952-1.776l-.048-1.7c-.72.368-.9.448-1.52.736V-7.84h.3a7.283,7.283,0,0,1,1.12.064v-1.68a5.367,5.367,0,0,1-1.072.064h-.352V-11.44a11.294,11.294,0,0,1,.1-1.856H-36.4a13.66,13.66,0,0,1,.1,1.84ZM-9.3-8.256a9.739,9.739,0,0,1-.88,2.88,31.654,31.654,0,0,1-.464-4.192h1.184c.672,0,1.312.032,1.76.08v-1.76c-.384.048-.7.064-1.168.08l1.04-.88a7.38,7.38,0,0,0-1.68-1.36l-1.04.8a6.646,6.646,0,0,1,1.616,1.44h-1.76c0-.192.016-.5.016-.512a10.772,10.772,0,0,1,.08-1.68h-1.84a10.188,10.188,0,0,1,.1,1.408c0,.176,0,.336.016.784h-3.616a13.6,13.6,0,0,1-1.856-.1v1.776c.432-.048,1.12-.08,1.808-.08h3.728a28.3,28.3,0,0,0,.88,6.3,10.734,10.734,0,0,1-1.04,1.312V-3.36a35.569,35.569,0,0,1-5.728,1.088c.224-.112.3-.16.576-.32V-4.32c-.592.336-.8.448-1.312.7V-7.5h.128a10.677,10.677,0,0,1,1.12.048V-9.12a7.246,7.246,0,0,1-1.136.064h-.112v-2.368a11.009,11.009,0,0,1,.1-1.792h-1.84a13.2,13.2,0,0,1,.1,1.792v2.368h-.336a6.666,6.666,0,0,1-1.184-.08v1.7A8.709,8.709,0,0,1-20.88-7.5h.352v4.64a10.36,10.36,0,0,1-1.744.592l.384,1.856c.16-.1.224-.128.368-.208,1.616-.752,2.032-.944,3.184-1.552l.272,1.664c.256-.08.9-.224,1.664-.384a35.741,35.741,0,0,0,3.888-.96A13.739,13.739,0,0,1-15.28.064,4.287,4.287,0,0,1-14,1.36a12.446,12.446,0,0,0,3.216-2.8C-10.1.288-9.3,1.232-8.512,1.232A.979.979,0,0,0-7.7.7a6.461,6.461,0,0,0,.64-2.64A4.075,4.075,0,0,1-8.3-2.976,5.022,5.022,0,0,1-8.672-.96,8.045,8.045,0,0,1-9.6-3.136,23.729,23.729,0,0,0-7.792-7.184c.048-.144.08-.24.08-.256a3.2,3.2,0,0,1,.144-.336ZM-17.12-4.72a9.493,9.493,0,0,1-.048.976,7.644,7.644,0,0,1,.992-.048h2.4a9.254,9.254,0,0,1,1.008.048c-.016-.144-.032-.624-.032-.976V-7.84a4.3,4.3,0,0,1,.032-.688,7.858,7.858,0,0,1-.912.048h-2.448a8.332,8.332,0,0,1-1.04-.048c.016.24.048.688.048,1.008Zm1.44-2.32h1.424v1.792H-15.68ZM-2.5.384c-.016-.208-.016-.336-.016-.432A13.135,13.135,0,0,1-1.088-4.9l-1.28-.576A16.318,16.318,0,0,0-3.2-3.36c.016-.4.032-.528.032-.88a26.714,26.714,0,0,1,.24-3.536A22.059,22.059,0,0,1-1.92-12.56l-2.112-.224a10.469,10.469,0,0,1-.24,1.488A30.717,30.717,0,0,0-4.928-5.04,27.908,27.908,0,0,0-4.512-.256c.048.368.064.464.08.752ZM-.288-9.2a18.994,18.994,0,0,0,2.88.176,28.659,28.659,0,0,0,3.424-.192c.768-.1,1.008-.128,1.136-.144l-.1-1.936a17.644,17.644,0,0,1-4.352.432,11.536,11.536,0,0,1-2.96-.256Zm1.1,2.64a5.227,5.227,0,0,0-1.472,3.3A2.68,2.68,0,0,0-.176-1.7C.528-.752,1.808-.3,3.792-.3A19.731,19.731,0,0,0,7.1-.608,5.347,5.347,0,0,1,7.76-.7L7.6-2.736a11.244,11.244,0,0,1-3.808.608c-1.664,0-2.544-.48-2.544-1.392a3.619,3.619,0,0,1,1.136-2.3Zm15.3-6.608a9.443,9.443,0,0,1,.08,1.408c.016,2,.16,6.368.224,6.944a.359.359,0,0,0,.016.16,5.917,5.917,0,0,0-1.488-.16c-2.3,0-3.952,1.2-3.952,2.864a2.885,2.885,0,0,0,.4,1.424C11.984.384,13.12.848,14.752.848,17.136.848,18.4-.1,18.4-1.888a3.726,3.726,0,0,0-.032-.512c.176.112.3.176.512.288A10.074,10.074,0,0,1,20.992-.8,6.308,6.308,0,0,1,22.128.256l1.248-1.808c-.192-.112-.272-.176-.48-.32a21.526,21.526,0,0,0-2.064-1.36,11.814,11.814,0,0,0-2.5-1.088c-.112-1.568-.144-2.288-.176-3.536a34.5,34.5,0,0,0,3.76-.288c.72-.08.72-.08,1.04-.1l-.16-1.936a17.3,17.3,0,0,1-4.688.544c-.016-.768-.016-.816-.016-1.04a18.208,18.208,0,0,1,.112-2.48Zm.352,10.24c0,.016.016.464.016.752a1.124,1.124,0,0,1-.336.9,2.287,2.287,0,0,1-1.456.432,2.862,2.862,0,0,1-1.168-.24.874.874,0,0,1-.544-.832c0-.7.8-1.184,2-1.184A5.193,5.193,0,0,1,16.464-2.928ZM27.984-5.36A10.106,10.106,0,0,1,29.84-5.9a17.93,17.93,0,0,1,4.208-.624c1.7,0,2.624.672,2.624,1.92a2.57,2.57,0,0,1-1.136,2.16A5.643,5.643,0,0,1,32.864-1.36a14.1,14.1,0,0,1-2.272.24h-.24A5.058,5.058,0,0,1,31.04.7,15.73,15.73,0,0,0,34.512.1C37.056-.7,38.56-2.432,38.56-4.56a3.629,3.629,0,0,0-.592-2.064c-.72-1.1-1.952-1.632-3.776-1.632a22.606,22.606,0,0,0-4.944.672,8.53,8.53,0,0,1-1.664.3ZM41.536-9.04a23.225,23.225,0,0,1,2.656-.32c3.472-.256,4.1-.3,5.392-.5a7.052,7.052,0,0,0-2.224,1.6A5.641,5.641,0,0,0,45.84-4.48,4.281,4.281,0,0,0,48.128-.624,9.626,9.626,0,0,0,51.872.432a3.4,3.4,0,0,1,.544.1L52.7-1.648c-.16.016-.3.016-.32.016A9.71,9.71,0,0,1,50-2.048a2.687,2.687,0,0,1-2.128-2.608c0-1.616,1.2-3.216,3.232-4.272a7.156,7.156,0,0,1,3.168-.864,2.477,2.477,0,0,1,.336.016L54.5-11.824a9.034,9.034,0,0,1-1.84.16c-4.432.208-7.088.352-7.984.4-2.352.16-2.352.16-2.64.16-.08,0-.256,0-.608-.016ZM60.944-6.992v.976H59.312a11.446,11.446,0,0,1-1.6-.1V-4.56a15.948,15.948,0,0,1,1.6-.08h1.632v1.168H58.736a12.912,12.912,0,0,1-1.792-.08v1.568a13.458,13.458,0,0,1,1.808-.1H69.68a13.458,13.458,0,0,1,1.808.1V-3.552a13.15,13.15,0,0,1-1.824.08H67.392V-4.64h1.632c.608,0,1.088.032,1.6.08V-6.112a11.287,11.287,0,0,1-1.6.1H67.392v-.976h1.2a13.328,13.328,0,0,1,1.5.08A14.209,14.209,0,0,1,70.032-8.5V-11.52a12.181,12.181,0,0,1,.064-1.488,14.4,14.4,0,0,1-1.632.064h-8.5a14.4,14.4,0,0,1-1.632-.064A12.868,12.868,0,0,1,58.4-11.52V-8.5c0,.384-.016.912-.032,1.136-.016.272-.016.272-.032.448a13.025,13.025,0,0,1,1.488-.08Zm1.648,0h3.136v.976H62.592Zm0,2.352h3.136v1.168H62.592Zm-2.528-6.976h3.264v1.072H60.064Zm4.9,0h3.392v1.072H64.96Zm-4.9,2.32h3.264v1.072H60.064Zm4.9,0h3.392v1.072H64.96ZM61.488-1.968a10.455,10.455,0,0,1-4.56,1.92A7.819,7.819,0,0,1,58.08,1.44a13.136,13.136,0,0,0,4.912-2.528Zm3.664.96A14.236,14.236,0,0,0,70.4,1.472a6.637,6.637,0,0,1,1.024-1.6,11.294,11.294,0,0,1-4.8-1.84ZM77.04-13.264a16.346,16.346,0,0,1-.48,2.784c-.352.016-.624.016-.816.016a11.109,11.109,0,0,1-2.16-.144v1.824l.848.016c.336.016.432.016.64.016.192,0,.288,0,1.008-.016a24.615,24.615,0,0,1-1.5,3.776,14.564,14.564,0,0,1-1.552,2.56l1.84,1.024c.1-.192.1-.192.3-.576.608-1.12.752-1.408,1.12-2.192a30.712,30.712,0,0,0,1.76-4.64c.992-.08,1.968-.192,2.544-.288a3.12,3.12,0,0,1,.512-.08l-.048-1.84a13.723,13.723,0,0,1-2.56.448c.176-.7.256-1.024.336-1.408a8.01,8.01,0,0,1,.256-1.072ZM87.28-9.1a25.257,25.257,0,0,0-4.512-2.144L81.808-9.7a19.582,19.582,0,0,1,4.608,2.24Zm-.064,7.216a2.865,2.865,0,0,1-.24-.224,5.9,5.9,0,0,0-.56-.432,10,10,0,0,0-2.528-1.472,16.988,16.988,0,0,1-.144-2.192,5.333,5.333,0,0,1,.192-1.616l-1.856-.1A8.487,8.487,0,0,0,81.952-6.3c0,.48.032,1.1.08,1.84a7.947,7.947,0,0,0-1.488-.144c-2.032,0-3.456,1.136-3.456,2.752,0,1.632,1.376,2.688,3.488,2.688a3.694,3.694,0,0,0,2.656-.9,2.557,2.557,0,0,0,.688-1.7c0-.064-.016-.176-.032-.32A9.677,9.677,0,0,1,86.336-.1Zm-5.12-.88s.032.384.032.544c0,.9-.528,1.344-1.616,1.344-.992,0-1.568-.384-1.568-1.04,0-.672.672-1.1,1.712-1.1A4.033,4.033,0,0,1,82.1-2.768Zm9.712-10.416a3.76,3.76,0,0,1-.048.544l-.24,1.984c-.128,1.1-.224,2.88-.224,4.176,0,.32.032,1.5.048,1.968v.3A1.244,1.244,0,0,1,91.328-4l1.92-.032v-.336a7.671,7.671,0,0,1,2.016-5.168,2.381,2.381,0,0,1,1.728-.848c1.376,0,2.144,1.28,2.144,3.584,0,2.432-.848,3.952-2.7,4.9a9.34,9.34,0,0,1-3.5.912A6.12,6.12,0,0,1,93.872.9,13.645,13.645,0,0,0,97.008,0a6.725,6.725,0,0,0,4.128-6.576,6.7,6.7,0,0,0-1.152-4.256,3.351,3.351,0,0,0-2.736-1.44,3.82,3.82,0,0,0-3.04,1.632,6.468,6.468,0,0,0-1.008,1.9,3.514,3.514,0,0,1-.1.352h-.048c.032-.384.1-.928.208-1.6a15.694,15.694,0,0,1,.576-3.088ZM118.544-1.7c-.224-.128-.3-.192-.576-.368a14.311,14.311,0,0,0-4.384-2.256c-.016-.384-.016-.384-.064-1.936.624-.032.864-.048,1.088-.064,1.2-.112,1.92-.192,2.16-.224.368-.048.768-.1,1.04-.112l-.048-1.76a11.841,11.841,0,0,1-1.984.352c-1.472.16-1.472.16-2.272.208-.016-.992-.016-1.184-.032-1.584,1.408-.08,2.032-.128,3.44-.32a10.008,10.008,0,0,1,1.264-.144l-.08-1.776a21.647,21.647,0,0,1-4.608.608,9.919,9.919,0,0,1,.112-1.952h-2.032a11.415,11.415,0,0,1,.08,2.016c-.4.016-.944.032-1.2.032a21.039,21.039,0,0,1-4.3-.336l-.016,1.776h.256c.048,0,.176,0,.352.016,1.072.08,3.136.16,3.92.16.24,0,.5,0,1.008-.016.016.912.016,1.456.016,1.6-.448.016-.992.032-1.312.032a20.632,20.632,0,0,1-3.728-.272l-.032,1.728c.24,0,.4,0,.608.016,1.328.1,1.92.112,2.9.112.336,0,.832-.016,1.6-.032.016.64.016.64.032.864v.352a3.083,3.083,0,0,1,.016.384,8.359,8.359,0,0,0-1.072-.064c-2.688,0-4.272,1.024-4.272,2.768,0,1.584,1.344,2.5,3.68,2.5a4.26,4.26,0,0,0,2.64-.688,2.5,2.5,0,0,0,.9-2.16v-.176a7.119,7.119,0,0,1,.864.4,10.8,10.8,0,0,1,2.96,2.192Zm-6.752-1.232v.384A2.028,2.028,0,0,1,111.6-1.52a1.661,1.661,0,0,1-1.392.512c-1.136,0-1.824-.368-1.824-.96,0-.688.784-1.1,2.08-1.1A5.616,5.616,0,0,1,111.792-2.928ZM130.48-8.512v-1.04c1.264-.032,1.552-.032,1.936-.032,1.328,0,2.1.032,2.688.08l-.016-1.84c-.592.064-1.84.1-4.624.112a12.581,12.581,0,0,1,.08-1.9l-2.016.016a8.681,8.681,0,0,1,.1,1.936c-.832.032-.832.032-1.36.048-1.312.032-1.472.032-2.512.064-2.064.08-2.32.08-2.72.08a6.968,6.968,0,0,1-.784-.032l.064,1.9c.432-.064.432-.064,2.848-.24.7-.048,2.208-.1,4.5-.16,0,.432,0,1.328.016,1.36a.659.659,0,0,0,.016.192,2.674,2.674,0,0,0-1.664-.48,2.945,2.945,0,0,0-3.184,2.912,2.5,2.5,0,0,0,1.1,2.16A2.949,2.949,0,0,0,126.8-2.8a2.636,2.636,0,0,0,2.352-1.136A3.368,3.368,0,0,1,127.3-1.6a7.551,7.551,0,0,1-2.72.928,5.251,5.251,0,0,1,1.136,1.808,11.185,11.185,0,0,0,2.9-1.312,5.134,5.134,0,0,0,2.384-4.32,4.869,4.869,0,0,0-.512-2.256c0-.192-.016-.32-.016-.384Zm-1.84,2.64a1.458,1.458,0,0,1-1.568,1.44,1.263,1.263,0,0,1-1.36-1.264,1.4,1.4,0,0,1,1.488-1.28C128.08-6.976,128.64-6.544,128.64-5.872Zm9.44,1.712a2.711,2.711,0,0,0-2.7,2.7,2.714,2.714,0,0,0,2.7,2.72,2.714,2.714,0,0,0,2.7-2.72A2.7,2.7,0,0,0,138.08-4.16Zm0,1.248a1.461,1.461,0,0,1,1.456,1.456A1.465,1.465,0,0,1,138.08.016a1.465,1.465,0,0,1-1.456-1.472A1.461,1.461,0,0,1,138.08-2.912Z" transform="translate(445.668 522.31)" fill="#1a1a1a"/>
    </g>
  </g>
</svg>
