<svg xmlns="http://www.w3.org/2000/svg" width="380.632" height="22.465" viewBox="0 0 380.632 22.465">
  <g id="グループ_7181" data-name="グループ 7181" transform="translate(-255.766 -538.28)">
    <path id="パス_46592" data-name="パス 46592" d="M-179.478-11.628a8.645,8.645,0,0,1-1.548-.09v1.944a10.632,10.632,0,0,1,1.728-.09h1.692v1.8h-1.368a10.075,10.075,0,0,1-1.638-.09v1.872a9.678,9.678,0,0,1,1.638-.09h1.368v2.016h-1.656a13.307,13.307,0,0,1-1.89-.09v1.962a13.337,13.337,0,0,1,1.872-.09h1.674V-.666a18.22,18.22,0,0,1-.108,2.142h2.178a19.214,19.214,0,0,1-.108-2.16v-1.89h2.376a13.435,13.435,0,0,1,1.836.108v-1.98a14.647,14.647,0,0,1-1.872.09h-2.34V-6.372h1.782a10.007,10.007,0,0,1,1.692.09V-8.154a9.859,9.859,0,0,1-1.71.09h-1.764v-1.8h2.142a10.978,10.978,0,0,1,1.782.09v-1.944a9.313,9.313,0,0,1-1.62.09h-.792a31.349,31.349,0,0,0,1.512-2.808l-1.944-.7a18.873,18.873,0,0,1-1.566,3.51Zm-7.848-1.224a11.774,11.774,0,0,1,1.512-.072h2.538a11.6,11.6,0,0,1,1.512.072v-1.8a8.691,8.691,0,0,1-1.512.09h-2.538a8.69,8.69,0,0,1-1.512-.09Zm-.576,2.61a10.758,10.758,0,0,1,1.44-.072h3.69a11.556,11.556,0,0,1,1.368.054V-12.1a9.469,9.469,0,0,1-1.44.072h-3.618a7.929,7.929,0,0,1-1.44-.09Zm.648,2.556a7.506,7.506,0,0,1,1.188-.054h3.168a7.14,7.14,0,0,1,1.152.054V-9.324a6.689,6.689,0,0,1-1.152.054h-3.168a10.121,10.121,0,0,1-1.188-.054Zm0,2.5a7.264,7.264,0,0,1,1.17-.054h3.15a10.335,10.335,0,0,1,1.188.054V-6.822a6.69,6.69,0,0,1-1.152.054h-3.168a10.121,10.121,0,0,1-1.188-.054Zm1.71,6.732V.7h2.07v.612h1.782a11.241,11.241,0,0,1-.072-1.4v-2.9a11.381,11.381,0,0,1,.054-1.3,6.727,6.727,0,0,1-1.224.054h-3.1a11.13,11.13,0,0,1-1.386-.072,9,9,0,0,1,.09,1.422V-.2a13.372,13.372,0,0,1-.108,1.746Zm-.054-4.23h2.124v1.8H-185.6Zm8.334-9.774a14.053,14.053,0,0,0-1.422-2.664l-1.656.774a12.893,12.893,0,0,1,1.35,2.682Zm10.206-1.926a8.952,8.952,0,0,1,.072,1.224c0,.252,0,.63-.018,1.17-.108,4.518-.144,6.318-.144,7.254,0,2.412.522,3.8,1.764,4.626a5.868,5.868,0,0,0,3.15.792,6.813,6.813,0,0,0,5.4-2.286c.882-.99,1.422-2.16,2.142-4.59a7.774,7.774,0,0,1-2.178-1.386,12.067,12.067,0,0,1-.828,3.024,4.631,4.631,0,0,1-4.356,3.078,2.85,2.85,0,0,1-2.412-.936c-.36-.54-.468-1.188-.468-2.9,0-1.278.108-4.932.18-6.606a16.455,16.455,0,0,1,.216-2.43Zm25.4-.558a8.923,8.923,0,0,1-1.314,1.494,40.343,40.343,0,0,1-4.158,3.51,11.039,11.039,0,0,0-1.584,1.3,2.1,2.1,0,0,0-.594,1.458c0,.828.324,1.314,1.512,2.232a57.093,57.093,0,0,1,4.644,3.834,17.387,17.387,0,0,1,2.34,2.466l1.854-1.872a4.487,4.487,0,0,1-.522-.45,60.5,60.5,0,0,0-5.67-4.7c-1.584-1.188-1.62-1.224-1.62-1.494,0-.2.126-.342.684-.756,2.106-1.6,3.366-2.61,4.284-3.456a27.46,27.46,0,0,1,2.214-1.98Zm13.374,5.886a.317.317,0,0,1,.108-.018.827.827,0,0,1,.18.018,2.68,2.68,0,0,1,.306.018c.09,0,.288.018.54.018.846.072,1.566.09,2.232.09.468,0,.9-.018,1.62-.036.072,2.5.09,3.384.144,3.834a4.278,4.278,0,0,0-1.6-.252c-2.178,0-3.708,1.224-3.708,2.97,0,1.836,1.44,2.952,3.8,2.952,1.746,0,3.006-.63,3.42-1.692A3.149,3.149,0,0,0-121.1-2.16v-.252c.108.072.522.342,1.134.738a6.744,6.744,0,0,1,1.35,1.152l.864-2.178a3.424,3.424,0,0,1-.5-.306,14.351,14.351,0,0,0-2.826-1.638c-.18-3.024-.18-3.06-.18-4.068v-.4c.954-.108,1.89-.27,2.5-.4a3.11,3.11,0,0,1,.522-.09l-.072-2.034-.144.036c-.288.108-.288.108-.4.144a18.1,18.1,0,0,1-2.43.432v-.828a17.611,17.611,0,0,1,.126-2.646l-2.25.054a5.035,5.035,0,0,1,.054.864c0,.738.018,1.638.018,2.7-.63.036-1.026.036-1.656.036a12.972,12.972,0,0,1-3.258-.288Zm5.166,5.76v.486a1.511,1.511,0,0,1-.234.972,1.769,1.769,0,0,1-1.458.558c-1.008,0-1.656-.45-1.656-1.116,0-.738.72-1.188,1.872-1.188A3.768,3.768,0,0,1-123.12-3.294ZM-130.158.54a3.526,3.526,0,0,1-.036-.486,15.018,15.018,0,0,1,1.782-5.508l-1.494-.666a3.431,3.431,0,0,1-.216.558c-.18.432-.18.432-.342.81-.09.288-.18.486-.216.612-.126.324-.126.324-.216.522h-.018A3.063,3.063,0,0,0-130.9-4v-.288c0-.288,0-.288.018-.936.018-3.132.7-7.47,1.44-9.036l-2.43-.252v.072a9.663,9.663,0,0,1-.2,1.332c-.4,2.034-.4,2.034-.486,2.574a32.174,32.174,0,0,0-.342,4.77,34.134,34.134,0,0,0,.486,5.724,6.573,6.573,0,0,1,.09.7ZM-112.9-11.43a5.4,5.4,0,0,1,.666.054,28.382,28.382,0,0,0,3.294.216,19.187,19.187,0,0,0,2.7-.144c-.828.468-1.71,1.008-2.646,1.6l1.566,1.242a33.093,33.093,0,0,1,4.806-2.988l-.072-2.016a22.323,22.323,0,0,1-4.752.342,23.608,23.608,0,0,1-5.4-.45Zm1.332,4.068c-1.62,1.35-2.322,2.538-2.322,3.906a3.093,3.093,0,0,0,2.3,3.006,12.876,12.876,0,0,0,4.5.594,30.8,30.8,0,0,0,4.86-.4,7.157,7.157,0,0,1,.792-.072l-.2-2.466a19.2,19.2,0,0,1-5.652.756c-3.042,0-4.356-.5-4.356-1.674,0-.774.5-1.53,1.638-2.466Zm14.67-2.754h.144c.144,0,.324,0,.576.018.954.072,1.764.108,2.718.126a40.755,40.755,0,0,1-1.512,4,12.1,12.1,0,0,1-.846,1.62l2.178.756a3.052,3.052,0,0,1,1.314-1.044,9.1,9.1,0,0,1,3.87-.882c1.944,0,3.024.612,3.024,1.728,0,1.44-1.692,2.358-4.3,2.358A13.7,13.7,0,0,1-94.374-2.3a10.245,10.245,0,0,1,.18,2.286,16.444,16.444,0,0,0,4.59.63c3.942,0,6.516-1.728,6.516-4.392,0-2.286-1.89-3.654-5.058-3.654a8.372,8.372,0,0,0-4.536,1.17V-6.3A23.935,23.935,0,0,0-91.26-9.954c2.25-.054,3.834-.18,6.444-.468.468-.054.63-.072,1.044-.09l-.108-2.178a12.279,12.279,0,0,1-2.3.414c-1.188.144-3.222.288-4.59.324.108-.342.108-.342.432-1.692a10.058,10.058,0,0,1,.288-1.044l-2.412-.2a15.444,15.444,0,0,1-.5,2.97,16.557,16.557,0,0,1-3.888-.306Zm21.33-2.754a32.58,32.58,0,0,0,7.02,2.25l.738-2.07a27,27,0,0,1-6.714-2ZM-77-11.286a7.344,7.344,0,0,1-.108,1.044c-.324,2.124-.612,4.122-.756,5.238-.09.684-.09.756-.144,1.08l2.268.072a3.918,3.918,0,0,1,.81-.774A8.192,8.192,0,0,1-70.452-5.94c1.908,0,3.042.72,3.042,1.926,0,1.53-1.764,2.592-4.3,2.592a14.531,14.531,0,0,1-4.842-.9A7.988,7.988,0,0,1-76.284,0a16.551,16.551,0,0,0,4.59.63A7.776,7.776,0,0,0-66.942-.594a4.383,4.383,0,0,0,1.854-3.474c0-2.3-2.016-3.816-5.076-3.816a8.531,8.531,0,0,0-5.454,1.71l-.036-.036c.054-.27.054-.27.09-.522a38.089,38.089,0,0,1,.81-4.428Zm24.678-.252a3.934,3.934,0,0,1,1.818.54,4.459,4.459,0,0,1,2.214,4,5.04,5.04,0,0,1-2.5,4.5,9.566,9.566,0,0,1-3.582.99A5.742,5.742,0,0,1-53.28.594a11.768,11.768,0,0,0,2.826-.756A6.934,6.934,0,0,0-46.08-6.876c0-4.05-2.808-6.678-7.128-6.678a8.08,8.08,0,0,0-6.192,2.52A7.732,7.732,0,0,0-61.38-5.8c0,2.9,1.476,4.986,3.528,4.986,1.476,0,2.628-1.062,3.654-3.384A26.04,26.04,0,0,0-52.326-11.538Zm-2.2.018a23.723,23.723,0,0,1-1.494,6.084c-.648,1.548-1.26,2.3-1.854,2.3-.792,0-1.422-1.17-1.422-2.646a6.027,6.027,0,0,1,2.448-4.86A4.582,4.582,0,0,1-54.522-11.52Zm12.006,7.974c.252-.324.324-.414.612-.756.972-1.152,2.484-3.024,3.222-4.014s.81-1.044,1.1-1.044c.306,0,.306,0,1.458,1.26A94.909,94.909,0,0,0-28.512-.486l1.134-2.466a12.9,12.9,0,0,1-1.71-1.368,59.724,59.724,0,0,1-5.832-5.742C-36.288-11.61-36.7-11.9-37.6-11.9a2.289,2.289,0,0,0-1.224.342,6.093,6.093,0,0,0-1.35,1.422c-2.412,3.024-3.348,4.086-3.87,4.374Zm11.79-9.828A2.082,2.082,0,0,0-32.8-11.3a2.086,2.086,0,0,0,2.07,2.088A2.089,2.089,0,0,0-28.638-11.3,2.086,2.086,0,0,0-30.726-13.374Zm0,.9a1.172,1.172,0,0,1,1.188,1.17,1.187,1.187,0,0,1-1.188,1.188A1.183,1.183,0,0,1-31.9-11.3,1.168,1.168,0,0,1-30.726-12.474Zm4.734,6.822a19.76,19.76,0,0,1,2.934-.09H-13.5a19.76,19.76,0,0,1,2.934.09v-2.5a17.677,17.677,0,0,1-2.916.126h-9.594a17.677,17.677,0,0,1-2.916-.126Zm19.836-6.66A21.792,21.792,0,0,1-1.35-9.846L-.2-11.826a29.642,29.642,0,0,0-4.788-2.322ZM-7.578-7.938A20.893,20.893,0,0,1-2.7-5.31l1.116-2.034A28.41,28.41,0,0,0-6.372-9.792Zm10.692-5.94A12.149,12.149,0,0,1,5-11.2l1.26-.666a11.665,11.665,0,0,0-1.89-2.646ZM-6.552.738A10.628,10.628,0,0,1-5.292.432C1.152-.828,4.95-3.78,7.182-9.234a8.752,8.752,0,0,1-1.872-1.6A12.38,12.38,0,0,1-1.98-2.9a15.991,15.991,0,0,1-5.2,1.17ZM8.406-13.032A10.409,10.409,0,0,0,6.534-15.57l-1.206.63a13.262,13.262,0,0,1,1.836,2.61Zm2.3,2.142A1.989,1.989,0,0,1,11-10.908c.162,0,.162,0,.5.018.4,0,1.98.036,2.268.036,0,0,.234-.018.306-.018a.881.881,0,0,0-.144.234,23.84,23.84,0,0,1-2.16,3.078,11.027,11.027,0,0,1-1.62,1.6l1.638,1.62a8.093,8.093,0,0,1,1.566-1.638,6.085,6.085,0,0,1,3.69-1.854.988.988,0,0,1,1.1.972,8.805,8.805,0,0,0-3.87,2.538,2.868,2.868,0,0,0-.792,2A2.61,2.61,0,0,0,14.8,0,7.731,7.731,0,0,0,18.81.756,32.648,32.648,0,0,0,23.418.432,5.3,5.3,0,0,1,24.246.36l-.18-2.322a15.639,15.639,0,0,1-5.292.756c-2.178,0-3.042-.378-3.042-1.314A1.9,1.9,0,0,1,16.668-4,10.94,10.94,0,0,1,18.4-4.932V-4.5a14.25,14.25,0,0,1-.108,2.088l2.088-.054a7.39,7.39,0,0,1-.054-.954c0-.126,0-.288.018-.594v-.72c0-.252,0-.252-.018-.72v-.2q2.322-.81,2.7-.918a15.889,15.889,0,0,1,2-.486l-.846-2.07a5.624,5.624,0,0,1-1.332.54q-.675.216-2.754.972a2.368,2.368,0,0,0-2.574-1.908,4.351,4.351,0,0,0-2.538.81c-.234.18-.234.18-.36.27L14.6-8.478a9.315,9.315,0,0,0,1.656-2.394c1.818-.054,4.1-.2,5.418-.36.918-.108.918-.108,1.422-.144l-.126-2.052a24.317,24.317,0,0,1-4.716.612c-.99.054-.99.054-1.134.072.036-.072.072-.126.162-.324a13.752,13.752,0,0,1,.72-1.62l-2.358-.252a7.129,7.129,0,0,1-.72,2.232,21.752,21.752,0,0,1-4.176-.234Zm19.6-.522c.126,0,.216.018.252.018.072,0,.2.018.414.036a28.382,28.382,0,0,0,3.294.216,19.188,19.188,0,0,0,2.7-.144,3.257,3.257,0,0,1-.4.216c-.234.144-.288.18-.468.288-.45.252-.648.378-1.782,1.1l1.566,1.242a32.6,32.6,0,0,1,4.806-2.97l-.072-2.034a22.323,22.323,0,0,1-4.752.342,23.608,23.608,0,0,1-5.4-.45Zm1.332,4.068c-1.62,1.35-2.322,2.538-2.322,3.924a3.108,3.108,0,0,0,2.3,3.006,12.876,12.876,0,0,0,4.5.594,29.046,29.046,0,0,0,4.86-.414,7.556,7.556,0,0,1,.792-.072l-.2-2.466A18.537,18.537,0,0,1,35.928-2c-3.042,0-4.356-.5-4.356-1.674,0-.774.5-1.53,1.638-2.484ZM44.01-8.082a10.409,10.409,0,0,0-1.872-2.538l-1.206.63a13.262,13.262,0,0,1,1.836,2.61Zm-5.292-.846a12.149,12.149,0,0,1,1.89,2.682l1.26-.666a11.665,11.665,0,0,0-1.89-2.646ZM51.21-6.39a7.457,7.457,0,0,1,.666,1.17,6.33,6.33,0,0,0,.81-.99c0,.126-.018.54-.036,1.242v4.5a14.845,14.845,0,0,1-.108,2.016H54.45V.738h5.616a13.7,13.7,0,0,1,1.728.108V-.972a10.271,10.271,0,0,1-1.692.09H58.338V-2.2h1.35a12.2,12.2,0,0,1,1.494.072v-1.62a10.268,10.268,0,0,1-1.512.072H58.338V-4.986h1.35a12.587,12.587,0,0,1,1.494.072v-1.62a10.112,10.112,0,0,1-1.512.072H58.338v-1.3h1.674a12.44,12.44,0,0,1,1.44.072V-9.414a10.3,10.3,0,0,1-1.494.072h-1.3a10.4,10.4,0,0,0,.684-1.584L57.582-11.3a9.278,9.278,0,0,1-.738,1.962H55.116a16.436,16.436,0,0,0,1.26-2.52H59.94v1.746h1.89a10.887,10.887,0,0,1-.054-1.17V-12.33a11.9,11.9,0,0,1,.054-1.332,10.026,10.026,0,0,1-1.584.09H56.97c.27-.882.432-1.386.468-1.512L55.4-15.336c-.108.612-.18,1.008-.378,1.764H52.9a7.932,7.932,0,0,1-1.314-.054,5.9,5.9,0,0,1,.054.9v1.53a8.17,8.17,0,0,1-.072,1.17h1.782v-1.836h1.08A12.317,12.317,0,0,1,51.21-7.128v-.4c0-.54.018-.954.054-1.332a9.72,9.72,0,0,1-1.1.054H48.4a20.364,20.364,0,0,0,1.08-3.96h.7a7.02,7.02,0,0,1,1.062.072v-1.926a11.8,11.8,0,0,1-1.728.108H47.412a11.973,11.973,0,0,1-1.728-.108v1.944a9.717,9.717,0,0,1,1.53-.09h.4a12.908,12.908,0,0,1-.576,2.574,10.755,10.755,0,0,1-2,3.78,7.6,7.6,0,0,1,.684,2.232,5.48,5.48,0,0,0,.972-1.638c-.036.486-.054,1.026-.054,1.386V-.72a13.717,13.717,0,0,1-.108,1.854h1.8V-.558h1.278V.234h1.656a12.138,12.138,0,0,1-.054-1.386Zm3.222-.072v-1.3H56.61v1.3Zm0,1.476H56.61v1.314H54.432Zm0,2.79H56.61V-.882H54.432Zm-6.1-4.878h1.278V-2.3H48.33Zm21.852-3.564c1.026.36,1.368.5,2.124.828a6.435,6.435,0,0,1-3.024,2.484,6,6,0,0,1,1.26,1.44,8.843,8.843,0,0,0,3.312-3.132,9.455,9.455,0,0,1,1.008.612l-.108-.036a6.772,6.772,0,0,1,.45,1.8,12.332,12.332,0,0,0,1.422.072c1.476,0,1.98-.378,2.3-1.8a29.313,29.313,0,0,0,.486-4.5c.072-1.26.072-1.278.108-1.566a14.033,14.033,0,0,1-1.692.072H72.108a15.281,15.281,0,0,1-1.962-.108v1.908a13.253,13.253,0,0,1,1.926-.09H73.26a6.535,6.535,0,0,1-.288,1.458c-.684-.27-1.044-.414-2.052-.738Zm7.344-2.016a18.3,18.3,0,0,1-.36,3.618c-.162.63-.342.774-.9.774a6.413,6.413,0,0,1-.99-.072l.792-1.332c-.756-.414-.99-.54-1.512-.81a9.483,9.483,0,0,0,.5-2.178ZM69.318-.54l1.458.864a16.516,16.516,0,0,0,1.206-4.932L70.434-4.95A9.741,9.741,0,0,1,69.318-.792v-2.25a10.148,10.148,0,0,1,.054-1.3,9.015,9.015,0,0,1-1.224.054H65.52a9.856,9.856,0,0,1-1.4-.072,12.127,12.127,0,0,1,.072,1.422V-.27c0,.576-.036,1.17-.09,1.764h1.8V.612H67.68v.63h1.71a8.529,8.529,0,0,1-.072-1.386ZM65.844-2.772H67.68v1.8H65.844ZM64.1-12.816a11.227,11.227,0,0,1,1.458-.072H67.95a11.588,11.588,0,0,1,1.458.072v-1.8a8.147,8.147,0,0,1-1.458.09H65.556a8.025,8.025,0,0,1-1.458-.09Zm-.594,2.61a11.287,11.287,0,0,1,1.44-.072h3.528a13.121,13.121,0,0,1,1.368.054V-12.06a9.17,9.17,0,0,1-1.44.072H64.944a7.692,7.692,0,0,1-1.44-.09Zm.648,2.484a8.918,8.918,0,0,1,1.134-.054h2.97a9.72,9.72,0,0,1,1.1.054V-9.4a7.572,7.572,0,0,1-1.1.054h-2.97A9.116,9.116,0,0,1,64.152-9.4Zm0,2.52a9.616,9.616,0,0,1,1.116-.054H68.22a9.116,9.116,0,0,1,1.134.054V-6.876a7.7,7.7,0,0,1-1.116.054H65.286a9.116,9.116,0,0,1-1.134-.054Zm9.9,1.17a5.137,5.137,0,0,1,.09-1.152H72.216a11.289,11.289,0,0,1,.09,1.332V-.144c0,1.116.45,1.332,2.664,1.332,2.592,0,2.916-.342,3.114-3.438a6.318,6.318,0,0,1-1.674-.558,7.138,7.138,0,0,1-.2,1.962c-.126.27-.36.324-1.386.324-.684,0-.774-.054-.774-.468Zm3.078-.306A13.772,13.772,0,0,1,79.038.018l1.53-.936a21.625,21.625,0,0,0-1.98-4.194ZM72.936-6.372a10.94,10.94,0,0,1,2.718,2.664L77-4.878a15.3,15.3,0,0,0-2.79-2.5ZM91.8-14.94a8.923,8.923,0,0,1-1.314,1.494,40.344,40.344,0,0,1-4.158,3.51,11.038,11.038,0,0,0-1.584,1.3,2.1,2.1,0,0,0-.594,1.458c0,.828.324,1.314,1.512,2.232a57.09,57.09,0,0,1,4.644,3.834,17.387,17.387,0,0,1,2.34,2.466L94.5-.522a4.488,4.488,0,0,1-.522-.45,60.5,60.5,0,0,0-5.67-4.7c-1.584-1.188-1.62-1.224-1.62-1.494,0-.2.126-.342.684-.756,2.106-1.6,3.366-2.61,4.284-3.456a27.459,27.459,0,0,1,2.214-1.98ZM100.26-9.7a2.688,2.688,0,0,1,.342-.018c.144,0,.468,0,.72.018H102.6l.4.018h.18A38.815,38.815,0,0,1,99.954-.036l2.268.882a59.865,59.865,0,0,0,3.132-10.6,24.465,24.465,0,0,0,2.952-.378l.414-.072a.791.791,0,0,0,.162-.018l-.09-2.07a16.411,16.411,0,0,1-3.078.54c.054-.324.09-.468.108-.558.054-.324.09-.576.126-.792a12.2,12.2,0,0,1,.288-1.4l-2.376-.216a2.442,2.442,0,0,1,.018.324,21.847,21.847,0,0,1-.342,2.754c-.414.018-.612.018-.828.018a14.321,14.321,0,0,1-2.412-.162Zm10.08-3.906a12.149,12.149,0,0,1,1.89,2.682l1.26-.666a11.665,11.665,0,0,0-1.89-2.646Zm4.194,4.284c-.828-.018-1.242-.018-1.782-.018a23.005,23.005,0,0,0-5.364.576l.162,2a18.611,18.611,0,0,1,4.752-.54,18.738,18.738,0,0,1,2.268.126Zm-7.092,3.78a5.156,5.156,0,0,0-1.332,3.132A2.6,2.6,0,0,0,107.388-.2a7.309,7.309,0,0,0,3.618.72,19.29,19.29,0,0,0,3.348-.306c.468-.072.558-.09.882-.126l-.162-2.2a13.776,13.776,0,0,1-4.086.666c-1.8,0-2.7-.468-2.7-1.386,0-.648.216-1.08.936-2Zm8.19-7.218A10.41,10.41,0,0,0,113.76-15.3l-1.206.63a13.262,13.262,0,0,1,1.836,2.61Zm3.474,3.51a6.764,6.764,0,0,1,.792-.054,62.727,62.727,0,0,0,6.39-.432,19.905,19.905,0,0,0,1.944,3.276A8.362,8.362,0,0,0,125.118-7a6.881,6.881,0,0,0-4.59,1.3,3.5,3.5,0,0,0-1.3,2.682,3.358,3.358,0,0,0,1.062,2.43c.918.882,2.7,1.368,5,1.368A18.582,18.582,0,0,0,131-.2l-.288-2.3A12.506,12.506,0,0,1,125.3-1.3c-2.448,0-3.78-.648-3.78-1.818,0-1.278,1.44-2.016,3.888-2.016a9.021,9.021,0,0,1,2.844.414,3.18,3.18,0,0,1,1.242.774L131.58-4.9c-.63-.846-1.422-2.016-1.908-2.844-.18-.324-.594-1.08-1.242-2.286q2.241-.432,2.646-.54c.612-.126.81-.18,1.278-.252L132.1-12.96a27.388,27.388,0,0,1-4.41,1.062,15.081,15.081,0,0,1-.99-2.88l-2.322.306c.09.144.864,2.052,1.17,2.844-1.116.144-3.51.306-4.86.306a12.34,12.34,0,0,1-1.746-.09Zm17.55-3.978a8.6,8.6,0,0,1,.072,1.152c.072,4.986.4,7.6,1.134,9.4.72,1.728,1.692,2.61,2.9,2.61,1.53,0,2.574-1.458,3.51-4.968a8.885,8.885,0,0,1-1.8-1.638,13.27,13.27,0,0,1-.954,3.258c-.216.5-.468.774-.738.774-.576,0-1.152-1.152-1.458-3.024a33.685,33.685,0,0,1-.342-4.824,20.926,20.926,0,0,1,.144-2.736Zm9.09,1.71A15.712,15.712,0,0,1,148.3-7.092a18.248,18.248,0,0,1,1.152,5.2l2.232-.846a17.946,17.946,0,0,0-4.05-9.684ZM156.51-4.68a3.05,3.05,0,0,0-3.042,3.042,3.054,3.054,0,0,0,3.042,3.06,3.054,3.054,0,0,0,3.042-3.06A3.038,3.038,0,0,0,156.51-4.68Zm0,1.4a1.644,1.644,0,0,1,1.638,1.638A1.648,1.648,0,0,1,156.51.018a1.648,1.648,0,0,1-1.638-1.656A1.644,1.644,0,0,1,156.51-3.276Zm26.334-3.546L173.7-1.674,174.8.108,186.732-6.84,174.8-13.788l-1.116,1.764ZM-174.536,1h32.454V2h-32.454Zm35.069,0h185V2h-185ZM55.45,1H63.1V2H55.45ZM78.562,1H91.378V2H78.562ZM93.993,1h59.843V2H93.993Zm65.191,0H188.73V2H159.184Z" transform="translate(445.668 556.31)" fill="#db2d21" stroke="#fff" stroke-width="4"/>
    <g id="グループ_7170" data-name="グループ 7170" transform="translate(-361.332 -1070.69)">
      <path id="パス_46591" data-name="パス 46591" d="M-179.478-11.628a8.645,8.645,0,0,1-1.548-.09v1.944a10.632,10.632,0,0,1,1.728-.09h1.692v1.8h-1.368a10.075,10.075,0,0,1-1.638-.09v1.872a9.678,9.678,0,0,1,1.638-.09h1.368v2.016h-1.656a13.307,13.307,0,0,1-1.89-.09v1.962a13.337,13.337,0,0,1,1.872-.09h1.674V-.666a18.22,18.22,0,0,1-.108,2.142h2.178a19.214,19.214,0,0,1-.108-2.16v-1.89h2.376a13.435,13.435,0,0,1,1.836.108v-1.98a14.647,14.647,0,0,1-1.872.09h-2.34V-6.372h1.782a10.007,10.007,0,0,1,1.692.09V-8.154a9.859,9.859,0,0,1-1.71.09h-1.764v-1.8h2.142a10.978,10.978,0,0,1,1.782.09v-1.944a9.313,9.313,0,0,1-1.62.09h-.792a31.349,31.349,0,0,0,1.512-2.808l-1.944-.7a18.873,18.873,0,0,1-1.566,3.51Zm-7.848-1.224a11.774,11.774,0,0,1,1.512-.072h2.538a11.6,11.6,0,0,1,1.512.072v-1.8a8.691,8.691,0,0,1-1.512.09h-2.538a8.69,8.69,0,0,1-1.512-.09Zm-.576,2.61a10.758,10.758,0,0,1,1.44-.072h3.69a11.556,11.556,0,0,1,1.368.054V-12.1a9.469,9.469,0,0,1-1.44.072h-3.618a7.929,7.929,0,0,1-1.44-.09Zm.648,2.556a7.506,7.506,0,0,1,1.188-.054h3.168a7.14,7.14,0,0,1,1.152.054V-9.324a6.689,6.689,0,0,1-1.152.054h-3.168a10.121,10.121,0,0,1-1.188-.054Zm0,2.5a7.264,7.264,0,0,1,1.17-.054h3.15a10.335,10.335,0,0,1,1.188.054V-6.822a6.69,6.69,0,0,1-1.152.054h-3.168a10.121,10.121,0,0,1-1.188-.054Zm1.71,6.732V.7h2.07v.612h1.782a11.241,11.241,0,0,1-.072-1.4v-2.9a11.381,11.381,0,0,1,.054-1.3,6.727,6.727,0,0,1-1.224.054h-3.1a11.13,11.13,0,0,1-1.386-.072,9,9,0,0,1,.09,1.422V-.2a13.372,13.372,0,0,1-.108,1.746Zm-.054-4.23h2.124v1.8H-185.6Zm8.334-9.774a14.053,14.053,0,0,0-1.422-2.664l-1.656.774a12.893,12.893,0,0,1,1.35,2.682Zm10.206-1.926a8.952,8.952,0,0,1,.072,1.224c0,.252,0,.63-.018,1.17-.108,4.518-.144,6.318-.144,7.254,0,2.412.522,3.8,1.764,4.626a5.868,5.868,0,0,0,3.15.792,6.813,6.813,0,0,0,5.4-2.286c.882-.99,1.422-2.16,2.142-4.59a7.774,7.774,0,0,1-2.178-1.386,12.067,12.067,0,0,1-.828,3.024,4.631,4.631,0,0,1-4.356,3.078,2.85,2.85,0,0,1-2.412-.936c-.36-.54-.468-1.188-.468-2.9,0-1.278.108-4.932.18-6.606a16.455,16.455,0,0,1,.216-2.43Zm25.4-.558a8.923,8.923,0,0,1-1.314,1.494,40.343,40.343,0,0,1-4.158,3.51,11.039,11.039,0,0,0-1.584,1.3,2.1,2.1,0,0,0-.594,1.458c0,.828.324,1.314,1.512,2.232a57.093,57.093,0,0,1,4.644,3.834,17.387,17.387,0,0,1,2.34,2.466l1.854-1.872a4.487,4.487,0,0,1-.522-.45,60.5,60.5,0,0,0-5.67-4.7c-1.584-1.188-1.62-1.224-1.62-1.494,0-.2.126-.342.684-.756,2.106-1.6,3.366-2.61,4.284-3.456a27.46,27.46,0,0,1,2.214-1.98Zm13.374,5.886a.317.317,0,0,1,.108-.018.827.827,0,0,1,.18.018,2.68,2.68,0,0,1,.306.018c.09,0,.288.018.54.018.846.072,1.566.09,2.232.09.468,0,.9-.018,1.62-.036.072,2.5.09,3.384.144,3.834a4.278,4.278,0,0,0-1.6-.252c-2.178,0-3.708,1.224-3.708,2.97,0,1.836,1.44,2.952,3.8,2.952,1.746,0,3.006-.63,3.42-1.692A3.149,3.149,0,0,0-121.1-2.16v-.252c.108.072.522.342,1.134.738a6.744,6.744,0,0,1,1.35,1.152l.864-2.178a3.424,3.424,0,0,1-.5-.306,14.351,14.351,0,0,0-2.826-1.638c-.18-3.024-.18-3.06-.18-4.068v-.4c.954-.108,1.89-.27,2.5-.4a3.11,3.11,0,0,1,.522-.09l-.072-2.034-.144.036c-.288.108-.288.108-.4.144a18.1,18.1,0,0,1-2.43.432v-.828a17.611,17.611,0,0,1,.126-2.646l-2.25.054a5.035,5.035,0,0,1,.054.864c0,.738.018,1.638.018,2.7-.63.036-1.026.036-1.656.036a12.972,12.972,0,0,1-3.258-.288Zm5.166,5.76v.486a1.511,1.511,0,0,1-.234.972,1.769,1.769,0,0,1-1.458.558c-1.008,0-1.656-.45-1.656-1.116,0-.738.72-1.188,1.872-1.188A3.768,3.768,0,0,1-123.12-3.294ZM-130.158.54a3.526,3.526,0,0,1-.036-.486,15.018,15.018,0,0,1,1.782-5.508l-1.494-.666a3.431,3.431,0,0,1-.216.558c-.18.432-.18.432-.342.81-.09.288-.18.486-.216.612-.126.324-.126.324-.216.522h-.018A3.063,3.063,0,0,0-130.9-4v-.288c0-.288,0-.288.018-.936.018-3.132.7-7.47,1.44-9.036l-2.43-.252v.072a9.663,9.663,0,0,1-.2,1.332c-.4,2.034-.4,2.034-.486,2.574a32.174,32.174,0,0,0-.342,4.77,34.134,34.134,0,0,0,.486,5.724,6.573,6.573,0,0,1,.09.7ZM-112.9-11.43a5.4,5.4,0,0,1,.666.054,28.382,28.382,0,0,0,3.294.216,19.187,19.187,0,0,0,2.7-.144c-.828.468-1.71,1.008-2.646,1.6l1.566,1.242a33.093,33.093,0,0,1,4.806-2.988l-.072-2.016a22.323,22.323,0,0,1-4.752.342,23.608,23.608,0,0,1-5.4-.45Zm1.332,4.068c-1.62,1.35-2.322,2.538-2.322,3.906a3.093,3.093,0,0,0,2.3,3.006,12.876,12.876,0,0,0,4.5.594,30.8,30.8,0,0,0,4.86-.4,7.157,7.157,0,0,1,.792-.072l-.2-2.466a19.2,19.2,0,0,1-5.652.756c-3.042,0-4.356-.5-4.356-1.674,0-.774.5-1.53,1.638-2.466Zm14.67-2.754h.144c.144,0,.324,0,.576.018.954.072,1.764.108,2.718.126a40.755,40.755,0,0,1-1.512,4,12.1,12.1,0,0,1-.846,1.62l2.178.756a3.052,3.052,0,0,1,1.314-1.044,9.1,9.1,0,0,1,3.87-.882c1.944,0,3.024.612,3.024,1.728,0,1.44-1.692,2.358-4.3,2.358A13.7,13.7,0,0,1-94.374-2.3a10.245,10.245,0,0,1,.18,2.286,16.444,16.444,0,0,0,4.59.63c3.942,0,6.516-1.728,6.516-4.392,0-2.286-1.89-3.654-5.058-3.654a8.372,8.372,0,0,0-4.536,1.17V-6.3A23.935,23.935,0,0,0-91.26-9.954c2.25-.054,3.834-.18,6.444-.468.468-.054.63-.072,1.044-.09l-.108-2.178a12.279,12.279,0,0,1-2.3.414c-1.188.144-3.222.288-4.59.324.108-.342.108-.342.432-1.692a10.058,10.058,0,0,1,.288-1.044l-2.412-.2a15.444,15.444,0,0,1-.5,2.97,16.557,16.557,0,0,1-3.888-.306Zm21.33-2.754a32.58,32.58,0,0,0,7.02,2.25l.738-2.07a27,27,0,0,1-6.714-2ZM-77-11.286a7.344,7.344,0,0,1-.108,1.044c-.324,2.124-.612,4.122-.756,5.238-.09.684-.09.756-.144,1.08l2.268.072a3.918,3.918,0,0,1,.81-.774A8.192,8.192,0,0,1-70.452-5.94c1.908,0,3.042.72,3.042,1.926,0,1.53-1.764,2.592-4.3,2.592a14.531,14.531,0,0,1-4.842-.9A7.988,7.988,0,0,1-76.284,0a16.551,16.551,0,0,0,4.59.63A7.776,7.776,0,0,0-66.942-.594a4.383,4.383,0,0,0,1.854-3.474c0-2.3-2.016-3.816-5.076-3.816a8.531,8.531,0,0,0-5.454,1.71l-.036-.036c.054-.27.054-.27.09-.522a38.089,38.089,0,0,1,.81-4.428Zm24.678-.252a3.934,3.934,0,0,1,1.818.54,4.459,4.459,0,0,1,2.214,4,5.04,5.04,0,0,1-2.5,4.5,9.566,9.566,0,0,1-3.582.99A5.742,5.742,0,0,1-53.28.594a11.768,11.768,0,0,0,2.826-.756A6.934,6.934,0,0,0-46.08-6.876c0-4.05-2.808-6.678-7.128-6.678a8.08,8.08,0,0,0-6.192,2.52A7.732,7.732,0,0,0-61.38-5.8c0,2.9,1.476,4.986,3.528,4.986,1.476,0,2.628-1.062,3.654-3.384A26.04,26.04,0,0,0-52.326-11.538Zm-2.2.018a23.723,23.723,0,0,1-1.494,6.084c-.648,1.548-1.26,2.3-1.854,2.3-.792,0-1.422-1.17-1.422-2.646a6.027,6.027,0,0,1,2.448-4.86A4.582,4.582,0,0,1-54.522-11.52Zm12.006,7.974c.252-.324.324-.414.612-.756.972-1.152,2.484-3.024,3.222-4.014s.81-1.044,1.1-1.044c.306,0,.306,0,1.458,1.26A94.909,94.909,0,0,0-28.512-.486l1.134-2.466a12.9,12.9,0,0,1-1.71-1.368,59.724,59.724,0,0,1-5.832-5.742C-36.288-11.61-36.7-11.9-37.6-11.9a2.289,2.289,0,0,0-1.224.342,6.093,6.093,0,0,0-1.35,1.422c-2.412,3.024-3.348,4.086-3.87,4.374Zm11.79-9.828A2.082,2.082,0,0,0-32.8-11.3a2.086,2.086,0,0,0,2.07,2.088A2.089,2.089,0,0,0-28.638-11.3,2.086,2.086,0,0,0-30.726-13.374Zm0,.9a1.172,1.172,0,0,1,1.188,1.17,1.187,1.187,0,0,1-1.188,1.188A1.183,1.183,0,0,1-31.9-11.3,1.168,1.168,0,0,1-30.726-12.474Zm4.734,6.822a19.76,19.76,0,0,1,2.934-.09H-13.5a19.76,19.76,0,0,1,2.934.09v-2.5a17.677,17.677,0,0,1-2.916.126h-9.594a17.677,17.677,0,0,1-2.916-.126Zm19.836-6.66A21.792,21.792,0,0,1-1.35-9.846L-.2-11.826a29.642,29.642,0,0,0-4.788-2.322ZM-7.578-7.938A20.893,20.893,0,0,1-2.7-5.31l1.116-2.034A28.41,28.41,0,0,0-6.372-9.792Zm10.692-5.94A12.149,12.149,0,0,1,5-11.2l1.26-.666a11.665,11.665,0,0,0-1.89-2.646ZM-6.552.738A10.628,10.628,0,0,1-5.292.432C1.152-.828,4.95-3.78,7.182-9.234a8.752,8.752,0,0,1-1.872-1.6A12.38,12.38,0,0,1-1.98-2.9a15.991,15.991,0,0,1-5.2,1.17ZM8.406-13.032A10.409,10.409,0,0,0,6.534-15.57l-1.206.63a13.262,13.262,0,0,1,1.836,2.61Zm2.3,2.142A1.989,1.989,0,0,1,11-10.908c.162,0,.162,0,.5.018.4,0,1.98.036,2.268.036,0,0,.234-.018.306-.018a.881.881,0,0,0-.144.234,23.84,23.84,0,0,1-2.16,3.078,11.027,11.027,0,0,1-1.62,1.6l1.638,1.62a8.093,8.093,0,0,1,1.566-1.638,6.085,6.085,0,0,1,3.69-1.854.988.988,0,0,1,1.1.972,8.805,8.805,0,0,0-3.87,2.538,2.868,2.868,0,0,0-.792,2A2.61,2.61,0,0,0,14.8,0,7.731,7.731,0,0,0,18.81.756,32.648,32.648,0,0,0,23.418.432,5.3,5.3,0,0,1,24.246.36l-.18-2.322a15.639,15.639,0,0,1-5.292.756c-2.178,0-3.042-.378-3.042-1.314A1.9,1.9,0,0,1,16.668-4,10.94,10.94,0,0,1,18.4-4.932V-4.5a14.25,14.25,0,0,1-.108,2.088l2.088-.054a7.39,7.39,0,0,1-.054-.954c0-.126,0-.288.018-.594v-.72c0-.252,0-.252-.018-.72v-.2q2.322-.81,2.7-.918a15.889,15.889,0,0,1,2-.486l-.846-2.07a5.624,5.624,0,0,1-1.332.54q-.675.216-2.754.972a2.368,2.368,0,0,0-2.574-1.908,4.351,4.351,0,0,0-2.538.81c-.234.18-.234.18-.36.27L14.6-8.478a9.315,9.315,0,0,0,1.656-2.394c1.818-.054,4.1-.2,5.418-.36.918-.108.918-.108,1.422-.144l-.126-2.052a24.317,24.317,0,0,1-4.716.612c-.99.054-.99.054-1.134.072.036-.072.072-.126.162-.324a13.752,13.752,0,0,1,.72-1.62l-2.358-.252a7.129,7.129,0,0,1-.72,2.232,21.752,21.752,0,0,1-4.176-.234Zm19.6-.522c.126,0,.216.018.252.018.072,0,.2.018.414.036a28.382,28.382,0,0,0,3.294.216,19.188,19.188,0,0,0,2.7-.144,3.257,3.257,0,0,1-.4.216c-.234.144-.288.18-.468.288-.45.252-.648.378-1.782,1.1l1.566,1.242a32.6,32.6,0,0,1,4.806-2.97l-.072-2.034a22.323,22.323,0,0,1-4.752.342,23.608,23.608,0,0,1-5.4-.45Zm1.332,4.068c-1.62,1.35-2.322,2.538-2.322,3.924a3.108,3.108,0,0,0,2.3,3.006,12.876,12.876,0,0,0,4.5.594,29.046,29.046,0,0,0,4.86-.414,7.556,7.556,0,0,1,.792-.072l-.2-2.466A18.537,18.537,0,0,1,35.928-2c-3.042,0-4.356-.5-4.356-1.674,0-.774.5-1.53,1.638-2.484ZM44.01-8.082a10.409,10.409,0,0,0-1.872-2.538l-1.206.63a13.262,13.262,0,0,1,1.836,2.61Zm-5.292-.846a12.149,12.149,0,0,1,1.89,2.682l1.26-.666a11.665,11.665,0,0,0-1.89-2.646ZM51.21-6.39a7.457,7.457,0,0,1,.666,1.17,6.33,6.33,0,0,0,.81-.99c0,.126-.018.54-.036,1.242v4.5a14.845,14.845,0,0,1-.108,2.016H54.45V.738h5.616a13.7,13.7,0,0,1,1.728.108V-.972a10.271,10.271,0,0,1-1.692.09H58.338V-2.2h1.35a12.2,12.2,0,0,1,1.494.072v-1.62a10.268,10.268,0,0,1-1.512.072H58.338V-4.986h1.35a12.587,12.587,0,0,1,1.494.072v-1.62a10.112,10.112,0,0,1-1.512.072H58.338v-1.3h1.674a12.44,12.44,0,0,1,1.44.072V-9.414a10.3,10.3,0,0,1-1.494.072h-1.3a10.4,10.4,0,0,0,.684-1.584L57.582-11.3a9.278,9.278,0,0,1-.738,1.962H55.116a16.436,16.436,0,0,0,1.26-2.52H59.94v1.746h1.89a10.887,10.887,0,0,1-.054-1.17V-12.33a11.9,11.9,0,0,1,.054-1.332,10.026,10.026,0,0,1-1.584.09H56.97c.27-.882.432-1.386.468-1.512L55.4-15.336c-.108.612-.18,1.008-.378,1.764H52.9a7.932,7.932,0,0,1-1.314-.054,5.9,5.9,0,0,1,.054.9v1.53a8.17,8.17,0,0,1-.072,1.17h1.782v-1.836h1.08A12.317,12.317,0,0,1,51.21-7.128v-.4c0-.54.018-.954.054-1.332a9.72,9.72,0,0,1-1.1.054H48.4a20.364,20.364,0,0,0,1.08-3.96h.7a7.02,7.02,0,0,1,1.062.072v-1.926a11.8,11.8,0,0,1-1.728.108H47.412a11.973,11.973,0,0,1-1.728-.108v1.944a9.717,9.717,0,0,1,1.53-.09h.4a12.908,12.908,0,0,1-.576,2.574,10.755,10.755,0,0,1-2,3.78,7.6,7.6,0,0,1,.684,2.232,5.48,5.48,0,0,0,.972-1.638c-.036.486-.054,1.026-.054,1.386V-.72a13.717,13.717,0,0,1-.108,1.854h1.8V-.558h1.278V.234h1.656a12.138,12.138,0,0,1-.054-1.386Zm3.222-.072v-1.3H56.61v1.3Zm0,1.476H56.61v1.314H54.432Zm0,2.79H56.61V-.882H54.432Zm-6.1-4.878h1.278V-2.3H48.33Zm21.852-3.564c1.026.36,1.368.5,2.124.828a6.435,6.435,0,0,1-3.024,2.484,6,6,0,0,1,1.26,1.44,8.843,8.843,0,0,0,3.312-3.132,9.455,9.455,0,0,1,1.008.612l-.108-.036a6.772,6.772,0,0,1,.45,1.8,12.332,12.332,0,0,0,1.422.072c1.476,0,1.98-.378,2.3-1.8a29.313,29.313,0,0,0,.486-4.5c.072-1.26.072-1.278.108-1.566a14.033,14.033,0,0,1-1.692.072H72.108a15.281,15.281,0,0,1-1.962-.108v1.908a13.253,13.253,0,0,1,1.926-.09H73.26a6.535,6.535,0,0,1-.288,1.458c-.684-.27-1.044-.414-2.052-.738Zm7.344-2.016a18.3,18.3,0,0,1-.36,3.618c-.162.63-.342.774-.9.774a6.413,6.413,0,0,1-.99-.072l.792-1.332c-.756-.414-.99-.54-1.512-.81a9.483,9.483,0,0,0,.5-2.178ZM69.318-.54l1.458.864a16.516,16.516,0,0,0,1.206-4.932L70.434-4.95A9.741,9.741,0,0,1,69.318-.792v-2.25a10.148,10.148,0,0,1,.054-1.3,9.015,9.015,0,0,1-1.224.054H65.52a9.856,9.856,0,0,1-1.4-.072,12.127,12.127,0,0,1,.072,1.422V-.27c0,.576-.036,1.17-.09,1.764h1.8V.612H67.68v.63h1.71a8.529,8.529,0,0,1-.072-1.386ZM65.844-2.772H67.68v1.8H65.844ZM64.1-12.816a11.227,11.227,0,0,1,1.458-.072H67.95a11.588,11.588,0,0,1,1.458.072v-1.8a8.147,8.147,0,0,1-1.458.09H65.556a8.025,8.025,0,0,1-1.458-.09Zm-.594,2.61a11.287,11.287,0,0,1,1.44-.072h3.528a13.121,13.121,0,0,1,1.368.054V-12.06a9.17,9.17,0,0,1-1.44.072H64.944a7.692,7.692,0,0,1-1.44-.09Zm.648,2.484a8.918,8.918,0,0,1,1.134-.054h2.97a9.72,9.72,0,0,1,1.1.054V-9.4a7.572,7.572,0,0,1-1.1.054h-2.97A9.116,9.116,0,0,1,64.152-9.4Zm0,2.52a9.616,9.616,0,0,1,1.116-.054H68.22a9.116,9.116,0,0,1,1.134.054V-6.876a7.7,7.7,0,0,1-1.116.054H65.286a9.116,9.116,0,0,1-1.134-.054Zm9.9,1.17a5.137,5.137,0,0,1,.09-1.152H72.216a11.289,11.289,0,0,1,.09,1.332V-.144c0,1.116.45,1.332,2.664,1.332,2.592,0,2.916-.342,3.114-3.438a6.318,6.318,0,0,1-1.674-.558,7.138,7.138,0,0,1-.2,1.962c-.126.27-.36.324-1.386.324-.684,0-.774-.054-.774-.468Zm3.078-.306A13.772,13.772,0,0,1,79.038.018l1.53-.936a21.625,21.625,0,0,0-1.98-4.194ZM72.936-6.372a10.94,10.94,0,0,1,2.718,2.664L77-4.878a15.3,15.3,0,0,0-2.79-2.5ZM91.8-14.94a8.923,8.923,0,0,1-1.314,1.494,40.344,40.344,0,0,1-4.158,3.51,11.038,11.038,0,0,0-1.584,1.3,2.1,2.1,0,0,0-.594,1.458c0,.828.324,1.314,1.512,2.232a57.09,57.09,0,0,1,4.644,3.834,17.387,17.387,0,0,1,2.34,2.466L94.5-.522a4.488,4.488,0,0,1-.522-.45,60.5,60.5,0,0,0-5.67-4.7c-1.584-1.188-1.62-1.224-1.62-1.494,0-.2.126-.342.684-.756,2.106-1.6,3.366-2.61,4.284-3.456a27.459,27.459,0,0,1,2.214-1.98ZM100.26-9.7a2.688,2.688,0,0,1,.342-.018c.144,0,.468,0,.72.018H102.6l.4.018h.18A38.815,38.815,0,0,1,99.954-.036l2.268.882a59.865,59.865,0,0,0,3.132-10.6,24.465,24.465,0,0,0,2.952-.378l.414-.072a.791.791,0,0,0,.162-.018l-.09-2.07a16.411,16.411,0,0,1-3.078.54c.054-.324.09-.468.108-.558.054-.324.09-.576.126-.792a12.2,12.2,0,0,1,.288-1.4l-2.376-.216a2.442,2.442,0,0,1,.018.324,21.847,21.847,0,0,1-.342,2.754c-.414.018-.612.018-.828.018a14.321,14.321,0,0,1-2.412-.162Zm10.08-3.906a12.149,12.149,0,0,1,1.89,2.682l1.26-.666a11.665,11.665,0,0,0-1.89-2.646Zm4.194,4.284c-.828-.018-1.242-.018-1.782-.018a23.005,23.005,0,0,0-5.364.576l.162,2a18.611,18.611,0,0,1,4.752-.54,18.738,18.738,0,0,1,2.268.126Zm-7.092,3.78a5.156,5.156,0,0,0-1.332,3.132A2.6,2.6,0,0,0,107.388-.2a7.309,7.309,0,0,0,3.618.72,19.29,19.29,0,0,0,3.348-.306c.468-.072.558-.09.882-.126l-.162-2.2a13.776,13.776,0,0,1-4.086.666c-1.8,0-2.7-.468-2.7-1.386,0-.648.216-1.08.936-2Zm8.19-7.218A10.41,10.41,0,0,0,113.76-15.3l-1.206.63a13.262,13.262,0,0,1,1.836,2.61Zm3.474,3.51a6.764,6.764,0,0,1,.792-.054,62.727,62.727,0,0,0,6.39-.432,19.905,19.905,0,0,0,1.944,3.276A8.362,8.362,0,0,0,125.118-7a6.881,6.881,0,0,0-4.59,1.3,3.5,3.5,0,0,0-1.3,2.682,3.358,3.358,0,0,0,1.062,2.43c.918.882,2.7,1.368,5,1.368A18.582,18.582,0,0,0,131-.2l-.288-2.3A12.506,12.506,0,0,1,125.3-1.3c-2.448,0-3.78-.648-3.78-1.818,0-1.278,1.44-2.016,3.888-2.016a9.021,9.021,0,0,1,2.844.414,3.18,3.18,0,0,1,1.242.774L131.58-4.9c-.63-.846-1.422-2.016-1.908-2.844-.18-.324-.594-1.08-1.242-2.286q2.241-.432,2.646-.54c.612-.126.81-.18,1.278-.252L132.1-12.96a27.388,27.388,0,0,1-4.41,1.062,15.081,15.081,0,0,1-.99-2.88l-2.322.306c.09.144.864,2.052,1.17,2.844-1.116.144-3.51.306-4.86.306a12.34,12.34,0,0,1-1.746-.09Zm17.55-3.978a8.6,8.6,0,0,1,.072,1.152c.072,4.986.4,7.6,1.134,9.4.72,1.728,1.692,2.61,2.9,2.61,1.53,0,2.574-1.458,3.51-4.968a8.885,8.885,0,0,1-1.8-1.638,13.27,13.27,0,0,1-.954,3.258c-.216.5-.468.774-.738.774-.576,0-1.152-1.152-1.458-3.024a33.685,33.685,0,0,1-.342-4.824,20.926,20.926,0,0,1,.144-2.736Zm9.09,1.71A15.712,15.712,0,0,1,148.3-7.092a18.248,18.248,0,0,1,1.152,5.2l2.232-.846a17.946,17.946,0,0,0-4.05-9.684ZM156.51-4.68a3.05,3.05,0,0,0-3.042,3.042,3.054,3.054,0,0,0,3.042,3.06,3.054,3.054,0,0,0,3.042-3.06A3.038,3.038,0,0,0,156.51-4.68Zm0,1.4a1.644,1.644,0,0,1,1.638,1.638A1.648,1.648,0,0,1,156.51.018a1.648,1.648,0,0,1-1.638-1.656A1.644,1.644,0,0,1,156.51-3.276Zm26.334-3.546L173.7-1.674,174.8.108,186.732-6.84,174.8-13.788l-1.116,1.764ZM-174.536,1h32.454V2h-32.454Zm35.069,0h185V2h-185ZM55.45,1H63.1V2H55.45ZM78.562,1H91.378V2H78.562ZM93.993,1h59.843V2H93.993Zm65.191,0H188.73V2H159.184Z" transform="translate(807 1627)" fill="#db2d21"/>
    </g>
  </g>
</svg>
