<svg xmlns="http://www.w3.org/2000/svg" width="584.884" height="40.421" viewBox="0 0 584.884 40.421">
  <g id="グループ_7189" data-name="グループ 7189" transform="translate(-553.168 -2899.54)">
    <path id="パス_46805" data-name="パス 46805" d="M7,6.19,2.044,1.22l-.462.462,4.97,5-4.97,4.97.462.462L7,7.184l4.97,4.928.448-.462L7.448,6.68l4.97-5L11.97,1.22Zm.014-4.634A1.076,1.076,0,0,0,5.936,2.62,1.088,1.088,0,0,0,7.014,3.7a1.071,1.071,0,0,0,0-2.142ZM3,5.6A1.067,1.067,0,0,0,1.918,6.666,1.088,1.088,0,0,0,3,7.744,1.071,1.071,0,0,0,3,5.6ZM11,5.616A1.064,1.064,0,1,0,12.068,6.68,1.064,1.064,0,0,0,11,5.616ZM7,9.676,6.972,9.7c-.014,0-.014,0-.028-.014A.051.051,0,0,0,6.9,9.676,1.08,1.08,0,0,0,7,11.832a1.085,1.085,0,0,0,1.064-1.078A1.067,1.067,0,0,0,7,9.676Zm13.272,2.492a11.736,11.736,0,0,1-.112-1.82V3.264a21.1,21.1,0,0,1,.112-2.31,10.182,10.182,0,0,1-1.428.07H17.556a7.78,7.78,0,0,1-1.4-.084V2.718A12.451,12.451,0,0,1,17.6,2.634h.672v7.714a11.621,11.621,0,0,1-.112,1.82Zm14.6-6.818H31.486a8.863,8.863,0,0,1-1.456-.084v1.6a13.869,13.869,0,0,1,1.442-.056H39.55V8.15H31.822a10.53,10.53,0,0,1-1.358-.056V9.662a10.989,10.989,0,0,1,1.344-.056H39.55v1.5H31.374a9.9,9.9,0,0,1-1.456-.07v1.6a7.794,7.794,0,0,1,1.526-.084h8.078v.686h1.624a12.3,12.3,0,0,1-.084-1.6V6.456a9.586,9.586,0,0,1,.056-1.176A6.755,6.755,0,0,1,40,5.35H36.442V1.6A9.01,9.01,0,0,1,36.526.212H34.79A9.529,9.529,0,0,1,34.874,1.6Zm-4.8-3.71a15.925,15.925,0,0,1,2.156,3.486L33.6,4.314A17.1,17.1,0,0,0,31.416.884Zm9.66-.8a11.6,11.6,0,0,1-2,3.486l1.3.812a16.73,16.73,0,0,0,2.184-3.612Zm14.9,9.324a11.385,11.385,0,0,1-4.046.532c-2.282,0-2.884-.294-3-1.47-.028-.28-.07-1.806-.07-2.534V6.4c.014-.742.014-.742.014-.812V5.21c1.946-.112,1.946-.112,4.074-.2a12.065,12.065,0,0,1-.126,1.75c-.084.546-.238.728-.6.728a4.342,4.342,0,0,1-1.834-.686,7.453,7.453,0,0,1,.1,1.148c0,.2,0,.28-.014.56a4.589,4.589,0,0,0,2,.476,1.706,1.706,0,0,0,1.708-1.05A8.95,8.95,0,0,0,53.2,4.972c.658,0,1.456-.014,1.946-.014a4.908,4.908,0,0,1,.8.042l-.028-1.666A27,27,0,0,1,53.2,3.46V1.71a6.381,6.381,0,0,1,.07-.966H51.52A15.141,15.141,0,0,1,51.6,3.516c-2.086.1-2.086.1-4.046.2a16.31,16.31,0,0,1,.126-2.73H45.808a13.814,13.814,0,0,1,.1,2.38c0,.084,0,.21-.014.434-1.386.084-2.156.126-2.282.126-.07,0-.21,0-.406-.014l.112,1.638a19.121,19.121,0,0,1,2.59-.252c-.014,1.092-.014,1.148-.014,1.358a13.86,13.86,0,0,0,.252,3.822c.42,1.344,1.554,1.848,4.172,1.848.924,0,2.772-.1,3.794-.21.476-.056.476-.056.63-.07ZM61,6.806c.308-.658.924-2.184,1.722-4.228a13.488,13.488,0,0,1,.686-1.61L61.516.492c-.1.574-.1.574-3.318,9.52-.448,1.218-.574,1.554-.77,1.96l1.806.588A16.059,16.059,0,0,1,60.41,9.354c.686-1.26,1.47-1.96,2.226-1.96a.693.693,0,0,1,.63.322,1.911,1.911,0,0,1,.112.826c0,.14,0,.476-.014.98v.14a4.057,4.057,0,0,0,.238,1.554,2.191,2.191,0,0,0,2.2,1.218c2.114,0,3.486-1.456,4.088-4.354a4.378,4.378,0,0,1-1.54-1.05,8.774,8.774,0,0,1-.532,2.226c-.406.98-1.008,1.5-1.75,1.5a1.176,1.176,0,0,1-.742-.2c-.252-.21-.308-.49-.308-1.5,0-1.61-.07-2.114-.35-2.562A1.9,1.9,0,0,0,63.1,5.7a2.619,2.619,0,0,0-1.806.826l-.266.308ZM76.762,5.392V6.75h-3.3a10.333,10.333,0,0,1-1.526-.084V8.22a11.5,11.5,0,0,1,1.512-.084h3.318v3.136H73.248a15.128,15.128,0,0,1-1.736-.084V12.8a13.8,13.8,0,0,1,1.736-.1H82.1a12.913,12.913,0,0,1,1.68.1v-1.61a13.116,13.116,0,0,1-1.652.084H78.316V8.136h3.528a11.092,11.092,0,0,1,1.54.084V6.666a9.949,9.949,0,0,1-1.526.084H78.316V5.392h1.428a9.569,9.569,0,0,1,1.372.07V4.748a14.274,14.274,0,0,0,2.45,1.232,7.146,7.146,0,0,1,.756-1.54,11.6,11.6,0,0,1-3.71-1.89A8.281,8.281,0,0,1,78.456.394H76.72a10.8,10.8,0,0,1-5.712,4.1,6.22,6.22,0,0,1,.812,1.442A15.108,15.108,0,0,0,74.1,4.79v.672a9.81,9.81,0,0,1,1.372-.07ZM75.138,4.076a9.877,9.877,0,0,0,2.45-2.352,11.045,11.045,0,0,0,2.52,2.352c-.21.014-.21.014-.336.014l-4.34-.014ZM73.094,8.822A10.2,10.2,0,0,1,74.2,11.146l1.4-.56a16.225,16.225,0,0,0-1.12-2.324Zm7.546-.546a11.7,11.7,0,0,1-1.106,2.408l1.316.49c.476-.812.532-.91.574-.994.518-1.022.518-1.022.7-1.344Zm4.746-.686A12.762,12.762,0,0,1,87.3,7.422v4.326a10.824,10.824,0,0,1-.084,1.47l1.512-.014a9.74,9.74,0,0,1-.084-1.47V7.324c.364-.042.476-.056.56-.056.266-.042.266-.042.42-.056.056.238.07.322.126.6l1.078-.406A13.124,13.124,0,0,0,89.8,4.692l-.938.42a7.2,7.2,0,0,1,.406.91c-.616.056-.756.07-1.456.1a28.578,28.578,0,0,0,1.918-2.772,3.44,3.44,0,0,1,.966,1.12A8.832,8.832,0,0,0,93.31,1.29c.07-.112.07-.112.154-.238a.624.624,0,0,1,.07-.112L92.176.282A5.736,5.736,0,0,1,91.5,1.57a5.365,5.365,0,0,1-1.722,1.694,1.139,1.139,0,0,1,.112-.168c.056-.1.1-.154.112-.182l.364-.546L89.04,1.7a12.535,12.535,0,0,1-1.3,2.408c-.154-.224-.266-.378-.49-.658a17.948,17.948,0,0,0,1.316-2.268A2.747,2.747,0,0,1,88.83.7L87.444.1a8.508,8.508,0,0,1-1.036,2.338c-.168-.182-.238-.266-.462-.518L85.2,3.068a13.918,13.918,0,0,1,1.75,2.184c-.252.364-.406.574-.672.91a2.09,2.09,0,0,1-.266.014,5.165,5.165,0,0,1-.784-.056Zm12.376-.98a24.17,24.17,0,0,0-2.17-3.276l-1.12.616a14.706,14.706,0,0,1,.854,1.232c-.7.084-.882.1-2.24.2a17.623,17.623,0,0,0,.882-1.6l.588-1.134L93.114,2.2a9.626,9.626,0,0,1-.826,1.96,10.612,10.612,0,0,1-.742,1.288c-.252.014-.322.014-.434.014a2.8,2.8,0,0,1-.476-.028l.2,1.47c.28-.042.588-.07,2.282-.238l-.868.728A7.385,7.385,0,0,1,94.43,9.186l.98-1.022a12.53,12.53,0,0,0-2.044-1.526c1.5-.14,1.54-.154,2.59-.322.2.364.266.518.546,1.106Zm-7.518,4.074a7.813,7.813,0,0,1-.476,1.008l1.274.742a12.517,12.517,0,0,0,.868-3.64l-1.26-.28a7.609,7.609,0,0,1-.294,1.806,12.627,12.627,0,0,0-.42-2.338l-1.036.28a12.835,12.835,0,0,1,.378,2.716ZM85.792,8.066A13.072,13.072,0,0,1,85.2,11.9l1.2.532a17.334,17.334,0,0,0,.574-4.186ZM94.262.94q.21.294.252.336a9.6,9.6,0,0,0,3,2.968,4.411,4.411,0,0,1,.812-1.33A6.738,6.738,0,0,1,96.81,1.836,7.12,7.12,0,0,1,95.494.226ZM92.106,8.36a8.624,8.624,0,0,1,.07,1.05v2.562c0,.406.084.63.266.756a2.829,2.829,0,0,0,1.4.238c2.044,0,2.24-.2,2.422-2.492a2.925,2.925,0,0,1-1.26-.42c-.014,1.064-.042,1.3-.2,1.47a1.011,1.011,0,0,1-.616.14c-.63,0-.658-.014-.658-.322V9.256a6.417,6.417,0,0,1,.056-.9Zm3.57.224a13.388,13.388,0,0,1,1.218,3.64l1.372-.658a17.331,17.331,0,0,0-1.372-3.514ZM104.2,3.7a4.443,4.443,0,0,1-.644.028h-1.12c.126-.224.126-.224.21-.392l.112-.224-1.3-.266A5.638,5.638,0,0,1,99.05,5.63a3.078,3.078,0,0,1,.742,1.092,6.675,6.675,0,0,0,1.008-.84,7.522,7.522,0,0,0,.826.854A8.4,8.4,0,0,1,98.882,8a3.338,3.338,0,0,1,.7,1.288c.294-.126.378-.168.616-.28.014.21.014.322.014.518v2.184a11.211,11.211,0,0,1-.07,1.3h1.442v-.77H103.5V12.9h1.4c-.014-.182-.028-.392-.042-.672a4.425,4.425,0,0,1,.742,1.05,7.742,7.742,0,0,0,2.842-2.016l-1.022-.882h2.3l-.98.9a7.712,7.712,0,0,0,2.828,1.974,5.56,5.56,0,0,1,.84-1.344,6.4,6.4,0,0,1-2.576-1.526h.476c.336,0,.728.014,1.2.042-.028-.5-.042-.84-.042-1.442V4.146c0-.532.014-.854.042-1.246a9.649,9.649,0,0,1-1.372.042h-.924a10.362,10.362,0,0,0,.35-.98h.994a10.842,10.842,0,0,1,1.47.07V.548a10.394,10.394,0,0,1-1.47.07H106.9a9.763,9.763,0,0,1-1.47-.07v.9c-.21.014-.462.028-1.036.028H103.25v-.28a3.7,3.7,0,0,1,.07-.9h-1.61a4.091,4.091,0,0,1,.07.882v.294h-1.316a8.993,8.993,0,0,1-1.12-.042c.028.35.042.686.042.938V3.04a6.691,6.691,0,0,1-.056.9h1.386V2.718H104.2Zm.5.182h.812a6.356,6.356,0,0,1-.042-.938v-.91a12.168,12.168,0,0,1,1.428-.07h1.218c-.1.308-.154.49-.35.98h-.812a11.127,11.127,0,0,1-1.176-.028c.042.686.042.686.042,1.316v4.9c0,.322-.014.952-.042,1.288q.735-.042,1.092-.042h.42a5.162,5.162,0,0,1-1.092.952,4.954,4.954,0,0,1-1.358.686V9.62c0-.532,0-.532.028-.966l.406.126a4.55,4.55,0,0,1,.49-1.26,10.781,10.781,0,0,1-2.226-.84,11.869,11.869,0,0,0,1.442-1.96c.07-.1.084-.112.168-.224l.056-.07Zm-1.26,1.008a9.357,9.357,0,0,1-.938,1.12,5.617,5.617,0,0,1-.952-.966.61.61,0,0,0,.126-.154Zm-2.282,3.626a8.8,8.8,0,0,0,1.456-.98,12.788,12.788,0,0,0,1.862.966c-.168.014-.252.014-.546.014Zm.406,1.162H103.5v1.358H101.57ZM107.2,4.2h2.884v.84H107.2Zm0,1.988h2.884v.882H107.2Zm0,2.03h2.884v.868H107.2Zm13.524-5.194a3.06,3.06,0,0,1,1.414.42,3.468,3.468,0,0,1,1.722,3.108,3.92,3.92,0,0,1-1.946,3.5,7.44,7.44,0,0,1-2.786.77,4.466,4.466,0,0,1,.854,1.638,9.153,9.153,0,0,0,2.2-.588,5.393,5.393,0,0,0,3.4-5.222c0-3.15-2.184-5.194-5.544-5.194a6.285,6.285,0,0,0-4.816,1.96,6.014,6.014,0,0,0-1.54,4.074c0,2.254,1.148,3.878,2.744,3.878,1.148,0,2.044-.826,2.842-2.632A20.254,20.254,0,0,0,120.722,3.026Zm-1.708.014a18.451,18.451,0,0,1-1.162,4.732c-.5,1.2-.98,1.792-1.442,1.792-.616,0-1.106-.91-1.106-2.058a4.687,4.687,0,0,1,1.9-3.78A3.564,3.564,0,0,1,119.014,3.04ZM129.57,6.876c.126-.6.21-1.078.294-1.68h3.122c.448,0,.9.014,1.246.042-.028-.336-.042-.63-.042-1.092V1.85c0-.462.014-.784.042-1.134a12.665,12.665,0,0,1-1.358.056H129.36a11.5,11.5,0,0,1-1.484-.084V2.242a12.229,12.229,0,0,1,1.47-.084h3.29V3.866h-3.122a7.666,7.666,0,0,1-1.092-.056,20.918,20.918,0,0,1-.672,4.452c.322-.028.644-.042,1.036-.042h3.864a8.275,8.275,0,0,1-.56,2.856c-.126.266-.364.35-.91.35a15.135,15.135,0,0,1-2.59-.266,6.285,6.285,0,0,1,.364,1.6c.9.084,1.554.126,2.212.126,1.344,0,1.946-.238,2.3-.938a11.8,11.8,0,0,0,.826-4.382c.014-.364.028-.462.056-.742a8.69,8.69,0,0,1-1.148.056Zm7.448-6.44a8.438,8.438,0,0,1,.1,1.554V11.3a12.977,12.977,0,0,1-.1,1.792H138.8a12.764,12.764,0,0,1-.084-1.792V1.99A9.753,9.753,0,0,1,138.8.436Zm11.074,5.488h3.29a14.618,14.618,0,0,1,1.624.084V4.342a14.26,14.26,0,0,1-1.624.084h-3.29V2.032a11.3,11.3,0,0,1,.1-1.61h-1.834a11.983,11.983,0,0,1,.1,1.61v9.044h-3.192a18.474,18.474,0,0,1-1.932-.084v1.68a17.5,17.5,0,0,1,1.932-.1h8.89a15.276,15.276,0,0,1,1.862.1v-1.68a17.98,17.98,0,0,1-1.89.084h-4.032Zm11.41-.6h.21c.168,0,.224,0,.63.028.364.028.882.042,1.274.042.7,0,1.428-.028,1.9-.07.014.42.014.644.014.9,0,2.058-.252,3.052-.98,3.92a5.768,5.768,0,0,1-2.142,1.526,6.067,6.067,0,0,1,1.358,1.316,9.106,9.106,0,0,0,1.526-1.064,5.247,5.247,0,0,0,1.6-2.716,13.889,13.889,0,0,0,.294-3.346c0-.252,0-.378-.014-.672a9.272,9.272,0,0,0,1.358-.238c.476-.1.56-.112.784-.14l-.1-1.666a8.324,8.324,0,0,1-2.086.546c-.042-.9-.056-1.582-.084-2.044V1.458c0-.084.014-.238.028-.532L163.3.94a5.145,5.145,0,0,1,.112,1.05c.014.434.028.574.07,1.848a12.622,12.622,0,0,1-1.47.07,11.472,11.472,0,0,1-2.506-.2Zm-.9,1.806a11.745,11.745,0,0,0-.616,1.386c-.07.154-.112.294-.322.924,0-.21,0-.364-.014-.532,0-.084-.014-1.176-.014-1.386a24.325,24.325,0,0,1,.854-6.44L156.646.912a5.117,5.117,0,0,1-.1,1.022,30.09,30.09,0,0,0-.518,5.306,20.057,20.057,0,0,0,.5,4.55,2.564,2.564,0,0,1,.1.532l1.624-.084a12.612,12.612,0,0,1,1.6-4.494ZM165.018.38a7.991,7.991,0,0,1,.952,2.2l.966-.28A8.1,8.1,0,0,0,165.97.114Zm3.57,1.442a8.372,8.372,0,0,0-.952-2.1l-.9.28a9.018,9.018,0,0,1,.938,2.142ZM174.2,3.7a4.443,4.443,0,0,1-.644.028h-1.12c.126-.224.126-.224.21-.392l.112-.224-1.3-.266A5.638,5.638,0,0,1,169.05,5.63a3.078,3.078,0,0,1,.742,1.092,6.675,6.675,0,0,0,1.008-.84,7.524,7.524,0,0,0,.826.854A8.4,8.4,0,0,1,168.882,8a3.338,3.338,0,0,1,.7,1.288c.294-.126.378-.168.616-.28.014.21.014.322.014.518v2.184a11.209,11.209,0,0,1-.07,1.3h1.442v-.77H173.5V12.9h1.4c-.014-.182-.028-.392-.042-.672a4.425,4.425,0,0,1,.742,1.05,7.742,7.742,0,0,0,2.842-2.016l-1.022-.882h2.3l-.98.9a7.712,7.712,0,0,0,2.828,1.974,5.56,5.56,0,0,1,.84-1.344,6.4,6.4,0,0,1-2.576-1.526h.476c.336,0,.728.014,1.2.042-.028-.5-.042-.84-.042-1.442V4.146c0-.532.014-.854.042-1.246a9.649,9.649,0,0,1-1.372.042h-.924a10.36,10.36,0,0,0,.35-.98h.994a10.841,10.841,0,0,1,1.47.07V.548a10.393,10.393,0,0,1-1.47.07H176.9a9.763,9.763,0,0,1-1.47-.07v.9c-.21.014-.462.028-1.036.028H173.25v-.28a3.7,3.7,0,0,1,.07-.9h-1.61a4.091,4.091,0,0,1,.07.882v.294h-1.316a8.992,8.992,0,0,1-1.12-.042c.028.35.042.686.042.938V3.04a6.69,6.69,0,0,1-.056.9h1.386V2.718H174.2Zm.5.182h.812a6.355,6.355,0,0,1-.042-.938v-.91a12.169,12.169,0,0,1,1.428-.07h1.218c-.1.308-.154.49-.35.98h-.812a11.127,11.127,0,0,1-1.176-.028c.042.686.042.686.042,1.316v4.9c0,.322-.014.952-.042,1.288q.735-.042,1.092-.042h.42a5.162,5.162,0,0,1-1.092.952,4.954,4.954,0,0,1-1.358.686V9.62c0-.532,0-.532.028-.966l.406.126a4.55,4.55,0,0,1,.49-1.26,10.781,10.781,0,0,1-2.226-.84,11.868,11.868,0,0,0,1.442-1.96c.07-.1.084-.112.168-.224l.056-.07Zm-1.26,1.008a9.357,9.357,0,0,1-.938,1.12,5.617,5.617,0,0,1-.952-.966.61.61,0,0,0,.126-.154Zm-2.282,3.626a8.8,8.8,0,0,0,1.456-.98,12.787,12.787,0,0,0,1.862.966c-.168.014-.252.014-.546.014Zm.406,1.162H173.5v1.358H171.57ZM177.2,4.2h2.884v.84H177.2Zm0,1.988h2.884v.882H177.2Zm0,2.03h2.884v.868H177.2ZM193.144.548a5.718,5.718,0,0,1,.056.924,12.428,12.428,0,0,1-1.512,6.594,9.317,9.317,0,0,1-5,3.738,6.418,6.418,0,0,1,.9,1.386,11.152,11.152,0,0,0,4.69-3.346,10.912,10.912,0,0,0,3.01,3.234,6.158,6.158,0,0,1,.98-1.6,8.082,8.082,0,0,1-3.052-3.01,10.02,10.02,0,0,0,.882-2.044,18.794,18.794,0,0,0,.672-3.906c.126-1.792.126-1.792.14-1.946Zm-8.47,9.044a9.152,9.152,0,0,1-1.4.448l.448,1.708c.35-.168.448-.21.98-.448a37.469,37.469,0,0,0,5.5-2.786l-.336-1.47a29.259,29.259,0,0,1-3.6,1.9L186.2,2.27V1.962A12.366,12.366,0,0,1,186.27.59h-1.778a12.806,12.806,0,0,1,.112,1.666Zm2.744-7.336a16.177,16.177,0,0,1,2.674,3.57l1.442-.994a20.95,20.95,0,0,0-2.772-3.43Zm16.674,3.668h3.29a14.618,14.618,0,0,1,1.624.084V4.342a14.26,14.26,0,0,1-1.624.084h-3.29V2.032a11.3,11.3,0,0,1,.1-1.61h-1.834a11.983,11.983,0,0,1,.1,1.61v9.044h-3.192a18.474,18.474,0,0,1-1.932-.084v1.68a17.5,17.5,0,0,1,1.932-.1h8.89a15.276,15.276,0,0,1,1.862.1v-1.68a17.98,17.98,0,0,1-1.89.084h-4.032Zm10.234,6.412c-.014-.182-.014-.294-.014-.378a11.494,11.494,0,0,1,1.246-4.242l-1.12-.5a14.276,14.276,0,0,0-.728,1.848c.014-.35.028-.462.028-.77a23.374,23.374,0,0,1,.21-3.094,19.3,19.3,0,0,1,.882-4.186l-1.848-.2a9.16,9.16,0,0,1-.21,1.3A26.877,26.877,0,0,0,212.2,7.59a24.419,24.419,0,0,0,.364,4.186c.042.322.056.406.07.658Zm1.932-8.386a16.619,16.619,0,0,0,2.52.154,25.077,25.077,0,0,0,3-.168c.672-.084.882-.112.994-.126l-.084-1.694a15.438,15.438,0,0,1-3.808.378,10.094,10.094,0,0,1-2.59-.224Zm.966,2.31a4.573,4.573,0,0,0-1.288,2.884,2.345,2.345,0,0,0,.42,1.372c.616.826,1.736,1.218,3.472,1.218a17.265,17.265,0,0,0,2.9-.266,4.679,4.679,0,0,1,.574-.084l-.14-1.778a9.839,9.839,0,0,1-3.332.532c-1.456,0-2.226-.42-2.226-1.218A3.167,3.167,0,0,1,218.6,6.9ZM230.9,12.168a11.736,11.736,0,0,1-.112-1.82V3.264A21.1,21.1,0,0,1,230.9.954a10.182,10.182,0,0,1-1.428.07h-1.288a7.78,7.78,0,0,1-1.4-.084V2.718a12.45,12.45,0,0,1,1.442-.084h.672v7.714a11.621,11.621,0,0,1-.112,1.82Zm8.666.224a3.974,3.974,0,0,0,3.4-1.652A7.353,7.353,0,0,0,244.006,6.6a9.415,9.415,0,0,0-.546-3.248,3.922,3.922,0,0,0-.924-1.414A4.067,4.067,0,0,0,239.582.8a3.981,3.981,0,0,0-3.57,1.946,8.243,8.243,0,0,0-.854,3.878,9.37,9.37,0,0,0,.546,3.22,3.922,3.922,0,0,0,.924,1.414A4.033,4.033,0,0,0,239.568,12.392Zm.014-1.624a2.051,2.051,0,0,1-1.792-.91,6.3,6.3,0,0,1-.714-3.332,5.224,5.224,0,0,1,.924-3.4,1.883,1.883,0,0,1,1.568-.714A2.023,2.023,0,0,1,241.094,3a5.429,5.429,0,0,1,.98,3.584,5.4,5.4,0,0,1-.98,3.6A2.035,2.035,0,0,1,239.582,10.768Zm9.688-8.3a16.181,16.181,0,0,1-.2,2.786,9.663,9.663,0,0,1-1.862,4.62,7.461,7.461,0,0,1-2.156,1.918,4.874,4.874,0,0,1,1.176,1.344,9.271,9.271,0,0,0,2.744-2.842,11.106,11.106,0,0,0,1.554-4.186h4.354a19.022,19.022,0,0,1-.574,4.83c-.154.392-.406.5-1.092.5a12.212,12.212,0,0,1-2.2-.28,5.432,5.432,0,0,1,.378,1.6c1.232.1,1.526.112,1.988.112,1.386,0,2-.308,2.352-1.176a21.78,21.78,0,0,0,.728-5.544,13.834,13.834,0,0,1,.084-1.582,14.519,14.519,0,0,1-1.792.07H250.74a20.879,20.879,0,0,0,.126-2.17h5.25a17.621,17.621,0,0,1,1.778.084V.9A17.313,17.313,0,0,1,256.1.982h-9A16.745,16.745,0,0,1,245.308.9V2.55c.574-.056,1.162-.084,1.806-.084ZM261.408,7.66h8.33v3.416c0,.336-.084.378-.63.378-.5,0-1.2-.056-2.128-.154a5.387,5.387,0,0,1,.434,1.512c.546.028,1.316.056,1.862.056a3.443,3.443,0,0,0,1.47-.2c.406-.21.574-.6.574-1.316V2.382a13.78,13.78,0,0,1,.056-1.526,12.834,12.834,0,0,1-1.526.056h-8.512a15.041,15.041,0,0,1-1.554-.056A12.056,12.056,0,0,1,259.84,2.2v9.156a13.3,13.3,0,0,1-.084,1.68h1.722a10.292,10.292,0,0,1-.07-1.624Zm3.318-1.47h-3.318V2.4h3.318Zm1.512,0V2.4h3.5V6.19ZM283.08.548a5.718,5.718,0,0,1,.056.924,12.428,12.428,0,0,1-1.512,6.594,9.317,9.317,0,0,1-5,3.738,6.418,6.418,0,0,1,.9,1.386,11.152,11.152,0,0,0,4.69-3.346,10.913,10.913,0,0,0,3.01,3.234,6.159,6.159,0,0,1,.98-1.6,8.082,8.082,0,0,1-3.052-3.01,10.02,10.02,0,0,0,.882-2.044,18.794,18.794,0,0,0,.672-3.906c.126-1.792.126-1.792.14-1.946Zm-8.47,9.044a9.152,9.152,0,0,1-1.4.448l.448,1.708c.35-.168.448-.21.98-.448a37.469,37.469,0,0,0,5.5-2.786l-.336-1.47a29.26,29.26,0,0,1-3.6,1.9l-.07-6.678V1.962a12.358,12.358,0,0,1,.07-1.372h-1.778a12.808,12.808,0,0,1,.112,1.666Zm2.744-7.336a16.176,16.176,0,0,1,2.674,3.57l1.442-.994A20.949,20.949,0,0,0,278.7,1.4Zm15.022.154V11.1a13.86,13.86,0,0,1-.1,1.932h1.82A13.992,13.992,0,0,1,294,11.1V5.63a27.7,27.7,0,0,1,4.228,2.394l.8-1.4A35.272,35.272,0,0,0,294,4.048V2.41h3.948c.714,0,1.288.028,1.876.084V.856a18.455,18.455,0,0,1-1.876.084h-8.792A17.88,17.88,0,0,1,287.28.856V2.494c.56-.056,1.176-.084,1.876-.084Zm16.282.616a3.06,3.06,0,0,1,1.414.42,3.468,3.468,0,0,1,1.722,3.108,3.92,3.92,0,0,1-1.946,3.5,7.44,7.44,0,0,1-2.786.77,4.466,4.466,0,0,1,.854,1.638,9.153,9.153,0,0,0,2.2-.588,5.393,5.393,0,0,0,3.4-5.222c0-3.15-2.184-5.194-5.544-5.194a6.285,6.285,0,0,0-4.816,1.96,6.014,6.014,0,0,0-1.54,4.074c0,2.254,1.148,3.878,2.744,3.878,1.148,0,2.044-.826,2.842-2.632A20.254,20.254,0,0,0,308.658,3.026Zm-1.708.014a18.452,18.452,0,0,1-1.162,4.732c-.5,1.2-.98,1.792-1.442,1.792-.616,0-1.106-.91-1.106-2.058a4.687,4.687,0,0,1,1.9-3.78A3.564,3.564,0,0,1,306.95,3.04Zm11.3-.574a7.412,7.412,0,0,1,.574,1.414l1.372-.42a6.564,6.564,0,0,0-.49-.994h.714c.238,0,.56.014.756.028-.112.112-.168.154-.308.28a3.685,3.685,0,0,1,.742.6h-1.022a3.209,3.209,0,0,1,.084.812h-2.7a11.319,11.319,0,0,1-1.554-.07V5.5a13.858,13.858,0,0,1,1.54-.07h2.716v.91h-3.752a11.669,11.669,0,0,1-1.61-.084V7.716a14.168,14.168,0,0,1,1.638-.084h6.566v.91h-6.5a13.329,13.329,0,0,1-1.61-.084V9.9a12.937,12.937,0,0,1,1.624-.084h1.708l-1.05.812A9.95,9.95,0,0,1,319.62,12.6l1.26-.966a14.54,14.54,0,0,0-1.932-1.82h4.564V11.4c0,.28-.112.336-.616.336a14.83,14.83,0,0,1-1.75-.1,5.264,5.264,0,0,1,.42,1.456c.518.014.756.028,1.05.028a5.894,5.894,0,0,0,1.652-.14c.518-.182.728-.546.728-1.218V9.816h1.092a13.34,13.34,0,0,1,1.638.084V8.458a13.578,13.578,0,0,1-1.624.084H325v-.91h1.232a13.167,13.167,0,0,1,1.61.084V6.26a11.9,11.9,0,0,1-1.624.084h-4.088v-.91H325.3a11.652,11.652,0,0,1,1.512.084v-1.4a10.626,10.626,0,0,1-1.526.07h-3.164a3.685,3.685,0,0,1,.056-.714,7.475,7.475,0,0,0,.84-.994h.77a8.322,8.322,0,0,1,.686,1.414l1.386-.434a7,7,0,0,0-.546-.98h1.092a10.968,10.968,0,0,1,1.47.07V1.108a10.55,10.55,0,0,1-1.54.084h-2.562c.182-.364.28-.574.308-.63l-1.4-.378a5.251,5.251,0,0,1-1.246,2.058V1.094a8.369,8.369,0,0,1-1.358.084H318.29c.1-.168.1-.168.392-.742L317.17.156a4.031,4.031,0,0,1-.5,1.134A5.688,5.688,0,0,1,315,3.026a5.52,5.52,0,0,1,1.05,1.008,8.235,8.235,0,0,0,1.428-1.568Zm17.514-.322a28.108,28.108,0,0,1-.21,3.878,14.6,14.6,0,0,1-.994,4.032,17.851,17.851,0,0,0-.392-2.128l-1.05.252a13.333,13.333,0,0,1,.392,2.52l.882-.294a8.426,8.426,0,0,1-1.12,1.736,4,4,0,0,1,1.162,1.036,11.217,11.217,0,0,0,1.68-3.234,14.248,14.248,0,0,0,.728-3.682,11.017,11.017,0,0,0,1.428,3.612,8.373,8.373,0,0,1-2.744,1.96,4.507,4.507,0,0,1,.938,1.3,10.716,10.716,0,0,0,2.7-2.072A12.257,12.257,0,0,0,341.5,13.12a6.492,6.492,0,0,1,.812-1.484,9.554,9.554,0,0,1-2.24-1.778,8.541,8.541,0,0,0,.938-1.708c.21-.56.5-1.456.574-1.75.238-.994.238-.994.28-1.148.07-.28.07-.28.1-.378l-.56-.6a4.919,4.919,0,0,1-.91.056h-.5c.168-.588.42-1.61.56-2.31.182-.882.182-.882.28-1.316a11.326,11.326,0,0,1-1.33.056h-3.458a11.9,11.9,0,0,1-1.624-.084v1.54a7.4,7.4,0,0,1,1.162-.07Zm3.29,0a27.876,27.876,0,0,1-.91,3.556c.28-.014.35-.014.742-.014H340.3a8.922,8.922,0,0,1-1.148,3A9.593,9.593,0,0,1,337.806,5.7a16.263,16.263,0,0,1-.6-3.556Zm-9.674,5.39a3.466,3.466,0,0,1,.672-.084c.126,0,.448-.028.938-.07l.448-.028v4.312a9.012,9.012,0,0,1-.084,1.5h1.526a8.714,8.714,0,0,1-.084-1.5V7.24c.168-.028.546-.07,1.12-.14.056.2.07.28.14.532l1.092-.546a15.305,15.305,0,0,0-1.106-2.73l-1.022.49a7.567,7.567,0,0,1,.49,1.078,13.759,13.759,0,0,1-1.652.126c.28-.35.924-1.218,1.19-1.624C334,3,334.362,2.452,334.446,2.34l-1.3-.7a11,11,0,0,1-1.33,2.38c-.2-.252-.266-.336-.532-.63a17.741,17.741,0,0,0,1.26-2.128c.168-.308.224-.392.35-.588l-1.4-.532a9.484,9.484,0,0,1-1.106,2.3c-.182-.182-.266-.266-.546-.518l-.7,1.218a13.639,13.639,0,0,1,1.89,2.044c-.308.448-.42.6-.686.938h-.224a8.732,8.732,0,0,1-.924-.028Zm.392.518a12.725,12.725,0,0,1-.63,3.724l1.218.546A17.72,17.72,0,0,0,331,8.234Zm16.492,4.284c-.014-.182-.014-.294-.014-.378a11.493,11.493,0,0,1,1.246-4.242l-1.12-.5a14.281,14.281,0,0,0-.728,1.848c.014-.35.028-.462.028-.77a23.379,23.379,0,0,1,.21-3.094,19.3,19.3,0,0,1,.882-4.186l-1.848-.2a9.159,9.159,0,0,1-.21,1.3,26.877,26.877,0,0,0-.574,5.474,24.418,24.418,0,0,0,.364,4.186c.042.322.056.406.07.658Zm1.932-8.386a16.62,16.62,0,0,0,2.52.154,25.078,25.078,0,0,0,3-.168c.672-.084.882-.112.994-.126l-.084-1.694a15.438,15.438,0,0,1-3.808.378,10.094,10.094,0,0,1-2.59-.224Zm.966,2.31a4.574,4.574,0,0,0-1.288,2.884,2.345,2.345,0,0,0,.42,1.372c.616.826,1.736,1.218,3.472,1.218a17.264,17.264,0,0,0,2.9-.266,4.678,4.678,0,0,1,.574-.084l-.14-1.778a9.839,9.839,0,0,1-3.332.532c-1.456,0-2.226-.42-2.226-1.218a3.167,3.167,0,0,1,.994-2.016Zm19.726.378a6.912,6.912,0,0,1,1.05.056V5.28a6.8,6.8,0,0,1-1.218.07h-5.642c.014-.686.028-1.036.028-1.68V2.2h5.222a11.772,11.772,0,0,1,1.456.056V.758a11.6,11.6,0,0,1-1.554.084h-4.914c-.588,0-1.176-.028-1.652-.07a17.077,17.077,0,0,1,.056,1.778c0,5.824-.238,7.392-1.456,9.352a6.512,6.512,0,0,1,1.176,1.148,11.577,11.577,0,0,0,1.078-2.632,16.2,16.2,0,0,0,.5-3.78h.77v4.634a7.5,7.5,0,0,1-1.5.182l.336,1.554a6.451,6.451,0,0,1,.644-.182,33.67,33.67,0,0,0,3.64-1.008V10.46c-.8.266-1.064.336-1.708.5V6.638h.77a10.224,10.224,0,0,0,.98,3.556,8.9,8.9,0,0,0,2.2,2.87,6.062,6.062,0,0,1,.98-1.316,6.11,6.11,0,0,1-2-2.17,5.275,5.275,0,0,0,.77-.56c.84-.686.84-.686,1.12-.91l-.98-.966a6.138,6.138,0,0,1-1.428,1.246,8.835,8.835,0,0,1-.364-1.75Zm-10.164-2.38V6.932a8.8,8.8,0,0,1-1.61.448l.224,1.54a1.314,1.314,0,0,1,.21-.084c.378-.126.7-.252,1.176-.434v2.926c0,.322-.07.392-.378.392a9.311,9.311,0,0,1-1.134-.1,5.608,5.608,0,0,1,.336,1.456c.672.028.742.028,1.008.028,1.26,0,1.624-.308,1.624-1.372V7.814c.336-.154.5-.238,1.078-.532V5.868c-.546.266-.742.364-1.078.5V4.258h.448a6.106,6.106,0,0,1,.714.042V2.844a3.661,3.661,0,0,1-.728.056h-.434V1.71A9.729,9.729,0,0,1,360.248.3h-1.61a7.765,7.765,0,0,1,.084,1.414V2.9h-.49a5.351,5.351,0,0,1-.994-.07v1.5a5.771,5.771,0,0,1,.98-.07ZM369.208,3.1a6.4,6.4,0,0,1-1.022.056h-3.64a5.17,5.17,0,0,1-.938-.056V4.44a8.142,8.142,0,0,1,.938-.042H368.2a6.538,6.538,0,0,1,1.008.056Zm4.55-2.632a3.288,3.288,0,0,1-.042.476l-.21,1.736c-.112.966-.2,2.52-.2,3.654,0,.28.028,1.316.042,1.722v.266a1.088,1.088,0,0,1-.014.182l1.68-.028V8.178a6.712,6.712,0,0,1,1.764-4.522,2.084,2.084,0,0,1,1.512-.742c1.2,0,1.876,1.12,1.876,3.136,0,2.128-.742,3.458-2.366,4.284a8.173,8.173,0,0,1-3.066.8,5.355,5.355,0,0,1,.826,1.652A11.94,11.94,0,0,0,378.308,12a5.884,5.884,0,0,0,3.612-5.754,5.863,5.863,0,0,0-1.008-3.724,2.932,2.932,0,0,0-2.394-1.26,3.342,3.342,0,0,0-2.66,1.428,5.66,5.66,0,0,0-.882,1.666,3.067,3.067,0,0,1-.084.308h-.042c.028-.336.084-.812.182-1.4a13.732,13.732,0,0,1,.5-2.7Zm15.876,5.992a6.957,6.957,0,0,1-.084.812,5.417,5.417,0,0,1-1.834,3.192,6.606,6.606,0,0,1-2.17,1.288,4.969,4.969,0,0,1,1.022,1.372,8.109,8.109,0,0,0,3.556-3.08,7.449,7.449,0,0,0,1.092-3.584H393.9v.812a13.752,13.752,0,0,1-.434,3.724c-.126.21-.28.266-.8.266a11.51,11.51,0,0,1-1.694-.182,6.013,6.013,0,0,1,.42,1.638c.938.042,1.162.056,1.442.056,1.246,0,1.75-.2,2.058-.812a19.093,19.093,0,0,0,.588-5.852V5.63a14.274,14.274,0,0,0,1.736,1.47,6.517,6.517,0,0,1,1.064-1.512,10.857,10.857,0,0,1-3.878-4.06A5.233,5.233,0,0,1,393.862.31l-1.554.6a5.744,5.744,0,0,1,.294.588,14,14,0,0,0,2.31,3.514c-.336.014-.532.014-.868.014h-5.152A7.236,7.236,0,0,1,388.164,5a15.57,15.57,0,0,0,2.254-3.4A3.958,3.958,0,0,1,390.8.884l-1.68-.6a4.352,4.352,0,0,1-.56,1.414,10.794,10.794,0,0,1-3.682,4.018,4.867,4.867,0,0,1,1.078,1.372,13.915,13.915,0,0,0,1.75-1.554v.994a9.729,9.729,0,0,1,1.19-.07Zm14.084-1.2h.21c.168,0,.224,0,.63.028.364.014.882.028,1.274.028.7,0,1.428-.014,1.9-.056.014.462.014.588.014.882,0,2.072-.252,3.052-.98,3.934a5.769,5.769,0,0,1-2.142,1.526,5.515,5.515,0,0,1,1.358,1.316,9.107,9.107,0,0,0,1.526-1.064,5.247,5.247,0,0,0,1.6-2.716,13.889,13.889,0,0,0,.294-3.346c0-.252,0-.378-.014-.672a9.889,9.889,0,0,0,1.358-.238,6.822,6.822,0,0,1,.784-.14l-.1-1.666a7.7,7.7,0,0,1-2.086.532c-.028-.9-.056-1.428-.056-1.582-.028-.63-.028-.756-.028-.9a3.054,3.054,0,0,1,.028-.476l-1.778.028a21.62,21.62,0,0,1,.182,3.094c-.728.042-.952.056-1.484.056a12.473,12.473,0,0,1-2.492-.182Zm-.9,1.806a14.446,14.446,0,0,0-.924,2.31c0-.224-.014-.308-.028-.532V8.584c-.014-.686-.014-.924-.014-1.078-.014-.224-.014-.392-.014-.434,0-.266.028-.672.1-1.6a18.861,18.861,0,0,1,.364-2.758,13.523,13.523,0,0,1,.406-1.708L400.862.828a6.16,6.16,0,0,1-.1,1.036,30.092,30.092,0,0,0-.518,5.306,20.146,20.146,0,0,0,.5,4.55,2.282,2.282,0,0,1,.1.532l1.624-.084a12.179,12.179,0,0,1,1.6-4.494ZM414.414,4.8a5.262,5.262,0,0,1,.616-.042A48.787,48.787,0,0,0,420,4.426a15.481,15.481,0,0,0,1.512,2.548,6.5,6.5,0,0,0-2.422-.42,5.352,5.352,0,0,0-3.57,1.008,2.723,2.723,0,0,0-1.008,2.086,2.611,2.611,0,0,0,.826,1.89A5.777,5.777,0,0,0,419.23,12.6a14.452,14.452,0,0,0,4.438-.756l-.224-1.792a9.727,9.727,0,0,1-4.214.938c-1.9,0-2.94-.5-2.94-1.414,0-.994,1.12-1.568,3.024-1.568a7.016,7.016,0,0,1,2.212.322,2.474,2.474,0,0,1,.966.6l1.624-.742c-.49-.658-1.106-1.568-1.484-2.212-.14-.252-.462-.84-.966-1.778q1.743-.336,2.058-.42c.476-.1.63-.14.994-.2l-.2-1.666a21.3,21.3,0,0,1-3.43.826,11.729,11.729,0,0,1-.77-2.24l-1.806.238c.07.112.672,1.6.91,2.212-.868.112-2.73.238-3.78.238a9.6,9.6,0,0,1-1.358-.07Zm16.786.6c.014-.168.028-.252.028-.252l.028-.826c.084-.112.112-.14.168-.224a1.275,1.275,0,0,1,.2-.252,2.343,2.343,0,0,1,.406-.42l-.518-.588c-.1.028-.154.056-.168.056.028-.854.042-.966.056-1.246s.042-.462.042-.532A1.95,1.95,0,0,1,431.494.6L429.716.576a4.653,4.653,0,0,1,.042.784c0,.322-.014.756-.014,1.148-.014.322-.014.322-.028.532-.658.042-1.428.084-1.694.084a4.343,4.343,0,0,1-.574-.028l.084,1.582a18.039,18.039,0,0,1,2.142-.2c0,.378-.014.406-.014.728-.028.546-.028.7-.042,1.372-.266.294-.266.294-1.582,1.6a6.274,6.274,0,0,1-.91.8l.812,1.666a7.993,7.993,0,0,1,.644-.8,10.9,10.9,0,0,0,.994-1.176l.028-.014c-.028.378-.028.378-.028,1.876a12.287,12.287,0,0,1-.1,2.226h1.806a18.891,18.891,0,0,1-.07-2.31c-.014-1.554-.014-1.554-.014-1.666,0-.392,0-.784.028-1.414a15.916,15.916,0,0,1,2.548-2.282,3.353,3.353,0,0,1,1.736-.756c.378,0,.574.182.574.518a8.877,8.877,0,0,1-.294,1.764,14.121,14.121,0,0,0-.574,3.514,2,2,0,0,0,.728,1.764,2.08,2.08,0,0,0,1.2.364,2.708,2.708,0,0,0,2.072-1.008,6.388,6.388,0,0,0,.98-1.386,6.807,6.807,0,0,1-.938-1.68,6.871,6.871,0,0,1-.812,1.6,1.4,1.4,0,0,1-.98.714c-.364,0-.574-.252-.574-.7a17.7,17.7,0,0,1,.588-3.15,10.016,10.016,0,0,0,.35-2.142,1.806,1.806,0,0,0-1.96-1.862,5.012,5.012,0,0,0-2.954,1.316,10.264,10.264,0,0,0-1.708,1.456ZM441.21,4.09a20.321,20.321,0,0,1,2.324-.28c3.038-.224,3.584-.266,4.718-.434a6.171,6.171,0,0,0-1.946,1.4,4.936,4.936,0,0,0-1.33,3.3,3.746,3.746,0,0,0,2,3.374,8.422,8.422,0,0,0,3.276.924,2.974,2.974,0,0,1,.476.084l.252-1.9c-.14.014-.266.014-.28.014a8.5,8.5,0,0,1-2.086-.364,2.351,2.351,0,0,1-1.862-2.282c0-1.414,1.05-2.814,2.828-3.738a6.261,6.261,0,0,1,2.772-.756,2.168,2.168,0,0,1,.294.014l-.1-1.792a7.9,7.9,0,0,1-1.61.14c-3.878.182-6.2.308-6.986.35-2.058.14-2.058.14-2.31.14-.07,0-.224,0-.532-.014ZM455.5,1.71a6.682,6.682,0,0,1,.056.9c.056,3.878.308,5.908.882,7.308.56,1.344,1.316,2.03,2.254,2.03,1.19,0,2-1.134,2.73-3.864a6.911,6.911,0,0,1-1.4-1.274,10.32,10.32,0,0,1-.742,2.534c-.168.392-.364.6-.574.6-.448,0-.9-.9-1.134-2.352a26.2,26.2,0,0,1-.266-3.752,16.28,16.28,0,0,1,.112-2.128Zm7.07,1.33a12.221,12.221,0,0,1,1.988,3.444,14.192,14.192,0,0,1,.9,4.046l1.736-.658a13.957,13.957,0,0,0-3.15-7.532Zm10.948,3.15a5.5,5.5,0,0,0,.574-.364c.28-.182,1.288-.938,1.54-1.148.476-.406,1.5-1.316,2.2-1.96a3,3,0,0,1,.728-.574L477.694.912a2.063,2.063,0,0,1-.868.182c-1.358.1-3.066.168-4.256.168a12.662,12.662,0,0,1-1.652-.084l.07,1.68a4.723,4.723,0,0,1,.672-.07c2.534-.112,3.43-.168,3.962-.238l.014.014-.252.252a46.746,46.746,0,0,1-4.186,3.64,12.589,12.589,0,0,1-1.974,1.316l.952,1.512a8.626,8.626,0,0,1,5.768-2.352c1.694,0,2.772.714,2.772,1.806,0,.994-.5,1.6-1.666,2.03a3.765,3.765,0,0,0-.644-1.26,3.013,3.013,0,0,0-2.422-1.148,2.155,2.155,0,0,0-2.408,2,2,2,0,0,0,.84,1.61,4.736,4.736,0,0,0,2.716.644,6.927,6.927,0,0,0,3.388-.8,3.421,3.421,0,0,0,1.9-3.094c0-1.918-1.54-3.15-3.934-3.15a6.834,6.834,0,0,0-2.94.644Zm2.016,4.984a3.789,3.789,0,0,1-.728.056c-1.036,0-1.666-.322-1.666-.882,0-.392.322-.644.826-.644C474.754,9.7,475.286,10.208,475.538,11.174Zm9.45-8.064a4.2,4.2,0,0,1,.518.042,22.075,22.075,0,0,0,2.562.168,14.923,14.923,0,0,0,2.1-.112c-.644.364-1.33.784-2.058,1.246l1.218.966A25.74,25.74,0,0,1,493.066,3.1l-.056-1.568a17.362,17.362,0,0,1-3.7.266,18.362,18.362,0,0,1-4.2-.35Zm1.036,3.164c-1.26,1.05-1.806,1.974-1.806,3.038a2.4,2.4,0,0,0,1.792,2.338,10.015,10.015,0,0,0,3.5.462,23.954,23.954,0,0,0,3.78-.308,5.566,5.566,0,0,1,.616-.056l-.154-1.918a14.931,14.931,0,0,1-4.4.588c-2.366,0-3.388-.392-3.388-1.3,0-.6.392-1.19,1.274-1.918ZM500.178.786a5.947,5.947,0,0,1,.224.91,35.671,35.671,0,0,0,.938,3.794,8.642,8.642,0,0,0-1.9,1.2A3.288,3.288,0,0,0,498.19,9.2a2.65,2.65,0,0,0,1.218,2.338,7.84,7.84,0,0,0,4.06.77,29.586,29.586,0,0,0,3.276-.21,8.727,8.727,0,0,1,1.134-.1l-.154-1.918a15.327,15.327,0,0,1-4.522.574c-2.254,0-3.206-.434-3.206-1.456s1.022-1.9,3.066-2.66a34.207,34.207,0,0,1,4.62-1.344l-.6-1.764a3.831,3.831,0,0,1-.532.21c-2.716.9-2.716.9-3.626,1.232A23.513,23.513,0,0,1,502,.492ZM519.988,4.3a13.1,13.1,0,0,1,1.918,4.55l1.6-.8A13.021,13.021,0,0,0,521.4,3.6Zm-4.116-3.08a3.261,3.261,0,0,1,.112-.434L514.164.6V.856a19.686,19.686,0,0,1-.364,2.828,28.753,28.753,0,0,1-2.982.294l.168,1.652a5.747,5.747,0,0,1,.574-.14l1.274-.21c.448-.084.448-.084.658-.112a20.593,20.593,0,0,1-2.814,6.594l1.624.9a30.057,30.057,0,0,0,2.856-7.616C515.48,5.014,515.7,5,516,5c1.078,0,1.4.378,1.4,1.666a12.439,12.439,0,0,1-.364,3.192c-.21.686-.434.952-.84.952a5.861,5.861,0,0,1-2.044-.56,5.259,5.259,0,0,1,.14,1.19c0,.14-.014.35-.028.616a6.49,6.49,0,0,0,2.156.42,1.773,1.773,0,0,0,1.554-.63c.672-.77,1.078-2.688,1.078-5.1a3.4,3.4,0,0,0-.658-2.478,2.712,2.712,0,0,0-2.072-.742c-.252,0-.448.014-.868.028.042-.182.042-.182.084-.42.14-.756.238-1.33.308-1.736Zm3.248.1A9.449,9.449,0,0,1,520.59,3.4l.98-.518A9.074,9.074,0,0,0,520.1.828Zm4.116.658A8.1,8.1,0,0,0,521.78,0l-.938.49a10.316,10.316,0,0,1,1.428,2.03Zm9.52,1.806a5.247,5.247,0,0,1-.28,1.064,3.963,3.963,0,0,0-.532-.028A7.747,7.747,0,0,0,530.012,5c.014-.294.028-.742.07-1.344a44.916,44.916,0,0,0,4.928-.49c.294-.042.35-.042.546-.056l-.07-1.61a25.369,25.369,0,0,1-5.306.742A8.241,8.241,0,0,1,530.432.52L528.7.436a.788.788,0,0,1,.028.224c0,.266-.014.616-.028.8-.042.56-.042.56-.056.84h-.308a12.386,12.386,0,0,1-2.618-.21V3.656c.154-.014.28-.014.322-.014h.266c1.358.042,2.114.056,2.268.056-.028.672-.056,1.232-.056,1.68a5.786,5.786,0,0,0-1.918,1.26,4.4,4.4,0,0,0-1.386,3.136,2.211,2.211,0,0,0,2.184,2.45,5.35,5.35,0,0,0,3.668-2.016A12.356,12.356,0,0,0,533.5,6.484a2.053,2.053,0,0,1,1.568,1.932,2.351,2.351,0,0,1-1.638,2.184,5.8,5.8,0,0,1-2.674.56,4.509,4.509,0,0,1,.742,1.582A7.8,7.8,0,0,0,534.352,12a3.806,3.806,0,0,0,2.408-3.5,3.123,3.123,0,0,0-1.33-2.646,3.77,3.77,0,0,0-1.456-.686c.042-.126.056-.14.2-.532a3.24,3.24,0,0,1,.168-.406Zm-4.214,3.192a15.355,15.355,0,0,0,.252,3.164,1.929,1.929,0,0,1-1.218.532c-.49,0-.8-.392-.8-1.022a2.776,2.776,0,0,1,.63-1.708A4.164,4.164,0,0,1,528.542,6.974Zm1.582,2.114a.575.575,0,0,1-.014-.154.741.741,0,0,0-.014-.182,23.261,23.261,0,0,1-.1-2.408,5.143,5.143,0,0,1,1.68-.252,3.288,3.288,0,0,1,.364.014,10.651,10.651,0,0,1-1.736,2.8,1.3,1.3,0,0,0-.154.2ZM541.2.464a3.3,3.3,0,0,1-.042.476l-.21,1.736c-.112.966-.2,2.52-.2,3.654,0,.28.028,1.316.042,1.722v.266a1.086,1.086,0,0,1-.014.182l1.68-.028V8.178a6.712,6.712,0,0,1,1.764-4.522,2.084,2.084,0,0,1,1.512-.742c1.2,0,1.876,1.12,1.876,3.136,0,2.128-.742,3.458-2.366,4.284a8.172,8.172,0,0,1-3.066.8A5.354,5.354,0,0,1,543,12.784,11.94,11.94,0,0,0,545.748,12a5.884,5.884,0,0,0,3.612-5.754,5.863,5.863,0,0,0-1.008-3.724,2.932,2.932,0,0,0-2.394-1.26A3.342,3.342,0,0,0,543.3,2.69a5.66,5.66,0,0,0-.882,1.666,3.062,3.062,0,0,1-.084.308h-.042c.028-.336.084-.812.182-1.4a13.736,13.736,0,0,1,.5-2.7Zm23.394,10.052c-.2-.112-.266-.168-.5-.322a12.521,12.521,0,0,0-3.836-1.974c-.014-.336-.014-.336-.056-1.694.546-.028.756-.042.952-.056,1.05-.1,1.68-.168,1.89-.2.322-.042.672-.084.91-.1l-.042-1.54a10.361,10.361,0,0,1-1.736.308c-1.288.14-1.288.14-1.988.182-.014-.868-.014-1.036-.028-1.386,1.232-.07,1.778-.112,3.01-.28a8.757,8.757,0,0,1,1.106-.126L564.2,1.78a18.94,18.94,0,0,1-4.032.532,8.681,8.681,0,0,1,.1-1.708h-1.778a9.982,9.982,0,0,1,.07,1.764c-.35.014-.826.028-1.05.028a18.409,18.409,0,0,1-3.766-.294l-.014,1.554h.224c.042,0,.154,0,.308.014.938.07,2.744.14,3.43.14.21,0,.434,0,.882-.014.014.8.014,1.274.014,1.4-.392.014-.868.028-1.148.028a18.053,18.053,0,0,1-3.262-.238L554.148,6.5c.21,0,.35,0,.532.014,1.162.084,1.68.1,2.534.1.294,0,.728-.014,1.4-.028.014.56.014.56.028.756v.308a2.69,2.69,0,0,1,.014.336,7.315,7.315,0,0,0-.938-.056c-2.352,0-3.738.9-3.738,2.422,0,1.386,1.176,2.184,3.22,2.184a3.727,3.727,0,0,0,2.31-.6,2.184,2.184,0,0,0,.784-1.89V9.886a6.228,6.228,0,0,1,.756.35,9.446,9.446,0,0,1,2.59,1.918Zm-5.908-1.078v.336a1.775,1.775,0,0,1-.168.9,1.454,1.454,0,0,1-1.218.448c-.994,0-1.6-.322-1.6-.84,0-.6.686-.966,1.82-.966A4.914,4.914,0,0,1,558.684,9.438Zm16.352-4.886v-.91c1.106-.028,1.358-.028,1.694-.028,1.162,0,1.834.028,2.352.07l-.014-1.61c-.518.056-1.61.084-4.046.1a11.016,11.016,0,0,1,.07-1.666L573.328.52a7.6,7.6,0,0,1,.084,1.694c-.728.028-.728.028-1.19.042-1.148.028-1.288.028-2.2.056-1.806.07-2.03.07-2.38.07a6.1,6.1,0,0,1-.686-.028l.056,1.666c.378-.056.378-.056,2.492-.21.616-.042,1.932-.084,3.934-.14,0,.378,0,1.162.014,1.19a.578.578,0,0,0,.014.168,2.339,2.339,0,0,0-1.456-.42,2.577,2.577,0,0,0-2.786,2.548,2.188,2.188,0,0,0,.966,1.89,2.58,2.58,0,0,0,1.624.5,2.306,2.306,0,0,0,2.058-.994A2.947,2.947,0,0,1,572.25,10.6a6.607,6.607,0,0,1-2.38.812,4.6,4.6,0,0,1,.994,1.582,9.788,9.788,0,0,0,2.534-1.148,4.492,4.492,0,0,0,2.086-3.78,4.261,4.261,0,0,0-.448-1.974c0-.168-.014-.28-.014-.336Zm-1.61,2.31a1.276,1.276,0,0,1-1.372,1.26,1.1,1.1,0,0,1-1.19-1.106,1.226,1.226,0,0,1,1.3-1.12C572.936,5.9,573.426,6.274,573.426,6.862Zm8.26,1.5a2.373,2.373,0,1,0,2.366,2.366A2.372,2.372,0,0,0,581.686,8.36Zm0,1.092a1.281,1.281,0,1,1-1.274,1.274A1.279,1.279,0,0,1,581.686,9.452ZM7,30.19,2.044,25.22l-.462.462,4.97,5-4.97,4.97.462.462L7,31.184l4.97,4.928.448-.462-4.97-4.97,4.97-5-.448-.462Zm.014-4.634A1.076,1.076,0,0,0,5.936,26.62,1.088,1.088,0,0,0,7.014,27.7a1.071,1.071,0,0,0,0-2.142ZM3,29.6a1.067,1.067,0,0,0-1.078,1.064A1.088,1.088,0,0,0,3,31.744,1.071,1.071,0,0,0,3,29.6ZM11,29.616a1.064,1.064,0,1,0,1.064,1.064A1.064,1.064,0,0,0,11,29.616Zm-4,4.06-.028.028c-.014,0-.014,0-.028-.014a.051.051,0,0,0-.042-.014A1.08,1.08,0,0,0,7,35.832a1.085,1.085,0,0,0,1.064-1.078A1.067,1.067,0,0,0,7,33.676Zm14.056,2.492c.9,0,1.456.028,2.114.084V34.4a14.71,14.71,0,0,1-2.044.112h-3.92a3.375,3.375,0,0,1,.8-1.26,12.248,12.248,0,0,1,1.666-1.4,17.526,17.526,0,0,0,2.352-1.722,2.842,2.842,0,0,0,.994-2.24c0-1.918-1.512-3.094-3.962-3.094a4.071,4.071,0,0,0-3.206,1.246,4.2,4.2,0,0,0-.966,2.24l2,.238a2.661,2.661,0,0,1,.434-1.288A1.978,1.978,0,0,1,19.1,26.41c1.19,0,1.932.588,1.932,1.54,0,.714-.392,1.176-1.68,2.058a19.28,19.28,0,0,0-2.31,1.694,6.91,6.91,0,0,0-1.918,2.744,7.153,7.153,0,0,0-.364,1.792,12.9,12.9,0,0,1,1.806-.07Zm14.63,0c.9,0,1.456.028,2.114.084V34.4a14.71,14.71,0,0,1-2.044.112h-3.92a3.375,3.375,0,0,1,.8-1.26,12.248,12.248,0,0,1,1.666-1.4,17.527,17.527,0,0,0,2.352-1.722,2.842,2.842,0,0,0,.994-2.24c0-1.918-1.512-3.094-3.962-3.094a4.071,4.071,0,0,0-3.206,1.246,4.2,4.2,0,0,0-.966,2.24l2,.238a2.661,2.661,0,0,1,.434-1.288,1.978,1.978,0,0,1,1.778-.826c1.19,0,1.932.588,1.932,1.54,0,.714-.392,1.176-1.68,2.058a19.28,19.28,0,0,0-2.31,1.694,6.909,6.909,0,0,0-1.918,2.744,7.153,7.153,0,0,0-.364,1.792,12.9,12.9,0,0,1,1.806-.07Zm7.882.224a3.974,3.974,0,0,0,3.4-1.652A7.353,7.353,0,0,0,48.006,30.6a9.415,9.415,0,0,0-.546-3.248,3.922,3.922,0,0,0-.924-1.414A4.067,4.067,0,0,0,43.582,24.8a3.981,3.981,0,0,0-3.57,1.946,8.243,8.243,0,0,0-.854,3.878,9.37,9.37,0,0,0,.546,3.22,3.922,3.922,0,0,0,.924,1.414A4.033,4.033,0,0,0,43.568,36.392Zm.014-1.624a2.051,2.051,0,0,1-1.792-.91,6.3,6.3,0,0,1-.714-3.332,5.224,5.224,0,0,1,.924-3.4,1.883,1.883,0,0,1,1.568-.714A2.023,2.023,0,0,1,45.094,27a5.429,5.429,0,0,1,.98,3.584,5.4,5.4,0,0,1-.98,3.6A2.035,2.035,0,0,1,43.582,34.768Zm11.256,1.4a11.736,11.736,0,0,1-.112-1.82V27.264a21.1,21.1,0,0,1,.112-2.31,10.182,10.182,0,0,1-1.428.07H52.122a7.78,7.78,0,0,1-1.4-.084v1.778a12.45,12.45,0,0,1,1.442-.084h.672v7.714a11.621,11.621,0,0,1-.112,1.82Zm4.55-2.2a3.965,3.965,0,0,0,1.148,1.554,4.044,4.044,0,0,0,2.7.812,3.878,3.878,0,0,0,2.982-1.064A7.058,7.058,0,0,0,67.7,30.414a8.969,8.969,0,0,0-.406-2.9,3.97,3.97,0,0,0-3.85-2.758,4.576,4.576,0,0,0-2.45.616,3.691,3.691,0,0,0-1.778,3.29,3.5,3.5,0,0,0,3.808,3.682A3.806,3.806,0,0,0,65.3,31.7a2.734,2.734,0,0,0,.742-.8,4.6,4.6,0,0,1-1.092,3.332,2.506,2.506,0,0,1-3.192,0,2.324,2.324,0,0,1-.434-.77Zm3.92-3.136a2.091,2.091,0,0,1-2.226-2.24,2.317,2.317,0,0,1,4.634-.042A2.3,2.3,0,0,1,63.308,30.834Zm8.148,1.694h-.714a11.733,11.733,0,0,1-1.526-.084v1.6a12.04,12.04,0,0,1,1.526-.084h4.7v1.722a10.2,10.2,0,0,1-.084,1.526H77.07a8.43,8.43,0,0,1-.084-1.5v-1.75h3.248a11.885,11.885,0,0,1,1.526.084v-1.6a11.436,11.436,0,0,1-1.526.084H76.986V30.26h2.3a13.175,13.175,0,0,1,1.4.056V28.832a10.277,10.277,0,0,1-1.442.07H76.986v-1.82h2.856a10.3,10.3,0,0,1,1.428.07V25.626a9.941,9.941,0,0,1-1.428.07H73.29c.252-.546.392-.84.406-.882.1-.21.126-.252.21-.42l-1.666-.336A4.044,4.044,0,0,1,71.9,25.08a8.69,8.69,0,0,1-2.73,3.514A6.128,6.128,0,0,1,70.21,29.84a12.909,12.909,0,0,0,2.31-2.758h2.926V28.9H72.394c-.378,0-.686-.014-.98-.042a7.687,7.687,0,0,1,.042.812Zm1.47,0V30.26h2.52v2.268ZM87.584,28.8V30.12a8.256,8.256,0,0,1-.056.882c.252-.014.434-.014.98-.014H92.4c.56,0,.588,0,.91.014a7.743,7.743,0,0,1-.042-.882V28.8h1.344a8.863,8.863,0,0,1,1.246.056V27.474a7.564,7.564,0,0,1-1.246.07H93.268v-.98h1.078a14.459,14.459,0,0,1,1.47.056V25.164a12.65,12.65,0,0,1-1.694.084H90.65v-.294a3.365,3.365,0,0,1,.07-.812H89.054a4.7,4.7,0,0,1,.07.8v.308H85.638c-.6,0-1.092-.028-1.582-.07.042.5.056.868.056,1.9a29.865,29.865,0,0,1-.406,6.314,7.582,7.582,0,0,1-.868,2.394,5.785,5.785,0,0,1,1.176,1.288,10.08,10.08,0,0,0,1.19-3.332A29.039,29.039,0,0,0,85.6,28.8Zm-1.974-1.26v-.98h1.974v.98Zm3.444,0v-.98H91.8v.98Zm0,1.26H91.8v.966H89.054Zm4.592,2.94c-.336.028-.588.042-1.162.042H87.6a9.731,9.731,0,0,1-1.5-.07v1.316c.294-.028.5-.042.994-.056A8.118,8.118,0,0,0,89,34.964a13.23,13.23,0,0,1-4,.784,4.761,4.761,0,0,1,.546,1.442,15.08,15.08,0,0,0,4.788-1.372,13.909,13.909,0,0,0,5.054,1.358,6.847,6.847,0,0,1,.588-1.582,12.3,12.3,0,0,1-4.144-.658,11.462,11.462,0,0,0,2.31-2.1c.126-.14.14-.154.266-.28Zm-1.5,1.232a7.886,7.886,0,0,1-1.736,1.316,5.494,5.494,0,0,1-1.624-1.316ZM102.69,26.1v4.76H98.91a10.7,10.7,0,0,1-1.722-.1V32.4a13.511,13.511,0,0,1,1.764-.1h3.738v3.122a15.444,15.444,0,0,1-.1,1.806h1.778a16.311,16.311,0,0,1-.1-1.806V32.3h3.85a12.156,12.156,0,0,1,1.764.1V30.764a10.49,10.49,0,0,1-1.666.1h-3.948V26.1h3.318a14.605,14.605,0,0,1,1.708.084v-1.6a14.4,14.4,0,0,1-1.75.084h-7.98a14.72,14.72,0,0,1-1.75-.084v1.6A15.036,15.036,0,0,1,99.54,26.1Zm-4.214,1.036a12.417,12.417,0,0,1,1.652,3.374l1.442-.728a14.858,14.858,0,0,0-1.736-3.29Zm8.694-.63a10.389,10.389,0,0,1-1.876,3.388l1.386.7a15.18,15.18,0,0,0,1.932-3.43Zm5.614,1.386h-.406a6.9,6.9,0,0,1-1.2-.084v1.54a7.116,7.116,0,0,1,1.2-.07h.406v4.186a8.241,8.241,0,0,1-1.736.476l.35,1.582c.378-.154.392-.168,1.134-.434a30.912,30.912,0,0,0,3.22-1.372l-.028-1.5c-.672.336-.9.448-1.442.672V29.28a9.606,9.606,0,0,1,1.036.042v-.084a7.122,7.122,0,0,1,.672.8,10.4,10.4,0,0,0,1.918-2.366h4.158q-.021,5.922-.5,7.35c-.14.406-.294.5-.8.5a14.624,14.624,0,0,1-1.9-.182,5.237,5.237,0,0,1,.392,1.582c1.05.07,1.162.07,1.5.07a2.5,2.5,0,0,0,1.61-.35,3.514,3.514,0,0,0,.868-2.226,50.748,50.748,0,0,0,.364-7.042,6.758,6.758,0,0,1,.056-1.232c-.28.028-.784.056-1.3.056h-3.71c.112-.28.308-.8.448-1.176a2.366,2.366,0,0,1,.168-.448l-1.652-.364c-.014.07-.028.112-.028.126a2.633,2.633,0,0,0-.042.266c-.056.252-.21.742-.294.994a7.013,7.013,0,0,1-1.918,2.94v-.7a4.621,4.621,0,0,1-.924.056h-.112v-2a8.456,8.456,0,0,1,.084-1.47H112.7a8.828,8.828,0,0,1,.084,1.484Zm8.246,3.388a19.661,19.661,0,0,1-4.13,1.988,5.217,5.217,0,0,1-.8.21l.546,1.568a7.167,7.167,0,0,1,.7-.322,27.553,27.553,0,0,0,4.018-2.016Zm-4.144-.476a6.9,6.9,0,0,1,1.2-.084h1.82a6.681,6.681,0,0,1,1.05.056V29.252a6.936,6.936,0,0,1-1.064.07H118.09a5.911,5.911,0,0,1-1.2-.084Zm10.878-4.41H126.49a10.086,10.086,0,0,1-1.386-.084v1.526a9.007,9.007,0,0,1,1.3-.07H129a13.576,13.576,0,0,1-.546,2.968c-.532-.616-.77-.882-.882-.994-.826-.854-.826-.854-1.106-1.134l-1.022,1.036a25.47,25.47,0,0,1,2.38,2.576,9.717,9.717,0,0,1-2.87,3.43,5.01,5.01,0,0,1,1.064,1.3,13.759,13.759,0,0,0,2.786-3.458,20.11,20.11,0,0,1,1.61,2.422l1.106-1.232c-.994-1.4-1.106-1.554-1.988-2.674a14.341,14.341,0,0,0,.952-4.242,10.446,10.446,0,0,1,1.092.042v-1.5a7.477,7.477,0,0,1-1.344.084h-.994v-.784a11.109,11.109,0,0,1,.07-1.316H127.68a6.631,6.631,0,0,1,.084,1.316Zm7.224,2.128V35.2c0,.294-.084.336-.84.336a14.065,14.065,0,0,1-1.694-.168,4.639,4.639,0,0,1,.434,1.554c.56.042,1.078.056,1.652.056.924,0,1.428-.14,1.694-.476.21-.252.252-.49.252-1.218V28.524h.182a8.136,8.136,0,0,1,.98.042l.322.042V27.04a8.028,8.028,0,0,1-1.316.084h-.168V26.018a12.607,12.607,0,0,1,.084-1.666h-1.68a9.393,9.393,0,0,1,.1,1.666v1.106H133.21a8.5,8.5,0,0,1-1.33-.07v1.54a8.723,8.723,0,0,1,1.33-.07Zm-3.822,1.554a12.481,12.481,0,0,1,1.96,3.388l1.274-.84a17.58,17.58,0,0,0-1.974-3.234Zm11-.182H144.1a6.693,6.693,0,0,1,1.344.084V28.328a6.693,6.693,0,0,1-1.344.084H142.17V26.074a9.333,9.333,0,0,1,.084-1.568H140.5a11.546,11.546,0,0,1,.084,1.568v9a8.888,8.888,0,0,1-1.54.266l.336,1.736a5.863,5.863,0,0,1,.77-.266c.112-.028.112-.028.294-.084,1.022-.28,1.022-.28,1.484-.42,1.694-.532,2.408-.784,3.5-1.2l-.014-1.484c-1.246.434-1.932.658-3.248,1.036Zm5.348.9a24.445,24.445,0,0,0,3.878-2.52c.294-.238.294-.238.5-.392l-1.092-1.288a11.053,11.053,0,0,1-3.29,2.562V26.1a9.617,9.617,0,0,1,.084-1.582H145.88a10.813,10.813,0,0,1,.084,1.582v9.366c0,.63.14.966.518,1.162a4.618,4.618,0,0,0,2.142.252c1.666,0,2.268-.126,2.66-.56s.56-1.246.658-3.332a5.946,5.946,0,0,1-1.484-.616,6.908,6.908,0,0,1-.294,2.814c-.14.2-.476.252-1.456.252-1.008,0-1.19-.056-1.19-.364Z" transform="translate(553 2901)" fill="#1a1a1a" stroke="#fff" stroke-width="2"/>
    <path id="パス_46804" data-name="パス 46804" d="M7,6.19,2.044,1.22l-.462.462,4.97,5-4.97,4.97.462.462L7,7.184l4.97,4.928.448-.462L7.448,6.68l4.97-5L11.97,1.22Zm.014-4.634A1.076,1.076,0,0,0,5.936,2.62,1.088,1.088,0,0,0,7.014,3.7a1.071,1.071,0,0,0,0-2.142ZM3,5.6A1.067,1.067,0,0,0,1.918,6.666,1.088,1.088,0,0,0,3,7.744,1.071,1.071,0,0,0,3,5.6ZM11,5.616A1.064,1.064,0,1,0,12.068,6.68,1.064,1.064,0,0,0,11,5.616ZM7,9.676,6.972,9.7c-.014,0-.014,0-.028-.014A.051.051,0,0,0,6.9,9.676,1.08,1.08,0,0,0,7,11.832a1.085,1.085,0,0,0,1.064-1.078A1.067,1.067,0,0,0,7,9.676Zm13.272,2.492a11.736,11.736,0,0,1-.112-1.82V3.264a21.1,21.1,0,0,1,.112-2.31,10.182,10.182,0,0,1-1.428.07H17.556a7.78,7.78,0,0,1-1.4-.084V2.718A12.451,12.451,0,0,1,17.6,2.634h.672v7.714a11.621,11.621,0,0,1-.112,1.82Zm14.6-6.818H31.486a8.863,8.863,0,0,1-1.456-.084v1.6a13.869,13.869,0,0,1,1.442-.056H39.55V8.15H31.822a10.53,10.53,0,0,1-1.358-.056V9.662a10.989,10.989,0,0,1,1.344-.056H39.55v1.5H31.374a9.9,9.9,0,0,1-1.456-.07v1.6a7.794,7.794,0,0,1,1.526-.084h8.078v.686h1.624a12.3,12.3,0,0,1-.084-1.6V6.456a9.586,9.586,0,0,1,.056-1.176A6.755,6.755,0,0,1,40,5.35H36.442V1.6A9.01,9.01,0,0,1,36.526.212H34.79A9.529,9.529,0,0,1,34.874,1.6Zm-4.8-3.71a15.925,15.925,0,0,1,2.156,3.486L33.6,4.314A17.1,17.1,0,0,0,31.416.884Zm9.66-.8a11.6,11.6,0,0,1-2,3.486l1.3.812a16.73,16.73,0,0,0,2.184-3.612Zm14.9,9.324a11.385,11.385,0,0,1-4.046.532c-2.282,0-2.884-.294-3-1.47-.028-.28-.07-1.806-.07-2.534V6.4c.014-.742.014-.742.014-.812V5.21c1.946-.112,1.946-.112,4.074-.2a12.065,12.065,0,0,1-.126,1.75c-.084.546-.238.728-.6.728a4.342,4.342,0,0,1-1.834-.686,7.453,7.453,0,0,1,.1,1.148c0,.2,0,.28-.014.56a4.589,4.589,0,0,0,2,.476,1.706,1.706,0,0,0,1.708-1.05A8.95,8.95,0,0,0,53.2,4.972c.658,0,1.456-.014,1.946-.014a4.908,4.908,0,0,1,.8.042l-.028-1.666A27,27,0,0,1,53.2,3.46V1.71a6.381,6.381,0,0,1,.07-.966H51.52A15.141,15.141,0,0,1,51.6,3.516c-2.086.1-2.086.1-4.046.2a16.31,16.31,0,0,1,.126-2.73H45.808a13.814,13.814,0,0,1,.1,2.38c0,.084,0,.21-.014.434-1.386.084-2.156.126-2.282.126-.07,0-.21,0-.406-.014l.112,1.638a19.121,19.121,0,0,1,2.59-.252c-.014,1.092-.014,1.148-.014,1.358a13.86,13.86,0,0,0,.252,3.822c.42,1.344,1.554,1.848,4.172,1.848.924,0,2.772-.1,3.794-.21.476-.056.476-.056.63-.07ZM61,6.806c.308-.658.924-2.184,1.722-4.228a13.488,13.488,0,0,1,.686-1.61L61.516.492c-.1.574-.1.574-3.318,9.52-.448,1.218-.574,1.554-.77,1.96l1.806.588A16.059,16.059,0,0,1,60.41,9.354c.686-1.26,1.47-1.96,2.226-1.96a.693.693,0,0,1,.63.322,1.911,1.911,0,0,1,.112.826c0,.14,0,.476-.014.98v.14a4.057,4.057,0,0,0,.238,1.554,2.191,2.191,0,0,0,2.2,1.218c2.114,0,3.486-1.456,4.088-4.354a4.378,4.378,0,0,1-1.54-1.05,8.774,8.774,0,0,1-.532,2.226c-.406.98-1.008,1.5-1.75,1.5a1.176,1.176,0,0,1-.742-.2c-.252-.21-.308-.49-.308-1.5,0-1.61-.07-2.114-.35-2.562A1.9,1.9,0,0,0,63.1,5.7a2.619,2.619,0,0,0-1.806.826l-.266.308ZM76.762,5.392V6.75h-3.3a10.333,10.333,0,0,1-1.526-.084V8.22a11.5,11.5,0,0,1,1.512-.084h3.318v3.136H73.248a15.128,15.128,0,0,1-1.736-.084V12.8a13.8,13.8,0,0,1,1.736-.1H82.1a12.913,12.913,0,0,1,1.68.1v-1.61a13.116,13.116,0,0,1-1.652.084H78.316V8.136h3.528a11.092,11.092,0,0,1,1.54.084V6.666a9.949,9.949,0,0,1-1.526.084H78.316V5.392h1.428a9.569,9.569,0,0,1,1.372.07V4.748a14.274,14.274,0,0,0,2.45,1.232,7.146,7.146,0,0,1,.756-1.54,11.6,11.6,0,0,1-3.71-1.89A8.281,8.281,0,0,1,78.456.394H76.72a10.8,10.8,0,0,1-5.712,4.1,6.22,6.22,0,0,1,.812,1.442A15.108,15.108,0,0,0,74.1,4.79v.672a9.81,9.81,0,0,1,1.372-.07ZM75.138,4.076a9.877,9.877,0,0,0,2.45-2.352,11.045,11.045,0,0,0,2.52,2.352c-.21.014-.21.014-.336.014l-4.34-.014ZM73.094,8.822A10.2,10.2,0,0,1,74.2,11.146l1.4-.56a16.225,16.225,0,0,0-1.12-2.324Zm7.546-.546a11.7,11.7,0,0,1-1.106,2.408l1.316.49c.476-.812.532-.91.574-.994.518-1.022.518-1.022.7-1.344Zm4.746-.686A12.762,12.762,0,0,1,87.3,7.422v4.326a10.824,10.824,0,0,1-.084,1.47l1.512-.014a9.74,9.74,0,0,1-.084-1.47V7.324c.364-.042.476-.056.56-.056.266-.042.266-.042.42-.056.056.238.07.322.126.6l1.078-.406A13.124,13.124,0,0,0,89.8,4.692l-.938.42a7.2,7.2,0,0,1,.406.91c-.616.056-.756.07-1.456.1a28.578,28.578,0,0,0,1.918-2.772,3.44,3.44,0,0,1,.966,1.12A8.832,8.832,0,0,0,93.31,1.29c.07-.112.07-.112.154-.238a.624.624,0,0,1,.07-.112L92.176.282A5.736,5.736,0,0,1,91.5,1.57a5.365,5.365,0,0,1-1.722,1.694,1.139,1.139,0,0,1,.112-.168c.056-.1.1-.154.112-.182l.364-.546L89.04,1.7a12.535,12.535,0,0,1-1.3,2.408c-.154-.224-.266-.378-.49-.658a17.948,17.948,0,0,0,1.316-2.268A2.747,2.747,0,0,1,88.83.7L87.444.1a8.508,8.508,0,0,1-1.036,2.338c-.168-.182-.238-.266-.462-.518L85.2,3.068a13.918,13.918,0,0,1,1.75,2.184c-.252.364-.406.574-.672.91a2.09,2.09,0,0,1-.266.014,5.165,5.165,0,0,1-.784-.056Zm12.376-.98a24.17,24.17,0,0,0-2.17-3.276l-1.12.616a14.706,14.706,0,0,1,.854,1.232c-.7.084-.882.1-2.24.2a17.623,17.623,0,0,0,.882-1.6l.588-1.134L93.114,2.2a9.626,9.626,0,0,1-.826,1.96,10.612,10.612,0,0,1-.742,1.288c-.252.014-.322.014-.434.014a2.8,2.8,0,0,1-.476-.028l.2,1.47c.28-.042.588-.07,2.282-.238l-.868.728A7.385,7.385,0,0,1,94.43,9.186l.98-1.022a12.53,12.53,0,0,0-2.044-1.526c1.5-.14,1.54-.154,2.59-.322.2.364.266.518.546,1.106Zm-7.518,4.074a7.813,7.813,0,0,1-.476,1.008l1.274.742a12.517,12.517,0,0,0,.868-3.64l-1.26-.28a7.609,7.609,0,0,1-.294,1.806,12.627,12.627,0,0,0-.42-2.338l-1.036.28a12.835,12.835,0,0,1,.378,2.716ZM85.792,8.066A13.072,13.072,0,0,1,85.2,11.9l1.2.532a17.334,17.334,0,0,0,.574-4.186ZM94.262.94q.21.294.252.336a9.6,9.6,0,0,0,3,2.968,4.411,4.411,0,0,1,.812-1.33A6.738,6.738,0,0,1,96.81,1.836,7.12,7.12,0,0,1,95.494.226ZM92.106,8.36a8.624,8.624,0,0,1,.07,1.05v2.562c0,.406.084.63.266.756a2.829,2.829,0,0,0,1.4.238c2.044,0,2.24-.2,2.422-2.492a2.925,2.925,0,0,1-1.26-.42c-.014,1.064-.042,1.3-.2,1.47a1.011,1.011,0,0,1-.616.14c-.63,0-.658-.014-.658-.322V9.256a6.417,6.417,0,0,1,.056-.9Zm3.57.224a13.388,13.388,0,0,1,1.218,3.64l1.372-.658a17.331,17.331,0,0,0-1.372-3.514ZM104.2,3.7a4.443,4.443,0,0,1-.644.028h-1.12c.126-.224.126-.224.21-.392l.112-.224-1.3-.266A5.638,5.638,0,0,1,99.05,5.63a3.078,3.078,0,0,1,.742,1.092,6.675,6.675,0,0,0,1.008-.84,7.522,7.522,0,0,0,.826.854A8.4,8.4,0,0,1,98.882,8a3.338,3.338,0,0,1,.7,1.288c.294-.126.378-.168.616-.28.014.21.014.322.014.518v2.184a11.211,11.211,0,0,1-.07,1.3h1.442v-.77H103.5V12.9h1.4c-.014-.182-.028-.392-.042-.672a4.425,4.425,0,0,1,.742,1.05,7.742,7.742,0,0,0,2.842-2.016l-1.022-.882h2.3l-.98.9a7.712,7.712,0,0,0,2.828,1.974,5.56,5.56,0,0,1,.84-1.344,6.4,6.4,0,0,1-2.576-1.526h.476c.336,0,.728.014,1.2.042-.028-.5-.042-.84-.042-1.442V4.146c0-.532.014-.854.042-1.246a9.649,9.649,0,0,1-1.372.042h-.924a10.362,10.362,0,0,0,.35-.98h.994a10.842,10.842,0,0,1,1.47.07V.548a10.394,10.394,0,0,1-1.47.07H106.9a9.763,9.763,0,0,1-1.47-.07v.9c-.21.014-.462.028-1.036.028H103.25v-.28a3.7,3.7,0,0,1,.07-.9h-1.61a4.091,4.091,0,0,1,.07.882v.294h-1.316a8.993,8.993,0,0,1-1.12-.042c.028.35.042.686.042.938V3.04a6.691,6.691,0,0,1-.056.9h1.386V2.718H104.2Zm.5.182h.812a6.356,6.356,0,0,1-.042-.938v-.91a12.168,12.168,0,0,1,1.428-.07h1.218c-.1.308-.154.49-.35.98h-.812a11.127,11.127,0,0,1-1.176-.028c.042.686.042.686.042,1.316v4.9c0,.322-.014.952-.042,1.288q.735-.042,1.092-.042h.42a5.162,5.162,0,0,1-1.092.952,4.954,4.954,0,0,1-1.358.686V9.62c0-.532,0-.532.028-.966l.406.126a4.55,4.55,0,0,1,.49-1.26,10.781,10.781,0,0,1-2.226-.84,11.869,11.869,0,0,0,1.442-1.96c.07-.1.084-.112.168-.224l.056-.07Zm-1.26,1.008a9.357,9.357,0,0,1-.938,1.12,5.617,5.617,0,0,1-.952-.966.61.61,0,0,0,.126-.154Zm-2.282,3.626a8.8,8.8,0,0,0,1.456-.98,12.788,12.788,0,0,0,1.862.966c-.168.014-.252.014-.546.014Zm.406,1.162H103.5v1.358H101.57ZM107.2,4.2h2.884v.84H107.2Zm0,1.988h2.884v.882H107.2Zm0,2.03h2.884v.868H107.2Zm13.524-5.194a3.06,3.06,0,0,1,1.414.42,3.468,3.468,0,0,1,1.722,3.108,3.92,3.92,0,0,1-1.946,3.5,7.44,7.44,0,0,1-2.786.77,4.466,4.466,0,0,1,.854,1.638,9.153,9.153,0,0,0,2.2-.588,5.393,5.393,0,0,0,3.4-5.222c0-3.15-2.184-5.194-5.544-5.194a6.285,6.285,0,0,0-4.816,1.96,6.014,6.014,0,0,0-1.54,4.074c0,2.254,1.148,3.878,2.744,3.878,1.148,0,2.044-.826,2.842-2.632A20.254,20.254,0,0,0,120.722,3.026Zm-1.708.014a18.451,18.451,0,0,1-1.162,4.732c-.5,1.2-.98,1.792-1.442,1.792-.616,0-1.106-.91-1.106-2.058a4.687,4.687,0,0,1,1.9-3.78A3.564,3.564,0,0,1,119.014,3.04ZM129.57,6.876c.126-.6.21-1.078.294-1.68h3.122c.448,0,.9.014,1.246.042-.028-.336-.042-.63-.042-1.092V1.85c0-.462.014-.784.042-1.134a12.665,12.665,0,0,1-1.358.056H129.36a11.5,11.5,0,0,1-1.484-.084V2.242a12.229,12.229,0,0,1,1.47-.084h3.29V3.866h-3.122a7.666,7.666,0,0,1-1.092-.056,20.918,20.918,0,0,1-.672,4.452c.322-.028.644-.042,1.036-.042h3.864a8.275,8.275,0,0,1-.56,2.856c-.126.266-.364.35-.91.35a15.135,15.135,0,0,1-2.59-.266,6.285,6.285,0,0,1,.364,1.6c.9.084,1.554.126,2.212.126,1.344,0,1.946-.238,2.3-.938a11.8,11.8,0,0,0,.826-4.382c.014-.364.028-.462.056-.742a8.69,8.69,0,0,1-1.148.056Zm7.448-6.44a8.438,8.438,0,0,1,.1,1.554V11.3a12.977,12.977,0,0,1-.1,1.792H138.8a12.764,12.764,0,0,1-.084-1.792V1.99A9.753,9.753,0,0,1,138.8.436Zm11.074,5.488h3.29a14.618,14.618,0,0,1,1.624.084V4.342a14.26,14.26,0,0,1-1.624.084h-3.29V2.032a11.3,11.3,0,0,1,.1-1.61h-1.834a11.983,11.983,0,0,1,.1,1.61v9.044h-3.192a18.474,18.474,0,0,1-1.932-.084v1.68a17.5,17.5,0,0,1,1.932-.1h8.89a15.276,15.276,0,0,1,1.862.1v-1.68a17.98,17.98,0,0,1-1.89.084h-4.032Zm11.41-.6h.21c.168,0,.224,0,.63.028.364.028.882.042,1.274.042.7,0,1.428-.028,1.9-.07.014.42.014.644.014.9,0,2.058-.252,3.052-.98,3.92a5.768,5.768,0,0,1-2.142,1.526,6.067,6.067,0,0,1,1.358,1.316,9.106,9.106,0,0,0,1.526-1.064,5.247,5.247,0,0,0,1.6-2.716,13.889,13.889,0,0,0,.294-3.346c0-.252,0-.378-.014-.672a9.272,9.272,0,0,0,1.358-.238c.476-.1.56-.112.784-.14l-.1-1.666a8.324,8.324,0,0,1-2.086.546c-.042-.9-.056-1.582-.084-2.044V1.458c0-.084.014-.238.028-.532L163.3.94a5.145,5.145,0,0,1,.112,1.05c.014.434.028.574.07,1.848a12.622,12.622,0,0,1-1.47.07,11.472,11.472,0,0,1-2.506-.2Zm-.9,1.806a11.745,11.745,0,0,0-.616,1.386c-.07.154-.112.294-.322.924,0-.21,0-.364-.014-.532,0-.084-.014-1.176-.014-1.386a24.325,24.325,0,0,1,.854-6.44L156.646.912a5.117,5.117,0,0,1-.1,1.022,30.09,30.09,0,0,0-.518,5.306,20.057,20.057,0,0,0,.5,4.55,2.564,2.564,0,0,1,.1.532l1.624-.084a12.612,12.612,0,0,1,1.6-4.494ZM165.018.38a7.991,7.991,0,0,1,.952,2.2l.966-.28A8.1,8.1,0,0,0,165.97.114Zm3.57,1.442a8.372,8.372,0,0,0-.952-2.1l-.9.28a9.018,9.018,0,0,1,.938,2.142ZM174.2,3.7a4.443,4.443,0,0,1-.644.028h-1.12c.126-.224.126-.224.21-.392l.112-.224-1.3-.266A5.638,5.638,0,0,1,169.05,5.63a3.078,3.078,0,0,1,.742,1.092,6.675,6.675,0,0,0,1.008-.84,7.524,7.524,0,0,0,.826.854A8.4,8.4,0,0,1,168.882,8a3.338,3.338,0,0,1,.7,1.288c.294-.126.378-.168.616-.28.014.21.014.322.014.518v2.184a11.209,11.209,0,0,1-.07,1.3h1.442v-.77H173.5V12.9h1.4c-.014-.182-.028-.392-.042-.672a4.425,4.425,0,0,1,.742,1.05,7.742,7.742,0,0,0,2.842-2.016l-1.022-.882h2.3l-.98.9a7.712,7.712,0,0,0,2.828,1.974,5.56,5.56,0,0,1,.84-1.344,6.4,6.4,0,0,1-2.576-1.526h.476c.336,0,.728.014,1.2.042-.028-.5-.042-.84-.042-1.442V4.146c0-.532.014-.854.042-1.246a9.649,9.649,0,0,1-1.372.042h-.924a10.36,10.36,0,0,0,.35-.98h.994a10.841,10.841,0,0,1,1.47.07V.548a10.393,10.393,0,0,1-1.47.07H176.9a9.763,9.763,0,0,1-1.47-.07v.9c-.21.014-.462.028-1.036.028H173.25v-.28a3.7,3.7,0,0,1,.07-.9h-1.61a4.091,4.091,0,0,1,.07.882v.294h-1.316a8.992,8.992,0,0,1-1.12-.042c.028.35.042.686.042.938V3.04a6.69,6.69,0,0,1-.056.9h1.386V2.718H174.2Zm.5.182h.812a6.355,6.355,0,0,1-.042-.938v-.91a12.169,12.169,0,0,1,1.428-.07h1.218c-.1.308-.154.49-.35.98h-.812a11.127,11.127,0,0,1-1.176-.028c.042.686.042.686.042,1.316v4.9c0,.322-.014.952-.042,1.288q.735-.042,1.092-.042h.42a5.162,5.162,0,0,1-1.092.952,4.954,4.954,0,0,1-1.358.686V9.62c0-.532,0-.532.028-.966l.406.126a4.55,4.55,0,0,1,.49-1.26,10.781,10.781,0,0,1-2.226-.84,11.868,11.868,0,0,0,1.442-1.96c.07-.1.084-.112.168-.224l.056-.07Zm-1.26,1.008a9.357,9.357,0,0,1-.938,1.12,5.617,5.617,0,0,1-.952-.966.61.61,0,0,0,.126-.154Zm-2.282,3.626a8.8,8.8,0,0,0,1.456-.98,12.787,12.787,0,0,0,1.862.966c-.168.014-.252.014-.546.014Zm.406,1.162H173.5v1.358H171.57ZM177.2,4.2h2.884v.84H177.2Zm0,1.988h2.884v.882H177.2Zm0,2.03h2.884v.868H177.2ZM193.144.548a5.718,5.718,0,0,1,.056.924,12.428,12.428,0,0,1-1.512,6.594,9.317,9.317,0,0,1-5,3.738,6.418,6.418,0,0,1,.9,1.386,11.152,11.152,0,0,0,4.69-3.346,10.912,10.912,0,0,0,3.01,3.234,6.158,6.158,0,0,1,.98-1.6,8.082,8.082,0,0,1-3.052-3.01,10.02,10.02,0,0,0,.882-2.044,18.794,18.794,0,0,0,.672-3.906c.126-1.792.126-1.792.14-1.946Zm-8.47,9.044a9.152,9.152,0,0,1-1.4.448l.448,1.708c.35-.168.448-.21.98-.448a37.469,37.469,0,0,0,5.5-2.786l-.336-1.47a29.259,29.259,0,0,1-3.6,1.9L186.2,2.27V1.962A12.366,12.366,0,0,1,186.27.59h-1.778a12.806,12.806,0,0,1,.112,1.666Zm2.744-7.336a16.177,16.177,0,0,1,2.674,3.57l1.442-.994a20.95,20.95,0,0,0-2.772-3.43Zm16.674,3.668h3.29a14.618,14.618,0,0,1,1.624.084V4.342a14.26,14.26,0,0,1-1.624.084h-3.29V2.032a11.3,11.3,0,0,1,.1-1.61h-1.834a11.983,11.983,0,0,1,.1,1.61v9.044h-3.192a18.474,18.474,0,0,1-1.932-.084v1.68a17.5,17.5,0,0,1,1.932-.1h8.89a15.276,15.276,0,0,1,1.862.1v-1.68a17.98,17.98,0,0,1-1.89.084h-4.032Zm10.234,6.412c-.014-.182-.014-.294-.014-.378a11.494,11.494,0,0,1,1.246-4.242l-1.12-.5a14.276,14.276,0,0,0-.728,1.848c.014-.35.028-.462.028-.77a23.374,23.374,0,0,1,.21-3.094,19.3,19.3,0,0,1,.882-4.186l-1.848-.2a9.16,9.16,0,0,1-.21,1.3A26.877,26.877,0,0,0,212.2,7.59a24.419,24.419,0,0,0,.364,4.186c.042.322.056.406.07.658Zm1.932-8.386a16.619,16.619,0,0,0,2.52.154,25.077,25.077,0,0,0,3-.168c.672-.084.882-.112.994-.126l-.084-1.694a15.438,15.438,0,0,1-3.808.378,10.094,10.094,0,0,1-2.59-.224Zm.966,2.31a4.573,4.573,0,0,0-1.288,2.884,2.345,2.345,0,0,0,.42,1.372c.616.826,1.736,1.218,3.472,1.218a17.265,17.265,0,0,0,2.9-.266,4.679,4.679,0,0,1,.574-.084l-.14-1.778a9.839,9.839,0,0,1-3.332.532c-1.456,0-2.226-.42-2.226-1.218A3.167,3.167,0,0,1,218.6,6.9ZM230.9,12.168a11.736,11.736,0,0,1-.112-1.82V3.264A21.1,21.1,0,0,1,230.9.954a10.182,10.182,0,0,1-1.428.07h-1.288a7.78,7.78,0,0,1-1.4-.084V2.718a12.45,12.45,0,0,1,1.442-.084h.672v7.714a11.621,11.621,0,0,1-.112,1.82Zm8.666.224a3.974,3.974,0,0,0,3.4-1.652A7.353,7.353,0,0,0,244.006,6.6a9.415,9.415,0,0,0-.546-3.248,3.922,3.922,0,0,0-.924-1.414A4.067,4.067,0,0,0,239.582.8a3.981,3.981,0,0,0-3.57,1.946,8.243,8.243,0,0,0-.854,3.878,9.37,9.37,0,0,0,.546,3.22,3.922,3.922,0,0,0,.924,1.414A4.033,4.033,0,0,0,239.568,12.392Zm.014-1.624a2.051,2.051,0,0,1-1.792-.91,6.3,6.3,0,0,1-.714-3.332,5.224,5.224,0,0,1,.924-3.4,1.883,1.883,0,0,1,1.568-.714A2.023,2.023,0,0,1,241.094,3a5.429,5.429,0,0,1,.98,3.584,5.4,5.4,0,0,1-.98,3.6A2.035,2.035,0,0,1,239.582,10.768Zm9.688-8.3a16.181,16.181,0,0,1-.2,2.786,9.663,9.663,0,0,1-1.862,4.62,7.461,7.461,0,0,1-2.156,1.918,4.874,4.874,0,0,1,1.176,1.344,9.271,9.271,0,0,0,2.744-2.842,11.106,11.106,0,0,0,1.554-4.186h4.354a19.022,19.022,0,0,1-.574,4.83c-.154.392-.406.5-1.092.5a12.212,12.212,0,0,1-2.2-.28,5.432,5.432,0,0,1,.378,1.6c1.232.1,1.526.112,1.988.112,1.386,0,2-.308,2.352-1.176a21.78,21.78,0,0,0,.728-5.544,13.834,13.834,0,0,1,.084-1.582,14.519,14.519,0,0,1-1.792.07H250.74a20.879,20.879,0,0,0,.126-2.17h5.25a17.621,17.621,0,0,1,1.778.084V.9A17.313,17.313,0,0,1,256.1.982h-9A16.745,16.745,0,0,1,245.308.9V2.55c.574-.056,1.162-.084,1.806-.084ZM261.408,7.66h8.33v3.416c0,.336-.084.378-.63.378-.5,0-1.2-.056-2.128-.154a5.387,5.387,0,0,1,.434,1.512c.546.028,1.316.056,1.862.056a3.443,3.443,0,0,0,1.47-.2c.406-.21.574-.6.574-1.316V2.382a13.78,13.78,0,0,1,.056-1.526,12.834,12.834,0,0,1-1.526.056h-8.512a15.041,15.041,0,0,1-1.554-.056A12.056,12.056,0,0,1,259.84,2.2v9.156a13.3,13.3,0,0,1-.084,1.68h1.722a10.292,10.292,0,0,1-.07-1.624Zm3.318-1.47h-3.318V2.4h3.318Zm1.512,0V2.4h3.5V6.19ZM283.08.548a5.718,5.718,0,0,1,.056.924,12.428,12.428,0,0,1-1.512,6.594,9.317,9.317,0,0,1-5,3.738,6.418,6.418,0,0,1,.9,1.386,11.152,11.152,0,0,0,4.69-3.346,10.913,10.913,0,0,0,3.01,3.234,6.159,6.159,0,0,1,.98-1.6,8.082,8.082,0,0,1-3.052-3.01,10.02,10.02,0,0,0,.882-2.044,18.794,18.794,0,0,0,.672-3.906c.126-1.792.126-1.792.14-1.946Zm-8.47,9.044a9.152,9.152,0,0,1-1.4.448l.448,1.708c.35-.168.448-.21.98-.448a37.469,37.469,0,0,0,5.5-2.786l-.336-1.47a29.26,29.26,0,0,1-3.6,1.9l-.07-6.678V1.962a12.358,12.358,0,0,1,.07-1.372h-1.778a12.808,12.808,0,0,1,.112,1.666Zm2.744-7.336a16.176,16.176,0,0,1,2.674,3.57l1.442-.994A20.949,20.949,0,0,0,278.7,1.4Zm15.022.154V11.1a13.86,13.86,0,0,1-.1,1.932h1.82A13.992,13.992,0,0,1,294,11.1V5.63a27.7,27.7,0,0,1,4.228,2.394l.8-1.4A35.272,35.272,0,0,0,294,4.048V2.41h3.948c.714,0,1.288.028,1.876.084V.856a18.455,18.455,0,0,1-1.876.084h-8.792A17.88,17.88,0,0,1,287.28.856V2.494c.56-.056,1.176-.084,1.876-.084Zm16.282.616a3.06,3.06,0,0,1,1.414.42,3.468,3.468,0,0,1,1.722,3.108,3.92,3.92,0,0,1-1.946,3.5,7.44,7.44,0,0,1-2.786.77,4.466,4.466,0,0,1,.854,1.638,9.153,9.153,0,0,0,2.2-.588,5.393,5.393,0,0,0,3.4-5.222c0-3.15-2.184-5.194-5.544-5.194a6.285,6.285,0,0,0-4.816,1.96,6.014,6.014,0,0,0-1.54,4.074c0,2.254,1.148,3.878,2.744,3.878,1.148,0,2.044-.826,2.842-2.632A20.254,20.254,0,0,0,308.658,3.026Zm-1.708.014a18.452,18.452,0,0,1-1.162,4.732c-.5,1.2-.98,1.792-1.442,1.792-.616,0-1.106-.91-1.106-2.058a4.687,4.687,0,0,1,1.9-3.78A3.564,3.564,0,0,1,306.95,3.04Zm11.3-.574a7.412,7.412,0,0,1,.574,1.414l1.372-.42a6.564,6.564,0,0,0-.49-.994h.714c.238,0,.56.014.756.028-.112.112-.168.154-.308.28a3.685,3.685,0,0,1,.742.6h-1.022a3.209,3.209,0,0,1,.084.812h-2.7a11.319,11.319,0,0,1-1.554-.07V5.5a13.858,13.858,0,0,1,1.54-.07h2.716v.91h-3.752a11.669,11.669,0,0,1-1.61-.084V7.716a14.168,14.168,0,0,1,1.638-.084h6.566v.91h-6.5a13.329,13.329,0,0,1-1.61-.084V9.9a12.937,12.937,0,0,1,1.624-.084h1.708l-1.05.812A9.95,9.95,0,0,1,319.62,12.6l1.26-.966a14.54,14.54,0,0,0-1.932-1.82h4.564V11.4c0,.28-.112.336-.616.336a14.83,14.83,0,0,1-1.75-.1,5.264,5.264,0,0,1,.42,1.456c.518.014.756.028,1.05.028a5.894,5.894,0,0,0,1.652-.14c.518-.182.728-.546.728-1.218V9.816h1.092a13.34,13.34,0,0,1,1.638.084V8.458a13.578,13.578,0,0,1-1.624.084H325v-.91h1.232a13.167,13.167,0,0,1,1.61.084V6.26a11.9,11.9,0,0,1-1.624.084h-4.088v-.91H325.3a11.652,11.652,0,0,1,1.512.084v-1.4a10.626,10.626,0,0,1-1.526.07h-3.164a3.685,3.685,0,0,1,.056-.714,7.475,7.475,0,0,0,.84-.994h.77a8.322,8.322,0,0,1,.686,1.414l1.386-.434a7,7,0,0,0-.546-.98h1.092a10.968,10.968,0,0,1,1.47.07V1.108a10.55,10.55,0,0,1-1.54.084h-2.562c.182-.364.28-.574.308-.63l-1.4-.378a5.251,5.251,0,0,1-1.246,2.058V1.094a8.369,8.369,0,0,1-1.358.084H318.29c.1-.168.1-.168.392-.742L317.17.156a4.031,4.031,0,0,1-.5,1.134A5.688,5.688,0,0,1,315,3.026a5.52,5.52,0,0,1,1.05,1.008,8.235,8.235,0,0,0,1.428-1.568Zm17.514-.322a28.108,28.108,0,0,1-.21,3.878,14.6,14.6,0,0,1-.994,4.032,17.851,17.851,0,0,0-.392-2.128l-1.05.252a13.333,13.333,0,0,1,.392,2.52l.882-.294a8.426,8.426,0,0,1-1.12,1.736,4,4,0,0,1,1.162,1.036,11.217,11.217,0,0,0,1.68-3.234,14.248,14.248,0,0,0,.728-3.682,11.017,11.017,0,0,0,1.428,3.612,8.373,8.373,0,0,1-2.744,1.96,4.507,4.507,0,0,1,.938,1.3,10.716,10.716,0,0,0,2.7-2.072A12.257,12.257,0,0,0,341.5,13.12a6.492,6.492,0,0,1,.812-1.484,9.554,9.554,0,0,1-2.24-1.778,8.541,8.541,0,0,0,.938-1.708c.21-.56.5-1.456.574-1.75.238-.994.238-.994.28-1.148.07-.28.07-.28.1-.378l-.56-.6a4.919,4.919,0,0,1-.91.056h-.5c.168-.588.42-1.61.56-2.31.182-.882.182-.882.28-1.316a11.326,11.326,0,0,1-1.33.056h-3.458a11.9,11.9,0,0,1-1.624-.084v1.54a7.4,7.4,0,0,1,1.162-.07Zm3.29,0a27.876,27.876,0,0,1-.91,3.556c.28-.014.35-.014.742-.014H340.3a8.922,8.922,0,0,1-1.148,3A9.593,9.593,0,0,1,337.806,5.7a16.263,16.263,0,0,1-.6-3.556Zm-9.674,5.39a3.466,3.466,0,0,1,.672-.084c.126,0,.448-.028.938-.07l.448-.028v4.312a9.012,9.012,0,0,1-.084,1.5h1.526a8.714,8.714,0,0,1-.084-1.5V7.24c.168-.028.546-.07,1.12-.14.056.2.07.28.14.532l1.092-.546a15.305,15.305,0,0,0-1.106-2.73l-1.022.49a7.567,7.567,0,0,1,.49,1.078,13.759,13.759,0,0,1-1.652.126c.28-.35.924-1.218,1.19-1.624C334,3,334.362,2.452,334.446,2.34l-1.3-.7a11,11,0,0,1-1.33,2.38c-.2-.252-.266-.336-.532-.63a17.741,17.741,0,0,0,1.26-2.128c.168-.308.224-.392.35-.588l-1.4-.532a9.484,9.484,0,0,1-1.106,2.3c-.182-.182-.266-.266-.546-.518l-.7,1.218a13.639,13.639,0,0,1,1.89,2.044c-.308.448-.42.6-.686.938h-.224a8.732,8.732,0,0,1-.924-.028Zm.392.518a12.725,12.725,0,0,1-.63,3.724l1.218.546A17.72,17.72,0,0,0,331,8.234Zm16.492,4.284c-.014-.182-.014-.294-.014-.378a11.493,11.493,0,0,1,1.246-4.242l-1.12-.5a14.281,14.281,0,0,0-.728,1.848c.014-.35.028-.462.028-.77a23.379,23.379,0,0,1,.21-3.094,19.3,19.3,0,0,1,.882-4.186l-1.848-.2a9.159,9.159,0,0,1-.21,1.3,26.877,26.877,0,0,0-.574,5.474,24.418,24.418,0,0,0,.364,4.186c.042.322.056.406.07.658Zm1.932-8.386a16.62,16.62,0,0,0,2.52.154,25.078,25.078,0,0,0,3-.168c.672-.084.882-.112.994-.126l-.084-1.694a15.438,15.438,0,0,1-3.808.378,10.094,10.094,0,0,1-2.59-.224Zm.966,2.31a4.574,4.574,0,0,0-1.288,2.884,2.345,2.345,0,0,0,.42,1.372c.616.826,1.736,1.218,3.472,1.218a17.264,17.264,0,0,0,2.9-.266,4.678,4.678,0,0,1,.574-.084l-.14-1.778a9.839,9.839,0,0,1-3.332.532c-1.456,0-2.226-.42-2.226-1.218a3.167,3.167,0,0,1,.994-2.016Zm19.726.378a6.912,6.912,0,0,1,1.05.056V5.28a6.8,6.8,0,0,1-1.218.07h-5.642c.014-.686.028-1.036.028-1.68V2.2h5.222a11.772,11.772,0,0,1,1.456.056V.758a11.6,11.6,0,0,1-1.554.084h-4.914c-.588,0-1.176-.028-1.652-.07a17.077,17.077,0,0,1,.056,1.778c0,5.824-.238,7.392-1.456,9.352a6.512,6.512,0,0,1,1.176,1.148,11.577,11.577,0,0,0,1.078-2.632,16.2,16.2,0,0,0,.5-3.78h.77v4.634a7.5,7.5,0,0,1-1.5.182l.336,1.554a6.451,6.451,0,0,1,.644-.182,33.67,33.67,0,0,0,3.64-1.008V10.46c-.8.266-1.064.336-1.708.5V6.638h.77a10.224,10.224,0,0,0,.98,3.556,8.9,8.9,0,0,0,2.2,2.87,6.062,6.062,0,0,1,.98-1.316,6.11,6.11,0,0,1-2-2.17,5.275,5.275,0,0,0,.77-.56c.84-.686.84-.686,1.12-.91l-.98-.966a6.138,6.138,0,0,1-1.428,1.246,8.835,8.835,0,0,1-.364-1.75Zm-10.164-2.38V6.932a8.8,8.8,0,0,1-1.61.448l.224,1.54a1.314,1.314,0,0,1,.21-.084c.378-.126.7-.252,1.176-.434v2.926c0,.322-.07.392-.378.392a9.311,9.311,0,0,1-1.134-.1,5.608,5.608,0,0,1,.336,1.456c.672.028.742.028,1.008.028,1.26,0,1.624-.308,1.624-1.372V7.814c.336-.154.5-.238,1.078-.532V5.868c-.546.266-.742.364-1.078.5V4.258h.448a6.106,6.106,0,0,1,.714.042V2.844a3.661,3.661,0,0,1-.728.056h-.434V1.71A9.729,9.729,0,0,1,360.248.3h-1.61a7.765,7.765,0,0,1,.084,1.414V2.9h-.49a5.351,5.351,0,0,1-.994-.07v1.5a5.771,5.771,0,0,1,.98-.07ZM369.208,3.1a6.4,6.4,0,0,1-1.022.056h-3.64a5.17,5.17,0,0,1-.938-.056V4.44a8.142,8.142,0,0,1,.938-.042H368.2a6.538,6.538,0,0,1,1.008.056Zm4.55-2.632a3.288,3.288,0,0,1-.042.476l-.21,1.736c-.112.966-.2,2.52-.2,3.654,0,.28.028,1.316.042,1.722v.266a1.088,1.088,0,0,1-.014.182l1.68-.028V8.178a6.712,6.712,0,0,1,1.764-4.522,2.084,2.084,0,0,1,1.512-.742c1.2,0,1.876,1.12,1.876,3.136,0,2.128-.742,3.458-2.366,4.284a8.173,8.173,0,0,1-3.066.8,5.355,5.355,0,0,1,.826,1.652A11.94,11.94,0,0,0,378.308,12a5.884,5.884,0,0,0,3.612-5.754,5.863,5.863,0,0,0-1.008-3.724,2.932,2.932,0,0,0-2.394-1.26,3.342,3.342,0,0,0-2.66,1.428,5.66,5.66,0,0,0-.882,1.666,3.067,3.067,0,0,1-.084.308h-.042c.028-.336.084-.812.182-1.4a13.732,13.732,0,0,1,.5-2.7Zm15.876,5.992a6.957,6.957,0,0,1-.084.812,5.417,5.417,0,0,1-1.834,3.192,6.606,6.606,0,0,1-2.17,1.288,4.969,4.969,0,0,1,1.022,1.372,8.109,8.109,0,0,0,3.556-3.08,7.449,7.449,0,0,0,1.092-3.584H393.9v.812a13.752,13.752,0,0,1-.434,3.724c-.126.21-.28.266-.8.266a11.51,11.51,0,0,1-1.694-.182,6.013,6.013,0,0,1,.42,1.638c.938.042,1.162.056,1.442.056,1.246,0,1.75-.2,2.058-.812a19.093,19.093,0,0,0,.588-5.852V5.63a14.274,14.274,0,0,0,1.736,1.47,6.517,6.517,0,0,1,1.064-1.512,10.857,10.857,0,0,1-3.878-4.06A5.233,5.233,0,0,1,393.862.31l-1.554.6a5.744,5.744,0,0,1,.294.588,14,14,0,0,0,2.31,3.514c-.336.014-.532.014-.868.014h-5.152A7.236,7.236,0,0,1,388.164,5a15.57,15.57,0,0,0,2.254-3.4A3.958,3.958,0,0,1,390.8.884l-1.68-.6a4.352,4.352,0,0,1-.56,1.414,10.794,10.794,0,0,1-3.682,4.018,4.867,4.867,0,0,1,1.078,1.372,13.915,13.915,0,0,0,1.75-1.554v.994a9.729,9.729,0,0,1,1.19-.07Zm14.084-1.2h.21c.168,0,.224,0,.63.028.364.014.882.028,1.274.028.7,0,1.428-.014,1.9-.056.014.462.014.588.014.882,0,2.072-.252,3.052-.98,3.934a5.769,5.769,0,0,1-2.142,1.526,5.515,5.515,0,0,1,1.358,1.316,9.107,9.107,0,0,0,1.526-1.064,5.247,5.247,0,0,0,1.6-2.716,13.889,13.889,0,0,0,.294-3.346c0-.252,0-.378-.014-.672a9.889,9.889,0,0,0,1.358-.238,6.822,6.822,0,0,1,.784-.14l-.1-1.666a7.7,7.7,0,0,1-2.086.532c-.028-.9-.056-1.428-.056-1.582-.028-.63-.028-.756-.028-.9a3.054,3.054,0,0,1,.028-.476l-1.778.028a21.62,21.62,0,0,1,.182,3.094c-.728.042-.952.056-1.484.056a12.473,12.473,0,0,1-2.492-.182Zm-.9,1.806a14.446,14.446,0,0,0-.924,2.31c0-.224-.014-.308-.028-.532V8.584c-.014-.686-.014-.924-.014-1.078-.014-.224-.014-.392-.014-.434,0-.266.028-.672.1-1.6a18.861,18.861,0,0,1,.364-2.758,13.523,13.523,0,0,1,.406-1.708L400.862.828a6.16,6.16,0,0,1-.1,1.036,30.092,30.092,0,0,0-.518,5.306,20.146,20.146,0,0,0,.5,4.55,2.282,2.282,0,0,1,.1.532l1.624-.084a12.179,12.179,0,0,1,1.6-4.494ZM414.414,4.8a5.262,5.262,0,0,1,.616-.042A48.787,48.787,0,0,0,420,4.426a15.481,15.481,0,0,0,1.512,2.548,6.5,6.5,0,0,0-2.422-.42,5.352,5.352,0,0,0-3.57,1.008,2.723,2.723,0,0,0-1.008,2.086,2.611,2.611,0,0,0,.826,1.89A5.777,5.777,0,0,0,419.23,12.6a14.452,14.452,0,0,0,4.438-.756l-.224-1.792a9.727,9.727,0,0,1-4.214.938c-1.9,0-2.94-.5-2.94-1.414,0-.994,1.12-1.568,3.024-1.568a7.016,7.016,0,0,1,2.212.322,2.474,2.474,0,0,1,.966.6l1.624-.742c-.49-.658-1.106-1.568-1.484-2.212-.14-.252-.462-.84-.966-1.778q1.743-.336,2.058-.42c.476-.1.63-.14.994-.2l-.2-1.666a21.3,21.3,0,0,1-3.43.826,11.729,11.729,0,0,1-.77-2.24l-1.806.238c.07.112.672,1.6.91,2.212-.868.112-2.73.238-3.78.238a9.6,9.6,0,0,1-1.358-.07Zm16.786.6c.014-.168.028-.252.028-.252l.028-.826c.084-.112.112-.14.168-.224a1.275,1.275,0,0,1,.2-.252,2.343,2.343,0,0,1,.406-.42l-.518-.588c-.1.028-.154.056-.168.056.028-.854.042-.966.056-1.246s.042-.462.042-.532A1.95,1.95,0,0,1,431.494.6L429.716.576a4.653,4.653,0,0,1,.042.784c0,.322-.014.756-.014,1.148-.014.322-.014.322-.028.532-.658.042-1.428.084-1.694.084a4.343,4.343,0,0,1-.574-.028l.084,1.582a18.039,18.039,0,0,1,2.142-.2c0,.378-.014.406-.014.728-.028.546-.028.7-.042,1.372-.266.294-.266.294-1.582,1.6a6.274,6.274,0,0,1-.91.8l.812,1.666a7.993,7.993,0,0,1,.644-.8,10.9,10.9,0,0,0,.994-1.176l.028-.014c-.028.378-.028.378-.028,1.876a12.287,12.287,0,0,1-.1,2.226h1.806a18.891,18.891,0,0,1-.07-2.31c-.014-1.554-.014-1.554-.014-1.666,0-.392,0-.784.028-1.414a15.916,15.916,0,0,1,2.548-2.282,3.353,3.353,0,0,1,1.736-.756c.378,0,.574.182.574.518a8.877,8.877,0,0,1-.294,1.764,14.121,14.121,0,0,0-.574,3.514,2,2,0,0,0,.728,1.764,2.08,2.08,0,0,0,1.2.364,2.708,2.708,0,0,0,2.072-1.008,6.388,6.388,0,0,0,.98-1.386,6.807,6.807,0,0,1-.938-1.68,6.871,6.871,0,0,1-.812,1.6,1.4,1.4,0,0,1-.98.714c-.364,0-.574-.252-.574-.7a17.7,17.7,0,0,1,.588-3.15,10.016,10.016,0,0,0,.35-2.142,1.806,1.806,0,0,0-1.96-1.862,5.012,5.012,0,0,0-2.954,1.316,10.264,10.264,0,0,0-1.708,1.456ZM441.21,4.09a20.321,20.321,0,0,1,2.324-.28c3.038-.224,3.584-.266,4.718-.434a6.171,6.171,0,0,0-1.946,1.4,4.936,4.936,0,0,0-1.33,3.3,3.746,3.746,0,0,0,2,3.374,8.422,8.422,0,0,0,3.276.924,2.974,2.974,0,0,1,.476.084l.252-1.9c-.14.014-.266.014-.28.014a8.5,8.5,0,0,1-2.086-.364,2.351,2.351,0,0,1-1.862-2.282c0-1.414,1.05-2.814,2.828-3.738a6.261,6.261,0,0,1,2.772-.756,2.168,2.168,0,0,1,.294.014l-.1-1.792a7.9,7.9,0,0,1-1.61.14c-3.878.182-6.2.308-6.986.35-2.058.14-2.058.14-2.31.14-.07,0-.224,0-.532-.014ZM455.5,1.71a6.682,6.682,0,0,1,.056.9c.056,3.878.308,5.908.882,7.308.56,1.344,1.316,2.03,2.254,2.03,1.19,0,2-1.134,2.73-3.864a6.911,6.911,0,0,1-1.4-1.274,10.32,10.32,0,0,1-.742,2.534c-.168.392-.364.6-.574.6-.448,0-.9-.9-1.134-2.352a26.2,26.2,0,0,1-.266-3.752,16.28,16.28,0,0,1,.112-2.128Zm7.07,1.33a12.221,12.221,0,0,1,1.988,3.444,14.192,14.192,0,0,1,.9,4.046l1.736-.658a13.957,13.957,0,0,0-3.15-7.532Zm10.948,3.15a5.5,5.5,0,0,0,.574-.364c.28-.182,1.288-.938,1.54-1.148.476-.406,1.5-1.316,2.2-1.96a3,3,0,0,1,.728-.574L477.694.912a2.063,2.063,0,0,1-.868.182c-1.358.1-3.066.168-4.256.168a12.662,12.662,0,0,1-1.652-.084l.07,1.68a4.723,4.723,0,0,1,.672-.07c2.534-.112,3.43-.168,3.962-.238l.014.014-.252.252a46.746,46.746,0,0,1-4.186,3.64,12.589,12.589,0,0,1-1.974,1.316l.952,1.512a8.626,8.626,0,0,1,5.768-2.352c1.694,0,2.772.714,2.772,1.806,0,.994-.5,1.6-1.666,2.03a3.765,3.765,0,0,0-.644-1.26,3.013,3.013,0,0,0-2.422-1.148,2.155,2.155,0,0,0-2.408,2,2,2,0,0,0,.84,1.61,4.736,4.736,0,0,0,2.716.644,6.927,6.927,0,0,0,3.388-.8,3.421,3.421,0,0,0,1.9-3.094c0-1.918-1.54-3.15-3.934-3.15a6.834,6.834,0,0,0-2.94.644Zm2.016,4.984a3.789,3.789,0,0,1-.728.056c-1.036,0-1.666-.322-1.666-.882,0-.392.322-.644.826-.644C474.754,9.7,475.286,10.208,475.538,11.174Zm9.45-8.064a4.2,4.2,0,0,1,.518.042,22.075,22.075,0,0,0,2.562.168,14.923,14.923,0,0,0,2.1-.112c-.644.364-1.33.784-2.058,1.246l1.218.966A25.74,25.74,0,0,1,493.066,3.1l-.056-1.568a17.362,17.362,0,0,1-3.7.266,18.362,18.362,0,0,1-4.2-.35Zm1.036,3.164c-1.26,1.05-1.806,1.974-1.806,3.038a2.4,2.4,0,0,0,1.792,2.338,10.015,10.015,0,0,0,3.5.462,23.954,23.954,0,0,0,3.78-.308,5.566,5.566,0,0,1,.616-.056l-.154-1.918a14.931,14.931,0,0,1-4.4.588c-2.366,0-3.388-.392-3.388-1.3,0-.6.392-1.19,1.274-1.918ZM500.178.786a5.947,5.947,0,0,1,.224.91,35.671,35.671,0,0,0,.938,3.794,8.642,8.642,0,0,0-1.9,1.2A3.288,3.288,0,0,0,498.19,9.2a2.65,2.65,0,0,0,1.218,2.338,7.84,7.84,0,0,0,4.06.77,29.586,29.586,0,0,0,3.276-.21,8.727,8.727,0,0,1,1.134-.1l-.154-1.918a15.327,15.327,0,0,1-4.522.574c-2.254,0-3.206-.434-3.206-1.456s1.022-1.9,3.066-2.66a34.207,34.207,0,0,1,4.62-1.344l-.6-1.764a3.831,3.831,0,0,1-.532.21c-2.716.9-2.716.9-3.626,1.232A23.513,23.513,0,0,1,502,.492ZM519.988,4.3a13.1,13.1,0,0,1,1.918,4.55l1.6-.8A13.021,13.021,0,0,0,521.4,3.6Zm-4.116-3.08a3.261,3.261,0,0,1,.112-.434L514.164.6V.856a19.686,19.686,0,0,1-.364,2.828,28.753,28.753,0,0,1-2.982.294l.168,1.652a5.747,5.747,0,0,1,.574-.14l1.274-.21c.448-.084.448-.084.658-.112a20.593,20.593,0,0,1-2.814,6.594l1.624.9a30.057,30.057,0,0,0,2.856-7.616C515.48,5.014,515.7,5,516,5c1.078,0,1.4.378,1.4,1.666a12.439,12.439,0,0,1-.364,3.192c-.21.686-.434.952-.84.952a5.861,5.861,0,0,1-2.044-.56,5.259,5.259,0,0,1,.14,1.19c0,.14-.014.35-.028.616a6.49,6.49,0,0,0,2.156.42,1.773,1.773,0,0,0,1.554-.63c.672-.77,1.078-2.688,1.078-5.1a3.4,3.4,0,0,0-.658-2.478,2.712,2.712,0,0,0-2.072-.742c-.252,0-.448.014-.868.028.042-.182.042-.182.084-.42.14-.756.238-1.33.308-1.736Zm3.248.1A9.449,9.449,0,0,1,520.59,3.4l.98-.518A9.074,9.074,0,0,0,520.1.828Zm4.116.658A8.1,8.1,0,0,0,521.78,0l-.938.49a10.316,10.316,0,0,1,1.428,2.03Zm9.52,1.806a5.247,5.247,0,0,1-.28,1.064,3.963,3.963,0,0,0-.532-.028A7.747,7.747,0,0,0,530.012,5c.014-.294.028-.742.07-1.344a44.916,44.916,0,0,0,4.928-.49c.294-.042.35-.042.546-.056l-.07-1.61a25.369,25.369,0,0,1-5.306.742A8.241,8.241,0,0,1,530.432.52L528.7.436a.788.788,0,0,1,.028.224c0,.266-.014.616-.028.8-.042.56-.042.56-.056.84h-.308a12.386,12.386,0,0,1-2.618-.21V3.656c.154-.014.28-.014.322-.014h.266c1.358.042,2.114.056,2.268.056-.028.672-.056,1.232-.056,1.68a5.786,5.786,0,0,0-1.918,1.26,4.4,4.4,0,0,0-1.386,3.136,2.211,2.211,0,0,0,2.184,2.45,5.35,5.35,0,0,0,3.668-2.016A12.356,12.356,0,0,0,533.5,6.484a2.053,2.053,0,0,1,1.568,1.932,2.351,2.351,0,0,1-1.638,2.184,5.8,5.8,0,0,1-2.674.56,4.509,4.509,0,0,1,.742,1.582A7.8,7.8,0,0,0,534.352,12a3.806,3.806,0,0,0,2.408-3.5,3.123,3.123,0,0,0-1.33-2.646,3.77,3.77,0,0,0-1.456-.686c.042-.126.056-.14.2-.532a3.24,3.24,0,0,1,.168-.406Zm-4.214,3.192a15.355,15.355,0,0,0,.252,3.164,1.929,1.929,0,0,1-1.218.532c-.49,0-.8-.392-.8-1.022a2.776,2.776,0,0,1,.63-1.708A4.164,4.164,0,0,1,528.542,6.974Zm1.582,2.114a.575.575,0,0,1-.014-.154.741.741,0,0,0-.014-.182,23.261,23.261,0,0,1-.1-2.408,5.143,5.143,0,0,1,1.68-.252,3.288,3.288,0,0,1,.364.014,10.651,10.651,0,0,1-1.736,2.8,1.3,1.3,0,0,0-.154.2ZM541.2.464a3.3,3.3,0,0,1-.042.476l-.21,1.736c-.112.966-.2,2.52-.2,3.654,0,.28.028,1.316.042,1.722v.266a1.086,1.086,0,0,1-.014.182l1.68-.028V8.178a6.712,6.712,0,0,1,1.764-4.522,2.084,2.084,0,0,1,1.512-.742c1.2,0,1.876,1.12,1.876,3.136,0,2.128-.742,3.458-2.366,4.284a8.172,8.172,0,0,1-3.066.8A5.354,5.354,0,0,1,543,12.784,11.94,11.94,0,0,0,545.748,12a5.884,5.884,0,0,0,3.612-5.754,5.863,5.863,0,0,0-1.008-3.724,2.932,2.932,0,0,0-2.394-1.26A3.342,3.342,0,0,0,543.3,2.69a5.66,5.66,0,0,0-.882,1.666,3.062,3.062,0,0,1-.084.308h-.042c.028-.336.084-.812.182-1.4a13.736,13.736,0,0,1,.5-2.7Zm23.394,10.052c-.2-.112-.266-.168-.5-.322a12.521,12.521,0,0,0-3.836-1.974c-.014-.336-.014-.336-.056-1.694.546-.028.756-.042.952-.056,1.05-.1,1.68-.168,1.89-.2.322-.042.672-.084.91-.1l-.042-1.54a10.361,10.361,0,0,1-1.736.308c-1.288.14-1.288.14-1.988.182-.014-.868-.014-1.036-.028-1.386,1.232-.07,1.778-.112,3.01-.28a8.757,8.757,0,0,1,1.106-.126L564.2,1.78a18.94,18.94,0,0,1-4.032.532,8.681,8.681,0,0,1,.1-1.708h-1.778a9.982,9.982,0,0,1,.07,1.764c-.35.014-.826.028-1.05.028a18.409,18.409,0,0,1-3.766-.294l-.014,1.554h.224c.042,0,.154,0,.308.014.938.07,2.744.14,3.43.14.21,0,.434,0,.882-.014.014.8.014,1.274.014,1.4-.392.014-.868.028-1.148.028a18.053,18.053,0,0,1-3.262-.238L554.148,6.5c.21,0,.35,0,.532.014,1.162.084,1.68.1,2.534.1.294,0,.728-.014,1.4-.028.014.56.014.56.028.756v.308a2.69,2.69,0,0,1,.014.336,7.315,7.315,0,0,0-.938-.056c-2.352,0-3.738.9-3.738,2.422,0,1.386,1.176,2.184,3.22,2.184a3.727,3.727,0,0,0,2.31-.6,2.184,2.184,0,0,0,.784-1.89V9.886a6.228,6.228,0,0,1,.756.35,9.446,9.446,0,0,1,2.59,1.918Zm-5.908-1.078v.336a1.775,1.775,0,0,1-.168.9,1.454,1.454,0,0,1-1.218.448c-.994,0-1.6-.322-1.6-.84,0-.6.686-.966,1.82-.966A4.914,4.914,0,0,1,558.684,9.438Zm16.352-4.886v-.91c1.106-.028,1.358-.028,1.694-.028,1.162,0,1.834.028,2.352.07l-.014-1.61c-.518.056-1.61.084-4.046.1a11.016,11.016,0,0,1,.07-1.666L573.328.52a7.6,7.6,0,0,1,.084,1.694c-.728.028-.728.028-1.19.042-1.148.028-1.288.028-2.2.056-1.806.07-2.03.07-2.38.07a6.1,6.1,0,0,1-.686-.028l.056,1.666c.378-.056.378-.056,2.492-.21.616-.042,1.932-.084,3.934-.14,0,.378,0,1.162.014,1.19a.578.578,0,0,0,.014.168,2.339,2.339,0,0,0-1.456-.42,2.577,2.577,0,0,0-2.786,2.548,2.188,2.188,0,0,0,.966,1.89,2.58,2.58,0,0,0,1.624.5,2.306,2.306,0,0,0,2.058-.994A2.947,2.947,0,0,1,572.25,10.6a6.607,6.607,0,0,1-2.38.812,4.6,4.6,0,0,1,.994,1.582,9.788,9.788,0,0,0,2.534-1.148,4.492,4.492,0,0,0,2.086-3.78,4.261,4.261,0,0,0-.448-1.974c0-.168-.014-.28-.014-.336Zm-1.61,2.31a1.276,1.276,0,0,1-1.372,1.26,1.1,1.1,0,0,1-1.19-1.106,1.226,1.226,0,0,1,1.3-1.12C572.936,5.9,573.426,6.274,573.426,6.862Zm8.26,1.5a2.373,2.373,0,1,0,2.366,2.366A2.372,2.372,0,0,0,581.686,8.36Zm0,1.092a1.281,1.281,0,1,1-1.274,1.274A1.279,1.279,0,0,1,581.686,9.452ZM7,30.19,2.044,25.22l-.462.462,4.97,5-4.97,4.97.462.462L7,31.184l4.97,4.928.448-.462-4.97-4.97,4.97-5-.448-.462Zm.014-4.634A1.076,1.076,0,0,0,5.936,26.62,1.088,1.088,0,0,0,7.014,27.7a1.071,1.071,0,0,0,0-2.142ZM3,29.6a1.067,1.067,0,0,0-1.078,1.064A1.088,1.088,0,0,0,3,31.744,1.071,1.071,0,0,0,3,29.6ZM11,29.616a1.064,1.064,0,1,0,1.064,1.064A1.064,1.064,0,0,0,11,29.616Zm-4,4.06-.028.028c-.014,0-.014,0-.028-.014a.051.051,0,0,0-.042-.014A1.08,1.08,0,0,0,7,35.832a1.085,1.085,0,0,0,1.064-1.078A1.067,1.067,0,0,0,7,33.676Zm14.056,2.492c.9,0,1.456.028,2.114.084V34.4a14.71,14.71,0,0,1-2.044.112h-3.92a3.375,3.375,0,0,1,.8-1.26,12.248,12.248,0,0,1,1.666-1.4,17.526,17.526,0,0,0,2.352-1.722,2.842,2.842,0,0,0,.994-2.24c0-1.918-1.512-3.094-3.962-3.094a4.071,4.071,0,0,0-3.206,1.246,4.2,4.2,0,0,0-.966,2.24l2,.238a2.661,2.661,0,0,1,.434-1.288A1.978,1.978,0,0,1,19.1,26.41c1.19,0,1.932.588,1.932,1.54,0,.714-.392,1.176-1.68,2.058a19.28,19.28,0,0,0-2.31,1.694,6.91,6.91,0,0,0-1.918,2.744,7.153,7.153,0,0,0-.364,1.792,12.9,12.9,0,0,1,1.806-.07Zm14.63,0c.9,0,1.456.028,2.114.084V34.4a14.71,14.71,0,0,1-2.044.112h-3.92a3.375,3.375,0,0,1,.8-1.26,12.248,12.248,0,0,1,1.666-1.4,17.527,17.527,0,0,0,2.352-1.722,2.842,2.842,0,0,0,.994-2.24c0-1.918-1.512-3.094-3.962-3.094a4.071,4.071,0,0,0-3.206,1.246,4.2,4.2,0,0,0-.966,2.24l2,.238a2.661,2.661,0,0,1,.434-1.288,1.978,1.978,0,0,1,1.778-.826c1.19,0,1.932.588,1.932,1.54,0,.714-.392,1.176-1.68,2.058a19.28,19.28,0,0,0-2.31,1.694,6.909,6.909,0,0,0-1.918,2.744,7.153,7.153,0,0,0-.364,1.792,12.9,12.9,0,0,1,1.806-.07Zm7.882.224a3.974,3.974,0,0,0,3.4-1.652A7.353,7.353,0,0,0,48.006,30.6a9.415,9.415,0,0,0-.546-3.248,3.922,3.922,0,0,0-.924-1.414A4.067,4.067,0,0,0,43.582,24.8a3.981,3.981,0,0,0-3.57,1.946,8.243,8.243,0,0,0-.854,3.878,9.37,9.37,0,0,0,.546,3.22,3.922,3.922,0,0,0,.924,1.414A4.033,4.033,0,0,0,43.568,36.392Zm.014-1.624a2.051,2.051,0,0,1-1.792-.91,6.3,6.3,0,0,1-.714-3.332,5.224,5.224,0,0,1,.924-3.4,1.883,1.883,0,0,1,1.568-.714A2.023,2.023,0,0,1,45.094,27a5.429,5.429,0,0,1,.98,3.584,5.4,5.4,0,0,1-.98,3.6A2.035,2.035,0,0,1,43.582,34.768Zm11.256,1.4a11.736,11.736,0,0,1-.112-1.82V27.264a21.1,21.1,0,0,1,.112-2.31,10.182,10.182,0,0,1-1.428.07H52.122a7.78,7.78,0,0,1-1.4-.084v1.778a12.45,12.45,0,0,1,1.442-.084h.672v7.714a11.621,11.621,0,0,1-.112,1.82Zm4.55-2.2a3.965,3.965,0,0,0,1.148,1.554,4.044,4.044,0,0,0,2.7.812,3.878,3.878,0,0,0,2.982-1.064A7.058,7.058,0,0,0,67.7,30.414a8.969,8.969,0,0,0-.406-2.9,3.97,3.97,0,0,0-3.85-2.758,4.576,4.576,0,0,0-2.45.616,3.691,3.691,0,0,0-1.778,3.29,3.5,3.5,0,0,0,3.808,3.682A3.806,3.806,0,0,0,65.3,31.7a2.734,2.734,0,0,0,.742-.8,4.6,4.6,0,0,1-1.092,3.332,2.506,2.506,0,0,1-3.192,0,2.324,2.324,0,0,1-.434-.77Zm3.92-3.136a2.091,2.091,0,0,1-2.226-2.24,2.317,2.317,0,0,1,4.634-.042A2.3,2.3,0,0,1,63.308,30.834Zm8.148,1.694h-.714a11.733,11.733,0,0,1-1.526-.084v1.6a12.04,12.04,0,0,1,1.526-.084h4.7v1.722a10.2,10.2,0,0,1-.084,1.526H77.07a8.43,8.43,0,0,1-.084-1.5v-1.75h3.248a11.885,11.885,0,0,1,1.526.084v-1.6a11.436,11.436,0,0,1-1.526.084H76.986V30.26h2.3a13.175,13.175,0,0,1,1.4.056V28.832a10.277,10.277,0,0,1-1.442.07H76.986v-1.82h2.856a10.3,10.3,0,0,1,1.428.07V25.626a9.941,9.941,0,0,1-1.428.07H73.29c.252-.546.392-.84.406-.882.1-.21.126-.252.21-.42l-1.666-.336A4.044,4.044,0,0,1,71.9,25.08a8.69,8.69,0,0,1-2.73,3.514A6.128,6.128,0,0,1,70.21,29.84a12.909,12.909,0,0,0,2.31-2.758h2.926V28.9H72.394c-.378,0-.686-.014-.98-.042a7.687,7.687,0,0,1,.042.812Zm1.47,0V30.26h2.52v2.268ZM87.584,28.8V30.12a8.256,8.256,0,0,1-.056.882c.252-.014.434-.014.98-.014H92.4c.56,0,.588,0,.91.014a7.743,7.743,0,0,1-.042-.882V28.8h1.344a8.863,8.863,0,0,1,1.246.056V27.474a7.564,7.564,0,0,1-1.246.07H93.268v-.98h1.078a14.459,14.459,0,0,1,1.47.056V25.164a12.65,12.65,0,0,1-1.694.084H90.65v-.294a3.365,3.365,0,0,1,.07-.812H89.054a4.7,4.7,0,0,1,.07.8v.308H85.638c-.6,0-1.092-.028-1.582-.07.042.5.056.868.056,1.9a29.865,29.865,0,0,1-.406,6.314,7.582,7.582,0,0,1-.868,2.394,5.785,5.785,0,0,1,1.176,1.288,10.08,10.08,0,0,0,1.19-3.332A29.039,29.039,0,0,0,85.6,28.8Zm-1.974-1.26v-.98h1.974v.98Zm3.444,0v-.98H91.8v.98Zm0,1.26H91.8v.966H89.054Zm4.592,2.94c-.336.028-.588.042-1.162.042H87.6a9.731,9.731,0,0,1-1.5-.07v1.316c.294-.028.5-.042.994-.056A8.118,8.118,0,0,0,89,34.964a13.23,13.23,0,0,1-4,.784,4.761,4.761,0,0,1,.546,1.442,15.08,15.08,0,0,0,4.788-1.372,13.909,13.909,0,0,0,5.054,1.358,6.847,6.847,0,0,1,.588-1.582,12.3,12.3,0,0,1-4.144-.658,11.462,11.462,0,0,0,2.31-2.1c.126-.14.14-.154.266-.28Zm-1.5,1.232a7.886,7.886,0,0,1-1.736,1.316,5.494,5.494,0,0,1-1.624-1.316ZM102.69,26.1v4.76H98.91a10.7,10.7,0,0,1-1.722-.1V32.4a13.511,13.511,0,0,1,1.764-.1h3.738v3.122a15.444,15.444,0,0,1-.1,1.806h1.778a16.311,16.311,0,0,1-.1-1.806V32.3h3.85a12.156,12.156,0,0,1,1.764.1V30.764a10.49,10.49,0,0,1-1.666.1h-3.948V26.1h3.318a14.605,14.605,0,0,1,1.708.084v-1.6a14.4,14.4,0,0,1-1.75.084h-7.98a14.72,14.72,0,0,1-1.75-.084v1.6A15.036,15.036,0,0,1,99.54,26.1Zm-4.214,1.036a12.417,12.417,0,0,1,1.652,3.374l1.442-.728a14.858,14.858,0,0,0-1.736-3.29Zm8.694-.63a10.389,10.389,0,0,1-1.876,3.388l1.386.7a15.18,15.18,0,0,0,1.932-3.43Zm5.614,1.386h-.406a6.9,6.9,0,0,1-1.2-.084v1.54a7.116,7.116,0,0,1,1.2-.07h.406v4.186a8.241,8.241,0,0,1-1.736.476l.35,1.582c.378-.154.392-.168,1.134-.434a30.912,30.912,0,0,0,3.22-1.372l-.028-1.5c-.672.336-.9.448-1.442.672V29.28a9.606,9.606,0,0,1,1.036.042v-.084a7.122,7.122,0,0,1,.672.8,10.4,10.4,0,0,0,1.918-2.366h4.158q-.021,5.922-.5,7.35c-.14.406-.294.5-.8.5a14.624,14.624,0,0,1-1.9-.182,5.237,5.237,0,0,1,.392,1.582c1.05.07,1.162.07,1.5.07a2.5,2.5,0,0,0,1.61-.35,3.514,3.514,0,0,0,.868-2.226,50.748,50.748,0,0,0,.364-7.042,6.758,6.758,0,0,1,.056-1.232c-.28.028-.784.056-1.3.056h-3.71c.112-.28.308-.8.448-1.176a2.366,2.366,0,0,1,.168-.448l-1.652-.364c-.014.07-.028.112-.028.126a2.633,2.633,0,0,0-.042.266c-.056.252-.21.742-.294.994a7.013,7.013,0,0,1-1.918,2.94v-.7a4.621,4.621,0,0,1-.924.056h-.112v-2a8.456,8.456,0,0,1,.084-1.47H112.7a8.828,8.828,0,0,1,.084,1.484Zm8.246,3.388a19.661,19.661,0,0,1-4.13,1.988,5.217,5.217,0,0,1-.8.21l.546,1.568a7.167,7.167,0,0,1,.7-.322,27.553,27.553,0,0,0,4.018-2.016Zm-4.144-.476a6.9,6.9,0,0,1,1.2-.084h1.82a6.681,6.681,0,0,1,1.05.056V29.252a6.936,6.936,0,0,1-1.064.07H118.09a5.911,5.911,0,0,1-1.2-.084Zm10.878-4.41H126.49a10.086,10.086,0,0,1-1.386-.084v1.526a9.007,9.007,0,0,1,1.3-.07H129a13.576,13.576,0,0,1-.546,2.968c-.532-.616-.77-.882-.882-.994-.826-.854-.826-.854-1.106-1.134l-1.022,1.036a25.47,25.47,0,0,1,2.38,2.576,9.717,9.717,0,0,1-2.87,3.43,5.01,5.01,0,0,1,1.064,1.3,13.759,13.759,0,0,0,2.786-3.458,20.11,20.11,0,0,1,1.61,2.422l1.106-1.232c-.994-1.4-1.106-1.554-1.988-2.674a14.341,14.341,0,0,0,.952-4.242,10.446,10.446,0,0,1,1.092.042v-1.5a7.477,7.477,0,0,1-1.344.084h-.994v-.784a11.109,11.109,0,0,1,.07-1.316H127.68a6.631,6.631,0,0,1,.084,1.316Zm7.224,2.128V35.2c0,.294-.084.336-.84.336a14.065,14.065,0,0,1-1.694-.168,4.639,4.639,0,0,1,.434,1.554c.56.042,1.078.056,1.652.056.924,0,1.428-.14,1.694-.476.21-.252.252-.49.252-1.218V28.524h.182a8.136,8.136,0,0,1,.98.042l.322.042V27.04a8.028,8.028,0,0,1-1.316.084h-.168V26.018a12.607,12.607,0,0,1,.084-1.666h-1.68a9.393,9.393,0,0,1,.1,1.666v1.106H133.21a8.5,8.5,0,0,1-1.33-.07v1.54a8.723,8.723,0,0,1,1.33-.07Zm-3.822,1.554a12.481,12.481,0,0,1,1.96,3.388l1.274-.84a17.58,17.58,0,0,0-1.974-3.234Zm11-.182H144.1a6.693,6.693,0,0,1,1.344.084V28.328a6.693,6.693,0,0,1-1.344.084H142.17V26.074a9.333,9.333,0,0,1,.084-1.568H140.5a11.546,11.546,0,0,1,.084,1.568v9a8.888,8.888,0,0,1-1.54.266l.336,1.736a5.863,5.863,0,0,1,.77-.266c.112-.028.112-.028.294-.084,1.022-.28,1.022-.28,1.484-.42,1.694-.532,2.408-.784,3.5-1.2l-.014-1.484c-1.246.434-1.932.658-3.248,1.036Zm5.348.9a24.445,24.445,0,0,0,3.878-2.52c.294-.238.294-.238.5-.392l-1.092-1.288a11.053,11.053,0,0,1-3.29,2.562V26.1a9.617,9.617,0,0,1,.084-1.582H145.88a10.813,10.813,0,0,1,.084,1.582v9.366c0,.63.14.966.518,1.162a4.618,4.618,0,0,0,2.142.252c1.666,0,2.268-.126,2.66-.56s.56-1.246.658-3.332a5.946,5.946,0,0,1-1.484-.616,6.908,6.908,0,0,1-.294,2.814c-.14.2-.476.252-1.456.252-1.008,0-1.19-.056-1.19-.364Z" transform="translate(553 2901)" fill="#1a1a1a"/>
  </g>
</svg>
