<svg xmlns="http://www.w3.org/2000/svg" width="302.044" height="41.704" viewBox="0 0 302.044 41.704">
  <g id="グループ_7162" data-name="グループ 7162" transform="translate(-65.965 -381.5)">
    <path id="パス_46445" data-name="パス 46445" d="M-27.565,14.92c0-1.06.044-1.944.442-2.3.265-.221.442-.353.442-.663,0-.4-.309-.53-1.458-.663-.884-.088-4.55-.4-5.169-.4-.442,0-.884.044-.884.618a42.718,42.718,0,0,1,.177,4.55v3.976c0,.884-.088,2.121-.088,2.916,0,2.827,1.5,3.932,4.153,3.932h7.113c1.9,0,4.109,0,5.39-1.679a15.1,15.1,0,0,0,2.032-6.627c0-.574-.265-.8-1.546-1.237a18.413,18.413,0,0,0-3.932-1.016c-.751,0-.751.663-.8,1.281-.221,2.341-.707,3.137-2.827,3.137h-.928c-1.944,0-2.121-.4-2.121-2.3Zm-10.647-.751c.088-.442.221-.751.486-.884.707-.309,1.149-.574,1.149-.928,0-.574-1.414-.8-1.944-.884-.839-.133-4.02-.707-4.639-.707-.839,0-.884.309-1.016,1.325-.044.353-.044.486-.133,1.016-.884,4.992-5.036,7.731-9.5,9.233l-.4.133c-.618.221-1.06.4-1.06.839,0,.839,1.811,4.329,3.623,4.329,1.546,0,4.2-1.458,5.522-2.253a15.213,15.213,0,0,0,5.876-5.831A20.863,20.863,0,0,0-38.211,14.169Zm14.137-4.285c1.016,0,1.414.618,1.414,1.193,0,.353-.088,1.37-.088,1.767,0,1.016.663,1.1,2.076,1.1h2.695c1.458,0,2.032-.088,2.032-1.149,0-.618-.088-1.546-.088-2.43V9c0-1.281.088-2.518.088-3,0-1.546-1.723-1.59-2.872-1.59-1.635,0-3.225.088-4.86.088h-23.1c-1.635,0-3.225-.088-4.86-.088-1.149,0-2.872.044-2.872,1.635,0,.4.088,1.723.088,2.96v1.37c0,.972-.088,1.811-.088,2.43,0,1.06.574,1.149,2.032,1.149h2.695c1.414,0,2.076-.088,2.076-1.1,0-.353-.088-1.37-.088-1.723A1.293,1.293,0,0,1-46.34,9.883Zm-6.759-19.7c-.663,0-.928-.353-.928-.707,0-.309.221-.442.53-.751a.48.48,0,0,0,.177-.4c0-.486-.4-.53-1.149-.618-1.193-.133-4.86-.442-5.7-.442-.4,0-.884.044-.884.574,0,.221.088.928.088,1.193,0,.486-.353,1.149-1.458,1.149h-8.173c-1.767,0-3.534-.088-5.257-.088-1.149,0-1.237.353-1.237,1.59v2.3c0,1.281.088,1.635,1.193,1.635,1.767,0,3.534-.088,5.3-.088h8.88a.869.869,0,0,1,.839.839v.177a.878.878,0,0,1-.839.884h-6.582c-1.458,0-2.916-.133-4.02-.133-.884,0-.972.442-.972,1.723V1.225c0,1.281.088,1.679.928,1.679,1.37,0,2.695-.088,4.064-.088h21.559c1.325,0,2.695.088,4.064.088.839,0,.928-.353.928-1.679V-.984c0-1.281-.088-1.723-.972-1.723-1.1,0-2.562.133-4.02.133h-6.583a.849.849,0,0,1-.839-.884v-.177a.839.839,0,0,1,.839-.839h9.012c1.767,0,3.534.088,5.3.088,1.016,0,1.149-.309,1.149-1.458V-8.494c0-1.06-.133-1.414-1.193-1.414-1.767,0-3.49.088-5.257.088Zm29.511-.133c-.4,0-.486.53-.663,1.281-.265,1.193-.574,2.386-.839,3.534a45.169,45.169,0,0,0-1.06,9.719,36.971,36.971,0,0,0,1.5,10.558c.353,1.06.751,2.076,2.121,2.076a7.681,7.681,0,0,0,2.606-.574c.839-.309,1.767-.751,1.767-1.767v-1.1c0-2.518,1.635-6.538,2.651-9.012a2.323,2.323,0,0,0,.177-.751c0-.707-2.032-1.988-2.474-1.988-.486,0-.751.574-.972,1.06-.265.618-.442.839-.707.839-.4,0-.4-.486-.4-.751A21.152,21.152,0,0,1,3.8-3.414,4.154,4.154,0,0,1,5.746-6.021c.221-.088.353-.133.353-.4,0-.309-.221-.486-.839-.751C3.492-7.92-.484-9.952-1.323-9.952Zm14.579.839a3.343,3.343,0,0,0,.044.663A55.382,55.382,0,0,1,14.935,4.715a23.406,23.406,0,0,1-1.855,10.117,16.421,16.421,0,0,1-5.7,6.582c-.574.4-.751.618-.751.884,0,.751.928,1.59,2.032,2.606.53.486,1.811,1.679,2.518,1.679,1.237,0,3.092-1.9,3.932-2.783,5.434-5.7,6.715-12.237,6.715-19.836A62.3,62.3,0,0,0,20.413-9.511c-.265-1.1-.442-1.414-1.281-1.414a22.1,22.1,0,0,0-3.358.53C13.83-10,13.256-9.82,13.256-9.113Zm24.43,19.438c0,1.325-.221,1.458-2.518,2.032-1.193.265-1.9.309-1.9,1.193a7.085,7.085,0,0,0,.442,1.855c.53,1.679.884,3,1.149,3.711.177.486.4.707.663.707.353,0,.486-.353.663-.663a1.622,1.622,0,0,1,1.06-.928c2.695-1.016,7.51-3,10.028-4.285.839-.442.928-.928.928-1.811,0-.574-.044-1.414-.044-1.767,0-1.149,1.06-1.237,2.474-1.237.353,0,.8.133.8.53a9.13,9.13,0,0,1-1.546,2.3,28.081,28.081,0,0,1-6.848,5.876c-.353.221-.751.4-.751.8,0,.8,2.076,3,3,3a2.5,2.5,0,0,0,1.1-.486,26.924,26.924,0,0,0,5.876-4.815,1.387,1.387,0,0,1,1.193-.53c.177,0,.486,0,.486.221,0,.663-3.711,4.329-7.422,6.406-.221.133-.618.309-.618.618,0,.751,1.944,2.518,2.872,2.518a1.554,1.554,0,0,0,.8-.221,30.435,30.435,0,0,0,6.052-5.08,27.7,27.7,0,0,0,3-3.8c.221-.353.442-.663.928-.663h.265a.313.313,0,0,1,.353.309c0,.928-4.639,6.45-7.466,8.394-.309.221-.839.574-.839.972,0,.707,2.121,2.386,3,2.386s3.843-3,4.506-3.755c.133-.133.353-.353.53-.353.221,0,.309.133.353.53.309,3.048.574,3.313,3.225,3.313,3.092,0,5.831-.486,6.98-3.755.839-2.43,1.1-7.908,1.1-10.558,0-1.811-.133-2.872-2.253-2.872-1.325,0-2.651.088-3.976.088H57.964c-.265,0-.707-.044-.707-.4,0-.133.133-1.016,1.546-1.016H67.2c1.635,0,3.269.088,4.9.088.839,0,1.016-.4,1.016-1.414V5.687c0-1.281-.088-1.679-1.016-1.679-1.635,0-3.269.088-4.9.088H53.5c-1.679,0-3.313-.088-4.948-.088-.928,0-1.016.486-1.016,1.679v1.1c0,.972-.663,1.458-1.5,1.811a11.805,11.805,0,0,1-1.458.53c-.618,0-.707-.574-.707-1.325V3.08c0-1.06.618-1.5,1.237-1.5.751,0,1.458.088,2.209.088.884,0,.972-.442.972-1.855V-2.53c0-1.414-.088-1.855-.972-1.855-.751,0-1.5.088-2.253.088-.574,0-1.193-.353-1.193-1.37V-9.952a.955.955,0,0,1,.442-.972c.4-.309.751-.442.751-.8,0-.486-.486-.574-.928-.618-.707-.044-5.125-.309-5.743-.309-.486,0-.839.088-.839.618,0,.574.133,1.635.133,2.209v4.153a1.184,1.184,0,0,1-1.237,1.325c-.486,0-1.1-.044-1.59-.044-.884,0-.972.486-.972,1.723V.032c0,1.149.088,1.635.928,1.635.574,0,1.149-.044,1.723-.044.486,0,1.149.309,1.149,1.458Zm27.346,5.743c.309,0,.309.353.309.574a10.918,10.918,0,0,1-.53,4.064,1.126,1.126,0,0,1-1.281.839,5.347,5.347,0,0,1-.839-.044c-.442-.044-.8-.044-.8-.442,0-.133.088-.221.177-.353a26.174,26.174,0,0,0,2.562-4.285C64.723,16.245,64.811,16.068,65.032,16.068ZM57.08-11.454c-1.5,0-3.048-.177-4.594-.177-1.679,0-2.606.53-2.606,2.341,0,1.016.133,2.032.133,3.269v3.269c0,1.193-.133,2.253-.133,3.269,0,1.855.972,2.3,2.651,2.3,1.546,0,3.048-.133,4.55-.133h5.787c1.5,0,3.048.133,4.594.133,1.635,0,2.606-.486,2.606-2.3,0-1.016-.133-2.076-.133-3.269V-6.021c0-1.237.133-2.253.133-3.269,0-1.855-.972-2.341-2.651-2.341-1.546,0-3.048.177-4.55.177Zm-.618,5.434a.548.548,0,0,1-.574-.53V-6.9a.585.585,0,0,1,.574-.574h7.024a.585.585,0,0,1,.574.574v.353a.548.548,0,0,1-.574.53ZM63.353-2.8a.672.672,0,0,1,.707.707V-2a.7.7,0,0,1-.707.707H56.594A.7.7,0,0,1,55.887-2v-.088a.7.7,0,0,1,.707-.707Zm31.41-10.117c-.442,0-.53.309-.663.972a21.8,21.8,0,0,1-2.076,5.478c-.353.618-.751.8-2.916.8-1.458,0-3.048-.088-4.02-.088-1.414,0-1.59.044-1.59,2.783,0,3.313.133,3.446,1.635,3.446.574,0,1.193-.044,1.723-.044a.642.642,0,0,1,.663.618.978.978,0,0,1-.265.618c-1.414,1.988-4.285,6.582-6.1,8.659-.53.574-.8.839-.8,1.193,0,1.06,4.506,3.534,5.478,3.534a.718.718,0,0,0,.663-.486c1.281-2.3,2.606-4.639,4.683-6.273,1.325-1.016,4.374-2.562,6.052-2.562a1.26,1.26,0,0,1,1.37,1.149c0,.486-.353.707-.751.884-.8.4-1.679.884-2.43,1.325-3.225,1.9-6.362,4.285-6.362,8.438a7.172,7.172,0,0,0,4.506,6.848,16.557,16.557,0,0,0,7.731,1.414,60.343,60.343,0,0,0,8.57-.53c1.281-.265,1.37-.707,1.37-2.386,0-2.827-.044-4.418-1.1-4.418a5.334,5.334,0,0,0-1.1.133,37.141,37.141,0,0,1-8.217,1.1c-1.546,0-5.3,0-5.3-2.209,0-1.546,2.209-2.96,2.651-2.96a.559.559,0,0,1,.53.618v.221a10.831,10.831,0,0,0-.088,1.193c0,1.37.928,1.5,3.976,1.5,2.474,0,2.518-.044,2.518-2.872,0-.972-.044-2.032-.044-2.562,0-1.193.177-1.59,1.237-2.032,2.032-.839,3.358-1.414,5.478-2.209.884-.309,1.325-.442,1.325-1.016,0-1.016-1.546-6.1-2.651-6.1a1.544,1.544,0,0,0-.574.221c-.177.088-.486.265-.884.486a25.171,25.171,0,0,1-4.109,2.076.793.793,0,0,1-.751-.53A4.417,4.417,0,0,0,102.009,1,6.47,6.47,0,0,0,98.828.3,11.03,11.03,0,0,0,95.073.96a1.4,1.4,0,0,1-.4.133c-.177,0-.4-.088-.4-.309,0-.044.088-1.016,1.5-1.193,2.739-.309,5.743-.839,8.173-1.281s2.827-.618,2.827-1.281a19.43,19.43,0,0,0-.53-3.578c-.177-.8-.4-1.723-1.37-1.723a3.916,3.916,0,0,0-1.237.309,19.968,19.968,0,0,1-3.578.972c-.309,0-.53-.133-.53-.486a2.86,2.86,0,0,1,1.193-1.679c.309-.088.8-.221.8-.574,0-.4-.574-.707-1.37-1.06A53.992,53.992,0,0,0,94.764-12.912Zm48.2,4.506c-1.325-2.474-1.679-3.181-2.606-3.181a16.941,16.941,0,0,0-5.08,1.679c-.486.221-.972.618-.972,1.06,0,.618,1.1,1.767,1.59,2.43a9,9,0,0,1,1.635,2.739c0,.663-.486.884-1.149,1.016A65.275,65.275,0,0,1,128.957-2c-1.325.044-1.37.618-1.37,1.193a17.358,17.358,0,0,0,.928,3.976c.353,1.06.53,1.458,1.723,1.458a60.4,60.4,0,0,0,9.94-1.59,3.466,3.466,0,0,1,.618-.088c.8,0,1.06.4,1.5,1.149a6.5,6.5,0,0,1,.928,1.944c0,.4-.353.574-.707.574a20.222,20.222,0,0,0-3.137-.353c-5.346,0-10.073,3.534-10.073,9.145s4.329,8.526,9.233,9.763a40.442,40.442,0,0,0,8.261,1.149c1.1,0,1.5-.221,1.723-1.016a14.314,14.314,0,0,0,.486-3.623c0-1.06-.088-2.165-1.414-2.165-.8,0-1.679.088-2.562.088-2.783,0-9.1-.663-9.1-4.506,0-1.811,1.988-2.783,3.578-2.783,3.092,0,8.438,2.341,10.514,4.064a2.6,2.6,0,0,0,1.237.53c.972,0,4.329-2.606,4.329-3.843,0-.707-1.281-1.855-2.386-3.269a57.824,57.824,0,0,1-4.241-6.936,4.439,4.439,0,0,1-.707-1.59c0-.839.663-1.06,1.325-1.325,1.016-.442,2.032-.884,3.048-1.37,1.06-.486,2.032-.928,2.032-1.5,0-.8-.751-1.723-1.546-2.739s-1.679-2.165-2.606-2.165a6.025,6.025,0,0,0-2.341,1.193,8.88,8.88,0,0,1-2.827,1.37c-.707,0-.972-.486-1.458-1.37C143.536-7.3,143.227-7.876,142.962-8.406Zm52.527,2.651c-1.016,0-4.418,2.253-4.418,3.181a1.4,1.4,0,0,0,.486.8c2.783,2.96,4.462,6.406,6.141,9.9.4.8.618,1.193,1.1,1.193,1.237,0,5.257-2.3,5.257-3.755,0-.839-2.96-5.169-3.623-6.1a32.506,32.506,0,0,0-3.578-4.418A2.013,2.013,0,0,0,195.489-5.755Zm7.864-8.085c-.486,0-2.739,1.635-2.739,2.253,0,.265.309.53.486.707a46.69,46.69,0,0,1,3.225,3.4c.133.221.4.574.663.574.486,0,2.606-1.679,2.606-2.562,0-.618-2.562-3-3.181-3.578C204.281-13.177,203.662-13.84,203.353-13.84Zm-4.329,3.358c-.53,0-2.739,1.679-2.739,2.3,0,.221.221.442.486.663a46.621,46.621,0,0,1,3.181,3.446c.221.265.486.53.663.53.53,0,2.606-1.635,2.606-2.518,0-.4-.884-1.37-2.032-2.518C200.393-9.378,199.333-10.482,199.023-10.482ZM178.878-8.671a55.771,55.771,0,0,1-.353,6.1c-.133,1.193-.4,1.546-1.546,1.767A47.936,47.936,0,0,1,170.22.3c-1.325.133-1.635.265-1.635.839a23.967,23.967,0,0,0,.574,3.048c.4,1.723.928,3.446,1.635,3.446a2.117,2.117,0,0,0,.884-.309,28.614,28.614,0,0,1,3.755-1.237.618.618,0,0,1,.707.663,2.425,2.425,0,0,1-.221.751,34.5,34.5,0,0,1-7.687,12.149c-.707.707-1.1,1.149-1.1,1.59,0,1.414,4.2,3.755,5.213,3.755a.969.969,0,0,0,.751-.309,28.949,28.949,0,0,0,3.137-4.285,58.558,58.558,0,0,0,6.8-14.711c.4-1.458.8-1.635,2.253-1.635,1.723,0,2.032.663,2.032,2.695,0,2.695-.707,7.422-1.988,9.807-.884,1.679-1.59,1.855-4.2,1.855-.619,0-1.237-.044-1.855-.044-.663,0-.839.486-.839,1.06a17.545,17.545,0,0,0,.972,4.462c.4,1.06,1.016,1.237,2.3,1.237,4.02,0,7.289-1.414,9.322-4.948,1.944-3.4,2.783-9.852,2.783-13.739,0-3.137-.574-5.743-3.711-7.554a7.727,7.727,0,0,0-3.667-.972c-.574,0-1.5-.044-1.5-1.06,0-.133.088-.618.133-.884l.088-.618c.177-1.237.353-2.43,1.06-2.783.4-.177.707-.309.707-.618,0-.442-.8-.618-1.149-.707-.839-.221-5.831-1.414-6.273-1.414-.53,0-.618.4-.618.839Zm48.065-3.4a.6.6,0,0,0-.663.663,1.243,1.243,0,0,0,.044.353,34.815,34.815,0,0,1,.4,4.815c0,1.458-1.016,1.546-2.165,1.59-3.534.177-7.51.486-11.53.663-1.06.044-1.281.133-1.281.8,0,.353.044,1.37.177,2.827.221,2.651.442,3.667,1.149,3.667a5.959,5.959,0,0,0,.8-.133c.884-.221,7.068-1.237,8.129-1.37.707-.088,3.932-.442,4.418-.442.4,0,.574.221.574.442,0,.4-.53.442-.839.486-4.285.8-6.1,5.036-6.1,8.968,0,3.4,1.546,8,5.611,8.085.4,0,.8.088.8.574,0,.707-2.121,2.695-2.96,3.49-.353.309-.928.839-.928,1.237,0,.618,1.016,1.1,2.253,1.635a12.194,12.194,0,0,0,3.578,1.193c2.253,0,7.157-8.615,7.157-15.727a14.537,14.537,0,0,0-1.193-5.964,3.931,3.931,0,0,1-.618-2.43V2.285A1.177,1.177,0,0,1,235.028.96c1.5,0,3,0,4.462.044,1.37.044,6.141.353,6.362.353.4,0,.53-.177.663-.53a18.645,18.645,0,0,0,.265-3.313c0-3.092-.574-3.137-1.237-3.137-3.49,0-6.98.442-10.47.442-1.325,0-1.37-.707-1.37-1.855,0-.663.044-1.59.088-2.032a1.812,1.812,0,0,1,.707-1.325c.177-.133.309-.265.309-.4,0-.309-.663-.442-1.016-.486C232.775-11.41,227.739-12.073,226.944-12.073Zm.53,20.057c1.281,0,1.458,1.944,1.458,2.872,0,.884-.309,3.092-1.5,3.092s-1.37-2.3-1.37-3.092C226.06,9.972,226.281,7.984,227.474,7.984Z" transform="translate(121.229 395.34)"/>
  </g>
</svg>
