<svg xmlns="http://www.w3.org/2000/svg" width="69.028" height="69.028" viewBox="0 0 69.028 69.028">
  <g id="グループ_7166" data-name="グループ 7166" transform="translate(-119.993)">
    <g id="グループ_6524" data-name="グループ 6524" transform="translate(119.993)">
      <circle id="楕円形_17" data-name="楕円形 17" cx="34.514" cy="34.514" r="34.514" transform="translate(0)" fill="#55acee"/>
      <path id="パス_40756" data-name="パス 40756" d="M103.2,149.478c16.244,0,25.125-13.46,25.125-25.125,0-.385,0-.769-.018-1.135a18.09,18.09,0,0,0,4.413-4.578,17.924,17.924,0,0,1-5.073,1.392,8.825,8.825,0,0,0,3.882-4.89,17.882,17.882,0,0,1-5.6,2.143,8.836,8.836,0,0,0-15.273,6.043,8.094,8.094,0,0,0,.238,2.014,25.051,25.051,0,0,1-18.2-9.23,8.826,8.826,0,0,0,2.747,11.775,8.674,8.674,0,0,1-3.992-1.1v.11a8.84,8.84,0,0,0,7.087,8.662,8.8,8.8,0,0,1-2.326.311,8.429,8.429,0,0,1-1.666-.165,8.817,8.817,0,0,0,8.241,6.135,17.751,17.751,0,0,1-10.97,3.772,16.06,16.06,0,0,1-2.106-.128,24.6,24.6,0,0,0,13.5,3.992" transform="translate(-75.894 -97.933)" fill="#fff"/>
    </g>
  </g>
</svg>
