<svg xmlns="http://www.w3.org/2000/svg" width="69.028" height="69.028" viewBox="0 0 69.028 69.028">
  <g id="グループ_7167" data-name="グループ 7167" transform="translate(-238.721)">
    <g id="グループ_6525" data-name="グループ 6525" transform="translate(238.721)">
      <circle id="楕円形_19" data-name="楕円形 19" cx="34.514" cy="34.514" r="34.514" fill="#00b900"/>
      <path id="パス_40751" data-name="パス 40751" d="M427.309,280.424c0-10.353-10.379-18.776-23.137-18.776s-23.137,8.423-23.137,18.776c0,9.282,8.231,17.055,19.35,18.524.754.162,1.779.5,2.038,1.141a4.752,4.752,0,0,1,.075,2.092s-.271,1.633-.33,1.98c-.1.585-.465,2.288,2,1.248s13.324-7.846,18.179-13.433h0c3.353-3.677,4.959-7.409,4.959-11.552" transform="translate(-369.659 -247.999)" fill="#fff"/>
      <path id="パス_40752" data-name="パス 40752" d="M411.333,285.405H409.71a.45.45,0,0,0-.451.45v10.082a.451.451,0,0,0,.451.45h1.623a.451.451,0,0,0,.451-.45V285.855a.45.45,0,0,0-.451-.45" transform="translate(-381.521 -257.983)" fill="#00b900"/>
      <path id="パス_40753" data-name="パス 40753" d="M425.477,285.405h-1.623a.45.45,0,0,0-.45.45v5.99l-4.621-6.239a.422.422,0,0,0-.035-.046l0,0-.027-.028-.008-.008-.024-.02-.012-.009-.023-.016-.014-.008-.024-.014-.015-.007-.026-.01-.014-.005-.027-.009-.016,0-.026-.006-.019,0-.024,0h-1.662a.45.45,0,0,0-.45.45v10.082a.45.45,0,0,0,.45.45h1.623a.451.451,0,0,0,.451-.45v-5.988l4.626,6.247a.451.451,0,0,0,.114.111l0,0,.028.017.013.007.022.01.021.009.014.005.031.01h.006a.441.441,0,0,0,.115.016h1.623a.45.45,0,0,0,.45-.45V285.855a.45.45,0,0,0-.45-.45" transform="translate(-384.495 -257.983)" fill="#00b900"/>
      <path id="パス_40754" data-name="パス 40754" d="M401.061,293.862h-4.41v-8.006a.45.45,0,0,0-.45-.45h-1.623a.451.451,0,0,0-.451.45v10.08h0a.45.45,0,0,0,.126.311l.006.007.007.006a.448.448,0,0,0,.311.126h6.484a.45.45,0,0,0,.45-.45v-1.623a.451.451,0,0,0-.45-.451" transform="translate(-375.161 -257.983)" fill="#00b900"/>
      <path id="パス_40755" data-name="パス 40755" d="M442.536,287.93a.45.45,0,0,0,.45-.451v-1.623a.451.451,0,0,0-.45-.451h-6.484a.448.448,0,0,0-.312.127l-.005.005-.007.008a.452.452,0,0,0-.125.311h0v10.08h0a.449.449,0,0,0,.126.311l.006.007.007.006a.449.449,0,0,0,.311.126h6.484a.45.45,0,0,0,.45-.45v-1.623a.45.45,0,0,0-.45-.451h-4.409v-1.7h4.409a.45.45,0,0,0,.45-.45v-1.623a.45.45,0,0,0-.45-.451h-4.409v-1.7Z" transform="translate(-392.592 -257.983)" fill="#00b900"/>
    </g>
  </g>
</svg>
