<svg xmlns="http://www.w3.org/2000/svg" width="68.3" height="68.491" viewBox="0 0 68.3 68.491">
  <g id="グループ_7165" data-name="グループ 7165" transform="translate(0 -0.536)">
    <g id="グループ_6523" data-name="グループ 6523" transform="translate(0 0.536)">
      <circle id="楕円形_18" data-name="楕円形 18" cx="33.133" cy="33.133" r="33.133" transform="translate(1.265 2.225)" fill="#fff"/>
      <path id="パス_40745" data-name="パス 40745" d="M68.3,34.15A34.15,34.15,0,1,0,28.814,67.884V44.021H20.143V34.15h8.671V26.626c0-8.559,5.1-13.286,12.9-13.286a52.514,52.514,0,0,1,7.644.667v8.4H45.051c-4.242,0-5.565,2.632-5.565,5.333V34.15h9.471l-1.514,9.871H39.486V67.884A34.158,34.158,0,0,0,68.3,34.15Z" transform="translate(0 0)" fill="#315096"/>
    </g>
  </g>
</svg>
