<svg xmlns="http://www.w3.org/2000/svg" width="153.562" height="40.555" viewBox="0 0 153.562 40.555">
  <g id="グループ_7163" data-name="グループ 7163" transform="translate(-141.84 -515.005)">
    <path id="パス_46446" data-name="パス 46446" d="M-2.956,20.927-4.5,16.862c-.265-.663-.442-.928-.751-.928a1.9,1.9,0,0,0-.884.309,11.153,11.153,0,0,1-4.948,1.06c-5.92,0-8.924-4.02-8.924-8.791,0-5.478,3.313-9.719,9.542-9.719A10.491,10.491,0,0,1-5.739-.1a1.9,1.9,0,0,0,.884.309c.309,0,.442-.265.707-.928l1.767-4.86a2.625,2.625,0,0,0,.221-.839c0-.4-.309-.618-.972-.928a19.357,19.357,0,0,0-7.334-1.414c-11.4,0-17.318,7.554-17.318,17.45,0,8.968,5.831,15.639,15.86,15.639a20.887,20.887,0,0,0,8.261-1.635c.618-.309.928-.53.928-.928A2.625,2.625,0,0,0-2.956,20.927ZM9.237,6.436c0-.442.088-.8.265-.8s.353.133.663.486l7.687,8.7a1.286,1.286,0,0,0,1.016.574,1.347,1.347,0,0,0,1.06-.618l7.908-8.88c.309-.353.486-.442.618-.442.221,0,.309.353.309.8L28.94,15.4c.044,1.723,0,6.362,0,7.334,0,1.1.221,1.325,1.325,1.325h5.08c1.016,0,1.281-.177,1.281-1.1,0-.442-.265-5.92-.309-8.173L36.053.737c-.044-3.446,0-5.92,0-7.908,0-1.1-.221-1.325-1.325-1.325H31.812A2.226,2.226,0,0,0,29.647-7.48c-1.59,1.988-3.313,4.02-4.815,5.787l-4.9,5.743c-.353.4-.618.618-.884.618-.221,0-.486-.221-.839-.618L13.08-1.913c-1.5-1.767-3.048-3.623-4.594-5.566A2.226,2.226,0,0,0,6.321-8.5H3.406c-1.1,0-1.325.221-1.325,1.325,0,.972.044,5.478,0,7.908L1.815,14.786c-.044,2.341-.309,7.864-.309,8.173,0,.928.265,1.1,1.281,1.1H7.735c1.1,0,1.325-.221,1.325-1.325,0-1.06-.044-4.948,0-7.378ZM56.551-3.99c.177-.353.442-.442.884-.442a.55.55,0,0,0,.574-.574c0-.442-.663-.663-1.37-.972a26.342,26.342,0,0,0-4.285-1.811c-.442,0-.618.486-.8.884C50.985-5.492,50.1-3.592,49.7-2.841s-.574.972-.839.972a.809.809,0,0,1-.707-.8A8.384,8.384,0,0,1,49-4.52c.8-1.679,1.59-3.358,2.386-5.08.177-.442.4-.442.839-.486.353-.044.574-.221.574-.574,0-.221-.133-.4-.486-.574a34.65,34.65,0,0,0-4.86-1.811c-.4,0-.442.4-.663,1.06-.574,1.679-1.414,3.843-1.723,4.683-.309.8-.4,1.016-.707,1.016-.177,0-.4-.265-.663-.265C42.856-6.552,41-2.576,41-1.781a.778.778,0,0,0,.4.574,39.82,39.82,0,0,1,3.446,3.269C45.286,2.5,45.9,3.079,45.9,3.7a1.85,1.85,0,0,1-.353.928c-.751,1.281-.839,1.59-2.43,1.679-1.149,0-1.414,0-1.414.8a14.74,14.74,0,0,0,.442,2.739c.618,2.739.751,3,1.237,3a.577.577,0,0,0,.53-.309c.177-.353.177-.442.618-.486.353-.044,2.121-.177,2.3-.177.574,0,.8.177.8.8v.618c0,.4-.133.618-.53.618-.309,0-2.386-.442-2.783-.53-.309-.044-.884-.177-1.149-.177-.574,0-.574.442-.574.751-.177,2.209-.353,4.418-.663,6.627-.088.486-.618,3.137-.618,3.446,0,.884,3.048,1.546,3.8,1.546.618,0,.707-.353.884-1.458.353-2.386.663-5.434.751-7.554.044-.618.044-1.281.53-1.281.265,0,.353.265.353.53v3.137c0,2.3-.088,4.55-.088,6.848,0,1.193.353,1.281,1.723,1.281h2.386c1.37,0,1.811-.088,1.811-1.237,0-2.3-.088-4.594-.088-6.892V11.782c0-.442.221-.884.663-.884s.486.353.53.574c.133.663.221.972.8.972s3.8-.8,3.8-1.811a39.618,39.618,0,0,0-.972-4.639C57.037,1.753,56.9,1.4,56.11,1.4c-.751,0-3.4.486-3.4,1.414a6.863,6.863,0,0,0,.221,1.016,4.841,4.841,0,0,1,.265,1.149c0,.663-1.37.707-1.9.707-.177,0-.486-.088-.486-.309,0-.353.618-1.149.839-1.458A76.173,76.173,0,0,0,56.551-3.99Zm3.181,26.639c0,1.281-.088,3.092-.088,3.623,0,.663.442.751,1.855.751h3.048c.928,0,1.37-.088,1.37-.8v-.618A1.282,1.282,0,0,1,67.2,24.328h4.948a1.273,1.273,0,0,1,1.237,1.281c0,.221-.044.4-.044.618,0,.707.442.8,1.414.8h3c1.5,0,1.944-.088,1.944-.8,0-.574-.133-2.032-.133-3.578V11.914c0-1.281.133-2.121.133-2.739,0-1.5-1.988-1.5-3.092-1.5-1.37,0-2.695.088-4.064.088H66.8c-1.37,0-2.695-.088-4.064-.088-1.06,0-3.092,0-3.092,1.5,0,.574.088,1.5.088,2.739Zm6.1-8.305a1.208,1.208,0,0,1,1.237-1.237h5.169a1.235,1.235,0,0,1,1.237,1.237V17.79a1.264,1.264,0,0,1-1.237,1.237H67.066a1.208,1.208,0,0,1-1.237-1.237Zm-9.056-1.458c-.8,0-3.092.353-3.092,1.37a2.608,2.608,0,0,0,.088.618,58.992,58.992,0,0,1,1.149,6.317c.133,1.016.133,1.59.928,1.59.884,0,3.446-.663,3.446-1.767a43.4,43.4,0,0,0-.972-5.478C57.744,13.107,57.656,12.886,56.772,12.886Zm7.113-24.828c-1.458,0-2.783-.088-3.976-.088-1.1,0-1.193.4-1.193,1.767v2.076c0,1.458.088,1.9,1.149,1.9.751,0,1.5-.088,2.253-.088.663,0,1.1.044,1.1.574a11.053,11.053,0,0,1-.53,2.253A14.064,14.064,0,0,1,58.1,2.018a.731.731,0,0,0-.442.574c0,.928,2.739,4.02,3.843,4.02,1.06,0,6.582-4.86,7.643-11.089.177-.972.265-1.9,1.723-1.9H72.72c.707,0,.884.088.884.884a18.328,18.328,0,0,1-.486,4.109C72.765-.323,72.014-.19,71-.19c-.53,0-1.06-.133-1.414-.133-.839,0-.839,1.281-.839,2.032,0,3.976.972,4.02,3.092,4.02,2.562,0,5.39-.133,6.715-2.695,1.149-2.3,1.679-9.1,1.679-11.84,0-2.783-.928-3.225-3.578-3.225-.928,0-2.341.088-3.4.088ZM115.75,5.729c0-1.016.044-1.635.574-1.635a.93.93,0,0,1,.574.221c.839.663,3.843,3,4.771,3,1.37,0,4.109-3.623,4.109-4.683,0-.53-.574-.8-1.458-1.237a50.315,50.315,0,0,1-12.5-9.5,1.453,1.453,0,0,0-.265-.265,11.271,11.271,0,0,1-1.811-2.3.586.586,0,0,1,.265-.442.534.534,0,0,0,.265-.53c0-.707-.707-.839-2.562-1.1-1.016-.133-4.153-.751-4.9-.751-.442,0-.574.177-.8.574-2.43,4.86-11.089,12.5-15.86,15.2-.309.177-.618.4-.618.751,0,.618,2.386,4.639,4.064,4.639.884,0,4.153-2.695,4.992-3.4A1.85,1.85,0,0,1,95.56,3.7c.486,0,.53.442.53,1.193V7.541a22.2,22.2,0,0,1-.618,5.655,13.792,13.792,0,0,1-6.45,8.217c-.4.221-.972.53-.972,1.016,0,.884,2.474,4.462,4.418,4.462a1.519,1.519,0,0,0,.928-.353c.265-.177.53-.353.839-.53a18.955,18.955,0,0,0,5.39-5.7c2.43-3.843,3.048-8.261,3.048-12.723v-3c0-.928.044-1.149.618-1.414.353-.177.486-.309.486-.53,0-.618-.663-.707-1.988-.751-.177,0-.707-.044-1.149-.088-1.59-.088-2.209-.133-2.209-.663a1.172,1.172,0,0,1,.4-.663,66.836,66.836,0,0,0,5.39-5.787c.4-.486.707-.884,1.149-.884.4,0,.707.353.928.618a54.992,54.992,0,0,0,6.1,6.317c.221.177.486.4.486.707,0,.265-.309.353-.53.353-.486,0-1.546-.044-2.3-.044-.442,0-.928.044-.928.574,0,.133.044.309.044.442.088.884.133,1.9.133,2.872v15.2c0,1.723-.133,3.446-.133,5.036,0,1.016.53,1.149,1.811,1.149h3.048c1.37,0,1.855-.133,1.855-1.149,0-1.679-.133-3.358-.133-5.036Z" transform="translate(169.624 528.493)"/>
  </g>
</svg>
