<svg xmlns="http://www.w3.org/2000/svg" width="113.713" height="30.862" viewBox="0 0 113.713 30.862">
  <g id="グループ_7164" data-name="グループ 7164" transform="translate(-157.944 -39.224)">
    <path id="パス_46447" data-name="パス 46447" d="M-13.3-9.557c-3.982-.039-7.5,1.971-7.5,6.417,0,5.1,2.59,6.494,5.18,8.736,1.7,1.469,6.881,4.987,6.881,7.886,0,2.049-1.005,3.363-2.513,3.363a9.437,9.437,0,0,1-3.595-1.237c-.928-.734-1.005-4.368-.966-5.257a12.945,12.945,0,0,1,.155-1.469.216.216,0,0,0-.193-.232l-3.711-.309c-.077-.039-.155.077-.193.155a51.959,51.959,0,0,1-.425,6.958,15.886,15.886,0,0,0-.348,3.634c-.039.425-.077.541.271.657a11,11,0,0,0,1.082.309c.039.039.116,0,.155-.077,0,0,.85-1.7,1.894-1.894a6.155,6.155,0,0,1,1.044.077,14.614,14.614,0,0,0,5.953,1.585A7.474,7.474,0,0,0-2.861,12.4c0-3.866-2.435-5.8-4.561-7.345C-9.7,3.393-15.694.146-15.694-3.72c0-2.165,1.624-2.938,3.672-2.938a3.826,3.826,0,0,1,2.706.966c1.237,1.237,1.16,3.75,1.082,5.334,0,.5-.193,1.855-.193,1.855a.216.216,0,0,0,.193.232l3.711.309c.077.039.155-.077.193-.155A58.544,58.544,0,0,1-3.866-5.46a15.886,15.886,0,0,0,.348-3.634c.039-.425.077-.541-.271-.657a11,11,0,0,0-1.082-.309c-.039-.039-.116,0-.155.077,0,0-.85,1.7-1.894,1.894a3.79,3.79,0,0,1-.889-.039A13.8,13.8,0,0,0-13.3-9.557ZM8.349,15.492A58.87,58.87,0,0,1,8.04,7.761c.193-.271,7.19-.425,7.267-.348.116.155-.039,7.035-.116,8-.889-.193-1.894,1.044-1.778,2.358.116,1.237,1.585,1.74,2.242,1.7.889-.077,2.667-.7,2.822-1.43.155.077.618.734,1.044.85,1.662.5,2.281-.039,2.706-.773.541-1.044.464-2.513-.309-3.054a2.163,2.163,0,0,0-2.165-.193c-.116-4.059-.116-11.326-.116-14.728,0-2.358.309-4.793.58-4.987a5.339,5.339,0,0,1,2.2-.812q.348-.058.348-.232l.039-2.861c0-.039-.077-.155-.155-.155-.734-.116-3.595-.541-4.175-.155a1.772,1.772,0,0,0-.657.773l-.077.116a3.1,3.1,0,0,0-1.2-1.044,9.526,9.526,0,0,0-2.706.116,6.159,6.159,0,0,0-1.005.271c-.077,0-.155.116-.155.155L12.6-5.575c-.039.116.077.193.193.193a2.163,2.163,0,0,1,2.087.85c.7,1.082.348,7.847.348,9.007l-7.345.232c-.116-1.237-.348-8.35.077-9.084.618-1.082,2.4-.309,2.435-.85V-8.591c0-.039-.077-.155-.116-.155a6.613,6.613,0,0,0-2.976-.387c-.464.077-.928.889-1.2,1.546A2.022,2.022,0,0,0,4.832-8.707a10.372,10.372,0,0,0-2.087.077c-.85.077-1.894.155-1.894.155a.248.248,0,0,0-.193.193L.5-4.88c0,.155.155.232.425.232.618.039,1.933-.193,2.049.541.58,11.906.5,13.3.5,13.645,0,2.01-.039,4.445-.155,5.566a2.834,2.834,0,0,0-1.585-.155c-2.745.85-1.276,4.523,2.087,4.1a3.574,3.574,0,0,0,2.435-1.933C6.88,18.2,8.5,19.9,10.437,19.009a2.242,2.242,0,0,0,1.276-1.933,1.746,1.746,0,0,0-1.43-2.049A2.339,2.339,0,0,0,8.349,15.492ZM42.173,5.364c-.58-3.75-1.314-7.808-2.01-11.365A2.112,2.112,0,0,0,41.98-8.165a2.816,2.816,0,0,0-2.822-2.629c-1.314,0-1.933,1.314-2.087,2.242a4.319,4.319,0,0,0-2.822-1.314c-.85,0-2.9.928-2.9,2.358,0,.928,1.237,1.353,2.165,1.546-.541,3.75-4.368,18.98-4.987,20.951-.193.541-2.2-.116-2.2.425l-.193,3.595c0,.271.425.232.7.232a3.38,3.38,0,0,0,2.822-1.276,7.051,7.051,0,0,0,4.368,1.585.207.207,0,0,0,.193-.193l-.116-3.324c0-.193-.193-.193-.5-.193h-.425c-.5,0-1.353-.039-1.353-.773a47.669,47.669,0,0,1,.773-5.334l5.257-.116c.193.85.734,4.948.734,5.528,0,.657-1.778.116-1.855.58l-.077,3.44c0,.077.5.155,1.237.155,1.276,0,3.208-.309,3.827-1.624l.077.077A2.682,2.682,0,0,0,44.3,19.435c.618,0,1.778-.077,1.817-.425l.232-3.4c0-.116-.039-.193-.155-.193-.155,0-.309.039-.5.039a1.633,1.633,0,0,1-1.237-.5C43.758,14.293,42.482,7.3,42.173,5.364Zm-6.3-9.471C36.3-1.4,36.877,3.315,37.341,6.6l-4.1.193c.85-3.247,1.739-8.156,2.551-10.63ZM69.077,19.2c1.314-.58,2.2-2.861.889-3.866-.7-.541-1.933.077-2.242.618-.773-.773-.966-3.556-1.43-6.417-.387-2.474-1.7-3.518-3.75-4.832,3.479-.193,6.34-2.667,6.069-8.156-.232-4.523-4.832-5.837-7.074-5.837a9.728,9.728,0,0,0-6.146,2.474,3.86,3.86,0,0,0-.425-.734C53.847-9.17,53-9.016,51.218-8.861a11.713,11.713,0,0,0-1.469.155.207.207,0,0,0-.193.193l.077,2.667c.039.541,1.971-.116,2.242,1.044.077.271.155,1.971.232,4.291.155,3.866.232,10.63.232,12.1,0,.928-.155,3.131-.232,3.75-4.252.271-2.783,4.793,0,4.639a3.211,3.211,0,0,0,2.551-1.7c.812,1.2,3.75,2.01,4.329.232a2.184,2.184,0,0,0-1.778-3.131c.039-.657,0-2.745-.039-3.247-.077-.58-.309-5.373-.309-5.373V6.678c6.03.077,3.556,9.2,7.151,12.177C64.941,19.783,67.724,19.821,69.077,19.2ZM63.047-1.9a8.061,8.061,0,0,1-1.121,3.866c-.812,1.082-2.861,1.469-5.064,1.353a39.55,39.55,0,0,1,.116-6.765C57.249-5,59.491-5.614,60.844-5.614,62-5.614,63.163-3.8,63.047-1.9ZM92.889-9.441c.039-.309.077-.232-.193-.387-.193-.077-.889-.464-1.005-.232a3.333,3.333,0,0,1-1.971,1.508,51.587,51.587,0,0,1-9.045-.734,5.56,5.56,0,0,0-3.286.812c-.966-.966-1.662-1.353-2.976-.773-.077.039-.85.309-.812.58L73.909-6c.077.7,1.43-.155,2.2,1.121,1.624,5.141,1.121,15.656.928,18.709a3.248,3.248,0,0,0-3.595,3.518c0,1.971,2.049,2.629,3.866,2.513,1.044-.077,3.054-1.121,3.44-1.971l.116.116a5.182,5.182,0,0,0,3.208,1.082c1.817.077,3.131-.541,6.61-.193a3.5,3.5,0,0,1,1.43.541c.155.155.348.116.348-.116a52.835,52.835,0,0,0,.425-5.45c-.077-1.16-.193-3.054-.193-3.054a.17.17,0,0,0-.232-.155l-3.943.657c-.116.039-.193.116-.155.232a3.661,3.661,0,0,1,.425,1.855c-.077,1.2-.155,2.01-.541,2.242-1.662.928-5.064-1.16-6.61-1.16.039-.966-.193-5.141-.039-7.5l7.306-.309c.039,0,.155-.077.155-.116.116-.309.773-2.667.232-2.667l-7.461-.232A78.073,78.073,0,0,1,81.988-5.5a7.984,7.984,0,0,1,3.672,0c2.126.541,2.667.618,2.435,3.247-.155,1.74-.271,1.74-.271,1.74a.2.2,0,0,0,.155.271l3.363.425a.183.183,0,0,0,.193-.193,17.31,17.31,0,0,1,.734-4.561C92.889-6.078,92.734-7.818,92.889-9.441Z" transform="translate(178.741 50.018)" fill="#231815"/>
  </g>
</svg>
