<?xml version="1.0" encoding="utf-8"?>
<!-- Generator: Adobe Illustrator 25.3.1, SVG Export Plug-In . SVG Version: 6.00 Build 0)  -->
<svg version="1.1" id="&#x30EC;&#x30A4;&#x30E4;&#x30FC;_1" xmlns="http://www.w3.org/2000/svg" xmlns:xlink="http://www.w3.org/1999/xlink" x="0px" y="0px" width="583.5" height="37.2" viewbox="0 0 583.5 37.2" style="enable-background:new 0 0 583.5 37.2;" xml:space="preserve">
<style type="text/css">
	.st0{fill:#FFFFFF;}
</style>
<g>
	<g>
		<path class="st0" d="M555,17.8h28.4v-3.3H555V17.8z M560.9,24.8h18.7c1.8,0,2.6-0.7,2.6-2.3v-3.9h-26.7v8.5c0,2.2-0.2,2.8-1.5,4
			v5.9c3.2-1.3,4.6-3,5.7-6.7v6.5h4.9v-4.3h1.7v3.2h3.9v-3.2h1.5v3.2h3.1v1.3h4.4c2.3-0.1,3.6-1.2,3.5-3.4v-7.9h-21.9V24.8z
			 M560.9,21.3h15.6v1h-15.6V21.3z M575.9,28.6h1.5V30h-1.5V28.6z M575.9,32.6h1.5v1.1h-1.5V32.6z M570.2,28.6h1.5V30h-1.5V28.6z
			 M564.6,28.6h1.7V30h-1.7V28.6z M577.6,9.3l0.9-1.4h-5.3c-1.2,1.6-1.8,2-3.8,2.7v3.7c1.8-0.2,3.9-0.9,5.2-1.9l0.6,1.6h5.7
			l-0.7-1.4h3.3V9.3H577.6z M560,14h5.7l-1-1.4h3.9V9.3h-6.1l1.2-1.4h-5.3c-1.2,1.4-2.3,2.1-4.3,2.7v4c2-0.5,4-1.4,5.1-2.1L560,14z
			 M26,17.4c-0.2,9.1-2.6,11.3-12.1,11.4H0v6.8h12.9c8.6,0,12.4-1,15.5-3.9c3.4-3.2,4.7-7.1,4.7-14V7.5H26V17.4z M17.2,16.5
			c-5.3-1.2-5.8-1.3-14-2.7l-3-0.5v6.8c8.2,1.2,10,1.6,17,3V16.5z M30.5,6.2h3.8v-6h-3.8V6.2z M29.3,0.2h-3.8v6h3.8V0.2z M17.2,5.4
			C10.4,4,6,3.3,0.2,2.4v6.6c5.1,0.6,8.8,1.2,17,2.9V5.4z M52.7,4.9h-6.8l0.8,6.2l-6.9,0.2v6l7.6-0.2L50,36.2h6.6L54.1,17l10.5-0.3
			c-0.6,4.5-1.2,5-7.2,5.7l1.2,6.1c10.6-0.8,13-4,13.4-17.9l-18.6,0.4L52.7,4.9z M105.7,18.6c0,3.7-1.8,6.8-4.8,8.2
			c-1.9,1.1-5.8,1.7-10.5,1.8H79.2v6.9h11.1c8.5-0.1,12.9-1.1,16.4-3.8c4.2-3.1,6-7.5,6.1-14.5v-12h-7.1V18.6z M97.8,7.3
			C94.3,6,86.6,3.7,79.5,1.8v7.1c5.2,1.4,12.1,3.5,18.3,5.6V7.3z M148.8,22.7v-5.3h-6.4v5.8c0,7.8,3.4,11.6,10.7,12.4v-7
			C150,27.8,148.8,26,148.8,22.7z M152,7.8h-13.5V1.6h-7v6.2h-13.4v6.5h13.4v22h7v-22H152V7.8z M151.9,0.4h-3.8v6.1h3.8V0.4z
			 M147,0.4h-3.8v6.1h3.8V0.4z M120.7,22.6c-0.1,3.9-1.2,5.8-3.6,6.2v6.9c3.4-0.2,6.1-1.7,8.1-4.5c1.4-2,2-4.8,2-8.9v-4.8h-6.5V22.6
			z M188.5,30.6h-4.7v-9.4h1.8c3.3,0,5.2-2,5-5.3V1h-31.1v20.2h5.7c-0.7,6-3.2,8.5-8.6,8.8v6.8c10.4-1.4,14.8-5.8,15.6-15.7h4.8
			v11.2c0,3.3,1.2,4.4,4.8,4.4h6.8c2.1,0,3.3-0.5,4.5-1.6v-6.7C191.8,30,190.6,30.5,188.5,30.6z M183.4,15.1h-17.1V6.9h17.1V15.1z
			 M220.6,14.8c-1.8,0-3.7,0.4-5.6,1c-1.4,0.5-2.1,0.9-3.7,2.1l1.6-6.2h18.2V5.5h-16.4l1.2-4.2h-7.5l-0.9,4.2h-9.2v6.2h7.6l-4,14.8
			h7.3c1.4-2.1,2.2-3,3.7-3.8c2-1.1,4.5-1.8,6.6-1.8c2.5,0,4.4,1.8,4.4,4c0,1.6-1.3,3.5-2.8,4.1c-1.4,0.6-4.3,0.9-7.7,0.9h-11.8v6.4
			h11.8c6.5,0,9-0.4,11.9-1.6c4.1-1.8,6.2-5.1,6.2-9.5C231.5,19.2,227,14.8,220.6,14.8z M263,12.6h-0.3l-12.1,0.2
			c-0.4-2-0.5-2.5-1.1-7.5h-6.7c0.6,3.4,0.8,5,1.2,7.5h-6.3V19h7.3c0.4,1.9,0.7,3.6,0.8,4.1c0.3,1.7,0.6,3.5,0.9,5.2l1,5.8
			c0,0.2,0.2,1,0.3,2.2h6.8c-0.2-1.4-0.4-2.4-0.6-2.9c-0.4-1.9-0.8-3.8-1.2-5.8c-0.2-1-0.4-2-0.6-3l-1-5.6l7.2-0.2l2.2,0
			c1.8,0,2.5,0.5,2.5,1.7c0,1.4-1.1,2.1-3.5,2.2c-2.3,0.1-3.4,0.1-5,0.1l1.2,6c2.6-0.1,4-0.1,4.2-0.1c2.6-0.1,4.2-0.4,5.7-1
			c3-1.2,4.8-4,4.8-7.4c0-1.8-0.6-3.6-1.8-5C267.9,13.4,265.6,12.4,263,12.6z M263,10.8l-2.8-5.5h-6.9l2.7,5.5H263z M304.4,25.8
			c-0.5,2.2-1.7,3.4-3.4,3.4c-1.4,0-1.8-0.6-1.8-2.7c0-1.2,0.1-3.1,0.3-5.5c0.1-1.2,0.2-2.6,0.2-3.2c0-3.7-1.8-5.9-4.9-5.9
			c-2,0-3.9,1-6.8,3.6c2.4-7.9,2.7-8.9,4.7-14.1h-7.4c-1.9,6.6-2.2,7.4-4.1,13.6c-2.8,9-3.8,12.7-5.7,21.2h7.1
			c1.8-8.8,2.7-11.6,4.2-13.6c1.1-1.4,3.1-2.6,4.2-2.6c0.8,0,1.5,0.9,1.5,2.1c0,0.4,0,1.1-0.1,1.8c-0.2,1.9-0.4,5-0.4,6.2
			c0,4.2,2.7,6.4,8,6.4c4.5,0,7.9-1.6,9.6-4.6s2.2-5.2,2.6-12.9c0-0.6,0.1-2,0.2-3.8h-7.1C305.1,20.8,304.9,23.2,304.4,25.8z
			 M348.4,3.5c-3.5-1-5.7-1.6-10.7-2.4v6.8c5.6,1,7.4,1.4,10.7,2.4V3.5z M364.8,21c5.6-1,8.2-4.4,8.2-10.8V3.5h-12.6l0.8-3.4h-6.8
			c-0.7,6-2,9.2-4.8,11.3v8.4c3.6-2.2,4.8-3.4,6.7-6.4c-0.1,9.2-3,14.7-8.5,16.4V37c6.2-1.3,10.7-5.4,12.7-11.6
			c2.8,6.3,7.2,10.2,13.1,11.2v-7.2C369.6,28.2,366,24.9,364.8,21z M357.7,10.8l0.6-1.4h7.9c0,3.6-1,5.4-3.2,5.7v-4.3H357.7z
			 M342,15.9c-0.1,4.2-0.2,6.6-0.6,8.2c-0.6,2.6-2.1,4.4-4.3,5.3v7.4c5-1.7,7.6-3.9,9.7-8.4c1.2-2.7,1.4-4.3,1.8-12.4H342z
			 M396.9,0.6h-7.3l-2.9,7.3H377v6.1h7.9l-2.2,5.7c-0.7,1.7-0.8,2.4-0.8,3.1c0,1.7,1,2.5,4.2,3.5l6.7,2.1c-1.9,0.9-3,1.2-4.8,1.5
			c-2.2,0.3-5.2,0.5-7.1,0.5c-0.6,0-1.9,0-3.3-0.2v7c11.5-0.3,17-1.8,22.2-6l12.9,5.7v-7.6c-2.7-1.3-4-1.8-8.6-3.7
			c2-3.9,3.2-7.2,4.3-11.6h4.8V7.8h-19.2L396.9,0.6z M401.2,13.9c-0.6,2.8-1.8,5.9-3.6,9.3c-4.4-1.6-5.4-2-8.2-2.9l2.4-6.4H401.2z
			 M435.5,1.9c-7.4,0-12.6,2.5-15.7,7.5c-1.8,2.8-2.7,6.6-2.7,10.5c0,4.3,1.2,8.4,3,10.8c1.8,2.4,4.8,4,7.4,4c1.6,0,3.2-0.7,4.6-1.9
			c1.5-1.3,2.5-3.4,3.6-7c1.3-4.3,1.8-7,3.4-17c2.2,0.3,3.2,0.9,4,2.1c1.2,1.8,1.9,4.5,1.9,7.6c0,3.6-0.9,6.9-2.3,8.6
			c-1.4,1.8-3.2,2.4-7,2.5v6.4h0.4c4.6,0,7.8-0.9,10.4-3c3.5-2.8,5.5-8.2,5.5-14.5C452,7.5,446.4,1.9,435.5,1.9z M429.2,24.6
			c-0.5,1.4-1.2,2.2-2.2,2.2c-1.9,0-3.2-2.8-3.2-6.8c0-3.7,1.1-7,2.9-9c1.4-1.5,2.8-2.1,5.6-2.6C431.5,14.6,430.1,22,429.2,24.6z
			 M464.4,8.7c-1.7,4.4-4.7,8.1-8.3,10.1v7.3l3.1-2v12.8h6.4V18c2.4-3,3.8-6,4.6-9.4H464.4z M469.5,0.9h-6.3
			c-1.1,2.9-3.8,5.4-7.2,6.6v6.7C462,11.8,467.9,6,469.5,0.9z M484.6,10h1.8v2.1h6V4.7h-7.8V0.8h-6.1v4h-8.1v16
			c-0.1,5.2-0.7,7-3,8.7v7.7c3.2-1.3,4.5-2.2,6.6-4.6v4.7c4-1,5.6-1.8,9.4-4.5c2.8,2.2,5.1,3.2,9.1,4.3v-7c-1.9-0.5-2.8-0.8-4.8-2
			c2.5-3.4,3.8-6,4.8-9.7v-4.5h-7.9V10z M476.6,10h1.9v3.9h-1.9V10z M475.1,30.4c1-2.2,1-2.5,1.4-6.8c1.1,2.3,1.6,3.1,2.8,4.7
			C477.7,29.4,477,29.8,475.1,30.4z M485.8,19.5c-0.8,2.2-1.2,3-2.3,4.6c-1.3-1.6-1.9-2.5-2.7-4.6H485.8z M521.4,20.6h9.9V14h-11.5
			c-0.5-2.7-0.6-3.7-0.8-6.4c5.4-0.2,7.4-0.3,11.4-0.6V0c-6.8,1.1-12.4,1.4-30.7,1.6v28.8c-1.7,0.1-2.1,0.1-4.3,0.1v6.8
			c11.2-0.4,18.4-0.9,26-2.1v-2.4c3.4,2.6,5.6,3.4,11,4.3v-7.4C526.9,28.7,523.3,25.8,521.4,20.6z M506.5,7.9c2.2,0,2.7,0,5.6-0.1
			c0.2,3.2,0.3,3.8,0.6,6.2h-6.2V7.9z M506.5,30.1v-9.4h7.2c1.2,3.7,2.1,5.5,4.2,8.4C514.3,29.6,512.8,29.8,506.5,30.1z"/>
	</g>
</g>
</svg>
