<?xml version="1.0" encoding="utf-8"?>
<!-- Generator: Adobe Illustrator 24.1.0, SVG Export Plug-In . SVG Version: 6.00 Build 0)  -->
<svg version="1.1" id="&#x30EC;&#x30A4;&#x30E4;&#x30FC;_1" xmlns="http://www.w3.org/2000/svg" xmlns:xlink="http://www.w3.org/1999/xlink" x="0px" y="0px" viewbox="0 0 131.68 31.127" style="enable-background:new 0 0 131.68 31.127;" xml:space="preserve" width="131.68" height="31.127">
<style type="text/css">
	.st0{fill-rule:evenodd;clip-rule:evenodd;fill:#FFFFFF;}
</style>
<g>
	<path class="st0" d="M105.704,1.731l23.975,13.832l-23.975,13.832V1.731z"/>
	<path d="M104.704,31.127V0l26.977,15.563L104.704,31.127z M106.704,3.463v24.201l20.975-12.101L106.704,3.463z"/>
</g>
<g>
	<path class="st0" d="M89.136,18.642v11.332h-5.533V18.642L75.199,2.296h6.238l4.933,10.277l4.933-10.277h6.238L89.136,18.642z
		 M66.376,24.192h-8.557l-1.996,5.782h-6.125L59.809,2.296h4.576l10.11,27.678H68.39L66.376,24.192z M62.106,11.288l-2.533,7.61
		h5.066L62.106,11.288z M26.198,2.296h5.765V24.45h12.656v5.524H26.198V2.296z M11.857,19.881l-5.093,0.001v10.092H1V2.296h10.324
		c1.076,0,2.131,0.101,3.138,0.301l0.053,0.013c1.062,0.277,2.14,0.842,3.204,1.677c0.936,0.667,1.701,1.617,2.273,2.821
		c0.586,1.14,0.89,2.521,0.89,4.078c0,2.13-0.758,4.089-2.252,5.823C17.076,18.86,14.795,19.829,11.857,19.881z M14.791,9.316
		c-0.216-0.379-0.508-0.669-0.893-0.891l-0.031-0.019c-0.66-0.415-1.414-0.606-2.308-0.586H6.764v6.538h4.917
		c1.179-0.02,2.034-0.354,2.598-1.023c0.562-0.683,0.838-1.423,0.838-2.255C15.117,10.37,15.007,9.776,14.791,9.316z"/>
	<path d="M90.136,30.974h-7.533v-12.09L73.56,1.296h8.506l4.304,8.966l4.305-8.966h8.505l-9.043,17.588V30.974z M84.603,28.974
		h3.533V18.4l7.766-15.104h-3.97L86.37,14.885L80.808,3.296h-3.971L84.603,18.4V28.974z M75.924,30.974h-8.245l-2.014-5.782h-7.134
		l-1.996,5.782h-8.268L59.11,1.296h5.974L75.924,30.974z M69.101,28.974h3.964L63.686,3.296h-3.177l-9.38,25.678h3.982l1.996-5.782
		h9.98L69.101,28.974z M45.619,30.974H25.198V1.296h7.765V23.45h12.656V30.974z M27.198,28.974h16.421V25.45H30.963V3.296h-3.765
		V28.974z M7.764,30.974H0V1.296h11.324c1.142,0,2.264,0.108,3.333,0.32l0.11,0.026c1.195,0.312,2.396,0.938,3.569,1.858
		c1.039,0.739,1.913,1.818,2.559,3.178c0.65,1.264,0.987,2.79,0.987,4.507c0,2.376-0.839,4.555-2.494,6.476
		c-1.743,2.075-4.273,3.161-7.513,3.22l-4.111,0.001V30.974z M2,28.974h3.764V18.883l6.084-0.001
		c2.632-0.049,4.656-0.896,6.017-2.515c1.341-1.558,2.018-3.297,2.018-5.18c0-1.396-0.262-2.614-0.78-3.621
		c-0.512-1.077-1.168-1.896-1.963-2.463c-0.994-0.778-1.949-1.282-2.876-1.524c-0.937-0.187-1.927-0.282-2.938-0.282H2V28.974z
		 M66.026,19.898h-7.839l3.92-11.776L66.026,19.898z M60.96,17.898h2.292l-1.146-3.443L60.96,17.898z M6.764,15.358h-1V6.82h5.795
		c1.064-0.029,2.011,0.218,2.84,0.74c0.534,0.308,0.958,0.732,1.26,1.26l0.037,0.071c0.279,0.595,0.42,1.331,0.42,2.189
		c0,1.058-0.358,2.031-1.065,2.89c-0.758,0.899-1.883,1.363-3.354,1.388H6.764z M7.764,13.358h3.917
		c0.862-0.015,1.467-0.233,1.833-0.667c0.409-0.497,0.603-1.011,0.603-1.61c0-0.534-0.074-0.983-0.214-1.303
		c-0.125-0.207-0.282-0.357-0.503-0.485c-0.559-0.35-1.124-0.5-1.818-0.472H7.764V13.358z"/>
</g>
<g>
	<path class="st0" d="M105.704,1.731l23.975,13.832l-23.975,13.832V1.731z"/>
	<path d="M105.204,30.261V0.866l25.477,14.698L105.204,30.261z M106.204,2.597V28.53l22.475-12.967L106.204,2.597z"/>
</g>
<g>
	<path class="st0" d="M89.136,18.642v11.332h-5.533V18.642L75.199,2.296h6.238l4.933,10.277l4.933-10.277h6.238L89.136,18.642z
		 M66.376,24.192h-8.557l-1.996,5.782h-6.125L59.809,2.296h4.576l10.11,27.678H68.39L66.376,24.192z M62.106,11.288l-2.533,7.61
		h5.066L62.106,11.288z M26.198,2.296h5.765V24.45h12.656v5.524H26.198V2.296z M11.857,19.881l-5.093,0.001v10.092H1V2.296h10.324
		c1.076,0,2.131,0.101,3.138,0.301l0.053,0.013c1.062,0.277,2.14,0.842,3.204,1.677c0.936,0.667,1.701,1.617,2.273,2.821
		c0.586,1.14,0.89,2.521,0.89,4.078c0,2.13-0.758,4.089-2.252,5.823C17.076,18.86,14.795,19.829,11.857,19.881z M14.791,9.316
		c-0.216-0.379-0.508-0.669-0.893-0.891l-0.031-0.019c-0.66-0.415-1.414-0.606-2.308-0.586H6.764v6.538h4.917
		c1.179-0.02,2.034-0.354,2.598-1.023c0.562-0.683,0.838-1.423,0.838-2.255C15.117,10.37,15.007,9.776,14.791,9.316z"/>
	<path d="M89.636,30.474h-6.533V18.764L74.38,1.796h7.372l4.618,9.622l4.619-9.622h7.371l-8.724,16.967V30.474z M84.103,29.474
		h4.533V18.521l0.056-0.107l8.029-15.618h-5.104L86.37,13.729L81.123,2.796h-5.104l8.085,15.725V29.474z M75.21,30.474h-7.175
		l-2.014-5.782h-7.845l-1.996,5.782h-7.196L59.46,1.796h5.275L75.21,30.474z M68.746,29.474h5.034L64.035,2.796h-3.876
		l-9.746,26.678h5.054l1.996-5.782h9.269L68.746,29.474z M45.119,30.474H25.698V1.796h6.765V23.95h12.656V30.474z M26.698,29.474
		h17.421V24.95H31.463V2.796h-4.765V29.474z M7.264,30.474H0.5V1.796h10.824c1.11,0,2.198,0.104,3.236,0.311
		c1.209,0.313,2.349,0.908,3.468,1.787c0.988,0.703,1.807,1.717,2.416,3c0.621,1.207,0.938,2.655,0.938,4.292
		c0,2.252-0.798,4.322-2.373,6.149c-1.649,1.964-4.054,2.99-7.143,3.046l-4.602,0.001V30.474z M1.5,29.474h4.764V19.383l5.588-0.001
		c2.785-0.051,4.937-0.957,6.395-2.693c1.418-1.646,2.135-3.496,2.135-5.502c0-1.477-0.281-2.771-0.835-3.85
		c-0.542-1.141-1.252-2.025-2.118-2.642c-1.029-0.807-2.046-1.341-3.041-1.601c-0.997-0.2-2.02-0.298-3.064-0.298H1.5V29.474z
		 M65.332,19.398H58.88l3.227-9.693L65.332,19.398z M60.266,18.398h3.679l-1.839-5.527L60.266,18.398z M6.764,14.858h-0.5V7.32
		h5.295c0.979-0.027,1.83,0.195,2.574,0.663c0.479,0.277,0.832,0.629,1.092,1.085l0.019,0.036c0.248,0.527,0.373,1.192,0.373,1.977
		c0,0.953-0.312,1.794-0.952,2.573c-0.666,0.79-1.638,1.182-2.976,1.205H6.764z M7.264,13.858h4.417
		c1.023-0.018,1.751-0.294,2.216-0.845c0.483-0.587,0.72-1.221,0.72-1.933c0-0.626-0.091-1.142-0.27-1.534
		c-0.171-0.293-0.394-0.512-0.698-0.688c-0.621-0.39-1.276-0.561-2.079-0.539H7.264V13.858z"/>
</g>
</svg>
