<?xml version="1.0" encoding="utf-8"?>
<!-- Generator: Adobe Illustrator 24.0.1, SVG Export Plug-In . SVG Version: 6.00 Build 0)  -->
<svg version="1.1" id="text" xmlns="http://www.w3.org/2000/svg" xmlns:xlink="http://www.w3.org/1999/xlink" x="0px" y="0px" viewbox="0 0 61 23" enable-background="new 0 0 61 23" xml:space="preserve" width="61" height="23">
<path fill="#E60012" d="M24.5,6.7h-3.8v6.2h3.8V6.7z"/>
<path fill="#E60012" d="M29.5,6.7h-3.8v6.2h3.8V6.7z"/>
<path fill="#E60012" d="M31.3,6.7v8.8L29,18.2l-7.3,0l0,4.8l8.6,0h0h1.4v0l1.3,0l-0.8-1.5l3.3-3.9v-9l1-1.9l-1,0H31.3z M31.8,22.4
	l-0.1-0.1l0.1-0.1V22.4z"/>
<path fill="#E60012" d="M54.8,2H40.6v6h12v5.5L49.8,17l-9.1,0l0,6l10.8,0h0H53v0l1.3,0l-0.8-1.4l4.5-5.3V9.1V6.3h-3.3V2z"/>
<path fill="#E60012" d="M55.5,0v5.4H61V0H55.5z M58.9,3.4h-1.3V2.1h1.3V3.4z"/>
<path fill="#E60012" d="M13.3,11.7L6.8,8.2V0.9H1.3L0,0.9l1.3,2.4V23h5.5l1.3,0l-1.3-2.4v-6.4l5.7,3.1l4.2,0l0-5.5L13.3,11.7z"/>
</svg>
