<?xml version="1.0" encoding="utf-8"?>
<!-- Generator: Adobe Illustrator 24.1.0, SVG Export Plug-In . SVG Version: 6.00 Build 0)  -->
<svg version="1.1" id="&#x30EC;&#x30A4;&#x30E4;&#x30FC;_1" xmlns="http://www.w3.org/2000/svg" xmlns:xlink="http://www.w3.org/1999/xlink" x="0px" y="0px" viewbox="0 0 94.03 16.14" style="enable-background:new 0 0 94.03 16.14;" xml:space="preserve" width="94.03" height="16.14">
<style type="text/css">
	.st0{fill-rule:evenodd;clip-rule:evenodd;}
</style>
<path class="st0" d="M89.33,5.63c2.64,0,4.7,1.98,4.7,4.57c0,1.69-0.67,3.26-1.8,4.28c-1.26,1.11-3.08,1.65-5.58,1.65
	c-3.82,0-5.83-1.15-5.83-3.36c0-1.84,1.62-3.26,3.72-3.26c2.03,0,3.64,1.28,3.64,2.9c0,0.18-0.02,0.49-0.05,0.77
	c1.15-0.12,1.71-0.36,2.12-0.92c0.38-0.5,0.59-1.15,0.59-1.85c0-1.57-1.1-2.41-3.13-2.41c-1.84,0-3.42,0.34-5.35,1.19
	c-1.48,0.63-2.14,1.01-3.26,1.85V7.92c0.14-0.11,0.56-0.36,0.59-0.38c0.59-0.32,1.19-0.68,1.78-1.03c0.41-0.23,1.06-0.61,1.76-1.03
	c1.91-1.13,2.12-1.26,4.03-2.27l-6.39,0.11V0.58h11.09v2.65l-4.21,2.54C88.61,5.65,88.93,5.63,89.33,5.63z M84.34,12.15
	c-0.4,0-0.61,0.16-0.61,0.49c0,0.5,0.59,0.88,1.39,0.88h0.16h0.07l0.14-0.02C85.35,12.54,85.03,12.15,84.34,12.15z M70.8,15.93
	h-3.58c1.46-2.05,1.93-3.08,2.45-5.47c-1.24-0.36-1.71-0.47-2.97-0.59c-1.01,3.9-2.34,5.43-4.68,5.43c-1.08,0-1.85-0.31-2.45-0.93
	c-0.63-0.7-0.99-1.66-0.99-2.68c0-1.17,0.56-2.34,1.55-3.22c1.04-0.94,2.43-1.44,4.28-1.53c0.32-1.42,0.41-2.02,0.47-3.33h-4.43V0.7
	h7.81c-0.14,2.32-0.45,4.46-0.92,6.37c1.31,0.22,1.51,0.25,2.79,0.52c0.13-0.97,0.16-1.4,0.16-2.41c0-0.29-0.02-0.86-0.04-1.53h3.06
	c-0.11,2.48-0.14,3.15-0.32,4.86l1.93,0.63v3.38l-2.38-1.06C72.06,13.3,71.52,14.69,70.8,15.93z M62.05,10.38
	c-0.41,0.41-0.63,0.86-0.63,1.31c0,0.47,0.29,0.88,0.63,0.88c0.45,0,0.85-0.45,1.17-1.33c0.16-0.43,0.34-0.99,0.43-1.31
	c0.02-0.07,0.04-0.16,0.07-0.29C62.92,9.7,62.57,9.86,62.05,10.38z M41.96,15.03c-1.65-0.77-2.63-2.36-2.63-4.27
	c0-1.58,0.68-3.02,1.92-4.07c0.94-0.79,1.85-1.17,4.01-1.6L45.1,0h3.51l-0.07,4.68c2.02-0.14,2.92-0.18,5.33-0.2v3.04
	c-3.17,0-6.35,0.14-7.9,0.36c-1.87,0.23-3.15,1.35-3.15,2.77c0,0.97,0.56,1.66,1.51,1.87c0.47,0.11,1.78,0.18,3.4,0.18
	c0.94,0,2.9-0.09,6.17-0.27v3.18c-2.66,0.09-4.12,0.13-6.03,0.13C44.46,15.75,43.16,15.59,41.96,15.03z M25.21,15.4h-3.78v-2.64
	h3.78c2.14,0,3.71-0.31,4.66-0.88c0.79-0.5,1.31-1.6,1.31-2.81c0-0.9-0.38-1.87-0.92-2.36c-0.32-0.29-0.72-0.49-1.17-0.56
	c-0.07,0-1.8-0.09-1.96-0.07l-7,0.07V3.42l7.04-0.07h0.29c2.99,0,4.21,0.36,5.33,1.58c0.99,1.06,1.53,2.54,1.53,4.16
	c0,1.98-0.92,3.87-2.39,4.95C30.57,15.03,28.7,15.4,25.21,15.4z M9.32,15.95c-2.47,0-3.87-0.32-4.57-1.06
	c-0.63-0.65-0.85-1.42-0.85-3.01V9.74H0V7.22h3.91v-2H0.09V2.61h3.82v-2.5h3.04v2.5h6.17v2.61H6.95v2h6.17v1.82h1.65
	c0.07,0.99,0.09,1.46,0.09,2.11c0,1.42-0.11,2.02-0.52,2.73C13.53,15.33,12.04,15.95,9.32,15.95z M11.63,9.74H6.95v1.46
	c0,1.03,0.05,1.3,0.31,1.55c0.25,0.25,0.76,0.38,1.62,0.38c2.09,0,2.83-0.54,2.83-2.11C11.7,10.78,11.68,10.35,11.63,9.74z"/>
</svg>
