<?xml version="1.0" encoding="utf-8"?>
<!-- Generator: Adobe Illustrator 19.2.1, SVG Export Plug-In . SVG Version: 6.00 Build 0)  -->
<svg version="1.1" id="当選" xmlns="http://www.w3.org/2000/svg" xmlns:xlink="http://www.w3.org/1999/xlink" x="0px" y="0px"
	 viewBox="0 0 32 32" style="enable-background:new 0 0 32 32;" xml:space="preserve">
<style type="text/css">
	.st0{fill:#0084C8;}
</style>
<title>アートボード 24</title>
<path class="st0" d="M12.4,3.5l11.8,11.8c0.4,0.4,0.4,1,0,1.3L22.9,18c-0.4,0.4-1,0.4-1.3,0L9.8,6.1c-0.4-0.4-0.4-1,0-1.3l1.3-1.3
	C11.4,3.1,12,3.1,12.4,3.5z"/>
<path class="st0" d="M24.2,16.7L12.4,28.5c-0.4,0.4-1,0.4-1.3,0l-1.3-1.3c-0.4-0.4-0.4-1,0-1.3L21.6,14c0.4-0.4,1-0.4,1.3,0l1.3,1.3
	C24.6,15.7,24.6,16.3,24.2,16.7z"/>
</svg>
