<svg xmlns="http://www.w3.org/2000/svg" viewBox="0 0 64 64">
  <defs>
    <style>
      .cls-1 {
        fill: #ffe6e6;
      }

      .cls-2 {
        fill: #e50000;
      }
    </style>
  </defs>
  <title>ic-alert-001</title>
  <g id="レイヤー_9" data-name="レイヤー 9">
    <rect class="cls-1" width="64" height="64" rx="4" ry="4"/>
  </g>
  <g id="レイヤー_8" data-name="レイヤー 8">
    <path class="cls-2" d="M52.856,44.8,35.045,15.86a3.184,3.184,0,0,0-5.423,0L11.811,44.8a3.183,3.183,0,0,0,2.711,4.852H50.145A3.184,3.184,0,0,0,52.856,44.8ZM32.333,46.472a2.388,2.388,0,1,1,2.388-2.388A2.388,2.388,0,0,1,32.333,46.472Zm2.388-9.153a2.388,2.388,0,1,1-4.775,0V25.382a2.388,2.388,0,1,1,4.775,0Z"/>
  </g>
</svg>
