<?xml version="1.0" encoding="utf-8"?>
<!-- Generator: Adobe Illustrator 19.2.1, SVG Export Plug-In . SVG Version: 6.00 Build 0)  -->
<svg version="1.1" id="当選" xmlns="http://www.w3.org/2000/svg" xmlns:xlink="http://www.w3.org/1999/xlink" x="0px" y="0px"
	 viewBox="0 0 32 32" style="enable-background:new 0 0 32 32;" xml:space="preserve">
<style type="text/css">
	.st0{fill:#818181;}
</style>
<title>アートボード 36</title>
<path class="st0" d="M11.912,4.111l11.406,11.406c0.246,0.246,0.246,0.645,0,0.891l-0.339,0.339c-0.246,0.246-0.645,0.246-0.891,0
	L10.681,5.342c-0.246-0.246-0.246-0.645,0-0.891l0.339-0.339C11.267,3.865,11.666,3.865,11.912,4.111z"/>
<path class="st0" d="M23.318,16.411L11.912,27.817c-0.246,0.246-0.645,0.246-0.891,0l-0.339-0.339c-0.246-0.246-0.246-0.645,0-0.891
	l11.406-11.406c0.246-0.246,0.645-0.246,0.891,0l0.339,0.339C23.564,15.766,23.564,16.165,23.318,16.411z"/>
</svg>
