<svg id="当選" xmlns="http://www.w3.org/2000/svg" viewBox="0 0 32 32"><defs><style>.cls-1{fill:silver;}</style></defs><title>アートボード 20</title><path class="cls-1" d="M2,9.09V27.91A2.09,2.09,0,0,0,4.09,30H22.91a1,1,0,0,0,1-1V28H4.09A.09.09,0,0,1,4,27.91V8.09H3A1,1,0,0,0,2,9.09Z"/><path class="cls-1" d="M27.91,2H8.09A2.09,2.09,0,0,0,6,4.09V23.91A2.09,2.09,0,0,0,8.09,26H27.91A2.09,2.09,0,0,0,30,23.91V4.09A2.09,2.09,0,0,0,27.91,2Zm0,22H8.09A.09.09,0,0,1,8,23.91V9H28V23.91A.09.09,0,0,1,27.91,24Z"/></svg>