<?xml version="1.0" encoding="utf-8"?>
<!-- Generator: Adobe Illustrator 19.2.1, SVG Export Plug-In . SVG Version: 6.00 Build 0)  -->
<svg version="1.1" id="当選" xmlns="http://www.w3.org/2000/svg" xmlns:xlink="http://www.w3.org/1999/xlink" x="0px" y="0px"
	 viewBox="0 0 32 32" style="enable-background:new 0 0 32 32;" xml:space="preserve">
<style type="text/css">
	.st0{fill:#66B5DE;}
</style>
<title>アートボード 20</title>
<path class="st0" d="M2,9.1v18.8C2,29.1,2.9,30,4.1,30l0,0h18.8c0.6,0,1-0.4,1-1v-1H4.1C4,28,4,28,4,27.9l0,0V8.1H3
	C2.4,8.1,2,8.5,2,9.1z"/>
<path class="st0" d="M27.9,2H8.1C6.9,2,6,2.9,6,4.1l0,0v19.8C6,25.1,6.9,26,8.1,26l0,0h19.8c1.2,0,2.1-0.9,2.1-2.1l0,0V4.1
	C30,2.9,29.1,2,27.9,2L27.9,2z M27.9,24H8.1C8,24,8,24,8,23.9l0,0V9h20L27.9,24C28,24,28,24,27.9,24L27.9,24z"/>
</svg>
