<?xml version="1.0" encoding="utf-8"?>
<!-- Generator: Adobe Illustrator 19.2.1, SVG Export Plug-In . SVG Version: 6.00 Build 0)  -->
<svg version="1.1" id="当選" xmlns="http://www.w3.org/2000/svg" xmlns:xlink="http://www.w3.org/1999/xlink" x="0px" y="0px"
	 viewBox="0 0 32 32" style="enable-background:new 0 0 32 32;" xml:space="preserve">
<style type="text/css">
	.st0{fill:#5FA30E;}
</style>
<title>アートボード 27</title>
<path class="st0" d="M27.8,11.1L14.1,24.8c-0.5,0.5-1.4,0.5-1.9,0l-0.9-0.9c-0.5-0.5-0.5-1.4,0-1.9L24.9,8.3c0.5-0.5,1.4-0.5,1.9,0
	l0.9,0.9C28.3,9.7,28.3,10.6,27.8,11.1z"/>
<path class="st0" d="M12.2,24.8l-8-8c-0.5-0.5-0.5-1.4,0-1.9l0.9-0.9c0.5-0.5,1.4-0.5,1.9,0l8,8c0.5,0.5,0.5,1.4,0,1.9l-0.9,0.9
	C13.6,25.3,12.7,25.3,12.2,24.8z"/>
</svg>
