<?xml version="1.0" encoding="utf-8"?>
<!-- Generator: Adobe Illustrator 19.2.1, SVG Export Plug-In . SVG Version: 6.00 Build 0)  -->
<svg version="1.1" id="当選" xmlns="http://www.w3.org/2000/svg" xmlns:xlink="http://www.w3.org/1999/xlink" x="0px" y="0px"
	 viewBox="0 0 32 32" style="enable-background:new 0 0 32 32;" xml:space="preserve">
<style type="text/css">
	.st0{fill:#0084C8;}
</style>
<title>アートボード 26</title>
<path class="st0" d="M28.5,6.3L6.3,28.5C5.8,29,5,29,4.4,28.5l-0.9-0.9C3,27,3,26.2,3.5,25.7L25.7,3.5C26.2,3,27,3,27.6,3.5l0.9,0.9
	C29,5,29,5.8,28.5,6.3z"/>
<path class="st0" d="M25.3,28.2L3.9,6.7c-0.5-0.5-0.5-1.4,0-1.9l1-1c0.5-0.5,1.4-0.5,1.9,0l21.5,21.5c0.5,0.5,0.5,1.4,0,1.9l-1,1
	C26.7,28.7,25.8,28.7,25.3,28.2z"/>
</svg>
