<?xml version="1.0" encoding="utf-8"?>
<!-- Generator: Adobe Illustrator 19.2.1, SVG Export Plug-In . SVG Version: 6.00 Build 0)  -->
<svg version="1.1" id="当選" xmlns="http://www.w3.org/2000/svg" xmlns:xlink="http://www.w3.org/1999/xlink" x="0px" y="0px"
	 viewBox="0 0 32 32" style="enable-background:new 0 0 32 32;" xml:space="preserve">
<style type="text/css">
	.st0{fill:#66B5DE;}
</style>
<title>アートボード 24 のコピー 2</title>
<path class="st0" d="M3.5,19.6L15.3,7.8c0.4-0.4,1-0.4,1.3,0L18,9.1c0.4,0.4,0.4,1,0,1.3L6.1,22.2c-0.4,0.4-1,0.4-1.3,0l-1.3-1.3
	C3.1,20.6,3.1,20,3.5,19.6z"/>
<path class="st0" d="M16.7,7.8l11.8,11.8c0.4,0.4,0.4,1,0,1.3l-1.3,1.3c-0.4,0.4-1,0.4-1.3,0L14,10.4c-0.4-0.4-0.4-1,0-1.3l1.3-1.3
	C15.7,7.4,16.3,7.4,16.7,7.8z"/>
</svg>
