<?xml version="1.0" encoding="utf-8"?>
<!-- Generator: Adobe Illustrator 19.2.1, SVG Export Plug-In . SVG Version: 6.00 Build 0)  -->
<svg version="1.1" id="当選" xmlns="http://www.w3.org/2000/svg" xmlns:xlink="http://www.w3.org/1999/xlink" x="0px" y="0px"
	 viewBox="0 0 64 64" style="enable-background:new 0 0 64 64;" xml:space="preserve">
<style type="text/css">
	.st0{fill:#E50000;}
</style>
<title>アートボード 32</title>
<path class="st0" d="M60,30.42c0-11.6-12.54-21-28-21s-27,9.4-27,21C5,41.78,16,51,31,51.4c2.478,2.575,5.867,4.076,9.44,4.18
	c1.27,0,1.36-1.72-0.07-1.95c-1.268-0.336-2.206-1.408-2.37-2.71C50.6,48.85,60,40.46,60,30.42z M34.6,41
	c-1.064,0.934-2.656,0.934-3.72,0c-0.913-0.976-0.913-2.494,0-3.47c1.05-0.922,2.62-0.922,3.67,0c0.46,0.464,0.709,1.097,0.69,1.75
	C35.269,39.916,35.038,40.537,34.6,41z M37.36,30.6l-1.74,1.72c-0.565,0.775-0.841,1.723-0.78,2.68
	c-0.005,0.327-0.272,0.59-0.6,0.59h-3.19c-0.331,0-0.6-0.269-0.6-0.6c-0.031-1.102,0.156-2.2,0.55-3.23
	c0.483-1.005,1.163-1.903,2-2.64c0.605-0.543,1.158-1.142,1.65-1.79c0.266-0.464,0.387-0.997,0.35-1.53
	c0.045-0.576-0.13-1.148-0.49-1.6c-0.399-0.371-0.937-0.557-1.48-0.51c-0.561-0.033-1.113,0.154-1.54,0.52
	c-0.375,0.366-0.572,0.877-0.54,1.4c0,0.331-0.269,0.6-0.6,0.6l0,0H27c-0.331,0-0.6-0.269-0.6-0.6c0-0.003,0-0.007,0-0.01
	c-0.051-1.673,0.646-3.282,1.9-4.39c1.348-1.106,3.058-1.676,4.8-1.6c1.747-0.096,3.465,0.472,4.81,1.59
	c1.217,1.155,1.867,2.785,1.78,4.46C39.596,27.55,38.758,29.325,37.36,30.6z"/>
</svg>
