<svg id="当選" xmlns="http://www.w3.org/2000/svg" viewBox="0 0 32 32"><defs><style>.cls-1{fill:#e50000;}</style></defs><title>アートボード 18</title><path class="cls-1" d="M28,20v8H14V20H28m.13-2H13.87A1.87,1.87,0,0,0,12,19.87v8.26A1.87,1.87,0,0,0,13.87,30H28.13A1.87,1.87,0,0,0,30,28.13V19.87A1.87,1.87,0,0,0,28.13,18Z"/><path class="cls-1" d="M12,20H9V12H23v6h2V11.87A1.87,1.87,0,0,0,23.13,10H8.87A1.87,1.87,0,0,0,7,11.87v8.26A1.87,1.87,0,0,0,8.87,22H12Z"/><path class="cls-1" d="M7,12H4V4H18v6h2V3.87A1.87,1.87,0,0,0,18.13,2H3.87A1.87,1.87,0,0,0,2,3.87v8.26A1.87,1.87,0,0,0,3.87,14H7Z"/></svg>