<svg id="当選" xmlns="http://www.w3.org/2000/svg" viewBox="0 0 64 64"><defs><style>.cls-1{fill:#fff;}</style></defs><title>アートボード 2</title><circle class="cls-1" cx="25.04" cy="53.05" r="4.78"/><circle class="cls-1" cx="49.92" cy="53.05" r="4.78"/><path class="cls-1" d="M17.83,44.91,9.91,13.22l-5-1.51A2.87,2.87,0,0,1,3,8.13H3A2.87,2.87,0,0,1,6.61,6.22l7.05,2.15A1.91,1.91,0,0,1,15,9.71l7.72,30.9h32a2.87,2.87,0,0,1,2.87,2.87h0a2.87,2.87,0,0,1-2.87,2.87h-35A1.91,1.91,0,0,1,17.83,44.91Z"/><path class="cls-1" d="M53.21,36.78H27.49a1.91,1.91,0,0,1-1.86-1.45L20.85,17.15a1.91,1.91,0,0,1,1.86-2.38H58a1.91,1.91,0,0,1,1.86,2.38L55.06,35.33A1.91,1.91,0,0,1,53.21,36.78Z"/></svg>