<?xml version="1.0" encoding="utf-8"?>
<!-- Generator: Adobe Illustrator 19.2.1, SVG Export Plug-In . SVG Version: 6.00 Build 0)  -->
<svg version="1.1" id="当選" xmlns="http://www.w3.org/2000/svg" xmlns:xlink="http://www.w3.org/1999/xlink" x="0px" y="0px"
	 viewBox="0 0 32 32" style="enable-background:new 0 0 32 32;" xml:space="preserve">
<style type="text/css">
	.st0{fill:#0084C8;}
</style>
<title>アートボード 33</title>
<path class="st0" d="M16,2C8.3,2,2,8.3,2,16s6.3,14,14,14s14-6.3,14-14S23.7,2,16,2z M17,22.2c-0.7,0.5-1.6,0.5-2.3,0
	c-0.6-0.5-0.6-1.4-0.1-2c0,0,0.1-0.1,0.1-0.1c0.7-0.5,1.6-0.5,2.3,0C17.6,20.7,17.6,21.6,17,22.2C17.1,22.2,17,22.2,17,22.2z
	 M19.7,14.6c-0.2,0.4-0.5,0.8-0.9,1.2l-1,0.9c-0.3,0.2-0.4,0.5-0.6,0.8c-0.1,0.3-0.2,0.7-0.2,1.1h-2.4c0-0.7,0.1-1.4,0.3-2
	c0.2-0.5,0.5-0.9,0.9-1.2c0.4-0.3,0.7-0.6,1-1c0.2-0.3,0.3-0.6,0.3-1c0-0.9-0.4-1.3-1.1-1.3c-0.3,0-0.6,0.1-0.8,0.4
	c-0.2,0.3-0.3,0.6-0.3,1H12c0-1,0.3-2,1.1-2.6C13.9,10.2,15,9.9,16,10c1-0.1,2.1,0.2,2.9,0.9c0.7,0.6,1.1,1.6,1,2.5
	C20,13.8,19.9,14.2,19.7,14.6L19.7,14.6z"/>
</svg>
