<?xml version="1.0" encoding="utf-8"?>
<!-- Generator: Adobe Illustrator 19.2.1, SVG Export Plug-In . SVG Version: 6.00 Build 0)  -->
<svg version="1.1" id="当選" xmlns="http://www.w3.org/2000/svg" xmlns:xlink="http://www.w3.org/1999/xlink" x="0px" y="0px"
	 viewBox="0 0 64 64" style="enable-background:new 0 0 64 64;" xml:space="preserve">
<style type="text/css">
	.st0{fill:#0084C8;}
</style>
<title>アートボード 1</title>
<path class="st0" d="M50.5,17.8v-10c0-1.1-0.9-2-2-2h-2c-1.1,0-2,0.9-2,2v4L50.5,17.8z"/>
<path class="st0" d="M55.8,37.1L32,13.4L8.2,37.1c-1.2,1.2-3.1,1.2-4.2,0l0,0c-1.2-1.2-1.2-3.1,0-4.2L30.6,6.4c0.8-0.8,2-0.8,2.8,0
	L60,32.8c1.2,1.2,1.2,3.1,0,4.2l0,0C58.8,38.3,56.9,38.3,55.8,37.1z"/>
<polygon class="st0" points="39.2,20 39.2,20.5 39.7,20.5 "/>
<path class="st0" d="M32,18.9L14.1,36.8c-0.4,0.4-0.6,0.9-0.6,1.4V55c0,1.1,0.9,2,2,2h12.6L28,56.8V45.3c0-2.2,1.8-4,4-4l0,0
	c2.2,0,4,1.8,4,4V57h12.5c1.1,0,2-0.9,2-2V38.2c0-0.5-0.2-1-0.6-1.4L32,18.9z"/>
</svg>
