<svg id="当選" xmlns="http://www.w3.org/2000/svg" viewBox="0 0 32 32"><defs><style>.cls-1{fill:silver;}</style></defs><title>アートボード 33</title><path class="cls-1" d="M16,2A14,14,0,1,0,30,16,14,14,0,0,0,16,2Zm1,20.21a1.79,1.79,0,0,1-2.27,0,1.4,1.4,0,0,1,0-2.06,1.8,1.8,0,0,1,2.27,0,1.4,1.4,0,0,1,0,2.06Zm2.69-7.59a4.34,4.34,0,0,1-.9,1.18l-1,.91a2.3,2.3,0,0,0-.58.82,3.25,3.25,0,0,0-.18,1.07H14.66a5.53,5.53,0,0,1,.28-2,3.07,3.07,0,0,1,.91-1.24,6,6,0,0,0,1-1,1.57,1.57,0,0,0,.33-1q0-1.28-1.1-1.28a1,1,0,0,0-.82.37,1.59,1.59,0,0,0-.33,1H12a3.43,3.43,0,0,1,1.07-2.65A4.27,4.27,0,0,1,16,10a4.43,4.43,0,0,1,2.93.87,3.07,3.07,0,0,1,1,2.49A2.9,2.9,0,0,1,19.72,14.62Z"/></svg>