<svg id="当選" xmlns="http://www.w3.org/2000/svg" viewBox="0 0 64 64"><defs><style>.cls-1{fill:#fff;}</style></defs><title>アートボード 1</title><path class="cls-1" d="M50.5,17.75v-10a2,2,0,0,0-2-2h-2a2,2,0,0,0-2,2v4Z"/><path class="cls-1" d="M55.76,37.1,32,13.43,8.24,37.1a3,3,0,0,1-4.24,0H4a3,3,0,0,1,0-4.24L30.59,6.37a2,2,0,0,1,2.82,0L60,32.85a3,3,0,0,1,0,4.24h0A3,3,0,0,1,55.76,37.1Z"/><polygon class="cls-1" points="39.25 20.04 39.25 20.5 39.72 20.5 39.25 20.04"/><path class="cls-1" d="M32,18.91,14.09,36.75a2,2,0,0,0-.59,1.42V55a2,2,0,0,0,2,2H28.12L28,56.76V45.26a4,4,0,0,1,4-4h0a4,4,0,0,1,4,4V57H48.5a2,2,0,0,0,2-2V38.17a2,2,0,0,0-.59-1.42Z"/></svg>