<svg id="当選" xmlns="http://www.w3.org/2000/svg" viewBox="0 0 64 64"><defs><style>.cls-1{fill:#e50000;}</style></defs><title>icon_0328</title><path class="cls-1" d="M59.641,31.227L44.37,18.993a1,1,0,0,0-1.627.781v5.075H27.017a1,1,0,0,0-1,1V38.145a1,1,0,0,0,1,1H42.744v5.077A1,1,0,0,0,44.37,45L59.641,32.79A1,1,0,0,0,59.641,31.227Z"/><path class="cls-1" d="M36.137,19.865v-9.3a3.813,3.813,0,0,0-4-3.565H9a4.012,4.012,0,0,0-4,4V53a4.012,4.012,0,0,0,4,4H32.137a3.817,3.817,0,0,0,4-3.576v-9.3H30.584v7.3H10.576V12.576H30.584v7.289h5.553Z"/></svg>