<svg id="当選" xmlns="http://www.w3.org/2000/svg" viewBox="0 0 64 64"><defs><style>.cls-1{fill:#fff;fill-rule:evenodd;}</style></defs><title>アートボード 6</title><path class="cls-1" d="M59.79,56.7l-4.46-4.5a10.7,10.7,0,0,0-6.68-16.29v-5.8A9.48,9.48,0,0,0,53,22.2s0,0,0,0h0s0,0,0,0,0-.11,0-.17,0-.07,0-.11,0-.07,0-.1,0-.11,0-.17v0h0v0L48.56,7a2.16,2.16,0,0,0-2.07-1.56H11.91A2.16,2.16,0,0,0,9.84,7L5.53,21.49v0h0v0l0,.17,0,.1s0,.07,0,.11,0,.11,0,.17,0,0,0,0h0s0,0,0,0a9.48,9.48,0,0,0,4.32,7.91V51.4a2.17,2.17,0,0,0,2.16,2.18H38.72a10.47,10.47,0,0,0,13.55,1.7l4.46,4.5a2.15,2.15,0,0,0,3.06,0A2.2,2.2,0,0,0,59.79,56.7Zm-23.53-13H33v-3a3.87,3.87,0,1,0-7.74,0v3H14.07V31.58c.24,0,.48,0,.72,0A9.32,9.32,0,0,0,22,28.19a9.3,9.3,0,0,0,14.41,0,9.32,9.32,0,0,0,7.21,3.42c.24,0,.48,0,.72,0v4.33A10.65,10.65,0,0,0,36.26,43.72Zm10.24,8.94a6.31,6.31,0,1,1,6.24-6.31A6.28,6.28,0,0,1,46.49,52.66Z"/></svg>