<svg xmlns="http://www.w3.org/2000/svg" width="211" height="146" viewBox="0 0 211 146">
  <defs>
    <style>
      .cls-1 {
        fill: #e60012;
        fill-rule: evenodd;
      }
    </style>
  </defs>
  <g id="IMG1_10022.svg">
    <path id="シェイプ_9" data-name="シェイプ 9" class="cls-1" d="M902.189,715H871.152V677.454h35.782v32.805A4.741,4.741,0,0,1,902.189,715Zm-77.816-45.732h38.475V646.291h-36.1A4.743,4.743,0,0,0,822,651.03V666.9A2.371,2.371,0,0,0,824.373,669.265Zm85.254,0H871.152V646.291h36.1A4.742,4.742,0,0,1,912,651.03V666.9A2.371,2.371,0,0,1,909.627,669.265ZM831.811,715h31.037V677.454H827.066v32.805A4.741,4.741,0,0,0,831.811,715ZM881.88,613a16.913,16.913,0,0,0-10.694,4.035,16.1,16.1,0,0,0-4.187,6.1,16.357,16.357,0,0,0-4.182-6.1,16.917,16.917,0,0,0-10.7-4.035,12.883,12.883,0,0,0-10.013,4.642c-5.76,6.917-2.844,15.726,2.82,20.508,3.357,2.839,9.2,4.218,17.874,4.218,1.593,0,3.042-.044,4.23-0.084,1.125,0.04,2.574.084,4.166,0.084,8.669,0,14.516-1.379,17.875-4.218,5.662-4.783,8.577-13.592,2.827-20.5A12.9,12.9,0,0,0,881.88,613h0Zm-11.1,22.489c1.449-8.729,3.421-12,4.846-13.208a10.259,10.259,0,0,1,6.212-2.429,6.168,6.168,0,0,1,4.821,2.243c3.239,3.93.565,8.622-2.026,10.813-1.394,1.177-4.89,2.581-13.626,2.581h-0.227Zm-7.782,0c-8.735,0-12.23-1.4-13.624-2.581-2.592-2.189-5.265-6.88-2.007-10.833a6.152,6.152,0,0,1,4.8-2.223,10.259,10.259,0,0,1,6.212,2.429c1.423,1.2,3.393,4.479,4.843,13.208H863Z" transform="translate(-761 -592)"/>
  </g>
</svg>
