<svg id="当選" xmlns="http://www.w3.org/2000/svg" viewBox="0 0 64 64"><defs><style>.cls-1{fill:none;}.cls-2{fill:#e50000;}</style></defs><title>アートボード 8</title><rect class="cls-1" width="64" height="64"/><path class="cls-2" d="M56.45,54.78,54.62,47.5a10.71,10.71,0,0,0-5.6-7l-8.58-4.29a13.64,13.64,0,0,1-16.88,0L15,40.51a10.71,10.71,0,0,0-5.6,7L7.55,54.78A1.79,1.79,0,0,0,9.29,57H54.71A1.79,1.79,0,0,0,56.45,54.78Z"/><path class="cls-2" d="M44.5,19.7c0,9.52-5.6,15.87-12.5,15.87S19.5,29.22,19.5,19.7a12.5,12.5,0,1,1,25,0Z"/></svg>