<svg xmlns="http://www.w3.org/2000/svg" width="211" height="146" viewBox="0 0 211 146">
  <defs>
    <style>
      .cls-1 {
        fill: #e60012;
        fill-rule: evenodd;
      }
    </style>
  </defs>
  <g id="IMG1_10024.svg">
    <path id="シェイプ_3" data-name="シェイプ 3" class="cls-1" d="M1133.82,451a15.679,15.679,0,0,1,15.79,15.566c0,11.842-7.07,19.766-15.79,19.766s-15.79-7.879-15.79-19.766A15.679,15.679,0,0,1,1133.82,451Zm-35.54,21.983a16.9,16.9,0,0,1,16.98,16.821c0,12.8-7.6,21.361-16.98,21.361s-16.99-8.515-16.99-21.361A16.908,16.908,0,0,1,1098.28,472.983Zm33.21,64.032-2.47-9.787a14.43,14.43,0,0,0-7.62-9.4l-11.27-5.582a19.954,19.954,0,0,1-23.74.013l-11.24,5.569a14.43,14.43,0,0,0-7.62,9.4l-2.47,9.787a2.13,2.13,0,0,0-.07.561,2.4,2.4,0,0,0,2.4,2.424h61.77a2.427,2.427,0,0,0,.56-0.071A2.4,2.4,0,0,0,1131.49,537.015ZM1082.52,508.6c-0.03-.04-0.07-0.075-0.1-0.115-3.95-4.791-6.12-11.424-6.12-18.679,0-.439.02-0.873,0.04-1.306l-2.73-1.345a17.422,17.422,0,0,1-21.32,0l-10.84,5.343a13.375,13.375,0,0,0-7.08,8.7l-2.3,9.056a3.013,3.013,0,0,0-.07.519,2.246,2.246,0,0,0,2.24,2.243h39.36Zm82.18,1.655-2.3-9.056a13.4,13.4,0,0,0-7.08-8.7l-10.84-5.343a17.436,17.436,0,0,1-21.33,0l-2.93,1.446c0.02,0.4.04,0.8,0.04,1.2a29.168,29.168,0,0,1-6.28,18.771l8.97,4.44h39.58A2.247,2.247,0,0,0,1164.7,510.253ZM1062.96,451a15.679,15.679,0,0,1,15.79,15.566c0,11.842-7.07,19.766-15.79,19.766s-15.8-7.879-15.8-19.766A15.682,15.682,0,0,1,1062.96,451Z" transform="translate(-993 -421)"/>
  </g>
</svg>
