<svg id="当選" xmlns="http://www.w3.org/2000/svg" viewBox="0 0 56 44"><defs><style>.cls-1{fill:#e50000;}</style></defs><title>アートボード 3</title><path class="cls-1" d="M55.895,33.295 C55.716,33.849 55.331,34.302 54.810,34.570 C54.284,34.840 53.683,34.890 53.118,34.711 L45.900,32.413 C44.741,32.045 44.101,30.810 44.473,29.660 C44.652,29.106 45.038,28.654 45.558,28.386 C46.084,28.115 46.685,28.066 47.249,28.245 L54.468,30.542 C55.627,30.911 56.267,32.146 55.895,33.295 ZM50.764,17.271 L44.015,20.711 C42.932,21.262 41.599,20.838 41.042,19.765 C40.488,18.695 40.913,17.375 41.989,16.821 L48.739,13.381 C49.822,12.829 51.155,13.253 51.711,14.327 C52.266,15.396 51.841,16.716 50.764,17.271 ZM39.163,35.386 L13.269,39.790 L7.471,28.706 L26.018,10.255 C26.580,9.532 27.710,9.631 28.134,10.442 L40.229,33.564 C40.653,34.374 40.084,35.348 39.163,35.386 ZM37.791,10.010 C37.612,10.564 37.226,11.017 36.706,11.284 C36.179,11.554 35.579,11.605 35.015,11.425 C33.856,11.056 33.216,9.821 33.587,8.672 L35.904,1.514 C36.083,0.961 36.468,0.508 36.989,0.240 C37.515,-0.030 38.116,-0.081 38.681,0.099 C39.242,0.278 39.700,0.662 39.969,1.183 C40.239,1.703 40.288,2.295 40.108,2.852 L37.791,10.010 ZM7.568,43.692 C6.954,44.229 5.994,44.052 5.617,43.331 L0.144,32.869 C-0.233,32.147 0.174,31.267 0.971,31.079 L4.453,30.258 L10.251,41.342 L7.568,43.692 Z"/></svg>

