<?xml version="1.0" encoding="utf-8"?>
<!-- Generator: Adobe Illustrator 19.2.1, SVG Export Plug-In . SVG Version: 6.00 Build 0)  -->
<svg version="1.1" id="当選" xmlns="http://www.w3.org/2000/svg" xmlns:xlink="http://www.w3.org/1999/xlink" x="0px" y="0px"
	 viewBox="0 0 32 32" style="enable-background:new 0 0 32 32;" xml:space="preserve">
<style type="text/css">
	.st0{fill:#66B5DE;}
</style>
<title>アートボード 24 のコピー 3</title>
<path class="st0" d="M28.5,12.4L16.7,24.2c-0.4,0.4-1,0.4-1.3,0L14,22.9c-0.4-0.4-0.4-1,0-1.3L25.9,9.8c0.4-0.4,1-0.4,1.3,0l1.3,1.3
	C28.9,11.4,28.9,12,28.5,12.4z"/>
<path class="st0" d="M15.3,24.2L3.5,12.4c-0.4-0.4-0.4-1,0-1.3l1.3-1.3c0.4-0.4,1-0.4,1.3,0L18,21.6c0.4,0.4,0.4,1,0,1.3l-1.3,1.3
	C16.3,24.6,15.7,24.6,15.3,24.2z"/>
</svg>
