<?xml version="1.0" encoding="utf-8"?>
<!-- Generator: Adobe Illustrator 22.1.0, SVG Export Plug-In . SVG Version: 6.00 Build 0)  -->
<svg version="1.1" id="レイヤー_1" xmlns="http://www.w3.org/2000/svg" xmlns:xlink="http://www.w3.org/1999/xlink" x="0px"
	 y="0px" viewBox="0 0 40 40" style="enable-background:new 0 0 40 40;" xml:space="preserve">
<style type="text/css">
	.st0{clip-path:url(#SVGID_2_);}
	.st1{fill:#E50012;}
	.st2{fill:#FFFFFF;}
	.st3{fill:#FFE100;}
</style>
<g>
	<defs>
		<path id="SVGID_1_" d="M30,2H10c-4.4,0-8,3.6-8,8V30c0,4.4,3.6,8,8,8H30c4.4,0,8-3.6,8-8V10C38,5.6,34.4,2,30,2z"/>
	</defs>
	<clipPath id="SVGID_2_">
		<use xlink:href="#SVGID_1_"  style="overflow:visible;"/>
	</clipPath>
	<g class="st0">
		<path class="st1" d="M30,2H10c-4.4,0-8,3.6-8,8V30c0,4.4,3.6,8,8,8H30c4.4,0,8-3.6,8-8V10C38,5.6,34.4,2,30,2z"/>
		<path class="st2" d="M20,9.6c-0.8,0-1.4-0.6-1.4-1.4V5.4C18.6,4.6,19.2,4,20,4s1.4,0.6,1.4,1.4v2.8C21.4,8.9,20.8,9.6,20,9.6z"/>
		<path class="st2" d="M32.4,20.5c-0.8,0-1.4-0.6-1.4-1.4v-8.5H8.7v7.9c0,0.8-0.6,1.4-1.4,1.4S6,19.4,6,18.6V9.3
			c0-0.8,0.6-1.4,1.4-1.4h25c0.8,0,1.4,0.6,1.4,1.4v9.8C33.8,19.9,33.1,20.5,32.4,20.5z"/>
		<path class="st2" d="M32.1,17.2H7.6c-0.8,0-1.4-0.6-1.4-1.4c0-0.8,0.6-1.4,1.4-1.4h24.5c0.8,0,1.4,0.6,1.4,1.4
			C33.5,16.5,32.9,17.2,32.1,17.2z"/>
		<path class="st2" d="M20,33.2c-0.8,0-1.4-0.6-1.4-1.4v-16c0-0.8,0.6-1.4,1.4-1.4s1.4,0.6,1.4,1.4v16C21.4,32.6,20.8,33.2,20,33.2z
			"/>
		<path class="st2" d="M38,33.8H1.7c-0.8,0-1.4-0.6-1.4-1.4C0.3,31.6,1,31,1.7,31H38c0.8,0,1.4,0.6,1.4,1.4
			C39.4,33.1,38.8,33.8,38,33.8z"/>
		<path class="st2" d="M27.6,25.3H12.1c-0.8,0-1.4-0.6-1.4-1.4s0.6-1.4,1.4-1.4h15.5c0.8,0,1.4,0.6,1.4,1.4S28.4,25.3,27.6,25.3z"/>
		<circle class="st3" cx="32.8" cy="27.2" r="2.1"/>
	</g>
</g>
</svg>
