<svg id="当選" xmlns="http://www.w3.org/2000/svg" viewBox="0 0 32 32"><defs><style>.cls-1{fill:#cccccc;}</style></defs><title>アートボード 34</title><path class="cls-1" d="M15.92,2a14,14,0,1,0,14,14A14,14,0,0,0,15.92,2Zm-.54,19.39-.95.92a.58.58,0,0,1-.8,0l-6.23-6a.54.54,0,0,1,0-.78l6.19-6a.58.58,0,0,1,.8,0l1,.91a.54.54,0,0,1,0,.78L10.5,15.92l4.87,4.68A.54.54,0,0,1,15.37,21.37Zm7.23,0-.95.92a.58.58,0,0,1-.8,0l-6.23-6a.54.54,0,0,1,0-.78l.95-.92h0l5.24-5.1a.58.58,0,0,1,.8,0l1,.91a.54.54,0,0,1,0,.78l-4.84,4.71,4.87,4.68A.54.54,0,0,1,22.61,21.35Z"/></svg>