<svg xmlns="http://www.w3.org/2000/svg" viewBox="0 0 40 40"><defs><style>.cls-1{fill:none;}.cls-2{fill:#e50000;}</style></defs><title>ic-pointcard</title><g id="レイヤー_2" data-name="レイヤー 2"><g id="レイヤー_1-2" data-name="レイヤー 1"><rect class="cls-1" width="40" height="40"/><path class="cls-2" d="M36.22,8.68H8.16A1.57,1.57,0,0,0,6.6,10.24V17a9.91,9.91,0,0,1,3.45-.62,9.81,9.81,0,0,1,9.57,11.92h16.6a1.56,1.56,0,0,0,1.55-1.56V10.24A1.56,1.56,0,0,0,36.22,8.68ZM19.5,13.36H8.79v-2.5H19.5Z"/><path class="cls-2" d="M11.87,24a1.35,1.35,0,0,0-.47-.32,1.51,1.51,0,0,0-.67-.13H9.11v2.78h1.62a1.89,1.89,0,0,0,.67-.1,1.14,1.14,0,0,0,.47-.27,1,1,0,0,0,.26-.41,1.55,1.55,0,0,0,.09-.53,1.67,1.67,0,0,0-.09-.55A1.35,1.35,0,0,0,11.87,24Z"/><path class="cls-2" d="M17.42,24.23A7.63,7.63,0,1,0,2.68,28.18,7.59,7.59,0,0,0,12,33.57a7.62,7.62,0,0,0,5.39-9.34Zm-3.59,1.95a2.55,2.55,0,0,1-.65.88,3.1,3.1,0,0,1-1,.56,4.59,4.59,0,0,1-1.4.2H9.11v3.11H7.28V22.09h3.45a4,4,0,0,1,1.4.22,3,3,0,0,1,1,.61,2.65,2.65,0,0,1,.65.93A3,3,0,0,1,14.06,25,2.89,2.89,0,0,1,13.83,26.18Z"/><path class="cls-2" d="M36.22,8.68H8.16A1.57,1.57,0,0,0,6.6,10.24V17a9.91,9.91,0,0,1,3.45-.62,9.81,9.81,0,0,1,9.57,11.92h16.6a1.56,1.56,0,0,0,1.55-1.56V10.24A1.56,1.56,0,0,0,36.22,8.68ZM19.5,13.36H8.79v-2.5H19.5Z"/><path class="cls-2" d="M11.87,24a1.35,1.35,0,0,0-.47-.32,1.51,1.51,0,0,0-.67-.13H9.11v2.78h1.62a1.89,1.89,0,0,0,.67-.1,1.14,1.14,0,0,0,.47-.27,1,1,0,0,0,.26-.41,1.55,1.55,0,0,0,.09-.53,1.67,1.67,0,0,0-.09-.55A1.35,1.35,0,0,0,11.87,24Z"/><path class="cls-2" d="M17.42,24.23A7.63,7.63,0,1,0,2.68,28.18,7.59,7.59,0,0,0,12,33.57a7.62,7.62,0,0,0,5.39-9.34Zm-3.59,1.95a2.55,2.55,0,0,1-.65.88,3.1,3.1,0,0,1-1,.56,4.59,4.59,0,0,1-1.4.2H9.11v3.11H7.28V22.09h3.45a4,4,0,0,1,1.4.22,3,3,0,0,1,1,.61,2.65,2.65,0,0,1,.65.93A3,3,0,0,1,14.06,25,2.89,2.89,0,0,1,13.83,26.18Z"/></g></g></svg>