<?xml version="1.0" encoding="utf-8"?>
<!-- Generator: Adobe Illustrator 19.2.1, SVG Export Plug-In . SVG Version: 6.00 Build 0)  -->
<svg version="1.1" id="当選" xmlns="http://www.w3.org/2000/svg" xmlns:xlink="http://www.w3.org/1999/xlink" x="0px" y="0px"
	 viewBox="0 0 32 32" style="enable-background:new 0 0 32 32;" xml:space="preserve">
<style type="text/css">
	.st0{fill:#0084C8;}
</style>
<title>アートボード 24 のコピー 2</title>
<path class="st0" d="M19.6,28.5L7.8,16.7c-0.4-0.4-0.4-1,0-1.3L9.1,14c0.4-0.4,1-0.4,1.3,0l11.8,11.8c0.4,0.4,0.4,1,0,1.3l-1.3,1.3
	C20.6,28.9,20,28.9,19.6,28.5z"/>
<path class="st0" d="M7.8,15.3L19.6,3.5c0.4-0.4,1-0.4,1.3,0l1.3,1.3c0.4,0.4,0.4,1,0,1.3L10.4,18c-0.4,0.4-1,0.4-1.3,0l-1.3-1.3
	C7.4,16.3,7.4,15.7,7.8,15.3z"/>
</svg>
