<svg id="当選" xmlns="http://www.w3.org/2000/svg" viewBox="0 0 64 64"><defs><style>.cls-1{fill:none;}.cls-2{fill:#e50000;}</style></defs><title>アートボード 23</title><polygon class="cls-1" points="64 64 0 64 -0.25 0 63.75 0 64 64"/><path class="cls-2" d="M51.62,36H45.28c-.79,1.37-1.62,2.71-2.45,4h7.4l5,13H8.8l5-13h7.4c-.83-1.29-1.65-2.63-2.45-4H12.38a2,2,0,0,0-1.87,1.29l-7,18.36A1,1,0,0,0,4.45,57h55.1a1,1,0,0,0,.93-1.36l-7-18.36A2,2,0,0,0,51.62,36Z"/><path class="cls-2" d="M32,5.31A15.17,15.17,0,0,0,16.83,20.48c0,6.68,9.66,20.49,13.56,25.8a2,2,0,0,0,3.22,0C37.52,41,47.17,27.17,47.17,20.48A15.17,15.17,0,0,0,32,5.31Zm0,20.76a5.59,5.59,0,1,1,5.59-5.59A5.59,5.59,0,0,1,32,26.07Z"/></svg>