<?xml version="1.0" encoding="utf-8"?>
<!-- Generator: Adobe Illustrator 19.2.1, SVG Export Plug-In . SVG Version: 6.00 Build 0)  -->
<svg version="1.1" id="当選" xmlns="http://www.w3.org/2000/svg" xmlns:xlink="http://www.w3.org/1999/xlink" x="0px" y="0px"
	 viewBox="0 0 32 32" style="enable-background:new 0 0 32 32;" xml:space="preserve">
<style type="text/css">
	.st0{fill:#0084C8;}
</style>
<title>アートボード 37</title>
<path class="st0" d="M26.5,9l-7-7h-14v28h21V9z M24.5,28h-17V4h12v5h5V28z"/>
<path class="st0" d="M11.4,14.7h-0.7v1.2h0.7c0.2,0,0.3,0,0.5-0.1c0.1-0.1,0.2-0.3,0.2-0.4c0-0.2,0-0.3-0.2-0.5
	C11.7,14.7,11.5,14.7,11.4,14.7z"/>
<path class="st0" d="M15.9,14.7h-0.3v2.7H16c0.3,0,0.5-0.1,0.7-0.3c0.2-0.3,0.3-0.6,0.2-0.9v-0.2c0-0.3-0.1-0.7-0.2-0.9
	C16.5,14.8,16.2,14.6,15.9,14.7z"/>
<path class="st0" d="M3.5,11v10h25V11H3.5z M12.6,16.3c-0.4,0.3-0.8,0.4-1.2,0.4h-0.7v1.5h-1v-4.3h1.7c0.3,0,0.6,0.1,0.9,0.2
	c0.2,0.1,0.4,0.3,0.6,0.5c0.1,0.2,0.2,0.5,0.2,0.8C13.1,15.7,12.9,16.1,12.6,16.3z M17.9,16.1c0,0.4-0.1,0.7-0.2,1
	c-0.2,0.3-0.4,0.6-0.7,0.7c-0.3,0.2-0.6,0.3-1,0.3h-1.4v-4.3H16c0.4,0,0.7,0.1,1,0.3c0.3,0.2,0.5,0.4,0.7,0.7c0.2,0.3,0.3,0.7,0.3,1
	L17.9,16.1z M22.5,14.7h-1.8v1h1.7v0.8h-1.7v1.7h-1v-4.3h2.9L22.5,14.7z"/>
</svg>
