<svg xmlns="http://www.w3.org/2000/svg" viewBox="0 0 64 64">
  <defs>
    <style>
      .cls-1 {
        fill: #e50000;
      }

      .cls-2 {
        fill: none;
        stroke: #e50000;
        stroke-linecap: round;
        stroke-linejoin: round;
        stroke-width: 3px;
      }
    </style>
  </defs>
  <title>ic-pig</title>
  <g id="当選">
    <g>
      <path class="cls-1" d="M52.54,27.633,51.789,26.4a19.357,19.357,0,0,0-6.981-6.068,11.548,11.548,0,0,1-2.66,2.315,17.643,17.643,0,0,1,2.473.554,1.2,1.2,0,0,1-.645,2.319c-4.351-1.051-11.608-1.3-15.724-.333a1.186,1.186,0,0,1-1.459-1.149,1.2,1.2,0,0,1,.837-1.151,15.27,15.27,0,0,1,1.939-.47A11.622,11.622,0,0,1,26.9,19.866a34.162,34.162,0,0,0-4.868,2.518.708.708,0,0,1-.7.008,10.134,10.134,0,0,0-6.757-.522.713.713,0,0,0-.482,1l1.9,4.119a.719.719,0,0,1-.1.764,8.936,8.936,0,0,1-3.331,2.78.721.721,0,0,1-.094.025l-4.547.911a1.944,1.944,0,0,0-1.609.861,1.859,1.859,0,0,0-.145,1.785l2.323,7.62a.7.7,0,0,0,.4.45c.906.364,3.111.981,4.007,1.327a.686.686,0,0,1,.193.115l7.07,5.864a.716.716,0,0,1,.2.268l1.971,4.581c1.615,3.429,5.867,2.68,6.016-.153l.553-3.3a.716.716,0,0,1,.7-.6l9.819-.068a.709.709,0,0,1,.706.578c.12.633.306,1.682.421,2.633.271,2.244,3.671,5.134,7.044.616C51.473,48.849,57.642,36.955,52.54,27.633ZM22.134,33.252a2.161,2.161,0,1,1,2.21-2.16A2.185,2.185,0,0,1,22.134,33.252Z"/>
      <path class="cls-1" d="M35.968,3.381a9.566,9.566,0,1,0,9.633,9.5A9.564,9.564,0,0,0,35.968,3.381ZM40.657,8.4l-2.4,3.82h1.72a.144.144,0,0,1,.144.144v1.29a.144.144,0,0,1-.144.143H37.254l-.06.093v.823h2.782a.144.144,0,0,1,.144.144v1.3a.143.143,0,0,1-.144.143H37.194v1.8a.143.143,0,0,1-.144.144H35.008a.144.144,0,0,1-.144-.144V16.3H32.1a.143.143,0,0,1-.144-.143v-1.3a.144.144,0,0,1,.144-.144h2.769v-.823l-.059-.093H32.1a.144.144,0,0,1-.144-.143v-1.29a.144.144,0,0,1,.144-.144h1.72l-2.4-3.82a.144.144,0,0,1,0-.146.145.145,0,0,1,.126-.074h2.278a.141.141,0,0,1,.123.07l2.093,3.482,2.093-3.482a.141.141,0,0,1,.123-.07h2.291a.144.144,0,0,1,.121.22Z"/>
      <path class="cls-2" d="M52.5,30.541A11.892,11.892,0,0,0,58,25.692a12.046,12.046,0,0,1-6.077,2.565"/>
    </g>
  </g>
</svg>
