<svg id="当選" xmlns="http://www.w3.org/2000/svg" viewBox="0 0 32 32"><defs><style>.cls-1{fill:#e50000;}</style></defs><title>アートボード 19</title><path class="cls-1" d="M23.5,2H8.5a2,2,0,0,0-2,2v9a2,2,0,0,0,2,2H13V13H8.5V4h15v9H19v2h4.5a2,2,0,0,0,2-2V4A2,2,0,0,0,23.5,2Z"/><path class="cls-1" d="M15.48,26.45l-2.57-4.37a.6.6,0,0,1,.52-.9h5.14a.6.6,0,0,1,.52.9l-2.57,4.37A.6.6,0,0,1,15.48,26.45Z"/><rect class="cls-1" x="15" y="9.5" width="2" height="13"/><circle class="cls-1" cx="16" cy="8.25" r="3"/><path class="cls-1" d="M23.5,17H19v2h4.5v9H8.5V19H13V17H8.5a2,2,0,0,0-2,2v9a2,2,0,0,0,2,2h15a2,2,0,0,0,2-2V19A2,2,0,0,0,23.5,17Z"/></svg>