<?xml version="1.0" encoding="utf-8"?>
<!-- Generator: Adobe Illustrator 23.0.0, SVG Export Plug-In . SVG Version: 6.00 Build 0)  -->
<svg version="1.1" id="レイヤー_1" xmlns="http://www.w3.org/2000/svg" xmlns:xlink="http://www.w3.org/1999/xlink" x="0px"
	 y="0px" viewBox="0 0 120 120" style="enable-background:new 0 0 120 120;" xml:space="preserve">
<style type="text/css">
	.st0{fill:#E50000;}
</style>
<g>
	<path class="st0" d="M107.9,15.4c-0.8-0.8-1.8-1.2-2.9-1.2c-1.1,0-2.1,0.4-2.9,1.2l-8.5,8.4c-4.6-4.4-10-7.8-16-10.2
		c-6-2.4-12.2-3.6-18.5-3.6c-12,0-22.4,3.6-31.3,10.9C18.9,28.1,13,37.5,10.2,49.2v0.5c0,0.6,0.2,1,0.6,1.5c0.4,0.4,0.9,0.6,1.5,0.6
		h13c1,0,1.6-0.5,2-1.5c1.8-4.3,3-6.9,3.5-7.6c3-5,7.1-8.8,12.1-11.7c5-2.8,10.5-4.2,16.3-4.2c8.7,0,16.3,3,22.7,8.9l-9,9
		c-0.8,0.8-1.2,1.8-1.2,2.9c0,1.1,0.4,2.1,1.2,2.9c0.8,0.8,1.8,1.2,2.9,1.2h29.2c1.1,0,2.1-0.4,2.9-1.2c0.8-0.8,1.2-1.8,1.2-2.9
		V18.3C109.1,17.2,108.7,16.2,107.9,15.4L107.9,15.4z M107.9,15.4"/>
	<path class="st0" d="M105.4,68.4H92.9c-1,0-1.6,0.5-2,1.5c-1.8,4.3-3,6.9-3.5,7.6c-3,5-7.1,8.8-12.1,11.7c-5,2.8-10.5,4.2-16.3,4.2
		c-4.2,0-8.3-0.8-12.2-2.3c-3.9-1.6-7.4-3.8-10.5-6.7l8.9-8.9c0.8-0.8,1.2-1.8,1.2-2.9s-0.4-2.1-1.2-2.9c-0.8-0.8-1.8-1.2-2.9-1.2
		H13.2c-1.1,0-2.1,0.4-2.9,1.2C9.4,70.5,9,71.4,9,72.6v29.2c0,1.1,0.4,2.1,1.2,2.9c0.8,0.8,1.8,1.2,2.9,1.2c1.1,0,2.1-0.4,2.9-1.2
		l8.4-8.4c4.7,4.4,9.9,7.8,15.9,10.2c5.9,2.4,12.1,3.6,18.4,3.6c11.9,0,22.3-3.6,31.2-10.9c8.9-7.2,14.7-16.7,17.5-28.3
		c0-0.1,0.1-0.2,0.1-0.5c0-0.6-0.2-1.1-0.6-1.5C106.5,68.6,106,68.4,105.4,68.4L105.4,68.4z M105.4,68.4"/>
</g>
</svg>
