<svg id="当選" xmlns="http://www.w3.org/2000/svg" viewBox="0 0 64 64"><defs><style>.cls-1{fill:#fff;}</style></defs><title>アートボード 4</title><path class="cls-1" d="M53.55,12.29h-8V9.59A3.59,3.59,0,0,0,42,6h-.14a3.59,3.59,0,0,0-3.59,3.59v2.7H25.73V9.59A3.59,3.59,0,0,0,22.14,6H22A3.59,3.59,0,0,0,18.4,9.59v2.7h-8a3.59,3.59,0,0,0-3.59,3.59V51.41A3.59,3.59,0,0,0,10.45,55h43.1a3.59,3.59,0,0,0,3.59-3.59V15.88a3.59,3.59,0,0,0-3.59-3.59Zm-2.44,37H12.89V22.14H51.11Zm0,0"/><path class="cls-1" d="M19.41,34.2h5.07a.47.47,0,0,0,.47-.47V28.66a.47.47,0,0,0-.47-.47H19.41a.47.47,0,0,0-.47.47v5.07a.47.47,0,0,0,.47.47Zm0,.41"/><path class="cls-1" d="M29.47,34.15h5.07a.47.47,0,0,0,.47-.47V28.61a.47.47,0,0,0-.47-.47H29.47a.47.47,0,0,0-.47.47v5.07a.47.47,0,0,0,.47.47Zm0,0"/><path class="cls-1" d="M39.53,34.15h5.07a.47.47,0,0,0,.47-.47V28.61a.47.47,0,0,0-.47-.47H39.53a.47.47,0,0,0-.47.47v5.07a.47.47,0,0,0,.47.47Zm0,0"/><path class="cls-1" d="M19.41,44.21h5.07a.47.47,0,0,0,.47-.47V38.67a.47.47,0,0,0-.47-.47H19.41a.47.47,0,0,0-.47.47v5.07a.47.47,0,0,0,.47.47Zm0,0"/><path class="cls-1" d="M29.47,44.21h5.07a.47.47,0,0,0,.47-.47V38.67a.47.47,0,0,0-.47-.47H29.47a.47.47,0,0,0-.47.47v5.07a.47.47,0,0,0,.47.47Zm0-.41"/><path class="cls-1" d="M39.53,44.21h5.07a.47.47,0,0,0,.47-.47V38.67a.47.47,0,0,0-.47-.47H39.53a.47.47,0,0,0-.47.47v5.07a.47.47,0,0,0,.47.47Zm0-.41"/></svg>