<svg xmlns="http://www.w3.org/2000/svg" viewBox="0 0 168 64"><defs><style>.cls-1{fill:none;}.cls-2{fill:#2abca7;}.cls-2,.cls-3{fill-rule:evenodd;}.cls-3,.cls-4{fill:#fff;}</style></defs><g id="レイヤー_2" data-name="レイヤー 2"><rect class="cls-1" width="168" height="64"/></g><g id="レイヤー_1" data-name="レイヤー 1"><path class="cls-2" d="M8,4H160a4,4,0,0,1,4,4V56a4,4,0,0,1-4,4H8a4,4,0,0,1-4-4V8A4,4,0,0,1,8,4Z"/><path class="cls-3" d="M8,8V56H160V8ZM158,54H10V10H158Z"/><path class="cls-4" d="M21.49,24.23V19.69h8.32l.77-2h5.66l-.51,2H50.8v4.54h-17a26.88,26.88,0,0,1-4.22,5.89V46.53H24.4V34.63a12.83,12.83,0,0,1-2.91,1.47V30.31a16.47,16.47,0,0,0,6-6.08ZM38.19,41V35H32V30.08h6.21V25.22h5.63v4.86H50V35H43.82V41H51v4.89H31.09V41Z"/><path class="cls-4" d="M66.74,18.44V17h5.79v1.41H83.47v3.93H74.38v1.09h9.09v3.62H74.38v1.08h8.16V35c0,3-.7,3.81-3.55,3.81H74.38v1.09h9.28v4H74.38V46.5H69V43.84H59.6V40.32a7.71,7.71,0,0,1-5.73,5.32V39c1.06-1.12,1.22-1.69,1.22-4.45V18.44ZM69,39.88V38.79H61.39V28.16H69V27.08H61V23.46H69V22.37H60.3V34.28a20.89,20.89,0,0,1-.57,5.6Zm0-7.94V30.85H66.48v1.09Zm0,3.94V34.66H66.48v1.22Zm8.19-3.94V30.85H74.38v1.09Zm0,3.94V34.66H74.38v1.22Z"/><path class="cls-4" d="M92.14,22c.29-1.63.39-2.37.55-4h5.37c-.35,2.69-.38,2.85-.54,4h4.29v5H96.53a118.93,118.93,0,0,1-3.71,15.46H87.47A108.5,108.5,0,0,0,91.41,27H87.19V22Zm13-.06h9.47V27h-4.19v7.52a23.32,23.32,0,0,1,4.7,2.31V43a22.86,22.86,0,0,0-4.54-2.88,6,6,0,0,1-1,3.68c-1.21,1.79-3.29,2.75-6,2.75a7.69,7.69,0,0,1-6.34-2.81,6.5,6.5,0,0,1-1.28-4.1c0-4,3.14-6.85,7.58-6.85a7.22,7.22,0,0,1,1.67.2Zm-4.35,17.59a2.1,2.1,0,0,0,2.33,2,2,2,0,0,0,2.21-2.11c0-1.15-.8-1.86-2.18-1.86S100.82,38.37,100.82,39.52Z"/><path class="cls-4" d="M127.63,17.77,127.5,34l0,1.15v.77c0,2.08.19,3.23.67,3.9S130.06,41,132,41a7.87,7.87,0,0,0,6.31-2.63c1.47-1.79,2.08-4.16,2.27-8.8h5.95c-.67,7.3-1.47,10.08-3.71,12.67s-6.46,4.26-10.94,4.26c-4.74,0-7.94-1.57-9.28-4.54-.58-1.25-.84-4-.8-8.61l.09-15.58Z"/></g></svg>