<svg id="当選" xmlns="http://www.w3.org/2000/svg" viewBox="0 0 64 64"><defs><style>.cls-1{fill:#818181;}</style></defs><title>アートボード 11</title><path class="cls-1" d="M57.07,27.18H54.13a1.91,1.91,0,0,1-1.83-1.34A21.08,21.08,0,0,0,50.71,22a1.91,1.91,0,0,1,.35-2.24l2.08-2.08a1.93,1.93,0,0,0,0-2.73L49,10.86a1.93,1.93,0,0,0-2.73,0l-2.08,2.08a1.91,1.91,0,0,1-2.24.35,21.08,21.08,0,0,0-3.83-1.59,1.91,1.91,0,0,1-1.34-1.83V6.93A1.93,1.93,0,0,0,34.89,5H29.11a1.93,1.93,0,0,0-1.93,1.93V9.87a1.91,1.91,0,0,1-1.34,1.83A21.08,21.08,0,0,0,22,13.29a1.91,1.91,0,0,1-2.24-.35l-2.08-2.08a1.93,1.93,0,0,0-2.73,0L10.86,15a1.93,1.93,0,0,0,0,2.73l2.08,2.08A1.91,1.91,0,0,1,13.29,22a21.08,21.08,0,0,0-1.59,3.83,1.91,1.91,0,0,1-1.83,1.34H6.93A1.93,1.93,0,0,0,5,29.11v5.79a1.93,1.93,0,0,0,1.93,1.93H9.87a1.91,1.91,0,0,1,1.83,1.34A21.08,21.08,0,0,0,13.29,42a1.91,1.91,0,0,1-.35,2.24l-2.08,2.08a1.93,1.93,0,0,0,0,2.73L15,53.14a1.93,1.93,0,0,0,2.73,0l2.08-2.08A1.91,1.91,0,0,1,22,50.71a21.08,21.08,0,0,0,3.83,1.59,1.91,1.91,0,0,1,1.34,1.83v2.94A1.93,1.93,0,0,0,29.11,59h5.79a1.93,1.93,0,0,0,1.93-1.93V54.13a1.91,1.91,0,0,1,1.34-1.83A21.08,21.08,0,0,0,42,50.71a1.91,1.91,0,0,1,2.24.35l2.08,2.08a1.93,1.93,0,0,0,2.73,0L53.14,49a1.93,1.93,0,0,0,0-2.73l-2.08-2.08A1.91,1.91,0,0,1,50.71,42a21.08,21.08,0,0,0,1.59-3.83,1.91,1.91,0,0,1,1.83-1.34h2.94A1.93,1.93,0,0,0,59,34.89V29.11A1.93,1.93,0,0,0,57.07,27.18ZM32,41.64A9.64,9.64,0,1,1,41.64,32,9.64,9.64,0,0,1,32,41.64Z"/></svg>