<svg id="当選" xmlns="http://www.w3.org/2000/svg" viewBox="0 0 64 64"><defs><style>.cls-1{fill:#e50000;fill-rule:evenodd;}</style></defs><title>アートボード 6</title><path class="cls-1" d="M51.042,40.249 L30.429,40.249 L30.429,45.160 L39.508,45.160 C40.521,45.160 41.349,45.969 41.349,46.957 L41.349,47.197 C41.349,48.185 40.521,48.993 39.508,48.993 L13.497,48.993 C12.484,48.993 11.656,48.185 11.656,47.197 L11.656,46.957 C11.656,45.969 12.484,45.160 13.497,45.160 L22.576,45.160 L22.576,40.249 L1.963,40.249 C0.883,40.249 -0.000,39.386 -0.000,38.332 L-0.000,1.916 C-0.000,0.862 0.883,-0.001 1.963,-0.001 L51.042,-0.001 C52.122,-0.001 53.005,0.862 53.005,1.916 L53.005,38.332 C53.005,39.386 52.122,40.249 51.042,40.249 ZM47.116,6.707 C47.116,6.180 46.674,5.749 46.134,5.749 L6.871,5.749 C6.331,5.749 5.889,6.180 5.889,6.707 L5.889,29.707 C5.889,30.234 6.331,30.666 6.871,30.666 L46.134,30.666 C46.674,30.666 47.116,30.234 47.116,29.707 L47.116,6.707 ZM22.834,24.833 C22.180,25.201 21.362,24.740 21.362,24.003 L21.362,12.412 C21.362,11.674 22.180,11.213 22.834,11.582 L33.116,17.377 C33.770,17.746 33.770,18.668 33.116,19.037 L22.834,24.833 Z"/></svg>
