<?xml version="1.0" encoding="utf-8"?>
<!-- Generator: Adobe Illustrator 24.1.0, SVG Export Plug-In . SVG Version: 6.00 Build 0)  -->
<svg version="1.1" id="&#x30EC;&#x30A4;&#x30E4;&#x30FC;_1" xmlns="http://www.w3.org/2000/svg" xmlns:xlink="http://www.w3.org/1999/xlink" x="0px" y="0px" width="27" height="36" viewbox="0 0 27 36" style="enable-background:new 0 0 27 36;" xml:space="preserve">
<path d="M2.4,1.5C0,3.1-0.5,8.1,0.4,12.2c0.7,3.2,2.2,7.5,4.8,11.5c2.4,3.8,5.8,7.2,8.3,9.1c3.3,2.5,8,4.1,10.4,2.5
	c1.2-0.8,3-3,3.1-3.4c0,0-1.1-1.7-1.3-2l-3.6-5.6c-0.3-0.4-1.9,0-2.8,0.5c-1.1,0.7-2.2,2.4-2.2,2.4c-0.8,0.5-1.4,0-2.8-0.6
	c-1.7-0.8-3.6-3.3-5.1-5.5c-1.4-2.3-2.8-5.1-2.8-7c0-1.5-0.2-2.3,0.6-2.9c0,0,2-0.3,3.1-1.1c0.8-0.6,1.8-2,1.5-2.4L8.1,2.1
	C7.8,1.7,6.8,0,6.8,0C6.4-0.1,3.6,0.7,2.4,1.5z"/>
</svg>
