<svg id="レイヤー_2" data-name="レイヤー 2" xmlns="http://www.w3.org/2000/svg" viewBox="0 0 300 300">
  <defs>
    <style>
      .cls-1 {
        fill: #1f3134;
      }

      .cls-1, .cls-2, .cls-3 {
        fill-rule: evenodd;
      }

      .cls-2 {
        fill: #fff;
      }

      .cls-3 {
        fill: #f9be00;
      }
    </style>
  </defs>
  <title>img-qoo004</title>
  <g>
    <path class="cls-1" d="M162.023,96.455c17.326,3.443,29.39,13.035,36.478,25.02,6.022,11.73,6.811,19.044,4.642,32.839,3.328,2.371,13.145,12.032,18.77,24.354,1.972,3.905,2.869,6.828-.278,9.953a6.091,6.091,0,0,1-6.9.659,90.884,90.884,0,0,0-8.515-4.743c-1.743-.786-6.729-3.237-9.574-4.143-1.848,5.769-7.224,18.551-16.11,28.718-9.964,11.7-22.736,21.529-34.253,23.92a59.379,59.379,0,0,1-22.175.94c-3.138-.335-5.853-1.087-8.721-1.64a26.011,26.011,0,0,1-.641,10.412c-2.25,8-9.7,15.308-17.238,13.983-6.864-1.24-11.192-8.774-8.471-17.586a27.529,27.529,0,0,1,5.1-8.774c-9.7-5.268-15.825-12.4-13.959-19.8a10.424,10.424,0,0,1,10.749-7.519c9.184,1.018,15.147,7.374,18.856,13.568,3.632-.7,6.535-2.551,7.124-5.394.971-5.557-2.739-9.779-6.2-15.614-5.515-9.7-7.551-15.955-8.227-30.524-.045-5.429-.024-9.273.062-10.571a25.966,25.966,0,0,1-9.048-7.914c-3.914-5.329-2.581-6.787-4.959-10.525a37.192,37.192,0,0,0-9.776-9.872c-4.932-3.544-1.93-11.351,4.5-10.565,5.221.72,11.51,2.172,24.478,9.745C112.726,111.8,126.228,90.871,162.023,96.455Z"/>
    <path class="cls-1" d="M159.359,87.008a2.723,2.723,0,0,1,2.306,3.185,2.679,2.679,0,0,1-3.319,2.271,2.75,2.75,0,0,1-2.2-3.165A2.8,2.8,0,0,1,159.359,87.008Z"/>
    <path class="cls-1" d="M160.505,77.569a3.231,3.231,0,0,1,2.694,3.744A3.144,3.144,0,0,1,159.51,84a3.252,3.252,0,1,1,1-6.428Z"/>
    <path class="cls-1" d="M167.289,71.287a2.815,2.815,0,0,1,2.231,3.171,2.762,2.762,0,0,1-5.448-.912A2.774,2.774,0,0,1,167.289,71.287Z"/>
    <path class="cls-1" d="M175.088,67.663a2.859,2.859,0,0,1,2.326,3.464,2.965,2.965,0,0,1-3.451,2.451,3.044,3.044,0,0,1-2.472-3.49A3.008,3.008,0,0,1,175.088,67.663Z"/>
    <path class="cls-1" d="M184.163,67.3a2.847,2.847,0,0,1,2.214,3.264A2.792,2.792,0,0,1,183.1,72.84a2.708,2.708,0,0,1-2.329-3.244A2.839,2.839,0,0,1,184.163,67.3Z"/>
    <path class="cls-1" d="M192.612,69.661a2.817,2.817,0,0,1-.969,5.55,2.819,2.819,0,1,1,.969-5.55Z"/>
    <path class="cls-1" d="M198.525,75.778a2.691,2.691,0,0,1-.927,5.3,2.679,2.679,0,0,1-2.238-3.09A2.73,2.73,0,0,1,198.525,75.778Z"/>
    <path class="cls-1" d="M201.5,83.871a1.79,1.79,0,0,1,1.449,2.012,1.7,1.7,0,0,1-1.984,1.372,1.714,1.714,0,1,1,.535-3.384Z"/>
    <path class="cls-1" d="M202.948,90.886a1.457,1.457,0,0,1,1.128,1.565,1.4,1.4,0,1,1-2.751-.493A1.432,1.432,0,0,1,202.948,90.886Z"/>
    <path class="cls-1" d="M218.769,74.019a2.062,2.062,0,0,1,1.658,2.425,2.086,2.086,0,0,1-2.422,1.664,2.127,2.127,0,0,1-1.662-2.478A2.043,2.043,0,0,1,218.769,74.019Z"/>
    <path class="cls-1" d="M184.607,46.853a3.586,3.586,0,0,1-1.258,7.061,3.673,3.673,0,0,1-2.931-4.183A3.54,3.54,0,0,1,184.607,46.853Z"/>
    <path class="cls-1" d="M155.032,49.837a2.032,2.032,0,0,1,1.625,2.326,1.977,1.977,0,0,1-2.337,1.705,2.047,2.047,0,1,1,.712-4.031Z"/>
    <path class="cls-1" d="M156.552,69.821a2.622,2.622,0,0,1,2.164,3.2,2.741,2.741,0,0,1-3.117,2.272,2.843,2.843,0,0,1-2.336-3.27A2.656,2.656,0,0,1,156.552,69.821Z"/>
    <path class="cls-1" d="M150.572,64.092a2.867,2.867,0,0,1-1.048,5.637,2.821,2.821,0,0,1-2.336-3.33A2.866,2.866,0,0,1,150.572,64.092Z"/>
    <path class="cls-1" d="M141.429,66.517a2.787,2.787,0,0,0,3.2-2.271,2.644,2.644,0,0,0-2.231-3.218,2.792,2.792,0,0,0-3.276,2.259A2.932,2.932,0,0,0,141.429,66.517Z"/>
    <path class="cls-1" d="M133.859,62.3a2.789,2.789,0,0,1,2.235,3.278,2.7,2.7,0,0,1-3.283,2.339,2.981,2.981,0,0,1-2.373-3.358A2.842,2.842,0,0,1,133.859,62.3Z"/>
    <path class="cls-1" d="M126.768,66.3a2.24,2.24,0,0,1-.675,4.429,2.226,2.226,0,0,1-1.888-2.51A2.111,2.111,0,0,1,126.768,66.3Z"/>
    <path class="cls-1" d="M122.029,71.614a1.781,1.781,0,0,1,1.394,2.012,1.752,1.752,0,0,1-3.464-.527A1.69,1.69,0,0,1,122.029,71.614Z"/>
    <path class="cls-1" d="M106.231,72.314a1.83,1.83,0,0,1,1.569,2.191,2.031,2.031,0,0,1-2.229,1.612,1.9,1.9,0,0,1-1.62-2.272A1.836,1.836,0,0,1,106.231,72.314Z"/>
    <path class="cls-1" d="M122.991,43.176a3.01,3.01,0,0,1,2.4,3.585,3.023,3.023,0,0,1-5.945-1.092A2.939,2.939,0,0,1,122.991,43.176Z"/>
    <path class="cls-1" d="M137.06,81.986a1.662,1.662,0,0,1,1.228,1.845,1.567,1.567,0,0,1-1.8,1.359,1.627,1.627,0,1,1,.572-3.2Z"/>
    <path class="cls-1" d="M180.21,82.419a1.893,1.893,0,0,1,1.549,2.211,2.008,2.008,0,0,1-2.224,1.6,1.907,1.907,0,0,1-1.6-2.244A1.856,1.856,0,0,1,180.21,82.419Z"/>
    <g>
      <path class="cls-2" d="M111.838,220.543c3.464-.994,8.3-3.319,9.219-8.633.881-4.378-1.08-9.314-2.406-11.559-1.715-2.851-6.5-10.165-7.611-13.349-1.724-4.311-3.658-8.713-4.333-22.057-.056-6.027-.1-7.712.083-9.47,1.134-1.439,5.617-4.279,7.941-5.2-.467,4.141-.35,19.67.838,26.684s4.44,14.262,6.057,17.692,3.855,9.373,2.676,13.737c-1.3,5.181-3.253,10.784-12.07,13.015C112.1,221.129,111.838,220.543,111.838,220.543Z"/>
      <path class="cls-2" d="M112.407,221.868c7.472-1.306,12.156-7.614,13.248-14.4.773-5.782-.278-8.767-1.6-12.377-1.56-4.263-2.907-6.542-4.3-12.6s-1.194-14.463-1.078-20.1.835-12.663.915-13.809a46.805,46.805,0,0,1,9.237-1.7c-.844,4.1-2.167,19.565-1.622,26.66.444,7.84,1.986,15.727,2.35,18.525a47.057,47.057,0,0,1-.114,12.982c-.922,4.929-3.89,15.4-16.726,17.707C112.612,222.461,112.407,221.86,112.407,221.868Z"/>
      <path class="cls-2" d="M133.815,146.687c2.475-.293,9.906.547,11.065.866-.321,2.992-1.778,16.441-2.352,20.7s-3.517,25.766-5.794,32.441c-1.232,3.9-2.851,10.218-6.25,13.989a23.4,23.4,0,0,1-11.984,7.9,33.514,33.514,0,0,1-5.362,1.212l-.225-.713a25.1,25.1,0,0,0,6.868-2.105c3.689-1.6,6.913-5.189,8.95-8.986a31.073,31.073,0,0,0,2.721-8.585c.878-4.811.663-13.89.151-18.167a112.684,112.684,0,0,1-.16-22.414C132.444,155.734,133.5,147.587,133.815,146.687Z"/>
      <path class="cls-2" d="M149.906,148.425c1.749.327,8.5,1.726,10.282,2.5-.583,3.144-3.061,18.187-5.486,27.212-2.443,9.206-5.88,22.662-13.515,31.1-8.271,9.478-12.24,10.871-17.064,13.1a33.89,33.89,0,0,1-10.6,2.478l-.181-.651a39.2,39.2,0,0,0,9.37-2.493,23.552,23.552,0,0,0,12.678-12.063,111.678,111.678,0,0,0,8.443-26.766C146.542,169.642,149.906,148.425,149.906,148.425Z"/>
      <path class="cls-2" d="M113.742,225.244l.13.613a57.756,57.756,0,0,0,8.293-.785c2.866-.5,7.262-1.293,15.626-5.489s15.013-12.5,18.394-17.506a97.4,97.4,0,0,0,11.724-24.913,160.29,160.29,0,0,0,4.879-20.951c-1.59-.872-6.253-3.11-8.244-3.883-.356,1.717-1.689,8.9-2.435,11.964s-3.973,15.194-6.478,21.842c-2.537,7.507-5.539,14.482-9.186,19.4a51.777,51.777,0,0,1-13.637,13.17,37.6,37.6,0,0,1-12.337,5.448A41.743,41.743,0,0,1,113.742,225.244Z"/>
      <path class="cls-2" d="M176.64,158.844c1.53.86,8.411,6.768,6.743,14.369-1.547,6.616-6.075,14.775-7.1,16.48a89.717,89.717,0,0,1-12.269,16.633c-6.013,6.3-13.188,13.117-25.278,17.186-11.291,3.426-17,3.346-18.181,3.372s-5.219.092-6.4-.026l-.112-.735a47.318,47.318,0,0,0,9.782-.7c5.731-.974,15.315-4.038,22.083-9.547,4.843-3.7,12.118-10.426,20.227-26.584A137.5,137.5,0,0,0,176.64,158.844Z"/>
    </g>
    <g>
      <path class="cls-3" d="M109.934,243.431c-3.576,7.979-8.9,9.779-11.869,9.065-6.149-1.785-5.783-7.887-5.3-10.557,1.528-6.688,8.225-12.491,8.225-12.491s-4.557-2.744-7.1-4.183S83.268,218,84.21,212.275c.379-2.79,3.529-5.529,7.612-4.809,4.417.652,10.957,5.148,14.222,11.383S113.313,234.591,109.934,243.431Z"/>
      <path class="cls-3" d="M184.512,160.522c4.929,6.8,4.139,13.057.761,20.665s-9.225,20.63-23.433,33.593C149.817,226.23,134.327,229.4,130,230.274a51.31,51.31,0,0,0,15.4-1.513c9.784-1.871,21.538-10.4,31.82-22.474,10.054-11.5,15.342-26.938,15.369-27.433a2.142,2.142,0,0,1-1.371-3.2c.293-.687,1.187-1.631,3.724-.58,3.512,1.359,8.428,3.458,11.627,4.843,3.179,1.5,8.578,4.577,9.21,4.95s1.685,1.466,3.029.533c1.575-1.126-.85-4.917-.85-4.917a65.646,65.646,0,0,0-17.333-22.607c-1.452-1.12-2.305-1.812-2.305-1.827,3.222-13.062,1.815-21.975-3.576-32.493-4.99-8.387-14.886-19.078-33.467-22.8-31.142-4.823-45.332,11.3-50.647,29.6-.5,1.945-.663,4.236-3.218,3.829-2.8-.639-1.258-4.256-1.208-4.655-11.247-7.015-18.776-9.067-23.5-9.72a1.8,1.8,0,0,0-2.022,1.22,1.553,1.553,0,0,0,.651,1.717A40.766,40.766,0,0,1,92.2,133.717a17.637,17.637,0,0,1,2.159,5.177,19.192,19.192,0,0,0,3.1,5.862c2.428,3.064,5.907,5.736,7.793,6.189,3.751-3.091,9.939-7,22.053-8.34C152.227,140.692,177.555,150.511,184.512,160.522Z"/>
    </g>
    <g>
      <path class="cls-1" d="M133.279,113.215a3.317,3.317,0,1,0-3.843,2.691A3.309,3.309,0,0,0,133.279,113.215Z"/>
      <path class="cls-1" d="M179.373,116.039a3.317,3.317,0,1,0-3.843,2.691A3.317,3.317,0,0,0,179.373,116.039Z"/>
    </g>
    <g>
      <path class="cls-2" d="M132.17,111.928a1.208,1.208,0,0,0-2.379-.419,1.208,1.208,0,1,0,2.379.419Z"/>
      <path class="cls-2" d="M178.265,114.76a1.209,1.209,0,1,0-1.4.979A1.207,1.207,0,0,0,178.265,114.76Z"/>
    </g>
    <path class="cls-1" d="M145.776,129.9a29.3,29.3,0,0,0,16.049-2.025c2.133-1.047,2.816-.015,3.422.932a2.358,2.358,0,0,1-1.436,3,32.161,32.161,0,0,1-18.681,2.385,22.766,22.766,0,0,1-12.091-5.75,2.145,2.145,0,0,1-.32-3.182c1.1-1.353,2.712-.667,3.583.145A18.469,18.469,0,0,0,145.776,129.9Z"/>
  </g>
</svg>
