<?xml version="1.0" encoding="utf-8"?>
<!-- Generator: Adobe Illustrator 23.1.0, SVG Export Plug-In . SVG Version: 6.00 Build 0)  -->
<svg version="1.1" xmlns="http://www.w3.org/2000/svg" xmlns:xlink="http://www.w3.org/1999/xlink" x="0px" y="0px"
	 viewBox="0 0 168 72" style="enable-background:new 0 0 168 72;" xml:space="preserve">
<style type="text/css">
	.st0{display:none;}
	.st1{display:inline;}
	.st2{fill:#F29600;}
	.st3{fill:#FFFFFF;}
	.st4{fill:#1D2087;}
	.st5{fill:url(#SVGID_1_);}
	.st6{fill:#C5006F;}
	.st7{fill:url(#SVGID_2_);}
	.st8{fill:url(#SVGID_3_);}
	.st9{fill:#7E0043;}
	.st10{fill:#E3007F;}
	.st11{fill:url(#SVGID_4_);}
	.st12{fill:none;}
	.st13{fill:#F8B500;}
	.st14{fill:#1F3C95;}
	.st15{fill:url(#SVGID_5_);}
	.st16{fill:#C6006F;}
	.st17{fill:url(#SVGID_6_);}
	.st18{fill:url(#SVGID_7_);}
	.st19{fill:#E4007F;}
	.st20{fill:url(#SVGID_8_);}
</style>
<g id="レイヤー_1" class="st0">
	<title>logo_Drawer_loto6</title>
	<g class="st1">
		<g>
			<polygon class="st2" points="148,65.165 147.985,10.589 71.897,20.989 71.877,55.43 			"/>
			<polygon class="st3" points="84.755,55.799 84.82,48.282 79.282,47.698 82.489,41.065 77.336,38.174 82.546,35.336 79.782,29.15 
				84.905,30.488 84.844,20.705 89.052,28.116 93.56,19.44 93.672,29.502 102.266,25.27 96.84,34.69 106.135,38.059 96.853,41.556 
				102.19,50.989 93.688,46.878 93.522,56.906 89.032,48.29 			"/>
			<g>
				<path class="st4" d="M40.85,56.265L20,58.46v-0.196c2.64-2.28,2.269-5.882,2.269-9.249V24.773c0-3.373,0.371-7.013-2.269-9.43
					v-0.201l13.518,2.14v0.182c-2.293,1.543-1.962,5.067-1.962,8.308v24.561c1.502,0.699,3.175,0.949,4.816,0.72
					c2.335-0.068,4.533-1.121,6.049-2.899L40.85,56.265z"/>
				<path class="st4" d="M58.136,39.655c0.094,2.13-0.243,4.256-0.99,6.253c-0.875,1.976-2.242,3.293-3.756,3.403
					c-1.681,0.128-3.195-1.573-4.059-3.827c-0.958-2.883-1.46-5.897-1.486-8.935c0-5.008,1.641-10.336,5.197-9.873
					C56.924,27.178,58.136,34.605,58.136,39.655z M64.256,38.276c0-10.371-4.463-16.832-11.16-17.933
					c-7.171-1.182-13.945,5.109-13.945,17.296c0,12.021,6.251,18.903,13.543,18.104C59.22,55.023,64.256,48.505,64.256,38.276z"/>
				<path class="st4" d="M77.361,31.199c-0.378-1.466-1.169-1.971-2.1-2.066c-0.451-0.07-0.912-0.028-1.343,0.122v17.369
					c0,2.469,0.024,4.414,1.16,6.043v0.131L67.533,53.5v-0.135c1.433-1.531,1.23-4.087,1.23-6.434V28.736
					c-0.464-0.198-0.96-0.31-1.463-0.33c-1.308-0.141-2.601,0.378-3.448,1.385l-0.217,0.213l1.214-7.06l0.579,0.219l12.81,1.805
					L77.361,31.199z"/>
				<path class="st4" d="M89.056,40.08c0.063,1.617-0.153,3.232-0.639,4.776c-0.553,1.508-1.42,2.492-2.376,2.555
					c-1.05,0.07-1.995-1.227-2.531-2.934c-0.59-2.186-0.896-4.439-0.911-6.704c0-3.747,1.007-7.779,3.22-7.522
					C88.283,30.545,89.056,36.207,89.056,40.08z M93.128,39.004c0-8.03-2.98-12.903-7.355-13.544
					c-4.569-0.673-8.774,4.185-8.774,13.192c0,8.876,3.875,14.099,8.511,13.638C89.771,51.872,93.128,46.927,93.128,39.004z"/>
			</g>
			<g>
				
					<linearGradient id="SVGID_1_" gradientUnits="userSpaceOnUse" x1="9243.25" y1="9704.248" x2="9243.25" y2="9644.9336" gradientTransform="matrix(0.3473 0 0 0.3473 -3088.4316 -3314.9329)">
					<stop  offset="0.0562" style="stop-color:#90004F"/>
					<stop  offset="0.2303" style="stop-color:#E3007F"/>
					<stop  offset="0.4438" style="stop-color:#90004F"/>
					<stop  offset="1" style="stop-color:#690035"/>
				</linearGradient>
				<path class="st5" d="M122.41,41.798c0-3.354,1.788-6.192,4.252-7.149c-0.985-0.634-2.131-0.972-3.303-0.976
					c-3.902,0-7.06,3.761-7.06,8.402c0,4.639,3.158,8.402,7.06,8.402c1.395-0.011,2.747-0.489,3.84-1.356
					C124.464,48.396,122.41,45.389,122.41,41.798z"/>
				<polygon class="st6" points="129.749,11.69 123.435,7.492 124.42,6.835 129.163,9.502 136.025,13.987 				"/>
				
					<linearGradient id="SVGID_2_" gradientUnits="userSpaceOnUse" x1="8492.4844" y1="10510.25" x2="8495.9189" y2="10518.8975" gradientTransform="matrix(0.2411 0 0 0.2411 -1910.2722 -2479.9209)">
					<stop  offset="0.0562" style="stop-color:#90004F"/>
					<stop  offset="0.2303" style="stop-color:#E3007F"/>
					<stop  offset="0.4438" style="stop-color:#90004F"/>
					<stop  offset="1" style="stop-color:#690035"/>
				</linearGradient>
				<path class="st7" d="M128.863,25.489c1.926,0.323,3.824,0.798,5.675,1.419c1.891,0.768,8.58,4.321,8.58,15.09
					c0,7.511-3.756,11.563-5.443,12.899c-2.244,1.776-6.865,3.435-10.647,4.382c0,0,11.3-3.91,11.3-16.512
					C138.328,30.163,130.575,26.379,128.863,25.489z"/>
				
					<linearGradient id="SVGID_3_" gradientUnits="userSpaceOnUse" x1="8118.3613" y1="9878.7646" x2="8117.5679" y2="9876.5039" gradientTransform="matrix(0.3473 0 0 0.3473 -2694.8179 -3380.1914)">
					<stop  offset="0.0562" style="stop-color:#90004F"/>
					<stop  offset="0.2303" style="stop-color:#E3007F"/>
					<stop  offset="0.4438" style="stop-color:#90004F"/>
					<stop  offset="1" style="stop-color:#690035"/>
				</linearGradient>
				<path class="st8" d="M122.923,49.964c-3.082,0-5.583-3.533-5.583-7.888c0-4.357,2.501-7.888,5.583-7.888
					c1.555,0.067,2.984,0.872,3.848,2.167c-0.985-1.846-2.863-3.043-4.952-3.156c-3.595,0-6.508,4.027-6.508,8.996
					c0,4.965,2.913,8.99,6.508,8.99c2.423,0,4.527-1.826,5.648-4.528C126.459,48.658,124.796,49.964,122.923,49.964z"/>
				<polygon class="st9" points="120.696,26.583 129.163,25.704 135.808,14.866 136.06,13.987 131.828,11.69 129.531,11.509 				"/>
				<path class="st10" d="M124.08,25.752c1.842-0.139,3.689,0.208,5.356,1.005c1.667,0.824,3.125,2.018,4.262,3.49
					c1.247,1.611,2.196,3.432,2.8,5.377c0.662,2.104,0.995,4.298,0.986,6.504c0.017,2.516-0.423,5.014-1.298,7.373
					c-0.761,2.068-1.95,3.952-3.489,5.529c-1.426,1.447-3.169,2.542-5.091,3.2c-1.954,0.651-4.029,0.854-6.072,0.594
					c-3.841-0.443-7.337-2.429-9.685-5.5c-1.169-1.522-2.06-3.238-2.631-5.07c-0.628-2-0.929-4.089-0.892-6.186
					c0.018-1.326,0.15-2.648,0.394-3.951c0.242-1.308,0.57-2.598,0.982-3.863c0.417-1.271,0.904-2.521,1.439-3.735
					c0.537-1.217,1.127-2.4,1.737-3.533l10.544-19.519l6.133,4.046l-8.817,14.963l0.103,0.121c0.234-0.126,0.475-0.238,0.724-0.333
					c0.261-0.097,0.528-0.18,0.798-0.249c0.278-0.072,0.56-0.13,0.844-0.174C123.495,25.801,123.787,25.769,124.08,25.752z
					 M121.533,51.106c0.964,0.079,1.929-0.13,2.773-0.601c0.856-0.491,1.591-1.168,2.151-1.981c0.614-0.886,1.082-1.865,1.386-2.899
					c0.321-1.071,0.488-2.182,0.498-3.301c0.002-1.136-0.155-2.266-0.465-3.359c-0.291-1.053-0.746-2.053-1.348-2.964
					c-0.546-0.84-1.269-1.55-2.118-2.081c-0.827-0.505-1.783-0.759-2.751-0.73c-0.957,0.026-1.888,0.322-2.684,0.854
					c-0.799,0.538-1.477,1.236-1.991,2.05c-0.549,0.866-0.969,1.808-1.246,2.795c-0.29,1.013-0.442,2.06-0.451,3.114
					c-0.01,1.047,0.123,2.091,0.397,3.103c0.261,1.003,0.665,1.963,1.202,2.85c0.503,0.846,1.172,1.581,1.966,2.161
					C119.636,50.69,120.565,51.032,121.533,51.106"/>
				
					<linearGradient id="SVGID_4_" gradientUnits="userSpaceOnUse" x1="8470.0225" y1="10517.1035" x2="8474.1768" y2="10527.4668" gradientTransform="matrix(0.2411 0 0 0.2411 -1910.2722 -2479.9209)">
					<stop  offset="0.0562" style="stop-color:#90004F"/>
					<stop  offset="0.2303" style="stop-color:#E3007F"/>
					<stop  offset="0.4438" style="stop-color:#90004F"/>
					<stop  offset="1" style="stop-color:#690035"/>
				</linearGradient>
				<path class="st11" d="M121.083,26.453c1.489-0.951,3.23-1.432,4.996-1.379c1.487-0.022,2.964,0.26,4.338,0.829
					c4.163,1.784,8.931,6.434,8.931,16.015c0,15.388-11.155,17.555-14.752,17.555c-2.343,0.036-4.659-0.501-6.747-1.563
					c1.974,0.756,4.084,1.093,6.196,0.989c3.19,0,13.437-3.026,13.437-17.139c0.047-4.381-1.448-8.638-4.225-12.028
					c-2.119-2.536-5.254-4-8.559-3.999C123.454,25.707,122.22,25.952,121.083,26.453z"/>
			</g>
		</g>
	</g>
</g>
<g id="guide" class="st0">
</g>
<g id="レイヤー_3">
	<rect x="-0.13" y="0.26" class="st12" width="168" height="72"/>
	<g>
		<g>
			<polygon class="st13" points="136.145,54.784 136.132,10.121 73.858,18.631 73.833,46.816 			"/>
		</g>
		<g>
			<g>
				<polygon class="st3" points="84.379,47.121 84.431,40.97 79.901,40.49 82.522,35.063 78.305,32.697 82.568,30.375 
					80.307,25.312 84.499,26.405 84.447,18.397 87.893,24.461 91.583,17.365 91.676,25.598 98.707,22.133 94.272,29.842 
					101.873,32.602 94.281,35.466 98.646,43.185 91.691,39.821 91.552,48.027 87.875,40.976 				"/>
			</g>
		</g>
		<g>
			<g>
				<path class="st14" d="M61.572,65.013l-8.698,0.003l-0.003-8.473l8.698-0.003L61.572,65.013z M59.607,58.428h-4.771l0.003,4.703
					l4.771-0.003L59.607,58.428z"/>
				<path class="st14" d="M63.253,65.121l-0.006-8.833l2.005-0.003v2.741l6.194,0.271l0.003,1.943l-6.185-0.271l0.003,4.152H63.253z
					"/>
			</g>
			<path class="st14" d="M78.271,58.526l-4.626-0.2v-1.873l4.626,0.188V58.526z M75.493,63.042c3.758-0.003,4.996-0.909,4.996-4.488
				v-1.029h2.014v1.167c0.003,4.515-2.011,6.409-6.93,6.413h-1.734l-0.003-2.067L75.493,63.042z M78.271,61.44l-4.626-0.191v-1.885
				l4.626,0.2V61.44z"/>
			<path class="st14" d="M84.533,63.248h0.484c3.105,0,3.536-0.465,3.767-2.218c0.151-1.17,0.302-2.812,0.302-2.812H91.1
				c0,0-0.311,2.489-0.413,3.185c-0.351,2.479-1.429,3.588-4.826,3.671H84.53L84.533,63.248z M85.248,58.24l0.333,3.527h-1.854
				l-0.333-3.527H85.248z M87.887,58.24l0.345,3.527h-1.863l-0.323-3.527H87.887z"/>
			<path class="st14" d="M101.147,56.349c0.114,6.52-1.759,8.769-7.152,8.769h-1.078v-1.934h1.038
				c3.73-0.003,5.039-1.343,5.097-4.94l-4.133,0.003l-0.896,2.581h-2.156l1.611-4.475L101.147,56.349z"/>
			<path class="st14" d="M111.218,65.111c-1.833-0.382-3.105-1.552-3.69-2.6c-1.056,1.38-2.75,2.359-5.482,2.621l-0.003-1.974
				c3.296-0.256,5.03-2.261,5.248-4.771l-5.008,0.003v-1.934l7.355-0.003c-0.059,1.805-0.422,3.376-0.835,4.355
				c0.342,1.038,1.454,1.823,2.412,2.147v2.156H111.218z"/>
		</g>
		<g>
			<path class="st14" d="M48.439,47.503l-17.063,1.793v-0.16c2.159-1.866,1.857-4.808,1.857-7.568V21.726
				c0-2.76,0.305-5.738-1.857-7.718v-0.163l11.063,1.749v0.148c-1.876,1.26-1.605,4.149-1.605,6.801v20.106
				c1.226,0.668,2.615,0.675,3.939,0.588c1.968-0.132,3.459-0.748,4.95-2.375L48.439,47.503z"/>
			<path class="st14" d="M62.591,33.911c0,1.777-0.154,3.631-0.813,5.116c-0.715,1.617-1.833,2.695-3.077,2.787
				c-1.374,0.102-2.612-1.287-3.323-3.132c-0.721-1.953-1.214-5.005-1.214-7.312c0-4.096,1.343-8.458,4.25-8.082
				C61.599,23.698,62.591,29.774,62.591,33.911z M67.596,32.781c0-8.488-3.65-13.777-9.129-14.676
				c-5.87-0.967-11.418,4.183-11.418,14.159c0,9.838,5.116,15.471,11.088,14.812C63.475,46.483,67.596,41.152,67.596,32.781z"/>
			<path class="st14" d="M78.327,26.99c-0.311-1.201-0.958-1.614-1.722-1.691c-0.388-0.04-0.733-0.04-1.103,0.099v14.217
				c0,2.02,0.022,3.613,0.952,4.946v0.105l-6.172,0.579v-0.111c1.173-1.254,1.007-3.345,1.007-5.267V24.973
				c-0.407-0.188-0.767-0.225-1.201-0.271c-1.13-0.114-1.854,0.228-2.818,1.133l-0.179,0.176l0.992-5.778l0.477,0.182l10.484,1.478
				L78.327,26.99z"/>
			<path class="st14" d="M87.896,34.256c0,1.361-0.099,2.781-0.521,3.912c-0.456,1.229-1.164,2.039-1.947,2.091
				c-0.862,0.059-1.632-1.007-2.07-2.399c-0.444-1.469-0.748-3.761-0.748-5.489c0-3.071,0.825-6.369,2.636-6.154
				C87.262,26.451,87.896,31.087,87.896,34.256z M91.229,33.375c0-6.576-2.439-10.561-6.021-11.088
				c-3.739-0.548-7.179,3.425-7.179,10.798c0,7.269,3.172,11.538,6.967,11.165C88.479,43.909,91.229,39.861,91.229,33.375z"/>
		</g>
		<g>
			
				<linearGradient id="SVGID_5_" gradientUnits="userSpaceOnUse" x1="4517.5522" y1="-3476.6763" x2="4517.5522" y2="-3439.7458" gradientTransform="matrix(0.4554 0 0 -0.4554 -1942.6316 -1538.6832)">
				<stop  offset="0.0562" style="stop-color:#91004F"/>
				<stop  offset="0.2303" style="stop-color:#E4007F"/>
				<stop  offset="0.4438" style="stop-color:#91004F"/>
				<stop  offset="1" style="stop-color:#6A0035"/>
			</linearGradient>
			<path class="st15" d="M115.204,35.608c0-2.741,1.46-5.06,3.471-5.84c-0.804-0.508-1.722-0.798-2.698-0.798
				c-3.185,0-5.769,3.074-5.769,6.862c0,3.791,2.584,6.862,5.769,6.862c1.158,0,2.236-0.407,3.139-1.106
				C116.876,40.998,115.204,38.546,115.204,35.608z"/>
			<polygon class="st16" points="121.037,10.869 116.026,7.565 116.842,7.047 120.717,9.222 126.323,12.89 			"/>
			
				<linearGradient id="SVGID_6_" gradientUnits="userSpaceOnUse" x1="2787.5217" y1="-3125.2063" x2="2840.3706" y2="-3258.2834" gradientTransform="matrix(0.3166 0 0 -0.3166 -764.9062 -968.212)">
				<stop  offset="0.0562" style="stop-color:#91004F"/>
				<stop  offset="0.2303" style="stop-color:#E4007F"/>
				<stop  offset="0.4438" style="stop-color:#91004F"/>
				<stop  offset="1" style="stop-color:#6A0035"/>
			</linearGradient>
			<path class="st17" d="M120.471,22.287c0,0,3.092,0.533,4.638,1.161c1.546,0.628,7.007,3.53,7.007,12.323
				c0,6.138-3.065,9.446-4.448,10.537c-1.836,1.451-5.643,2.763-8.735,3.536c0,0,9.268-3.148,9.268-13.444
				C128.204,26.103,121.872,23.011,120.471,22.287z"/>
			
				<linearGradient id="SVGID_7_" gradientUnits="userSpaceOnUse" x1="3394.3069" y1="-3677.0168" x2="3365.6636" y2="-3595.4268" gradientTransform="matrix(0.4554 0 0 -0.4554 -1426.1721 -1624.3048)">
				<stop  offset="0.0562" style="stop-color:#91004F"/>
				<stop  offset="0.2303" style="stop-color:#E4007F"/>
				<stop  offset="0.4438" style="stop-color:#91004F"/>
				<stop  offset="1" style="stop-color:#6A0035"/>
			</linearGradient>
			<path class="st18" d="M115.62,42.279c-2.519,0-4.561-2.886-4.561-6.443c0-3.56,2.042-6.443,4.561-6.443
				c1.217,0,2.322,0.675,3.142,1.771c-0.921-1.74-2.424-2.652-4.044-2.652c-2.935,0-5.408,3.163-5.408,7.423
				c0,4.056,2.47,7.346,5.408,7.346c1.974,0,3.828-1.5,4.614-3.699C118.505,41.214,117.15,42.279,115.62,42.279z"/>
			<polygon class="st9" points="113.713,23.119 113.935,23.294 120.717,22.463 126.144,13.604 126.353,12.89 122.894,11.011 
				121.037,10.869 			"/>
			<g>
				<path class="st19" d="M116.565,22.496c1.592-0.108,3.062,0.194,4.374,0.822c1.34,0.641,2.553,1.623,3.524,2.852
					c0.986,1.247,1.719,2.744,2.248,4.395c0.533,1.663,0.878,3.468,0.872,5.313c-0.006,2.202-0.447,4.232-1.124,6.021
					c-0.675,1.774-1.648,3.299-2.852,4.512c-1.189,1.195-2.596,2.082-4.158,2.612c-1.531,0.521-2.815,0.736-4.962,0.484
					c-1.648-0.197-3.166-0.715-4.506-1.494c-1.315-0.764-2.464-1.777-3.406-2.994c-0.93-1.198-1.66-2.593-2.153-4.143
					c-0.49-1.537-0.745-3.234-0.727-5.051c0.009-1.084,0.126-2.162,0.32-3.228c0.194-1.069,0.471-2.122,0.807-3.157
					c0.339-1.038,0.736-2.061,1.173-3.049c0.44-0.995,0.921-1.962,1.417-2.886l8.615-15.945l5.008,3.305l-7.207,12.225l0.086,0.095
					c0.188-0.102,0.388-0.194,0.594-0.271c0.209-0.08,0.425-0.148,0.65-0.206c0.225-0.055,0.456-0.102,0.687-0.139
					C116.088,22.54,116.325,22.515,116.565,22.496z M114.486,43.212c0.832,0.065,1.592-0.12,2.264-0.49
					c0.681-0.373,1.269-0.936,1.756-1.62c0.49-0.69,0.872-1.5,1.133-2.369c0.262-0.869,0.403-1.793,0.407-2.698
					c0.003-0.918-0.126-1.857-0.379-2.741c-0.253-0.884-0.622-1.716-1.103-2.424c-0.474-0.705-1.056-1.294-1.728-1.697
					c-0.665-0.4-1.42-0.619-2.245-0.598c-0.819,0.022-1.552,0.274-2.193,0.696c-0.634,0.416-1.183,0.995-1.626,1.679
					c-0.444,0.678-0.785,1.46-1.023,2.285c-0.234,0.822-0.36,1.688-0.37,2.544c-0.006,0.841,0.105,1.706,0.323,2.535
					c0.222,0.832,0.551,1.629,0.986,2.328c0.434,0.705,0.973,1.315,1.605,1.765C112.928,42.858,113.664,43.151,114.486,43.212"/>
			</g>
			
				<linearGradient id="SVGID_8_" gradientUnits="userSpaceOnUse" x1="2769.6067" y1="-3120.3555" x2="2830.0964" y2="-3271.2612" gradientTransform="matrix(0.3166 0 0 -0.3166 -764.9062 -968.212)">
				<stop  offset="0.0562" style="stop-color:#91004F"/>
				<stop  offset="0.2303" style="stop-color:#E4007F"/>
				<stop  offset="0.4438" style="stop-color:#91004F"/>
				<stop  offset="1" style="stop-color:#6A0035"/>
			</linearGradient>
			<path class="st20" d="M114.116,23.072c1.118-0.869,2.908-1.124,4.081-1.124c0.899,0,2.19,0.095,3.545,0.675
				c3.4,1.457,7.293,5.258,7.293,13.084c0,12.566-9.114,14.337-12.052,14.337c-2.941,0-5.033-1.019-5.547-1.312
				c2.236,0.742,3.04,0.844,5.097,0.844c2.606,0,10.977-2.473,10.977-13.999c0-4.121-1.645-7.863-3.45-9.825
				c-2.19-2.384-4.574-3.286-6.989-3.265C115.783,22.496,114.88,22.721,114.116,23.072z"/>
		</g>
	</g>
</g>
</svg>
