<?xml version="1.0" encoding="utf-8"?>
<!-- Generator: Adobe Illustrator 23.1.0, SVG Export Plug-In . SVG Version: 6.00 Build 0)  -->
<svg version="1.1" xmlns="http://www.w3.org/2000/svg" xmlns:xlink="http://www.w3.org/1999/xlink" x="0px" y="0px"
	 viewBox="0 0 168 72" style="enable-background:new 0 0 168 72;" xml:space="preserve">
<style type="text/css">
	.st0{display:none;}
	.st1{display:inline;}
	.st2{fill:#2C4198;}
	.st3{fill:#F39800;}
	.st4{fill:#FFFFFF;}
	.st5{fill:#E60012;}
	.st6{fill:none;}
</style>
<g id="レイヤー_1" class="st0">
	<title>logo-drawer-miniloto001</title>
	<g class="st1">
		<g id="レイヤー_3">
			<path class="st2" d="M74.06,54.34L65.49,54v-1.91l8.57,0.37V54.34z M73.65,57.34L65.75,57v-1.8l7.9,0.36v1.82V57.34z
				 M65.34,58.21l8.92,0.7v1.89l-8.92-0.71v-1.84V58.21z"/>
			<path class="st2" d="M84.17,54.49h-8.38v-2h8.38V54.49z M84.5,60.49h-9v-2h9V60.49z"/>
			<path class="st2" d="M94.62,60.76h-8.84v-8.61h8.84L94.62,60.76z M92.62,54.07h-4.85v4.77h4.85V54.07z"/>
			<polygon class="st2" points="96.32,60.87 96.32,51.89 98.36,51.89 98.36,54.67 104.66,54.95 104.66,56.92 98.37,56.65 
				98.37,60.87 			"/>
			<polygon class="st3" points="31.04,52.27 31.05,11.07 85.68,20.19 85.7,43.66 			"/>
			<polygon class="st4" points="80.75,44.06 80.7,38.91 84.5,38.5 82.3,33.95 85.84,31.97 82.27,30.02 84.52,25.37 80.64,26.69 
				80.69,19.97 77.8,25.06 74.7,19.1 74.62,26.01 68.72,23.1 72.44,29.57 66.06,31.89 72.44,34.29 68.77,40.76 74.61,37.94 
				74.73,44.83 77.81,38.91 			"/>
			<polygon class="st2" points="38.96,40.46 38.96,26.93 39,26.93 41.27,40.28 43.64,40.1 45.84,27.24 45.87,27.24 45.87,39.92 
				48.1,39.74 48.1,23.67 44.49,23.37 42.55,34.75 42.52,34.75 40.62,23.05 36.33,22.71 36.33,40.67 			"/>
			<polygon class="st2" points="52.88,39.43 52.88,24 50.75,23.82 50.75,39.59 			"/>
			<polygon class="st2" points="56.89,39.13 56.89,28.29 56.91,28.29 59.39,38.93 61.76,38.74 61.76,24.7 60.1,24.57 60.1,34.47 
				60.07,34.48 57.7,24.37 55.05,24.15 55.05,39.29 			"/>
			<polygon class="st2" points="65.23,38.48 65.23,24.96 63.55,24.83 63.55,38.61 			"/>
			<path class="st5" d="M98.34,26.34c-0.311-1.346-0.86-2.626-1.62-3.78c-0.608-0.923-1.459-1.66-2.46-2.13
				c-0.941-0.419-1.983-0.555-3-0.39c-1.016,0.162-1.973,0.582-2.78,1.22c-0.867,0.696-1.593,1.552-2.14,2.52
				c-0.62,1.11-1.072,2.307-1.34,3.55c-0.341,1.462-0.509,2.959-0.5,4.46c0.005,1.49,0.173,2.976,0.5,4.43
				c0.265,1.232,0.702,2.421,1.3,3.53c0.517,0.962,1.221,1.812,2.07,2.5c0.795,0.64,1.749,1.052,2.76,1.19
				c0.979,0.133,1.976-0.019,2.87-0.44c1.011-0.511,1.877-1.268,2.52-2.2c0.811-1.15,1.407-2.437,1.76-3.8
				c0.448-1.734,0.667-3.519,0.65-5.31c0.019-1.784-0.179-3.564-0.59-5.3L98.34,26.34z M94.08,34.11c0,0.42-0.06,0.83-0.11,1.19
				c-0.049,0.377-0.119,0.751-0.21,1.12c-0.08,0.342-0.191,0.677-0.33,1c-0.13,0.304-0.287,0.595-0.47,0.87
				c-0.151,0.221-0.329,0.423-0.53,0.6c-0.153,0.144-0.333,0.256-0.53,0.33c-0.168,0.067-0.35,0.091-0.53,0.07
				c-0.193-0.017-0.377-0.09-0.53-0.21c-0.215-0.149-0.401-0.335-0.55-0.55c-0.204-0.254-0.375-0.533-0.51-0.83
				c-0.164-0.321-0.302-0.656-0.41-1c-0.11-0.37-0.22-0.81-0.32-1.3s-0.18-1-0.25-1.48s-0.12-1-0.16-1.52s-0.06-1-0.06-1.43
				c0-0.793,0.057-1.585,0.17-2.37c0.102-0.73,0.27-1.45,0.5-2.15c0.188-0.555,0.472-1.073,0.84-1.53
				c0.266-0.338,0.654-0.557,1.08-0.61c0.478-0.035,0.938,0.186,1.21,0.58c0.467,0.61,0.807,1.307,1,2.05
				c0.265,0.96,0.452,1.94,0.56,2.93c0.118,0.996,0.178,1.997,0.18,3c0,0.45,0,0.85,0,1.24L94.08,34.11z"/>
			<path class="st5" d="M135.68,23.57c-0.58-1.974-1.579-3.799-2.93-5.35c-1.137-1.299-2.606-2.264-4.25-2.79
				c-1.619-0.495-3.333-0.598-5-0.3c-1.648,0.291-3.216,0.928-4.6,1.87c-1.402,0.95-2.613,2.154-3.57,3.55
				c-1.043,1.489-1.831,3.142-2.33,4.89c-0.565,1.994-0.844,4.058-0.83,6.13c-0.015,2.049,0.244,4.09,0.77,6.07
				c0.454,1.73,1.187,3.375,2.17,4.87c0.915,1.381,2.094,2.567,3.47,3.49c1.368,0.925,2.926,1.53,4.56,1.77
				c1.655,0.253,3.346,0.102,4.93-0.44c1.673-0.593,3.171-1.593,4.36-2.91c1.416-1.564,2.483-3.412,3.13-5.42
				c0.819-2.487,1.221-5.092,1.19-7.71C136.786,28.677,136.425,26.074,135.68,23.57z M128.68,34.83
				c-0.029,0.573-0.093,1.144-0.19,1.71c-0.086,0.541-0.21,1.076-0.37,1.6c-0.15,0.485-0.348,0.954-0.59,1.4
				c-0.24,0.445-0.525,0.863-0.85,1.25c-0.292,0.334-0.629,0.627-1,0.87c-0.306,0.215-0.643,0.38-1,0.49
				c-0.354,0.1-0.724,0.13-1.09,0.09c-0.399-0.039-0.785-0.165-1.13-0.37c-0.374-0.236-0.711-0.526-1-0.86
				c-0.346-0.37-0.648-0.78-0.9-1.22c-0.278-0.469-0.516-0.961-0.71-1.47c-0.19-0.53-0.38-1.14-0.55-1.82s-0.31-1.35-0.42-2.07
				s-0.22-1.42-0.28-2.12s-0.1-1.37-0.1-2c0.001-1.106,0.095-2.21,0.28-3.3c0.175-1.031,0.471-2.038,0.88-3
				c0.333-0.836,0.833-1.594,1.47-2.23c0.577-0.559,1.322-0.91,2.12-1c0.905-0.108,1.81,0.201,2.46,0.84
				c0.795,0.828,1.396,1.822,1.76,2.91c0.479,1.354,0.814,2.755,1,4.18c0.209,1.444,0.313,2.901,0.31,4.36c0,0.64,0,1.22,0,1.77
				L128.68,34.83z"/>
			<path class="st5" d="M76.41,22.64l5.67-0.84c-0.73,0.6-1.21,1.53-1.21,3.41V38c1.346,0.511,2.868,0.076,3.74-1.07l-0.07,5.16
				l-8.09-0.86c0.728-0.758,1.092-1.793,1-2.84V25.26c0.098-0.982-0.272-1.953-1-2.62H76.41z"/>
			<path class="st5" d="M113,17.27l-13.3,2.18l-0.78,7.2c1.07-1.69,2.14-2.77,3.88-2.8v16.58c0.127,1.335-0.372,2.653-1.35,3.57l8,1
				c-0.885-1.347-1.386-2.91-1.45-4.52V23.31c2.33-0.56,3.06,1.12,3.85,2.73L113,17.27z"/>
			<rect class="st6" width="168" height="72"/>
		</g>
	</g>
</g>
<g id="レイヤー_2">
	<g>
		<path class="st2" d="M74.025,54.316l-8.564-0.376v-1.876l8.564,0.37V54.316L74.025,54.316z M73.618,57.356l-7.891-0.373v-1.813
			l7.891,0.366V57.356L73.618,57.356z M65.312,58.222l8.918,0.696v1.888l-8.918-0.711V58.222L65.312,58.222z"/>
		<path class="st2" d="M84.127,54.465h-8.375v-1.981h8.375V54.465L84.127,54.465z M84.456,60.504h-9.027v-2.003h9.027V60.504
			L84.456,60.504z"/>
		<path class="st2" d="M94.57,60.725h-8.835V52.12h8.835V60.725L94.57,60.725z M92.573,54.039h-4.841v4.773h4.841V54.039
			L92.573,54.039z"/>
		<polygon class="st2" points="96.275,60.834 96.275,51.865 98.305,51.865 98.305,54.645 104.6,54.918 104.6,56.893 98.318,56.62 
			98.318,60.834 		"/>
		<polygon class="st3" points="31.042,52.241 31.054,11.08 85.636,20.188 85.661,43.639 		"/>
		<polygon class="st4" points="80.711,44.046 80.664,38.892 84.459,38.488 82.263,33.939 85.797,31.957 82.226,30.007 
			84.481,25.368 80.605,26.681 80.649,19.971 77.764,25.051 74.668,19.101 74.59,26.005 68.693,23.101 72.413,29.563 66.038,31.877 
			72.404,34.28 68.743,40.745 74.575,37.926 74.693,44.807 77.776,38.898 		"/>
		<polygon class="st2" points="38.957,40.444 38.957,26.924 38.991,26.924 41.261,40.264 43.63,40.081 45.829,27.234 45.86,27.237 
			45.86,39.901 48.09,39.724 48.09,23.666 44.478,23.368 42.54,34.74 42.506,34.74 40.615,23.051 36.327,22.704 36.327,40.649 		"/>
		<polygon class="st2" points="52.859,39.41 52.859,23.999 50.732,23.822 50.732,39.578 		"/>
		<polygon class="st2" points="56.868,39.118 56.868,28.278 56.893,28.284 59.368,38.913 61.737,38.721 61.737,24.697 
			60.076,24.561 60.076,34.46 60.051,34.463 57.676,24.362 55.027,24.144 55.027,39.27 		"/>
		<polygon class="st2" points="65.2,38.46 65.2,24.958 63.529,24.821 63.529,38.597 		"/>
		<path class="st5" d="M98.29,26.334c-0.376-1.5-0.922-2.77-1.624-3.779c-0.689-0.987-1.509-1.699-2.45-2.127
			c-0.916-0.413-1.916-0.54-2.966-0.385c-0.987,0.146-1.919,0.559-2.773,1.22c-0.82,0.637-1.54,1.481-2.14,2.512
			c-0.599,1.031-1.065,2.223-1.382,3.549c-0.326,1.366-0.494,2.869-0.494,4.459c0,1.587,0.155,3.074,0.46,4.425
			c0.298,1.323,0.736,2.512,1.301,3.528c0.574,1.034,1.27,1.876,2.065,2.497c0.835,0.661,1.767,1.059,2.754,1.189
			c1.015,0.137,2.003-0.019,2.935-0.463c0.947-0.453,1.795-1.192,2.515-2.192c0.748-1.04,1.335-2.329,1.739-3.829
			c0.432-1.59,0.649-3.375,0.649-5.307C98.874,29.678,98.678,27.893,98.29,26.334L98.29,26.334z M94.029,34.094
			c-0.022,0.429-0.059,0.829-0.106,1.199c-0.056,0.407-0.127,0.779-0.211,1.118c-0.09,0.36-0.205,0.692-0.332,0.984
			c-0.14,0.323-0.301,0.618-0.472,0.869c-0.165,0.242-0.342,0.447-0.525,0.606c-0.174,0.152-0.354,0.258-0.531,0.326
			c-0.174,0.065-0.348,0.087-0.525,0.071c-0.171-0.016-0.354-0.084-0.534-0.208c-0.189-0.127-0.373-0.314-0.553-0.55
			c-0.183-0.233-0.354-0.515-0.509-0.835c-0.155-0.314-0.292-0.668-0.404-1.034c-0.115-0.376-0.22-0.814-0.32-1.298
			c-0.096-0.469-0.18-0.969-0.252-1.484c-0.068-0.512-0.121-1.022-0.161-1.522c-0.037-0.509-0.056-0.984-0.056-1.428
			c0-0.81,0.056-1.609,0.165-2.369c0.121-0.801,0.289-1.522,0.506-2.14c0.233-0.652,0.515-1.168,0.832-1.531
			c0.329-0.37,0.677-0.574,1.078-0.612c0.444-0.05,0.845,0.14,1.211,0.584c0.379,0.447,0.708,1.137,0.981,2.043
			c0.245,0.835,0.435,1.82,0.565,2.931c0.115,0.981,0.177,2.037,0.177,3.049C94.057,33.308,94.048,33.712,94.029,34.094
			L94.029,34.094z"/>
		<path class="st5" d="M135.6,23.567c-0.68-2.149-1.661-3.947-2.925-5.347c-1.202-1.335-2.633-2.273-4.248-2.789
			c-1.546-0.491-3.226-0.59-4.987-0.295c-1.643,0.273-3.186,0.894-4.602,1.845c-1.369,0.919-2.571,2.108-3.574,3.549
			c-1.006,1.435-1.782,3.084-2.31,4.909c-0.547,1.882-0.829,3.941-0.829,6.121c0,2.167,0.261,4.208,0.77,6.068
			c0.497,1.817,1.23,3.456,2.177,4.869c0.96,1.432,2.115,2.608,3.444,3.5c1.379,0.932,2.913,1.531,4.555,1.77
			c1.699,0.252,3.354,0.106,4.922-0.435c1.636-0.568,3.105-1.546,4.366-2.91c1.341-1.453,2.394-3.279,3.127-5.434
			c0.786-2.301,1.183-4.897,1.183-7.71C136.671,28.417,136.311,25.824,135.6,23.567L135.6,23.567z M128.641,34.814
			c-0.037,0.609-0.106,1.186-0.193,1.711c-0.093,0.574-0.22,1.112-0.376,1.596c-0.158,0.515-0.357,0.987-0.584,1.407
			c-0.258,0.463-0.54,0.885-0.851,1.242c-0.304,0.351-0.63,0.646-0.972,0.876c-0.335,0.227-0.686,0.391-1.043,0.488
			c-0.363,0.099-0.727,0.127-1.093,0.093c-0.379-0.037-0.761-0.165-1.127-0.379c-0.36-0.205-0.711-0.491-1.04-0.851
			c-0.323-0.348-0.627-0.755-0.904-1.22c-0.267-0.453-0.503-0.947-0.705-1.472c-0.193-0.528-0.382-1.143-0.55-1.82
			c-0.165-0.652-0.307-1.351-0.425-2.068c-0.121-0.714-0.214-1.422-0.276-2.118c-0.062-0.702-0.099-1.366-0.099-1.975
			c0-1.13,0.096-2.236,0.286-3.298c0.196-1.124,0.491-2.133,0.869-3.003c0.404-0.935,0.901-1.689,1.475-2.23
			c0.618-0.587,1.332-0.932,2.121-1.028c0.91-0.109,1.736,0.177,2.453,0.845c0.68,0.633,1.273,1.615,1.761,2.903
			c0.441,1.183,0.783,2.59,1.009,4.177c0.208,1.404,0.314,2.913,0.314,4.357C128.691,33.69,128.672,34.265,128.641,34.814
			L128.641,34.814z"/>
		<path class="st5" d="M76.376,22.638l5.661-0.845c-0.73,0.606-1.205,1.534-1.205,3.416c0,1.885,0,12.766,0,12.766
			c0.987,0.273,2.338,0.519,3.733-1.065l-0.065,5.155l-8.086-0.863c0.547-0.5,0.95-1.335,0.95-2.838c0-1.5,0-11.719,0-13.107
			C77.363,23.865,76.925,23.067,76.376,22.638L76.376,22.638z"/>
		<path class="st5" d="M112.944,17.272l-13.284,2.18l-0.776,7.192c1.068-1.686,2.13-2.77,3.872-2.795c0,0,0,15.079,0,16.564
			c0,1.484-0.391,2.801-1.354,3.546l8.027,1.04c-0.823-1.366-1.503-2.885-1.503-4.534c0-1.655,0-17.157,0-17.157
			c2.323-0.559,3.059,1.121,3.847,2.723L112.944,17.272L112.944,17.272z"/>
	</g>
</g>
</svg>
