<svg xmlns="http://www.w3.org/2000/svg" viewBox="0 0 168 72"><defs><style>.cls-1{fill:none;}.cls-2{fill:#d73282;}.cls-10,.cls-3{fill:#fff;}.cls-4{fill:#bebebe;}.cls-5{fill:#1e286e;}.cls-6{fill:#facf00;}.cls-7,.cls-9{fill:#231914;}.cls-10,.cls-7{fill-rule:evenodd;}.cls-8{fill:#fabe00;}</style></defs><title>logo-drawer-kisekae-qoochan-001</title><g id="レイヤー_2" data-name="レイヤー 2"><g id="レイヤー_3" data-name="レイヤー 3"><rect class="cls-1" width="168" height="72"/><path class="cls-2" d="M58.38,39.43,54.07,23.32l3.86-.26,2.13-8.39L45.87,12.76c-1.17,1.46-3.19,2.58-6,3.33s-5,.86-6.85.11L21.7,24.93l6.07,6.22,3.45-1.69,4.31,16.11Z"/><path class="cls-3" d="M45.34,27.7v-.78h6.07V25.46H45.34v-.75h6.07V23.06h-3l1-1.58H46.91l-1,1.58H42.34l-1.05-1.58h-2.5l1,1.58h-3v1.65h5.84v.75H36.8v1.46h5.84v.78H36v1.65h1.5V32a2,2,0,0,1-2.21,2.21v2.51A4.48,4.48,0,0,0,40,32V29.35H52.08V27.7Z"/><path class="cls-4" d="M131,59.92l-.72.41c-.45.3-1,.6-1.64,1s-1.24.67-1.8.93a2.75,2.75,0,0,1-1.39.34c-.41-.08-.6-.41-.56-1s.41-2.21.56-3a16.46,16.46,0,0,0,.26-2.59A2.1,2.1,0,0,0,124.42,54a4.18,4.18,0,0,0-2.69-.37,5.83,5.83,0,0,0-1.47.41s4.91-8.39,5.74-9.89l-5.36-.79L109.18,64.9l4.87.49c.3-.64.67-1.31,1-2,.64-1.2,2.44-4.2,2.7-4.65a3.77,3.77,0,0,1,1.09-1.09,3,3,0,0,1,1.38-.52c.79-.07,1.2.15,1.2.67a13,13,0,0,1-.3,1.95,10.43,10.43,0,0,0,0,4.72c.42,1,1.39,1.54,2.93,1.76a5.59,5.59,0,0,0,2.13-.15,7.81,7.81,0,0,0,1.84-.67c.56-.26,4-2.21,4.64-2.66Z"/><path class="cls-4" d="M84.71,48.64l.94-2.47L81.6,45.09l-.9,2.47-3.52-.94-.93,3.52,3.22.86-1.91,5.44c1.87.26,4.53.67,6,1,1.69.34,3.07,1,3,2.63s-2.29,2.39-5.43,1.46a41.22,41.22,0,0,1-4.91-1.87l-.94,3.59c6.26,3,12.89,3.79,14.88-1.23,1.57-4.05-1.05-7.16-7.5-8l.75-2,.56.15,8.25,2.18.93-3.53L86.21,49Z"/><polygon class="cls-4" points="23.05 38.9 13.31 51 18.78 52.99 25.37 44.86 30.95 46.85 18.03 64.3 24.02 66.18 40.13 44.64 23.05 38.9"/><polygon class="cls-4" points="70.48 58.05 75.53 57.45 71 55.16 75.53 52.88 70.48 52.31 73.96 48.61 69.02 49.8 71.04 45.12 66.81 47.93 67.11 42.84 64.07 46.92 62.61 42.05 61.15 46.92 58.12 42.84 58.41 47.93 54.18 45.12 56.2 49.8 51.26 48.61 54.74 52.31 54.89 52.47 37.55 52.47 33.8 57.45 55.31 57.45 54.74 58.05 51.26 61.72 56.2 60.56 54.18 65.24 58.41 62.43 58.12 67.49 61.15 63.4 62.61 68.27 64.07 63.4 67.11 67.49 66.81 62.43 71.04 65.24 69.02 60.56 73.96 61.72 70.48 58.05"/><path class="cls-4" d="M103.86,57.71l1,3.11c1.62-.38,3.9-1.16,5.1-3a5.13,5.13,0,0,0,.64-4.57,4.63,4.63,0,0,0-5.25-3.19L104.53,48l-3.93.67,1.08,2.66c-.41.15-.82.34-1.27.53l-1.2-3-3.93.67,1.53,3.75-3,1.2,1.24,3c1-.41,2-.82,3-1.19l3.71,9.1H106l-4.27-10.56c1.88-.75,3.26-1.28,3.56-1.39,0,0,1.65-.71,2.29.75a1.86,1.86,0,0,1-.12,1.83A6.42,6.42,0,0,1,103.86,57.71Z"/><path class="cls-5" d="M111,19.16H60.33l-1.09,4.27-.26,1-1,.07-2.18.15,3.9,14.5.3,1.16h50.95c6.48,0,11.76-4.76,11.76-10.56S117.42,19.16,111,19.16"/><rect class="cls-3" x="104.94" y="22.57" width="5.62" height="2.1"/><path class="cls-3" d="M113.37,34.71c-.56,0-.82-.49-.82-1V32.2a1.49,1.49,0,0,0-1.61-1.46l1.79-1.24a1.17,1.17,0,0,0,.53-1v-2.4a.63.63,0,0,0-.71-.71H101.8v2.4h9.14l-.08.07-9.4,6.59v3l7-4.9a4.28,4.28,0,0,1,.42-.19,1.06,1.06,0,0,1,1.31,1v1.09A2.82,2.82,0,0,0,113,37.14h2.88V34.75h-2.47Z"/><path class="cls-3" d="M70.48,30h-1.8v2.39h2a3.41,3.41,0,0,0,3.45-3.67v-1h3v-2.4h-3V22.46h-2.4v2.88H66.13V22.46h-2.4v2.88H61.22v2.4h2.51V33.1c0,2.28,1.47,3.67,3.86,3.67h7.72v-2.4H67.89a1.67,1.67,0,0,1-1.76-1.68V27.74h5.58v1A1.19,1.19,0,0,1,70.48,30"/><path class="cls-3" d="M89.13,25.6h-.78c.37-1.34.67-2.54.9-3.48H86.77c-.22,1-.56,2.17-.93,3.48H82V28h3.11a62.59,62.59,0,0,1-3.86,9.11H84A56.54,56.54,0,0,0,87.64,28h1.49c.87,0,1,.68,1,1.28v4.15c0,.57-.19,1.28-1,1.28H86.92v2.4h2.21a3.38,3.38,0,0,0,3.41-3.68V29.28a3.36,3.36,0,0,0-3.41-3.68"/><path class="cls-3" d="M94.83,24.14H92.21a42.86,42.86,0,0,1,2.54,8.25h2.44a44.09,44.09,0,0,0-2.36-8.25"/><path class="cls-5" d="M130.27,58.42l-.72.41c-.44.3-1,.6-1.64,1s-1.24.67-1.8.93a2.65,2.65,0,0,1-1.39.34c-.41-.07-.6-.41-.56-1s.41-2.21.56-3a16.46,16.46,0,0,0,.26-2.59,2.07,2.07,0,0,0-1.31-1.94,4.12,4.12,0,0,0-2.69-.38,5.56,5.56,0,0,0-1.46.41s4.9-8.39,5.73-9.89l-5.36-.78L108.46,63.4l4.87.49c.3-.64.68-1.31,1-2,.64-1.2,2.44-4.2,2.7-4.65a3.74,3.74,0,0,1,1.09-1.08,2.92,2.92,0,0,1,1.38-.53c.79-.07,1.2.15,1.2.68a13.11,13.11,0,0,1-.3,1.94,10.43,10.43,0,0,0,0,4.72c.41,1,1.39,1.54,2.92,1.77a6.08,6.08,0,0,0,2.14-.15,8.19,8.19,0,0,0,1.83-.68c.57-.26,4-2.21,4.65-2.66Z"/><path class="cls-5" d="M84,47.18l.94-2.47-4.05-1.09L80,46.1l-3.53-.94-.93,3.52,3.22.86L76.81,55c1.87.27,4.53.68,6,1.05,1.69.34,3.07,1,3,2.63S83.51,61,80.37,60.11a39.83,39.83,0,0,1-4.91-1.88l-.94,3.6c6.26,3,12.89,3.78,14.88-1.24,1.57-4-1.05-7.15-7.5-8l.75-2,.56.15,8.25,2.17.93-3.52-6.93-1.83Z"/><polygon class="cls-5" points="22.3 37.41 12.15 49.24 18.03 51.49 24.62 43.4 30.21 45.35 17.28 62.84 23.28 64.68 39.38 43.14 22.3 37.41"/><polygon class="cls-5" points="69.73 56.55 74.79 55.95 70.25 53.66 74.79 51.42 69.73 50.82 73.21 47.11 68.27 48.31 70.29 43.62 66.06 46.43 66.36 41.34 63.32 45.42 61.86 40.55 60.4 45.42 57.37 41.34 57.67 46.43 53.43 43.62 55.45 48.31 50.51 47.11 53.99 50.82 54.14 50.97 36.8 50.97 33.05 55.95 54.56 55.95 53.99 56.55 50.51 60.22 55.45 59.06 53.43 63.74 57.67 60.93 57.37 65.99 60.4 61.91 61.86 66.81 63.32 61.91 66.36 65.99 66.06 60.93 70.29 63.74 68.27 59.06 73.21 60.22 69.73 56.55"/><polygon class="cls-6" points="61.15 57.67 59.69 59.7 59.84 57.22 57.78 58.57 58.75 56.29 56.35 56.89 58.04 55.09 55.57 54.79 57.78 53.66 55.57 52.58 58.04 52.28 56.35 50.48 58.75 51.04 57.78 48.79 59.84 50.14 59.69 47.67 61.15 49.66 61.86 47.3 62.57 49.66 64.03 47.67 63.92 50.14 65.98 48.79 64.97 51.04 67.41 50.48 65.68 52.28 68.16 52.58 65.94 53.66 68.16 54.79 65.68 55.09 67.41 56.89 64.97 56.29 65.98 58.57 63.92 57.22 64.03 59.7 62.57 57.67 61.86 60.07 61.15 57.67"/><path class="cls-5" d="M104.38,51.94s1.65-.71,2.29.75a1.88,1.88,0,0,1-.12,1.84c-.63.93-2.28,1.46-3.44,1.68l1,3.11c1.61-.37,3.89-1.16,5.09-3a5.13,5.13,0,0,0,.64-4.57,4.6,4.6,0,0,0-5.25-3.18l-.86-2.14-3.93.68,1.08,2.66c-.41.15-.82.33-1.27.52l-1.2-3L94.53,48l1.53,3.75-3,1.2,1.24,3c1-.42,2-.83,3-1.2l3.71,9.1h4.19l-4.27-10.56c1.76-.75,3.15-1.31,3.45-1.39"/><path class="cls-7" d="M135.7,15.94a.65.65,0,0,1,.6.71.62.62,0,0,1-.71.6.69.69,0,0,1-.6-.67A.65.65,0,0,1,135.7,15.94Z"/><path class="cls-7" d="M135.74,13.73a.79.79,0,0,1,.71.82.75.75,0,1,1-1.5-.11A.7.7,0,0,1,135.74,13.73Z"/><path class="cls-7" d="M137.2,12.08a.67.67,0,0,1,.6.68.65.65,0,0,1-.72.59.64.64,0,1,1,.12-1.27Z"/><path class="cls-7" d="M138.92,11a.69.69,0,0,1,.64.75.67.67,0,0,1-.75.64.78.78,0,0,1-.68-.75A.74.74,0,0,1,138.92,11Z"/><path class="cls-7" d="M141.06,10.81a.66.66,0,0,1-.12,1.31.67.67,0,0,1-.63-.71A.64.64,0,0,1,141.06,10.81Z"/><path class="cls-7" d="M143.08,11.14a.64.64,0,0,1,.6.72.68.68,0,0,1-.71.6.65.65,0,0,1-.64-.72A.69.69,0,0,1,143.08,11.14Z"/><path class="cls-7" d="M144.58,12.46a.59.59,0,0,1,.56.67.66.66,0,0,1-.68.6.62.62,0,0,1-.59-.67A.68.68,0,0,1,144.58,12.46Z"/><path class="cls-7" d="M145.48,14.29a.4.4,0,0,1,.37.45.44.44,0,0,1-.45.38.4.4,0,0,1-.37-.45A.41.41,0,0,1,145.48,14.29Z"/><path class="cls-7" d="M146,15.9a.32.32,0,0,1,.3.34.33.33,0,0,1-.33.34.35.35,0,0,1-.3-.38A.31.31,0,0,1,146,15.9Z"/><path class="cls-7" d="M137.31,3.84a.87.87,0,0,1,.82,1,.94.94,0,0,1-1,.83.91.91,0,0,1-.82-1A.86.86,0,0,1,137.31,3.84Z"/><path class="cls-7" d="M128.69,6.31a.52.52,0,0,1,.45.53.46.46,0,0,1-.52.45.51.51,0,0,1-.45-.53A.47.47,0,0,1,128.69,6.31Z"/><path class="cls-7" d="M134.65,12a.6.6,0,0,1,.56.71.63.63,0,0,1-.67.6.72.72,0,0,1-.64-.71A.71.71,0,0,1,134.65,12Z"/><path class="cls-7" d="M133.11,10.77a.68.68,0,0,1-.11,1.35.68.68,0,0,1-.64-.71A.71.71,0,0,1,133.11,10.77Z"/><path class="cls-7" d="M131,11.56a.66.66,0,0,0,.71-.6.62.62,0,0,0-.6-.71.62.62,0,0,0-.71.6A.69.69,0,0,0,131,11.56Z"/><path class="cls-7" d="M129.18,10.73a.68.68,0,0,1-.11,1.35.76.76,0,0,1-.64-.75A.64.64,0,0,1,129.18,10.73Z"/><path class="cls-7" d="M127.57,11.82a.54.54,0,0,1,.49.6.52.52,0,0,1-.57.45.53.53,0,0,1,.08-1Z"/><path class="cls-7" d="M126.56,13.17c.22,0,.37.26.37.45a.39.39,0,0,1-.45.37.43.43,0,0,1-.37-.41C126.15,13.32,126.3,13.13,126.56,13.17Z"/><path class="cls-7" d="M125,6.35a.69.69,0,0,1,.64.79.71.71,0,0,1-.75.63.67.67,0,0,1-.67-.75A.71.71,0,0,1,125,6.35Z"/><path class="cls-7" d="M146.3,7.77a.71.71,0,0,1,.64.79.73.73,0,0,1-.75.64.69.69,0,0,1-.68-.75A.71.71,0,0,1,146.3,7.77Z"/><path class="cls-7" d="M150.38,17.29a.69.69,0,0,1,.64.79.71.71,0,0,1-.75.63.67.67,0,0,1-.67-.75A.74.74,0,0,1,150.38,17.29Z"/><path class="cls-7" d="M141.36,14.89c.22,0,.33.23.33.41a.41.41,0,0,1-.37.38.37.37,0,0,1-.34-.41C141,15,141.17,14.85,141.36,14.89Z"/><path class="cls-7" d="M127.79,16.46a.45.45,0,1,1-.07.9.45.45,0,0,1,.07-.9Z"/><path class="cls-7" d="M139.63,6.54a.45.45,0,0,0-.52-.38.47.47,0,0,0-.38.53.46.46,0,0,0,.53.37A.43.43,0,0,0,139.63,6.54Z"/><path class="cls-7" d="M121.76,15.12a.49.49,0,1,0-.41.56A.45.45,0,0,0,121.76,15.12Z"/><path class="cls-7" d="M135.62,18c8.84,0,11.43,7,11.8,8.77a20.65,20.65,0,0,1,3.45-1.17c1.27-.29,3.33-.78,3.82.49.3,1.2,0,1.5-1.08,2a6.18,6.18,0,0,0-2.4,2.14A5.52,5.52,0,0,1,150,31.82a11.94,11.94,0,0,1-2.58,1.61,28.5,28.5,0,0,1-1.76,7c-.6,1.38-1.76,2.77-1.88,4.19a1.76,1.76,0,0,0,.94,1.73,6,6,0,0,1,3.41-4.16,2.42,2.42,0,0,1,3.33,2.13,6.14,6.14,0,0,1-2.36,4.2A6.55,6.55,0,0,1,151,50.74a3,3,0,0,1-.87,3.94C147.54,56,145,53.44,144.43,51a22,22,0,0,1-10-1.31A16.45,16.45,0,0,1,124,34.86a9.49,9.49,0,0,1-2.51-1.54,6.71,6.71,0,0,1-1.27-1.68,7.18,7.18,0,0,0-2.33-1.88c-.41-.22-1.79-.48-1.53-2,.26-.94,1.08-1.09,1.95-1.05a17.4,17.4,0,0,1,5.5,1.2C124.31,24.33,126.78,18.15,135.62,18Z"/><path class="cls-3" d="M146.15,34.86a25.57,25.57,0,0,1-1.27,4.83c-.42,1-1.5,2.59-1.84,3.56a3.54,3.54,0,0,0-.26,2.06,3.23,3.23,0,0,0,1.68,2.14,10.57,10.57,0,0,0-.15,2.62,22.89,22.89,0,0,1-6.29-.3,18.91,18.91,0,0,1-5.92-2.4,15.06,15.06,0,0,1-4.64-4.72,16.94,16.94,0,0,1-2.25-6.33,15,15,0,0,1,8.17-5.13C138.58,30.25,143.9,33.36,146.15,34.86Z"/><path class="cls-8" d="M117.38,27.93c.07-.23.37-.26.49-.26a15.57,15.57,0,0,1,5.8,1.23l1.09.41s0-.22,0-.93a11,11,0,0,1,2.32-5.81c.9-.94,2.25-2.62,6.37-3.41a11.61,11.61,0,0,1,10.38,3.07,9,9,0,0,1,2.69,6.07A25.1,25.1,0,0,1,151,26.54c1-.22,2.62-.52,2.81-.07.07.18.07.33-.19.48a8,8,0,0,0-3.67,3.41,8.63,8.63,0,0,1-3.41,2.29,4.63,4.63,0,0,1-.15,1,22.68,22.68,0,0,0-10.08-3.78,12,12,0,0,0-7.87,2.06,20.92,20.92,0,0,0-3.33,2.77,1.61,1.61,0,0,1,0-.68,10.11,10.11,0,0,1-2.92-1.64c-.9-1-1-1.54-1.58-2.1a8.91,8.91,0,0,0-2.84-1.91C117.3,28.3,117.34,28.08,117.38,27.93Z"/><path class="cls-9" d="M144.31,49.66l-.82,0a17.92,17.92,0,0,1-8-1.83,12.4,12.4,0,0,1-2.92-2.14c-3.22-3-4.38-8.28-4.72-12.06-.23.11-.94.75-1,.75h0c.74,4.79,2.36,8.73,4.68,11.12,3.37,3.49,8.16,4.24,11.61,4.24a9.76,9.76,0,0,0,1.12,0Z"/><path class="cls-9" d="M144.31,49.28c-4.53-.11-8.16-1.87-10.48-5.06s-3.38-9.17-3.49-12.1V32c.08,0,.75-.3,1-.37.27,5.09,1,8.31,2.44,11.38,2.1,4.31,7,6,10.56,6.15Z"/><path class="cls-9" d="M144.28,48.76a10,10,0,0,1-5.36-2c-2.7-2-3.37-5.51-3.82-7.83l-.08-.45a53.78,53.78,0,0,1-.52-7.64h.67a1.88,1.88,0,0,1,.53,0,40.33,40.33,0,0,0,.41,9.1c.71,3.63,1.5,4.91,3.11,6.56a9.37,9.37,0,0,0,4.68,2.06l.45.07v0Z"/><path class="cls-9" d="M144.39,48.27a6.1,6.1,0,0,1-3-1.16,6.49,6.49,0,0,1-2.54-4.65,34.67,34.67,0,0,1-.12-5.17l0-1.8c0-2.09,0-4,0-4.12.26.12.9.19,1.08.3,0,.08-.15,3.6-.18,4.16s-.42,4.12-.34,5.47a8.57,8.57,0,0,0,1.2,4.46,6.47,6.47,0,0,0,1.5,1.54,6.33,6.33,0,0,0,2.36.93Z"/><path class="cls-9" d="M144.39,47.82a3.4,3.4,0,0,1-1.95-1.16,4.3,4.3,0,0,1-1.08-2.4,10.74,10.74,0,0,1,.26-3.67,48,48,0,0,0,1.2-7.68c.22.19.82.41.86.49-.08.33-.15.93-.23,1.57-.11.9-.22,1.87-.33,2.4a29.51,29.51,0,0,1-.94,3.86,7.85,7.85,0,0,0-.41,3.07,3.74,3.74,0,0,0,2.62,3.44v.08Z"/><path class="cls-7" d="M130.15,22.76a.79.79,0,1,0-.86.71A.82.82,0,0,0,130.15,22.76Z"/><path class="cls-7" d="M141.73,22.35a.79.79,0,1,0-.86.71A.79.79,0,0,0,141.73,22.35Z"/><path class="cls-10" d="M129.82,22.42a.3.3,0,0,0-.27-.3.28.28,0,0,0-.29.26.28.28,0,1,0,.56,0Z"/><path class="cls-10" d="M141.43,22.05a.28.28,0,1,0-.3.26A.32.32,0,0,0,141.43,22.05Z"/><path class="cls-7" d="M136.26,27.44A6.38,6.38,0,0,1,131,25.83a.54.54,0,0,0-.83.22.7.7,0,0,0,.34.75,7.47,7.47,0,0,0,9.82-.26.52.52,0,0,0,.07-.79c-.26-.33-.6-.18-.9.08A6.33,6.33,0,0,1,136.26,27.44Z"/><path class="cls-8" d="M146.82,53.14A2.81,2.81,0,0,0,149,54a1.53,1.53,0,0,0,1.31-1.24c.23-.93-.07-2.17-2.13-3.59-.23-.11-.45-.26-.72-.38.12-.15.79-.75.79-.75,2.06-1.91,2.36-3.14,2.17-3.93a1.32,1.32,0,0,0-1-1,2.2,2.2,0,0,0-1.8.56A5.77,5.77,0,0,0,146,45.87a10.9,10.9,0,0,0-.67,3.15C145.29,51,145.7,52.17,146.82,53.14Z"/><path class="cls-3" d="M49.76,29.84h-8.5a.66.66,0,0,0-.64.63v6.22a.66.66,0,0,0,.64.64h8.5a.66.66,0,0,0,.64-.64V30.47A.63.63,0,0,0,49.76,29.84Zm-1.5,6.25H42.72v-.82h5.54Zm0-2.06H42.72v-.82h5.54Zm0-2.06H42.72v-.82h5.54Z"/></g></g></svg>