<?xml version="1.0" encoding="utf-8"?>
<!-- Generator: Adobe Illustrator 23.1.0, SVG Export Plug-In . SVG Version: 6.00 Build 0)  -->
<svg version="1.1" xmlns="http://www.w3.org/2000/svg" xmlns:xlink="http://www.w3.org/1999/xlink" x="0px" y="0px"
	 viewBox="0 0 168 72" style="enable-background:new 0 0 168 72;" xml:space="preserve">
<style type="text/css">
	.st0{display:none;}
	.st1{display:inline;}
	.st2{fill:#F29600;}
	.st3{fill:#FFFFFF;}
	.st4{fill:#E60012;}
	.st5{fill:#1D2088;}
	.st6{fill:#3B0000;}
	.st7{fill:#530000;}
	.st8{fill:url(#SVGID_1_);}
	.st9{fill:url(#SVGID_2_);}
	.st10{fill:#F39800;}
	.st11{fill:url(#SVGID_3_);}
	.st12{fill:url(#SVGID_4_);}
	.st13{fill:none;}
</style>
<g id="レイヤー_1" class="st0">
	<title>logo_Drawer_loto7</title>
	<g id="レイヤー_5" class="st1">
		<g>
			<polygon class="st2" points="136.274,67.349 136.274,22.818 74.145,31.308 74.122,59.427 			"/>
			<polygon class="st3" points="84.645,59.73 84.696,53.593 80.175,53.116 82.791,47.701 78.583,45.34 82.837,43.024 80.581,37.972 
				84.766,39.065 84.712,31.076 88.152,37.125 91.831,30.045 91.923,38.259 98.94,34.802 94.514,42.494 102.099,45.246 
				94.523,48.105 98.878,55.804 91.938,52.448 91.801,60.633 88.133,53.601 			"/>
			<g>
				<polygon class="st4" points="97.638,19.914 95.497,19.367 94.259,21.06 94.173,19.03 92.033,18.485 94.122,17.775 
					94.038,15.745 95.413,17.337 97.502,16.629 96.264,18.322 				"/>
				<polygon class="st2" points="92.409,11.752 91.567,13.998 93.644,15.413 91.048,15.386 90.208,17.633 89.444,15.369 
					86.848,15.343 88.971,13.971 88.208,11.708 90.284,13.124 				"/>
				<polygon class="st5" points="85.174,7.657 84.917,10.358 87.649,11.404 84.758,12.027 84.502,14.728 82.971,12.413 
					80.08,13.035 82.025,10.981 80.495,8.664 83.227,9.712 				"/>
				<polygon class="st4" points="75.977,4.902 76.438,7.919 79.724,8.438 76.722,9.784 77.184,12.801 74.867,10.616 71.866,11.961 
					73.436,9.264 71.12,7.078 74.407,7.597 				"/>
				<polygon class="st2" points="65.044,4 66.345,7.166 70.05,7.001 67.15,9.123 68.451,12.291 65.356,10.437 62.456,12.557 
					63.444,9.288 60.35,7.433 64.055,7.268 				"/>
				<polygon class="st5" points="52.226,5.748 54.995,8.947 59.207,7.499 56.706,10.926 59.475,14.125 55.161,13.044 52.658,16.469 
					52.493,12.375 48.179,11.292 52.391,9.843 				"/>
				<polygon class="st4" points="45.028,26.029 42.102,21.356 36.301,22.504 40.293,18.467 37.366,13.793 42.76,15.971 
					46.752,11.935 46.093,17.318 51.487,19.497 45.687,20.646 				"/>
			</g>
			<g>
				<path class="st5" d="M48.796,60.098l-17.023,1.811v-0.161c2.152-1.863,1.846-4.8,1.842-7.553l-0.026-19.796
					c-0.004-2.753,0.296-5.726-1.861-7.699v-0.162l11.042,1.731v0.15c-1.871,1.258-1.597,4.141-1.594,6.786l0.026,20.06
					c1.228,0.567,2.593,0.769,3.932,0.58c1.907-0.056,3.702-0.919,4.936-2.374L48.796,60.098z"/>
				<path class="st5" d="M62.898,46.518c0.078,1.738-0.195,3.474-0.804,5.104c-0.712,1.615-1.827,2.692-3.065,2.785
					c-1.371,0.103-2.609-1.282-3.32-3.122c-0.783-2.354-1.194-4.815-1.221-7.296c-0.005-4.088,1.329-8.44,4.23-8.068
					C61.896,36.328,62.892,42.392,62.898,46.518z M67.892,45.382c-0.011-8.468-3.662-13.739-9.13-14.631
					c-5.86-0.957-11.385,4.186-11.372,14.14c0.011,9.814,5.124,15.43,11.081,14.765C63.798,59.062,67.903,53.735,67.892,45.382
					L67.892,45.382z"/>
				<path class="st5" d="M78.589,39.59c-0.311-1.198-0.958-1.609-1.719-1.685c-0.369-0.056-0.746-0.022-1.099,0.1l0.018,14.185
					c0.004,2.016,0.026,3.606,0.957,4.934v0.106l-6.157,0.584v-0.112c1.168-1.251,1-3.339,0.997-5.255l-0.019-14.86
					c-0.38-0.16-0.786-0.251-1.198-0.268c-1.067-0.113-2.12,0.312-2.81,1.133l-0.179,0.176l0.983-5.767l0.475,0.18l10.462,1.46
					L78.589,39.59z"/>
				<path class="st5" d="M88.15,46.829c0.053,1.321-0.122,2.64-0.515,3.902c-0.452,1.229-1.159,2.036-1.94,2.088
					c-0.86,0.06-1.63-1.002-2.069-2.391c-0.485-1.785-0.739-3.625-0.754-5.474c-0.004-3.063,0.816-6.358,2.625-6.145
					C87.507,39.043,88.146,43.667,88.15,46.829z M91.474,45.948c-0.008-6.562-2.448-10.535-6.022-11.055
					c-3.732-0.542-7.161,3.426-7.151,10.782c0.009,7.251,3.18,11.508,6.968,11.131C88.743,56.459,91.482,52.417,91.474,45.948z"/>
			</g>
			<g>
				<path class="st6" d="M116.816,25.052l-16.733,0.025l-0.459,3.257l0.718,0.265l3.054,1.132c0,0,0.069-2.309,6.023-2.528
					l12.798-0.5L116.816,25.052z"/>
				<path class="st7" d="M116.06,23.288l1.7,1.764l-8.843,0.454c-7.489,0.378-7.335,3.535-7.335,3.554l-1.959-0.725l0.459-3.257
					L116.06,23.288z"/>
				
					<linearGradient id="SVGID_1_" gradientUnits="userSpaceOnUse" x1="117.0504" y1="722.8562" x2="131.9626" y2="754.8354" gradientTransform="matrix(1 0 0 1 0 -694)">
					<stop  offset="0" style="stop-color:#530000"/>
					<stop  offset="0.25" style="stop-color:#7D0000"/>
					<stop  offset="0.4505" style="stop-color:#A30000"/>
					<stop  offset="0.7" style="stop-color:#7D0000"/>
					<stop  offset="1" style="stop-color:#530000"/>
				</linearGradient>
				<path class="st8" d="M123.221,58.637c-0.133-7.602,1.062-15.168,3.531-22.359c1.362-3.821,3.21-7.451,5.499-10.8l-3.236-2.201
					c-4.344,5.41-6.982,12.424-8.742,19.247c-1.744,7.079-2.588,14.349-2.514,21.639c0.067,1.041,0.209,2.077,0.424,3.098
					l5.063-6.03C123.224,60.367,123.221,59.502,123.221,58.637"/>
				
					<linearGradient id="SVGID_2_" gradientUnits="userSpaceOnUse" x1="114.3233" y1="722.3604" x2="129.1628" y2="754.1836" gradientTransform="matrix(1 0 0 1 0 -694)">
					<stop  offset="0.0055" style="stop-color:#530000"/>
					<stop  offset="0.2" style="stop-color:#7D0000"/>
					<stop  offset="0.4" style="stop-color:#A30000"/>
					<stop  offset="0.65" style="stop-color:#7D0000"/>
					<stop  offset="1" style="stop-color:#530000"/>
				</linearGradient>
				<path class="st9" d="M118.136,65.105c-0.14-7.618,0.707-15.221,2.52-22.621c1.696-6.823,4.521-13.315,8.359-19.206l-2.114-1.101
					c-2.055,2.965-3.875,6.085-5.443,9.334c-1.326,3.132-2.436,6.351-3.32,9.635c-1.775,6.717-2.746,13.621-2.894,20.566
					c0.046,2.104,0.214,4.204,0.502,6.288l2.438-0.739C118.16,66.543,118.136,65.824,118.136,65.105"/>
				<polygon class="st6" points="132.251,15.304 128.495,9.493 126.901,9.413 126.901,22.177 129.016,23.278 132.251,25.479 				"/>
				<path class="st4" d="M126.901,9.413l-27.262,7.486l-0.016,11.435c0,0,1.6-2.733,6.028-3.682h0.002l10.175-1.211
					c0.339,0.25,0.525,0.657,0.493,1.077c-0.063,0.683-0.232,1.352-0.499,1.983c-0.318,0.867-0.776,1.968-1.355,3.39
					c-0.572,1.405-1.252,3.115-2.024,5.206c-1.452,3.848-2.599,7.803-3.43,11.831c-0.772,3.666-1.265,7.099-1.61,10.006
					c-0.337,2.867-0.533,5.248-0.703,6.844c-0.172,1.581-0.203,2.988-0.203,2.988L115.746,68c-0.112-3.279-0.059-6.562,0.159-9.836
					c0.242-3.814,0.721-7.61,1.433-11.365c0.783-4.123,1.904-8.175,3.352-12.114c1.614-4.381,3.696-8.575,6.212-12.509
					L126.901,9.413z"/>
			</g>
		</g>
	</g>
</g>
<g id="レイヤー_2" class="st0">
</g>
<g id="レイヤー_3">
	<g>
		<g>
			<g>
				<polygon class="st10" points="129.422,59.244 129.422,20.517 75.39,27.9 75.369,52.355 				"/>
			</g>
			<g>
				<g>
					<polygon class="st3" points="84.521,52.617 84.564,47.282 80.632,46.868 82.91,42.158 79.248,40.105 82.95,38.089 
						80.988,33.695 84.626,34.647 84.58,27.7 87.571,32.96 90.771,26.801 90.851,33.946 96.953,30.939 93.104,37.63 99.701,40.022 
						93.112,42.508 96.9,49.204 90.864,46.285 90.744,53.403 87.555,47.287 					"/>
				</g>
			</g>
			<g>
				<g>
					<path class="st5" d="M67.703,67.792l-7.551,0.003l-0.003-7.353l7.549-0.003L67.703,67.792z M65.997,62.074h-4.14l0.003,4.082
						L66,66.153L65.997,62.074z"/>
					<path class="st5" d="M69.162,67.883l-0.003-7.672h1.74v2.379l5.375,0.235v1.687l-5.367-0.235l0.003,3.606L69.162,67.883
						L69.162,67.883z"/>
				</g>
				<path class="st5" d="M81.856,65.587v-1.636c0.444-0.131,1.128-0.505,1.425-1.112h-3.012v2.686c0,0.468,0.217,0.682,0.775,0.682
					h4.32v1.679h-4.582c-1.778,0-2.363-0.62-2.363-2.015v-3.031H77.32v-1.673h1.099v-1.168h1.85v1.168h5.258
					C85.5,63.732,83.965,65.303,81.856,65.587z"/>
				<path class="st5" d="M93.978,61.588c0,3.9-1.614,6.362-6.658,6.362v-1.655c3.796,0,4.282-1.812,4.6-4.298h-5.554v-1.697h6.046
					v1.288H93.978z"/>
				<path class="st5" d="M95.654,62.024v-1.751l4.095,0.329v1.796L95.654,62.024z M95.807,67.904v-1.77
					c3.408-0.219,5.349-1.096,5.546-4.563h1.975C103.112,66.073,100.551,67.843,95.807,67.904z"/>
			</g>
			<rect x="93.925" y="59.404" class="st5" width="1.072" height="1.943"/>
			<rect x="92.639" y="59.404" class="st5" width="1.072" height="1.943"/>
			<g>
				<polygon class="st4" points="95.82,17.991 93.96,17.515 92.882,18.988 92.808,17.221 90.947,16.748 92.762,16.131 92.69,14.367 
					93.885,15.751 95.702,15.134 94.625,16.607 				"/>
				<polygon class="st10" points="91.273,10.892 90.541,12.846 92.348,14.075 90.089,14.054 89.359,16.008 88.694,14.038 
					86.438,14.016 88.285,12.822 87.619,10.854 89.426,12.087 				"/>
				<polygon class="st5" points="84.981,7.331 84.757,9.681 87.133,10.59 84.62,11.132 84.396,13.482 83.065,11.466 80.552,12.009 
					82.241,10.223 80.913,8.208 83.289,9.12 				"/>
				<polygon class="st4" points="76.983,4.936 77.384,7.558 80.242,8.01 77.63,9.181 78.031,11.806 76.016,9.905 73.407,11.073 
					74.773,8.729 72.757,6.829 75.618,7.281 				"/>
				<polygon class="st10" points="67.476,4.15 68.606,6.904 71.827,6.762 69.307,8.606 70.437,11.362 67.746,9.748 65.222,11.592 
					66.083,8.751 63.391,7.136 66.615,6.994 				"/>
				<polygon class="st5" points="56.327,5.671 58.735,8.454 62.397,7.195 60.224,10.175 62.629,12.958 58.879,12.017 56.703,14.995 
					56.559,11.434 52.806,10.493 56.471,9.232 				"/>
				<polygon class="st4" points="50.066,23.31 47.522,19.245 42.478,20.245 45.947,16.732 43.403,12.667 48.094,14.562 
					51.566,11.052 50.994,15.733 55.682,17.628 50.638,18.627 				"/>
			</g>
			<g>
				<path class="st5" d="M53.343,52.938l-14.806,1.574v-0.142c1.871-1.62,1.606-4.175,1.601-6.568l-0.021-17.217
					c-0.003-2.395,0.257-4.98-1.62-6.696v-0.142l9.604,1.505v0.131c-1.628,1.093-1.387,3.601-1.385,5.902l0.024,17.447
					c1.067,0.58,2.272,0.583,3.419,0.505c1.705-0.115,3.002-0.652,4.293-2.066L53.343,52.938z"/>
				<path class="st5" d="M65.607,41.129c0,1.542-0.128,3.151-0.7,4.44c-0.62,1.406-1.588,2.342-2.665,2.422
					c-1.192,0.088-2.269-1.115-2.887-2.716c-0.628-1.692-1.059-4.344-1.061-6.346c-0.005-3.555,1.155-7.34,3.678-7.017
					C64.736,32.268,65.602,37.539,65.607,41.129z M69.951,40.14c-0.011-7.364-3.184-11.948-7.939-12.723
					c-5.095-0.831-9.901,3.641-9.89,12.298c0.011,8.535,4.456,13.418,9.636,12.841C66.39,52.037,69.962,47.405,69.951,40.14z"/>
				<path class="st5" d="M79.253,35.104c-0.27-1.042-0.834-1.398-1.494-1.465c-0.337-0.035-0.636-0.035-0.957,0.088l0.016,12.336
					c0.003,1.753,0.021,3.135,0.831,4.29v0.091l-5.354,0.508v-0.096c1.016-1.088,0.869-2.906,0.866-4.571l-0.016-12.924
					c-0.353-0.163-0.666-0.195-1.042-0.233c-0.981-0.099-1.609,0.2-2.443,0.986l-0.155,0.152l0.855-5.015l0.414,0.158l9.099,1.27
					L79.253,35.104z"/>
				<path class="st5" d="M87.569,41.399c0.003,1.181-0.08,2.414-0.449,3.395c-0.393,1.069-1.008,1.772-1.687,1.818
					c-0.748,0.051-1.417-0.871-1.799-2.08c-0.388-1.275-0.655-3.261-0.655-4.761c-0.003-2.665,0.708-5.53,2.283-5.343
					C87.01,34.628,87.566,38.648,87.569,41.399z M90.461,40.632c-0.008-5.707-2.128-9.163-5.236-9.615
					c-3.245-0.47-6.228,2.98-6.22,9.377c0.008,6.306,2.767,10.008,6.06,9.682C88.084,49.773,90.466,46.258,90.461,40.632z"/>
			</g>
			<g>
				<path class="st6" d="M112.5,22.46l-14.552,0.021l-0.398,2.833l0.625,0.23l2.654,0.984c0,0,0.059-2.007,5.239-2.197l11.13-0.436
					L112.5,22.46z"/>
				<g>
					<path class="st7" d="M111.842,20.926l1.478,1.534l-7.69,0.396c-6.514,0.329-6.38,3.074-6.38,3.09l-1.703-0.631l0.398-2.833
						L111.842,20.926z"/>
				</g>
				
					<linearGradient id="SVGID_3_" gradientUnits="userSpaceOnUse" x1="112.7042" y1="48.2328" x2="125.6726" y2="20.4219" gradientTransform="matrix(1 0 0 -1 0 74)">
					<stop  offset="0" style="stop-color:#530000"/>
					<stop  offset="0.25" style="stop-color:#7D0000"/>
					<stop  offset="0.4505" style="stop-color:#A40000"/>
					<stop  offset="0.7" style="stop-color:#7D0000"/>
					<stop  offset="1" style="stop-color:#530000"/>
				</linearGradient>
				<path class="st11" d="M118.07,51.668c-0.021-6.573,0.829-13.242,3.071-19.446c1.198-3.312,2.78-6.493,4.782-9.393l-2.815-1.914
					c-3.777,4.704-6.073,10.804-7.602,16.738c-1.58,6.127-2.187,12.504-2.187,18.818c0,0.898,0.369,2.694,0.369,2.694l4.402-5.244
					C118.073,53.173,118.07,52.419,118.07,51.668"/>
				
					<linearGradient id="SVGID_4_" gradientUnits="userSpaceOnUse" x1="110.3329" y1="48.6635" x2="123.2386" y2="20.9871" gradientTransform="matrix(1 0 0 -1 0 74)">
					<stop  offset="0.0055" style="stop-color:#530000"/>
					<stop  offset="0.2" style="stop-color:#7D0000"/>
					<stop  offset="0.4" style="stop-color:#A40000"/>
					<stop  offset="0.65" style="stop-color:#7D0000"/>
					<stop  offset="1" style="stop-color:#530000"/>
				</linearGradient>
				<path class="st12" d="M113.649,57.292c-0.064-6.605,0.559-13.263,2.192-19.673c1.505-5.915,3.903-11.601,7.271-16.704
					l-1.839-0.957c-1.644,2.598-3.523,5.29-4.734,8.118c-1.165,2.721-2.106,5.525-2.887,8.38c-1.59,5.811-2.342,11.871-2.518,17.888
					c-0.053,1.818,0.436,5.469,0.436,5.469l2.12-0.642C113.67,58.543,113.649,57.918,113.649,57.292"/>
				<polygon class="st6" points="125.923,13.982 122.657,8.927 121.27,8.858 121.27,19.959 123.109,20.918 125.923,22.832 				"/>
				<path class="st4" d="M121.27,8.858l-23.71,6.511l-0.013,9.946c0,0,1.39-2.376,5.242-3.202c0,0,0,0,0.003,0l8.85-1.053
					c0.299,0.235,0.436,0.519,0.428,0.936c-0.005,0.417-0.158,0.965-0.433,1.724c-0.275,0.754-0.676,1.711-1.179,2.948
					c-0.497,1.222-1.091,2.71-1.762,4.528c-1.345,3.512-2.296,7.025-2.983,10.288c-0.671,3.189-1.101,6.175-1.401,8.703
					c-0.294,2.494-0.462,4.565-0.612,5.953c-0.15,1.374-0.176,2.598-0.176,2.598l8.043,1.072c-0.088-2.71-0.067-5.434,0.139-8.554
					c0.206-3.162,0.599-6.495,1.246-9.885c0.666-3.462,1.609-7.011,2.916-10.534c1.35-3.646,3.111-7.311,5.402-10.879L121.27,8.858
					L121.27,8.858z"/>
			</g>
		</g>
		<rect x="-0.04" y="0.05" class="st13" width="168" height="72"/>
	</g>
</g>
</svg>
