<?xml version="1.0" encoding="utf-8"?>
<!-- Generator: Adobe Illustrator 23.1.0, SVG Export Plug-In . SVG Version: 6.00 Build 0)  -->
<svg version="1.1" id="レイヤー_1" xmlns="http://www.w3.org/2000/svg" xmlns:xlink="http://www.w3.org/1999/xlink" x="0px"
	 y="0px" viewBox="0 0 168 72" style="enable-background:new 0 0 168 72;" xml:space="preserve">
<style type="text/css">
	.st0{fill:#CCCCCC;}
	.st1{fill:#004098;}
	.st2{fill:#F39800;}
	.st3{fill:#00A73C;}
	.st4{fill:none;}
</style>
<title>logo-drawer-numbers4-001</title>
<g>
	<g id="レイヤー_3">
		<path class="st0" d="M162.43,21.22h-9.23l-22.5,24.26l-2.35,7l14.72-0.11l-3.18,7.77h7.19l3.09-7.3h4.09l2.83-6.95h-4.25
			L162.43,21.22z M145.54,46.07h-7.18l12.84-13.31L145.54,46.07z"/>
		<path class="st0" d="M20.62,35l-0.09,0.08l-5.71,16.09H9.71l11.12-29h5.54l-2.06,16.22h0.08l5.7-16.19h5.08l-11.12,29h-5.47
			L20.62,35z"/>
		<path class="st0" d="M37.88,22.15h5.34L34.83,44c-0.65,1.87-0.72,2.76,0.82,2.8c1.92,0,2.52-1.76,3-3L47,22.15h5.3l-8,20.94
			c-1.88,4.91-3.38,8.8-10.56,8.69c-4.39-0.07-6.14-2.74-3.85-8.69L37.88,22.15z"/>
		<path class="st0" d="M43.82,51.38l11.12-29h7.55l-3.81,17.14h0.06l9.44-17.11h7.5l-11.13,29h-5.13l9.27-22.71h-0.06L56.14,51.38
			h-4l5-22.71h-0.07l-8.16,22.71H43.82z"/>
		<path class="st0" d="M82.16,26.85c1.91,0,3.63-0.41,2.09,3.66s-2.47,3.12-4.91,3.32L82.16,26.85z M77.5,39.1
			c1.9,0,3.84-0.29,2.31,3.77s-1.56,4-5.39,4L77.5,39.1z M75.22,51.36c7.65,0,8.76-4.73,9.88-7.88c1.2-3.39,1.82-5.72-0.35-7.4V36
			c3.48-1.85,4.1-3.26,5.08-5.81c2.24-5.84-0.47-7.79-4.53-7.79h-6.91l-11.13,29L75.22,51.36z"/>
		<path class="st0" d="M84.09,51.47l11.26-29.13h12.25L105.91,27H99l-2.84,7.22h6.7l-1.78,4.56h-6.7l-3,8.19h7.28l-1.92,4.54
			L84.09,51.47z"/>
		<path class="st0" d="M108.9,40.06h1.77c1.22,0.11,1.2,1.27,0.67,3s-1.57,4.17-2.46,6.71c-0.168,0.54-0.279,1.097-0.33,1.66h6.16
			l-0.16-0.39c-0.134-0.315-0.179-0.661-0.13-1c0.4-1.85,2.28-6.82,3-9.13c0.68-2,0.12-3.32-1.22-3.75v-0.08
			c2.76-1.31,4.18-3.52,5.37-6.61c2.21-5.77,0.88-8-3.51-8h-7.76l-11.13,29h5.35L108.9,40.06z"/>
		<path class="st0" d="M131.65,32.57h5.43c1.33-2.64,2-4.91,1.42-7.09c-0.71-2.86-6.59-4.84-11.57-1.54
			c-5.69,3.79-3.21,11.06-1.87,13c1.47,2.16,3.93,4.59,2.32,8c-0.29,0.787-0.763,1.493-1.38,2.06c-1.26,0.9-4,0.86-2.71-2.28
			c0.496-1.053,0.91-2.143,1.24-3.26h-5.43c-1.16,2.59-3.78,8.19,0.49,9.95s9.73,0.85,11.62-1.67c1.65-2.2,4-6.78,1.16-11.36
			s-4.9-6.69-2.23-10.39C131.25,26.81,135,26.72,131.65,32.57z"/>
		<path class="st1" d="M46.93,58.93l0.34-1.13c1.335,0.196,2.652-0.452,3.31-1.63c0.19-0.34,0.5-1.14,0.5-1.14h-3.22l0.39-1.1h3.23
			L52,52.67h1.28l-0.43,1.26h1.56L54,55h-1.64C52,56.39,51.06,59.1,46.93,58.93z"/>
		<polygon class="st1" points="54.88,54.16 55.25,53.15 57.56,53.15 57.22,54.16 		"/>
		<path class="st1" d="M53.26,58.91l0.46-1.14c2.336,0.322,4.541-1.164,5.12-3.45h1.21C59.5,56.69,57.74,59.21,53.26,58.91z"/>
		<path class="st1" d="M62.29,53h1.17c-0.25,1.73-1.67,5.57-4.55,6l0.48-1.39C60.78,57.1,61.78,55.13,62.29,53z"/>
		<path class="st1" d="M64.65,53h1.16c-0.38,1-1,3.51,0.12,4.77L65.39,59C64.24,58.25,63.6,55.82,64.65,53z"/>
		<polygon class="st1" points="66.49,54.32 66.94,53.01 66.27,53.01 65.81,54.32 		"/>
		<polygon class="st1" points="67.57,54.32 68.03,53.01 67.36,53.01 66.9,54.32 		"/>
		<polygon class="st1" points="76.93,54.32 77.39,53.01 76.71,53.01 76.26,54.32 		"/>
		<polygon class="st1" points="78.02,54.32 78.48,53.01 77.81,53.01 77.35,54.32 		"/>
		<polygon class="st1" points="70.95,56.37 71.34,55.27 66.92,55.27 66.54,56.37 		"/>
		<polygon class="st1" points="96.59,56.37 96.98,55.27 92.57,55.27 92.18,56.37 		"/>
		<path class="st1" d="M71.57,54.07L71.94,53h4.28c-0.366,1.298-0.973,2.516-1.79,3.59c0,0.54,1.38,1.42,1.38,1.42l-0.44,1.19
			c-0.713-0.427-1.316-1.017-1.76-1.72c-1.157,0.993-2.635,1.533-4.16,1.52l0.45-1.24c2.169-0.171,4.012-1.65,4.65-3.73h-3
			L71.57,54.07z"/>
		<path class="st1" d="M18.75,33.4l-0.08,0.08L13,49.62H7.85L19,20.65h5.53l-2.08,16.18h0.09l5.7-16.18h5.08l-11.13,29h-5.48
			L18.75,33.4z"/>
		<path class="st1" d="M36,20.59h5.34L33,42.43c-0.65,1.87-0.72,2.76,0.82,2.8c1.92,0,2.52-1.76,3-3l8.32-21.65h5.33l-8,21
			c-1.88,4.9-3.39,8.8-10.56,8.68c-4.4-0.06-6.14-2.74-3.86-8.68L36,20.59z"/>
		<path class="st1" d="M42,49.83l11.12-29h7.55L56.82,38h0.07l9.42-17.11h7.5l-11.12,29h-5.14l9.27-22.71l0,0L54.28,49.83h-4
			l5-22.71h-0.06l-8.17,22.71H42z"/>
		<path class="st1" d="M80.3,25.29c1.9,0,3.63-0.41,2.1,3.66s-2.47,3.13-4.91,3.32L80.3,25.29z M75.64,37.54
			c1.91,0,3.84-0.3,2.3,3.77s-1.56,4-5.38,4L75.64,37.54z M73.36,49.8c7.66,0.4,8.76-4.72,9.88-7.87c1.21-3.39,1.83-5.72-0.35-7.41
			v-0.08C86.4,32.6,87,31.18,88,28.63c2.24-5.83-0.48-7.78-4.54-7.78h-6.92l-11.14,29L73.36,49.8z"/>
		<path class="st1" d="M82.23,49.91l11.26-29.13h12.25l-1.69,4.62h-6.92l-2.83,7.23h6.7l-1.79,4.55h-6.69l-3,8.2h7.27l-1.92,4.53
			H82.23z"/>
		<path class="st1" d="M107,38.5h1.78c1.21,0.11,1.19,1.27,0.66,3s-1.57,4.16-2.45,6.71c-0.175,0.535-0.289,1.089-0.34,1.65h6.16
			l-0.16-0.38c-0.133-0.316-0.178-0.661-0.13-1c0.4-1.85,2.29-6.82,3-9.13c0.68-2,0.12-3.33-1.21-3.75v-0.08
			c2.76-1.31,4.18-3.52,5.37-6.62c2.21-5.77,0.88-8-3.51-8h-7.82l-11.13,29h5.34L107,38.5z"/>
		<path class="st1" d="M129.79,31h5.43c1.33-2.64,2-4.91,1.42-7.09c-0.71-2.86-6.59-4.84-11.57-1.54c-5.7,3.79-3.21,11.06-1.87,13
			c1.47,2.16,3.93,4.59,2.32,8c-0.296,0.766-0.769,1.451-1.38,2c-1.26,0.9-4,0.86-2.72-2.28c0.497-1.054,0.915-2.144,1.25-3.26
			h-5.43c-1.16,2.6-3.78,8.18,0.49,10s9.73,0.85,11.61-1.68c1.65-2.2,4-6.77,1.16-11.35s-4.9-6.69-2.23-10.39
			C129.39,25.25,133.13,25.16,129.79,31z"/>
		<polygon class="st2" points="7.23,48.45 108.41,29.82 99.59,40.36 110.49,30.85 110.66,35.87 112.57,31.03 117.75,37.43 
			114.64,30.33 119.48,32.58 115.68,28.61 137.13,23.59 136.99,22.86 115.68,26.01 119.83,20.82 113.78,25.32 113.78,19.09 
			111.52,25.32 106.86,19.26 109.8,26.18 97.69,19.78 108.59,27.74 7.06,47.63 		"/>
		<path class="st3" d="M160.31,19.36h-9.23l-22.5,24.26l-2.35,7L141,50.45l-3.18,7.77H145l3.09-7.3h4.09L155,44h-4.24L160.31,19.36z
			 M143.42,44.21h-7.18l12.84-13.31L143.42,44.21z"/>
		<path class="st1" d="M81.77,54.1l0.4-1.12h5.08c-0.62,3-2,6.05-6.58,6.11L81,57.94c2.42-0.29,4-1.3,4.67-3.83h-3.9V54.1z"/>
		<path class="st1" d="M91.9,55.08h-1.14l0.36-1h-1.26l-0.36,1h-2.16l-0.34,1h1.64c-0.646,0.832-1.517,1.46-2.51,1.81l-0.28,1
			c1.152-0.23,2.202-0.818,3-1.68l-0.7,1.55h1.23l1.06-2.7h1.16L91.9,55.08z"/>
		<rect class="st4" width="168" height="72"/>
	</g>
</g>
</svg>
