<?xml version="1.0" encoding="utf-8"?>
<!-- Generator: Adobe Illustrator 23.1.0, SVG Export Plug-In . SVG Version: 6.00 Build 0)  -->
<svg version="1.1" xmlns="http://www.w3.org/2000/svg" xmlns:xlink="http://www.w3.org/1999/xlink" x="0px" y="0px"
	 viewBox="0 0 464 260" style="enable-background:new 0 0 464 260;" xml:space="preserve">
<style type="text/css">
	.st0{display:none;}
	.st1{display:inline;}
	.st2{fill:#F7B400;}
	.st3{fill:#FFFFFF;}
	.st4{fill:#1E3C94;}
	.st5{fill:url(#SVGID_1_);}
	.st6{fill:#C5006F;}
	.st7{fill:url(#SVGID_2_);}
	.st8{fill:url(#SVGID_3_);}
	.st9{fill:#7E0043;}
	.st10{fill:#E3007F;}
	.st11{fill:url(#SVGID_4_);}
	.st12{fill:#F8B500;}
	.st13{fill:#1F3C95;}
	.st14{fill:url(#SVGID_5_);}
	.st15{fill:#C6006F;}
	.st16{fill:url(#SVGID_6_);}
	.st17{fill:url(#SVGID_7_);}
	.st18{fill:#E4007F;}
	.st19{fill:url(#SVGID_8_);}
	.st20{fill:none;}
</style>
<g id="レイヤー_1" class="st0">
	<title>logo-loto6notxt-001</title>
	<g class="st1">
		<polygon class="st2" points="392,200.626 391.96,64.208 201.751,90.203 201.677,176.291 		"/>
		<polygon class="st3" points="233.89,177.217 234.046,158.43 220.209,156.97 228.219,140.388 215.337,133.162 228.359,126.07 
			221.454,110.604 234.262,113.951 234.098,89.492 244.629,108.012 255.893,86.335 256.174,111.483 277.658,100.898 
			264.106,124.447 287.327,132.876 264.133,141.625 277.469,165.199 256.22,154.922 255.799,179.983 244.568,158.454 		"/>
		<g>
			<path class="st4" d="M124.12,178.39L72,183.866v-0.493c6.6-5.7,5.669-14.687,5.669-23.112v-60.6
				c0-8.425,0.927-17.527-5.669-23.575v-0.495l33.8,5.344v0.456c-5.733,3.845-4.9,12.671-4.9,20.769v61.412
				c3.747,2.043,7.992,2.063,12.033,1.793c5.84-0.167,11.335-2.802,15.121-7.251L124.12,178.39z"/>
			<path class="st4" d="M167.342,136.871c0,5.43-0.466,11.093-2.482,15.623c-2.186,4.942-5.6,8.236-9.4,8.512
				c-4.2,0.31-7.981-3.935-10.15-9.572c-2.386-7.209-3.636-14.745-3.707-22.338c0-12.512,4.1-25.831,12.984-24.68
				C164.316,105.675,167.342,124.24,167.342,136.871z M182.632,133.415c0-25.926-11.152-42.075-27.885-44.828
				c-17.934-2.95-34.87,12.773-34.87,43.243c0,30.044,15.624,47.255,33.862,45.244C170.046,175.277,182.631,158.989,182.632,133.415
				L182.632,133.415z"/>
			<path class="st4" d="M215.4,115.73c-0.947-3.67-2.927-4.932-5.257-5.169c-1.13-0.175-2.285-0.072-3.366,0.3v43.423
				c0,6.171,0.064,11.039,2.908,15.108v0.321l-18.854,1.764v-0.341c3.583-3.825,3.077-10.22,3.077-16.085v-45.482
				c-1.164-0.493-2.406-0.773-3.669-0.826c-3.449-0.352-5.66,0.7-8.607,3.459l-0.547,0.538l3.032-17.653l1.455,0.553l32.019,4.511
				L215.4,115.73z"/>
			<path class="st4" d="M244.636,137.925c0,4.158-0.3,8.495-1.59,11.946c-1.39,3.758-3.557,6.226-5.948,6.384
				c-2.631,0.178-4.986-3.073-6.324-7.328c-1.478-5.467-2.245-11.101-2.284-16.764c0-9.376,2.522-19.457,8.055-18.8
				C242.7,114.091,244.636,128.246,244.636,137.925z M254.814,135.239c0-20.081-7.45-32.258-18.39-33.862
				c-11.417-1.674-21.931,10.461-21.931,32.978c0,22.2,9.689,35.242,21.282,34.1C246.414,167.411,254.814,155.048,254.814,135.239z"
				/>
		</g>
		<g>
			
				<linearGradient id="SVGID_1_" gradientUnits="userSpaceOnUse" x1="5872.9546" y1="-4363.4897" x2="5872.9546" y2="-4250.6909" gradientTransform="matrix(0.455 0 0 -0.455 -2345.8159 -1817.6111)">
				<stop  offset="0.056" style="stop-color:#90004F"/>
				<stop  offset="0.23" style="stop-color:#E3007F"/>
				<stop  offset="0.444" style="stop-color:#90004F"/>
				<stop  offset="1" style="stop-color:#690035"/>
			</linearGradient>
			<path class="st5" d="M328.036,142.058c0-8.369,4.457-15.452,10.6-17.839c-2.459-1.579-5.318-2.424-8.241-2.435
				c-9.729,0-17.618,9.385-17.618,20.962s7.889,20.962,17.618,20.962c3.483-0.022,6.857-1.211,9.585-3.377
				C333.151,158.515,328.036,151.027,328.036,142.058z"/>
			<polygon class="st6" points="345.856,66.493 330.555,56.398 333.045,54.817 344.884,61.465 362.004,72.668 			"/>
			
				<linearGradient id="SVGID_2_" gradientUnits="userSpaceOnUse" x1="5068.4497" y1="-4624.208" x2="5229.8696" y2="-5030.6733" gradientTransform="matrix(0.317 0 0 -0.317 -1270.442 -1365.6801)">
				<stop  offset="0.056" style="stop-color:#90004F"/>
				<stop  offset="0.23" style="stop-color:#E3007F"/>
				<stop  offset="0.444" style="stop-color:#90004F"/>
				<stop  offset="1" style="stop-color:#690035"/>
			</linearGradient>
			<path class="st7" d="M344.126,101.364c0,0,9.448,1.624,14.171,3.544S379.7,115.684,379.7,142.55
				c0,18.749-9.364,28.853-13.581,32.182c-5.609,4.43-17.232,8.439-26.677,10.8c0,0,28.3-9.617,28.3-41.063
				S348.409,103.58,344.126,101.364z"/>
			
				<linearGradient id="SVGID_3_" gradientUnits="userSpaceOnUse" x1="4769.3643" y1="-4588.4263" x2="4681.8774" y2="-4339.2222" gradientTransform="matrix(0.455 0 0 -0.455 -1829.356 -1903.233)">
				<stop  offset="0.056" style="stop-color:#90004F"/>
				<stop  offset="0.23" style="stop-color:#E3007F"/>
				<stop  offset="0.444" style="stop-color:#90004F"/>
				<stop  offset="1" style="stop-color:#690035"/>
			</linearGradient>
			<path class="st8" d="M329.313,162.43c-7.7,0-13.936-8.812-13.936-19.683s6.24-19.681,13.936-19.681
				c3.717,0,7.093,2.058,9.592,5.407c-2.811-5.314-7.4-8.1-12.347-8.1c-8.967,0-16.516,9.664-16.516,22.671
				c0,12.392,7.549,22.441,16.516,22.441c6.034,0,11.694-4.581,14.095-11.3C338.127,159.173,333.99,162.43,329.313,162.43z"/>
			<polygon class="st9" points="323.488,103.912 324.161,104.445 344.884,101.901 361.46,74.852 362.096,72.668 351.533,66.93 
				345.856,66.493 			"/>
			<path class="st10" d="M332.194,102.012c4.596-0.343,9.202,0.524,13.36,2.513c4.202,2.049,7.882,5.029,10.76,8.714
				c3.072,4.027,5.397,8.573,6.863,13.421c1.727,5.237,2.626,10.712,2.666,16.226c-0.026,6.288-1.191,12.519-3.436,18.392
				c-1.904,5.156-4.872,9.853-8.711,13.786c-3.556,3.61-7.904,6.342-12.7,7.98c-4.847,1.751-10.056,2.261-15.151,1.482
				c-9.58-1.104-18.302-6.048-24.171-13.7c-2.922-3.797-5.148-8.082-6.575-12.656c-1.556-4.993-2.305-10.203-2.218-15.432
				c0.044-3.307,0.371-6.604,0.977-9.855c0.606-3.267,1.43-6.489,2.465-9.646c1.036-3.164,2.232-6.273,3.583-9.316
				c1.348-3.04,2.811-5.991,4.33-8.814L330.555,56.4l15.3,10.095l-22.009,37.34l0.266,0.3c0.587-0.316,1.194-0.592,1.818-0.826
				c0.65-0.246,1.313-0.455,1.986-0.626c0.683-0.173,1.39-0.315,2.1-0.424S331.465,102.061,332.194,102.012z M325.845,165.285
				c2.403,0.193,4.809-0.329,6.916-1.5c2.137-1.224,3.971-2.915,5.364-4.946c1.535-2.208,2.703-4.65,3.459-7.23
				c0.805-2.673,1.224-5.448,1.244-8.24c0.008-2.833-0.381-5.653-1.157-8.377c-0.729-2.63-1.867-5.13-3.371-7.408
				c-1.361-2.091-3.163-3.86-5.28-5.18c-2.062-1.259-4.446-1.893-6.861-1.825c-2.388,0.065-4.71,0.8-6.7,2.123
				c-1.992,1.347-3.682,3.093-4.963,5.127c-1.381,2.158-2.433,4.509-3.122,6.976c-1.454,5.061-1.5,10.424-0.132,15.509
				c0.65,2.505,1.664,4.902,3.008,7.114c1.257,2.106,2.923,3.939,4.9,5.39c1.962,1.426,4.282,2.28,6.7,2.466"/>
			
				<linearGradient id="SVGID_4_" gradientUnits="userSpaceOnUse" x1="5013.7773" y1="-4609.3828" x2="5198.5347" y2="-5070.3027" gradientTransform="matrix(0.317 0 0 -0.317 -1270.442 -1365.6801)">
				<stop  offset="0.056" style="stop-color:#90004F"/>
				<stop  offset="0.23" style="stop-color:#E3007F"/>
				<stop  offset="0.444" style="stop-color:#90004F"/>
				<stop  offset="1" style="stop-color:#690035"/>
			</linearGradient>
			<path class="st11" d="M324.721,103.768c3.411-2.651,8.876-3.436,12.467-3.436c3.711-0.055,7.395,0.647,10.825,2.064
				c10.385,4.453,22.275,16.056,22.275,39.959c0,38.385-27.833,43.794-36.813,43.794c-5.89,0.063-11.706-1.313-16.944-4.008
				c6.83,2.272,9.286,2.578,15.574,2.578c7.962,0,33.526-7.55,33.526-42.759c0-12.585-5.019-24.013-10.537-30.013
				c-6.693-7.28-13.971-10.042-21.35-9.976C330.641,101.901,327.56,102.514,324.721,103.768z"/>
		</g>
	</g>
</g>
<g id="レイヤー_2" class="st0">
</g>
<g id="レイヤー_3">
	<g>
		<g>
			<g>
				<polygon class="st12" points="392.193,185.321 392.155,48.826 201.838,74.834 201.763,160.97 				"/>
			</g>
			<g>
				<g>
					<polygon class="st3" points="233.992,161.902 234.152,143.105 220.306,141.636 228.316,125.051 215.43,117.822 
						228.457,110.725 221.548,95.25 234.359,98.591 234.199,74.118 244.732,92.652 256.008,70.965 256.291,96.125 277.78,85.536 
						264.226,109.096 287.457,117.53 264.254,126.284 277.592,149.872 256.338,139.594 255.914,164.669 244.675,143.123 					"/>
				</g>
			</g>
			<g>
				<g>
					<path class="st13" d="M164.29,216.581l-26.582,0.009l-0.009-25.895l26.582-0.009L164.29,216.581z M158.285,196.456h-14.58
						l0.009,14.373l14.58-0.009L158.285,196.456z"/>
					<path class="st13" d="M169.43,216.91l-0.019-26.996l6.128-0.009v8.377l18.929,0.828l0.009,5.939l-18.901-0.828l0.009,12.688
						H169.43z"/>
				</g>
				<path class="st13" d="M215.326,196.757l-14.138-0.612v-5.723l14.138,0.574V196.757z M206.836,210.557
					c11.484-0.009,15.268-2.777,15.268-13.714v-3.144h6.156v3.567c0.009,13.799-6.147,19.588-21.179,19.597h-5.299l-0.009-6.316
					L206.836,210.557z M215.326,205.662l-14.138-0.584v-5.761l14.138,0.612V205.662z"/>
				<path class="st13" d="M234.463,211.187h1.478c9.488,0,10.806-1.421,11.512-6.777c0.461-3.577,0.922-8.594,0.922-8.594h6.156
					c0,0-0.951,7.606-1.261,9.733c-1.073,7.577-4.368,10.966-14.75,11.22h-4.066L234.463,211.187z M236.646,195.882l1.017,10.778
					h-5.667l-1.017-10.778H236.646z M244.713,195.882l1.054,10.778h-5.695l-0.988-10.778H244.713z"/>
				<path class="st13" d="M285.235,190.103c0.348,19.927-5.375,26.798-21.856,26.798h-3.294v-5.911h3.172
					c11.399-0.009,15.399-4.104,15.578-15.098l-12.632,0.009l-2.739,7.888h-6.589l4.923-13.677L285.235,190.103z"/>
				<path class="st13" d="M316.015,216.882c-5.601-1.167-9.488-4.744-11.277-7.944c-3.229,4.217-8.406,7.21-16.755,8.01
					l-0.009-6.034c10.072-0.781,15.371-6.909,16.039-14.58l-15.305,0.009v-5.911l22.478-0.009c-0.179,5.516-1.29,10.316-2.551,13.31
					c1.045,3.172,4.443,5.572,7.37,6.561v6.589H316.015z"/>
			</g>
			<g>
				<path class="st13" d="M124.154,163.069l-52.147,5.478v-0.489c6.598-5.704,5.676-14.693,5.676-23.127V84.293
					c0-8.434,0.932-17.536-5.676-23.588v-0.499l33.811,5.346v0.452c-5.732,3.85-4.904,12.679-4.904,20.783v61.447
					c3.746,2.043,7.991,2.061,12.039,1.798c6.015-0.405,10.571-2.287,15.126-7.257L124.154,163.069z"/>
				<path class="st13" d="M167.406,121.53c0,5.431-0.471,11.098-2.485,15.635c-2.184,4.942-5.601,8.236-9.403,8.519
					c-4.198,0.311-7.982-3.935-10.156-9.573c-2.203-5.968-3.709-15.296-3.709-22.346c0-12.519,4.104-25.848,12.99-24.699
					C164.375,90.318,167.406,108.889,167.406,121.53z M182.702,118.076c0-25.942-11.154-42.103-27.9-44.852
					c-17.941-2.956-34.893,12.783-34.893,43.271c0,30.064,15.635,47.28,33.886,45.266
					C170.107,159.953,182.702,143.66,182.702,118.076z"/>
				<path class="st13" d="M215.496,100.38c-0.951-3.671-2.927-4.932-5.262-5.168c-1.186-0.122-2.24-0.122-3.37,0.301v43.449
					c0,6.175,0.066,11.041,2.909,15.117v0.32l-18.863,1.77v-0.339c3.586-3.831,3.078-10.222,3.078-16.096v-45.52
					c-1.242-0.574-2.344-0.687-3.671-0.828c-3.454-0.348-5.667,0.697-8.613,3.464l-0.546,0.537l3.031-17.658l1.459,0.555
					l32.041,4.518L215.496,100.38z"/>
				<path class="st13" d="M244.741,122.585c0,4.16-0.301,8.5-1.591,11.954c-1.393,3.756-3.558,6.231-5.949,6.391
					c-2.636,0.179-4.989-3.078-6.325-7.333c-1.355-4.49-2.287-11.493-2.287-16.774c0-9.385,2.523-19.466,8.057-18.807
					C242.802,98.733,244.741,112.899,244.741,122.585z M254.926,119.893c0-20.096-7.455-32.276-18.402-33.886
					c-11.427-1.675-21.941,10.467-21.941,33.001c0,22.214,9.695,35.26,21.292,34.121
					C246.52,152.084,254.926,139.716,254.926,119.893z"/>
			</g>
			<g>
				
					<linearGradient id="SVGID_5_" gradientUnits="userSpaceOnUse" x1="4805.8179" y1="-3416.9043" x2="4805.8179" y2="-3304.041" gradientTransform="matrix(0.4554 0 0 -0.4554 -1862.0308 -1401.8756)">
					<stop  offset="0.0562" style="stop-color:#91004F"/>
					<stop  offset="0.2303" style="stop-color:#E4007F"/>
					<stop  offset="0.4438" style="stop-color:#91004F"/>
					<stop  offset="1" style="stop-color:#6A0035"/>
				</linearGradient>
				<path class="st14" d="M328.195,126.717c0-8.377,4.462-15.465,10.608-17.847c-2.457-1.553-5.262-2.438-8.246-2.438
					c-9.733,0-17.63,9.394-17.63,20.972c0,11.587,7.897,20.972,17.63,20.972c3.539,0,6.834-1.242,9.592-3.379
					C333.306,143.189,328.195,135.697,328.195,126.717z"/>
				<polygon class="st15" points="346.023,51.113 330.708,41.013 333.203,39.432 345.044,46.078 362.175,57.288 				"/>
				
					<linearGradient id="SVGID_6_" gradientUnits="userSpaceOnUse" x1="3156.5134" y1="-2928.6887" x2="3318.0249" y2="-3335.3855" gradientTransform="matrix(0.3166 0 0 -0.3166 -663.763 -844.4516)">
					<stop  offset="0.0562" style="stop-color:#91004F"/>
					<stop  offset="0.2303" style="stop-color:#E4007F"/>
					<stop  offset="0.4438" style="stop-color:#91004F"/>
					<stop  offset="1" style="stop-color:#6A0035"/>
				</linearGradient>
				<path class="st16" d="M344.291,86.007c0,0,9.45,1.628,14.176,3.549c4.725,1.92,21.414,10.787,21.414,37.661
					c0,18.76-9.366,28.869-13.592,32.201c-5.61,4.433-17.244,8.443-26.695,10.806c0,0,28.323-9.62,28.323-41.087
					C367.927,97.669,348.574,88.219,344.291,86.007z"/>
				
					<linearGradient id="SVGID_7_" gradientUnits="userSpaceOnUse" x1="3704.8469" y1="-3642.5894" x2="3617.3103" y2="-3393.2422" gradientTransform="matrix(0.4554 0 0 -0.4554 -1345.5713 -1487.4972)">
					<stop  offset="0.0562" style="stop-color:#91004F"/>
					<stop  offset="0.2303" style="stop-color:#E4007F"/>
					<stop  offset="0.4438" style="stop-color:#91004F"/>
					<stop  offset="1" style="stop-color:#6A0035"/>
				</linearGradient>
				<path class="st17" d="M329.466,147.105c-7.7,0-13.94-8.82-13.94-19.692c0-10.881,6.241-19.692,13.94-19.692
					c3.718,0,7.097,2.061,9.601,5.412c-2.814-5.318-7.408-8.104-12.359-8.104c-8.97,0-16.529,9.667-16.529,22.685
					c0,12.397,7.549,22.45,16.529,22.45c6.034,0,11.7-4.584,14.1-11.305C338.286,143.848,334.144,147.105,329.466,147.105z"/>
				<polygon class="st9" points="323.639,88.548 324.317,89.085 345.044,86.543 361.629,59.472 362.269,57.288 351.699,51.546 
					346.023,51.113 				"/>
				<g>
					<path class="st18" d="M332.356,86.647c4.866-0.329,9.356,0.593,13.366,2.513c4.095,1.958,7.803,4.961,10.768,8.716
						c3.012,3.812,5.252,8.387,6.871,13.432c1.628,5.083,2.683,10.599,2.664,16.237c-0.019,6.73-1.365,12.933-3.436,18.402
						c-2.061,5.422-5.036,10.081-8.716,13.79c-3.633,3.652-7.935,6.363-12.707,7.982c-4.678,1.591-8.603,2.25-15.164,1.478
						c-5.036-0.602-9.676-2.184-13.771-4.565c-4.019-2.334-7.53-5.431-10.411-9.149c-2.843-3.662-5.073-7.926-6.58-12.66
						c-1.497-4.697-2.278-9.883-2.221-15.437c0.028-3.313,0.386-6.608,0.979-9.865c0.593-3.266,1.44-6.485,2.466-9.648
						c1.035-3.172,2.25-6.297,3.586-9.319c1.346-3.04,2.814-5.996,4.33-8.82l26.328-48.73l15.305,10.1l-22.026,37.359l0.264,0.292
						c0.574-0.311,1.186-0.593,1.817-0.828c0.64-0.245,1.299-0.452,1.986-0.631c0.687-0.169,1.393-0.311,2.099-0.424
						C330.897,86.778,331.621,86.703,332.356,86.647z M326.002,149.957c2.541,0.198,4.866-0.367,6.918-1.497
						c2.08-1.139,3.878-2.861,5.365-4.951c1.497-2.108,2.664-4.584,3.464-7.238c0.8-2.654,1.233-5.478,1.242-8.246
						c0.009-2.805-0.386-5.676-1.158-8.377c-0.772-2.701-1.901-5.243-3.37-7.408c-1.45-2.156-3.229-3.953-5.281-5.186
						c-2.033-1.224-4.339-1.892-6.862-1.826c-2.504,0.066-4.744,0.838-6.702,2.127c-1.939,1.271-3.615,3.04-4.97,5.13
						c-1.355,2.071-2.4,4.462-3.125,6.984c-0.715,2.513-1.101,5.158-1.13,7.775c-0.019,2.57,0.32,5.215,0.988,7.747
						c0.678,2.541,1.685,4.979,3.012,7.116c1.327,2.156,2.974,4.019,4.904,5.394C321.239,148.875,323.489,149.769,326.002,149.957"
						/>
				</g>
				
					<linearGradient id="SVGID_8_" gradientUnits="userSpaceOnUse" x1="3101.7639" y1="-2913.8638" x2="3286.6265" y2="-3375.0471" gradientTransform="matrix(0.3166 0 0 -0.3166 -663.763 -844.4516)">
					<stop  offset="0.0562" style="stop-color:#91004F"/>
					<stop  offset="0.2303" style="stop-color:#E4007F"/>
					<stop  offset="0.4438" style="stop-color:#91004F"/>
					<stop  offset="1" style="stop-color:#6A0035"/>
				</linearGradient>
				<path class="st19" d="M324.872,88.407c3.417-2.654,8.886-3.436,12.472-3.436c2.749,0,6.692,0.292,10.834,2.061
					c10.392,4.452,22.289,16.068,22.289,39.986c0,38.404-27.852,43.817-36.832,43.817c-8.989,0-15.38-3.116-16.952-4.01
					c6.834,2.268,9.29,2.579,15.578,2.579c7.963,0,33.547-7.558,33.547-42.781c0-12.594-5.026-24.031-10.542-30.027
					c-6.692-7.286-13.978-10.043-21.358-9.978C329.965,86.647,327.207,87.334,324.872,88.407z"/>
			</g>
		</g>
		<rect x="0" y="-0.01" class="st20" width="464" height="260"/>
	</g>
</g>
</svg>
