<?xml version="1.0" encoding="utf-8"?>
<!-- Generator: Adobe Illustrator 19.2.1, SVG Export Plug-In . SVG Version: 6.00 Build 0)  -->
<svg version="1.1" id="レイヤー_1" xmlns="http://www.w3.org/2000/svg" xmlns:xlink="http://www.w3.org/1999/xlink" x="0px"
	 y="0px" viewBox="0 0 168 72" style="enable-background:new 0 0 168 72;" xml:space="preserve">
<style type="text/css">
	.st0{fill:#D61138;}
</style>
<title>logo_Drawer_kuji</title>
<g>
	<path class="st0" d="M59.911,36.195c2.705-0.001,4.899,2.192,4.9,4.897s-2.192,4.899-4.897,4.9s-4.899-2.192-4.9-4.897
		c0-0.001,0-0.002,0-0.003c-0.007-2.697,2.174-4.89,4.871-4.897C59.894,36.195,59.902,36.195,59.911,36.195z"/>
	<path class="st0" d="M66.672,48.032h0.077v5.919H30.306c-0.026,0-0.064,0.013-0.102,0.013c-1.633-0.013-2.953-1.336-2.962-2.969
		c0.005-1.609,1.297-2.917,2.905-2.943v-0.019h13.012v-4.099c-0.632,0-5.293,0-5.293-0.006c-0.032,0.006-0.066,0.002-0.096-0.013
		h-0.057c-0.79,0.004-1.549-0.309-2.107-0.868c-0.552-0.551-0.861-1.301-0.856-2.081c0.009-1.608,1.297-2.916,2.905-2.95v-0.006
		h5.503v-4.137h-6.863c-0.036,0.005-0.072,0.008-0.109,0.006c-1.636-0.002-2.961-1.331-2.958-2.967
		c0.002-1.636,1.331-2.961,2.967-2.958c0.003,0,0.007,0,0.01,0c0.026-0.001,0.052-0.005,0.077-0.013h23.617v5.931h-10.12v4.137
		h4.948v0.236l-0.019,0.019c-0.563,0.831-0.826,1.828-0.747,2.828c-0.063,0.954,0.171,1.904,0.67,2.72l0.089,0.121h-4.942v4.099
		L66.672,48.032z"/>
	<path class="st0" d="M143,36.099c0.13,5.01-1.964,9.821-5.721,13.139c-3.212,2.82-7.333,4.388-11.607,4.418
		c-4.811,0.032-9.404-2.005-12.61-5.593c-2.931-3.218-4.616-7.489-4.29-10.873c0-0.14,0.441-13.676,0.441-13.944
		c-0.036-0.934,0.296-1.844,0.926-2.535c1.453-1.063,3.439-1.016,4.84,0.115c0.57,0.728,0.813,1.66,0.67,2.573
		c-0.013,0.191-0.249,12.118-0.249,12.22c-0.263,3.023,0.759,6.017,2.816,8.249c2.013,2.021,4.721,3.199,7.572,3.294
		c2.806,0.041,5.5-1.099,7.425-3.141c2.029-2.143,3.145-4.991,3.109-7.942c-0.036-0.811,0.259-1.601,0.817-2.19
		c0.635-0.704,1.524-1.124,2.471-1.168c0.876-0.031,1.725,0.304,2.343,0.926C142.62,34.289,142.998,35.174,143,36.099z"/>
	<path class="st0" d="M80.501,36.693l21.242,9.973c0.638,0.211,0.715,0.236,0.785,0.268l0.077,0.038l0.064,0.026l-0.006,0.019
		c1.085,0.591,1.76,1.727,1.762,2.962c-0.013,1.865-1.525,3.372-3.39,3.377c-0.318,0.001-0.635-0.046-0.938-0.14l-0.013,0.019
		l-0.064-0.038L100,53.184v0.013c-0.252-0.085-0.495-0.199-0.721-0.338h0.013c-1.053-0.479-25.679-11.952-26.547-12.437
		c-0.229-0.108-0.437-0.258-0.613-0.441c-0.99-0.668-1.58-1.787-1.571-2.982c-0.001-1.27,0.641-2.454,1.705-3.148l-0.019-0.032
		l0.083-0.045l0.185-0.096c0.025-0.013,0.057-0.019,0.083-0.032l0.032-0.026l27.658-14.155l0.006-0.013h0.013l0.057-0.019h-0.013
		c0.433-0.187,0.902-0.274,1.373-0.255c1.866,0.001,3.378,1.514,3.378,3.38c0,0.003,0,0.007,0,0.01c0,1.347-0.766,2.381-2.413,3.243
		L80.501,36.693z"/>
	<path class="st0" d="M123.374,27.148c-1.835-1.834-1.837-4.808-0.003-6.643s4.808-1.837,6.643-0.003
		c0.886,0.874,1.383,2.069,1.379,3.314c0.007,2.588-2.086,4.692-4.674,4.699c-0.01,0-0.021,0-0.031,0
		C125.445,28.519,124.252,28.027,123.374,27.148z"/>
	<path class="st0" d="M133.768,27.148c-1.834-1.84-1.83-4.819,0.01-6.653c0.879-0.876,2.069-1.37,3.31-1.373
		c1.248-0.001,2.445,0.495,3.326,1.379c0.886,0.874,1.383,2.069,1.379,3.314c-0.005,2.601-2.118,4.704-4.719,4.699
		C135.836,28.511,134.647,28.021,133.768,27.148L133.768,27.148z"/>
	<path class="st0" d="M68.958,25.833v7.54h-6.614v-7.489H31.621v7.527H25v-7.617h0.013c-0.087-1.559,0.557-3.07,1.743-4.086
		c1.355-0.914,2.964-1.376,4.597-1.322h10.943c1.982-2.613,5.706-3.124,8.319-1.143c0.431,0.327,0.816,0.711,1.143,1.143h10.911
		C66.832,20.406,68.952,22.232,68.958,25.833z"/>
</g>
</svg>
