<?xml version="1.0" encoding="utf-8"?>
<!-- Generator: Adobe Illustrator 23.0.6, SVG Export Plug-In . SVG Version: 6.00 Build 0)  -->
<svg version="1.1" xmlns="http://www.w3.org/2000/svg" xmlns:xlink="http://www.w3.org/1999/xlink" x="0px" y="0px"
	 viewBox="0 0 168 72" style="enable-background:new 0 0 168 72;" xml:space="preserve">
<style type="text/css">
	.st0{display:none;}
	.st1{display:inline;}
	.st2{fill:#F29600;}
	.st3{fill:#FFFFFF;}
	.st4{fill:#1D2087;}
	.st5{fill:url(#SVGID_1_);}
	.st6{fill:#C5006F;}
	.st7{fill:url(#SVGID_2_);}
	.st8{fill:url(#SVGID_3_);}
	.st9{fill:#7E0043;}
	.st10{fill:#E3007F;}
	.st11{fill:url(#SVGID_4_);}
	.st12{fill:#F7B400;}
	.st13{fill:#211513;}
	.st14{fill:#231815;}
	.st15{fill:#2C4197;}
	.st16{fill:#E50012;}
</style>
<g id="レイヤー_1">
	<g class="st0">
		<title>logo_Drawer_bingo5</title>
		<g class="st1">
			<g>
				<polygon class="st2" points="148,65.2 148,10.6 71.9,21 71.9,55.4 				"/>
				<polygon class="st3" points="84.8,55.8 84.8,48.3 79.3,47.7 82.5,41.1 77.3,38.2 82.5,35.3 79.8,29.1 84.9,30.5 84.8,20.7 
					89.1,28.1 93.6,19.4 93.7,29.5 102.3,25.3 96.8,34.7 106.1,38.1 96.9,41.6 102.2,51 93.7,46.9 93.5,56.9 89,48.3 				"/>
				<g>
					<path class="st4" d="M40.8,56.3L20,58.5v-0.2c2.6-2.3,2.3-5.9,2.3-9.2V24.8c0-3.4,0.4-7-2.3-9.4v-0.2l13.5,2.1v0.2
						c-2.3,1.5-2,5.1-2,8.3v24.6c1.5,0.7,3.2,0.9,4.8,0.7c2.3-0.1,4.5-1.1,6-2.9L40.8,56.3z"/>
					<path class="st4" d="M58.1,39.7c0.1,2.1-0.2,4.3-1,6.3c-0.9,2-2.2,3.3-3.8,3.4c-1.7,0.1-3.2-1.6-4.1-3.8
						c-1-2.9-1.5-5.9-1.5-8.9c0-5,1.6-10.3,5.2-9.9C56.9,27.2,58.1,34.6,58.1,39.7z M64.3,38.3c0-10.4-4.5-16.8-11.2-17.9
						c-7.2-1.2-13.9,5.1-13.9,17.3c0,12,6.3,18.9,13.5,18.1C59.2,55,64.3,48.5,64.3,38.3z"/>
					<path class="st4" d="M77.4,31.2c-0.4-1.5-1.2-2-2.1-2.1c-0.5-0.1-0.9,0-1.3,0.1v17.4c0,2.5,0,4.4,1.2,6v0.1l-7.5,0.7v-0.1
						c1.4-1.5,1.2-4.1,1.2-6.4V28.7c-0.5-0.2-1-0.3-1.5-0.3c-1.3-0.1-2.6,0.4-3.4,1.4L63.6,30l1.2-7.1l0.6,0.2L78.2,25L77.4,31.2z"
						/>
					<path class="st4" d="M89.1,40.1c0.1,1.6-0.2,3.2-0.6,4.8c-0.6,1.5-1.4,2.5-2.4,2.6c-1.1,0.1-2-1.2-2.5-2.9
						c-0.6-2.2-0.9-4.4-0.9-6.7c0-3.7,1-7.8,3.2-7.5C88.3,30.5,89.1,36.2,89.1,40.1z M93.1,39c0-8-3-12.9-7.4-13.5
						c-4.6-0.7-8.8,4.2-8.8,13.2c0,8.9,3.9,14.1,8.5,13.6C89.8,51.9,93.1,46.9,93.1,39z"/>
				</g>
				<g>
					
						<linearGradient id="SVGID_1_" gradientUnits="userSpaceOnUse" x1="10367.1074" y1="-10282.3838" x2="10367.1074" y2="-10223.0693" gradientTransform="matrix(0.3473 0 0 -0.3473 -3478.7463 -3515.7195)">
						<stop  offset="5.620001e-02" style="stop-color:#90004F"/>
						<stop  offset="0.2303" style="stop-color:#E3007F"/>
						<stop  offset="0.4438" style="stop-color:#90004F"/>
						<stop  offset="1" style="stop-color:#690035"/>
					</linearGradient>
					<path class="st5" d="M122.4,41.8c0-3.4,1.8-6.2,4.3-7.1c-1-0.6-2.1-1-3.3-1c-3.9,0-7.1,3.8-7.1,8.4s3.2,8.4,7.1,8.4
						c1.4,0,2.7-0.5,3.8-1.4C124.5,48.4,122.4,45.4,122.4,41.8z"/>
					<polygon class="st6" points="129.7,11.7 123.4,7.5 124.4,6.8 129.2,9.5 136,14 					"/>
					
						<linearGradient id="SVGID_2_" gradientUnits="userSpaceOnUse" x1="10375.2266" y1="-11528.3105" x2="10378.6611" y2="-11536.958" gradientTransform="matrix(0.2411 0 0 -0.2411 -2364.0945 -2725.4177)">
						<stop  offset="5.620001e-02" style="stop-color:#90004F"/>
						<stop  offset="0.2303" style="stop-color:#E3007F"/>
						<stop  offset="0.4438" style="stop-color:#90004F"/>
						<stop  offset="1" style="stop-color:#690035"/>
					</linearGradient>
					<path class="st7" d="M128.9,25.5c1.9,0.3,3.8,0.8,5.7,1.4c1.9,0.8,8.6,4.3,8.6,15.1c0,7.5-3.8,11.6-5.4,12.9
						c-2.2,1.8-6.9,3.4-10.6,4.4c0,0,11.3-3.9,11.3-16.5C138.3,30.2,130.6,26.4,128.9,25.5z"/>
					
						<linearGradient id="SVGID_3_" gradientUnits="userSpaceOnUse" x1="9241.9492" y1="-10456.9941" x2="9241.1553" y2="-10454.7334" gradientTransform="matrix(0.3473 0 0 -0.3473 -3085.1326 -3580.978)">
						<stop  offset="5.620001e-02" style="stop-color:#90004F"/>
						<stop  offset="0.2303" style="stop-color:#E3007F"/>
						<stop  offset="0.4438" style="stop-color:#90004F"/>
						<stop  offset="1" style="stop-color:#690035"/>
					</linearGradient>
					<path class="st8" d="M122.9,50c-3.1,0-5.6-3.5-5.6-7.9s2.5-7.9,5.6-7.9c1.6,0.1,3,0.9,3.8,2.2c-1-1.8-2.9-3-5-3.2
						c-3.6,0-6.5,4-6.5,9s2.9,9,6.5,9c2.4,0,4.5-1.8,5.6-4.5C126.5,48.7,124.8,50,122.9,50z"/>
					<polygon class="st9" points="120.7,26.6 129.2,25.7 135.8,14.9 136.1,14 131.8,11.7 129.5,11.5 					"/>
					<path class="st10" d="M124.1,25.8c1.8-0.1,3.7,0.2,5.4,1c1.7,0.8,3.1,2,4.3,3.5c1.2,1.6,2.2,3.4,2.8,5.4c0.7,2.1,1,4.3,1,6.5
						c0,2.5-0.4,5-1.3,7.4c-0.8,2.1-1.9,4-3.5,5.5c-1.4,1.4-3.2,2.5-5.1,3.2c-2,0.7-4,0.9-6.1,0.6c-3.8-0.4-7.3-2.4-9.7-5.5
						c-1.2-1.5-2.1-3.2-2.6-5.1c-0.6-2-0.9-4.1-0.9-6.2c0-1.3,0.2-2.6,0.4-4c0.2-1.3,0.6-2.6,1-3.9c0.4-1.3,0.9-2.5,1.4-3.7
						s1.1-2.4,1.7-3.5l10.5-19.5l6.1,4l-8.8,15l0.1,0.1c0.2-0.1,0.5-0.2,0.7-0.3c0.3-0.1,0.5-0.2,0.8-0.2c0.3-0.1,0.6-0.1,0.8-0.2
						C123.5,25.8,123.8,25.8,124.1,25.8z M121.5,51.1c1,0.1,1.9-0.1,2.8-0.6s1.6-1.2,2.2-2c0.6-0.9,1.1-1.9,1.4-2.9
						c0.3-1.1,0.5-2.2,0.5-3.3s-0.2-2.3-0.5-3.4c-0.3-1.1-0.7-2.1-1.3-3c-0.5-0.8-1.3-1.5-2.1-2.1c-0.8-0.5-1.8-0.8-2.8-0.7
						c-1,0-1.9,0.3-2.7,0.9c-0.8,0.5-1.5,1.2-2,2c-0.5,0.9-1,1.8-1.2,2.8c-0.3,1-0.4,2.1-0.5,3.1c0,1,0.1,2.1,0.4,3.1s0.7,2,1.2,2.8
						s1.2,1.6,2,2.2C119.6,50.7,120.6,51,121.5,51.1"/>
					
						<linearGradient id="SVGID_4_" gradientUnits="userSpaceOnUse" x1="10352.1982" y1="-11535.3896" x2="10356.3525" y2="-11545.7529" gradientTransform="matrix(0.2411 0 0 -0.2411 -2364.0945 -2725.4177)">
						<stop  offset="5.620001e-02" style="stop-color:#90004F"/>
						<stop  offset="0.2303" style="stop-color:#E3007F"/>
						<stop  offset="0.4438" style="stop-color:#90004F"/>
						<stop  offset="1" style="stop-color:#690035"/>
					</linearGradient>
					<path class="st11" d="M121.1,26.5c1.5-1,3.2-1.4,5-1.4c1.5,0,3,0.3,4.3,0.8c4.2,1.8,8.9,6.4,8.9,16c0,15.4-11.2,17.6-14.8,17.6
						c-2.3,0-4.7-0.5-6.7-1.6c2,0.8,4.1,1.1,6.2,1c3.2,0,13.4-3,13.4-17.1c0-4.4-1.4-8.6-4.2-12c-2.1-2.5-5.3-4-8.6-4
						C123.5,25.7,122.2,26,121.1,26.5z"/>
				</g>
			</g>
		</g>
	</g>
	<g>
		<g>
			<g>
				<path class="st12" d="M123.1,25.5c-11-3.2-23.4-5.8-36.8-5.8c-10.7-0.1-21.3,1.3-31.6,4.2l1.2-10.4l-7,6.8l-2.8-9.4l-3.8,8.9
					l-6.1-7.5L36,21.9l-8.5-4.6l3.6,9l-9.6-1.1l6.8,7L19,35l8.9,3.8l-7.5,6.1l9.6,0.1l-4.6,8.6l9-3.6l-1,9.6l7-6.8l2.8,9.3l3.8-8.9
					l6.1,7.5l0.2-9.7l7.2,3.1l-1.8-5.7c8.1-2.8,17.8-4.2,27.7-4.2c14.6,0,28.6,3.2,38.2,8.9l10.5-2.1l2.7-9
					C132.3,38.3,124,25.7,123.1,25.5z"/>
				<polygon class="st3" points="61.3,32.3 55.9,36.1 62.2,38.4 55.6,39.8 60.6,44.3 54,43.1 56.9,49.2 51.3,45.5 51.7,52.2 
					47.8,46.7 45.6,53 44.2,46.5 39.7,51.5 40.9,44.9 34.8,47.8 38.5,42.1 31.8,42.6 37.2,38.7 30.9,36.5 37.5,35.1 32.5,30.6 
					39.1,31.8 36.1,25.7 41.8,29.4 41.4,22.6 45.2,28.1 47.5,21.8 48.9,28.4 53.4,23.3 52.2,30 58.3,27 54.6,32.7 				"/>
			</g>
			<path class="st13" d="M148.7,23.8c-0.3-0.5-0.7-0.9-1.3-1.1l-21.7-7.1c-0.1,0-0.3-0.1-0.4-0.1l-1.9-0.6c-0.2-0.1-0.4-0.1-0.7-0.1
				c-0.9,0-1.7,0.6-2.1,1.5c0,0-5.4,16.5-5.7,17.3c-0.8,2.4,0.4,3.3,1.3,3.7l6.7,2.2h0.1c0.9,0.3,1.6,0.5,1.6,0.5l0.7,0.2l0.6-0.4
				c0.7-0.4,1.6-0.6,2.5-0.6c0.2,0,0.4,0,0.4,0c2.1,1.2,2.9,3.1,2.2,5.5c-0.8,2.8-2.9,3.2-4.2,3.2c-0.2,0-0.4,0-0.6,0
				c-1.3-0.7-2.4-1.9-2.6-3.6l-0.1-1l-8.6-2.8l0,0l-2.3-0.7l-0.3,1.9c-0.4,3,0.3,6.2,1.9,8.8c1.8,2.8,4.4,4.8,7.4,6
				c0.4,0.2,0.8,0.4,1.2,0.4l1.9,0.5c1.5,0.4,3.1,0.7,4.6,0.7l0,0c6.1,0.1,11.4-3.9,13-9.8l0,0c2.3-7.7-1.6-14.9-9.4-17.5h-0.1
				c-0.4-0.2-0.9-0.3-1.3-0.4c-0.3-0.1-0.6-0.3-0.9-0.4h-0.1c-0.5-0.2-1.2-0.4-1.7-0.4l1-3c1.8,0.5,4,1.3,6.2,2.1l0,0l1.6,0.5
				c1.9,0.6,2.5,1.3,2.9,2.1c0.2,0.2,0.3,0.4,0.4,0.5c0.7,0.8,2.9,1.3,3.5,1.3c0.8,0,1.5-0.4,1.7-1.2c0,0,0.1-0.2,0.2-0.4
				c0.2-0.5,0.4-1.7,0.6-2.1l1.3-3.8C149,25,149,24.4,148.7,23.8z"/>
			<path class="st10" d="M139.2,47.1c2.1-6.9-1.4-13.3-8.4-15.6h-0.1c-1.9-0.6-3.9-0.8-5.8-0.5l2.3-7.1c0,0,7,2.2,11.6,3.8l0,0
				c2.1,0.7,3.1,1.7,3.8,2.6c0.2,0.2,0.5,0.4,0.6,0c0-0.1,0.5-1.6,0.7-2.2l0,0l1.3-3.8c0.1-0.3,0-0.6-0.4-0.7l0,0l-21.7-7.1
				c-0.3-0.1-0.6,0.1-0.7,0.4l0,0c0,0-5.4,16.5-5.7,17.3c-0.3,0.9-0.4,1.4,0.4,1.7c0.7,0.3,6.1,2,6.1,2c1.6-1,3.7-1.2,5.4-0.5
				c3.6,1.2,5.4,4.1,4.4,7.9c-1.2,3.8-4.6,5-7.9,3.9c-2.5-0.8-4.5-2.7-4.7-5.4l-5.8-1.9c-0.4,2.7,0.3,5.4,1.7,7.8
				c1.7,2.6,4.2,4.6,7.2,5.5l0.2,0.1c3.5,1.1,7,0.8,9.9-0.7C136.1,52.9,138.2,50.3,139.2,47.1L139.2,47.1z"/>
			<path class="st14" d="M73.9,29.7L73.9,29.7L73.9,29.7L73.9,29.7z"/>
			<path class="st13" d="M68.6,25.1c-1.1,0.2-2.1,0.4-2.8,0.4c-0.4,0.1-0.8,0.2-1.2,0.2c0,0,0.9,0.9,1.3,3.8
				c0.4,2.9,1.6,12.8,1.6,12.8s1.7-0.4,3.8-0.6l-1.3-9.8l6.2,8.8c0.2,0.3,0.5,0.4,0.8,0.4c0,0,3.2-0.3,3.3-0.3l-2.1-16.3
				c0-0.3-0.3-0.5-0.6-0.4c0,0-2.7,0.3-3.8,0.4c0,0,0.8,1.1,1.2,4c0.2,1.3,0.4,3.8,0.8,6.3l-1.3-2l-5-7.4C69.4,25.2,69,25,68.6,25.1
				z"/>
			<path class="st13" d="M106.3,25.1c-4.6-1-9.1,2.1-10.1,6.8s1.9,9.4,6.5,10.3c4.6,1,9.1-2.1,10.1-6.8
				C113.8,30.7,110.9,26.1,106.3,25.1z"/>
			<path class="st13" d="M94.5,31.3l-0.4,8.9c0,0.3-0.3,0.5-0.5,0.5c0,0-4.2-0.2-4.8-0.3c-4.5-0.3-7.9-4.2-7.7-8.8
				c0.3-4.6,3.9-8.1,8.4-7.9l5.6,0.3l-0.9,3.7l-4.3-0.2c-2.5-0.1-4.6,1.8-4.7,4.4c-0.2,2.6,1.8,4.7,4.3,5l1.1,0.1l0.2-3.2l-3.1-0.2
				l0.2-3.1l6.3,0.4C94.3,30.8,94.5,31.1,94.5,31.3z"/>
			<polygon class="st3" points="109.8,36.9 106.6,36.1 106.9,39.4 104.8,36.9 103.1,39.9 102.8,36.5 99.8,37.9 101.5,35.1 
				98.3,34.4 101.3,33.1 99.1,30.7 102.3,31.4 101.9,28.1 104.1,30.6 105.7,27.7 106,31 109.1,29.6 107.4,32.5 110.6,33.1 
				107.6,34.4 			"/>
			<path class="st13" d="M54.3,34.9c0.8-1.5,1-3.4,0.4-5.1c-1.2-3.3-4.7-5.1-8.5-3.8c-2.1,0.7-7.2,2.4-9.7,3.3c0,0,1.3,1.1,2.6,4.8
				s5.4,16.2,5.4,16.2s7.5-2.5,9.9-3.3c3.2-1.1,4.9-4.6,3.8-8C57.6,37,56.1,35.5,54.3,34.9z M43.7,31.5l3-1.1
				c1.3-0.4,2.5,0.3,2.9,1.4c0.4,1.3-0.3,2.5-1.4,2.9l0,0l-3,1.1L43.7,31.5z M51.2,43.2L48,44.3l-1.5-4.4l3.5-1.2
				c1.3-0.3,2.5,0.5,2.8,1.8C53,41.7,52.4,42.8,51.2,43.2L51.2,43.2z"/>
			<path class="st13" d="M65.5,42.7l-3.8-15.8c-0.1-0.3-0.4-0.4-0.6-0.4l-4.3,1.1c0,0,1,0.8,1.6,3.8c0.7,2.9,3,12.4,3,12.4
				S63.3,43.1,65.5,42.7"/>
			<g>
				<path class="st13" d="M64.4,56.1c-0.1-0.2-0.2-0.4-0.2-0.6v-1.1l3.8-0.3v-1.3l-3.8,0.4v-1.3h-1.4V56c0,1.2,0.5,1.5,1.6,1.5h3.7
					v-1.3h-3C64.8,56.3,64.6,56.2,64.4,56.1z"/>
				<rect x="67.7" y="51.2" class="st13" width="0.7" height="1.2"/>
				<rect x="66.9" y="51.2" class="st13" width="0.7" height="1.2"/>
				<path class="st13" d="M80.7,52.1h-4v1.3h4v2.8h-3.9v1.3h4.7c0.4,0,0.7-0.2,0.7-0.7v-4.2h-1.5L80.7,52.1z"/>
				<path class="st13" d="M100.9,52.7l-3.7,1.3v1.3l2.4-0.8v3.3h1.4v-3.8h0.1c1.8-0.6,2-0.8,2.1-2.2h-1.6
					C101.5,52.4,101.5,52.4,100.9,52.7z"/>
				<polygon class="st13" points="72.4,52.6 69.7,52.1 69.7,53.5 72.4,53.9 				"/>
				<rect x="81.9" y="51.3" class="st13" width="0.7" height="1.2"/>
				<rect x="81" y="51.3" class="st13" width="0.7" height="1.2"/>
				<rect x="109.6" y="51.4" class="st13" width="0.7" height="1.2"/>
				<rect x="108.6" y="51.4" class="st13" width="0.7" height="1.2"/>
				<path class="st13" d="M83.8,53.3H88v0.6c0,1.5-1.1,2.4-2.5,2.4H84v1.3h1.5c2.1,0,3.9-1.3,3.9-3.6V52h-5.7L83.8,53.3L83.8,53.3z"
					/>
				<path class="st13" d="M73.7,53.8c0,1.5-1.1,2.4-2.5,2.4h-1.4v1.3h1.5c2.1,0,3.9-1.3,3.9-3.6v-1.9h-1.5V53.8z"/>
				<path class="st13" d="M108.4,51.9h-4.1v1.3h4.2v0.6c0,1.5-1.1,2.4-2.5,2.4h-1.4v1.3h1.5c2.1,0,3.9-1.3,3.9-3.6v-1.2h-1.6
					L108.4,51.9z"/>
				<path class="st13" d="M91,53.7h3.8V54c0,0.4-0.4,0.5-0.7,0.5h-1.2l-0.5,1.3c-0.1,0.4-0.4,0.6-0.8,0.6H91v1.1h0.9
					c0.6,0,1.3-0.3,1.6-1l0.4-1h0.5c0.9,0,1.7-0.6,1.7-1.5v-1.5H91L91,53.7z"/>
			</g>
		</g>
	</g>
</g>
<g id="レイヤー_2" class="st0">
	<g id="レイヤー_6" class="st1">
		<g>
			<polygon class="st2" points="20,61.4 20,11.6 86.1,22.6 86.2,51 			"/>
			<polygon class="st3" points="80.2,51.5 80.1,45.3 84.7,44.8 82,39.3 86.3,36.9 82,34.5 84.7,28.9 80,30.5 80.1,22.3 76.6,28.5 
				72.8,21.3 72.8,29.6 65.6,26.1 70.1,34 62.4,36.8 70.1,39.7 65.7,47.5 72.7,44.1 72.9,52.4 76.6,45.3 			"/>
			<polygon class="st15" points="29.6,47.1 29.6,30.8 29.6,30.8 32.4,46.9 35.2,46.7 37.9,31.1 37.9,31.1 37.9,46.5 40.6,46.3 
				40.6,26.8 36.3,26.5 33.9,40.2 33.9,40.2 31.6,26.1 26.4,25.6 26.4,47.4 			"/>
			<polygon class="st15" points="46.4,45.9 46.4,27.2 43.8,27 43.8,46.1 			"/>
			<polygon class="st15" points="51.3,45.5 51.3,32.4 51.3,32.4 54.3,45.3 57.2,45.1 57.2,28.1 55.2,27.9 55.2,39.9 55.1,39.9 
				52.3,27.7 49,27.4 49,45.7 			"/>
			<polygon class="st15" points="61.4,44.7 61.4,28.4 59.3,28.2 59.3,44.9 			"/>
			<path class="st16" d="M101.5,30c-0.4-1.6-1-3.2-2-4.6c-0.7-1.1-1.8-2-3-2.6c-1.1-0.5-2.4-0.7-3.6-0.5c-1.2,0.2-2.4,0.7-3.4,1.5
				c-1.1,0.8-1.9,1.9-2.6,3c-0.8,1.3-1.3,2.8-1.7,4.3c-0.4,1.8-0.6,3.6-0.6,5.4c0,1.8,0.2,3.6,0.6,5.4c0.3,1.5,0.9,2.9,1.6,4.3
				c0.6,1.2,1.5,2.2,2.5,3c1,0.8,2.1,1.3,3.3,1.4c1.2,0.2,2.5,0,3.6-0.6c1.2-0.6,2.3-1.5,3-2.7c1-1.4,1.7-3,2.1-4.6
				c0.5-2.1,0.8-4.3,0.8-6.4C102.2,34.3,102,32.2,101.5,30L101.5,30z M96.3,39.4c0,0.5-0.1,1-0.1,1.5c-0.1,0.5-0.1,0.9-0.3,1.4
				c-0.1,0.4-0.2,0.8-0.4,1.2c-0.2,0.4-0.3,0.7-0.6,1.1c-0.2,0.3-0.4,0.5-0.6,0.7c-0.2,0.2-0.4,0.3-0.6,0.4
				c-0.2,0.1-0.4,0.1-0.6,0.1c-0.2,0-0.5-0.1-0.6-0.3c-0.3-0.2-0.5-0.4-0.7-0.7c-0.2-0.3-0.4-0.7-0.6-1c-0.2-0.4-0.4-0.8-0.5-1.3
				c-0.1-0.5-0.3-1-0.4-1.6c-0.1-0.6-0.2-1.2-0.3-1.8c-0.1-0.6-0.1-1.2-0.2-1.8c0-0.6-0.1-1.2-0.1-1.7c0-1,0.1-1.9,0.2-2.9
				c0.1-0.9,0.3-1.8,0.6-2.6c0.2-0.7,0.6-1.3,1-1.9c0.3-0.4,0.8-0.7,1.3-0.7c0.6,0,1.1,0.2,1.5,0.7c0.6,0.7,1,1.6,1.2,2.5
				c0.3,1.2,0.6,2.3,0.7,3.6c0.1,1.2,0.2,2.5,0.2,3.7C96.3,38.5,96.3,39,96.3,39.4L96.3,39.4z"/>
			<path class="st16" d="M146.7,26.7c-0.7-2.4-1.9-4.6-3.5-6.5c-1.4-1.6-3.2-2.7-5.1-3.4c-2-0.6-4-0.7-6-0.4c-2,0.3-3.9,1.1-5.6,2.2
				c-1.7,1.1-3.2,2.6-4.3,4.3c-1.3,1.8-2.2,3.8-2.8,5.9c-0.7,2.4-1,4.9-1,7.4c0,2.5,0.3,5,0.9,7.4c0.6,2.1,1.4,4.1,2.6,5.9
				c1.1,1.7,2.5,3.1,4.2,4.2c1.7,1.1,3.5,1.9,5.5,2.1c2,0.3,4,0.1,6-0.5c2-0.7,3.8-1.9,5.3-3.5c1.7-1.9,3-4.1,3.8-6.6
				c1-3,1.5-6.2,1.4-9.3C148,32.9,147.6,29.7,146.7,26.7z M138.2,40.3c0,0.7-0.1,1.4-0.2,2.1c-0.1,0.7-0.3,1.3-0.5,1.9
				c-0.2,0.6-0.4,1.2-0.7,1.7c-0.3,0.5-0.6,1-1,1.5c-0.3,0.4-0.7,0.8-1.2,1.1c-0.4,0.3-0.8,0.5-1.3,0.6c-0.4,0.1-0.9,0.2-1.3,0.1
				c-0.5-0.1-0.9-0.2-1.4-0.5c-0.5-0.3-0.9-0.6-1.3-1c-0.4-0.5-0.8-0.9-1.1-1.5c-0.3-0.6-0.6-1.2-0.9-1.8c-0.3-0.7-0.5-1.5-0.7-2.2
				c-0.2-0.8-0.4-1.6-0.5-2.5c-0.1-0.9-0.3-1.7-0.3-2.6c-0.1-0.9-0.1-1.7-0.1-2.4c0-1.3,0.1-2.7,0.3-4c0.2-1.3,0.6-2.5,1.1-3.6
				c0.4-1,1-1.9,1.8-2.7c0.7-0.7,1.6-1.1,2.6-1.2c1.1-0.1,2.2,0.2,3,1c1,1,1.7,2.2,2.1,3.5c0.6,1.6,1,3.3,1.2,5.1
				c0.3,1.7,0.4,3.5,0.4,5.3C138.3,39,138.3,39.7,138.2,40.3L138.2,40.3z"/>
			<path class="st16" d="M74.9,25.6l6.9-1c-0.9,0.7-1.5,1.9-1.5,4.1v15.5c1.6,0.6,3.5,0.1,4.5-1.3l-0.1,6.2l-9.8-1
				c0.9-0.9,1.3-2.2,1.2-3.4V28.7C76.2,27.6,75.8,26.4,74.9,25.6z"/>
			<path class="st16" d="M119.2,19.1l-16.1,2.6l-0.9,8.7c1.3-2,2.6-3.4,4.7-3.4v20.1c0.1,1.6-0.5,3.2-1.6,4.3l9.7,1.3
				c-1.1-1.6-1.7-3.5-1.8-5.5V26.4c2.8-0.7,3.7,1.4,4.7,3.3L119.2,19.1L119.2,19.1z"/>
		</g>
	</g>
</g>
</svg>
