<?xml version="1.0" encoding="utf-8"?>
<!-- Generator: Adobe Illustrator 23.1.0, SVG Export Plug-In . SVG Version: 6.00 Build 0)  -->
<svg version="1.1" xmlns="http://www.w3.org/2000/svg" xmlns:xlink="http://www.w3.org/1999/xlink" x="0px" y="0px"
	 viewBox="0 0 464 260" style="enable-background:new 0 0 464 260;" xml:space="preserve">
<style type="text/css">
	.st0{display:none;}
	.st1{display:inline;}
	.st2{fill:#D8D8D8;}
	.st3{fill:#FFFFFF;}
	.st4{fill:#BFBFBF;}
	.st5{fill:#C7C7C7;}
	.st6{fill:#B0B0B0;}
	.st7{fill:#939393;}
	.st8{fill:#BCBCBC;}
	.st9{fill:none;}
	.st10{fill:#DADADA;}
	.st11{fill:#AAAAAA;}
	.st12{fill:#B5B5B5;}
	.st13{fill:#A0A0A0;}
	.st14{fill:#A3A3A3;}
	.st15{fill:url(#SVGID_1_);}
	.st16{fill:url(#SVGID_2_);}
</style>
<g id="レイヤー_1" class="st0">
	<title>logo-loto7mono-001</title>
	<g class="st1">
		<polygon class="st2" points="372,213.959 372,94.695 205.607,117.435 205.545,192.743 		"/>
		<polygon class="st3" points="233.727,193.553 233.864,177.118 221.755,175.841 228.763,161.338 217.492,155.015 228.885,148.812 
			222.844,135.282 234.051,138.208 233.908,116.813 243.12,133.014 252.974,114.052 253.219,136.05 272.012,126.791 
			260.159,147.392 280.472,154.763 260.184,162.42 271.846,183.038 253.26,174.05 252.892,195.971 243.068,177.138 		"/>
		<g>
			<polygon class="st4" points="268.526,86.918 262.793,85.455 259.475,89.989 259.246,84.552 253.515,83.091 259.109,81.19 
				258.883,75.753 262.567,80.017 268.161,78.119 264.844,82.654 			"/>
			<polygon class="st5" points="254.521,65.058 252.267,71.073 257.83,74.863 250.876,74.791 248.626,80.809 246.58,74.747 
				239.628,74.676 245.315,71.001 243.27,64.942 248.831,68.732 			"/>
			<polygon class="st6" points="235.143,54.093 234.455,61.326 241.774,64.128 234.031,65.796 233.344,73.03 229.243,66.829 
				221.502,68.494 226.711,62.995 222.614,56.789 229.931,59.595 			"/>
			<polygon class="st4" points="210.512,46.713 211.747,54.793 220.548,56.183 212.509,59.789 213.744,67.869 207.54,62.016 
				199.502,65.618 203.707,58.394 197.505,52.541 206.308,53.931 			"/>
			<polygon class="st5" points="181.233,44.297 184.717,52.776 194.639,52.335 186.871,58.019 190.357,66.503 182.068,61.536 
				174.3,67.216 176.947,58.46 168.662,53.492 178.583,53.05 			"/>
			<polygon class="st6" points="146.903,48.98 154.318,57.546 165.6,53.669 158.901,62.847 166.317,71.415 154.762,68.518 
				148.06,77.692 147.617,66.727 136.063,63.827 147.344,59.946 			"/>
			<polygon class="st4" points="127.624,103.297 119.787,90.779 104.253,93.855 114.943,83.042 107.103,70.525 121.55,76.358 
				132.242,65.548 130.478,79.966 144.923,85.803 129.389,88.878 			"/>
		</g>
		<g>
			<path class="st6" d="M137.715,194.539l-45.592,4.85v-0.433c5.764-4.989,4.943-12.855,4.932-20.227l-0.069-53.017
				c-0.01-7.373,0.793-15.336-4.984-20.62v-0.434l29.573,4.636v0.4c-5.012,3.369-4.276,11.089-4.268,18.176l0.07,53.725
				c3.282,1.787,7,1.8,10.532,1.554c5.109-0.15,9.914-2.461,13.22-6.359L137.715,194.539z"/>
			<path class="st6" d="M175.484,158.168c0,4.749-0.4,9.7-2.154,13.67c-1.906,4.326-4.892,7.209-8.209,7.459
				c-3.672,0.275-6.988-3.435-8.892-8.362c-2.096-6.305-3.199-12.897-3.27-19.54c-0.013-10.949,3.559-22.6,11.329-21.607
				C172.8,130.88,175.469,147.118,175.484,158.168z M188.859,155.125c-0.03-22.68-9.807-36.8-24.451-39.184
				c-15.693-2.563-30.492,11.211-30.457,37.87c0.031,26.283,13.722,41.324,29.677,39.543c14.266-1.59,25.261-15.854,25.231-38.228
				V155.125z"/>
			<path class="st6" d="M217.508,139.615c-0.833-3.208-2.567-4.308-4.6-4.514c-0.989-0.151-1.999-0.059-2.944,0.268l0.047,37.989
				c0.009,5.4,0.07,9.658,2.562,13.215v0.283l-16.491,1.564v-0.3c3.129-3.35,2.678-8.944,2.67-14.073l-0.051-39.8
				c-1.019-0.429-2.106-0.672-3.21-0.718c-3.017-0.3-4.953,0.619-7.526,3.034l-0.478,0.471l2.632-15.445l1.272,0.482l28.02,3.911
				L217.508,139.615z"/>
			<path class="st6" d="M243.116,159c0.141,3.537-0.326,7.071-1.38,10.45c-1.211,3.292-3.1,5.454-5.2,5.593
				c-2.3,0.159-4.366-2.683-5.542-6.4c-1.3-4.78-1.979-9.708-2.019-14.661c-0.01-8.2,2.185-17.029,7.029-16.459
				C241.393,138.149,243.1,150.533,243.116,159z M252.016,156.641c-0.022-17.574-6.555-28.216-16.128-29.606
				c-10-1.452-19.18,9.175-19.153,28.877c0.024,19.419,8.516,30.821,18.662,29.811c9.303-0.928,16.642-11.755,16.62-29.081
				L252.016,156.641z"/>
		</g>
		<g>
			<path class="st7" d="M320.25,100.789l2.166-0.111l-4.552-4.724l-42.792,4.791l-1.229,8.724l5.246,1.943l0,0l4.855,1.8
				c0,0,0.185-6.184,16.132-6.77l34.275-1.339L320.25,100.789z"/>
			<path class="st7" d="M351.166,59.008l-4.267-0.215v34.185c-5.063,8-10.851,16.29-14.578,25c-3.552,8.386-6.523,17.006-8.892,25.8
				c-4.754,17.989-7.355,36.479-7.751,55.081c-0.164,5.6,1.344,16.842,1.344,16.842l6.531-1.978l13.558-16.15
				c-0.061-2.315-0.068-4.632-0.068-6.947c-0.062-20.241,2.554-40.78,9.456-59.881c3.647-10.234,8.598-19.955,14.729-28.924v-27.25
				L351.166,59.008z"/>
			<path class="st8" d="M346.9,58.794l-73.015,20.049l-0.042,30.626c0,0,4.284-7.32,16.145-9.862l0,0l27.251-3.244
				c0.908,0.67,1.407,1.76,1.321,2.885c-0.169,1.829-0.62,3.621-1.337,5.312c-0.851,2.323-2.078,5.271-3.629,9.079
				c-1.531,3.763-3.354,8.343-5.422,13.944c-3.889,10.305-6.96,20.899-9.186,31.686c-2.067,9.817-3.388,19.011-4.311,26.8
				c-0.9,7.679-1.428,14.055-1.883,18.329c-0.46,4.234-0.543,8-0.543,8l24.77,3.3c-0.3-8.782-0.158-17.574,0.426-26.342
				c0.649-10.215,1.931-20.38,3.838-30.437c2.096-11.043,5.099-21.894,8.977-32.444c4.322-11.734,9.9-22.966,16.637-33.5
				L346.9,58.794z"/>
		</g>
	</g>
</g>
<g id="レイヤー_2">
	<g>
		<rect x="-0.48" y="0.48" class="st9" width="464" height="260"/>
		<g>
			<g>
				<polygon class="st10" points="372.496,201.536 372.496,81.992 205.707,104.782 205.641,180.272 				"/>
			</g>
			<g>
				<g>
					<polygon class="st3" points="233.893,181.081 234.025,164.612 221.887,163.333 228.917,148.794 217.613,142.457 
						229.041,136.236 222.985,122.671 234.215,125.608 234.074,104.163 243.307,120.402 253.184,101.391 253.432,123.446 
						272.269,114.164 260.387,134.816 280.751,142.201 260.412,149.875 272.104,170.544 253.473,161.534 253.102,183.507 
						243.258,164.628 					"/>
				</g>
			</g>
			<g>
				<g>
					<path class="st11" d="M181.976,227.923l-23.31,0.008l-0.008-22.699l23.301-0.008L181.976,227.923z M176.712,210.274h-12.781
						l0.008,12.6l12.781-0.008L176.712,210.274z"/>
					<path class="st11" d="M186.481,228.204l-0.008-23.681h5.372v7.344l16.593,0.726v5.207l-16.568-0.726l0.008,11.131
						L186.481,228.204L186.481,228.204z"/>
				</g>
				<path class="st11" d="M225.666,221.116v-5.05c1.37-0.404,3.482-1.559,4.398-3.433h-9.299v8.292c0,1.444,0.668,2.104,2.393,2.104
					h13.334v5.182h-14.143c-5.487,0-7.294-1.914-7.294-6.221v-9.357h-3.391v-5.165h3.391v-3.606h5.71v3.606h16.23
					C236.913,215.389,232.176,220.241,225.666,221.116z"/>
				<path class="st11" d="M263.086,208.772c0,12.038-4.984,19.638-20.554,19.638v-5.107c11.717,0,13.218-5.594,14.2-13.268h-17.146
					v-5.24h18.664v3.977H263.086z"/>
				<path class="st11" d="M268.259,210.117v-5.405l12.641,1.015v5.545L268.259,210.117z M268.729,228.27v-5.462
					c10.52-0.677,16.511-3.383,17.121-14.085h6.098C291.28,222.617,283.375,228.08,268.729,228.27z"/>
			</g>
			<rect x="262.92" y="202.031" class="st11" width="3.309" height="5.999"/>
			<rect x="258.952" y="202.031" class="st11" width="3.309" height="5.999"/>
			<g>
				<polygon class="st12" points="268.771,74.195 263.028,72.726 259.703,77.273 259.471,71.819 253.729,70.358 259.331,68.452 
					259.108,63.006 262.797,67.28 268.408,65.374 265.082,69.921 				"/>
				<polygon class="st10" points="254.735,52.28 252.474,58.311 258.052,62.107 251.08,62.041 248.827,68.072 246.773,61.991 
					239.809,61.925 245.51,58.237 243.456,52.164 249.034,55.968 				"/>
				<polygon class="st11" points="235.312,41.289 234.619,48.542 241.954,51.347 234.198,53.022 233.505,60.275 229.396,54.054 
					221.64,55.729 226.854,50.217 222.754,43.996 230.089,46.809 				"/>
				<polygon class="st12" points="210.624,33.896 211.862,41.99 220.683,43.385 212.621,46.999 213.859,55.102 207.637,49.235 
					199.584,52.841 203.801,45.604 197.579,39.738 206.408,41.132 				"/>
				<polygon class="st10" points="181.275,31.47 184.765,39.969 194.708,39.532 186.927,45.225 190.417,53.732 182.108,48.748 
					174.319,54.442 176.976,45.67 168.667,40.687 178.618,40.249 				"/>
				<polygon class="st11" points="146.859,36.165 154.293,44.755 165.598,40.868 158.889,50.068 166.315,58.658 154.739,55.753 
					148.023,64.945 147.577,53.955 135.992,51.05 147.305,47.156 				"/>
				<polygon class="st12" points="127.535,90.615 119.68,78.065 104.11,81.151 114.82,70.309 106.965,57.759 121.445,63.609 
					132.164,52.775 130.398,67.223 144.871,73.073 129.301,76.159 				"/>
			</g>
			<g>
				<path class="st11" d="M137.651,182.071l-45.703,4.86v-0.437c5.776-5,4.959-12.888,4.942-20.273l-0.066-53.146
					c-0.008-7.393,0.792-15.372-5-20.669v-0.437l29.647,4.645v0.404c-5.025,3.375-4.282,11.114-4.274,18.219l0.074,53.856
					c3.292,1.791,7.014,1.799,10.553,1.559c5.264-0.355,9.266-2.013,13.251-6.378L137.651,182.071z"/>
				<path class="st11" d="M175.507,145.617c0,4.761-0.396,9.728-2.162,13.705c-1.914,4.34-4.901,7.228-8.226,7.476
					c-3.68,0.272-7.005-3.441-8.911-8.383c-1.939-5.223-3.267-13.408-3.276-19.588c-0.017-10.974,3.565-22.658,11.354-21.659
					C172.817,118.265,175.491,134.536,175.507,145.617z M188.915,142.564c-0.033-22.732-9.827-36.883-24.506-39.276
					c-15.727-2.566-30.562,11.238-30.529,37.964c0.033,26.346,13.755,41.421,29.746,39.639
					C177.925,179.29,188.948,164.991,188.915,142.564z"/>
				<path class="st11" d="M217.63,127.019c-0.833-3.218-2.574-4.315-4.612-4.522c-1.04-0.107-1.964-0.107-2.954,0.272l0.05,38.079
					c0.008,5.413,0.066,9.679,2.566,13.243v0.281l-16.527,1.568v-0.297c3.135-3.358,2.682-8.969,2.673-14.11l-0.049-39.895
					c-1.089-0.503-2.055-0.602-3.218-0.718c-3.028-0.305-4.967,0.619-7.542,3.045l-0.479,0.47l2.64-15.479l1.279,0.487l28.087,3.919
					L217.63,127.019z"/>
				<path class="st11" d="M243.299,146.451c0.008,3.647-0.248,7.451-1.386,10.479c-1.213,3.3-3.111,5.471-5.206,5.611
					c-2.31,0.157-4.373-2.69-5.553-6.419c-1.196-3.936-2.022-10.066-2.022-14.695c-0.008-8.226,2.187-17.072,7.047-16.494
					C241.575,125.55,243.291,137.96,243.299,146.451z M252.227,144.083c-0.025-17.616-6.568-28.285-16.164-29.68
					c-10.017-1.452-19.225,9.2-19.201,28.945c0.025,19.465,8.54,30.892,18.705,29.886
					C244.892,172.302,252.243,161.451,252.227,144.083z"/>
			</g>
			<g>
				<path class="st13" d="M320.258,87.991l-44.92,0.066l-1.229,8.746l1.931,0.71l8.193,3.036c0,0,0.182-6.197,16.172-6.782
					l34.358-1.345L320.258,87.991z"/>
				<g>
					<path class="st14" d="M318.228,83.255l4.563,4.736l-23.739,1.221c-20.108,1.015-19.696,9.489-19.696,9.538l-5.256-1.947
						l1.229-8.746L318.228,83.255z"/>
				</g>
				
					<linearGradient id="SVGID_1_" gradientUnits="userSpaceOnUse" x1="320.8895" y1="163.8016" x2="360.9213" y2="77.953" gradientTransform="matrix(1 0 0 -1 0 262)">
					<stop  offset="0" style="stop-color:#A3A3A3"/>
					<stop  offset="0.25" style="stop-color:#A8A8A8"/>
					<stop  offset="0.4505" style="stop-color:#ADADAD"/>
					<stop  offset="0.7" style="stop-color:#A8A8A8"/>
					<stop  offset="1" style="stop-color:#A3A3A3"/>
				</linearGradient>
				<path class="st15" d="M337.454,178.152c-0.066-20.29,2.558-40.876,9.481-60.027c3.697-10.223,8.581-20.042,14.761-28.995
					l-8.689-5.908c-11.659,14.522-18.747,33.351-23.466,51.669c-4.876,18.912-6.749,38.599-6.749,58.088
					c0,2.772,1.139,8.317,1.139,8.317l13.59-16.189C337.462,182.797,337.454,180.47,337.454,178.152"/>
				
					<linearGradient id="SVGID_2_" gradientUnits="userSpaceOnUse" x1="313.5697" y1="165.1311" x2="353.408" y2="79.6977" gradientTransform="matrix(1 0 0 -1 0 262)">
					<stop  offset="0.0055" style="stop-color:#A3A3A3"/>
					<stop  offset="0.2" style="stop-color:#A8A8A8"/>
					<stop  offset="0.4" style="stop-color:#ADADAD"/>
					<stop  offset="0.65" style="stop-color:#A8A8A8"/>
					<stop  offset="1" style="stop-color:#A3A3A3"/>
				</linearGradient>
				<path class="st16" d="M323.806,195.512c-0.198-20.389,1.724-40.942,6.766-60.729c4.645-18.26,12.047-35.81,22.443-51.562
					l-5.677-2.954c-5.074,8.02-10.875,16.329-14.613,25.059c-3.598,8.4-6.502,17.055-8.911,25.868
					c-4.909,17.938-7.228,36.644-7.773,55.217c-0.165,5.611,1.345,16.882,1.345,16.882l6.543-1.98
					C323.872,199.374,323.806,197.443,323.806,195.512"/>
				<polygon class="st13" points="361.696,61.818 351.613,46.215 347.33,46.001 347.33,80.268 353.007,83.23 361.696,89.138 				"/>
				<path class="st12" d="M347.33,46.001l-73.188,20.1l-0.041,30.703c0,0,4.291-7.335,16.181-9.885c0,0,0,0,0.008,0l27.32-3.251
					c0.924,0.726,1.345,1.601,1.32,2.888c-0.016,1.287-0.487,2.979-1.337,5.322c-0.85,2.327-2.088,5.281-3.639,9.101
					c-1.535,3.771-3.366,8.367-5.438,13.978c-4.15,10.842-7.088,21.684-9.208,31.759c-2.071,9.844-3.4,19.06-4.324,26.866
					c-0.908,7.698-1.427,14.093-1.89,18.375c-0.462,4.241-0.545,8.02-0.545,8.02l24.828,3.309
					c-0.272-8.367-0.206-16.775,0.429-26.404c0.635-9.761,1.848-20.05,3.845-30.513c2.055-10.685,4.967-21.643,9.002-32.518
					c4.167-11.255,9.604-22.567,16.676-33.582L347.33,46.001L347.33,46.001z"/>
			</g>
		</g>
	</g>
</g>
</svg>
