<?xml version="1.0" encoding="utf-8"?>
<!-- Generator: Adobe Illustrator 23.1.0, SVG Export Plug-In . SVG Version: 6.00 Build 0)  -->
<svg version="1.1" xmlns="http://www.w3.org/2000/svg" xmlns:xlink="http://www.w3.org/1999/xlink" x="0px" y="0px"
	 viewBox="0 0 464 260" style="enable-background:new 0 0 464 260;" xml:space="preserve">
<style type="text/css">
	.st0{display:none;}
	.st1{display:inline;}
	.st2{fill:#D8D8D8;}
	.st3{fill:#FFFFFF;}
	.st4{fill:#B0B0B0;}
	.st5{fill:none;}
	.st6{fill:#ABABAB;}
	.st7{fill:#D5D5D5;}
	.st8{fill:#ACACAC;}
</style>
<g id="レイヤー_1" class="st0">
	<title>logo-minilotomono-001</title>
	<g class="st1">
		<polygon class="st2" points="67,194.292 67.041,65.708 237.561,94.154 237.635,167.42 67,194.292 		"/>
		<polygon class="st3" points="222.173,168.693 222.029,152.584 233.885,151.326 227.021,137.117 238.064,130.925 226.904,124.831 
			233.954,110.339 221.839,114.443 221.979,93.474 212.961,109.352 203.29,90.763 203.055,112.326 184.63,103.254 196.247,123.444 
			176.331,130.673 196.222,138.183 184.785,158.379 203.007,149.571 203.371,171.069 213.007,152.604 222.173,168.693 		"/>
		<polygon class="st4" points="91.729,157.436 91.729,115.198 91.836,115.204 98.923,156.88 106.326,156.302 113.198,116.175 
			113.293,116.181 113.293,155.745 120.26,155.193 120.26,105.025 108.976,104.09 102.92,139.621 102.821,139.621 96.907,103.101 
			83.514,102.014 83.514,158.077 91.729,157.436 		"/>
		<polygon class="st4" points="135.161,154.209 135.161,106.06 128.518,105.506 128.518,154.736 135.161,154.209 		"/>
		<polygon class="st4" points="147.684,153.298 147.684,119.434 147.764,119.447 155.494,152.658 162.901,152.053 162.901,108.242 
			157.708,107.815 157.708,138.743 157.63,138.753 150.205,107.199 141.928,106.52 141.928,153.769 147.684,153.298 		"/>
		<polygon class="st4" points="173.716,151.243 173.716,109.059 168.496,108.63 168.496,151.671 173.716,151.243 		"/>
		<path class="st4" d="M277.091,113.356c-0.969-4.207-2.689-8.204-5.077-11.8c-1.901-2.866-4.546-5.162-7.651-6.641
			c-2.906-1.294-6.126-1.711-9.266-1.2c-3.168,0.496-6.152,1.809-8.659,3.808c-2.714,2.161-4.984,4.827-6.687,7.849
			c-1.974,3.465-3.43,7.2-4.322,11.086c-1.055,4.569-1.574,9.246-1.544,13.935c-0.032,4.648,0.448,9.285,1.432,13.827
			c0.823,3.848,2.193,7.558,4.069,11.017c1.607,3.005,3.799,5.657,6.448,7.8c2.475,1.998,5.449,3.283,8.6,3.717
			c3.131,0.435,6.321-0.067,9.167-1.443c3.152-1.585,5.854-3.939,7.854-6.846c2.516-3.629,4.357-7.682,5.432-11.965
			c1.4-5.414,2.081-10.988,2.024-16.58c0.062-5.575-0.55-11.137-1.822-16.565L277.091,113.356z M263.784,137.6
			c-0.069,1.334-0.181,2.594-0.33,3.741c-0.159,1.173-0.378,2.338-0.656,3.489c-0.263,1.051-0.611,2.08-1.038,3.076
			c-0.404,0.95-0.896,1.86-1.471,2.717c-0.461,0.699-1.011,1.335-1.636,1.892c-0.49,0.433-1.052,0.778-1.66,1.02
			c-0.522,0.194-1.081,0.27-1.636,0.222c-0.603-0.073-1.178-0.295-1.673-0.647c-0.665-0.475-1.25-1.055-1.73-1.716
			c-0.622-0.811-1.156-1.686-1.592-2.611c-0.507-1.042-0.93-2.123-1.264-3.233c-0.359-1.175-0.693-2.542-1-4.05
			c-0.305-1.462-0.561-3.028-0.784-4.637s-0.38-3.193-0.5-4.754c-0.119-1.586-0.177-3.08-0.177-4.46
			c-0.002-2.476,0.169-4.948,0.512-7.4c0.317-2.273,0.848-4.511,1.585-6.684c0.564-1.74,1.446-3.36,2.6-4.778
			c0.829-1.052,2.037-1.738,3.366-1.912c1.496-0.112,2.938,0.583,3.783,1.822c1.432,1.903,2.473,4.072,3.062,6.38
			c0.845,2.996,1.437,6.059,1.769,9.154c0.368,3.163,0.553,6.345,0.554,9.529c0,1.39-0.034,2.653-0.088,3.843L263.784,137.6z"/>
		<path class="st4" d="M393.656,104.717c-1.817-6.159-4.933-11.856-9.137-16.71c-3.562-4.044-8.147-7.055-13.274-8.716
			c-5.045-1.543-10.386-1.861-15.578-0.926c-5.151,0.867-10.055,2.832-14.38,5.761c-4.381,2.966-8.167,6.727-11.162,11.088
			c-3.236,4.679-5.675,9.862-7.22,15.337c-1.762,6.219-2.636,12.656-2.594,19.119c-0.046,6.396,0.761,12.77,2.4,18.953
			c1.431,5.404,3.727,10.541,6.8,15.211c2.838,4.313,6.495,8.028,10.762,10.935c4.264,2.893,9.128,4.782,14.227,5.525
			c5.161,0.799,10.44,0.332,15.381-1.359c5.231-1.852,9.92-4.975,13.645-9.088c4.41-4.912,7.74-10.695,9.773-16.975
			c2.546-7.773,3.796-15.913,3.7-24.092c0.112-8.145-1.016-16.259-3.344-24.065L393.656,104.717z M371.91,139.848
			c-0.109,1.791-0.31,3.575-0.6,5.345c-0.266,1.689-0.66,3.356-1.178,4.986c-0.461,1.521-1.072,2.993-1.826,4.392
			c-0.749,1.383-1.64,2.683-2.661,3.879c-0.886,1.044-1.907,1.965-3.036,2.738c-0.997,0.682-2.098,1.197-3.26,1.525
			c-1.111,0.308-2.269,0.407-3.416,0.291c-1.246-0.136-2.447-0.541-3.521-1.188c-1.215-0.709-2.31-1.606-3.246-2.656
			c-1.073-1.166-2.019-2.442-2.822-3.808c-0.858-1.468-1.594-3.005-2.2-4.594c-0.671-1.862-1.243-3.758-1.715-5.68
			c-0.512-2.038-0.958-4.217-1.326-6.461c-0.376-2.227-0.668-4.445-0.867-6.616c-0.19-2.194-0.306-4.27-0.306-6.174
			c-0.007-3.455,0.291-6.903,0.893-10.305c0.533-3.223,1.445-6.372,2.717-9.381c1.05-2.607,2.617-4.975,4.606-6.961
			c1.796-1.769,4.125-2.896,6.626-3.207c2.824-0.345,5.65,0.628,7.663,2.639c2.492,2.571,4.371,5.67,5.5,9.068
			c1.509,4.227,2.567,8.601,3.156,13.05c0.653,4.508,0.981,9.058,0.979,13.613c0,1.994-0.058,3.788-0.161,5.507L371.91,139.848z"/>
		<path class="st4" d="M208.632,101.813l17.689-2.641c-2.281,1.89-3.76,4.793-3.76,10.668v39.886
			c3.086,0.85,7.308,1.615,11.658-3.324l-0.2,16.109l-25.267-2.7c1.7-1.561,2.967-4.172,2.967-8.87v-40.949
			c0-4.35-1.371-6.845-3.085-8.18L208.632,101.813z"/>
		<path class="st4" d="M322.876,85.051l-41.5,6.81l-2.429,22.472c3.337-5.264,6.655-8.651,12.1-8.734v51.747
			c0,4.634-1.218,8.755-4.231,11.075l25.08,3.246c-2.574-4.271-4.692-9.009-4.692-14.168V103.9c7.253-1.744,9.555,3.5,12.017,8.51
			l3.66-27.362L322.876,85.051z"/>
	</g>
</g>
<g id="レイヤー_2">
	<g>
		<rect x="0.15" y="0.12" class="st5" width="464" height="260"/>
		<g>
			<path class="st6" d="M201.496,187.01l-26.642-1.169v-5.835l26.642,1.15V187.01L201.496,187.01z M200.231,196.467l-24.546-1.159
				v-5.641l24.546,1.14V196.467L200.231,196.467z M174.39,199.162l27.744,2.164v5.873l-27.744-2.212V199.162L174.39,199.162z"/>
			<path class="st6" d="M232.92,187.474h-26.053v-6.163h26.053V187.474L232.92,187.474z M233.944,206.262h-28.082v-6.231h28.082
				V206.262L233.944,206.262z"/>
			<path class="st6" d="M265.407,206.948h-27.483V180.18h27.483V206.948L265.407,206.948z M259.195,186.15h-15.06v14.847h15.06
				V186.15L259.195,186.15z"/>
			<polygon class="st6" points="270.71,207.286 270.71,179.388 277.028,179.388 277.028,188.034 296.609,188.884 296.609,195.028 
				277.066,194.178 277.066,207.286 			"/>
			<polygon class="st7" points="67.783,180.557 67.821,52.514 237.615,80.847 237.692,153.799 			"/>
			<polygon class="st3" points="222.294,155.064 222.149,139.029 233.954,137.773 227.124,123.621 238.117,117.458 227.008,111.391 
				234.021,96.959 221.966,101.046 222.101,80.17 213.127,95.974 203.496,77.466 203.254,98.94 184.91,89.908 196.483,110.01 
				176.651,117.207 196.454,124.684 185.065,144.796 203.206,136.024 203.573,157.431 213.166,139.048 			"/>
			<polygon class="st6" points="92.406,143.859 92.406,101.799 92.512,101.799 99.574,143.298 106.944,142.728 113.783,102.765 
				113.88,102.775 113.88,142.168 120.816,141.618 120.816,91.666 109.581,90.738 103.554,126.113 103.447,126.113 97.564,89.753 
				84.224,88.671 84.224,144.496 			"/>
			<polygon class="st6" points="135.654,140.642 135.654,92.699 129.037,92.149 129.037,141.164 			"/>
			<polygon class="st6" points="148.125,139.734 148.125,106.011 148.202,106.03 155.901,139.096 163.272,138.497 163.272,94.873 
				158.104,94.448 158.104,125.244 158.026,125.254 150.636,93.83 142.396,93.153 142.396,140.207 			"/>
			<polygon class="st6" points="174.043,137.686 174.043,95.684 168.845,95.259 168.845,138.111 			"/>
			<path class="st8" d="M276.979,99.964c-1.169-4.666-2.869-8.617-5.052-11.756c-2.145-3.072-4.695-5.284-7.622-6.617
				c-2.85-1.285-5.96-1.681-9.225-1.198c-3.072,0.454-5.97,1.739-8.626,3.796c-2.55,1.98-4.791,4.608-6.656,7.815
				c-1.864,3.207-3.313,6.917-4.299,11.041c-1.014,4.25-1.536,8.926-1.536,13.872c0,4.936,0.483,9.563,1.43,13.765
				c0.927,4.115,2.289,7.815,4.048,10.974c1.787,3.217,3.951,5.835,6.424,7.767c2.599,2.058,5.497,3.294,8.568,3.7
				c3.159,0.425,6.231-0.058,9.129-1.439c2.946-1.41,5.583-3.709,7.825-6.82c2.328-3.236,4.154-7.245,5.41-11.911
				c1.343-4.946,2.019-10.5,2.019-16.509C278.796,110.367,278.187,104.813,276.979,99.964L276.979,99.964z M263.726,124.104
				c-0.068,1.333-0.184,2.579-0.328,3.729c-0.174,1.265-0.396,2.425-0.657,3.478c-0.28,1.121-0.638,2.154-1.034,3.062
				c-0.435,1.005-0.937,1.922-1.468,2.705c-0.512,0.753-1.063,1.391-1.633,1.884c-0.541,0.473-1.101,0.802-1.652,1.014
				c-0.541,0.203-1.082,0.27-1.633,0.222c-0.531-0.048-1.101-0.261-1.662-0.647c-0.589-0.396-1.159-0.976-1.719-1.71
				c-0.57-0.725-1.101-1.604-1.584-2.599c-0.483-0.976-0.908-2.077-1.256-3.217c-0.357-1.169-0.686-2.531-0.995-4.038
				c-0.299-1.459-0.56-3.014-0.782-4.617c-0.213-1.594-0.377-3.178-0.502-4.733c-0.116-1.584-0.174-3.062-0.174-4.444
				c0-2.521,0.174-5.004,0.512-7.371c0.377-2.492,0.898-4.733,1.575-6.656c0.725-2.029,1.604-3.632,2.589-4.762
				c1.024-1.15,2.106-1.787,3.352-1.903c1.381-0.155,2.628,0.435,3.767,1.816c1.179,1.391,2.202,3.536,3.053,6.356
				c0.763,2.599,1.352,5.661,1.758,9.119c0.357,3.053,0.551,6.337,0.551,9.486C263.813,121.66,263.784,122.916,263.726,124.104
				L263.726,124.104z"/>
			<path class="st8" d="M393.044,91.357c-2.116-6.685-5.168-12.278-9.1-16.635c-3.738-4.154-8.192-7.071-13.215-8.675
				c-4.811-1.526-10.037-1.835-15.514-0.918c-5.11,0.85-9.911,2.782-14.316,5.738c-4.26,2.859-7.999,6.559-11.119,11.041
				c-3.13,4.463-5.545,9.592-7.187,15.272c-1.7,5.854-2.579,12.259-2.579,19.04c0,6.743,0.811,13.089,2.396,18.876
				c1.546,5.651,3.825,10.752,6.772,15.147c2.985,4.453,6.578,8.114,10.713,10.887c4.289,2.898,9.061,4.762,14.171,5.506
				c5.284,0.782,10.433,0.328,15.311-1.352c5.091-1.768,9.66-4.811,13.582-9.051c4.173-4.521,7.448-10.201,9.728-16.905
				c2.444-7.158,3.68-15.234,3.68-23.986C396.377,106.446,395.257,98.379,393.044,91.357L393.044,91.357z M371.396,126.345
				c-0.116,1.893-0.328,3.69-0.599,5.323c-0.29,1.787-0.686,3.458-1.169,4.965c-0.493,1.604-1.111,3.072-1.816,4.376
				c-0.802,1.439-1.681,2.753-2.647,3.864c-0.947,1.092-1.961,2.009-3.024,2.724c-1.043,0.705-2.135,1.217-3.246,1.517
				c-1.13,0.309-2.26,0.396-3.4,0.29c-1.179-0.116-2.367-0.512-3.507-1.179c-1.121-0.638-2.212-1.526-3.236-2.647
				c-1.005-1.082-1.951-2.347-2.811-3.796c-0.831-1.41-1.565-2.946-2.193-4.579c-0.599-1.642-1.188-3.555-1.71-5.661
				c-0.512-2.029-0.956-4.202-1.323-6.434c-0.377-2.222-0.667-4.424-0.86-6.588c-0.193-2.183-0.309-4.25-0.309-6.144
				c0-3.516,0.299-6.955,0.889-10.259c0.609-3.497,1.526-6.636,2.705-9.341c1.256-2.908,2.801-5.255,4.589-6.936
				c1.922-1.826,4.144-2.898,6.598-3.197c2.83-0.338,5.4,0.551,7.631,2.628c2.116,1.971,3.961,5.023,5.477,9.032
				c1.372,3.68,2.434,8.056,3.139,12.993c0.647,4.366,0.976,9.061,0.976,13.553C371.551,122.848,371.493,124.635,371.396,126.345
				L371.396,126.345z"/>
			<path class="st8" d="M208.809,88.468l17.61-2.628c-2.27,1.884-3.748,4.772-3.748,10.626c0,5.864,0,39.712,0,39.712
				c3.072,0.85,7.274,1.613,11.611-3.313l-0.203,16.036l-25.155-2.685c1.7-1.555,2.956-4.154,2.956-8.829c0-4.666,0-36.457,0-40.775
				C211.881,92.284,210.519,89.801,208.809,88.468L208.809,88.468z"/>
			<path class="st8" d="M322.565,71.776l-41.325,6.781l-2.415,22.373c3.323-5.245,6.627-8.617,12.046-8.694c0,0,0,46.909,0,51.526
				s-1.217,8.713-4.212,11.032l24.971,3.236c-2.56-4.25-4.675-8.974-4.675-14.104c0-5.149,0-53.371,0-53.371
				c7.226-1.739,9.515,3.487,11.969,8.472L322.565,71.776L322.565,71.776z"/>
		</g>
	</g>
</g>
</svg>
