<?xml version="1.0" encoding="utf-8"?>
<!-- Generator: Adobe Illustrator 23.1.0, SVG Export Plug-In . SVG Version: 6.00 Build 0)  -->
<svg version="1.1" id="レイヤー_1" xmlns="http://www.w3.org/2000/svg" xmlns:xlink="http://www.w3.org/1999/xlink" x="0px"
	 y="0px" viewBox="0 0 168 72" style="enable-background:new 0 0 168 72;" xml:space="preserve">
<style type="text/css">
	.st0{fill:none;}
	.st1{fill:#CCCCCC;}
	.st2{fill:#004098;}
	.st3{fill:#F39800;}
	.st4{fill:#E62E8B;}
</style>
<g>
	<rect x="0.013" y="-0.002" class="st0" width="168" height="72"/>
	<g>
		<g>
			<path class="st1" d="M132.885,32.054h5.43c1.335-2.641,1.961-4.917,1.421-7.088c-0.712-2.861-6.599-4.844-11.575-1.54
				c-5.703,3.784-3.213,11.059-1.874,13.029c1.471,2.158,3.925,4.593,2.316,8.025c-0.433,0.923-0.873,1.654-1.38,2.015
				c-1.257,0.896-4.031,0.859-2.715-2.289c1.215-2.912,1.247-3.258,1.247-3.258h-5.43c-1.16,2.6-3.784,8.189,0.489,9.954
				c4.277,1.759,9.734,0.85,11.621-1.677c1.65-2.202,3.962-6.782,1.16-11.36c-2.81-4.579-4.899-6.694-2.225-10.392
				C132.483,26.286,136.222,26.199,132.885,32.054z"/>
			<path class="st1" d="M21.795,34.434l-0.092,0.078l-5.713,16.15h-5.108l11.133-28.983h5.534L25.488,37.87h0.092l5.699-16.192
				h5.082L25.228,50.662h-5.484L21.795,34.434z"/>
			<path class="st1" d="M39.074,21.63h5.342l-8.395,21.844c-0.645,1.878-0.722,2.765,0.823,2.802
				c1.914,0.042,2.523-1.759,2.993-2.998l8.317-21.648h5.342l-8.047,20.958c-1.887,4.904-3.386,8.802-10.566,8.687
				c-4.4-0.069-6.142-2.747-3.861-8.687L39.074,21.63z"/>
			<path class="st1" d="M45.01,50.872l11.133-28.978h7.554l-3.812,17.114h0.059l9.432-17.114h7.508L65.753,50.872h-5.137
				l9.277-22.713h-0.059L57.34,50.872h-3.984L58.4,28.159h-0.059l-8.235,22.713H45.01z"/>
			<path class="st1" d="M76.428,50.854c7.733,0.005,8.765-4.725,9.88-7.884c1.207-3.391,1.828-5.721-0.348-7.408l0.032-0.082
				c3.481-1.846,4.104-3.258,5.082-5.809c2.244-5.841-0.471-7.792-4.529-7.792h-6.943L68.468,50.868L76.428,50.854z M83.371,26.332
				c1.905,0,3.629-0.416,2.097,3.656c-1.513,4.009-2.468,3.131-4.908,3.327L83.371,26.332z M78.71,38.593
				c1.901,0,3.839-0.301,2.304,3.765c-1.518,4.009-1.559,3.962-5.388,3.962L78.71,38.593z"/>
			<path class="st1" d="M85.294,50.964l11.265-29.152h12.256l-1.69,4.629h-6.914l-2.838,7.229h6.704l-1.782,4.556h-6.704
				l-3.039,8.199h7.284l-1.919,4.538H85.294L85.294,50.964z"/>
			<path class="st1" d="M110.127,39.544h1.774c1.212,0.114,1.192,1.271,0.667,3.048c-0.525,1.778-1.567,4.163-2.459,6.714
				c-0.192,0.581-0.274,1.119-0.333,1.663h6.164l-0.165-0.389c-0.142-0.266-0.16-0.617-0.137-1c0.411-1.851,2.289-6.828,3.03-9.14
				c0.677-2.011,0.119-3.323-1.215-3.747l0.032-0.078c2.76-1.311,4.186-3.519,5.378-6.622c2.212-5.768,0.882-8.006-3.51-8.006
				h-7.824l-11.133,28.988h5.342L110.127,39.544z"/>
		</g>
		<g>
			<path class="st2" d="M19.935,32.876l-0.087,0.078l-5.712,16.15H9.022l11.133-28.978h5.534l-2.061,16.187h0.092l5.699-16.187H34.5
				L23.367,49.104h-5.484L19.935,32.876z"/>
			<path class="st2" d="M37.209,20.07h5.342L34.16,41.914c-0.649,1.874-0.721,2.766,0.828,2.803
				c1.914,0.042,2.518-1.759,2.989-2.998l8.317-21.648h5.342l-8.043,20.958c-1.887,4.904-3.391,8.802-10.57,8.687
				c-4.4-0.069-6.142-2.742-3.861-8.687L37.209,20.07z"/>
			<path class="st2" d="M43.146,49.319l11.132-28.983h7.554L58.02,37.454h0.064l9.432-17.118h7.509L63.893,49.319h-5.137
				l9.273-22.717H67.97l-12.5,22.717h-3.98l5.041-22.717h-0.059l-8.235,22.717H43.146z"/>
			<path class="st2" d="M81.51,24.773c1.905,0,3.629-0.416,2.093,3.651c-1.513,4.009-2.468,3.131-4.908,3.327L81.51,24.773z
				 M76.849,37.031c1.905,0,3.839-0.301,2.304,3.77c-1.513,4.004-1.559,3.957-5.388,3.957L76.849,37.031z M74.564,49.296
				c7.66,0.397,8.765-4.721,9.884-7.884c1.202-3.386,1.824-5.721-0.352-7.408l0.032-0.078c3.479-1.851,4.104-3.258,5.082-5.809
				c2.244-5.836-0.471-7.792-4.529-7.792H77.74L66.603,49.324L74.564,49.296z"/>
			<path class="st2" d="M83.434,49.406L94.7,20.258h12.256l-1.695,4.624h-6.914l-2.834,7.229h6.699l-1.787,4.556h-6.694
				l-3.039,8.199h7.284l-1.919,4.538C96.057,49.406,83.434,49.406,83.434,49.406z"/>
			<path class="st2" d="M108.263,37.985h1.774c1.212,0.114,1.192,1.271,0.667,3.048c-0.53,1.774-1.572,4.163-2.459,6.714
				c-0.192,0.581-0.279,1.119-0.333,1.659h6.164l-0.165-0.384c-0.142-0.269-0.16-0.621-0.132-1.005
				c0.406-1.851,2.284-6.828,3.026-9.145c0.681-2.011,0.119-3.323-1.212-3.743l0.027-0.082c2.76-1.316,4.186-3.519,5.378-6.622
				c2.212-5.772,0.882-8.011-3.514-8.011h-7.824L98.524,49.401h5.351L108.263,37.985z"/>
			<path class="st2" d="M131.022,30.499h5.434c1.335-2.641,1.966-4.917,1.421-7.088c-0.712-2.861-6.599-4.848-11.575-1.54
				c-5.699,3.788-3.218,11.059-1.874,13.034c1.471,2.158,3.93,4.593,2.313,8.025c-0.43,0.923-0.868,1.654-1.375,2.015
				c-1.257,0.891-4.031,0.859-2.72-2.289c1.215-2.912,1.247-3.258,1.247-3.258h-5.434c-1.156,2.6-3.784,8.189,0.489,9.949
				c4.277,1.764,9.734,0.854,11.621-1.673c1.645-2.198,3.962-6.782,1.156-11.356c-2.806-4.579-4.895-6.694-2.225-10.392
				C130.619,24.727,134.362,24.641,131.022,30.499z"/>
		</g>
		<polygon class="st3" points="8.406,47.943 109.634,29.297 100.81,39.854 111.714,30.339 111.886,35.353 113.788,30.509 
			118.979,36.912 115.863,29.819 120.707,32.066 116.905,28.087 138.361,23.069 138.229,22.333 116.905,25.49 121.054,20.299 
			114.999,24.801 114.999,18.567 112.75,24.801 108.076,18.742 111.018,25.665 98.908,19.262 109.808,27.218 8.231,47.121 		"/>
		<g>
			<path class="st2" d="M48.063,58.92l0.352-1.133c1.572,0.027,2.578-0.384,3.299-1.627c0.197-0.338,0.498-1.138,0.498-1.138h-3.213
				l0.389-1.102h3.227l0.475-1.266h1.284l-0.43,1.266h1.567l-0.379,1.065h-1.636C53.122,56.37,52.194,59.09,48.063,58.92z"/>
			<polygon class="st2" points="56.02,54.149 56.399,53.139 58.702,53.139 58.368,54.149 			"/>
			<path class="st2" d="M54.402,58.898l0.461-1.133c1.705,0.124,4.104-0.324,5.118-3.45h1.212
				C60.639,56.676,58.88,59.199,54.402,58.898z"/>
			<path class="st2" d="M63.432,52.96h1.175c-0.251,1.722-1.673,5.566-4.556,6.028l0.48-1.389
				C61.923,57.083,62.92,55.108,63.432,52.96z"/>
			<path class="st2" d="M65.799,52.96h1.156c-0.379,1.01-1.047,3.506,0.124,4.762l-0.53,1.279
				C65.387,58.243,64.748,55.813,65.799,52.96z"/>
			<polygon class="st2" points="67.636,54.309 68.089,52.988 67.417,52.988 66.96,54.309 			"/>
			<polygon class="st2" points="68.728,54.309 69.181,52.988 68.504,52.988 68.047,54.309 			"/>
			<polygon class="st2" points="78.082,54.309 78.545,52.988 77.868,52.988 77.406,54.309 			"/>
			<polygon class="st2" points="79.171,54.309 79.632,52.988 78.956,52.988 78.498,54.309 			"/>
			<polygon class="st2" points="72.096,56.356 72.484,55.25 68.069,55.25 67.686,56.356 			"/>
			<polygon class="st2" points="98.876,56.444 99.265,55.337 94.855,55.337 94.466,56.444 			"/>
			<path class="st2" d="M72.718,54.052l0.37-1.06h4.287c-0.394,1.6-1.618,3.482-1.796,3.592c0.037,0.53,1.389,1.421,1.389,1.421
				l-0.443,1.192c-0.677-0.246-1.722-1.581-1.759-1.722c-1.119,1.01-2.545,1.49-4.163,1.545l0.443-1.244
				c2.28-0.266,3.698-1.38,4.661-3.725L72.718,54.052L72.718,54.052z"/>
			<path class="st2" d="M83.85,54.052l0.37-1.06h4.287c-0.389,1.6-1.618,3.482-1.791,3.592c0.037,0.53,1.384,1.421,1.384,1.421
				l-0.443,1.192c-0.677-0.246-1.722-1.581-1.759-1.722c-1.119,1.01-2.545,1.49-4.163,1.545l0.443-1.244
				c2.28-0.266,3.702-1.38,4.661-3.725L83.85,54.052L83.85,54.052z"/>
		</g>
		<path class="st1" d="M136.802,32.83L136.802,32.83c1.993-6.229,4.935-11.978,15.058-11.796c4.671,0.087,8.906,3.112,7.266,8.482
			c-1.645,5.365-4.41,8.993-8.308,9.692c2.944,0.603,4.676,4.236,1.819,10.382c-2.856,6.142-6.663,10.552-15.575,9.775
			c-8.911-0.776-7.869-8.478-5.886-12.631h7.787c-1.215,2.769-2.165,8.436,3.026,5.795c1.645-1.037,3.026-4.328,3.459-6.403
			c0.43-2.075-0.261-3.633-2.335-3.633c-2.075,0-3.464,0-3.464,0l2.508-6.147c6.965,1.129,10.035-5.32,9.259-7.956
			c-0.132-1.471-3.981-2.555-6.75,4.437L136.802,32.83L136.802,32.83z"/>
		<path class="st4" d="M134.814,31.057L134.814,31.057c1.983-6.229,4.931-11.983,15.053-11.796c4.671,0.082,8.911,3.112,7.266,8.478
			c-1.645,5.361-4.41,8.993-8.308,9.688c2.944,0.603,4.676,4.24,1.819,10.382c-2.856,6.142-6.663,10.557-15.575,9.775
			c-8.906-0.776-7.869-8.478-5.877-12.631h7.787c-1.212,2.769-2.162,8.436,3.026,5.795c1.645-1.037,3.03-4.328,3.459-6.403
			c0.433-2.08-0.261-3.633-2.335-3.633c-2.075,0-3.459,0-3.459,0l2.513-6.142c6.965,1.124,10.031-5.32,9.254-7.961
			c-0.128-1.467-3.981-2.55-6.746,4.442L134.814,31.057L134.814,31.057z"/>
		<polygon class="st2" points="90.257,53.047 91.464,53.047 90.339,55.73 89.129,55.73 		"/>
		<path class="st2" d="M93.539,53.089h1.302c-0.868,3.331-2.038,6.274-6.189,6.101l0.343-1.257
			C91.381,57.892,92.675,57.069,93.539,53.089z"/>
	</g>
</g>
</svg>
