<?xml version="1.0" encoding="utf-8"?>
<!-- Generator: Adobe Illustrator 25.0.0, SVG Export Plug-In . SVG Version: 6.00 Build 0)  -->
<svg version="1.1" id="&#x30EC;&#x30A4;&#x30E4;&#x30FC;_1" xmlns="http://www.w3.org/2000/svg" xmlns:xlink="http://www.w3.org/1999/xlink" x="0px" y="0px" viewbox="0 0 41.1 55.9" style="enable-background:new 0 0 41.1 55.9;" xml:space="preserve" width="41.1" height="55.9">
<style type="text/css">
	.st0{fill:#E60012;}
</style>
<path class="st0" d="M12.5,20.5v-7.7h25V4.6L41.1,0h-3.6l0,0H7l0,0C4.3,2.8,2.7,4.4,0,7.2v20.7v2.7v18.1c2.7,2.8,4.3,4.4,7,7.2h25.1
	h3.6l-1.6-2.1c1.7-1.7,3-3.1,5-5.1v-21c-2.7-2.8-4.3-4.4-7-7.2H12.5z M26.6,43.1H12.5V43v-9.6h14.1C26.6,33.4,26.6,43.1,26.6,43.1z"/>
</svg>
