<?xml version="1.0" encoding="utf-8"?>
<!-- Generator: Adobe Illustrator 25.0.0, SVG Export Plug-In . SVG Version: 6.00 Build 0)  -->
<svg version="1.1" id="&#x30EC;&#x30A4;&#x30E4;&#x30FC;_1" xmlns="http://www.w3.org/2000/svg" xmlns:xlink="http://www.w3.org/1999/xlink" x="0px" y="0px" viewbox="0 0 45 56" style="enable-background:new 0 0 45 56;" xml:space="preserve" width="45" height="56">
<style type="text/css">
	.st0{display:none;fill:#E60012;}
	.st1{fill:#E60012;}
</style>
<path class="st0" d="M38,3.2L40.5,0h-5.7l0,0L9.7,0L2.6,7.2v21c2.8,2.8,4.3,4.4,7.1,7.2h19.7v7.7H7.3l0,12.8h24.9l-0.1,0.1h9.7
	l-3.1-4c1-1,2-2,3.2-3.3V28v-2.7V7.2C40.4,5.6,39.2,4.4,38,3.2z M29.4,13v9.6l-14.2,0v-9.8h14.2V13z"/>
<path class="st0" d="M41.8,30.3L37,24.6l3.8-4.2V8.2L33.4,0H10L2.7,8.2v12.2l3.8,4.2l-4.8,5.8v14.1l9.6,11.5h21h4l-2.2-2.3l7.7-9.3
	V30.3z M28,11.6v7.2H15.4v-7.2H28z M28.4,42.6H15V32.1h13.4V42.6z"/>
<path class="st0" d="M41.2,0h-0.9H28.2H14.9H2.5H0l2.5,3.2v9.6v9.2h12.4h2.5l-2.5-3.2v-6h13.3V22l-16,34h13.1l0-0.1V56h3.5l-2.2-2.9
	L41.2,22V3.2L43.7,0H41.2z"/>
<path class="st0" d="M14.8,20.5v-7.7h25V4.6L43.4,0h-3.6h0H9.3l0,0C6.6,2.8,5,4.4,2.3,7.2v20.7v2.7v18.1c2.7,2.8,4.3,4.4,7,7.2
	l25.1,0H38l-1.6-2.1c1.7-1.7,3-3.1,5-5.1V27.7c-2.7-2.8-4.3-4.4-7-7.2H14.8z M28.9,43.1H14.8V43v-9.6l14.1,0V43.1z"/>
<path class="st0" d="M39.8,12.8V4.6L43.4,0h-3.6h0H2.5H2.3v30.6l26.6,0v12.5H14.8V43l3.6-4.6h-3.6H2.3v10.4c2.7,2.8,4.3,4.4,7,7.2
	l25.1,0H38l-1.6-2.1c1.7-1.7,3-3.1,5-5.1V25c-2.7-2.8-4.3-4.4-7-7.2H14.8v-5H39.8z"/>
<path class="st1" d="M41.5,34L41.5,34h-5.9V0h-6.6h-6.2h-6.9L0.4,34h0v12.8H23l0,4.6L19.2,56H23h12.6h3.8l-3.8-4.5v-4.6h5.9v-8.2
	L45,34H41.5z M13.5,33.9L13.5,33.9L13.5,33.9L13.5,33.9z M13.5,34L23,13.4L23,34H13.5z"/>
<path class="st0" d="M41.8,30.3L37,24.6l3.8-4.2V8.2L33.4,0H9.2L2.6,7.4v10.4h0h12.5h0.2h3.4l-3.4-4.4v-1.8H28v9.6H17.1v11h11.3
	v10.5H15v-6H1.6v9.6l7.8,9.7H34h4l-2.2-2.3l5.9-7.5V30.3z"/>
<path class="st0" d="M39.8,51.4v-8.2h-25v-5h19.6c2.7-2.8,4.3-4.4,7-7.2V7.2c-2-2-3.4-3.4-5-5.1l-2-2.1L9.3,0C6.5,2.8,5,4.4,2.3,7.2
	v10.4h12.5h3.6L14.8,13v-0.2h14.1v12.5l-19.5,0c-2.4,2.4-5.1,5.2-7.1,7.2V56h0.2h37.3h0h3.6L39.8,51.4z"/>
<path class="st0" d="M28.3,0h-13l-4,13.6l4.1,0.3v37.5L11.4,56h3.9h12.9h3.9l-3.9-4.5V0z"/>
<path class="st0" d="M31.8,0L41,12.4v31.1l-7.4,10l2.1,2.4h-3.9H11.7L2.5,43.5V12.4L11.7,0H31.8z M28.1,14.4H15.3v27.2h12.8V14.4z"/>
</svg>
