<?xml version="1.0" encoding="utf-8"?>
<!-- Generator: Adobe Illustrator 21.1.0, SVG Export Plug-In . SVG Version: 6.00 Build 0)  -->
<svg version="1.1" id="編集モード" xmlns="http://www.w3.org/2000/svg" xmlns:xlink="http://www.w3.org/1999/xlink" x="0px"
	 y="0px" width="184px" height="184px" viewBox="0 0 184 184" style="enable-background:new 0 0 184 184;" xml:space="preserve">
<style type="text/css">
	.st0{fill:#F41700;}
	.st1{fill:#231815;}
	.st2{fill:#F9BE00;}
	.st3{fill:#FFFFFF;}
	.st4{fill:#F9BE00;stroke:#231815;stroke-width:2.9492;stroke-miterlimit:10;}
	.st5{fill:none;stroke:#231815;stroke-width:3.1746;stroke-miterlimit:10;}
	.st6{fill:none;stroke:#231815;stroke-width:2.9492;stroke-linecap:round;stroke-linejoin:round;stroke-miterlimit:10;}
	.st7{fill:#F9BE00;stroke:#231815;stroke-width:2.9492;stroke-linecap:round;stroke-linejoin:round;stroke-miterlimit:10;}
	.st8{fill:#F9BE00;stroke:#231815;stroke-width:3.3254;stroke-linecap:round;stroke-linejoin:round;stroke-miterlimit:10;}
	.st9{fill:#F9BE00;stroke:#231815;stroke-width:2.9728;stroke-linecap:round;stroke-linejoin:round;stroke-miterlimit:10;}
	.st10{fill:none;stroke:#231815;stroke-width:3.2;stroke-linecap:round;stroke-miterlimit:10;}
	.st11{fill:#7CD9F2;stroke:#231815;stroke-width:3.2;stroke-linecap:round;stroke-linejoin:round;stroke-miterlimit:10;}
	.st12{fill:#F9BE00;stroke:#231815;stroke-width:2.9728;stroke-miterlimit:10;}
	.st13{fill:#F9BE00;stroke:#231815;stroke-width:3.5673;stroke-linecap:round;stroke-linejoin:round;stroke-miterlimit:10;}
	.st14{fill:none;stroke:#231815;stroke-width:3.2;stroke-miterlimit:10;}
	.st15{fill:none;stroke:#231815;stroke-width:3.2;stroke-linecap:round;stroke-linejoin:round;stroke-miterlimit:10;}
</style>
<g>
	<path class="st9" d="M88.1,110.3c0,0-6.4,15-6.4,18.2c0,3.3-1.1,5.6-3.5,4.1c-2.4-1.5-7.4-12.3-0.9-25.7"/>
	<path class="st2" d="M137.7,94.3l1.5,0l-2.1-11.5l-1.7-2l-0.8-0.8c-1-3.2-2.9-8.1-5.6-11.4c-3.3-4.1-6.9-6.9-11.3-8.9
		c-8.1-3.7-18.6-3-28.3,1.1c-3.5,1.5-6.8,3.5-9.8,6c-3,2.6-5.6,5.5-7.6,8.7c-3,4.9-6.1,12.7-3.7,22.3l0.6,2.4l5,12
		c0,0,3.4,5.3,4.3,6.3c1.2-2.8,2.8-5.9,6.1-10.4C89.7,101,95,95.4,102,92.4c6-2.6,12.9-4.2,20.8-2.8
		C128.9,90.7,134.2,92.7,137.7,94.3"/>
	<path class="st3" d="M87.2,103.6c3.5-4.1,11.4-10.5,16.1-13c4.6-2.4,10.5-4.2,17.4-4.8c8.6-0.8,17.1,0.7,18.7,1.4
		c0.5,1.9,1.3,6.4,1.6,8.9c0,0,3,12.2,0.7,22.8c-2.1,9.6-9.2,20.4-14.9,25.3c-5.9,5.1-17.6,11.6-17.6,11.6l-5.9-0.5l-0.5-7.9
		c0,0,2.2-2.5,1-7.7c-1.2-5.2-13.3-11-13.3-11c-5-1.9-9.1-6.6-12.1-10.5C78.9,117.4,82.1,109.7,87.2,103.6z"/>
	<path class="st5" d="M89.9,59.3c-32.2,13.7-19.5,44-17.6,48.4c0.8,2,10.1,16,18.2,21c3.1,1.9,12.2,6.2,13.4,10.9
		c1.3,5.2-1,7.7-1,7.7l0.5,7.9l5.9,0.5c0,0,11.7-6.5,17.6-11.6c5.7-4.9,12.8-15.7,14.9-25.3c1.1-5.2,1.8-13.9,0.5-21.4
		c-1.3-7.6-4.4-14.1-5.4-16.5C134.9,76.5,122.1,45.6,89.9,59.3"/>
	<path class="st6" d="M79.5,116.2c0,0,3.1-10.2,10.2-16.6c5.2-4.6,10.4-7.8,15.4-9.5c8.3-2.9,17.5-4.3,22.9-4
		c8.3,0.4,10.8,1.4,10.8,1.4"/>
	<g>
		<path class="st1" d="M131.2,85.9c2.1,6.3,3.7,12.6,4.7,19.1c0.5,3.3,0.9,6.6,0.8,9.9c-0.1,3.4-0.9,6.7-2,9.9
			c-2.2,6.3-5.9,12-10.4,16.8c-2.3,2.4-4.9,4.5-7.6,6.3c-2.7,1.8-5.6,3.4-8.6,4.7c5.7-3.2,10.8-7.2,15-12c4.2-4.8,7.4-10.5,9.3-16.4
			c0.9-3,1.6-6.1,1.6-9.2c0-3.1-0.4-6.3-0.9-9.4c-1.1-6.3-2.8-12.5-4.7-18.6l0,0c-0.2-0.8,0.2-1.6,1-1.8
			C130.1,84.7,130.9,85.1,131.2,85.9z"/>
	</g>
	<g>
		<path class="st1" d="M118.7,87.4c2.3,5.7,4.4,11.5,6.3,17.4c0.9,3,1.9,5.8,2.5,9.1c0.5,3.1,0.7,6.3,0.4,9.6
			c-0.2,3.2-1,6.4-2.3,9.3c-1.2,3-3,5.7-5.1,8c-1,1.2-2.1,2.3-3.3,3.4c-1.1,1.1-2.3,2.1-3.5,3.1c-1.2,1-2.4,1.9-3.7,2.8
			c-1.3,0.8-2.6,1.7-4.1,2.2c2.7-1.5,4.9-3.7,7-5.9c2.1-2.2,4.2-4.5,6-6.9c1.8-2.4,3.3-5,4.3-7.7c1-2.8,1.6-5.6,1.8-8.6
			c0.1-2.9-0.1-5.9-0.6-8.8c-0.6-2.8-1.6-5.8-2.5-8.6c-1.9-5.8-4-11.6-6-17.4l0,0c-0.3-0.8,0.1-1.6,0.9-1.9
			C117.6,86.3,118.4,86.7,118.7,87.4z"/>
	</g>
	<g>
		<path class="st1" d="M106.1,90.3c2.7,5,5.2,10,7.5,15.2c2.3,5.2,4.5,10.4,5.7,16.1c0.1,0.7,0.2,1.5,0.3,2.2c0,0.7,0.1,1.5,0.1,2.2
			c0,1.5-0.1,2.9-0.2,4.4c-0.3,2.9-1.1,5.7-2.2,8.4c-0.6,1.3-1.3,2.6-2.1,3.8c-0.9,1.2-1.9,2.3-2.9,3.3c-2,2-4.2,3.8-6.4,5.5
			c1.9-2.1,3.8-4.2,5.5-6.3c0.9-1.1,1.7-2.2,2.4-3.3c0.7-1.2,1.2-2.4,1.7-3.7c0.9-2.5,1.5-5.2,1.7-7.9c0.1-1.3,0.1-2.7,0-4
			c0-0.7-0.1-1.3-0.2-2c-0.1-0.7-0.2-1.3-0.3-1.9c-0.6-2.6-1.6-5.2-2.6-7.8c-1-2.6-2.1-5.1-3.2-7.7c-2.3-5.1-4.7-10.1-7.3-15.1l0,0
			c-0.4-0.7-0.1-1.6,0.6-2C104.8,89.3,105.7,89.6,106.1,90.3z"/>
	</g>
	<g>
		<path class="st1" d="M95.9,97.5c2.3,4.2,4.6,8.4,7,12.5c0.6,1,1.2,2,1.8,3c0.7,1.1,1.3,2.1,1.9,3.2c1.2,2.1,2.3,4.3,3.3,6.5
			c1,2.2,1.9,4.5,2.5,6.9c0.6,2.4,0.9,4.9,0.6,7.4c-0.4,5-3.2,9.6-7.1,12.4c1.7-1.7,3.1-3.6,4.1-5.8c0.5-1.1,0.9-2.2,1.1-3.3
			c0.3-1.1,0.4-2.3,0.4-3.4c0.1-2.3-0.3-4.6-0.9-6.8c-0.7-2.2-1.7-4.4-2.7-6.5c-1.1-2.1-2.2-4.2-3.5-6.2c-0.6-1-1.2-2-1.9-2.9
			c-0.7-1-1.4-2.1-2-3.1c-2.5-4.1-4.9-8.3-7.2-12.4c-0.4-0.7-0.2-1.6,0.6-2C94.6,96.5,95.5,96.7,95.9,97.5
			C95.9,97.4,95.9,97.4,95.9,97.5L95.9,97.5z"/>
	</g>
	<g>
		<path class="st1" d="M87,106.3c2.2,3.4,4.4,6.8,6.8,10c1.2,1.6,2.4,3.2,3.8,4.6c1.4,1.4,2.9,2.8,4.4,4.3c1.5,1.4,3,3,4.2,4.7
			c1.3,1.8,2.3,3.8,2.6,6.1c0.2,1.1,0.2,2.2,0.1,3.3c-0.1,1.1-0.3,2.1-0.5,3.2c-0.6,2-1.5,4-3,5.5c1-1.8,1.5-3.8,1.7-5.7
			c0.2-2,0.1-3.9-0.3-5.8c-0.4-1.8-1.3-3.5-2.5-5c-1.2-1.5-2.7-2.8-4.2-4.2c-1.5-1.4-3.1-2.7-4.6-4.2c-1.5-1.5-2.9-3.2-4.1-4.8
			c-1.3-1.6-2.5-3.3-3.6-5.1c-1.1-1.7-2.3-3.4-3.3-5.2c-0.4-0.7-0.2-1.6,0.5-2C85.7,105.4,86.6,105.6,87,106.3L87,106.3z"/>
	</g>
	<path class="st9" d="M131.6,72.1c0,0,10.2,5.6,9.7,20.9c-0.2,6.7-8.1,16.1-12.3,18.1c-2.6,1.3-5.2-1.9-4.7-4.8
		c0.5-2.9,1.3-6.8,0.9-12.3c-0.2-3.2-3.4-12.7-3.4-12.7"/>
	<path class="st1" d="M116.5,153.1c-2.1-2.5-4.8-4.6-8-6.3c-2.8-1.5-6.4-2.6-10.1-2.9c-3.8-0.3-7.4,0.2-10.1,1.3
		c-3.1,1.3-5.2,3.5-6,6.3c-0.8,2.9,0,5.6,2.1,7.6c1.8,1.6,4.4,2.6,7.6,2.8c2.7,0.1,5.6-0.3,8.7-1.3c1,7.5,5.4,11.4,9.2,12.5
		c3.5,1,6.9-0.1,8.8-2.9c1.9-2.7,2.4-6.2,1.5-9.7C119.8,157.9,118.4,155.4,116.5,153.1z"/>
	<path class="st2" d="M117.1,161.3c0.6,2.6,0.3,5.1-1,7c-1.1,1.6-3,2.1-5.1,1.5c-3.1-0.9-6.7-4.5-6.9-11.6l-0.1-2.4l-2.3,0.9
		c-7.6,3-12.8,1.9-14.9,0c-1.2-1.1-1.6-2.5-1.1-4.1c0.5-1.8,1.8-3.1,4-4c2.3-1,5.3-1.3,8.5-1.1c3.2,0.3,6.3,1.1,8.7,2.5
		C112.3,152.7,116,156.9,117.1,161.3z"/>
	<g>
		<path class="st1" d="M35.2,82.9c1.2-0.8,1.6-2.4,0.8-3.6c-0.8-1.2-2.4-1.6-3.6-0.8c-1.2,0.8-1.6,2.4-0.8,3.6
			C32.4,83.3,34,83.7,35.2,82.9z"/>
		<path class="st1" d="M52.8,56.9c1-0.6,1.3-2,0.7-3c-0.6-1-2-1.3-3-0.7c-1,0.6-1.3,2-0.7,3C50.5,57.2,51.8,57.5,52.8,56.9z"/>
		<ellipse transform="matrix(0.8481 -0.5298 0.5298 0.8481 -24.6919 35.5558)" class="st1" cx="49.7" cy="60.8" rx="2" ry="2"/>
		<path class="st1" d="M32.3,53.3c1-0.6,1.2-1.8,0.6-2.8c-0.6-1-1.9-1.3-2.8-0.7c-1,0.6-1.2,1.9-0.6,2.8
			C30.1,53.6,31.4,53.9,32.3,53.3z"/>
		<path class="st1" d="M85.5,13.6c1.2-0.8,1.6-2.4,0.8-3.6c-0.8-1.2-2.4-1.6-3.6-0.8c-1.2,0.8-1.6,2.4-0.8,3.6
			C82.7,14,84.3,14.3,85.5,13.6z"/>
		<path class="st1" d="M64.8,36.3c1.1-0.7,1.4-2.1,0.7-3.2c-0.7-1.1-2.1-1.4-3.2-0.7c-1.1,0.7-1.4,2.1-0.7,3.2
			C62.3,36.6,63.7,37,64.8,36.3z"/>
		<path class="st1" d="M51.4,34.9c1.3-0.8,1.7-2.5,0.9-3.8c-0.8-1.3-2.5-1.7-3.8-0.9c-1.3,0.8-1.7,2.5-0.9,3.8
			C48.4,35.3,50.1,35.7,51.4,34.9z"/>
		<path class="st1" d="M83.4,34.9c1-0.6,1.3-1.9,0.7-2.9c-0.6-1-1.9-1.3-3-0.7c-1,0.6-1.3,1.9-0.7,3C81,35.2,82.3,35.5,83.4,34.9z"
			/>
		<path class="st1" d="M89.6,32.8c1-0.6,1.4-2,0.7-3c-0.6-1-2-1.3-3-0.7c-1,0.7-1.3,2-0.7,3.1C87.2,33.2,88.6,33.5,89.6,32.8z"/>
		<path class="st1" d="M76.9,52.1c1.1-0.7,1.4-2.2,0.8-3.3c-0.7-1.1-2.2-1.5-3.3-0.8c-1.1,0.7-1.4,2.2-0.7,3.3
			C74.3,52.5,75.8,52.8,76.9,52.1z"/>
		<path class="st1" d="M80.6,57.6c1-0.6,1.3-2,0.7-3c-0.6-1-2-1.3-3-0.7c-1,0.6-1.3,2-0.7,3C78.2,57.9,79.5,58.2,80.6,57.6z"/>
		<ellipse transform="matrix(0.8481 -0.5298 0.5298 0.8481 -8.0761 46.8712)" class="st1" cx="77.7" cy="37.5" rx="2.2" ry="2.1"/>
		<ellipse transform="matrix(0.8481 -0.5298 0.5298 0.8481 -11.4316 46.6603)" class="st1" cx="75.7" cy="43.3" rx="2.1" ry="2.1"/>
		<path class="st1" d="M70,49.6c1-0.6,1.3-1.9,0.7-2.9c-0.6-1-1.9-1.3-2.9-0.7c-1,0.6-1.3,1.9-0.7,2.9C67.7,49.9,69,50.2,70,49.6z"
			/>
		<path class="st1" d="M63.8,49.9c1-0.7,1.4-2,0.7-3c-0.6-1-2-1.4-3.1-0.7c-1,0.6-1.3,2-0.7,3C61.4,50.3,62.8,50.6,63.8,49.9z"/>
		<path class="st1" d="M57.6,52.4c1-0.6,1.3-1.9,0.7-2.9c-0.6-1-1.9-1.3-2.9-0.7c-1,0.6-1.3,1.9-0.7,2.9
			C55.3,52.8,56.6,53.1,57.6,52.4z"/>
		<path class="st1" d="M63.3,65.9c0.7-0.5,0.9-1.4,0.5-2.1c-0.5-0.7-1.4-0.9-2.1-0.5c-0.7,0.4-0.9,1.4-0.5,2.1
			C61.6,66.2,62.6,66.4,63.3,65.9z"/>
		<path class="st1" d="M50.4,67.8c0.6-0.4,0.8-1.2,0.4-1.8c-0.4-0.6-1.2-0.8-1.8-0.4c-0.6,0.4-0.8,1.1-0.4,1.8
			C49,68,49.8,68.1,50.4,67.8z"/>
		<path class="st1" d="M51.5,72.5c0.5-0.3,0.6-0.9,0.3-1.4c-0.3-0.5-0.9-0.6-1.4-0.3c-0.5,0.3-0.6,0.9-0.3,1.4
			C50.4,72.6,51,72.8,51.5,72.5z"/>
		<path class="st1" d="M52.9,88.4c0.7-0.4,0.9-1.3,0.5-2c-0.4-0.7-1.3-0.9-2-0.5c-0.7,0.4-0.9,1.3-0.4,2
			C51.3,88.6,52.2,88.8,52.9,88.4z"/>
		<path class="st1" d="M95,32.3c0.8-0.5,1-1.5,0.5-2.3c-0.5-0.8-1.5-1-2.3-0.5c-0.8,0.5-1,1.5-0.5,2.3C93.2,32.6,94.2,32.8,95,32.3z
			"/>
		<path class="st1" d="M99.4,33.7c0.6-0.4,0.8-1.2,0.4-1.8c-0.4-0.6-1.2-0.8-1.8-0.4c-0.6,0.4-0.8,1.2-0.4,1.8
			C98,33.9,98.8,34.1,99.4,33.7z"/>
		<path class="st1" d="M107.4,17.2c0.7-0.4,0.9-1.4,0.5-2.1c-0.4-0.7-1.4-0.9-2.1-0.5c-0.7,0.5-1,1.4-0.5,2.1
			C105.7,17.4,106.7,17.6,107.4,17.2z"/>
		<path class="st1" d="M119.9,36.4c1.1-0.7,1.4-2.1,0.7-3.2c-0.7-1.1-2.1-1.4-3.2-0.7c-1.1,0.7-1.4,2.1-0.7,3.2
			C117.3,36.8,118.8,37.1,119.9,36.4z"/>
		<path class="st1" d="M105.5,44.8c0.5-0.3,0.7-1.1,0.4-1.6c-0.3-0.5-1-0.7-1.6-0.4c-0.5,0.3-0.7,1-0.4,1.6
			C104.2,45,105,45.2,105.5,44.8z"/>
	</g>
	<g>
		<g>
			<g>
				<path class="st10" d="M109,80c-1.7,1-2.3-0.1-4,0.9c-1.7,1-1.1,2-2.9,3c-1.7,1-2.3-0.1-4.1,0.9c-1.7,1-1.1,2-2.9,3
					c-1.7,1-2.3-0.1-4.1,0.9c-1.7,1-1.2,2-2.9,3"/>
			</g>
		</g>
		<g>
			<g>
				<path class="st1" d="M111.8,65.6c0,0.7-0.1,1.3-0.4,1.9c-0.3,0.6-0.8,1.2-1.4,1.5c-0.6,0.3-1.3,0.5-2,0.5c-0.7,0-1.5-0.3-2-1
					c-0.2-0.3-0.2-0.8,0.2-1c0.2-0.2,0.5-0.2,0.7-0.1l0.2,0.1c0.2,0.1,0.5,0.1,0.9,0.1c0.3-0.1,0.7-0.2,1-0.4
					c0.3-0.2,0.5-0.4,0.8-0.7c0.2-0.3,0.4-0.7,0.6-1.1l0.1-0.2c0.2-0.4,0.6-0.5,1-0.4C111.6,65.1,111.8,65.3,111.8,65.6z"/>
			</g>
			<g>
				<path class="st1" d="M75.2,85.1c0.4,0,0.8,0.1,1.2,0.1c0.4,0,0.7-0.1,1-0.3c0.3-0.2,0.6-0.4,0.8-0.7c0.2-0.3,0.3-0.5,0.4-0.8
					l0-0.2c0-0.4,0.4-0.7,0.8-0.6c0.3,0,0.5,0.2,0.6,0.5c0.3,0.8,0.1,1.6-0.2,2.2c-0.3,0.6-0.9,1.1-1.5,1.4c-0.6,0.3-1.4,0.5-2,0.4
					c-0.7-0.1-1.2-0.3-1.8-0.7c-0.3-0.2-0.4-0.7-0.2-1c0.2-0.2,0.4-0.4,0.7-0.3L75.2,85.1z"/>
			</g>
		</g>
	</g>
	<path class="st11" d="M121.4,46.1c0,0-10.5,20.2,0,20.4C130.4,66.7,126,51.4,121.4,46.1z"/>
</g>
</svg>
